<?xml version="1.0" encoding="utf-8"?>
<COLLADA xmlns="http://www.collada.org/2005/11/COLLADASchema" version="1.4.1">
<asset><contributor><authoring_tool>VATs starter props (see CREDITS.md)</authoring_tool></contributor><unit name="meter" meter="1"/><up_axis>Z_UP</up_axis></asset>
<library_effects>
<effect id="m0-fx"><profile_COMMON><technique sid="common"><lambert><diffuse><color>0.620 0.380 0.300 1</color></diffuse></lambert></technique></profile_COMMON></effect>
<effect id="m1-fx"><profile_COMMON><technique sid="common"><lambert><diffuse><color>0.400 0.300 0.230 1</color></diffuse></lambert></technique></profile_COMMON></effect>
</library_effects><library_materials>
<material id="m0" name="m0"><instance_effect url="#m0-fx"/></material>
<material id="m1" name="m1"><instance_effect url="#m1-fx"/></material>
</library_materials><library_geometries><geometry id="g" name="armchair"><mesh>
<source id="g-p"><float_array id="g-p-a" count="633">0.34587 0.28946 0.61696 0.34587 0.28946 0.43 0.27109 0.28946 0.69174 -0.21468 0.28946 0.43 -0.21468 0.28946 0.69174 -0.21468 -0.35506 0.78522 -0.21468 -0.35506 0.69174 -0.38326 -0.35506 0.78522 -0.38326 -0.35506 0.69174 -0.21468 0.35506 0.78522 -0.21468 0.28027 0.86 -0.38326 0.35506 0.78522 -0.38326 0.28027 0.86 0.27109 0.28946 0.69174 -0.21468 0.28946 0.69174 0.27109 0.45804 0.69174 -0.21468 0.35506 0.69174 -0.38326 0.35506 0.69174 -0.38326 0.45804 0.69174 0.34587 0.45804 0.61696 0.34587 0.28946 0.61696 0.27109 0.45804 0.69174 0.27109 0.28946 0.69174 -0.21468 -0.28027 0.86 -0.38326 -0.28027 0.86 -0.21468 0.28027 0.86 -0.38326 0.28027 0.86 0.34587 0.45804 0.093478 0.34587 0.45804 0.61696 0.27109 0.45804 0.093478 0.27109 0.45804 0.69174 -0.30848 0.45804 0.093478 -0.38326 0.45804 0.69174 -0.38326 0.45804 0.093478 0.34587 -0.45804 0.61696 0.34587 -0.45804 0.093478 0.27109 -0.45804 0.69174 0.27109 -0.45804 0.093478 -0.38326 -0.45804 0.69174 -0.30848 -0.45804 0.093478 -0.38326 -0.45804 0.093478 -0.38326 -0.45804 0.093478 -0.38326 -0.38326 0.093478 -0.38326 -0.45804 0.69174 -0.38326 0.38326 0.093478 -0.38326 -0.35506 0.69174 -0.38326 0.45804 0.69174 -0.38326 0.45804 0.093478 -0.38326 0.35506 0.69174 -0.38326 -0.35506 0.78522 -0.38326 0.35506 0.78522 -0.38326 -0.28027 0.86 -0.38326 0.28027 0.86 -0.38326 -0.38326 0.093478 -0.30848 -0.38326 0.093478 -0.38326 0.38326 0.093478 0.27109 0.38326 0.093478 -0.30848 0.38326 0.093478 0.27109 0.45804 0.093478 -0.30848 0.45804 0.093478 0.34587 0.38326 0.093478 0.34587 -0.38326 0.093478 0.27109 -0.38326 0.093478 -0.30848 -0.45804 0.093478 0.27109 -0.45804 0.093478 0.38326 -0.28946 0.43 0.34587 -0.28946 0.43 0.38326 0.28946 0.43 -0.21468 -0.28946 0.43 -0.21468 0.28946 0.43 0.38326 0.28946 0.27074 0.38326 -0.28946 0.27074 0.38326 0.28946 0.43 0.38326 -0.28946 0.43 0.34587 0.45804 0.093478 0.34587 0.38326 0.093478 0.34587 0.45804 0.61696 0.34587 0.28946 0.27074 0.34587 -0.38326 0.093478 0.34587 -0.45804 0.093478 0.34587 0.28946 0.43 0.34587 0.28946 0.61696 0.34587 -0.28946 0.27074 0.34587 -0.45804 0.61696 0.34587 -0.28946 0.43 0.34587 -0.28946 0.61696 0.27109 -0.45804 0.69174 -0.21468 -0.35506 0.69174 0.27109 -0.28946 0.69174 -0.21468 -0.28946 0.69174 -0.38326 -0.35506 0.69174 -0.38326 -0.45804 0.69174 0.34587 -0.28946 0.61696 0.34587 -0.45804 0.61696 0.27109 -0.28946 0.69174 0.27109 -0.45804 0.69174 0.34587 -0.28946 0.43 0.34587 -0.28946 0.61696 -0.21468 -0.28946 0.43 0.27109 -0.28946 0.69174 -0.21468 -0.28946 0.69174 -0.21468 -0.28027 0.86 -0.21468 -0.35506 0.78522 -0.38326 -0.28027 0.86 -0.38326 -0.35506 0.78522 -0.21468 0.35506 0.69174 -0.21468 0.28946 0.69174 -0.21468 0.35506 0.78522 -0.21468 -0.28946 0.69174 -0.21468 -0.35506 0.69174 -0.21468 -0.35506 0.78522 -0.21468 0.28027 0.86 -0.21468 -0.28027 0.86 -0.21468 -0.28946 0.43 -0.21468 0.28946 0.43 -0.21468 0.35506 0.69174 -0.21468 0.35506 0.78522 -0.38326 0.35506 0.69174 -0.38326 0.35506 0.78522 0.38326 -0.28946 0.43 0.38326 -0.28946 0.27074 0.34587 -0.28946 0.43 0.34587 -0.28946 0.27074 0.34587 -0.28946 0.27074 0.38326 -0.28946 0.27074 0.34587 0.28946 0.27074 0.38326 0.28946 0.27074 0.38326 0.28946 0.27074 0.38326 0.28946 0.43 0.34587 0.28946 0.27074 0.34587 0.28946 0.43 0.34587 0.45804 0.093478 0.27109 0.45804 0.093478 -0.30848 0.45804 0.093478 -0.38326 0.45804 0.093478 0.34587 -0.45804 0.093478 0.27109 -0.45804 0.093478 -0.30848 -0.45804 0.093478 -0.38326 -0.45804 0.093478 -0.38326 -0.45804 0.093478 -0.38326 -0.38326 0.093478 -0.38326 0.38326 0.093478 -0.38326 0.45804 0.093478 0.34587 0.45804 0.093478 0.34587 0.38326 0.093478 0.34587 -0.38326 0.093478 0.34587 -0.45804 0.093478 -0.38326 0.38326 1.6871e-16 -0.30848 0.38326 1.6871e-16 -0.38326 0.45804 1.6871e-16 -0.30848 0.45804 1.6871e-16 -0.38326 0.38326 1.6871e-16 -0.38326 0.45804 1.6871e-16 -0.30848 0.45804 1.6871e-16 -0.38326 0.45804 1.6871e-16 -0.30848 0.45804 1.6871e-16 -0.30848 0.38326 1.6871e-16 -0.30848 0.45804 0.093478 -0.30848 0.38326 0.093478 -0.30848 0.38326 0.093478 -0.30848 0.38326 1.6871e-16 -0.38326 0.38326 0.093478 -0.38326 0.38326 1.6871e-16 0.34587 0.45804 0 0.34587 0.38326 0 -0.30848 -0.38326 1.6871e-16 -0.30848 -0.45804 1.6871e-16 -0.30848 -0.38326 0.093478 -0.30848 -0.45804 0.093478 -0.30848 -0.45804 1.6871e-16 -0.38326 -0.45804 1.6871e-16 0.27109 -0.45804 0 0.34587 -0.45804 0 0.27109 -0.38326 0 0.34587 -0.38326 0 0.34587 0.38326 0.093478 0.34587 0.38326 0 0.27109 0.38326 0.093478 0.27109 0.38326 0 0.34587 -0.45804 0 0.27109 -0.45804 0 0.27109 0.38326 0 0.27109 0.45804 0 0.27109 0.38326 0.093478 0.27109 0.45804 0.093478 0.27109 -0.45804 0 0.27109 -0.38326 0 0.27109 -0.45804 0.093478 0.27109 -0.38326 0.093478 0.34587 -0.38326 0 0.34587 -0.38326 0.093478 0.27109 -0.38326 0 0.27109 -0.38326 0.093478 0.34587 0.45804 0 0.27109 0.45804 0 0.27109 0.38326 0 0.34587 0.38326 0 0.27109 0.45804 0 0.34587 0.45804 0 -0.38326 -0.45804 1.6871e-16 -0.38326 -0.38326 1.6871e-16 -0.30848 -0.38326 1.6871e-16 -0.30848 -0.38326 0.093478 -0.38326 -0.38326 1.6871e-16 -0.38326 -0.38326 0.093478 -0.38326 -0.45804 1.6871e-16 -0.30848 -0.45804 1.6871e-16 -0.38326 -0.38326 1.6871e-16 -0.30848 -0.38326 1.6871e-16 0.34587 -0.38326 0 0.34587 -0.45804 0</float_array><technique_common><accessor source="#g-p-a" count="211" stride="3"><param name="X" type="float"/><param name="Y" type="float"/><param name="Z" type="float"/></accessor></technique_common></source>
<source id="g-n"><float_array id="g-n-a" count="633">0 -1 0 0 -1 0 0 -1 0 0 -1 0 0 -1 0 0 -1 0 0 -1 0 0 -1 0 0 -1 0 0 0.70711 0.70711 0 0.70711 0.70711 0 0.70711 0.70711 0 0.70711 0.70711 0 0 1 0 0 1 0 0 1 0 0 1 0 0 1 0 0 1 0.70711 0 0.70711 0.70711 0 0.70711 0.70711 0 0.70711 0.70711 0 0.70711 0 0 1 0 0 1 0 0 1 0 0 1 0 1 0 0 1 0 0 1 0 0 1 0 0 1 0 0 1 0 0 1 0 -2.3912e-17 -1 -2.3912e-17 -1.893e-18 -1 -2.116e-17 1.4777e-17 -1 -2.1761e-17 -6.2548e-16 -1 -7.2267e-16 -1.1931e-15 -1 -1.5674e-15 -1.4511e-15 -1 -2.8427e-15 0 -1 -2.6613e-15 -1 0 0 -1 0 0 -1 0 0 -1 0 0 -1 0 0 -1 0 0 -1 0 0 -1 0 0 -1 0 0 -1 0 0 -1 0 0 -1 0 0 0 0 -1 0 0 -1 0 0 -1 0 0 -1 0 0 -1 0 0 -1 0 0 -1 0 0 -1 0 0 -1 0 0 -1 0 0 -1 0 0 -1 0 0 1 0 0 1 0 0 1 0 0 1 0 0 1 1 0 0 1 0 0 1 0 0 1 0 0 1 0 0 1 0 0 1 0 0 1 0 0 1 0 0 1 0 0 1 0 0 1 0 0 1 0 0 1 0 0 1 0 0 1 0 0 0 0 1 0 0 1 0 0 1 0 0 1 0 0 1 0 0 1 0.70711 0 0.70711 0.70711 0 0.70711 0.70711 0 0.70711 0.70711 0 0.70711 0 1 0 0 1 0 0 1 0 0 1 0 0 1 0 0 -0.70711 0.70711 0 -0.70711 0.70711 0 -0.70711 0.70711 0 -0.70711 0.70711 1 0 0 1 0 0 1 0 0 1 0 0 1 0 0 1 0 0 1 0 0 1 0 0 1 0 0 1 0 0 0 1 0 0 1 0 0 1 0 0 1 0 0 -1 0 0 -1 0 0 -1 0 0 -1 0 0 0 -1 0 0 -1 0 0 -1 0 0 -1 0 1 0 0 1 0 0 1 0 0 1 0 0 1 0 0 1 0 0 1 0 0 1 0 0 -1 0 0 -1 0 0 -1 0 0 -1 0 -1 0 0 -1 0 0 -1 0 0 -1 0 0 1 0 0 1 0 0 1 0 0 1 0 0 0 0 -1 0 0 -1 0 0 -1 0 0 -1 -1 0 0 -1 0 0 0 1 0 0 1 0 1 0 0 1 0 0 1 0 0 1 0 0 0 -1 0 0 -1 0 0 -1 0 0 -1 0 1 0 0 1 0 0 1 0 0 1 0 0 1 0 0 1 0 0 0 -1 0 0 -1 0 0 0 -1 0 0 -1 0 0 -1 0 0 -1 0 -1 0 0 -1 0 0 -1 0 0 -1 0 0 -1 0 0 -1 0 -1 0 0 -1 0 0 -1 0 0 -1 0 0 -1 0 0 -1 0 0 -1 0 0 -1 0 0 0 1 0 0 1 0 0 1 0 0 1 0 0 1 0 0 1 0 0 0 -1 0 0 -1 0 0 -1 0 0 -1 -1 0 0 -1 0 0 0 1 0 0 1 0 0 1 0 0 1 0 0 0 -1 0 0 -1 0 0 -1 0 0 -1 1 0 0 1 0 0</float_array><technique_common><accessor source="#g-n-a" count="211" stride="3"><param name="X" type="float"/><param name="Y" type="float"/><param name="Z" type="float"/></accessor></technique_common></source>
<vertices id="g-v"><input semantic="POSITION" source="#g-p"/><input semantic="NORMAL" source="#g-n"/></vertices>
<triangles material="m0" count="84"><input semantic="VERTEX" source="#g-v" offset="0"/><p>2 1 0 1 2 3 3 2 4 7 6 5 6 7 8 11 10 9 10 11 12 15 14 13 14 15 16 16 15 17 17 15 18 21 20 19 20 21 22 25 24 23 24 25 26 29 28 27 28 29 30 30 29 31 30 31 32 32 31 33 36 35 34 35 36 37 37 36 38 37 38 39 39 38 40 43 42 41 42 43 44 44 43 45 46 44 45 44 46 47 49 48 45 48 49 50 50 49 51 50 51 52 55 54 53 54 55 56 56 57 58 58 57 59 60 54 56 61 54 60 62 63 54 63 62 64 67 66 65 66 67 68 68 67 69 72 71 70 71 72 73 76 75 74 75 76 77 75 77 78 78 77 79 77 76 80 80 76 81 82 79 77 79 82 83 83 82 84 83 84 85 88 87 86 87 88 89 90 86 87 86 90 91 94 93 92 93 94 95 98 97 96 97 98 99 99 98 100 103 102 101 102 103 104 107 106 105 106 107 108 108 107 109 109 107 110 110 107 111 110 111 112 113 106 108 106 113 114 117 116 115 116 117 118 121 120 119 120 121 122 125 124 123 124 125 126 129 128 127 128 129 130</p></triangles>
<triangles material="m1" count="40"><input semantic="VERTEX" source="#g-v" offset="0"/><p>149 148 147 148 149 150 141 152 151 152 141 142 154 133 153 133 154 134 157 156 155 156 157 158 161 160 159 160 161 162 143 164 163 164 143 144 167 166 165 166 167 168 138 169 137 169 138 170 173 172 171 172 173 174 177 176 175 176 177 178 136 179 135 179 136 180 183 182 181 182 183 184 187 186 185 186 187 188 191 190 189 190 191 192 194 131 193 131 194 132 197 196 195 196 197 198 139 200 199 200 139 140 203 202 201 202 203 204 207 206 205 206 207 208 145 210 209 210 145 146</p></triangles>
</mesh></geometry></library_geometries><library_visual_scenes><visual_scene id="Scene"><node id="n" name="armchair"><instance_geometry url="#g"><bind_material><technique_common>
<instance_material symbol="m0" target="#m0"/>
<instance_material symbol="m1" target="#m1"/>
</technique_common></bind_material></instance_geometry></node></visual_scene></library_visual_scenes><scene><instance_visual_scene url="#Scene"/></scene></COLLADA>
