<?xml version="1.0" encoding="utf-8"?>
<COLLADA xmlns="http://www.collada.org/2005/11/COLLADASchema" version="1.4.1">
<asset><contributor><authoring_tool>VATs starter props (see CREDITS.md)</authoring_tool></contributor><unit name="meter" meter="1"/><up_axis>Z_UP</up_axis></asset>
<library_effects>
<effect id="m0-fx"><profile_COMMON><technique sid="common"><lambert><diffuse><color>0.620 0.660 0.710 1</color></diffuse></lambert></technique></profile_COMMON></effect>
<effect id="m1-fx"><profile_COMMON><technique sid="common"><lambert><diffuse><color>0.360 0.390 0.430 1</color></diffuse></lambert></technique></profile_COMMON></effect>
<effect id="m2-fx"><profile_COMMON><technique sid="common"><lambert><diffuse><color>0.620 0.470 0.340 1</color></diffuse></lambert></technique></profile_COMMON></effect>
</library_effects><library_materials>
<material id="m0" name="m0"><instance_effect url="#m0-fx"/></material>
<material id="m1" name="m1"><instance_effect url="#m1-fx"/></material>
<material id="m2" name="m2"><instance_effect url="#m2-fx"/></material>
</library_materials><library_geometries><geometry id="g" name="axe"><mesh>
<source id="g-p"><float_array id="g-p-a" count="414">0.016876 -0.042929 0.43781 0.016876 -0.087288 0.48 -0.016876 -0.042929 0.43781 -0.016876 -0.087288 0.48 -0.016876 0.073915 0.36812 -0.016876 0.13416 0.39244 -0.016876 0.073915 0.42313 -0.016876 0.13416 0.42313 -0.016876 -0.087288 0.31125 -0.016876 -0.042929 0.35344 -0.016876 -0.1123 0.33344 -0.016876 -0.12854 0.36267 -0.016876 0.0014298 0.36061 -0.016876 0.0014298 0.43064 -0.016876 -0.13416 0.39563 -0.016876 -0.12854 0.42858 -0.016876 -0.042929 0.43781 -0.016876 -0.1123 0.45781 -0.016876 -0.087288 0.48 0.016876 -0.087288 0.31125 0.016876 -0.1123 0.33344 0.016876 -0.042929 0.35344 0.016876 -0.12854 0.36267 0.016876 0.0014298 0.36061 0.016876 0.0014298 0.43064 0.016876 -0.13416 0.39563 0.016876 -0.12854 0.42858 0.016876 -0.042929 0.43781 0.016876 -0.1123 0.45781 0.016876 -0.087288 0.48 0.016876 0.0014298 0.36061 -0.016876 0.0014298 0.36061 0.016876 -0.042929 0.35344 -0.016876 -0.042929 0.35344 0.016876 -0.042929 0.35344 -0.016876 -0.042929 0.35344 0.016876 -0.087288 0.31125 -0.016876 -0.087288 0.31125 0.016876 0.0014298 0.43064 0.016876 -0.042929 0.43781 -0.016876 0.0014298 0.43064 -0.016876 -0.042929 0.43781 0.016876 0.13416 0.39244 -0.016876 0.13416 0.39244 0.016876 0.073915 0.36812 -0.016876 0.073915 0.36812 0.036243 0.073915 0.34875 0.036243 0.0014298 0.34875 0.036243 0.073915 0.4425 0.036243 0.0014298 0.4425 0.016876 0.073915 0.36812 0.016876 0.073915 0.42313 0.016876 0.13416 0.39244 0.016876 0.13416 0.42313 -0.016876 0.13416 0.42313 0.016876 0.13416 0.42313 -0.016876 0.073915 0.42313 0.016876 0.073915 0.42313 -0.036243 0.0014298 0.34875 -0.036243 0.073915 0.34875 -0.036243 0.0014298 0.4425 -0.036243 0.073915 0.4425 0.036243 0.073915 0.34875 -0.036243 0.073915 0.34875 0.036243 0.0014298 0.34875 -0.036243 0.0014298 0.34875 -0.036243 0.073915 0.4425 0.036243 0.073915 0.4425 -0.036243 0.0014298 0.4425 0.036243 0.0014298 0.4425 -0.016876 0.13416 0.42313 -0.016876 0.13416 0.39244 0.016876 0.13416 0.42313 0.016876 0.13416 0.39244 0.016876 -0.087288 0.31125 -0.016876 -0.087288 0.31125 0.016876 -0.1123 0.33344 -0.016876 -0.1123 0.33344 -0.016876 -0.12854 0.36267 0.016876 -0.12854 0.36267 -0.016876 -0.1123 0.33344 0.016876 -0.1123 0.33344 -0.016876 -0.13416 0.39563 0.016876 -0.13416 0.39563 -0.016876 -0.12854 0.36267 0.016876 -0.12854 0.36267 -0.016876 -0.12854 0.42858 0.016876 -0.12854 0.42858 -0.016876 -0.13416 0.39563 0.016876 -0.13416 0.39563 -0.016876 -0.1123 0.45781 0.016876 -0.1123 0.45781 -0.016876 -0.12854 0.42858 0.016876 -0.12854 0.42858 0.016876 -0.087288 0.48 0.016876 -0.1123 0.45781 -0.016876 -0.087288 0.48 -0.016876 -0.1123 0.45781 0.016876 0.0014298 0.43064 -0.016876 0.0014298 0.43064 0.036243 0.0014298 0.4425 0.016876 0.0014298 0.36061 -0.036243 0.0014298 0.4425 0.036243 0.0014298 0.34875 -0.016876 0.0014298 0.36061 -0.036243 0.0014298 0.34875 0.016876 0.073915 0.42313 0.036243 0.073915 0.4425 -0.016876 0.073915 0.42313 0.016876 0.073915 0.36812 -0.036243 0.073915 0.4425 0.036243 0.073915 0.34875 -0.036243 0.073915 0.34875 -0.016876 0.073915 0.36812 0.030234 0.067907 -0.12 0.030234 0.007438 -0.12 0.021445 0.059118 0.34875 0.021445 0.016227 0.34875 -0.030234 0.007438 -0.12 -0.021445 0.016227 0.34875 0.030234 0.007438 -0.12 0.021445 0.016227 0.34875 -0.030234 0.067907 -0.12 0.030234 0.067907 -0.12 -0.021445 0.059118 0.34875 0.021445 0.059118 0.34875 -0.030234 0.007438 -0.12 -0.030234 0.067907 -0.12 -0.021445 0.016227 0.34875 -0.021445 0.059118 0.34875 -0.021445 0.059118 0.34875 0.021445 0.059118 0.34875 -0.021445 0.016227 0.34875 0.021445 0.016227 0.34875 0.030234 0.067907 -0.12 -0.030234 0.067907 -0.12 0.030234 0.007438 -0.12 -0.030234 0.007438 -0.12</float_array><technique_common><accessor source="#g-p-a" count="138" stride="3"><param name="X" type="float"/><param name="Y" type="float"/><param name="Z" type="float"/></accessor></technique_common></source>
<source id="g-n"><float_array id="g-n-a" count="414">0 0.68915 0.72462 0 0.68915 0.72462 0 0.68915 0.72462 0 0.68915 0.72462 -1 0 0 -1 0 0 -1 0 0 -1 0 0 -1 -1.1874e-08 -1.3385e-08 -1 -2.3923e-08 -1.0642e-07 -1 -1.2955e-08 -9.6341e-09 -1 -2.0368e-08 -8.7595e-09 -1 -2.541e-08 -1.3764e-08 -1 -2.5146e-08 1.3832e-08 -1 -2.4002e-08 -5.6243e-10 -1 -2.1337e-08 9.6881e-09 -1 -2.3923e-08 1.0642e-07 -1 -1.2955e-08 9.6341e-09 -1 -1.1874e-08 1.3385e-08 1 3.5621e-08 4.0156e-08 1 3.8866e-08 2.8902e-08 1 4.153e-08 3.8736e-08 1 2.5751e-08 3.9271e-08 1 4.2053e-08 4.1384e-09 1 3.3542e-08 -5.4345e-09 1 1.4335e-08 3.7996e-08 1 2.1337e-08 -9.6881e-09 1 2.3923e-08 -1.0642e-07 1 1.2955e-08 -9.6341e-09 1 1.1874e-08 -1.3385e-08 -1.0322e-08 0.15961 -0.98718 -6.0885e-09 0.15961 -0.98718 -4.2333e-09 0.15961 -0.98718 0 0.15961 -0.98718 0 0.68915 -0.72462 0 0.68915 -0.72462 0 0.68915 -0.72462 0 0.68915 -0.72462 -1.0322e-08 0.15961 0.98718 -4.2333e-09 0.15961 0.98718 -6.0886e-09 0.15961 0.98718 0 0.15961 0.98718 0 0.37435 -0.92729 0 0.37435 -0.92729 0 0.37435 -0.92729 0 0.37435 -0.92729 1 0 0 1 0 0 1 0 0 1 0 0 1 0 0 1 0 0 1 0 0 1 0 0 0 0 1 0 0 1 0 0 1 0 0 1 -1 0 0 -1 0 0 -1 0 0 -1 0 0 0 0 -1 0 0 -1 0 0 -1 0 0 -1 0 0 1 0 0 1 0 0 1 0 0 1 0 1 0 0 1 0 0 1 0 0 1 0 0 -0.66361 -0.74808 0 -0.66361 -0.74808 0 -0.66361 -0.74808 0 -0.66361 -0.74808 0 -0.87416 -0.48564 0 -0.87416 -0.48564 0 -0.87416 -0.48564 0 -0.87416 -0.48564 0 -0.98575 -0.16823 0 -0.98575 -0.16823 0 -0.98575 -0.16823 0 -0.98575 -0.16823 0 -0.98575 0.16823 0 -0.98575 0.16823 0 -0.98575 0.16823 0 -0.98575 0.16823 0 -0.87416 0.48564 0 -0.87416 0.48564 0 -0.87416 0.48564 0 -0.87416 0.48564 0 -0.66361 0.74808 0 -0.66361 0.74808 0 -0.66361 0.74808 0 -0.66361 0.74808 3.5573e-08 -1 -5.8091e-08 -4.7698e-08 -1 8.7741e-08 1.3578e-08 -1 3.5649e-09 3.5573e-08 -1 5.8091e-08 -7.3284e-08 -1 6.4383e-08 1.3578e-08 -1 -3.5649e-09 -4.7698e-08 -1 -8.7741e-08 -7.3284e-08 -1 -6.4383e-08 0 1 0 0 1 0 0 1 0 0 1 0 0 1 0 0 1 0 0 1 0 0 1 0 0.99982 0 0.018747 0.99982 0 0.018747 0.99982 0 0.018747 0.99982 0 0.018747 0 -0.99982 0.018747 0 -0.99982 0.018747 0 -0.99982 0.018747 0 -0.99982 0.018747 0 0.99982 0.018747 0 0.99982 0.018747 0 0.99982 0.018747 0 0.99982 0.018747 -0.99982 0 0.018747 -0.99982 0 0.018747 -0.99982 0 0.018747 -0.99982 0 0.018747 0 0 1 0 0 1 0 0 1 0 0 1 0 0 -1 0 0 -1 0 0 -1 0 0 -1</float_array><technique_common><accessor source="#g-n-a" count="138" stride="3"><param name="X" type="float"/><param name="Y" type="float"/><param name="Z" type="float"/></accessor></technique_common></source>
<vertices id="g-v"><input semantic="POSITION" source="#g-p"/><input semantic="NORMAL" source="#g-n"/></vertices>
<triangles material="m0" count="67"><input semantic="VERTEX" source="#g-v" offset="0"/><p>2 1 0 1 2 3 6 5 4 5 6 7 9 10 11 9 11 12 12 11 13 13 11 14 13 14 15 13 15 16 16 15 17 16 17 18 20 21 22 22 21 23 22 23 24 22 24 25 25 24 26 26 24 27 26 27 28 28 27 29 32 31 30 31 32 33 36 35 34 40 39 38 39 40 41 44 43 42 43 44 45 48 47 46 47 48 49 52 51 50 51 52 53 56 55 54 55 56 57 60 59 58 59 60 61 64 63 62 63 64 65 68 67 66 67 68 69 72 71 70 71 72 73 80 79 78 79 80 81 84 83 82 83 84 85 88 87 86 87 88 89 92 91 90 91 92 93 96 95 94 95 96 97 100 99 98 100 98 101 99 100 102 100 101 103 102 104 99 104 103 101 105 104 102 104 105 103 108 107 106 106 107 109 108 110 107 111 109 107 110 108 112 111 113 109 112 113 111 113 112 108</p></triangles>
<triangles material="m1" count="5"><input semantic="VERTEX" source="#g-v" offset="0"/><p>10 9 8 21 20 19 35 36 37 76 75 74 75 76 77</p></triangles>
<triangles material="m2" count="12"><input semantic="VERTEX" source="#g-v" offset="0"/><p>116 115 114 115 116 117 120 119 118 119 120 121 124 123 122 123 124 125 128 127 126 127 128 129 132 131 130 131 132 133 136 135 134 135 136 137</p></triangles>
</mesh></geometry></library_geometries><library_visual_scenes><visual_scene id="Scene"><node id="n" name="axe"><instance_geometry url="#g"><bind_material><technique_common>
<instance_material symbol="m0" target="#m0"/>
<instance_material symbol="m1" target="#m1"/>
<instance_material symbol="m2" target="#m2"/>
</technique_common></bind_material></instance_geometry></node></visual_scene></library_visual_scenes><scene><instance_visual_scene url="#Scene"/></scene></COLLADA>
