<?xml version="1.0" encoding="utf-8"?>
<COLLADA xmlns="http://www.collada.org/2005/11/COLLADASchema" version="1.4.1">
<asset><contributor><authoring_tool>VATs starter props (see CREDITS.md)</authoring_tool></contributor><unit name="meter" meter="1"/><up_axis>Z_UP</up_axis></asset>
<library_effects>
<effect id="m0-fx"><profile_COMMON><technique sid="common"><lambert><diffuse><color>0.620 0.380 0.300 1</color></diffuse></lambert></technique></profile_COMMON></effect>
</library_effects><library_materials>
<material id="m0" name="m0"><instance_effect url="#m0-fx"/></material>
</library_materials><library_geometries><geometry id="g" name="ball"><mesh>
<source id="g-p"><float_array id="g-p-a" count="3312">-0.08778 -0.05068 -0.044831 -0.097905 -0.026234 -0.044831 -0.094925 -0.054805 -0.017057 -0.10587 -0.028369 -0.017057 -0.038342 0.010274 -0.10326 -0.039695 0 -0.10326 -0.011124 0.0029806 -0.11 -0.011516 0 -0.11 -0.056438 0.032584 -0.089452 -0.062948 0.016867 -0.089452 -0.034377 0.019848 -0.10326 -0.038342 0.010274 -0.10326 -0.10136 0 -0.044831 -0.097905 0.026234 -0.044831 -0.10961 0 -0.017057 -0.10587 0.028369 -0.017057 -0.10663 0.028571 0.011907 -0.095601 0.055195 0.011907 -0.10012 0.026826 0.040085 -0.089762 0.051824 0.040085 -0.083264 -0.02231 -0.069524 -0.086201 0 -0.069524 -0.097905 -0.026234 -0.044831 -0.10136 0 -0.044831 -0.060548 0.034957 0.086591 -0.039163 0.022611 0.10175 -0.067532 0.018095 0.086591 -0.043681 0.011704 0.10175 -0.034377 0.019848 -0.10326 -0.038342 0.010274 -0.10326 -0.0099734 0.0057581 -0.11 -0.011124 0.0029806 -0.11 -0.043681 0.011704 0.10175 -0.016853 0.0045157 0.11 -0.045222 0 0.10175 -0.017447 0 0.11 -0.089843 0 0.065559 -0.086781 0.023253 0.065559 -0.069915 0 0.086591 -0.067532 0.018095 0.086591 -0.043681 -0.011704 0.10175 -0.039163 -0.022611 0.10175 -0.067532 -0.018095 0.086591 -0.060548 -0.034957 0.086591 -0.10012 -0.026826 0.040085 -0.10365 0 0.040085 -0.086781 -0.023253 0.065559 -0.089843 0 0.065559 -0.067532 -0.018095 0.086591 -0.060548 -0.034957 0.086591 -0.086781 -0.023253 0.065559 -0.077806 -0.044921 0.065559 -0.074652 0.043101 -0.069524 -0.083264 0.02231 -0.069524 -0.056438 0.032584 -0.089452 -0.062948 0.016867 -0.089452 -0.097905 0.026234 -0.044831 -0.08778 0.05068 -0.044831 -0.10587 0.028369 -0.017057 -0.094925 0.054805 -0.017057 -0.10365 0 0.040085 -0.10012 0.026826 0.040085 -0.089843 0 0.065559 -0.086781 0.023253 0.065559 -0.097905 -0.026234 -0.044831 -0.10136 0 -0.044831 -0.10587 -0.028369 -0.017057 -0.10961 0 -0.017057 -0.062948 -0.016867 -0.089452 -0.083264 -0.02231 -0.069524 -0.056438 -0.032584 -0.089452 -0.074652 -0.043101 -0.069524 -0.062948 0.016867 -0.089452 -0.065169 0 -0.089452 -0.038342 0.010274 -0.10326 -0.039695 0 -0.10326 -0.069915 0 0.086591 -0.045222 0 0.10175 -0.067532 -0.018095 0.086591 -0.043681 -0.011704 0.10175 -0.077506 -0.077506 -0.017057 -0.094925 -0.054805 -0.017057 -0.078058 -0.078058 0.011907 -0.095601 -0.055195 0.011907 -0.060953 -0.060953 -0.069524 -0.074652 -0.043101 -0.069524 -0.071672 -0.071672 -0.044831 -0.08778 -0.05068 -0.044831 -0.0099734 -0.0057581 -0.11 -0.034377 -0.019848 -0.10326 -0.0081432 -0.0081432 -0.11 -0.028069 -0.028069 -0.10326 -0.11039 0 0.011907 -0.10663 0.028571 0.011907 -0.10365 0 0.040085 -0.10012 0.026826 0.040085 -0.045222 0 0.10175 -0.017447 0 0.11 -0.043681 -0.011704 0.10175 -0.016853 -0.0045157 0.11 -0.089762 -0.051824 0.040085 -0.10012 -0.026826 0.040085 -0.077806 -0.044921 0.065559 -0.086781 -0.023253 0.065559 -0.067532 0.018095 0.086591 -0.043681 0.011704 0.10175 -0.069915 0 0.086591 -0.045222 0 0.10175 -0.10587 0.028369 -0.017057 -0.094925 0.054805 -0.017057 -0.10663 0.028571 0.011907 -0.095601 0.055195 0.011907 -0.083264 0.02231 -0.069524 -0.086201 0 -0.069524 -0.062948 0.016867 -0.089452 -0.065169 0 -0.089452 -0.039695 0 -0.10326 -0.065169 0 -0.089452 -0.038342 -0.010274 -0.10326 -0.062948 -0.016867 -0.089452 -0.086781 -0.023253 0.065559 -0.089843 0 0.065559 -0.067532 -0.018095 0.086591 -0.069915 0 0.086591 -0.10961 0 -0.017057 -0.10587 0.028369 -0.017057 -0.11039 0 0.011907 -0.10663 0.028571 0.011907 -0.038342 -0.010274 -0.10326 -0.062948 -0.016867 -0.089452 -0.034377 -0.019848 -0.10326 -0.056438 -0.032584 -0.089452 -0.065169 0 -0.089452 -0.086201 0 -0.069524 -0.062948 -0.016867 -0.089452 -0.083264 -0.02231 -0.069524 -0.095601 -0.055195 0.011907 -0.10663 -0.028571 0.011907 -0.089762 -0.051824 0.040085 -0.10012 -0.026826 0.040085 -0.016853 -0.0045157 0.11 -0.01511 -0.0087236 0.11 -0.043681 -0.011704 0.10175 -0.039163 -0.022611 0.10175 -0.078058 -0.078058 0.011907 -0.095601 -0.055195 0.011907 -0.07329 -0.07329 0.040085 -0.089762 -0.051824 0.040085 -0.071672 -0.071672 -0.044831 -0.08778 -0.05068 -0.044831 -0.077506 -0.077506 -0.017057 -0.094925 -0.054805 -0.017057 -0.056438 -0.032584 -0.089452 -0.074652 -0.043101 -0.069524 -0.046081 -0.046081 -0.089452 -0.060953 -0.060953 -0.069524 -0.01511 -0.0087236 0.11 -0.012337 -0.012337 0.11 -0.039163 -0.022611 0.10175 -0.031977 -0.031977 0.10175 -0.039163 0.022611 0.10175 -0.01511 0.0087236 0.11 -0.043681 0.011704 0.10175 -0.016853 0.0045157 0.11 -0.086201 0 -0.069524 -0.083264 0.02231 -0.069524 -0.10136 0 -0.044831 -0.097905 0.026234 -0.044831 -0.011516 0 -0.11 -0.039695 0 -0.10326 -0.011124 -0.0029806 -0.11 -0.038342 -0.010274 -0.10326 -0.07329 -0.07329 0.040085 -0.089762 -0.051824 0.040085 -0.063528 -0.063528 0.065559 -0.077806 -0.044921 0.065559 -0.034377 -0.019848 -0.10326 -0.056438 -0.032584 -0.089452 -0.028069 -0.028069 -0.10326 -0.046081 -0.046081 -0.089452 -0.10663 -0.028571 0.011907 -0.11039 0 0.011907 -0.10012 -0.026826 0.040085 -0.10365 0 0.040085 -0.039163 -0.022611 0.10175 -0.031977 -0.031977 0.10175 -0.060548 -0.034957 0.086591 -0.049437 -0.049437 0.086591 -0.060548 -0.034957 0.086591 -0.049437 -0.049437 0.086591 -0.077806 -0.044921 0.065559 -0.063528 -0.063528 0.065559 -0.07329 -0.07329 0.040085 -0.063528 -0.063528 0.065559 -0.051824 -0.089762 0.040085 -0.044921 -0.077806 0.065559 -0.078058 -0.078058 0.011907 -0.07329 -0.07329 0.040085 -0.055195 -0.095601 0.011907 -0.051824 -0.089762 0.040085 -0.077806 0.044921 0.065559 -0.060548 0.034957 0.086591 -0.086781 0.023253 0.065559 -0.067532 0.018095 0.086591 -0.074652 -0.043101 -0.069524 -0.083264 -0.02231 -0.069524 -0.08778 -0.05068 -0.044831 -0.097905 -0.026234 -0.044831 -0.083264 0.02231 -0.069524 -0.074652 0.043101 -0.069524 -0.097905 0.026234 -0.044831 -0.08778 0.05068 -0.044831 -0.10587 -0.028369 -0.017057 -0.10961 0 -0.017057 -0.10663 -0.028571 0.011907 -0.11039 0 0.011907 -0.094925 -0.054805 -0.017057 -0.10587 -0.028369 -0.017057 -0.095601 -0.055195 0.011907 -0.10663 -0.028571 0.011907 -0.011124 -0.0029806 -0.11 -0.038342 -0.010274 -0.10326 -0.0099734 -0.0057581 -0.11 -0.034377 -0.019848 -0.10326 -0.055195 -0.095601 0.011907 -0.051824 -0.089762 0.040085 -0.028571 -0.10663 0.011907 -0.026826 -0.10012 0.040085 -0.023253 -0.086781 0.065559 -0.018095 -0.067532 0.086591 0 -0.089843 0.065559 0 -0.069915 0.086591 -0.0029806 -0.011124 -0.11 -0.010274 -0.038342 -0.10326 0 -0.011516 -0.11 0 -0.039695 -0.10326 -0.055195 -0.095601 0.011907 -0.028571 -0.10663 0.011907 -0.054805 -0.094925 -0.017057 -0.028369 -0.10587 -0.017057 -0.05068 -0.08778 -0.044831 -0.026234 -0.097905 -0.044831 -0.043101 -0.074652 -0.069524 -0.02231 -0.083264 -0.069524 -0.028571 -0.10663 0.011907 -0.026826 -0.10012 0.040085 0 -0.11039 0.011907 0 -0.10365 0.040085 -0.028369 -0.10587 -0.017057 0 -0.10961 -0.017057 -0.026234 -0.097905 -0.044831 0 -0.10136 -0.044831 -0.0087236 -0.01511 0.11 -0.0045157 -0.016853 0.11 -0.022611 -0.039163 0.10175 -0.011704 -0.043681 0.10175 -0.054805 -0.094925 -0.017057 -0.028369 -0.10587 -0.017057 -0.05068 -0.08778 -0.044831 -0.026234 -0.097905 -0.044831 -0.049437 -0.049437 0.086591 -0.034957 -0.060548 0.086591 -0.063528 -0.063528 0.065559 -0.044921 -0.077806 0.065559 -0.077506 -0.077506 -0.017057 -0.054805 -0.094925 -0.017057 -0.071672 -0.071672 -0.044831 -0.05068 -0.08778 -0.044831 -0.0081432 -0.0081432 -0.11 -0.028069 -0.028069 -0.10326 -0.0057581 -0.0099734 -0.11 -0.019848 -0.034377 -0.10326 -0.046081 -0.046081 -0.089452 -0.060953 -0.060953 -0.069524 -0.032584 -0.056438 -0.089452 -0.043101 -0.074652 -0.069524 -0.051824 -0.089762 0.040085 -0.044921 -0.077806 0.065559 -0.026826 -0.10012 0.040085 -0.023253 -0.086781 0.065559 -0.022611 -0.039163 0.10175 -0.011704 -0.043681 0.10175 -0.034957 -0.060548 0.086591 -0.018095 -0.067532 0.086591 -0.032584 -0.056438 -0.089452 -0.043101 -0.074652 -0.069524 -0.016867 -0.062948 -0.089452 -0.02231 -0.083264 -0.069524 -0.026234 -0.097905 -0.044831 0 -0.10136 -0.044831 -0.02231 -0.083264 -0.069524 0 -0.086201 -0.069524 -0.019848 -0.034377 -0.10326 -0.032584 -0.056438 -0.089452 -0.010274 -0.038342 -0.10326 -0.016867 -0.062948 -0.089452 -0.012337 -0.012337 0.11 -0.0087236 -0.01511 0.11 -0.031977 -0.031977 0.10175 -0.022611 -0.039163 0.10175 -0.078058 -0.078058 0.011907 -0.055195 -0.095601 0.011907 -0.077506 -0.077506 -0.017057 -0.054805 -0.094925 -0.017057 -0.028069 -0.028069 -0.10326 -0.046081 -0.046081 -0.089452 -0.019848 -0.034377 -0.10326 -0.032584 -0.056438 -0.089452 -0.0045157 -0.016853 0.11 0 -0.017447 0.11 -0.011704 -0.043681 0.10175 0 -0.045222 0.10175 -0.034957 -0.060548 0.086591 -0.018095 -0.067532 0.086591 -0.044921 -0.077806 0.065559 -0.023253 -0.086781 0.065559 -0.016867 -0.062948 -0.089452 -0.02231 -0.083264 -0.069524 0 -0.065169 -0.089452 0 -0.086201 -0.069524 -0.011704 -0.043681 0.10175 0 -0.045222 0.10175 -0.018095 -0.067532 0.086591 0 -0.069915 0.086591 -0.028571 -0.10663 0.011907 0 -0.11039 0.011907 -0.028369 -0.10587 -0.017057 0 -0.10961 -0.017057 -0.010274 -0.038342 -0.10326 -0.016867 -0.062948 -0.089452 0 -0.039695 -0.10326 0 -0.065169 -0.089452 -0.0057581 -0.0099734 -0.11 -0.019848 -0.034377 -0.10326 -0.0029806 -0.011124 -0.11 -0.010274 -0.038342 -0.10326 -0.071672 -0.071672 -0.044831 -0.05068 -0.08778 -0.044831 -0.060953 -0.060953 -0.069524 -0.043101 -0.074652 -0.069524 -0.031977 -0.031977 0.10175 -0.022611 -0.039163 0.10175 -0.049437 -0.049437 0.086591 -0.034957 -0.060548 0.086591 -0.026826 -0.10012 0.040085 -0.023253 -0.086781 0.065559 0 -0.10365 0.040085 0 -0.089843 0.065559 0.044921 -0.077806 0.065559 0.063528 -0.063528 0.065559 0.051824 -0.089762 0.040085 0.07329 -0.07329 0.040085 0.094925 -0.054805 -0.017057 0.077506 -0.077506 -0.017057 0.095601 -0.055195 0.011907 0.078058 -0.078058 0.011907 0.08778 -0.05068 -0.044831 0.071672 -0.071672 -0.044831 0.094925 -0.054805 -0.017057 0.077506 -0.077506 -0.017057 0.074652 -0.043101 -0.069524 0.060953 -0.060953 -0.069524 0.08778 -0.05068 -0.044831 0.071672 -0.071672 -0.044831 0 -0.10365 0.040085 0 -0.089843 0.065559 0.026826 -0.10012 0.040085 0.023253 -0.086781 0.065559 0.034957 -0.060548 0.086591 0.044921 -0.077806 0.065559 0.018095 -0.067532 0.086591 0.023253 -0.086781 0.065559 0.016867 -0.062948 -0.089452 0 -0.065169 -0.089452 0.02231 -0.083264 -0.069524 0 -0.086201 -0.069524 0.056438 -0.032584 -0.089452 0.046081 -0.046081 -0.089452 0.074652 -0.043101 -0.069524 0.060953 -0.060953 -0.069524 0.023253 -0.086781 0.065559 0.044921 -0.077806 0.065559 0.026826 -0.10012 0.040085 0.051824 -0.089762 0.040085 0.0057581 -0.0099734 -0.11 0.0029806 -0.011124 -0.11 0.019848 -0.034377 -0.10326 0.010274 -0.038342 -0.10326 0.034377 -0.019848 -0.10326 0.028069 -0.028069 -0.10326 0.056438 -0.032584 -0.089452 0.046081 -0.046081 -0.089452 0.0099734 -0.0057581 -0.11 0.0081432 -0.0081432 -0.11 0.034377 -0.019848 -0.10326 0.028069 -0.028069 -0.10326 0.01511 -0.0087236 0.11 0.039163 -0.022611 0.10175 0.012337 -0.012337 0.11 0.031977 -0.031977 0.10175 0.039163 -0.022611 0.10175 0.060548 -0.034957 0.086591 0.031977 -0.031977 0.10175 0.049437 -0.049437 0.086591 0.043101 -0.074652 -0.069524 0.05068 -0.08778 -0.044831 0.060953 -0.060953 -0.069524 0.071672 -0.071672 -0.044831 0.060548 -0.034957 0.086591 0.077806 -0.044921 0.065559 0.049437 -0.049437 0.086591 0.063528 -0.063528 0.065559 0.054805 -0.094925 -0.017057 0.055195 -0.095601 0.011907 0.077506 -0.077506 -0.017057 0.078058 -0.078058 0.011907 0.031977 -0.031977 0.10175 0.049437 -0.049437 0.086591 0.022611 -0.039163 0.10175 0.034957 -0.060548 0.086591 0.10012 -0.026826 0.040085 0.089762 -0.051824 0.040085 0.086781 -0.023253 0.065559 0.077806 -0.044921 0.065559 0.10663 -0.028571 0.011907 0.095601 -0.055195 0.011907 0.10012 -0.026826 0.040085 0.089762 -0.051824 0.040085 0.10587 -0.028369 -0.017057 0.094925 -0.054805 -0.017057 0.10663 -0.028571 0.011907 0.095601 -0.055195 0.011907 0 -0.10136 -0.044831 0 -0.10961 -0.017057 0.026234 -0.097905 -0.044831 0.028369 -0.10587 -0.017057 0.011704 -0.043681 0.10175 0.018095 -0.067532 0.086591 0 -0.045222 0.10175 0 -0.069915 0.086591 0.028369 -0.10587 -0.017057 0.028571 -0.10663 0.011907 0.054805 -0.094925 -0.017057 0.055195 -0.095601 0.011907 0.032584 -0.056438 -0.089452 0.016867 -0.062948 -0.089452 0.043101 -0.074652 -0.069524 0.02231 -0.083264 -0.069524 0.0045157 -0.016853 0.11 0.011704 -0.043681 0.10175 0 -0.017447 0.11 0 -0.045222 0.10175 0.019848 -0.034377 -0.10326 0.010274 -0.038342 -0.10326 0.032584 -0.056438 -0.089452 0.016867 -0.062948 -0.089452 0.046081 -0.046081 -0.089452 0.032584 -0.056438 -0.089452 0.060953 -0.060953 -0.069524 0.043101 -0.074652 -0.069524 0.028069 -0.028069 -0.10326 0.019848 -0.034377 -0.10326 0.046081 -0.046081 -0.089452 0.032584 -0.056438 -0.089452 0.026826 -0.10012 0.040085 0.051824 -0.089762 0.040085 0.028571 -0.10663 0.011907 0.055195 -0.095601 0.011907 0.049437 -0.049437 0.086591 0.063528 -0.063528 0.065559 0.034957 -0.060548 0.086591 0.044921 -0.077806 0.065559 0.089762 -0.051824 0.040085 0.07329 -0.07329 0.040085 0.077806 -0.044921 0.065559 0.063528 -0.063528 0.065559 0 -0.10961 -0.017057 0 -0.11039 0.011907 0.028369 -0.10587 -0.017057 0.028571 -0.10663 0.011907 0.026234 -0.097905 -0.044831 0.028369 -0.10587 -0.017057 0.05068 -0.08778 -0.044831 0.054805 -0.094925 -0.017057 0.095601 -0.055195 0.011907 0.078058 -0.078058 0.011907 0.089762 -0.051824 0.040085 0.07329 -0.07329 0.040085 0.05068 -0.08778 -0.044831 0.054805 -0.094925 -0.017057 0.071672 -0.071672 -0.044831 0.077506 -0.077506 -0.017057 0.0087236 -0.01511 0.11 0.022611 -0.039163 0.10175 0.0045157 -0.016853 0.11 0.011704 -0.043681 0.10175 0.0081432 -0.0081432 -0.11 0.0057581 -0.0099734 -0.11 0.028069 -0.028069 -0.10326 0.019848 -0.034377 -0.10326 0.012337 -0.012337 0.11 0.031977 -0.031977 0.10175 0.0087236 -0.01511 0.11 0.022611 -0.039163 0.10175 0 -0.089843 0.065559 0 -0.069915 0.086591 0.023253 -0.086781 0.065559 0.018095 -0.067532 0.086591 0 -0.086201 -0.069524 0 -0.10136 -0.044831 0.02231 -0.083264 -0.069524 0.026234 -0.097905 -0.044831 0.02231 -0.083264 -0.069524 0.026234 -0.097905 -0.044831 0.043101 -0.074652 -0.069524 0.05068 -0.08778 -0.044831 0 -0.11039 0.011907 0 -0.10365 0.040085 0.028571 -0.10663 0.011907 0.026826 -0.10012 0.040085 0.0029806 -0.011124 -0.11 0 -0.011516 -0.11 0.010274 -0.038342 -0.10326 0 -0.039695 -0.10326 0.010274 -0.038342 -0.10326 0 -0.039695 -0.10326 0.016867 -0.062948 -0.089452 0 -0.065169 -0.089452 0.051824 -0.089762 0.040085 0.07329 -0.07329 0.040085 0.055195 -0.095601 0.011907 0.078058 -0.078058 0.011907 0.022611 -0.039163 0.10175 0.034957 -0.060548 0.086591 0.011704 -0.043681 0.10175 0.018095 -0.067532 0.086591 0.078058 0.078058 0.011907 0.095601 0.055195 0.011907 0.07329 0.07329 0.040085 0.089762 0.051824 0.040085 0.071672 0.071672 -0.044831 0.08778 0.05068 -0.044831 0.077506 0.077506 -0.017057 0.094925 0.054805 -0.017057 0.011124 -0.0029806 -0.11 0.0099734 -0.0057581 -0.11 0.038342 -0.010274 -0.10326 0.034377 -0.019848 -0.10326 0.083264 0.02231 -0.069524 0.086201 0 -0.069524 0.097905 0.026234 -0.044831 0.10136 0 -0.044831 0.086201 0 -0.069524 0.065169 0 -0.089452 0.083264 -0.02231 -0.069524 0.062948 -0.016867 -0.089452 0.016853 -0.0045157 0.11 0.043681 -0.011704 0.10175 0.01511 -0.0087236 0.11 0.039163 -0.022611 0.10175 0.074652 0.043101 -0.069524 0.083264 0.02231 -0.069524 0.08778 0.05068 -0.044831 0.097905 0.026234 -0.044831 0.060953 0.060953 -0.069524 0.046081 0.046081 -0.089452 0.074652 0.043101 -0.069524 0.056438 0.032584 -0.089452 0.046081 0.046081 -0.089452 0.028069 0.028069 -0.10326 0.056438 0.032584 -0.089452 0.034377 0.019848 -0.10326 0.067532 0.018095 0.086591 0.069915 0 0.086591 0.043681 0.011704 0.10175 0.045222 0 0.10175 0.028069 0.028069 -0.10326 0.0081432 0.0081432 -0.11 0.034377 0.019848 -0.10326 0.0099734 0.0057581 -0.11 0.043681 -0.011704 0.10175 0.067532 -0.018095 0.086591 0.039163 -0.022611 0.10175 0.060548 -0.034957 0.086591 0.038342 -0.010274 -0.10326 0.034377 -0.019848 -0.10326 0.062948 -0.016867 -0.089452 0.056438 -0.032584 -0.089452 0.083264 -0.02231 -0.069524 0.074652 -0.043101 -0.069524 0.097905 -0.026234 -0.044831 0.08778 -0.05068 -0.044831 0.10663 0.028571 0.011907 0.11039 0 0.011907 0.10012 0.026826 0.040085 0.10365 0 0.040085 0.10587 0.028369 -0.017057 0.10961 0 -0.017057 0.10663 0.028571 0.011907 0.11039 0 0.011907 0.097905 0.026234 -0.044831 0.10136 0 -0.044831 0.10587 0.028369 -0.017057 0.10961 0 -0.017057 0.10365 0 0.040085 0.10012 -0.026826 0.040085 0.089843 0 0.065559 0.086781 -0.023253 0.065559 0.011704 0.043681 0.10175 0.022611 0.039163 0.10175 0.0045157 0.016853 0.11 0.0087236 0.01511 0.11 0.086781 0.023253 0.065559 0.089843 0 0.065559 0.067532 0.018095 0.086591 0.069915 0 0.086591 0.043681 0.011704 0.10175 0.045222 0 0.10175 0.016853 0.0045157 0.11 0.017447 0 0.11 0.089762 0.051824 0.040085 0.10012 0.026826 0.040085 0.077806 0.044921 0.065559 0.086781 0.023253 0.065559 0.08778 0.05068 -0.044831 0.097905 0.026234 -0.044831 0.094925 0.054805 -0.017057 0.10587 0.028369 -0.017057 0.097905 -0.026234 -0.044831 0.08778 -0.05068 -0.044831 0.10587 -0.028369 -0.017057 0.094925 -0.054805 -0.017057 0.074652 0.043101 -0.069524 0.056438 0.032584 -0.089452 0.083264 0.02231 -0.069524 0.062948 0.016867 -0.089452 0.056438 0.032584 -0.089452 0.034377 0.019848 -0.10326 0.062948 0.016867 -0.089452 0.038342 0.010274 -0.10326 0.034377 0.019848 -0.10326 0.0099734 0.0057581 -0.11 0.038342 0.010274 -0.10326 0.011124 0.0029806 -0.11 0.11039 0 0.011907 0.10663 -0.028571 0.011907 0.10365 0 0.040085 0.10012 -0.026826 0.040085 0.10961 0 -0.017057 0.10587 -0.028369 -0.017057 0.11039 0 0.011907 0.10663 -0.028571 0.011907 0.067532 -0.018095 0.086591 0.086781 -0.023253 0.065559 0.060548 -0.034957 0.086591 0.077806 -0.044921 0.065559 0.089843 0 0.065559 0.086781 -0.023253 0.065559 0.069915 0 0.086591 0.067532 -0.018095 0.086591 0.086201 0 -0.069524 0.083264 -0.02231 -0.069524 0.10136 0 -0.044831 0.097905 -0.026234 -0.044831 0.045222 0 0.10175 0.069915 0 0.086591 0.043681 -0.011704 0.10175 0.067532 -0.018095 0.086591 0.062948 0.016867 -0.089452 0.038342 0.010274 -0.10326 0.065169 0 -0.089452 0.039695 0 -0.10326 0.094925 0.054805 -0.017057 0.10587 0.028369 -0.017057 0.095601 0.055195 0.011907 0.10663 0.028571 0.011907 0.039163 0.022611 0.10175 0.043681 0.011704 0.10175 0.01511 0.0087236 0.11 0.016853 0.0045157 0.11 0.10136 0 -0.044831 0.097905 -0.026234 -0.044831 0.10961 0 -0.017057 0.10587 -0.028369 -0.017057 0.039695 0 -0.10326 0.011516 0 -0.11 0.038342 -0.010274 -0.10326 0.011124 -0.0029806 -0.11 0.060548 0.034957 0.086591 0.067532 0.018095 0.086591 0.039163 0.022611 0.10175 0.043681 0.011704 0.10175 0.077806 0.044921 0.065559 0.086781 0.023253 0.065559 0.060548 0.034957 0.086591 0.067532 0.018095 0.086591 0.07329 0.07329 0.040085 0.089762 0.051824 0.040085 0.063528 0.063528 0.065559 0.077806 0.044921 0.065559 0.038342 0.010274 -0.10326 0.011124 0.0029806 -0.11 0.039695 0 -0.10326 0.011516 0 -0.11 0.077506 0.077506 -0.017057 0.094925 0.054805 -0.017057 0.078058 0.078058 0.011907 0.095601 0.055195 0.011907 0.060953 0.060953 -0.069524 0.074652 0.043101 -0.069524 0.071672 0.071672 -0.044831 0.08778 0.05068 -0.044831 0.065169 0 -0.089452 0.039695 0 -0.10326 0.062948 -0.016867 -0.089452 0.038342 -0.010274 -0.10326 0.062948 -0.016867 -0.089452 0.056438 -0.032584 -0.089452 0.083264 -0.02231 -0.069524 0.074652 -0.043101 -0.069524 0.017447 0 0.11 0.045222 0 0.10175 0.016853 -0.0045157 0.11 0.043681 -0.011704 0.10175 0.10012 0.026826 0.040085 0.10365 0 0.040085 0.086781 0.023253 0.065559 0.089843 0 0.065559 0.083264 0.02231 -0.069524 0.062948 0.016867 -0.089452 0.086201 0 -0.069524 0.065169 0 -0.089452 0.095601 0.055195 0.011907 0.10663 0.028571 0.011907 0.089762 0.051824 0.040085 0.10012 0.026826 0.040085 -0.028571 0.10663 0.011907 -0.028369 0.10587 -0.017057 0 0.11039 0.011907 0 0.10961 -0.017057 0.028369 0.10587 -0.017057 0.054805 0.094925 -0.017057 0.028571 0.10663 0.011907 0.055195 0.095601 0.011907 0 0.045222 0.10175 0 0.017447 0.11 -0.011704 0.043681 0.10175 -0.0045157 0.016853 0.11 0 0.11039 0.011907 0 0.10961 -0.017057 0.028571 0.10663 0.011907 0.028369 0.10587 -0.017057 0 0.089843 0.065559 0 0.10365 0.040085 0.023253 0.086781 0.065559 0.026826 0.10012 0.040085 -0.023253 0.086781 0.065559 0 0.089843 0.065559 -0.018095 0.067532 0.086591 0 0.069915 0.086591 0 0.069915 0.086591 0 0.089843 0.065559 0.018095 0.067532 0.086591 0.023253 0.086781 0.065559 -0.051824 0.089762 0.040085 -0.026826 0.10012 0.040085 -0.044921 0.077806 0.065559 -0.023253 0.086781 0.065559 0 0.10365 0.040085 0 0.11039 0.011907 0.026826 0.10012 0.040085 0.028571 0.10663 0.011907 -0.055195 0.095601 0.011907 -0.028571 0.10663 0.011907 -0.051824 0.089762 0.040085 -0.026826 0.10012 0.040085 -0.055195 0.095601 0.011907 -0.054805 0.094925 -0.017057 -0.028571 0.10663 0.011907 -0.028369 0.10587 -0.017057 0.022611 0.039163 0.10175 0.031977 0.031977 0.10175 0.0087236 0.01511 0.11 0.012337 0.012337 0.11 0 0.10136 -0.044831 0 0.086201 -0.069524 0.026234 0.097905 -0.044831 0.02231 0.083264 -0.069524 0.026826 0.10012 0.040085 0.028571 0.10663 0.011907 0.051824 0.089762 0.040085 0.055195 0.095601 0.011907 0.026234 0.097905 -0.044831 0.05068 0.08778 -0.044831 0.028369 0.10587 -0.017057 0.054805 0.094925 -0.017057 0.02231 0.083264 -0.069524 0.016867 0.062948 -0.089452 0.043101 0.074652 -0.069524 0.032584 0.056438 -0.089452 0 0.086201 -0.069524 0 0.065169 -0.089452 0.02231 0.083264 -0.069524 0.016867 0.062948 -0.089452 0.063528 0.063528 0.065559 0.077806 0.044921 0.065559 0.049437 0.049437 0.086591 0.060548 0.034957 0.086591 0 0.045222 0.10175 0.011704 0.043681 0.10175 0 0.017447 0.11 0.0045157 0.016853 0.11 -0.026826 0.10012 0.040085 0 0.10365 0.040085 -0.023253 0.086781 0.065559 0 0.089843 0.065559 -0.028369 0.10587 -0.017057 -0.026234 0.097905 -0.044831 0 0.10961 -0.017057 0 0.10136 -0.044831 0 0.065169 -0.089452 -0.016867 0.062948 -0.089452 0 0.039695 -0.10326 -0.010274 0.038342 -0.10326 0.02231 0.083264 -0.069524 0.043101 0.074652 -0.069524 0.026234 0.097905 -0.044831 0.05068 0.08778 -0.044831 0 0.069915 0.086591 0 0.045222 0.10175 -0.018095 0.067532 0.086591 -0.011704 0.043681 0.10175 0.031977 0.031977 0.10175 0.039163 0.022611 0.10175 0.012337 0.012337 0.11 0.01511 0.0087236 0.11 0.044921 0.077806 0.065559 0.063528 0.063528 0.065559 0.034957 0.060548 0.086591 0.049437 0.049437 0.086591 0.043101 0.074652 -0.069524 0.060953 0.060953 -0.069524 0.05068 0.08778 -0.044831 0.071672 0.071672 -0.044831 0 0.10961 -0.017057 0 0.10136 -0.044831 0.028369 0.10587 -0.017057 0.026234 0.097905 -0.044831 0.032584 0.056438 -0.089452 0.019848 0.034377 -0.10326 0.046081 0.046081 -0.089452 0.028069 0.028069 -0.10326 0 0.065169 -0.089452 0 0.039695 -0.10326 0.016867 0.062948 -0.089452 0.010274 0.038342 -0.10326 0.023253 0.086781 0.065559 0.026826 0.10012 0.040085 0.044921 0.077806 0.065559 0.051824 0.089762 0.040085 0.016867 0.062948 -0.089452 0.010274 0.038342 -0.10326 0.032584 0.056438 -0.089452 0.019848 0.034377 -0.10326 0.023253 0.086781 0.065559 0.044921 0.077806 0.065559 0.018095 0.067532 0.086591 0.034957 0.060548 0.086591 0.049437 0.049437 0.086591 0.060548 0.034957 0.086591 0.031977 0.031977 0.10175 0.039163 0.022611 0.10175 0.054805 0.094925 -0.017057 0.077506 0.077506 -0.017057 0.055195 0.095601 0.011907 0.078058 0.078058 0.011907 0.010274 0.038342 -0.10326 0.0029806 0.011124 -0.11 0.019848 0.034377 -0.10326 0.0057581 0.0099734 -0.11 0.05068 0.08778 -0.044831 0.071672 0.071672 -0.044831 0.054805 0.094925 -0.017057 0.077506 0.077506 -0.017057 0.034957 0.060548 0.086591 0.049437 0.049437 0.086591 0.022611 0.039163 0.10175 0.031977 0.031977 0.10175 0.019848 0.034377 -0.10326 0.0057581 0.0099734 -0.11 0.028069 0.028069 -0.10326 0.0081432 0.0081432 -0.11 0 0.039695 -0.10326 0 0.011516 -0.11 0.010274 0.038342 -0.10326 0.0029806 0.011124 -0.11 0.051824 0.089762 0.040085 0.055195 0.095601 0.011907 0.07329 0.07329 0.040085 0.078058 0.078058 0.011907 0.018095 0.067532 0.086591 0.034957 0.060548 0.086591 0.011704 0.043681 0.10175 0.022611 0.039163 0.10175 0.044921 0.077806 0.065559 0.051824 0.089762 0.040085 0.063528 0.063528 0.065559 0.07329 0.07329 0.040085 0 0.069915 0.086591 0.018095 0.067532 0.086591 0 0.045222 0.10175 0.011704 0.043681 0.10175 -0.028571 0.10663 0.011907 0 0.11039 0.011907 -0.026826 0.10012 0.040085 0 0.10365 0.040085 -0.026234 0.097905 -0.044831 -0.02231 0.083264 -0.069524 0 0.10136 -0.044831 0 0.086201 -0.069524 0.043101 0.074652 -0.069524 0.032584 0.056438 -0.089452 0.060953 0.060953 -0.069524 0.046081 0.046081 -0.089452 0 0.086201 -0.069524 -0.02231 0.083264 -0.069524 0 0.065169 -0.089452 -0.016867 0.062948 -0.089452 0 0.039695 -0.10326 -0.010274 0.038342 -0.10326 0 0.011516 -0.11 -0.0029806 0.011124 -0.11 -0.046081 0.046081 -0.089452 -0.056438 0.032584 -0.089452 -0.028069 0.028069 -0.10326 -0.034377 0.019848 -0.10326 -0.032584 0.056438 -0.089452 -0.046081 0.046081 -0.089452 -0.019848 0.034377 -0.10326 -0.028069 0.028069 -0.10326 -0.028069 0.028069 -0.10326 -0.034377 0.019848 -0.10326 -0.0081432 0.0081432 -0.11 -0.0099734 0.0057581 -0.11 -0.023253 0.086781 0.065559 -0.018095 0.067532 0.086591 -0.044921 0.077806 0.065559 -0.034957 0.060548 0.086591 -0.054805 0.094925 -0.017057 -0.05068 0.08778 -0.044831 -0.028369 0.10587 -0.017057 -0.026234 0.097905 -0.044831 -0.078058 0.078058 0.011907 -0.077506 0.077506 -0.017057 -0.055195 0.095601 0.011907 -0.054805 0.094925 -0.017057 -0.031977 0.031977 0.10175 -0.012337 0.012337 0.11 -0.039163 0.022611 0.10175 -0.01511 0.0087236 0.11 -0.011704 0.043681 0.10175 -0.0045157 0.016853 0.11 -0.022611 0.039163 0.10175 -0.0087236 0.01511 0.11 -0.034957 0.060548 0.086591 -0.022611 0.039163 0.10175 -0.049437 0.049437 0.086591 -0.031977 0.031977 0.10175 -0.095601 0.055195 0.011907 -0.078058 0.078058 0.011907 -0.089762 0.051824 0.040085 -0.07329 0.07329 0.040085 -0.049437 0.049437 0.086591 -0.031977 0.031977 0.10175 -0.060548 0.034957 0.086591 -0.039163 0.022611 0.10175 -0.063528 0.063528 0.065559 -0.049437 0.049437 0.086591 -0.077806 0.044921 0.065559 -0.060548 0.034957 0.086591 -0.10012 0.026826 0.040085 -0.089762 0.051824 0.040085 -0.086781 0.023253 0.065559 -0.077806 0.044921 0.065559 -0.016867 0.062948 -0.089452 -0.032584 0.056438 -0.089452 -0.010274 0.038342 -0.10326 -0.019848 0.034377 -0.10326 -0.078058 0.078058 0.011907 -0.055195 0.095601 0.011907 -0.07329 0.07329 0.040085 -0.051824 0.089762 0.040085 -0.044921 0.077806 0.065559 -0.034957 0.060548 0.086591 -0.063528 0.063528 0.065559 -0.049437 0.049437 0.086591 -0.02231 0.083264 -0.069524 -0.043101 0.074652 -0.069524 -0.016867 0.062948 -0.089452 -0.032584 0.056438 -0.089452 -0.077506 0.077506 -0.017057 -0.071672 0.071672 -0.044831 -0.054805 0.094925 -0.017057 -0.05068 0.08778 -0.044831 -0.089762 0.051824 0.040085 -0.07329 0.07329 0.040085 -0.077806 0.044921 0.065559 -0.063528 0.063528 0.065559 -0.043101 0.074652 -0.069524 -0.060953 0.060953 -0.069524 -0.032584 0.056438 -0.089452 -0.046081 0.046081 -0.089452 -0.05068 0.08778 -0.044831 -0.043101 0.074652 -0.069524 -0.026234 0.097905 -0.044831 -0.02231 0.083264 -0.069524 -0.094925 0.054805 -0.017057 -0.077506 0.077506 -0.017057 -0.095601 0.055195 0.011907 -0.078058 0.078058 0.011907 -0.022611 0.039163 0.10175 -0.0087236 0.01511 0.11 -0.031977 0.031977 0.10175 -0.012337 0.012337 0.11 -0.071672 0.071672 -0.044831 -0.060953 0.060953 -0.069524 -0.05068 0.08778 -0.044831 -0.043101 0.074652 -0.069524 -0.018095 0.067532 0.086591 -0.011704 0.043681 0.10175 -0.034957 0.060548 0.086591 -0.022611 0.039163 0.10175 -0.060953 0.060953 -0.069524 -0.074652 0.043101 -0.069524 -0.046081 0.046081 -0.089452 -0.056438 0.032584 -0.089452 -0.074652 0.043101 -0.069524 -0.060953 0.060953 -0.069524 -0.08778 0.05068 -0.044831 -0.071672 0.071672 -0.044831 -0.07329 0.07329 0.040085 -0.051824 0.089762 0.040085 -0.063528 0.063528 0.065559 -0.044921 0.077806 0.065559 -0.010274 0.038342 -0.10326 -0.019848 0.034377 -0.10326 -0.0029806 0.011124 -0.11 -0.0057581 0.0099734 -0.11 -0.019848 0.034377 -0.10326 -0.028069 0.028069 -0.10326 -0.0057581 0.0099734 -0.11 -0.0081432 0.0081432 -0.11 -0.08778 0.05068 -0.044831 -0.071672 0.071672 -0.044831 -0.094925 0.054805 -0.017057 -0.077506 0.077506 -0.017057 0 0.017447 0.11 0.0045157 0.016853 0.11 -0.0045157 0.016853 0.11 -0.0087236 0.01511 0.11 0.0087236 0.01511 0.11 -0.012337 0.012337 0.11 0.012337 0.012337 0.11 -0.01511 0.0087236 0.11 0.01511 0.0087236 0.11 -0.016853 0.0045157 0.11 0.016853 0.0045157 0.11 -0.017447 0 0.11 0.017447 0 0.11 -0.016853 -0.0045157 0.11 0.016853 -0.0045157 0.11 -0.01511 -0.0087236 0.11 0.01511 -0.0087236 0.11 -0.012337 -0.012337 0.11 0.012337 -0.012337 0.11 -0.0087236 -0.01511 0.11 0.0087236 -0.01511 0.11 -0.0045157 -0.016853 0.11 0.0045157 -0.016853 0.11 0 -0.017447 0.11 0 0.011516 -0.11 -0.0029806 0.011124 -0.11 0.0029806 0.011124 -0.11 0.0057581 0.0099734 -0.11 -0.0057581 0.0099734 -0.11 0.0081432 0.0081432 -0.11 -0.0081432 0.0081432 -0.11 0.0099734 0.0057581 -0.11 -0.0099734 0.0057581 -0.11 0.011124 0.0029806 -0.11 -0.011124 0.0029806 -0.11 0.011516 0 -0.11 -0.011516 0 -0.11 0.011124 -0.0029806 -0.11 -0.011124 -0.0029806 -0.11 0.0099734 -0.0057581 -0.11 -0.0099734 -0.0057581 -0.11 0.0081432 -0.0081432 -0.11 -0.0081432 -0.0081432 -0.11 0.0057581 -0.0099734 -0.11 -0.0057581 -0.0099734 -0.11 0.0029806 -0.011124 -0.11 -0.0029806 -0.011124 -0.11 0 -0.011516 -0.11</float_array><technique_common><accessor source="#g-p-a" count="1104" stride="3"><param name="X" type="float"/><param name="Y" type="float"/><param name="Z" type="float"/></accessor></technique_common></source>
<source id="g-n"><float_array id="g-n-a" count="3312">-0.88624 -0.36709 -0.28252 -0.88624 -0.36709 -0.28251 -0.88624 -0.36709 -0.28251 -0.88624 -0.36709 -0.28251 -0.23258 0.03062 -0.97209 -0.23258 0.03062 -0.97209 -0.23258 0.03062 -0.97209 -0.23258 0.03062 -0.97209 -0.44314 0.18355 -0.87746 -0.44314 0.18355 -0.87746 -0.44314 0.18355 -0.87746 -0.44314 0.18355 -0.87746 -0.95106 0.12521 -0.28251 -0.95106 0.12521 -0.28251 -0.95106 0.12521 -0.28251 -0.95106 0.12521 -0.28251 -0.89893 0.37235 0.23081 -0.89893 0.37235 0.23081 -0.89893 0.37235 0.23081 -0.89893 0.37235 0.23081 -0.84692 -0.1115 -0.5199 -0.84692 -0.1115 -0.5199 -0.84692 -0.1115 -0.5199 -0.84692 -0.1115 -0.5199 -0.48635 0.20145 0.85022 -0.48635 0.20145 0.85022 -0.48635 0.20145 0.85022 -0.48635 0.20145 0.85022 -0.21673 0.089774 -0.97209 -0.21673 0.089774 -0.97209 -0.21673 0.089774 -0.97209 -0.21673 0.089774 -0.97209 -0.28456 0.037463 0.95793 -0.28456 0.037463 0.95793 -0.28456 0.037463 0.95793 -0.28456 0.037463 0.95793 -0.72261 0.095134 0.68467 -0.72261 0.095134 0.68467 -0.72261 0.095134 0.68467 -0.72261 0.095134 0.68467 -0.48635 -0.20145 0.85022 -0.48635 -0.20145 0.85022 -0.48635 -0.20145 0.85022 -0.48635 -0.20145 0.85022 -0.87335 -0.11498 0.47332 -0.87335 -0.11498 0.47332 -0.87335 -0.11498 0.47332 -0.87335 -0.11498 0.47332 -0.67337 -0.27892 0.68467 -0.67337 -0.27892 0.68467 -0.67337 -0.27892 0.68467 -0.67337 -0.27892 0.68467 -0.63831 0.2644 -0.72295 -0.63831 0.2644 -0.72295 -0.63831 0.2644 -0.72295 -0.63831 0.2644 -0.72295 -0.88624 0.36709 -0.28251 -0.88624 0.36709 -0.28251 -0.88624 0.36709 -0.28251 -0.88624 0.36709 -0.28252 -0.87335 0.11498 0.47332 -0.87335 0.11498 0.47332 -0.87335 0.11498 0.47332 -0.87335 0.11498 0.47332 -0.95106 -0.12521 -0.28251 -0.95106 -0.12521 -0.28251 -0.95106 -0.12521 -0.28251 -0.95106 -0.12521 -0.28251 -0.63831 -0.2644 -0.72295 -0.63831 -0.2644 -0.72295 -0.63831 -0.2644 -0.72295 -0.63831 -0.2644 -0.72295 -0.47554 0.062607 -0.87746 -0.47554 0.062607 -0.87746 -0.47554 0.062607 -0.87746 -0.47554 0.062607 -0.87746 -0.52192 -0.068712 0.85022 -0.52192 -0.068712 0.85022 -0.52192 -0.068712 0.85022 -0.52192 -0.068712 0.85022 -0.79307 -0.60854 -0.026719 -0.79307 -0.60854 -0.026719 -0.79307 -0.60854 -0.026719 -0.79307 -0.60854 -0.026719 -0.67771 -0.52002 -0.5199 -0.67771 -0.52002 -0.5199 -0.67771 -0.52002 -0.5199 -0.67771 -0.52002 -0.5199 -0.18611 -0.14281 -0.97209 -0.18611 -0.14281 -0.97209 -0.18611 -0.14281 -0.97209 -0.18611 -0.14281 -0.97209 -0.96467 0.127 0.23081 -0.96467 0.127 0.23081 -0.96467 0.127 0.23081 -0.96467 0.127 0.23081 -0.28456 -0.037463 0.95793 -0.28456 -0.037463 0.95793 -0.28456 -0.037463 0.95793 -0.28456 -0.037463 0.95793 -0.81384 -0.3371 0.47332 -0.81384 -0.3371 0.47332 -0.81384 -0.3371 0.47332 -0.81384 -0.3371 0.47332 -0.52192 0.068712 0.85022 -0.52192 0.068712 0.85022 -0.52192 0.068712 0.85022 -0.52192 0.068712 0.85022 -0.92355 0.38255 -0.026719 -0.92355 0.38255 -0.026719 -0.92355 0.38255 -0.026719 -0.92355 0.38255 -0.026719 -0.68499 0.090181 -0.72295 -0.68499 0.090181 -0.72295 -0.68499 0.090181 -0.72295 -0.68499 0.090181 -0.72295 -0.47554 -0.062607 -0.87746 -0.47554 -0.062607 -0.87746 -0.47554 -0.062607 -0.87746 -0.47554 -0.062607 -0.87746 -0.72261 -0.095134 0.68467 -0.72261 -0.095134 0.68467 -0.72261 -0.095134 0.68467 -0.72261 -0.095134 0.68467 -0.99109 0.13048 -0.026719 -0.99109 0.13048 -0.026719 -0.99109 0.13048 -0.026719 -0.99109 0.13048 -0.026719 -0.44314 -0.18355 -0.87746 -0.44314 -0.18355 -0.87746 -0.44314 -0.18355 -0.87746 -0.44314 -0.18355 -0.87746 -0.68499 -0.090181 -0.72295 -0.68499 -0.090181 -0.72295 -0.68499 -0.090181 -0.72295 -0.68499 -0.090181 -0.72295 -0.89893 -0.37235 0.23081 -0.89893 -0.37235 0.23081 -0.89893 -0.37235 0.23081 -0.89893 -0.37235 0.23081 -0.26516 -0.10983 0.95793 -0.26516 -0.10983 0.95793 -0.26516 -0.10983 0.95793 -0.26516 -0.10983 0.95793 -0.77193 -0.59232 0.23081 -0.77193 -0.59232 0.23081 -0.77193 -0.59232 0.23081 -0.77193 -0.59232 0.23081 -0.76103 -0.58396 -0.28251 -0.76103 -0.58396 -0.28252 -0.76103 -0.58396 -0.28252 -0.76103 -0.58396 -0.28252 -0.54813 -0.42059 -0.72295 -0.54813 -0.42059 -0.72295 -0.54813 -0.42059 -0.72295 -0.54813 -0.42059 -0.72295 -0.2277 -0.17472 0.95793 -0.2277 -0.17472 0.95793 -0.2277 -0.17472 0.95793 -0.2277 -0.17472 0.95793 -0.26516 0.10983 0.95793 -0.26516 0.10983 0.95793 -0.26516 0.10983 0.95793 -0.26516 0.10983 0.95793 -0.84692 0.1115 -0.5199 -0.84692 0.1115 -0.5199 -0.84692 0.1115 -0.5199 -0.84692 0.1115 -0.5199 -0.23258 -0.03062 -0.97209 -0.23258 -0.03062 -0.97209 -0.23258 -0.03062 -0.97209 -0.23258 -0.03062 -0.97209 -0.69886 -0.53625 0.47332 -0.69886 -0.53625 0.47332 -0.69886 -0.53625 0.47332 -0.69886 -0.53625 0.47332 -0.38053 -0.29199 -0.87746 -0.38053 -0.29199 -0.87746 -0.38053 -0.29199 -0.87746 -0.38053 -0.29199 -0.87746 -0.96467 -0.127 0.23081 -0.96467 -0.127 0.23081 -0.96467 -0.127 0.23081 -0.96467 -0.127 0.23081 -0.41764 -0.32047 0.85022 -0.41764 -0.32047 0.85022 -0.41764 -0.32047 0.85022 -0.41764 -0.32047 0.85022 -0.57823 -0.4437 0.68467 -0.57823 -0.4437 0.68467 -0.57823 -0.4437 0.68467 -0.57823 -0.4437 0.68467 -0.53625 -0.69886 0.47332 -0.53625 -0.69886 0.47332 -0.53625 -0.69886 0.47332 -0.53625 -0.69886 0.47332 -0.59232 -0.77193 0.23081 -0.59232 -0.77193 0.23081 -0.59232 -0.77193 0.23081 -0.59232 -0.77193 0.23081 -0.67337 0.27892 0.68467 -0.67337 0.27892 0.68467 -0.67337 0.27892 0.68467 -0.67337 0.27892 0.68467 -0.78921 -0.3269 -0.5199 -0.78921 -0.3269 -0.5199 -0.78921 -0.3269 -0.5199 -0.78921 -0.3269 -0.5199 -0.78921 0.3269 -0.5199 -0.78921 0.3269 -0.5199 -0.78921 0.3269 -0.5199 -0.78921 0.3269 -0.5199 -0.99109 -0.13048 -0.026719 -0.99109 -0.13048 -0.026719 -0.99109 -0.13048 -0.026719 -0.99109 -0.13048 -0.026719 -0.92355 -0.38255 -0.026719 -0.92355 -0.38255 -0.026719 -0.92355 -0.38255 -0.026719 -0.92355 -0.38255 -0.026719 -0.21673 -0.089774 -0.97209 -0.21673 -0.089774 -0.97209 -0.21673 -0.089774 -0.97209 -0.21673 -0.089774 -0.97209 -0.37235 -0.89893 0.23081 -0.37235 -0.89893 0.23081 -0.37235 -0.89893 0.23081 -0.37235 -0.89893 0.23081 -0.095134 -0.72261 0.68467 -0.095134 -0.72261 0.68467 -0.095134 -0.72261 0.68467 -0.095134 -0.72261 0.68467 -0.03062 -0.23258 -0.97209 -0.03062 -0.23258 -0.97209 -0.03062 -0.23258 -0.97209 -0.03062 -0.23258 -0.97209 -0.38255 -0.92355 -0.026719 -0.38255 -0.92355 -0.026719 -0.38255 -0.92355 -0.026719 -0.38255 -0.92355 -0.026719 -0.3269 -0.78921 -0.5199 -0.3269 -0.78921 -0.5199 -0.3269 -0.78921 -0.5199 -0.3269 -0.78921 -0.5199 -0.127 -0.96467 0.23081 -0.127 -0.96467 0.23081 -0.127 -0.96467 0.23081 -0.127 -0.96467 0.23081 -0.12521 -0.95106 -0.28251 -0.12521 -0.95106 -0.28251 -0.12521 -0.95106 -0.28251 -0.12521 -0.95106 -0.28251 -0.10983 -0.26516 0.95793 -0.10983 -0.26516 0.95793 -0.10983 -0.26516 0.95793 -0.10983 -0.26516 0.95793 -0.36709 -0.88624 -0.28252 -0.36709 -0.88624 -0.28251 -0.36709 -0.88624 -0.28251 -0.36709 -0.88624 -0.28251 -0.4437 -0.57823 0.68467 -0.4437 -0.57823 0.68467 -0.4437 -0.57823 0.68467 -0.4437 -0.57823 0.68467 -0.58396 -0.76103 -0.28251 -0.58396 -0.76103 -0.28252 -0.58396 -0.76103 -0.28252 -0.58396 -0.76103 -0.28252 -0.14281 -0.18611 -0.97209 -0.14281 -0.18611 -0.97209 -0.14281 -0.18611 -0.97209 -0.14281 -0.18611 -0.97209 -0.42059 -0.54813 -0.72295 -0.42059 -0.54813 -0.72295 -0.42059 -0.54813 -0.72295 -0.42059 -0.54813 -0.72295 -0.3371 -0.81384 0.47332 -0.3371 -0.81384 0.47332 -0.3371 -0.81384 0.47332 -0.3371 -0.81384 0.47332 -0.20145 -0.48635 0.85022 -0.20145 -0.48635 0.85022 -0.20145 -0.48635 0.85022 -0.20145 -0.48635 0.85022 -0.2644 -0.63831 -0.72295 -0.2644 -0.63831 -0.72295 -0.2644 -0.63831 -0.72295 -0.2644 -0.63831 -0.72295 -0.1115 -0.84692 -0.5199 -0.1115 -0.84692 -0.5199 -0.1115 -0.84692 -0.5199 -0.1115 -0.84692 -0.5199 -0.18355 -0.44314 -0.87746 -0.18355 -0.44314 -0.87746 -0.18355 -0.44314 -0.87746 -0.18355 -0.44314 -0.87746 -0.17472 -0.2277 0.95793 -0.17472 -0.2277 0.95793 -0.17472 -0.2277 0.95793 -0.17472 -0.2277 0.95793 -0.60854 -0.79307 -0.026719 -0.60854 -0.79307 -0.026719 -0.60854 -0.79307 -0.026719 -0.60854 -0.79307 -0.026719 -0.29199 -0.38053 -0.87746 -0.29199 -0.38053 -0.87746 -0.29199 -0.38053 -0.87746 -0.29199 -0.38053 -0.87746 -0.037463 -0.28456 0.95793 -0.037463 -0.28456 0.95793 -0.037463 -0.28456 0.95793 -0.037463 -0.28456 0.95793 -0.27892 -0.67337 0.68467 -0.27892 -0.67337 0.68467 -0.27892 -0.67337 0.68467 -0.27892 -0.67337 0.68467 -0.090181 -0.68499 -0.72295 -0.090181 -0.68499 -0.72295 -0.090181 -0.68499 -0.72295 -0.090181 -0.68499 -0.72295 -0.068712 -0.52192 0.85022 -0.068712 -0.52192 0.85022 -0.068712 -0.52192 0.85022 -0.068712 -0.52192 0.85022 -0.13048 -0.99109 -0.026719 -0.13048 -0.99109 -0.026719 -0.13048 -0.99109 -0.026719 -0.13048 -0.99109 -0.026719 -0.062607 -0.47554 -0.87746 -0.062607 -0.47554 -0.87746 -0.062607 -0.47554 -0.87746 -0.062607 -0.47554 -0.87746 -0.089774 -0.21673 -0.97209 -0.089774 -0.21673 -0.97209 -0.089774 -0.21673 -0.97209 -0.089774 -0.21673 -0.97209 -0.52002 -0.67771 -0.5199 -0.52002 -0.67771 -0.5199 -0.52002 -0.67771 -0.5199 -0.52002 -0.67771 -0.5199 -0.32047 -0.41764 0.85022 -0.32047 -0.41764 0.85022 -0.32047 -0.41764 0.85022 -0.32047 -0.41764 0.85022 -0.11498 -0.87335 0.47332 -0.11498 -0.87335 0.47332 -0.11498 -0.87335 0.47332 -0.11498 -0.87335 0.47332 0.53625 -0.69886 0.47332 0.53625 -0.69886 0.47332 0.53625 -0.69886 0.47332 0.53625 -0.69886 0.47332 0.79307 -0.60854 -0.026719 0.79307 -0.60854 -0.026719 0.79307 -0.60854 -0.026719 0.79307 -0.60854 -0.026719 0.76103 -0.58396 -0.28252 0.76103 -0.58396 -0.28252 0.76103 -0.58396 -0.28252 0.76103 -0.58396 -0.28251 0.67771 -0.52002 -0.5199 0.67771 -0.52002 -0.5199 0.67771 -0.52002 -0.5199 0.67771 -0.52002 -0.5199 0.11498 -0.87335 0.47332 0.11498 -0.87335 0.47332 0.11498 -0.87335 0.47332 0.11498 -0.87335 0.47332 0.27892 -0.67337 0.68467 0.27892 -0.67337 0.68467 0.27892 -0.67337 0.68467 0.27892 -0.67337 0.68467 0.090181 -0.68499 -0.72295 0.090181 -0.68499 -0.72295 0.090181 -0.68499 -0.72295 0.090181 -0.68499 -0.72295 0.54813 -0.42059 -0.72295 0.54813 -0.42059 -0.72295 0.54813 -0.42059 -0.72295 0.54813 -0.42059 -0.72295 0.3371 -0.81384 0.47332 0.3371 -0.81384 0.47332 0.3371 -0.81384 0.47332 0.3371 -0.81384 0.47332 0.089774 -0.21673 -0.97209 0.089774 -0.21673 -0.97209 0.089774 -0.21673 -0.97209 0.089774 -0.21673 -0.97209 0.38053 -0.29199 -0.87746 0.38053 -0.29199 -0.87746 0.38053 -0.29199 -0.87746 0.38053 -0.29199 -0.87746 0.18611 -0.14281 -0.97209 0.18611 -0.14281 -0.97209 0.18611 -0.14281 -0.97209 0.18611 -0.14281 -0.97209 0.2277 -0.17472 0.95793 0.2277 -0.17472 0.95793 0.2277 -0.17472 0.95793 0.2277 -0.17472 0.95793 0.41764 -0.32047 0.85022 0.41764 -0.32047 0.85022 0.41764 -0.32047 0.85022 0.41764 -0.32047 0.85022 0.52002 -0.67771 -0.5199 0.52002 -0.67771 -0.5199 0.52002 -0.67771 -0.5199 0.52002 -0.67771 -0.5199 0.57823 -0.4437 0.68467 0.57823 -0.4437 0.68467 0.57823 -0.4437 0.68467 0.57823 -0.4437 0.68467 0.60854 -0.79307 -0.026719 0.60854 -0.79307 -0.026719 0.60854 -0.79307 -0.026719 0.60854 -0.79307 -0.026719 0.32047 -0.41764 0.85022 0.32047 -0.41764 0.85022 0.32047 -0.41764 0.85022 0.32047 -0.41764 0.85022 0.81384 -0.3371 0.47332 0.81384 -0.3371 0.47332 0.81384 -0.3371 0.47332 0.81384 -0.3371 0.47332 0.89893 -0.37235 0.23081 0.89893 -0.37235 0.23081 0.89893 -0.37235 0.23081 0.89893 -0.37235 0.23081 0.92355 -0.38255 -0.026719 0.92355 -0.38255 -0.026719 0.92355 -0.38255 -0.026719 0.92355 -0.38255 -0.026719 0.12521 -0.95106 -0.28251 0.12521 -0.95106 -0.28251 0.12521 -0.95106 -0.28251 0.12521 -0.95106 -0.28251 0.068712 -0.52192 0.85022 0.068712 -0.52192 0.85022 0.068712 -0.52192 0.85022 0.068712 -0.52192 0.85022 0.38255 -0.92355 -0.026719 0.38255 -0.92355 -0.026719 0.38255 -0.92355 -0.026719 0.38255 -0.92355 -0.026719 0.2644 -0.63831 -0.72295 0.2644 -0.63831 -0.72295 0.2644 -0.63831 -0.72295 0.2644 -0.63831 -0.72295 0.037463 -0.28456 0.95793 0.037463 -0.28456 0.95793 0.037463 -0.28456 0.95793 0.037463 -0.28456 0.95793 0.18355 -0.44314 -0.87746 0.18355 -0.44314 -0.87746 0.18355 -0.44314 -0.87746 0.18355 -0.44314 -0.87746 0.42059 -0.54813 -0.72295 0.42059 -0.54813 -0.72295 0.42059 -0.54813 -0.72295 0.42059 -0.54813 -0.72295 0.29199 -0.38053 -0.87746 0.29199 -0.38053 -0.87746 0.29199 -0.38053 -0.87746 0.29199 -0.38053 -0.87746 0.37235 -0.89893 0.23081 0.37235 -0.89893 0.23081 0.37235 -0.89893 0.23081 0.37235 -0.89893 0.23081 0.4437 -0.57823 0.68467 0.4437 -0.57823 0.68467 0.4437 -0.57823 0.68467 0.4437 -0.57823 0.68467 0.69886 -0.53625 0.47332 0.69886 -0.53625 0.47332 0.69886 -0.53625 0.47332 0.69886 -0.53625 0.47332 0.13048 -0.99109 -0.026719 0.13048 -0.99109 -0.026719 0.13048 -0.99109 -0.026719 0.13048 -0.99109 -0.026719 0.36709 -0.88624 -0.28251 0.36709 -0.88624 -0.28251 0.36709 -0.88624 -0.28251 0.36709 -0.88624 -0.28252 0.77193 -0.59232 0.23081 0.77193 -0.59232 0.23081 0.77193 -0.59232 0.23081 0.77193 -0.59232 0.23081 0.58396 -0.76103 -0.28252 0.58396 -0.76103 -0.28252 0.58396 -0.76103 -0.28252 0.58396 -0.76103 -0.28251 0.10983 -0.26516 0.95793 0.10983 -0.26516 0.95793 0.10983 -0.26516 0.95793 0.10983 -0.26516 0.95793 0.14281 -0.18611 -0.97209 0.14281 -0.18611 -0.97209 0.14281 -0.18611 -0.97209 0.14281 -0.18611 -0.97209 0.17472 -0.2277 0.95793 0.17472 -0.2277 0.95793 0.17472 -0.2277 0.95793 0.17472 -0.2277 0.95793 0.095134 -0.72261 0.68467 0.095134 -0.72261 0.68467 0.095134 -0.72261 0.68467 0.095134 -0.72261 0.68467 0.1115 -0.84692 -0.5199 0.1115 -0.84692 -0.5199 0.1115 -0.84692 -0.5199 0.1115 -0.84692 -0.5199 0.3269 -0.78921 -0.5199 0.3269 -0.78921 -0.5199 0.3269 -0.78921 -0.5199 0.3269 -0.78921 -0.5199 0.127 -0.96467 0.23081 0.127 -0.96467 0.23081 0.127 -0.96467 0.23081 0.127 -0.96467 0.23081 0.03062 -0.23258 -0.97209 0.03062 -0.23258 -0.97209 0.03062 -0.23258 -0.97209 0.03062 -0.23258 -0.97209 0.062607 -0.47554 -0.87746 0.062607 -0.47554 -0.87746 0.062607 -0.47554 -0.87746 0.062607 -0.47554 -0.87746 0.59232 -0.77193 0.23081 0.59232 -0.77193 0.23081 0.59232 -0.77193 0.23081 0.59232 -0.77193 0.23081 0.20145 -0.48635 0.85022 0.20145 -0.48635 0.85022 0.20145 -0.48635 0.85022 0.20145 -0.48635 0.85022 0.77193 0.59232 0.23081 0.77193 0.59232 0.23081 0.77193 0.59232 0.23081 0.77193 0.59232 0.23081 0.76103 0.58396 -0.28251 0.76103 0.58396 -0.28252 0.76103 0.58396 -0.28252 0.76103 0.58396 -0.28252 0.21673 -0.089774 -0.97209 0.21673 -0.089774 -0.97209 0.21673 -0.089774 -0.97209 0.21673 -0.089774 -0.97209 0.84692 0.1115 -0.5199 0.84692 0.1115 -0.5199 0.84692 0.1115 -0.5199 0.84692 0.1115 -0.5199 0.68499 -0.090181 -0.72295 0.68499 -0.090181 -0.72295 0.68499 -0.090181 -0.72295 0.68499 -0.090181 -0.72295 0.26516 -0.10983 0.95793 0.26516 -0.10983 0.95793 0.26516 -0.10983 0.95793 0.26516 -0.10983 0.95793 0.78921 0.3269 -0.5199 0.78921 0.3269 -0.5199 0.78921 0.3269 -0.5199 0.78921 0.3269 -0.5199 0.54813 0.42059 -0.72295 0.54813 0.42059 -0.72295 0.54813 0.42059 -0.72295 0.54813 0.42059 -0.72295 0.38053 0.29199 -0.87746 0.38053 0.29199 -0.87746 0.38053 0.29199 -0.87746 0.38053 0.29199 -0.87746 0.52192 0.068712 0.85022 0.52192 0.068712 0.85022 0.52192 0.068712 0.85022 0.52192 0.068712 0.85022 0.18611 0.14281 -0.97209 0.18611 0.14281 -0.97209 0.18611 0.14281 -0.97209 0.18611 0.14281 -0.97209 0.48635 -0.20145 0.85022 0.48635 -0.20145 0.85022 0.48635 -0.20145 0.85022 0.48635 -0.20145 0.85022 0.44314 -0.18355 -0.87746 0.44314 -0.18355 -0.87746 0.44314 -0.18355 -0.87746 0.44314 -0.18355 -0.87746 0.78921 -0.3269 -0.5199 0.78921 -0.3269 -0.5199 0.78921 -0.3269 -0.5199 0.78921 -0.3269 -0.5199 0.96467 0.127 0.23081 0.96467 0.127 0.23081 0.96467 0.127 0.23081 0.96467 0.127 0.23081 0.99109 0.13048 -0.026719 0.99109 0.13048 -0.026719 0.99109 0.13048 -0.026719 0.99109 0.13048 -0.026719 0.95106 0.12521 -0.28251 0.95106 0.12521 -0.28251 0.95106 0.12521 -0.28251 0.95106 0.12521 -0.28251 0.87335 -0.11498 0.47332 0.87335 -0.11498 0.47332 0.87335 -0.11498 0.47332 0.87335 -0.11498 0.47332 0.10983 0.26516 0.95793 0.10983 0.26516 0.95793 0.10983 0.26516 0.95793 0.10983 0.26516 0.95793 0.72261 0.095134 0.68467 0.72261 0.095134 0.68467 0.72261 0.095134 0.68467 0.72261 0.095134 0.68467 0.28456 0.037463 0.95793 0.28456 0.037463 0.95793 0.28456 0.037463 0.95793 0.28456 0.037463 0.95793 0.81384 0.3371 0.47332 0.81384 0.3371 0.47332 0.81384 0.3371 0.47332 0.81384 0.3371 0.47332 0.88624 0.36709 -0.28252 0.88624 0.36709 -0.28251 0.88624 0.36709 -0.28251 0.88624 0.36709 -0.28251 0.88624 -0.36709 -0.28251 0.88624 -0.36709 -0.28251 0.88624 -0.36709 -0.28251 0.88624 -0.36709 -0.28252 0.63831 0.2644 -0.72295 0.63831 0.2644 -0.72295 0.63831 0.2644 -0.72295 0.63831 0.2644 -0.72295 0.44314 0.18355 -0.87746 0.44314 0.18355 -0.87746 0.44314 0.18355 -0.87746 0.44314 0.18355 -0.87746 0.21673 0.089774 -0.97209 0.21673 0.089774 -0.97209 0.21673 0.089774 -0.97209 0.21673 0.089774 -0.97209 0.96467 -0.127 0.23081 0.96467 -0.127 0.23081 0.96467 -0.127 0.23081 0.96467 -0.127 0.23081 0.99109 -0.13048 -0.026719 0.99109 -0.13048 -0.026719 0.99109 -0.13048 -0.026719 0.99109 -0.13048 -0.026719 0.67337 -0.27892 0.68467 0.67337 -0.27892 0.68467 0.67337 -0.27892 0.68467 0.67337 -0.27892 0.68467 0.72261 -0.095134 0.68467 0.72261 -0.095134 0.68467 0.72261 -0.095134 0.68467 0.72261 -0.095134 0.68467 0.84692 -0.1115 -0.5199 0.84692 -0.1115 -0.5199 0.84692 -0.1115 -0.5199 0.84692 -0.1115 -0.5199 0.52192 -0.068712 0.85022 0.52192 -0.068712 0.85022 0.52192 -0.068712 0.85022 0.52192 -0.068712 0.85022 0.47554 0.062607 -0.87746 0.47554 0.062607 -0.87746 0.47554 0.062607 -0.87746 0.47554 0.062607 -0.87746 0.92355 0.38255 -0.026719 0.92355 0.38255 -0.026719 0.92355 0.38255 -0.026719 0.92355 0.38255 -0.026719 0.26516 0.10983 0.95793 0.26516 0.10983 0.95793 0.26516 0.10983 0.95793 0.26516 0.10983 0.95793 0.95106 -0.12521 -0.28251 0.95106 -0.12521 -0.28251 0.95106 -0.12521 -0.28251 0.95106 -0.12521 -0.28251 0.23258 -0.03062 -0.97209 0.23258 -0.03062 -0.97209 0.23258 -0.03062 -0.97209 0.23258 -0.03062 -0.97209 0.48635 0.20145 0.85022 0.48635 0.20145 0.85022 0.48635 0.20145 0.85022 0.48635 0.20145 0.85022 0.67337 0.27892 0.68467 0.67337 0.27892 0.68467 0.67337 0.27892 0.68467 0.67337 0.27892 0.68467 0.69886 0.53625 0.47332 0.69886 0.53625 0.47332 0.69886 0.53625 0.47332 0.69886 0.53625 0.47332 0.23258 0.03062 -0.97209 0.23258 0.03062 -0.97209 0.23258 0.03062 -0.97209 0.23258 0.03062 -0.97209 0.79307 0.60854 -0.026719 0.79307 0.60854 -0.026719 0.79307 0.60854 -0.026719 0.79307 0.60854 -0.026719 0.67771 0.52002 -0.5199 0.67771 0.52002 -0.5199 0.67771 0.52002 -0.5199 0.67771 0.52002 -0.5199 0.47554 -0.062607 -0.87746 0.47554 -0.062607 -0.87746 0.47554 -0.062607 -0.87746 0.47554 -0.062607 -0.87746 0.63831 -0.2644 -0.72295 0.63831 -0.2644 -0.72295 0.63831 -0.2644 -0.72295 0.63831 -0.2644 -0.72295 0.28456 -0.037463 0.95793 0.28456 -0.037463 0.95793 0.28456 -0.037463 0.95793 0.28456 -0.037463 0.95793 0.87335 0.11498 0.47332 0.87335 0.11498 0.47332 0.87335 0.11498 0.47332 0.87335 0.11498 0.47332 0.68499 0.090181 -0.72295 0.68499 0.090181 -0.72295 0.68499 0.090181 -0.72295 0.68499 0.090181 -0.72295 0.89893 0.37235 0.23081 0.89893 0.37235 0.23081 0.89893 0.37235 0.23081 0.89893 0.37235 0.23081 -0.13048 0.99109 -0.026719 -0.13048 0.99109 -0.026719 -0.13048 0.99109 -0.026719 -0.13048 0.99109 -0.026719 0.38255 0.92355 -0.026719 0.38255 0.92355 -0.026719 0.38255 0.92355 -0.026719 0.38255 0.92355 -0.026719 -0.037463 0.28456 0.95793 -0.037463 0.28456 0.95793 -0.037463 0.28456 0.95793 -0.037463 0.28456 0.95793 0.13048 0.99109 -0.026719 0.13048 0.99109 -0.026719 0.13048 0.99109 -0.026719 0.13048 0.99109 -0.026719 0.11498 0.87335 0.47332 0.11498 0.87335 0.47332 0.11498 0.87335 0.47332 0.11498 0.87335 0.47332 -0.095134 0.72261 0.68467 -0.095134 0.72261 0.68467 -0.095134 0.72261 0.68467 -0.095134 0.72261 0.68467 0.095134 0.72261 0.68467 0.095134 0.72261 0.68467 0.095134 0.72261 0.68467 0.095134 0.72261 0.68467 -0.3371 0.81384 0.47332 -0.3371 0.81384 0.47332 -0.3371 0.81384 0.47332 -0.3371 0.81384 0.47332 0.127 0.96467 0.23081 0.127 0.96467 0.23081 0.127 0.96467 0.23081 0.127 0.96467 0.23081 -0.37235 0.89893 0.23081 -0.37235 0.89893 0.23081 -0.37235 0.89893 0.23081 -0.37235 0.89893 0.23081 -0.38255 0.92355 -0.026719 -0.38255 0.92355 -0.026719 -0.38255 0.92355 -0.026719 -0.38255 0.92355 -0.026719 0.17472 0.2277 0.95793 0.17472 0.2277 0.95793 0.17472 0.2277 0.95793 0.17472 0.2277 0.95793 0.1115 0.84692 -0.5199 0.1115 0.84692 -0.5199 0.1115 0.84692 -0.5199 0.1115 0.84692 -0.5199 0.37235 0.89893 0.23081 0.37235 0.89893 0.23081 0.37235 0.89893 0.23081 0.37235 0.89893 0.23081 0.36709 0.88624 -0.28251 0.36709 0.88624 -0.28251 0.36709 0.88624 -0.28251 0.36709 0.88624 -0.28252 0.2644 0.63831 -0.72295 0.2644 0.63831 -0.72295 0.2644 0.63831 -0.72295 0.2644 0.63831 -0.72295 0.090181 0.68499 -0.72295 0.090181 0.68499 -0.72295 0.090181 0.68499 -0.72295 0.090181 0.68499 -0.72295 0.57823 0.4437 0.68467 0.57823 0.4437 0.68467 0.57823 0.4437 0.68467 0.57823 0.4437 0.68467 0.037463 0.28456 0.95793 0.037463 0.28456 0.95793 0.037463 0.28456 0.95793 0.037463 0.28456 0.95793 -0.11498 0.87335 0.47332 -0.11498 0.87335 0.47332 -0.11498 0.87335 0.47332 -0.11498 0.87335 0.47332 -0.12521 0.95106 -0.28251 -0.12521 0.95106 -0.28251 -0.12521 0.95106 -0.28251 -0.12521 0.95106 -0.28251 -0.062607 0.47554 -0.87746 -0.062607 0.47554 -0.87746 -0.062607 0.47554 -0.87746 -0.062607 0.47554 -0.87746 0.3269 0.78921 -0.5199 0.3269 0.78921 -0.5199 0.3269 0.78921 -0.5199 0.3269 0.78921 -0.5199 -0.068712 0.52192 0.85022 -0.068712 0.52192 0.85022 -0.068712 0.52192 0.85022 -0.068712 0.52192 0.85022 0.2277 0.17472 0.95793 0.2277 0.17472 0.95793 0.2277 0.17472 0.95793 0.2277 0.17472 0.95793 0.4437 0.57823 0.68467 0.4437 0.57823 0.68467 0.4437 0.57823 0.68467 0.4437 0.57823 0.68467 0.52002 0.67771 -0.5199 0.52002 0.67771 -0.5199 0.52002 0.67771 -0.5199 0.52002 0.67771 -0.5199 0.12521 0.95106 -0.28251 0.12521 0.95106 -0.28251 0.12521 0.95106 -0.28251 0.12521 0.95106 -0.28251 0.29199 0.38053 -0.87746 0.29199 0.38053 -0.87746 0.29199 0.38053 -0.87746 0.29199 0.38053 -0.87746 0.062607 0.47554 -0.87746 0.062607 0.47554 -0.87746 0.062607 0.47554 -0.87746 0.062607 0.47554 -0.87746 0.3371 0.81384 0.47332 0.3371 0.81384 0.47332 0.3371 0.81384 0.47332 0.3371 0.81384 0.47332 0.18355 0.44314 -0.87746 0.18355 0.44314 -0.87746 0.18355 0.44314 -0.87746 0.18355 0.44314 -0.87746 0.27892 0.67337 0.68467 0.27892 0.67337 0.68467 0.27892 0.67337 0.68467 0.27892 0.67337 0.68467 0.41764 0.32047 0.85022 0.41764 0.32047 0.85022 0.41764 0.32047 0.85022 0.41764 0.32047 0.85022 0.60854 0.79307 -0.026719 0.60854 0.79307 -0.026719 0.60854 0.79307 -0.026719 0.60854 0.79307 -0.026719 0.089774 0.21673 -0.97209 0.089774 0.21673 -0.97209 0.089774 0.21673 -0.97209 0.089774 0.21673 -0.97209 0.58396 0.76103 -0.28252 0.58396 0.76103 -0.28252 0.58396 0.76103 -0.28252 0.58396 0.76103 -0.28251 0.32047 0.41764 0.85022 0.32047 0.41764 0.85022 0.32047 0.41764 0.85022 0.32047 0.41764 0.85022 0.14281 0.18611 -0.97209 0.14281 0.18611 -0.97209 0.14281 0.18611 -0.97209 0.14281 0.18611 -0.97209 0.03062 0.23258 -0.97209 0.03062 0.23258 -0.97209 0.03062 0.23258 -0.97209 0.03062 0.23258 -0.97209 0.59232 0.77193 0.23081 0.59232 0.77193 0.23081 0.59232 0.77193 0.23081 0.59232 0.77193 0.23081 0.20145 0.48635 0.85022 0.20145 0.48635 0.85022 0.20145 0.48635 0.85022 0.20145 0.48635 0.85022 0.53625 0.69886 0.47332 0.53625 0.69886 0.47332 0.53625 0.69886 0.47332 0.53625 0.69886 0.47332 0.068712 0.52192 0.85022 0.068712 0.52192 0.85022 0.068712 0.52192 0.85022 0.068712 0.52192 0.85022 -0.127 0.96467 0.23081 -0.127 0.96467 0.23081 -0.127 0.96467 0.23081 -0.127 0.96467 0.23081 -0.1115 0.84692 -0.5199 -0.1115 0.84692 -0.5199 -0.1115 0.84692 -0.5199 -0.1115 0.84692 -0.5199 0.42059 0.54813 -0.72295 0.42059 0.54813 -0.72295 0.42059 0.54813 -0.72295 0.42059 0.54813 -0.72295 -0.090181 0.68499 -0.72295 -0.090181 0.68499 -0.72295 -0.090181 0.68499 -0.72295 -0.090181 0.68499 -0.72295 -0.03062 0.23258 -0.97209 -0.03062 0.23258 -0.97209 -0.03062 0.23258 -0.97209 -0.03062 0.23258 -0.97209 -0.38053 0.29199 -0.87746 -0.38053 0.29199 -0.87746 -0.38053 0.29199 -0.87746 -0.38053 0.29199 -0.87746 -0.29199 0.38053 -0.87746 -0.29199 0.38053 -0.87746 -0.29199 0.38053 -0.87746 -0.29199 0.38053 -0.87746 -0.18611 0.14281 -0.97209 -0.18611 0.14281 -0.97209 -0.18611 0.14281 -0.97209 -0.18611 0.14281 -0.97209 -0.27892 0.67337 0.68467 -0.27892 0.67337 0.68467 -0.27892 0.67337 0.68467 -0.27892 0.67337 0.68467 -0.36709 0.88624 -0.28252 -0.36709 0.88624 -0.28251 -0.36709 0.88624 -0.28251 -0.36709 0.88624 -0.28251 -0.60854 0.79307 -0.026719 -0.60854 0.79307 -0.026719 -0.60854 0.79307 -0.026719 -0.60854 0.79307 -0.026719 -0.2277 0.17472 0.95793 -0.2277 0.17472 0.95793 -0.2277 0.17472 0.95793 -0.2277 0.17472 0.95793 -0.10983 0.26516 0.95793 -0.10983 0.26516 0.95793 -0.10983 0.26516 0.95793 -0.10983 0.26516 0.95793 -0.32047 0.41764 0.85022 -0.32047 0.41764 0.85022 -0.32047 0.41764 0.85022 -0.32047 0.41764 0.85022 -0.77193 0.59232 0.23081 -0.77193 0.59232 0.23081 -0.77193 0.59232 0.23081 -0.77193 0.59232 0.23081 -0.41764 0.32047 0.85022 -0.41764 0.32047 0.85022 -0.41764 0.32047 0.85022 -0.41764 0.32047 0.85022 -0.57823 0.4437 0.68467 -0.57823 0.4437 0.68467 -0.57823 0.4437 0.68467 -0.57823 0.4437 0.68467 -0.81384 0.3371 0.47332 -0.81384 0.3371 0.47332 -0.81384 0.3371 0.47332 -0.81384 0.3371 0.47332 -0.18355 0.44314 -0.87746 -0.18355 0.44314 -0.87746 -0.18355 0.44314 -0.87746 -0.18355 0.44314 -0.87746 -0.59232 0.77193 0.23081 -0.59232 0.77193 0.23081 -0.59232 0.77193 0.23081 -0.59232 0.77193 0.23081 -0.4437 0.57823 0.68467 -0.4437 0.57823 0.68467 -0.4437 0.57823 0.68467 -0.4437 0.57823 0.68467 -0.2644 0.63831 -0.72295 -0.2644 0.63831 -0.72295 -0.2644 0.63831 -0.72295 -0.2644 0.63831 -0.72295 -0.58396 0.76103 -0.28251 -0.58396 0.76103 -0.28252 -0.58396 0.76103 -0.28252 -0.58396 0.76103 -0.28252 -0.69886 0.53625 0.47332 -0.69886 0.53625 0.47332 -0.69886 0.53625 0.47332 -0.69886 0.53625 0.47332 -0.42059 0.54813 -0.72295 -0.42059 0.54813 -0.72295 -0.42059 0.54813 -0.72295 -0.42059 0.54813 -0.72295 -0.3269 0.78921 -0.5199 -0.3269 0.78921 -0.5199 -0.3269 0.78921 -0.5199 -0.3269 0.78921 -0.5199 -0.79307 0.60854 -0.026719 -0.79307 0.60854 -0.026719 -0.79307 0.60854 -0.026719 -0.79307 0.60854 -0.026719 -0.17472 0.2277 0.95793 -0.17472 0.2277 0.95793 -0.17472 0.2277 0.95793 -0.17472 0.2277 0.95793 -0.52002 0.67771 -0.5199 -0.52002 0.67771 -0.5199 -0.52002 0.67771 -0.5199 -0.52002 0.67771 -0.5199 -0.20145 0.48635 0.85022 -0.20145 0.48635 0.85022 -0.20145 0.48635 0.85022 -0.20145 0.48635 0.85022 -0.54813 0.42059 -0.72295 -0.54813 0.42059 -0.72295 -0.54813 0.42059 -0.72295 -0.54813 0.42059 -0.72295 -0.67771 0.52002 -0.5199 -0.67771 0.52002 -0.5199 -0.67771 0.52002 -0.5199 -0.67771 0.52002 -0.5199 -0.53625 0.69886 0.47332 -0.53625 0.69886 0.47332 -0.53625 0.69886 0.47332 -0.53625 0.69886 0.47332 -0.089774 0.21673 -0.97209 -0.089774 0.21673 -0.97209 -0.089774 0.21673 -0.97209 -0.089774 0.21673 -0.97209 -0.14281 0.18611 -0.97209 -0.14281 0.18611 -0.97209 -0.14281 0.18611 -0.97209 -0.14281 0.18611 -0.97209 -0.76103 0.58396 -0.28252 -0.76103 0.58396 -0.28252 -0.76103 0.58396 -0.28252 -0.76103 0.58396 -0.28251 0 0 1 0 0 1 0 0 1 0 0 1 0 0 1 0 0 1 0 0 1 0 0 1 0 0 1 0 0 1 0 0 1 0 0 1 0 0 1 0 0 1 0 0 1 0 0 1 0 0 1 0 0 1 0 0 1 0 0 1 0 0 1 0 0 1 0 0 1 0 0 1 0 0 -1 0 0 -1 0 0 -1 0 0 -1 0 0 -1 0 0 -1 0 0 -1 0 0 -1 0 0 -1 0 0 -1 0 0 -1 0 0 -1 0 0 -1 0 0 -1 0 0 -1 0 0 -1 0 0 -1 0 0 -1 0 0 -1 0 0 -1 0 0 -1 0 0 -1 0 0 -1 0 0 -1</float_array><technique_common><accessor source="#g-n-a" count="1104" stride="3"><param name="X" type="float"/><param name="Y" type="float"/><param name="Z" type="float"/></accessor></technique_common></source>
<vertices id="g-v"><input semantic="POSITION" source="#g-p"/><input semantic="NORMAL" source="#g-n"/></vertices>
<triangles material="m0" count="572"><input semantic="VERTEX" source="#g-v" offset="0"/><p>2 1 0 1 2 3 6 5 4 5 6 7 10 9 8 9 10 11 14 13 12 13 14 15 18 17 16 17 18 19 22 21 20 21 22 23 26 25 24 25 26 27 30 29 28 29 30 31 34 33 32 33 34 35 38 37 36 37 38 39 42 41 40 41 42 43 46 45 44 45 46 47 50 49 48 49 50 51 54 53 52 53 54 55 58 57 56 57 58 59 62 61 60 61 62 63 66 65 64 65 66 67 70 69 68 69 70 71 74 73 72 73 74 75 78 77 76 77 78 79 82 81 80 81 82 83 86 85 84 85 86 87 90 89 88 89 90 91 94 93 92 93 94 95 98 97 96 97 98 99 102 101 100 101 102 103 106 105 104 105 106 107 110 109 108 109 110 111 114 113 112 113 114 115 118 117 116 117 118 119 122 121 120 121 122 123 126 125 124 125 126 127 130 129 128 129 130 131 134 133 132 133 134 135 138 137 136 137 138 139 142 141 140 141 142 143 146 145 144 145 146 147 150 149 148 149 150 151 154 153 152 153 154 155 158 157 156 157 158 159 162 161 160 161 162 163 166 165 164 165 166 167 170 169 168 169 170 171 174 173 172 173 174 175 178 177 176 177 178 179 182 181 180 181 182 183 186 185 184 185 186 187 190 189 188 189 190 191 194 193 192 193 194 195 198 197 196 197 198 199 202 201 200 201 202 203 206 205 204 205 206 207 210 209 208 209 210 211 214 213 212 213 214 215 218 217 216 217 218 219 222 221 220 221 222 223 226 225 224 225 226 227 230 229 228 229 230 231 234 233 232 233 234 235 238 237 236 237 238 239 242 241 240 241 242 243 246 245 244 245 246 247 250 249 248 249 250 251 254 253 252 253 254 255 258 257 256 257 258 259 262 261 260 261 262 263 266 265 264 265 266 267 270 269 268 269 270 271 274 273 272 273 274 275 278 277 276 277 278 279 282 281 280 281 282 283 286 285 284 285 286 287 290 289 288 289 290 291 294 293 292 293 294 295 298 297 296 297 298 299 302 301 300 301 302 303 306 305 304 305 306 307 310 309 308 309 310 311 314 313 312 313 314 315 318 317 316 317 318 319 322 321 320 321 322 323 326 325 324 325 326 327 330 329 328 329 330 331 334 333 332 333 334 335 338 337 336 337 338 339 342 341 340 341 342 343 346 345 344 345 346 347 350 349 348 349 350 351 354 353 352 353 354 355 358 357 356 357 358 359 362 361 360 361 362 363 366 365 364 365 366 367 370 369 368 369 370 371 374 373 372 373 374 375 378 377 376 377 378 379 382 381 380 381 382 383 386 385 384 385 386 387 390 389 388 389 390 391 394 393 392 393 394 395 398 397 396 397 398 399 402 401 400 401 402 403 406 405 404 405 406 407 410 409 408 409 410 411 414 413 412 413 414 415 418 417 416 417 418 419 422 421 420 421 422 423 426 425 424 425 426 427 430 429 428 429 430 431 434 433 432 433 434 435 438 437 436 437 438 439 442 441 440 441 442 443 446 445 444 445 446 447 450 449 448 449 450 451 454 453 452 453 454 455 458 457 456 457 458 459 462 461 460 461 462 463 466 465 464 465 466 467 470 469 468 469 470 471 474 473 472 473 474 475 478 477 476 477 478 479 482 481 480 481 482 483 486 485 484 485 486 487 490 489 488 489 490 491 494 493 492 493 494 495 498 497 496 497 498 499 502 501 500 501 502 503 506 505 504 505 506 507 510 509 508 509 510 511 514 513 512 513 514 515 518 517 516 517 518 519 522 521 520 521 522 523 526 525 524 525 526 527 530 529 528 529 530 531 534 533 532 533 534 535 538 537 536 537 538 539 542 541 540 541 542 543 546 545 544 545 546 547 550 549 548 549 550 551 554 553 552 553 554 555 558 557 556 557 558 559 562 561 560 561 562 563 566 565 564 565 566 567 570 569 568 569 570 571 574 573 572 573 574 575 578 577 576 577 578 579 582 581 580 581 582 583 586 585 584 585 586 587 590 589 588 589 590 591 594 593 592 593 594 595 598 597 596 597 598 599 602 601 600 601 602 603 606 605 604 605 606 607 610 609 608 609 610 611 614 613 612 613 614 615 618 617 616 617 618 619 622 621 620 621 622 623 626 625 624 625 626 627 630 629 628 629 630 631 634 633 632 633 634 635 638 637 636 637 638 639 642 641 640 641 642 643 646 645 644 645 646 647 650 649 648 649 650 651 654 653 652 653 654 655 658 657 656 657 658 659 662 661 660 661 662 663 666 665 664 665 666 667 670 669 668 669 670 671 674 673 672 673 674 675 678 677 676 677 678 679 682 681 680 681 682 683 686 685 684 685 686 687 690 689 688 689 690 691 694 693 692 693 694 695 698 697 696 697 698 699 702 701 700 701 702 703 706 705 704 705 706 707 710 709 708 709 710 711 714 713 712 713 714 715 718 717 716 717 718 719 722 721 720 721 722 723 726 725 724 725 726 727 730 729 728 729 730 731 734 733 732 733 734 735 738 737 736 737 738 739 742 741 740 741 742 743 746 745 744 745 746 747 750 749 748 749 750 751 754 753 752 753 754 755 758 757 756 757 758 759 762 761 760 761 762 763 766 765 764 765 766 767 770 769 768 769 770 771 774 773 772 773 774 775 778 777 776 777 778 779 782 781 780 781 782 783 786 785 784 785 786 787 790 789 788 789 790 791 794 793 792 793 794 795 798 797 796 797 798 799 802 801 800 801 802 803 806 805 804 805 806 807 810 809 808 809 810 811 814 813 812 813 814 815 818 817 816 817 818 819 822 821 820 821 822 823 826 825 824 825 826 827 830 829 828 829 830 831 834 833 832 833 834 835 838 837 836 837 838 839 842 841 840 841 842 843 846 845 844 845 846 847 850 849 848 849 850 851 854 853 852 853 854 855 858 857 856 857 858 859 862 861 860 861 862 863 866 865 864 865 866 867 870 869 868 869 870 871 874 873 872 873 874 875 878 877 876 877 878 879 882 881 880 881 882 883 886 885 884 885 886 887 890 889 888 889 890 891 894 893 892 893 894 895 898 897 896 897 898 899 902 901 900 901 902 903 906 905 904 905 906 907 910 909 908 909 910 911 914 913 912 913 914 915 918 917 916 917 918 919 922 921 920 921 922 923 926 925 924 925 926 927 930 929 928 929 930 931 934 933 932 933 934 935 938 937 936 937 938 939 942 941 940 941 942 943 946 945 944 945 946 947 950 949 948 949 950 951 954 953 952 953 954 955 958 957 956 957 958 959 962 961 960 961 962 963 966 965 964 965 966 967 970 969 968 969 970 971 974 973 972 973 974 975 978 977 976 977 978 979 982 981 980 981 982 983 986 985 984 985 986 987 990 989 988 989 990 991 994 993 992 993 994 995 998 997 996 997 998 999 1002 1001 1000 1001 1002 1003 1006 1005 1004 1005 1006 1007 1010 1009 1008 1009 1010 1011 1014 1013 1012 1013 1014 1015 1018 1017 1016 1017 1018 1019 1022 1021 1020 1021 1022 1023 1026 1025 1024 1025 1026 1027 1030 1029 1028 1029 1030 1031 1034 1033 1032 1033 1034 1035 1038 1037 1036 1037 1038 1039 1042 1041 1040 1041 1042 1043 1046 1045 1044 1045 1046 1047 1050 1049 1048 1049 1050 1051 1054 1053 1052 1053 1054 1055 1058 1057 1056 1057 1058 1059 1057 1059 1060 1060 1059 1061 1060 1061 1062 1062 1061 1063 1062 1063 1064 1064 1063 1065 1064 1065 1066 1066 1065 1067 1066 1067 1068 1068 1067 1069 1068 1069 1070 1070 1069 1071 1070 1071 1072 1072 1071 1073 1072 1073 1074 1074 1073 1075 1074 1075 1076 1076 1075 1077 1076 1077 1078 1078 1077 1079 1082 1081 1080 1081 1082 1083 1081 1083 1084 1084 1083 1085 1084 1085 1086 1086 1085 1087 1086 1087 1088 1088 1087 1089 1088 1089 1090 1090 1089 1091 1090 1091 1092 1092 1091 1093 1092 1093 1094 1094 1093 1095 1094 1095 1096 1096 1095 1097 1096 1097 1098 1098 1097 1099 1098 1099 1100 1100 1099 1101 1100 1101 1102 1102 1101 1103</p></triangles>
</mesh></geometry></library_geometries><library_visual_scenes><visual_scene id="Scene"><node id="n" name="ball"><instance_geometry url="#g"><bind_material><technique_common>
<instance_material symbol="m0" target="#m0"/>
</technique_common></bind_material></instance_geometry></node></visual_scene></library_visual_scenes><scene><instance_visual_scene url="#Scene"/></scene></COLLADA>
