<?xml version="1.0" encoding="utf-8"?>
<COLLADA xmlns="http://www.collada.org/2005/11/COLLADASchema" version="1.4.1">
<asset><contributor><authoring_tool>VATs starter props (see CREDITS.md)</authoring_tool></contributor><unit name="meter" meter="1"/><up_axis>Z_UP</up_axis></asset>
<library_effects>
<effect id="m0-fx"><profile_COMMON><technique sid="common"><lambert><diffuse><color>0.800 0.760 0.680 1</color></diffuse></lambert></technique></profile_COMMON></effect>
<effect id="m1-fx"><profile_COMMON><technique sid="common"><lambert><diffuse><color>0.620 0.470 0.340 1</color></diffuse></lambert></technique></profile_COMMON></effect>
<effect id="m2-fx"><profile_COMMON><technique sid="common"><lambert><diffuse><color>0.360 0.390 0.430 1</color></diffuse></lambert></technique></profile_COMMON></effect>
<effect id="m3-fx"><profile_COMMON><technique sid="common"><lambert><diffuse><color>0.420 0.490 0.580 1</color></diffuse></lambert></technique></profile_COMMON></effect>
</library_effects><library_materials>
<material id="m0" name="m0"><instance_effect url="#m0-fx"/></material>
<material id="m1" name="m1"><instance_effect url="#m1-fx"/></material>
<material id="m2" name="m2"><instance_effect url="#m2-fx"/></material>
<material id="m3" name="m3"><instance_effect url="#m3-fx"/></material>
</library_materials><library_geometries><geometry id="g" name="bed"><mesh>
<source id="g-p"><float_array id="g-p-a" count="1383">1.0033 0.84 0.23333 1.0033 0.84 0.42 -0.86333 0.84 0.23333 -0.86333 0.84 0.42 1.0033 -0.84 0.42 1.0033 -0.84 0.23333 -0.86333 -0.84 0.42 -0.86333 -0.84 0.23333 1.0033 -0.84 0.42 -0.86333 -0.84 0.42 1.0033 0.84 0.42 -0.86333 0.84 0.42 1.0033 -0.84 0.23333 1.0033 -0.84 0.42 1.0033 0.84 0.23333 1.0033 0.84 0.42 -0.86333 -0.88667 0.23333 1.0033 -0.84 0.23333 1.05 -0.88667 0.23333 1.05 0.88667 0.23333 1.0033 0.84 0.23333 -0.86333 0.84 0.23333 -0.86333 0.88667 0.23333 -0.86333 -0.84 0.23333 -0.86333 0.84 0.23333 -0.86333 0.84 0.42 -0.86333 0.88667 0.23333 -0.86333 0.88667 0.7 -0.86333 -0.88667 0.7 -0.86333 -0.84 0.42 -0.86333 -0.84 0.23333 -0.86333 -0.88667 0.23333 1.05 0.88667 0.093333 1.05 0.88667 0.23333 -1.05 0.88667 0.093333 -0.86333 0.88667 0.23333 -0.86333 0.88667 0.7 -1.05 0.88667 0.7 1.05 -0.88667 0.093333 1.05 -0.88667 0.23333 1.05 -0.84933 0.093333 1.05 -0.65333 0.093333 1.05 0.65333 0.093333 1.05 0.84933 0.093333 1.05 0.88667 0.093333 1.05 0.88667 0.23333 1.05 -0.88667 0.093333 1.05 -0.84933 0.093333 -1.05 -0.88667 0.093333 0.91 -0.84933 0.093333 -1.05 -0.84933 0.093333 -0.86333 -0.84933 0.093333 0.91 -0.65333 0.093333 -0.86333 -0.65333 0.093333 1.05 0.65333 0.093333 1.05 -0.65333 0.093333 -1.05 -0.65333 0.093333 0.91 0.65333 0.093333 -1.05 0.65333 0.093333 -0.86333 0.65333 0.093333 0.91 0.84933 0.093333 -0.86333 0.84933 0.093333 1.05 0.88667 0.093333 1.05 0.84933 0.093333 -1.05 0.84933 0.093333 -1.05 0.88667 0.093333 -0.86333 -0.88667 0.7 -0.86333 -0.88667 0.23333 -1.05 -0.88667 0.7 -1.05 -0.88667 0.093333 1.05 -0.88667 0.093333 1.05 -0.88667 0.23333 -0.86333 -0.88667 0.7 -1.05 -0.88667 0.7 -0.86333 0.88667 0.7 -1.05 0.88667 0.7 -1.05 -0.88667 0.093333 -1.05 -0.84933 0.093333 -1.05 -0.88667 0.7 -1.05 -0.65333 0.093333 -1.05 0.65333 0.093333 -1.05 0.84933 0.093333 -1.05 0.88667 0.093333 -1.05 0.88667 0.7 1.05 -0.84933 0.093333 1.05 -0.65333 0.093333 1.05 0.65333 0.093333 1.05 0.84933 0.093333 -1.05 -0.84933 0.093333 -1.05 -0.65333 0.093333 -1.05 0.65333 0.093333 -1.05 0.84933 0.093333 1.05 -0.84933 1.6845e-16 1.05 -0.65333 1.3813e-14 0.91 -0.84933 1.6845e-16 0.91 -0.65333 1.3813e-14 1.05 -0.65333 1.3813e-14 1.05 -0.65333 0.093333 0.91 -0.65333 1.3813e-14 0.91 -0.65333 0.093333 1.05 0.65333 0.093333 1.05 0.65333 1.0612e-13 0.91 0.65333 0.093333 0.91 0.65333 1.0612e-13 -0.86333 -0.65333 1.3644e-14 -0.86333 -0.65333 0.093333 -1.05 -0.65333 1.3644e-14 -1.05 -0.65333 0.093333 -0.86333 -0.84933 0.093333 -0.86333 -0.84933 0 -1.05 -0.84933 0.093333 -1.05 -0.84933 0 1.05 -0.84933 1.6845e-16 1.05 -0.65333 1.3813e-14 1.05 0.65333 1.0612e-13 1.05 0.84933 1.1825e-13 0.91 0.65333 1.0612e-13 0.91 0.84933 1.1825e-13 -1.05 -0.84933 0 -1.05 -0.65333 1.3644e-14 -0.86333 0.65333 0.093333 -0.86333 0.65333 1.0612e-13 -1.05 0.65333 0.093333 -1.05 0.65333 1.0612e-13 0.91 0.65333 1.0612e-13 0.91 0.84933 1.1825e-13 0.91 0.65333 0.093333 0.91 0.84933 0.093333 -0.86333 0.65333 1.0612e-13 -0.86333 0.65333 0.093333 -0.86333 0.84933 1.1808e-13 -0.86333 0.84933 0.093333 1.05 0.84933 1.1825e-13 1.05 0.84933 0.093333 0.91 0.84933 1.1825e-13 0.91 0.84933 0.093333 1.05 0.65333 1.0612e-13 1.05 0.84933 1.1825e-13 -0.86333 -0.84933 0 -0.86333 -0.65333 1.3644e-14 -1.05 -0.84933 0 -1.05 -0.65333 1.3644e-14 -1.05 0.65333 1.0612e-13 -1.05 0.84933 1.1808e-13 1.05 -0.84933 0.093333 1.05 -0.84933 1.6845e-16 0.91 -0.84933 0.093333 0.91 -0.84933 1.6845e-16 -0.86333 -0.84933 0 -0.86333 -0.84933 0.093333 -0.86333 -0.65333 1.3644e-14 -0.86333 -0.65333 0.093333 -0.86333 0.65333 1.0612e-13 -0.86333 0.84933 1.1808e-13 -1.05 0.65333 1.0612e-13 -1.05 0.84933 1.1808e-13 -0.86333 0.84933 1.1808e-13 -0.86333 0.84933 0.093333 -1.05 0.84933 1.1808e-13 -1.05 0.84933 0.093333 0.91 -0.84933 1.6845e-16 0.91 -0.65333 1.3813e-14 0.91 -0.84933 0.093333 0.91 -0.65333 0.093333 -0.8105 0.59883 0.5287 -0.53642 0.59883 0.49408 -0.8105 0.12917 0.5287 -0.53642 0.12917 0.49408 -0.81986 0.59883 0.45463 -0.81986 0.12917 0.45463 -0.54577 0.59883 0.42 -0.54577 0.12917 0.42 -0.86333 0.59883 0.49775 -0.86333 0.12917 0.49775 -0.81986 0.59883 0.45463 -0.81986 0.12917 0.45463 -0.86333 0.59883 0.49775 -0.8105 0.59883 0.5287 -0.86333 0.12917 0.49775 -0.8105 0.12917 0.5287 -0.81518 0.046667 0.49166 -0.54109 0.046667 0.45704 -0.81986 0.12917 0.45463 -0.54577 0.12917 0.42 -0.53642 0.59883 0.49408 -0.49294 0.59883 0.45096 -0.53642 0.12917 0.49408 -0.49294 0.12917 0.45096 -0.8105 0.59883 0.5287 -0.81518 0.68133 0.49166 -0.53642 0.59883 0.49408 -0.54109 0.68133 0.45704 -0.81986 0.59883 0.45463 -0.54577 0.59883 0.42 -0.81518 0.68133 0.49166 -0.54109 0.68133 0.45704 -0.81518 0.046667 0.49166 -0.8105 0.12917 0.5287 -0.54109 0.046667 0.45704 -0.53642 0.12917 0.49408 -0.54577 0.59883 0.42 -0.54577 0.12917 0.42 -0.49294 0.59883 0.45096 -0.49294 0.12917 0.45096 -0.81518 0.046667 0.49166 -0.81986 0.12917 0.45463 -0.8105 0.12917 0.5287 -0.81986 0.59883 0.45463 -0.8105 0.59883 0.5287 -0.81518 0.68133 0.49166 -0.81986 0.59883 0.45463 -0.54577 0.59883 0.42 -0.86333 0.59883 0.49775 -0.49294 0.59883 0.45096 -0.8105 0.59883 0.5287 -0.53642 0.59883 0.49408 -0.54109 0.046667 0.45704 -0.53642 0.12917 0.49408 -0.54577 0.12917 0.42 -0.54577 0.59883 0.42 -0.53642 0.59883 0.49408 -0.54109 0.68133 0.45704 -0.81986 0.12917 0.45463 -0.86333 0.12917 0.49775 -0.54577 0.12917 0.42 -0.49294 0.12917 0.45096 -0.8105 0.12917 0.5287 -0.53642 0.12917 0.49408 -0.86333 0.12917 0.49775 -0.81518 0.046667 0.49166 -0.81986 0.12917 0.45463 -0.81518 0.046667 0.49166 -0.86333 0.12917 0.49775 -0.8105 0.12917 0.5287 -0.8105 0.59883 0.5287 -0.86333 0.59883 0.49775 -0.81518 0.68133 0.49166 -0.86333 0.59883 0.49775 -0.81986 0.59883 0.45463 -0.81518 0.68133 0.49166 -0.53642 0.59883 0.49408 -0.54109 0.68133 0.45704 -0.49294 0.59883 0.45096 -0.54109 0.68133 0.45704 -0.54577 0.59883 0.42 -0.49294 0.59883 0.45096 -0.86333 0.59883 0.49775 -0.86333 0.12917 0.49775 -0.81518 0.68133 0.49166 -0.81518 0.046667 0.49166 -0.54109 0.046667 0.45704 -0.54109 0.68133 0.45704 -0.49294 0.59883 0.45096 -0.49294 0.12917 0.45096 -0.54109 0.046667 0.45704 -0.53642 0.12917 0.49408 -0.49294 0.12917 0.45096 -0.54577 0.12917 0.42 -0.54109 0.046667 0.45704 -0.49294 0.12917 0.45096 -0.8105 -0.12917 0.5287 -0.53642 -0.12917 0.49408 -0.8105 -0.59883 0.5287 -0.53642 -0.59883 0.49408 -0.81986 -0.12917 0.45463 -0.81986 -0.59883 0.45463 -0.54577 -0.12917 0.42 -0.54577 -0.59883 0.42 -0.86333 -0.12917 0.49775 -0.86333 -0.59883 0.49775 -0.81986 -0.12917 0.45463 -0.81986 -0.59883 0.45463 -0.86333 -0.12917 0.49775 -0.8105 -0.12917 0.5287 -0.86333 -0.59883 0.49775 -0.8105 -0.59883 0.5287 -0.81518 -0.68133 0.49166 -0.54109 -0.68133 0.45704 -0.81986 -0.59883 0.45463 -0.54577 -0.59883 0.42 -0.53642 -0.12917 0.49408 -0.49294 -0.12917 0.45096 -0.53642 -0.59883 0.49408 -0.49294 -0.59883 0.45096 -0.8105 -0.12917 0.5287 -0.81518 -0.046667 0.49166 -0.53642 -0.12917 0.49408 -0.54109 -0.046667 0.45704 -0.81986 -0.12917 0.45463 -0.54577 -0.12917 0.42 -0.81518 -0.046667 0.49166 -0.54109 -0.046667 0.45704 -0.81518 -0.68133 0.49166 -0.8105 -0.59883 0.5287 -0.54109 -0.68133 0.45704 -0.53642 -0.59883 0.49408 -0.54577 -0.12917 0.42 -0.54577 -0.59883 0.42 -0.49294 -0.12917 0.45096 -0.49294 -0.59883 0.45096 -0.81518 -0.68133 0.49166 -0.81986 -0.59883 0.45463 -0.8105 -0.59883 0.5287 -0.81986 -0.12917 0.45463 -0.8105 -0.12917 0.5287 -0.81518 -0.046667 0.49166 -0.81986 -0.12917 0.45463 -0.54577 -0.12917 0.42 -0.86333 -0.12917 0.49775 -0.49294 -0.12917 0.45096 -0.8105 -0.12917 0.5287 -0.53642 -0.12917 0.49408 -0.54109 -0.68133 0.45704 -0.53642 -0.59883 0.49408 -0.54577 -0.59883 0.42 -0.54577 -0.12917 0.42 -0.53642 -0.12917 0.49408 -0.54109 -0.046667 0.45704 -0.81986 -0.59883 0.45463 -0.86333 -0.59883 0.49775 -0.54577 -0.59883 0.42 -0.49294 -0.59883 0.45096 -0.8105 -0.59883 0.5287 -0.53642 -0.59883 0.49408 -0.86333 -0.59883 0.49775 -0.81518 -0.68133 0.49166 -0.81986 -0.59883 0.45463 -0.81518 -0.68133 0.49166 -0.86333 -0.59883 0.49775 -0.8105 -0.59883 0.5287 -0.8105 -0.12917 0.5287 -0.86333 -0.12917 0.49775 -0.81518 -0.046667 0.49166 -0.86333 -0.12917 0.49775 -0.81986 -0.12917 0.45463 -0.81518 -0.046667 0.49166 -0.53642 -0.12917 0.49408 -0.54109 -0.046667 0.45704 -0.49294 -0.12917 0.45096 -0.54109 -0.046667 0.45704 -0.54577 -0.12917 0.42 -0.49294 -0.12917 0.45096 -0.86333 -0.12917 0.49775 -0.86333 -0.59883 0.49775 -0.81518 -0.046667 0.49166 -0.81518 -0.68133 0.49166 -0.54109 -0.68133 0.45704 -0.54109 -0.046667 0.45704 -0.49294 -0.12917 0.45096 -0.49294 -0.59883 0.45096 -0.54109 -0.68133 0.45704 -0.53642 -0.59883 0.49408 -0.49294 -0.59883 0.45096 -0.54577 -0.59883 0.42 -0.54109 -0.68133 0.45704 -0.49294 -0.59883 0.45096 -0.48361 0.84 0.42 -0.48361 -0.84 0.42 1.0033 0.84 0.42 1.0033 -0.84 0.42 1.0314 -0.8736 0.42 1.0033 -0.84 0.46667 1.0314 0.8736 0.42 1.0033 0.84 0.46667 -0.25545 0.8736 0.28 -0.25545 0.84 0.28 1.0314 0.8736 0.28 1.0033 0.84 0.28 1.0033 -0.84 0.28 1.0314 -0.8736 0.28 -0.25545 -0.8736 0.28 -0.25545 -0.84 0.28 -0.48361 -0.84 0.28 -0.25545 -0.84 0.28 -0.48361 -0.84 0.42 1.0033 -0.84 0.42 1.0033 -0.84 0.28 1.0033 -0.84 0.42 1.0033 -0.84 0.28 1.0033 0.84 0.42 1.0033 0.84 0.28 1.0314 -0.8736 0.28 1.0314 -0.8736 0.42 1.0314 0.8736 0.28 1.0314 0.8736 0.42 1.0033 0.84 0.28 -0.25545 0.84 0.28 1.0033 0.84 0.42 -0.48361 0.84 0.28 -0.48361 0.84 0.42 1.0314 -0.8736 0.28 -0.25545 -0.8736 0.28 1.0314 -0.8736 0.42 -0.25545 -0.8736 0.42 1.0314 -0.8736 0.42 -0.25545 -0.8736 0.42 1.0033 -0.84 0.46667 -0.25545 -0.84 0.46667 -0.25545 0.84 0.46667 1.0033 0.84 0.46667 -0.25545 -0.84 0.46667 1.0033 -0.84 0.46667 1.0314 0.8736 0.42 1.0033 0.84 0.46667 -0.25545 0.8736 0.42 -0.25545 0.84 0.46667 1.0314 0.8736 0.28 1.0314 0.8736 0.42 -0.25545 0.8736 0.28 -0.25545 0.8736 0.42 -0.25545 0.8736 0.28 -0.25545 0.84 0.28 -0.25545 -0.84 0.28 -0.48361 -0.84933 0.48533 -0.48361 -0.84 0.42 -0.48361 0.84933 0.48533 -0.48361 0.84 0.42 -0.48361 0.84 0.28 -0.48361 0.89227 0.28 -0.48361 0.89227 0.42933 -0.48361 -0.84 0.28 -0.48361 -0.89227 0.28 -0.48361 -0.89227 0.42933 -0.48361 0.89227 0.28 -0.25545 0.89227 0.28 -0.48361 0.84 0.28 -0.48361 -0.84933 0.48533 -0.48361 0.84933 0.48533 -0.25545 -0.84933 0.48533 -0.25545 0.84933 0.48533 -0.25545 0.89227 0.42933 -0.25545 0.84933 0.48533 -0.48361 0.89227 0.42933 -0.48361 0.84933 0.48533 -0.25545 0.89227 0.28 -0.25545 0.89227 0.42933 -0.48361 0.89227 0.28 -0.48361 0.89227 0.42933 -0.25545 -0.89227 0.28 -0.48361 -0.89227 0.28 -0.25545 -0.89227 0.42933 -0.48361 -0.89227 0.42933 -0.25545 -0.89227 0.42933 -0.48361 -0.89227 0.42933 -0.25545 -0.84933 0.48533 -0.48361 -0.84933 0.48533 -0.25545 -0.89227 0.28 -0.25545 -0.89227 0.42933 -0.25545 -0.8736 0.28 -0.25545 -0.8736 0.42 -0.25545 -0.84933 0.48533 -0.25545 -0.84 0.46667 -0.25545 0.84933 0.48533 -0.25545 0.84 0.46667 -0.25545 0.8736 0.42 -0.25545 0.89227 0.42933 -0.25545 0.8736 0.28 -0.25545 0.89227 0.28 -0.48361 -0.84 0.28 -0.48361 -0.89227 0.28 -0.25545 -0.89227 0.28</float_array><technique_common><accessor source="#g-p-a" count="461" stride="3"><param name="X" type="float"/><param name="Y" type="float"/><param name="Z" type="float"/></accessor></technique_common></source>
<source id="g-n"><float_array id="g-n-a" count="1383">0 1 0 0 1 0 0 1 0 0 1 0 0 -1 0 0 -1 0 0 -1 0 0 -1 0 0 0 1 0 0 1 0 0 1 0 0 1 1 0 0 1 0 0 1 0 0 1 0 0 0 0 1 0 0 1 0 0 1 0 0 1 0 0 1 0 0 1 0 0 1 0 0 1 1 0 0 1 0 0 1 0 0 1 0 0 1 0 0 1 0 0 1 0 0 1 0 0 0 1 0 0 1 0 0 1 0 0 1 0 0 1 0 0 1 0 1 5.4143e-14 0 1 -2.5978e-14 -2.0713e-14 1 -1.4676e-15 -1.483e-14 1 -4.296e-14 -2.8285e-14 1 -3.7973e-14 2.9881e-14 1 -5.3725e-14 -1.6567e-13 1 -4.1332e-14 -8.5693e-15 1 -4.0655e-14 0 0 0 -1 0 0 -1 0 0 -1 0 0 -1 0 0 -1 0 0 -1 0 0 -1 0 0 -1 0 0 -1 0 0 -1 0 0 -1 0 0 -1 0 0 -1 0 0 -1 0 0 -1 0 0 -1 0 0 -1 0 0 -1 0 0 -1 0 0 -1 0 -1 0 0 -1 0 0 -1 0 0 -1 0 0 -1 0 0 -1 0 0 0 1 0 0 1 0 0 1 0 0 1 -1 0 0 -1 0 0 -1 0 0 -1 0 0 -1 0 0 -1 0 0 -1 0 0 -1 0 0 1 -4.1252e-14 0 1 -4.1252e-14 0 1 -3.7814e-14 0 1 -3.7814e-14 0 -1 0 0 -1 0 0 -1 0 0 -1 0 0 0 6.9613e-14 -1 0 6.9613e-14 -1 0 6.9613e-14 -1 0 6.9613e-14 -1 0 1 0 0 1 0 0 1 0 0 1 0 0 -1 0 0 -1 0 0 -1 0 0 -1 0 0 1 0 0 1 0 0 1 0 0 1 0 0 -1 0 0 -1 0 0 -1 0 0 -1 0 1 -4.1252e-14 0 1 -4.1252e-14 0 0 6.1878e-14 -1 0 6.1878e-14 -1 0 6.1878e-14 -1 0 6.1878e-14 -1 -1 0 0 -1 0 0 0 -1 0 0 -1 0 0 -1 0 0 -1 0 -1 0 0 -1 0 0 -1 0 0 -1 0 0 1 0 0 1 0 0 1 0 0 1 0 0 0 1 0 0 1 0 0 1 0 0 1 0 1 -3.7814e-14 0 1 -3.7814e-14 0 0 6.9613e-14 -1 0 6.9613e-14 -1 0 6.9613e-14 -1 0 6.9613e-14 -1 -1 0 0 -1 0 0 0 -1 0 0 -1 0 0 -1 0 0 -1 0 1 0 0 1 0 0 1 0 0 1 0 0 0 6.1019e-14 -1 0 6.1019e-14 -1 0 6.1019e-14 -1 0 6.1019e-14 -1 0 1 0 0 1 0 0 1 0 0 1 0 -1 0 0 -1 0 0 -1 0 0 -1 0 0 0.12533 -3.9072e-09 0.99211 0.12533 -3.9072e-09 0.99211 0.12533 -3.9072e-09 0.99211 0.12533 -3.9072e-09 0.99211 -0.12533 3.9072e-09 -0.99211 -0.12533 3.9072e-09 -0.99211 -0.12533 3.9072e-09 -0.99211 -0.12533 3.9072e-09 -0.99211 -0.70425 4.0962e-08 -0.70996 -0.70425 4.0962e-08 -0.70996 -0.70425 4.0962e-08 -0.70996 -0.70425 4.0962e-08 -0.70996 -0.50556 3.4768e-08 0.86279 -0.50556 3.4768e-08 0.86279 -0.50556 3.4768e-08 0.86279 -0.50556 3.4768e-08 0.86279 -0.11419 -0.41225 -0.90389 -0.11419 -0.41225 -0.90389 -0.11419 -0.41225 -0.90389 -0.11419 -0.41225 -0.90389 0.70425 -4.0962e-08 0.70996 0.70425 -4.0962e-08 0.70996 0.70425 -4.0962e-08 0.70996 0.70425 -4.0962e-08 0.70996 0.11419 0.41225 0.90389 0.11419 0.41225 0.90389 0.11419 0.41225 0.90389 0.11419 0.41225 0.90389 -0.11419 0.41225 -0.90389 -0.11419 0.41225 -0.90389 -0.11419 0.41225 -0.90389 -0.11419 0.41225 -0.90389 0.11419 -0.41225 0.90389 0.11419 -0.41225 0.90389 0.11419 -0.41225 0.90389 0.11419 -0.41225 0.90389 0.50556 -3.4768e-08 -0.86279 0.50556 -3.4768e-08 -0.86279 0.50556 -3.4768e-08 -0.86279 0.50556 -3.4768e-08 -0.86279 -0.99211 6.2103e-08 0.12533 -0.99211 6.2103e-08 0.12533 -0.99211 6.2103e-08 0.12533 -0.99211 6.2103e-08 0.12533 -0.99211 6.2103e-08 0.12533 -0.99211 6.2103e-08 0.12533 6.2103e-08 1 -3.9072e-09 6.2103e-08 1 -3.9072e-09 6.2103e-08 1 -3.9072e-09 6.2103e-08 1 -3.9072e-09 6.2103e-08 1 -3.9072e-09 6.2103e-08 1 -3.9072e-09 0.99211 -6.2103e-08 -0.12533 0.99211 -6.2103e-08 -0.12533 0.99211 -6.2103e-08 -0.12533 0.99211 -6.2103e-08 -0.12533 0.99211 -6.2103e-08 -0.12533 0.99211 -6.2103e-08 -0.12533 -6.2103e-08 -1 3.9072e-09 -6.2103e-08 -1 3.9072e-09 -6.2103e-08 -1 3.9072e-09 -6.2103e-08 -1 3.9072e-09 -6.2103e-08 -1 3.9072e-09 -6.2103e-08 -1 3.9072e-09 -0.6629 -0.3376 -0.66828 -0.6629 -0.3376 -0.66828 -0.6629 -0.3376 -0.66828 -0.47588 -0.3376 0.81214 -0.47588 -0.3376 0.81214 -0.47588 -0.3376 0.81214 -0.47588 0.3376 0.81214 -0.47588 0.3376 0.81214 -0.47588 0.3376 0.81214 -0.6629 0.3376 -0.66828 -0.6629 0.3376 -0.66828 -0.6629 0.3376 -0.66828 0.6629 0.3376 0.66828 0.6629 0.3376 0.66828 0.6629 0.3376 0.66828 0.47588 0.3376 -0.81214 0.47588 0.3376 -0.81214 0.47588 0.3376 -0.81214 -0.12533 3.9072e-09 -0.99211 -0.12533 3.9072e-09 -0.99211 -0.12533 3.9072e-09 -0.99211 -0.12533 3.9072e-09 -0.99211 -0.12533 3.9072e-09 -0.99211 -0.12533 3.9072e-09 -0.99211 -0.12533 3.9072e-09 -0.99211 -0.12533 3.9072e-09 -0.99211 0.6629 -0.3376 0.66828 0.6629 -0.3376 0.66828 0.6629 -0.3376 0.66828 0.47588 -0.3376 -0.81214 0.47588 -0.3376 -0.81214 0.47588 -0.3376 -0.81214 0.12533 -3.9072e-09 0.99211 0.12533 -3.9072e-09 0.99211 0.12533 -3.9072e-09 0.99211 0.12533 -3.9072e-09 0.99211 -0.12533 3.9072e-09 -0.99211 -0.12533 3.9072e-09 -0.99211 -0.12533 3.9072e-09 -0.99211 -0.12533 3.9072e-09 -0.99211 -0.70425 4.0962e-08 -0.70996 -0.70425 4.0962e-08 -0.70996 -0.70425 4.0962e-08 -0.70996 -0.70425 4.0962e-08 -0.70996 -0.50556 3.4768e-08 0.86279 -0.50556 3.4768e-08 0.86279 -0.50556 3.4768e-08 0.86279 -0.50556 3.4768e-08 0.86279 -0.11419 -0.41225 -0.90389 -0.11419 -0.41225 -0.90389 -0.11419 -0.41225 -0.90389 -0.11419 -0.41225 -0.90389 0.70425 -4.0962e-08 0.70996 0.70425 -4.0962e-08 0.70996 0.70425 -4.0962e-08 0.70996 0.70425 -4.0962e-08 0.70996 0.11419 0.41225 0.90389 0.11419 0.41225 0.90389 0.11419 0.41225 0.90389 0.11419 0.41225 0.90389 -0.11419 0.41225 -0.90389 -0.11419 0.41225 -0.90389 -0.11419 0.41225 -0.90389 -0.11419 0.41225 -0.90389 0.11419 -0.41225 0.90389 0.11419 -0.41225 0.90389 0.11419 -0.41225 0.90389 0.11419 -0.41225 0.90389 0.50556 -3.4768e-08 -0.86279 0.50556 -3.4768e-08 -0.86279 0.50556 -3.4768e-08 -0.86279 0.50556 -3.4768e-08 -0.86279 -0.99211 6.2103e-08 0.12533 -0.99211 6.2103e-08 0.12533 -0.99211 6.2103e-08 0.12533 -0.99211 6.2103e-08 0.12533 -0.99211 6.2103e-08 0.12533 -0.99211 6.2103e-08 0.12533 6.2103e-08 1 -3.9072e-09 6.2103e-08 1 -3.9072e-09 6.2103e-08 1 -3.9072e-09 6.2103e-08 1 -3.9072e-09 6.2103e-08 1 -3.9072e-09 6.2103e-08 1 -3.9072e-09 0.99211 -6.2103e-08 -0.12533 0.99211 -6.2103e-08 -0.12533 0.99211 -6.2103e-08 -0.12533 0.99211 -6.2103e-08 -0.12533 0.99211 -6.2103e-08 -0.12533 0.99211 -6.2103e-08 -0.12533 -6.2103e-08 -1 3.9072e-09 -6.2103e-08 -1 3.9072e-09 -6.2103e-08 -1 3.9072e-09 -6.2103e-08 -1 3.9072e-09 -6.2103e-08 -1 3.9072e-09 -6.2103e-08 -1 3.9072e-09 -0.6629 -0.3376 -0.66828 -0.6629 -0.3376 -0.66828 -0.6629 -0.3376 -0.66828 -0.47588 -0.3376 0.81214 -0.47588 -0.3376 0.81214 -0.47588 -0.3376 0.81214 -0.47588 0.3376 0.81214 -0.47588 0.3376 0.81214 -0.47588 0.3376 0.81214 -0.6629 0.3376 -0.66828 -0.6629 0.3376 -0.66828 -0.6629 0.3376 -0.66828 0.6629 0.3376 0.66828 0.6629 0.3376 0.66828 0.6629 0.3376 0.66828 0.47588 0.3376 -0.81214 0.47588 0.3376 -0.81214 0.47588 0.3376 -0.81214 -0.12533 3.9072e-09 -0.99211 -0.12533 3.9072e-09 -0.99211 -0.12533 3.9072e-09 -0.99211 -0.12533 3.9072e-09 -0.99211 -0.12533 3.9072e-09 -0.99211 -0.12533 3.9072e-09 -0.99211 -0.12533 3.9072e-09 -0.99211 -0.12533 3.9072e-09 -0.99211 0.6629 -0.3376 0.66828 0.6629 -0.3376 0.66828 0.6629 -0.3376 0.66828 0.47588 -0.3376 -0.81214 0.47588 -0.3376 -0.81214 0.47588 -0.3376 -0.81214 0 0 -1 0 0 -1 0 0 -1 0 0 -1 0.85681 3.7563e-08 0.51563 0.85681 3.7563e-08 0.51563 0.85681 3.7563e-08 0.51563 0.85681 3.7563e-08 0.51563 0 0 -1 0 0 -1 0 0 -1 0 0 -1 0 0 -1 0 0 -1 0 0 -1 0 0 -1 -4.3841e-08 1 0 -4.3841e-08 1 8.1061e-18 -4.3841e-08 1 3.5971e-18 -4.3841e-08 1 7.2394e-19 -4.3841e-08 1 0 -1 -4.3841e-08 0 -1 -4.3841e-08 0 -1 -4.3841e-08 0 -1 -4.3841e-08 0 1 4.3841e-08 0 1 4.3841e-08 0 1 4.3841e-08 0 1 4.3841e-08 0 4.3841e-08 -1 0 4.3841e-08 -1 -1.0494e-15 4.3841e-08 -1 -1.1694e-17 4.3841e-08 -1 -6.5009e-17 4.3841e-08 -1 0 4.3841e-08 -1 0 4.3841e-08 -1 0 4.3841e-08 -1 0 4.3841e-08 -1 0 3.5578e-08 -0.81153 0.5843 3.5578e-08 -0.81153 0.5843 3.5578e-08 -0.81153 0.5843 3.5578e-08 -0.81153 0.5843 0 0 1 0 0 1 0 0 1 0 0 1 -3.5578e-08 0.81153 0.58431 -3.5578e-08 0.81153 0.58431 -3.5578e-08 0.81153 0.58431 -3.5578e-08 0.81153 0.58431 -4.3841e-08 1 0 -4.3841e-08 1 0 -4.3841e-08 1 0 -4.3841e-08 1 0 0 0 -1 0 0 -1 0 0 -1 -1 -4.3841e-08 6.3586e-16 -1 -4.3841e-08 3.101e-16 -1 -4.3841e-08 -1.8105e-15 -1 -4.3841e-08 -1.0102e-15 -1 -4.3841e-08 -7.7266e-16 -1 -4.3841e-08 -6.9126e-16 -1 -4.3841e-08 0 -1 -4.3841e-08 2.9219e-16 -1 -4.3841e-08 2.6141e-16 -1 -4.3841e-08 0 0 0 -1 0 0 -1 0 0 -1 0 0 1 0 0 1 0 0 1 0 0 1 -3.4792e-08 0.79361 0.60843 -3.4792e-08 0.79361 0.60843 -3.4792e-08 0.79361 0.60843 -3.4792e-08 0.79361 0.60843 -4.3841e-08 1 0 -4.3841e-08 1 0 -4.3841e-08 1 0 -4.3841e-08 1 0 4.3841e-08 -1 0 4.3841e-08 -1 0 4.3841e-08 -1 0 4.3841e-08 -1 0 3.4792e-08 -0.79361 0.60843 3.4792e-08 -0.79361 0.60843 3.4792e-08 -0.79361 0.60843 3.4792e-08 -0.79361 0.60843 1 4.3841e-08 0 1 4.3841e-08 -6.7234e-16 1 4.3841e-08 0 1 4.3841e-08 -6.1861e-16 1 4.3841e-08 -2.559e-15 1 4.3841e-08 -2.67e-15 1 4.3841e-08 -1.1158e-16 1 4.3841e-08 -3.9314e-16 1 4.3841e-08 1.136e-15 1 4.3841e-08 1.5576e-15 1 4.3841e-08 0 1 4.3841e-08 0 0 0 -1 0 0 -1 0 0 -1</float_array><technique_common><accessor source="#g-n-a" count="461" stride="3"><param name="X" type="float"/><param name="Y" type="float"/><param name="Z" type="float"/></accessor></technique_common></source>
<vertices id="g-v"><input semantic="POSITION" source="#g-p"/><input semantic="NORMAL" source="#g-n"/></vertices>
<triangles material="m0" count="141"><input semantic="VERTEX" source="#g-v" offset="0"/><p>2 1 0 1 2 3 6 5 4 5 6 7 10 9 8 9 10 11 14 13 12 13 14 15 166 165 164 165 166 167 170 169 168 169 170 171 174 173 172 173 174 175 178 177 176 177 178 179 182 181 180 181 182 183 186 185 184 185 186 187 190 189 188 189 190 191 194 193 192 193 194 195 198 197 196 197 198 199 202 201 200 201 202 203 206 205 204 205 206 207 207 206 208 207 208 209 212 211 210 211 212 213 213 212 214 213 214 215 218 217 216 217 218 219 217 219 220 220 219 221 224 223 222 223 224 225 223 225 226 226 225 227 230 229 228 233 232 231 236 235 234 239 238 237 242 241 240 245 244 243 248 247 246 247 248 249 249 248 250 250 248 251 250 251 252 250 252 253 256 255 254 259 258 257 262 261 260 261 262 263 266 265 264 265 266 267 270 269 268 269 270 271 274 273 272 273 274 275 278 277 276 277 278 279 282 281 280 281 282 283 286 285 284 285 286 287 290 289 288 289 290 291 294 293 292 293 294 295 298 297 296 297 298 299 302 301 300 301 302 303 303 302 304 303 304 305 308 307 306 307 308 309 309 308 310 309 310 311 314 313 312 313 314 315 313 315 316 316 315 317 320 319 318 319 320 321 319 321 322 322 321 323 326 325 324 329 328 327 332 331 330 335 334 333 338 337 336 341 340 339 344 343 342 343 344 345 345 344 346 346 344 347 346 347 348 346 348 349 352 351 350 355 354 353 415 414 413 414 415 416 416 415 417 417 415 418 418 415 419 420 413 414 421 413 420 413 421 422 424 410 423 411 423 410 423 411 425 428 427 426 427 428 429 432 431 430 431 432 433 436 435 434 435 436 437 440 439 438 439 440 441 444 443 442 443 444 445 448 447 446 447 448 449 447 449 450 450 449 451 450 451 452 452 451 453 452 453 454 452 454 455 455 454 456 455 456 457 412 459 458 459 412 460</p></triangles>
<triangles material="m1" count="50"><input semantic="VERTEX" source="#g-v" offset="0"/><p>18 17 16 17 18 19 17 19 20 20 19 21 21 19 22 23 16 17 26 25 24 25 26 27 25 27 28 28 29 25 28 30 29 30 28 31 34 33 32 33 34 35 35 34 36 36 34 37 40 39 38 39 40 41 39 41 42 39 42 43 39 43 44 39 44 45 48 47 46 47 48 49 49 48 50 51 52 49 52 51 53 54 52 53 52 54 55 54 53 56 54 56 57 57 56 58 59 60 57 60 59 61 62 60 61 60 62 63 62 61 64 62 64 65 68 67 66 69 67 68 70 67 69 67 70 71 74 73 72 73 74 75 78 77 76 77 78 79 79 78 80 80 78 81 81 78 82 82 78 83</p></triangles>
<triangles material="m2" count="40"><input semantic="VERTEX" source="#g-v" offset="0"/><p>94 93 92 93 94 95 98 97 96 97 98 99 102 101 100 101 102 103 106 105 104 105 106 107 110 109 108 109 110 111 113 84 112 84 113 85 116 115 114 115 116 117 88 119 118 119 88 89 122 121 120 121 122 123 126 125 124 125 126 127 130 129 128 129 130 131 134 133 132 133 134 135 137 86 136 86 137 87 140 139 138 139 140 141 90 143 142 143 90 91 146 145 144 145 146 147 150 149 148 149 150 151 154 153 152 153 154 155 158 157 156 157 158 159 162 161 160 161 162 163</p></triangles>
<triangles material="m3" count="30"><input semantic="VERTEX" source="#g-v" offset="0"/><p>358 357 356 357 358 359 362 361 360 361 362 363 366 365 364 365 366 367 367 366 368 369 368 366 370 368 369 368 370 371 374 373 372 375 373 374 373 375 376 379 378 377 378 379 380 383 382 381 382 383 384 387 386 385 386 387 388 388 387 389 392 391 390 391 392 393 396 395 394 395 396 397 400 399 398 399 400 401 404 403 402 403 404 405 408 407 406 407 408 409</p></triangles>
</mesh></geometry></library_geometries><library_visual_scenes><visual_scene id="Scene"><node id="n" name="bed"><instance_geometry url="#g"><bind_material><technique_common>
<instance_material symbol="m0" target="#m0"/>
<instance_material symbol="m1" target="#m1"/>
<instance_material symbol="m2" target="#m2"/>
<instance_material symbol="m3" target="#m3"/>
</technique_common></bind_material></instance_geometry></node></visual_scene></library_visual_scenes><scene><instance_visual_scene url="#Scene"/></scene></COLLADA>
