<?xml version="1.0" encoding="utf-8"?>
<COLLADA xmlns="http://www.collada.org/2005/11/COLLADASchema" version="1.4.1">
<asset><contributor><authoring_tool>VATs starter props (see CREDITS.md)</authoring_tool></contributor><unit name="meter" meter="1"/><up_axis>Z_UP</up_axis></asset>
<library_effects>
<effect id="m0-fx"><profile_COMMON><technique sid="common"><lambert><diffuse><color>0.620 0.470 0.340 1</color></diffuse></lambert></technique></profile_COMMON></effect>
<effect id="m1-fx"><profile_COMMON><technique sid="common"><lambert><diffuse><color>0.360 0.390 0.430 1</color></diffuse></lambert></technique></profile_COMMON></effect>
</library_effects><library_materials>
<material id="m0" name="m0"><instance_effect url="#m0-fx"/></material>
<material id="m1" name="m1"><instance_effect url="#m1-fx"/></material>
</library_materials><library_geometries><geometry id="g" name="bench"><mesh>
<source id="g-p"><float_array id="g-p-a" count="828">0.10963 -0.76667 0.3661 0.10963 0.76667 0.3661 0.10963 -0.76667 0.45064 0.10963 0.76667 0.45064 0.10963 0.76667 0.45064 0.10963 0.76667 0.3661 0.2831 0.76667 0.45064 0.2831 0.76667 0.3661 -0.098834 -0.76667 0.45064 0.074643 -0.76667 0.45064 -0.098834 -0.76667 0.3661 0.074643 -0.76667 0.3661 0.074643 0.76667 0.3661 0.074643 -0.76667 0.3661 0.074643 0.76667 0.45064 0.074643 -0.76667 0.45064 -0.15355 0.71196 0.3661 -0.15355 0.71196 0.45064 -0.15355 -0.71196 0.3661 -0.15355 -0.71196 0.45064 0.10963 -0.76667 0.3661 0.10963 -0.76667 0.45064 0.2831 -0.76667 0.3661 0.2831 -0.76667 0.45064 -0.15355 -0.71196 0.45064 -0.098834 -0.76667 0.45064 -0.15355 -0.71196 0.3661 -0.098834 -0.76667 0.3661 0.33782 -0.71196 0.3661 0.2831 -0.76667 0.3661 0.33782 -0.71196 0.45064 0.2831 -0.76667 0.45064 0.33782 0.71196 0.3661 0.33782 -0.71196 0.3661 0.33782 0.71196 0.45064 0.33782 -0.71196 0.45064 -0.098834 0.76667 0.45064 -0.098834 0.76667 0.3661 0.074643 0.76667 0.45064 0.074643 0.76667 0.3661 0.2831 0.76667 0.3661 0.33782 0.71196 0.3661 0.2831 0.76667 0.45064 0.33782 0.71196 0.45064 -0.15355 0.71196 0.45064 -0.15355 0.71196 0.3661 -0.098834 0.76667 0.45064 -0.098834 0.76667 0.3661 -0.098834 0.76667 0.45064 0.074643 0.76667 0.45064 -0.15355 0.71196 0.45064 0.074643 -0.76667 0.45064 -0.15355 -0.71196 0.45064 -0.098834 -0.76667 0.45064 0.2831 0.76667 0.3661 0.10963 0.76667 0.3661 0.33782 0.71196 0.3661 0.10963 -0.76667 0.3661 0.33782 -0.71196 0.3661 0.2831 -0.76667 0.3661 0.074643 0.76667 0.3661 -0.098834 0.76667 0.3661 0.074643 -0.76667 0.3661 -0.15355 0.71196 0.3661 -0.15355 -0.71196 0.3661 -0.098834 -0.76667 0.3661 0.10963 0.76667 0.45064 0.2831 0.76667 0.45064 0.10963 -0.76667 0.45064 0.33782 0.71196 0.45064 0.33782 -0.71196 0.45064 0.2831 -0.76667 0.45064 -0.18243 0.71196 0.51081 -0.10371 0.71196 0.54161 -0.20236 0.76667 0.56176 -0.12364 0.76667 0.59256 -0.18243 0.71196 0.51081 -0.18243 -0.71196 0.51081 -0.10371 0.71196 0.54161 -0.10371 -0.71196 0.54161 -0.18683 0.76667 0.75411 -0.12364 0.76667 0.59256 -0.18683 -0.76667 0.75411 -0.10371 0.71196 0.54161 -0.10371 -0.71196 0.54161 -0.12364 -0.76667 0.59256 -0.20236 0.76667 0.56176 -0.26556 0.76667 0.72332 -0.18243 0.71196 0.51081 -0.26556 -0.76667 0.72332 -0.18243 -0.71196 0.51081 -0.20236 -0.76667 0.56176 -0.26556 -0.76667 0.72332 -0.18683 -0.76667 0.75411 -0.20236 -0.76667 0.56176 -0.12364 -0.76667 0.59256 -0.18243 -0.71196 0.51081 -0.20236 -0.76667 0.56176 -0.10371 -0.71196 0.54161 -0.12364 -0.76667 0.59256 -0.26556 0.76667 0.72332 -0.20236 0.76667 0.56176 -0.18683 0.76667 0.75411 -0.12364 0.76667 0.59256 -0.26556 -0.76667 0.72332 -0.26556 0.76667 0.72332 -0.18683 -0.76667 0.75411 -0.18683 0.76667 0.75411 -0.26278 0.76667 0.94825 -0.3415 0.76667 0.91745 -0.19958 0.76667 0.78669 -0.27831 0.76667 0.7559 -0.27831 0.76667 0.7559 -0.3415 0.76667 0.91745 -0.27831 -0.76667 0.7559 -0.36143 0.71196 0.9684 -0.36143 -0.71196 0.9684 -0.3415 -0.76667 0.91745 -0.26278 0.76667 0.94825 -0.19958 0.76667 0.78669 -0.28271 0.71196 0.9992 -0.19958 -0.76667 0.78669 -0.28271 -0.71196 0.9992 -0.26278 -0.76667 0.94825 -0.28271 0.71196 0.9992 -0.36143 0.71196 0.9684 -0.26278 0.76667 0.94825 -0.3415 0.76667 0.91745 -0.28271 -0.71196 0.9992 -0.26278 -0.76667 0.94825 -0.36143 -0.71196 0.9684 -0.3415 -0.76667 0.91745 -0.26278 -0.76667 0.94825 -0.19958 -0.76667 0.78669 -0.3415 -0.76667 0.91745 -0.27831 -0.76667 0.7559 -0.27831 0.76667 0.7559 -0.27831 -0.76667 0.7559 -0.19958 0.76667 0.78669 -0.19958 -0.76667 0.78669 -0.36143 0.71196 0.9684 -0.28271 0.71196 0.9992 -0.36143 -0.71196 0.9684 -0.28271 -0.71196 0.9992 -0.43229 -0.4731 0.96841 -0.29058 -0.4731 0.3661 -0.36143 -0.4731 0.96841 -0.12583 -0.4731 0.3661 -0.18335 -0.4731 0.24055 -0.24539 -0.4731 6.0749e-17 -0.37325 -0.4731 6.1058e-17 0.23285 -0.4731 0.24055 0.33782 -0.4731 0.3661 0.30375 -0.4731 0 0.43229 -0.4731 0 -0.37325 -0.61988 6.1058e-17 -0.29058 -0.61988 0.3661 -0.24539 -0.61988 6.0749e-17 -0.18335 -0.61988 0.24055 -0.12583 -0.61988 0.3661 0.23285 -0.61988 0.24055 -0.36143 -0.61988 0.96841 -0.43229 -0.61988 0.96841 0.33782 -0.61988 0.3661 0.30375 -0.61988 0 0.43229 -0.61988 0 -0.24539 -0.4731 6.0749e-17 -0.24539 -0.61988 6.0749e-17 -0.18335 -0.4731 0.24055 -0.18335 -0.61988 0.24055 -0.24539 -0.4731 6.0749e-17 -0.37325 -0.4731 6.1058e-17 -0.24539 -0.61988 6.0749e-17 -0.37325 -0.61988 6.1058e-17 -0.37325 -0.61988 6.1058e-17 -0.37325 -0.4731 6.1058e-17 -0.29058 -0.61988 0.3661 -0.29058 -0.4731 0.3661 -0.29058 -0.61988 0.3661 -0.29058 -0.4731 0.3661 -0.43229 -0.61988 0.96841 -0.43229 -0.4731 0.96841 -0.43229 -0.4731 0.96841 -0.36143 -0.4731 0.96841 -0.43229 -0.61988 0.96841 -0.36143 -0.61988 0.96841 -0.12583 -0.4731 0.3661 -0.12583 -0.61988 0.3661 -0.36143 -0.4731 0.96841 -0.36143 -0.61988 0.96841 -0.12583 -0.4731 0.3661 0.33782 -0.4731 0.3661 -0.12583 -0.61988 0.3661 0.33782 -0.61988 0.3661 0.43229 -0.4731 0 0.43229 -0.61988 0 0.33782 -0.4731 0.3661 0.33782 -0.61988 0.3661 0.43229 -0.4731 0 0.30375 -0.4731 0 0.43229 -0.61988 0 0.30375 -0.61988 0 0.30375 -0.61988 0 0.30375 -0.4731 0 0.23285 -0.61988 0.24055 0.23285 -0.4731 0.24055 0.23285 -0.4731 0.24055 -0.18335 -0.4731 0.24055 0.23285 -0.61988 0.24055 -0.18335 -0.61988 0.24055 -0.43229 0.62113 0.96841 -0.29058 0.62113 0.3661 -0.36143 0.62113 0.96841 -0.12583 0.62113 0.3661 -0.18335 0.62113 0.24055 -0.24539 0.62113 6.0749e-17 -0.37325 0.62113 6.1058e-17 0.23285 0.62113 0.24055 0.33782 0.62113 0.3661 0.30375 0.62113 0 0.43229 0.62113 0 -0.37325 0.47434 6.1058e-17 -0.29058 0.47434 0.3661 -0.24539 0.47434 6.0749e-17 -0.18335 0.47434 0.24055 -0.12583 0.47434 0.3661 0.23285 0.47434 0.24055 -0.36143 0.47434 0.96841 -0.43229 0.47434 0.96841 0.33782 0.47434 0.3661 0.30375 0.47434 0 0.43229 0.47434 0 -0.24539 0.62113 6.0749e-17 -0.24539 0.47434 6.0749e-17 -0.18335 0.62113 0.24055 -0.18335 0.47434 0.24055 -0.24539 0.62113 6.0749e-17 -0.37325 0.62113 6.1058e-17 -0.24539 0.47434 6.0749e-17 -0.37325 0.47434 6.1058e-17 -0.37325 0.47434 6.1058e-17 -0.37325 0.62113 6.1058e-17 -0.29058 0.47434 0.3661 -0.29058 0.62113 0.3661 -0.29058 0.47434 0.3661 -0.29058 0.62113 0.3661 -0.43229 0.47434 0.96841 -0.43229 0.62113 0.96841 -0.43229 0.62113 0.96841 -0.36143 0.62113 0.96841 -0.43229 0.47434 0.96841 -0.36143 0.47434 0.96841 -0.12583 0.62113 0.3661 -0.12583 0.47434 0.3661 -0.36143 0.62113 0.96841 -0.36143 0.47434 0.96841 -0.12583 0.62113 0.3661 0.33782 0.62113 0.3661 -0.12583 0.47434 0.3661 0.33782 0.47434 0.3661 0.43229 0.62113 0 0.43229 0.47434 0 0.33782 0.62113 0.3661 0.33782 0.47434 0.3661 0.43229 0.62113 0 0.30375 0.62113 0 0.43229 0.47434 0 0.30375 0.47434 0 0.30375 0.47434 0 0.30375 0.62113 0 0.23285 0.47434 0.24055 0.23285 0.62113 0.24055 0.23285 0.62113 0.24055 -0.18335 0.62113 0.24055 0.23285 0.47434 0.24055 -0.18335 0.47434 0.24055</float_array><technique_common><accessor source="#g-p-a" count="276" stride="3"><param name="X" type="float"/><param name="Y" type="float"/><param name="Z" type="float"/></accessor></technique_common></source>
<source id="g-n"><float_array id="g-n-a" count="828">-1 0 0 -1 0 0 -1 0 0 -1 0 0 0 1 0 0 1 0 0 1 0 0 1 0 0 -1 0 0 -1 0 0 -1 0 0 -1 0 1 0 6.0274e-07 1 0 6.0274e-07 1 0 6.0274e-07 1 0 6.0274e-07 -1 0 -2.411e-07 -1 0 -2.411e-07 -1 0 -2.411e-07 -1 0 -2.411e-07 0 -1 0 0 -1 0 0 -1 0 0 -1 0 -0.70711 -0.70711 -1.7048e-07 -0.70711 -0.70711 -1.7048e-07 -0.70711 -0.70711 -1.7048e-07 -0.70711 -0.70711 -1.7048e-07 0.70711 -0.70711 0 0.70711 -0.70711 0 0.70711 -0.70711 0 0.70711 -0.70711 0 1 0 0 1 0 0 1 0 0 1 0 0 0 1 0 0 1 0 0 1 0 0 1 0 0.70711 0.70711 0 0.70711 0.70711 0 0.70711 0.70711 0 0.70711 0.70711 0 -0.70711 0.70711 -1.7048e-07 -0.70711 0.70711 -1.7048e-07 -0.70711 0.70711 -1.7048e-07 -0.70711 0.70711 -1.7048e-07 2.3498e-07 -2.4702e-06 1 -2.6855e-07 -3.7005e-07 1 -2.1901e-07 -5.7668e-07 1 -2.6855e-07 3.7005e-07 1 -2.1901e-07 5.7668e-07 1 2.3498e-07 2.4702e-06 1 0 0 -1 0 0 -1 0 0 -1 0 0 -1 0 0 -1 0 0 -1 -2.3498e-07 0 -1 6.1082e-07 9.569e-08 -1 2.6798e-07 -3.6359e-07 -1 1.8784e-06 2.3474e-07 -1 2.1901e-07 -5.7668e-07 -1 -2.3498e-07 -2.4702e-06 -1 0 0 1 0 0 1 0 0 1 0 0 1 0 0 1 0 0 1 0.2576 0.70711 -0.65852 0.2576 0.70711 -0.65852 0.2576 0.70711 -0.65852 0.2576 0.70711 -0.65852 0.3643 0 -0.93128 0.3643 0 -0.93128 0.3643 0 -0.93128 0.3643 0 -0.93128 0.93128 0 0.3643 0.93128 -3.828e-09 0.3643 0.93128 1.4545e-08 0.3643 0.93128 -9.3908e-09 0.3643 0.93128 2.307e-08 0.3643 0.93128 9.8817e-08 0.3643 -0.93128 -1.7261e-07 -0.3643 -0.93128 -2.5858e-08 -0.3643 -0.93128 -4.0297e-08 -0.3643 -0.93128 2.5858e-08 -0.3643 -0.93128 4.0297e-08 -0.3643 -0.93128 1.7261e-07 -0.3643 0 -1 0 0 -1 0 0 -1 0 0 -1 0 0.2576 -0.70711 -0.65852 0.2576 -0.70711 -0.65852 0.2576 -0.70711 -0.65852 0.2576 -0.70711 -0.65852 0 1 0 0 1 0 0 1 0 0 1 0 -0.3643 0 0.93128 -0.3643 0 0.93128 -0.3643 0 0.93128 -0.3643 0 0.93128 0 1 0 0 1 0 0 1 0 0 1 0 -0.93128 0 -0.3643 -0.93128 6.1264e-08 -0.3643 -0.93128 -2.3278e-07 -0.3643 -0.93128 1.5029e-07 -0.3643 -0.93128 -3.6921e-07 -0.3643 -0.93128 -1.5815e-06 -0.3643 0.93128 -1.4721e-06 0.3643 0.93128 -2.2053e-07 0.3643 0.93128 -3.4366e-07 0.3643 0.93128 2.2053e-07 0.3643 0.93128 3.4366e-07 0.3643 0.93128 1.4721e-06 0.3643 -0.2576 0.70711 0.65851 -0.2576 0.70711 0.65851 -0.2576 0.70711 0.65851 -0.2576 0.70711 0.65851 -0.2576 -0.70711 0.65851 -0.2576 -0.70711 0.65851 -0.2576 -0.70711 0.65851 -0.2576 -0.70711 0.65851 0 -1 0 0 -1 0 0 -1 0 0 -1 0 0.3643 0 -0.93128 0.3643 0 -0.93128 0.3643 0 -0.93128 0.3643 0 -0.93128 -0.3643 0 0.93128 -0.3643 0 0.93128 -0.3643 0 0.93128 -0.3643 0 0.93128 0 1 0 0 1 0 0 1 0 0 1 0 0 1 0 0 1 0 0 1 0 0 1 0 0 1 0 0 1 0 0 1 0 0 -1 0 0 -1 0 0 -1 0 0 -1 0 0 -1 0 0 -1 0 0 -1 0 0 -1 0 0 -1 0 0 -1 0 0 -1 0 0.96831 0 -0.24974 0.96831 0 -0.24974 0.96831 0 -0.24974 0.96831 0 -0.24974 -2.4146e-18 0 -1 -2.4146e-18 0 -1 -2.4146e-18 0 -1 -2.4146e-18 0 -1 -0.97544 0 0.22026 -0.97544 0 0.22026 -0.97544 0 0.22026 -0.97544 0 0.22026 -0.97342 0 -0.22904 -0.97342 0 -0.22904 -0.97342 0 -0.22904 -0.97342 0 -0.22904 0 0 1 0 0 1 0 0 1 0 0 1 0.93128 0 0.3643 0.93128 0 0.3643 0.93128 0 0.3643 0.93128 0 0.3643 0 0 1 0 0 1 0 0 1 0 0 1 0.96828 0 0.24987 0.96828 0 0.24987 0.96828 0 0.24987 0.96828 0 0.24987 0 0 -1 0 0 -1 0 0 -1 0 0 -1 -0.9592 0 -0.28272 -0.9592 0 -0.28272 -0.9592 0 -0.28272 -0.9592 0 -0.28272 0 0 -1 0 0 -1 0 0 -1 0 0 -1 0 1 0 0 1 0 0 1 0 0 1 0 0 1 0 0 1 0 0 1 0 0 1 0 0 1 0 0 1 0 0 1 0 0 -1 0 0 -1 0 0 -1 0 0 -1 0 0 -1 0 0 -1 0 0 -1 0 0 -1 0 0 -1 0 0 -1 0 0 -1 0 0.96831 0 -0.24974 0.96831 0 -0.24974 0.96831 0 -0.24974 0.96831 0 -0.24974 -2.4146e-18 0 -1 -2.4146e-18 0 -1 -2.4146e-18 0 -1 -2.4146e-18 0 -1 -0.97544 0 0.22026 -0.97544 0 0.22026 -0.97544 0 0.22026 -0.97544 0 0.22026 -0.97342 0 -0.22904 -0.97342 0 -0.22904 -0.97342 0 -0.22904 -0.97342 0 -0.22904 0 0 1 0 0 1 0 0 1 0 0 1 0.93128 0 0.3643 0.93128 0 0.3643 0.93128 0 0.3643 0.93128 0 0.3643 0 0 1 0 0 1 0 0 1 0 0 1 0.96828 0 0.24987 0.96828 0 0.24987 0.96828 0 0.24987 0.96828 0 0.24987 0 0 -1 0 0 -1 0 0 -1 0 0 -1 -0.9592 0 -0.28272 -0.9592 0 -0.28272 -0.9592 0 -0.28272 -0.9592 0 -0.28272 0 0 -1 0 0 -1 0 0 -1 0 0 -1</float_array><technique_common><accessor source="#g-n-a" count="276" stride="3"><param name="X" type="float"/><param name="Y" type="float"/><param name="Z" type="float"/></accessor></technique_common></source>
<vertices id="g-v"><input semantic="POSITION" source="#g-p"/><input semantic="NORMAL" source="#g-n"/></vertices>
<triangles material="m0" count="80"><input semantic="VERTEX" source="#g-v" offset="0"/><p>2 1 0 1 2 3 6 5 4 5 6 7 10 9 8 9 10 11 14 13 12 13 14 15 18 17 16 17 18 19 22 21 20 21 22 23 26 25 24 25 26 27 30 29 28 29 30 31 34 33 32 33 34 35 38 37 36 37 38 39 42 41 40 41 42 43 46 45 44 45 46 47 50 49 48 49 50 51 51 50 52 51 52 53 56 55 54 55 56 57 57 56 58 57 58 59 62 61 60 61 62 63 63 62 64 64 62 65 68 67 66 67 68 69 69 68 70 70 68 71 74 73 72 73 74 75 78 77 76 77 78 79 82 81 80 81 82 83 83 82 84 84 82 85 88 87 86 87 88 89 89 88 90 89 90 91 94 93 92 93 94 95 98 97 96 97 98 99 102 101 100 101 102 103 106 105 104 105 106 107 110 109 108 109 110 111 114 113 112 113 114 115 115 114 116 116 114 117 120 119 118 119 120 121 121 120 122 121 122 123 126 125 124 125 126 127 130 129 128 129 130 131 134 133 132 133 134 135 138 137 136 137 138 139 142 141 140 141 142 143</p></triangles>
<triangles material="m1" count="80"><input semantic="VERTEX" source="#g-v" offset="0"/><p>146 145 144 145 146 147 145 147 148 145 148 149 149 150 145 148 147 151 151 147 152 151 152 153 153 152 154 157 156 155 158 156 157 159 156 158 159 158 160 161 156 159 156 161 162 159 160 163 163 160 164 163 164 165 168 167 166 167 168 169 172 171 170 171 172 173 176 175 174 175 176 177 180 179 178 179 180 181 184 183 182 183 184 185 188 187 186 187 188 189 192 191 190 191 192 193 196 195 194 195 196 197 200 199 198 199 200 201 204 203 202 203 204 205 208 207 206 207 208 209 212 211 210 211 212 213 211 213 214 211 214 215 215 216 211 214 213 217 217 213 218 217 218 219 219 218 220 223 222 221 224 222 223 225 222 224 225 224 226 227 222 225 222 227 228 225 226 229 229 226 230 229 230 231 234 233 232 233 234 235 238 237 236 237 238 239 242 241 240 241 242 243 246 245 244 245 246 247 250 249 248 249 250 251 254 253 252 253 254 255 258 257 256 257 258 259 262 261 260 261 262 263 266 265 264 265 266 267 270 269 268 269 270 271 274 273 272 273 274 275</p></triangles>
</mesh></geometry></library_geometries><library_visual_scenes><visual_scene id="Scene"><node id="n" name="bench"><instance_geometry url="#g"><bind_material><technique_common>
<instance_material symbol="m0" target="#m0"/>
<instance_material symbol="m1" target="#m1"/>
</technique_common></bind_material></instance_geometry></node></visual_scene></library_visual_scenes><scene><instance_visual_scene url="#Scene"/></scene></COLLADA>
