<?xml version="1.0" encoding="utf-8"?>
<COLLADA xmlns="http://www.collada.org/2005/11/COLLADASchema" version="1.4.1">
<asset><contributor><authoring_tool>VATs starter props (see CREDITS.md)</authoring_tool></contributor><unit name="meter" meter="1"/><up_axis>Z_UP</up_axis></asset>
<library_effects>
<effect id="m0-fx"><profile_COMMON><technique sid="common"><lambert><diffuse><color>0.460 0.200 0.250 1</color></diffuse></lambert></technique></profile_COMMON></effect>
<effect id="m1-fx"><profile_COMMON><technique sid="common"><lambert><diffuse><color>0.680 0.580 0.360 1</color></diffuse></lambert></technique></profile_COMMON></effect>
<effect id="m2-fx"><profile_COMMON><technique sid="common"><lambert><diffuse><color>0.800 0.760 0.680 1</color></diffuse></lambert></technique></profile_COMMON></effect>
</library_effects><library_materials>
<material id="m0" name="m0"><instance_effect url="#m0-fx"/></material>
<material id="m1" name="m1"><instance_effect url="#m1-fx"/></material>
<material id="m2" name="m2"><instance_effect url="#m2-fx"/></material>
</library_materials><library_geometries><geometry id="g" name="book"><mesh>
<source id="g-p"><float_array id="g-p-a" count="1944">-0.062176 0.026809 -0.099034 0.063793 0.026809 0.097265 0.063793 0.026809 -0.099034 -0.062176 0.026809 0.097265 0.064731 -0.026899 -0.1012 -0.063114 -0.026899 0.099427 -0.063114 -0.026899 -0.1012 0.064731 -0.026899 0.099427 0.07003 -0.019331 0.12 0.077475 -0.019331 0.10471 0.07003 -0.019331 0.10471 0.077475 -0.019331 0.12 0.077475 -0.026899 0.10471 0.07003 -0.026899 0.12 0.07003 -0.026899 0.10471 0.077475 -0.026899 0.12 0.077475 -0.019331 0.12 0.07003 -0.026899 0.12 0.077475 -0.026899 0.12 0.07003 -0.019331 0.12 -0.062816 -0.019331 -0.11636 0.07003 -0.026899 -0.11636 -0.068413 -0.026899 -0.11636 0.07003 -0.019331 -0.11636 0.077476 -0.026899 -0.10648 0.07003 -0.026899 0.10471 0.07003 -0.026899 -0.10648 0.077475 -0.026899 0.10471 0.07003 -0.019331 0.10471 0.077476 -0.019331 -0.10648 0.07003 -0.019331 -0.10648 0.077475 -0.019331 0.10471 0.07003 -0.019331 -0.10648 0.077476 -0.019331 -0.11636 0.07003 -0.019331 -0.11636 0.077476 -0.019331 -0.10648 0.077476 -0.026899 -0.11636 0.07003 -0.026899 -0.10648 0.07003 -0.026899 -0.11636 0.077476 -0.026899 -0.10648 0.07003 0.019241 0.12 -0.062816 0.019241 0.12 -0.062816 0.019241 0.10471 0.07003 0.019241 0.10471 -0.068413 0.026809 0.10471 0.07003 0.026809 0.12 0.07003 0.026809 0.10471 -0.068413 0.026809 0.12 0.07003 0.026809 -0.11636 0.077476 0.019241 -0.11636 0.07003 0.019241 -0.11636 0.077476 0.026809 -0.11636 0.07003 0.026809 0.12 -0.062816 0.019241 0.12 0.07003 0.019241 0.12 -0.068413 0.026809 0.12 0.07003 0.019241 -0.10648 -0.062816 0.019241 -0.11636 0.07003 0.019241 -0.11636 -0.062816 0.019241 -0.10648 -0.068413 0.026809 -0.11636 0.07003 0.026809 -0.10648 0.07003 0.026809 -0.11636 -0.068413 0.026809 -0.10648 -0.089669 -0.01278 0.10471 -0.089669 -0.01278 -0.10648 -0.084985 -0.019324 -0.10648 -0.084985 -0.019324 0.10471 -0.084985 -0.019324 0.10471 -0.084985 -0.019324 -0.10648 -0.078418 -0.024474 -0.10648 -0.078418 -0.024474 0.10471 -0.078418 -0.024474 0.10471 -0.078418 -0.024474 -0.10648 -0.068413 -0.026899 -0.10648 -0.068413 -0.026899 0.10471 -0.068413 0.026809 0.10471 -0.068413 0.026809 -0.10648 -0.078418 0.024384 -0.10648 -0.078418 0.024384 0.10471 -0.078418 0.024384 0.10471 -0.078418 0.024384 -0.10648 -0.084985 0.019234 -0.10648 -0.084985 0.019234 0.10471 -0.084985 0.019234 0.10471 -0.084985 0.019234 -0.10648 -0.089669 0.01269 -0.10648 -0.089669 0.01269 0.10471 -0.080233 0.0091007 -0.10648 -0.080233 -0.0091909 -0.11636 -0.080233 0.0091007 -0.11636 -0.080233 -0.0091909 -0.10648 0.07003 0.026809 -0.11636 0.077476 0.026809 -0.10648 0.077476 0.026809 -0.11636 0.07003 0.026809 -0.10648 0.07003 -0.026899 -0.11636 -0.068413 -0.026899 -0.10648 -0.068413 -0.026899 -0.11636 0.07003 -0.026899 -0.10648 -0.062816 -0.019331 -0.10648 0.07003 -0.019331 -0.10648 0.07003 -0.019331 -0.11636 -0.062816 -0.019331 -0.11636 0.077476 0.019241 -0.10648 0.07003 0.019241 -0.11636 0.077476 0.019241 -0.11636 0.07003 0.019241 -0.10648 -0.089669 -0.01278 -0.11636 -0.089669 0.01269 -0.10648 -0.089669 0.01269 -0.11636 -0.089669 -0.01278 -0.10648 -0.089669 0.01269 0.10471 0.077475 0.019241 0.10471 0.07003 0.019241 -0.10648 0.077476 0.019241 -0.10648 0.07003 0.019241 0.10471 0.07003 0.026809 -0.10648 0.077475 0.026809 0.10471 0.077476 0.026809 -0.10648 0.07003 0.026809 0.10471 -0.089669 -0.01278 0.12 -0.089669 -0.01278 0.10471 -0.084985 -0.019324 0.10471 -0.084985 -0.019324 0.12 -0.084985 -0.019324 0.12 -0.084985 -0.019324 0.10471 -0.078418 -0.024474 0.10471 -0.078418 -0.024474 0.12 -0.078418 -0.024474 0.12 -0.078418 -0.024474 0.10471 -0.068413 -0.026899 0.10471 -0.068413 -0.026899 0.12 -0.068413 0.026809 0.12 -0.068413 0.026809 0.10471 -0.078418 0.024384 0.10471 -0.078418 0.024384 0.12 -0.078418 0.024384 0.12 -0.078418 0.024384 0.10471 -0.084985 0.019234 0.10471 -0.084985 0.019234 0.12 -0.084985 0.019234 0.12 -0.084985 0.019234 0.10471 -0.089669 0.01269 0.10471 -0.089669 0.01269 0.12 -0.080233 -0.0091909 0.12 -0.076063 -0.013891 0.10471 -0.080233 -0.0091909 0.10471 -0.076063 -0.013891 0.12 -0.076063 -0.013891 0.12 -0.070217 -0.017589 0.10471 -0.076063 -0.013891 0.10471 -0.070217 -0.017589 0.12 -0.070217 0.017499 0.12 -0.076063 0.013801 0.10471 -0.070217 0.017499 0.10471 -0.076063 0.013801 0.12 -0.070217 -0.017589 0.12 -0.062816 -0.019331 0.10471 -0.070217 -0.017589 0.10471 -0.062816 -0.019331 0.12 -0.076063 0.013801 0.12 -0.080233 0.0091007 0.10471 -0.076063 0.013801 0.10471 -0.080233 0.0091007 0.12 0.077476 -0.019331 -0.10648 0.077476 -0.026899 -0.11636 0.077476 -0.019331 -0.11636 0.077476 -0.026899 -0.10648 0.077475 0.026809 0.10471 0.077476 0.019241 -0.10648 0.077476 0.026809 -0.10648 0.077475 0.026809 0.12 0.077475 0.019241 0.10471 0.077475 0.019241 0.12 -0.062816 0.019241 0.12 -0.070217 0.017499 0.10471 -0.062816 0.019241 0.10471 -0.070217 0.017499 0.12 -0.080233 -0.0091909 -0.11636 -0.089669 0.01269 -0.11636 -0.080233 0.0091007 -0.11636 -0.089669 -0.01278 -0.11636 0.077476 -0.019331 -0.11636 0.07003 -0.026899 -0.11636 0.07003 -0.019331 -0.11636 0.077476 -0.026899 -0.11636 -0.078418 -0.024474 -0.11636 -0.076063 -0.013891 -0.11636 -0.070216 -0.017589 -0.11636 -0.084985 -0.019324 -0.11636 -0.068413 0.026809 -0.11636 -0.062816 0.019241 -0.11636 -0.070216 0.017499 -0.11636 -0.078418 0.024384 -0.11636 0.077476 0.019241 -0.11636 0.077476 0.026809 -0.11636 -0.078418 -0.024474 0.12 -0.076063 -0.013891 0.12 -0.084985 -0.019324 0.12 -0.070217 -0.017589 0.12 0.077475 -0.019331 0.10471 0.077475 -0.019331 0.12 0.077475 -0.026899 0.10471 0.077475 -0.026899 0.12 -0.084985 0.019234 -0.11636 -0.076063 0.013801 -0.11636 -0.080233 0.0091007 -0.11636 -0.089669 0.01269 -0.11636 0.07003 0.026809 0.12 0.077475 0.019241 0.12 0.077475 0.026809 0.12 0.07003 0.019241 0.12 -0.070217 0.017499 0.12 -0.068413 0.026809 0.12 -0.078418 0.024384 0.12 -0.062816 0.019241 0.12 -0.080233 0.0091007 0.12 -0.084985 0.019234 0.12 -0.089669 0.01269 0.12 -0.076063 0.013801 0.12 -0.084985 -0.019324 -0.11636 -0.080233 -0.0091909 -0.11636 -0.076063 -0.013891 -0.11636 -0.089669 -0.01278 -0.11636 -0.089669 0.01269 0.12 -0.089669 -0.01278 0.12 -0.080233 0.0091007 0.12 -0.080233 -0.0091909 0.12 -0.062816 -0.019331 0.12 0.07003 -0.026899 0.12 0.07003 -0.019331 0.12 -0.068413 -0.026899 0.12 -0.070216 -0.017589 -0.11636 -0.068413 -0.026899 -0.11636 -0.078418 -0.024474 -0.11636 -0.062816 -0.019331 -0.11636 -0.078418 0.024384 -0.11636 -0.070216 0.017499 -0.11636 -0.076063 0.013801 -0.11636 -0.084985 0.019234 -0.11636 -0.084985 -0.019324 0.12 -0.080233 -0.0091909 0.12 -0.089669 -0.01278 0.12 -0.076063 -0.013891 0.12 -0.068413 0.026809 -0.11636 0.07003 0.026809 -0.11636 -0.062816 0.019241 -0.11636 0.07003 0.019241 -0.11636 -0.068413 -0.026899 0.12 -0.070217 -0.017589 0.12 -0.078418 -0.024474 0.12 -0.062816 -0.019331 0.12 -0.076063 0.013801 0.12 -0.078418 0.024384 0.12 -0.084985 0.019234 0.12 -0.070217 0.017499 0.12 -0.076063 0.013801 -0.10648 -0.080233 0.0091007 -0.11636 -0.076063 0.013801 -0.11636 -0.080233 0.0091007 -0.10648 -0.070216 0.017499 -0.10648 -0.076063 0.013801 -0.11636 -0.070216 0.017499 -0.11636 -0.076063 0.013801 -0.10648 -0.062816 0.019241 -0.10648 -0.070216 0.017499 -0.11636 -0.062816 0.019241 -0.11636 -0.070216 0.017499 -0.10648 -0.070216 -0.017589 -0.10648 -0.062816 -0.019331 -0.11636 -0.070216 -0.017589 -0.11636 -0.062816 -0.019331 -0.10648 -0.076063 -0.013891 -0.10648 -0.070216 -0.017589 -0.11636 -0.076063 -0.013891 -0.11636 -0.070216 -0.017589 -0.10648 -0.080233 -0.0091909 -0.10648 -0.076063 -0.013891 -0.11636 -0.080233 -0.0091909 -0.11636 -0.076063 -0.013891 -0.10648 -0.080233 0.0091007 0.12 -0.080233 -0.0091909 0.10471 -0.080233 0.0091007 0.10471 -0.080233 -0.0091909 0.12 -0.084985 0.019234 -0.10648 -0.084985 0.019234 -0.11636 -0.089669 0.01269 -0.11636 -0.089669 0.01269 -0.10648 -0.078418 0.024384 -0.10648 -0.078418 0.024384 -0.11636 -0.084985 0.019234 -0.11636 -0.084985 0.019234 -0.10648 -0.068413 0.026809 -0.10648 -0.068413 0.026809 -0.11636 -0.078418 0.024384 -0.11636 -0.078418 0.024384 -0.10648 -0.078418 -0.024474 -0.10648 -0.078418 -0.024474 -0.11636 -0.068413 -0.026899 -0.11636 -0.068413 -0.026899 -0.10648 -0.084985 -0.019324 -0.10648 -0.084985 -0.019324 -0.11636 -0.078418 -0.024474 -0.11636 -0.078418 -0.024474 -0.10648 -0.089669 -0.01278 -0.10648 -0.089669 -0.01278 -0.11636 -0.084985 -0.019324 -0.11636 -0.084985 -0.019324 -0.10648 0.07003 0.026809 0.10471 0.077475 0.026809 0.12 0.077475 0.026809 0.10471 0.07003 0.026809 0.12 0.07003 -0.026899 0.10471 -0.068413 -0.026899 0.12 -0.068413 -0.026899 0.10471 0.07003 -0.026899 0.12 -0.062816 -0.019331 0.12 0.07003 -0.019331 0.12 0.07003 -0.019331 0.10471 -0.062816 -0.019331 0.10471 0.077475 0.019241 0.12 0.07003 0.019241 0.10471 0.077475 0.019241 0.10471 0.07003 0.019241 0.12 -0.089669 -0.01278 0.10471 -0.089669 0.01269 0.12 -0.089669 -0.01278 0.12 -0.058749 -0.027898 -0.07398 -0.058749 0.027898 -0.096691 -0.058749 -0.027898 -0.096691 -0.058749 0.027898 -0.07398 0.059817 0.027898 0.095295 0.059817 -0.027898 0.072584 0.059817 0.027898 0.072584 0.059817 -0.027898 0.095295 0.059817 0.027898 -0.07398 0.059817 -0.027898 -0.096691 0.059817 0.027898 -0.096691 0.059817 -0.027898 -0.07398 -0.042163 0.027898 0.095295 -0.058749 -0.027898 0.072584 -0.058749 0.027898 0.072584 -0.042163 -0.027898 0.095295 -0.058749 0.027898 -0.07398 -0.042163 -0.027898 -0.096691 -0.042163 0.027898 -0.096691 -0.058749 -0.027898 -0.07398 0.04323 -0.027898 0.095295 0.059817 0.027898 0.072584 0.059817 -0.027898 0.072584 0.04323 0.027898 0.095295 -0.058749 0.027898 0.095295 -0.042163 -0.027898 0.095295 -0.042163 0.027898 0.095295 -0.058749 -0.027898 0.095295 0.059817 -0.027898 -0.07398 0.04323 0.027898 -0.096691 0.04323 -0.027898 -0.096691 0.059817 0.027898 -0.07398 -0.042163 0.027898 -0.096691 -0.058749 -0.027898 -0.096691 -0.058749 0.027898 -0.096691 -0.042163 -0.027898 -0.096691 0.04323 0.027898 0.095295 0.059817 -0.027898 0.095295 0.059817 0.027898 0.095295 0.04323 -0.027898 0.095295 -0.058749 -0.027898 0.095295 -0.058749 0.027898 0.072584 -0.058749 -0.027898 0.072584 -0.058749 0.027898 0.095295 0.059817 0.027898 -0.096691 0.04323 -0.027898 -0.096691 0.04323 0.027898 -0.096691 0.059817 -0.027898 -0.096691 0.059817 0.027898 -0.096691 0.04323 0.027898 -0.096691 0.059817 0.027898 -0.07398 0.059817 0.027898 0.095295 0.059817 0.027898 0.072584 0.04323 0.027898 0.095295 -0.058749 0.027898 -0.096691 -0.058749 0.027898 -0.07398 -0.042163 0.027898 -0.096691 -0.058749 0.027898 0.095295 -0.042163 0.027898 0.095295 -0.058749 0.027898 0.072584 0.059817 -0.027898 -0.096691 0.059817 -0.027898 -0.07398 0.04323 -0.027898 -0.096691 0.059817 -0.027898 0.095295 0.04323 -0.027898 0.095295 0.059817 -0.027898 0.072584 -0.058749 -0.027898 -0.096691 -0.042163 -0.027898 -0.096691 -0.058749 -0.027898 -0.07398 -0.058749 -0.027898 0.095295 -0.058749 -0.027898 0.072584 -0.042163 -0.027898 0.095295 0.07003 0.026809 0.10471 0.063793 0.026809 -0.099034 0.063793 0.026809 0.097265 0.07003 0.026809 -0.10648 -0.062176 0.026809 0.097265 0.07003 0.026809 0.10471 0.063793 0.026809 0.097265 -0.068413 0.026809 0.10471 -0.062176 0.026809 -0.099034 -0.068413 0.026809 0.10471 -0.062176 0.026809 0.097265 -0.068413 0.026809 -0.10648 0.064731 -0.026899 0.099427 -0.068413 -0.026899 0.10471 -0.063114 -0.026899 0.099427 0.07003 -0.026899 0.10471 -0.068413 -0.026899 0.10471 -0.063114 -0.026899 -0.1012 -0.063114 -0.026899 0.099427 -0.068413 -0.026899 -0.10648 0.064731 -0.026899 -0.1012 0.07003 -0.026899 0.10471 0.064731 -0.026899 0.099427 0.07003 -0.026899 -0.10648 0.07003 0.026809 -0.10648 -0.068413 0.026809 -0.10648 -0.062176 0.026809 -0.099034 0.063793 0.026809 -0.099034 -0.068413 -0.026899 -0.10648 0.07003 -0.026899 -0.10648 0.064731 -0.026899 -0.1012 -0.063114 -0.026899 -0.1012 -0.033013 -0.015446 -0.080397 -0.041132 -0.016655 -0.0013854 -0.041132 -0.015446 -0.0013854 -0.033013 -0.016655 -0.080397 -0.041132 -0.016655 -0.0013854 0.065925 -0.016655 0.0017632 0.065925 -0.015446 0.0017632 -0.041132 -0.015446 -0.0013854 0.065925 -0.016655 0.0017632 0.080697 -0.016655 -0.092276 0.080697 -0.015446 -0.092276 0.065925 -0.015446 0.0017632 -0.033013 -0.016655 -0.080397 0.080697 -0.015446 -0.092276 0.080697 -0.016655 -0.092276 -0.033013 -0.015446 -0.080397 -0.036758 -0.0057789 -0.093628 -0.038385 -0.0045706 -0.014283 -0.036732 -0.0045706 -0.093694 -0.038412 -0.0057789 -0.014218 0.060368 -0.0057789 -0.019135 -0.038385 -0.0045706 -0.014283 -0.038412 -0.0057789 -0.014218 0.060394 -0.0045706 -0.019201 0.07518 -0.0063218 -0.11993 0.060394 -0.0045706 -0.019201 0.060368 -0.0057789 -0.019135 0.075207 -0.0051135 -0.12 0.07518 -0.0063218 -0.11993 -0.036758 -0.0057789 -0.093628 -0.036732 -0.0045706 -0.093694 0.075207 -0.0051135 -0.12 -0.062363 0.006033 -0.092719 -0.050309 0.0048246 -0.013308 -0.050309 0.006033 -0.013308 -0.062363 0.0048246 -0.092719 -0.050309 0.0048246 -0.013308 0.056649 0.0048246 -0.018894 0.056649 0.006033 -0.018894 -0.050309 0.006033 -0.013308 0.056649 0.0048246 -0.018894 0.063729 0.0048246 -0.11358 0.063729 0.006033 -0.11358 0.056649 0.006033 -0.018894 -0.062363 0.0048246 -0.092719 0.063729 0.006033 -0.11358 0.063729 0.0048246 -0.11358 -0.062363 0.006033 -0.092719 -0.030294 0.013646 -0.080397 -0.038414 0.012438 -0.0013854 -0.038414 0.013646 -0.0013854 -0.030294 0.012437 -0.080397 -0.038414 0.012438 -0.0013854 0.068644 0.012437 0.0017632 0.068644 0.013646 0.0017632 -0.038414 0.013646 -0.0013854 0.068644 0.012437 0.0017632 0.083416 0.012437 -0.095258 0.083416 0.013646 -0.095258 0.068644 0.013646 0.0017632 -0.030294 0.012437 -0.080397 0.083416 0.013646 -0.095258 0.083416 0.012437 -0.095258 -0.030294 0.013646 -0.080397 -0.041132 0.014854 0.021988 -0.033013 0.013646 0.101 -0.033013 0.014854 0.101 -0.041132 0.013646 0.021988 -0.041132 0.014854 0.021988 0.065925 0.013646 0.01884 -0.041132 0.013646 0.021988 0.065925 0.014854 0.01884 0.065925 0.013646 0.01884 0.080697 0.014854 0.11288 0.080697 0.013646 0.11288 0.065925 0.014854 0.01884 0.080697 0.014854 0.11288 -0.033013 0.013646 0.101 0.080697 0.013646 0.11288 -0.033013 0.014854 0.101 -0.024045 0.0039787 0.10099 -0.032165 0.0039787 0.021978 -0.03216 0.0027703 0.021988 -0.02404 0.0027704 0.101 -0.03216 0.0027703 0.021988 0.066687 0.0039788 0.01883 0.066692 0.0027704 0.01884 -0.032165 0.0039787 0.021978 0.066692 0.0027704 0.01884 0.089665 0.0040685 0.11809 0.089669 0.0028601 0.1181 0.066687 0.0039788 0.01883 0.089665 0.0040685 0.11809 -0.02404 0.0027704 0.101 0.089669 0.0028601 0.1181 -0.024045 0.0039787 0.10099 -0.036004 -0.0066249 0.101 -0.044123 -0.0066249 0.021988 -0.044123 -0.0078333 0.021988 -0.036004 -0.0078333 0.101 -0.044123 -0.0066249 0.021988 0.062934 -0.0078333 0.01884 -0.044123 -0.0078333 0.021988 0.062934 -0.0066249 0.01884 0.062934 -0.0078333 0.01884 0.077706 -0.0066249 0.11263 0.077706 -0.0078333 0.11263 0.062934 -0.0066249 0.01884 0.077706 -0.0078333 0.11263 -0.036004 -0.0066249 0.101 -0.036004 -0.0078333 0.101 0.077706 -0.0066249 0.11263 -0.038414 -0.014238 0.021988 -0.030294 -0.015446 0.101 -0.030294 -0.014238 0.101 -0.038414 -0.015446 0.021988 -0.038414 -0.014238 0.021988 0.068644 -0.015446 0.01884 -0.038414 -0.015446 0.021988 0.068644 -0.014238 0.01884 0.068644 -0.015446 0.01884 0.083416 -0.014238 0.11586 0.083416 -0.015446 0.11586 0.068644 -0.014238 0.01884 0.083416 -0.014238 0.11586 -0.030294 -0.015446 0.101 0.083416 -0.015446 0.11586 -0.030294 -0.014238 0.101 -0.033013 -0.015446 -0.080397 0.065925 -0.015446 0.0017632 0.080697 -0.015446 -0.092276 -0.041132 -0.015446 -0.0013854 -0.036732 -0.0045706 -0.093694 0.060394 -0.0045706 -0.019201 0.075207 -0.0051135 -0.12 -0.038385 -0.0045706 -0.014283 -0.062363 0.006033 -0.092719 0.056649 0.006033 -0.018894 0.063729 0.006033 -0.11358 -0.050309 0.006033 -0.013308 -0.030294 0.013646 -0.080397 0.068644 0.013646 0.0017632 0.083416 0.013646 -0.095258 -0.038414 0.013646 -0.0013854 0.065925 0.013646 0.01884 -0.033013 0.013646 0.101 -0.041132 0.013646 0.021988 0.080697 0.013646 0.11288 0.066692 0.0027704 0.01884 -0.02404 0.0027704 0.101 -0.03216 0.0027703 0.021988 0.089669 0.0028601 0.1181 0.062934 -0.0078333 0.01884 -0.036004 -0.0078333 0.101 -0.044123 -0.0078333 0.021988 0.077706 -0.0078333 0.11263 0.068644 -0.015446 0.01884 -0.030294 -0.015446 0.101 -0.038414 -0.015446 0.021988 0.083416 -0.015446 0.11586 -0.033013 -0.016655 -0.080397 0.065925 -0.016655 0.0017632 -0.041132 -0.016655 -0.0013854 0.080697 -0.016655 -0.092276 -0.036758 -0.0057789 -0.093628 0.060368 -0.0057789 -0.019135 -0.038412 -0.0057789 -0.014218 0.07518 -0.0063218 -0.11993 -0.062363 0.0048246 -0.092719 0.056649 0.0048246 -0.018894 -0.050309 0.0048246 -0.013308 0.063729 0.0048246 -0.11358 -0.030294 0.012437 -0.080397 0.068644 0.012437 0.0017632 -0.038414 0.012438 -0.0013854 0.083416 0.012437 -0.095258 0.065925 0.014854 0.01884 -0.033013 0.014854 0.101 0.080697 0.014854 0.11288 -0.041132 0.014854 0.021988 0.066687 0.0039788 0.01883 -0.024045 0.0039787 0.10099 0.089665 0.0040685 0.11809 -0.032165 0.0039787 0.021978 0.062934 -0.0066249 0.01884 -0.036004 -0.0066249 0.101 0.077706 -0.0066249 0.11263 -0.044123 -0.0066249 0.021988 0.068644 -0.014238 0.01884 -0.030294 -0.014238 0.101 0.083416 -0.014238 0.11586 -0.038414 -0.014238 0.021988 -0.070217 -0.017589 0.10471 -0.070217 0.017499 0.10471 -0.062816 -0.019331 0.10471 -0.076063 -0.013891 0.10471 -0.080233 0.0091007 0.10471 -0.076063 0.013801 0.10471 -0.080233 -0.0091909 0.10471 -0.062816 0.019241 0.10471 0.07003 -0.019331 0.10471 0.07003 0.019241 0.10471 -0.070216 0.017499 -0.10648 -0.070216 -0.017589 -0.10648 -0.076063 0.013801 -0.10648 -0.080233 -0.0091909 -0.10648 -0.076063 -0.013891 -0.10648 -0.080233 0.0091007 -0.10648 -0.062816 0.019241 -0.10648 -0.062816 -0.019331 -0.10648 0.07003 -0.019331 -0.10648 0.07003 0.019241 -0.10648 0.07003 0.019241 0.10471 0.07003 -0.019331 -0.10648 0.07003 0.019241 -0.10648 0.07003 -0.019331 0.10471</float_array><technique_common><accessor source="#g-p-a" count="648" stride="3"><param name="X" type="float"/><param name="Y" type="float"/><param name="Z" type="float"/></accessor></technique_common></source>
<source id="g-n"><float_array id="g-n-a" count="1944">5.5313e-08 1 9.3251e-15 5.5313e-08 1 9.3251e-15 5.5313e-08 1 9.3251e-15 5.5313e-08 1 9.3251e-15 5.4501e-08 -1 9.1882e-15 5.4501e-08 -1 9.1882e-15 5.4501e-08 -1 9.1882e-15 5.4501e-08 -1 9.1882e-15 2.3396e-07 1 3.9443e-14 2.3396e-07 1 3.9443e-14 2.3396e-07 1 3.9443e-14 2.3396e-07 1 3.9443e-14 -7.0189e-07 -1 -1.1833e-13 -7.0189e-07 -1 -1.1833e-13 -7.0189e-07 -1 -1.1833e-13 -7.0189e-07 -1 -1.1833e-13 -1.6859e-07 0 1 -1.6859e-07 0 1 -1.6859e-07 0 1 -1.6859e-07 0 1 1.6859e-07 -6.8891e-17 -1 1.6859e-07 -2.5618e-18 -1 1.6859e-07 -7.0714e-17 -1 1.6859e-07 0 -1 -7.0189e-07 -1 -1.1833e-13 -7.0189e-07 -1 -1.1833e-13 -7.0189e-07 -1 -1.1833e-13 -7.0189e-07 -1 -1.1833e-13 2.3396e-07 1 3.9443e-14 2.3396e-07 1 3.9443e-14 2.3396e-07 1 3.9443e-14 2.3396e-07 1 3.9443e-14 2.3396e-07 1 3.9443e-14 2.3396e-07 1 3.9443e-14 2.3396e-07 1 3.9443e-14 2.3396e-07 1 3.9443e-14 -7.0189e-07 -1 -1.1833e-13 -7.0189e-07 -1 -1.1833e-13 -7.0189e-07 -1 -1.1833e-13 -7.0189e-07 -1 -1.1833e-13 -3.9337e-08 -1 -6.6318e-15 -3.9337e-08 -1 -6.6318e-15 -3.9337e-08 -1 -6.6318e-15 -3.9337e-08 -1 -6.6318e-15 5.0329e-08 1 8.4849e-15 5.0329e-08 1 8.4849e-15 5.0329e-08 1 8.4849e-15 5.0329e-08 1 8.4849e-15 1.6859e-07 0 -1 1.6859e-07 0 -1 1.6859e-07 0 -1 1.6859e-07 0 -1 -1.6859e-07 -5.7769e-18 1 -1.6859e-07 -1.5535e-16 1 -1.6859e-07 0 1 -1.6859e-07 -1.5946e-16 1 -3.9337e-08 -1 -6.6318e-15 -3.9337e-08 -1 -6.6318e-15 -3.9337e-08 -1 -6.6318e-15 -3.9337e-08 -1 -6.6318e-15 5.0329e-08 1 8.4849e-15 5.0329e-08 1 8.4849e-15 5.0329e-08 1 8.4849e-15 5.0329e-08 1 8.4849e-15 -0.81317 -0.58203 -1.1091e-07 -0.81317 -0.58203 -1.3709e-07 -0.81317 -0.58203 -1.3644e-07 -0.81317 -0.58203 -1.1026e-07 -0.61704 -0.78693 -1.1617e-07 -0.61704 -0.78693 -8.3667e-08 -0.61704 -0.78693 -8.4505e-08 -0.61704 -0.78693 -1.1701e-07 -0.23557 -0.97186 -4.0211e-08 -0.23557 -0.97186 -5.5747e-08 -0.23557 -0.97186 -5.525e-08 -0.23557 -0.97186 -3.9714e-08 -0.23557 0.97186 -2.4179e-08 -0.23557 0.97186 -3.9714e-08 -0.23557 0.97186 -3.9217e-08 -0.23557 0.97186 -2.3681e-08 -0.61704 0.78693 -1.2355e-07 -0.61704 0.78693 -9.1043e-08 -0.61704 0.78693 -9.1882e-08 -0.61704 0.78693 -1.2438e-07 -0.81317 0.58203 -1.3774e-07 -0.81317 0.58203 -1.6392e-07 -0.81317 0.58203 -1.6327e-07 -0.81317 0.58203 -1.3709e-07 1 0 1.6859e-07 1 0 1.6859e-07 1 0 1.6859e-07 1 0 1.6859e-07 -7.0189e-07 1 -1.1833e-13 -7.0189e-07 1 -1.1833e-13 -7.0189e-07 1 -1.1833e-13 -7.0189e-07 1 -1.1833e-13 5.0329e-08 -1 8.4849e-15 5.0329e-08 -1 8.4849e-15 5.0329e-08 -1 8.4849e-15 5.0329e-08 -1 8.4849e-15 -3.9337e-08 1 -6.6318e-15 -3.9337e-08 1 -6.6318e-15 -3.9337e-08 1 -6.6318e-15 -3.9337e-08 1 -6.6318e-15 2.3396e-07 -1 3.9443e-14 2.3396e-07 -1 3.9443e-14 2.3396e-07 -1 3.9443e-14 2.3396e-07 -1 3.9443e-14 -1 0 -1.6859e-07 -1 0 -1.6859e-07 -1 0 -1.6859e-07 -1 0 -1.6859e-07 -1 0 -1.6859e-07 2.3396e-07 -1 3.9443e-14 2.3396e-07 -1 3.9443e-14 2.3396e-07 -1 3.9443e-14 2.3396e-07 -1 3.9443e-14 -7.0189e-07 1 -1.1833e-13 -7.0189e-07 1 -1.1833e-13 -7.0189e-07 1 -1.1833e-13 -7.0189e-07 1 -1.1833e-13 -0.81317 -0.58203 -1.3709e-07 -0.81317 -0.58203 -1.3709e-07 -0.81317 -0.58203 -1.3709e-07 -0.81317 -0.58203 -1.3709e-07 -0.61704 -0.78693 -1.0403e-07 -0.61704 -0.78693 -1.0403e-07 -0.61704 -0.78693 -1.0403e-07 -0.61704 -0.78693 -1.0403e-07 -0.23557 -0.97186 -3.9714e-08 -0.23557 -0.97186 -3.9714e-08 -0.23557 -0.97186 -3.9714e-08 -0.23557 -0.97186 -3.9714e-08 -0.23557 0.97186 -3.9714e-08 -0.23557 0.97186 -3.9714e-08 -0.23557 0.97186 -3.9714e-08 -0.23557 0.97186 -3.9714e-08 -0.61704 0.78693 -1.0403e-07 -0.61704 0.78693 -1.0403e-07 -0.61704 0.78693 -1.0403e-07 -0.61704 0.78693 -1.0403e-07 -0.81317 0.58203 -1.3709e-07 -0.81317 0.58203 -1.3709e-07 -0.81317 0.58203 -1.3709e-07 -0.81317 0.58203 -1.3709e-07 0.74805 0.66365 1.2611e-07 0.74805 0.66365 1.2611e-07 0.74805 0.66365 1.2611e-07 0.74805 0.66365 1.2611e-07 0.53461 0.8451 9.0129e-08 0.53461 0.8451 9.0129e-08 0.53461 0.8451 9.0129e-08 0.53461 0.8451 9.0129e-08 0.53461 -0.8451 9.0129e-08 0.53461 -0.8451 9.0129e-08 0.53461 -0.8451 9.0129e-08 0.53461 -0.8451 9.0129e-08 0.22908 0.97341 3.862e-08 0.22908 0.97341 3.862e-08 0.22908 0.97341 3.862e-08 0.22908 0.97341 3.862e-08 0.74805 -0.66365 1.2611e-07 0.74805 -0.66365 1.2611e-07 0.74805 -0.66365 1.2611e-07 0.74805 -0.66365 1.2611e-07 1 0 1.6859e-07 1 0 1.6859e-07 1 0 1.6859e-07 1 0 1.6859e-07 1 0 1.6859e-07 1 0 1.6859e-07 1 0 1.6859e-07 1 0 1.6859e-07 1 0 1.6859e-07 1 0 1.6859e-07 0.22908 -0.97341 3.862e-08 0.22908 -0.97341 3.862e-08 0.22908 -0.97341 3.862e-08 0.22908 -0.97341 3.862e-08 1.6859e-07 0 -1 1.6859e-07 0 -1 1.6859e-07 0 -1 1.6859e-07 0 -1 1.6859e-07 0 -1 1.6859e-07 0 -1 1.6859e-07 0 -1 1.6859e-07 0 -1 1.6859e-07 5.3047e-16 -1 1.6859e-07 5.9607e-16 -1 1.6859e-07 7.0616e-16 -1 1.6859e-07 4.284e-16 -1 1.6859e-07 7.5611e-16 -1 1.6859e-07 6.703e-16 -1 1.6859e-07 7.415e-16 -1 1.6859e-07 8.1836e-16 -1 1 0 1.6859e-07 1 0 1.6859e-07 -1.6859e-07 1.2398e-15 1 -1.6859e-07 1.234e-15 1 -1.6859e-07 1.2488e-15 1 -1.6859e-07 1.2242e-15 1 1 0 1.6859e-07 1 0 1.6859e-07 1 0 1.6859e-07 1 0 1.6859e-07 1.6859e-07 -7.5682e-16 -1 1.6859e-07 -6.9392e-16 -1 1.6859e-07 -7.3275e-16 -1 1.6859e-07 -7.9156e-16 -1 -1.6859e-07 0 1 -1.6859e-07 0 1 -1.6859e-07 0 1 -1.6859e-07 0 1 -1.6859e-07 7.3062e-16 1 -1.6859e-07 7.2793e-16 1 -1.6859e-07 7.1647e-16 1 -1.6859e-07 7.4373e-16 1 -1.6859e-07 1.0941e-16 1 -1.6859e-07 2.195e-16 1 -1.6859e-07 3.7841e-16 1 -1.6859e-07 -6.8234e-17 1 1.6859e-07 -4.278e-16 -1 1.6859e-07 -2.9023e-16 -1 1.6859e-07 -6.8234e-17 -1 1.6859e-07 -6.2638e-16 -1 -1.6859e-07 0 1 -1.6859e-07 0 1 -1.6859e-07 0 1 -1.6859e-07 0 1 -1.6859e-07 1.5535e-16 1 -1.6859e-07 5.7769e-18 1 -1.6859e-07 0 1 -1.6859e-07 1.5946e-16 1 1.6859e-07 -7.415e-16 -1 1.6859e-07 -7.5611e-16 -1 1.6859e-07 -8.1836e-16 -1 1.6859e-07 -6.703e-16 -1 1.6859e-07 -3.1501e-16 -1 1.6859e-07 -7.0616e-16 -1 1.6859e-07 -4.6105e-16 -1 1.6859e-07 -8.7754e-17 -1 -1.6859e-07 2.6277e-16 1 -1.6859e-07 3.0705e-16 1 -1.6859e-07 1.9884e-16 1 -1.6859e-07 3.7851e-16 1 1.6859e-07 7.0714e-17 -1 1.6859e-07 2.5618e-18 -1 1.6859e-07 6.8891e-17 -1 1.6859e-07 0 -1 -1.6859e-07 -7.2793e-16 1 -1.6859e-07 -7.3062e-16 1 -1.6859e-07 -7.1647e-16 1 -1.6859e-07 -7.4373e-16 1 -1.6859e-07 -1.2889e-15 1 -1.6859e-07 -1.3275e-15 1 -1.6859e-07 -1.3875e-15 1 -1.6859e-07 -1.2242e-15 1 0.74805 -0.66365 1.2611e-07 0.74805 -0.66365 1.2611e-07 0.74805 -0.66365 1.2611e-07 0.74805 -0.66365 1.2611e-07 0.53461 -0.8451 9.0129e-08 0.53461 -0.8451 9.0129e-08 0.53461 -0.8451 9.0129e-08 0.53461 -0.8451 9.0129e-08 0.22908 -0.97341 3.862e-08 0.22908 -0.97341 3.862e-08 0.22908 -0.97341 3.862e-08 0.22908 -0.97341 3.862e-08 0.22908 0.97341 3.862e-08 0.22908 0.97341 3.862e-08 0.22908 0.97341 3.862e-08 0.22908 0.97341 3.862e-08 0.53461 0.8451 9.0129e-08 0.53461 0.8451 9.0129e-08 0.53461 0.8451 9.0129e-08 0.53461 0.8451 9.0129e-08 0.74805 0.66365 1.2611e-07 0.74805 0.66365 1.2611e-07 0.74805 0.66365 1.2611e-07 0.74805 0.66365 1.2611e-07 1 0 1.6859e-07 1 0 1.6859e-07 1 0 1.6859e-07 1 0 1.6859e-07 -0.81317 0.58203 -1.3709e-07 -0.81317 0.58203 -1.3709e-07 -0.81317 0.58203 -1.3709e-07 -0.81317 0.58203 -1.3709e-07 -0.61704 0.78693 -1.0403e-07 -0.61704 0.78693 -1.0403e-07 -0.61704 0.78693 -1.0403e-07 -0.61704 0.78693 -1.0403e-07 -0.23557 0.97186 -3.9714e-08 -0.23557 0.97186 -3.9714e-08 -0.23557 0.97186 -3.9714e-08 -0.23557 0.97186 -3.9714e-08 -0.23557 -0.97186 -3.9714e-08 -0.23557 -0.97186 -3.9714e-08 -0.23557 -0.97186 -3.9714e-08 -0.23557 -0.97186 -3.9714e-08 -0.61704 -0.78693 -1.0403e-07 -0.61704 -0.78693 -1.0403e-07 -0.61704 -0.78693 -1.0403e-07 -0.61704 -0.78693 -1.0403e-07 -0.81317 -0.58203 -1.3709e-07 -0.81317 -0.58203 -1.3709e-07 -0.81317 -0.58203 -1.3709e-07 -0.81317 -0.58203 -1.3709e-07 -7.0189e-07 1 -1.1833e-13 -7.0189e-07 1 -1.1833e-13 -7.0189e-07 1 -1.1833e-13 -7.0189e-07 1 -1.1833e-13 5.0329e-08 -1 8.4849e-15 5.0329e-08 -1 8.4849e-15 5.0329e-08 -1 8.4849e-15 5.0329e-08 -1 8.4849e-15 -3.9337e-08 1 -6.6318e-15 -3.9337e-08 1 -6.6318e-15 -3.9337e-08 1 -6.6318e-15 -3.9337e-08 1 -6.6318e-15 2.3396e-07 -1 3.9443e-14 2.3396e-07 -1 3.9443e-14 2.3396e-07 -1 3.9443e-14 2.3396e-07 -1 3.9443e-14 -1 0 -1.6859e-07 -1 0 -1.6859e-07 -1 0 -1.6859e-07 -1 0 -1.6859e-07 -1 0 -1.6859e-07 -1 0 -1.6859e-07 -1 0 -1.6859e-07 1 0 1.6859e-07 1 0 1.6859e-07 1 0 1.6859e-07 1 0 1.6859e-07 1 0 1.6859e-07 1 0 1.6859e-07 1 0 1.6859e-07 1 0 1.6859e-07 0.80756 0 -0.58978 0.80756 0 -0.58978 0.80756 0 -0.58978 0.80756 0 -0.58978 0.80756 0 0.58978 0.80756 0 0.58978 0.80756 0 0.58978 0.80756 0 0.58978 -0.80756 0 -0.58978 -0.80756 0 -0.58978 -0.80756 0 -0.58978 -0.80756 0 -0.58978 -1.6859e-07 0 1 -1.6859e-07 0 1 -1.6859e-07 0 1 -1.6859e-07 0 1 -0.80756 0 0.58978 -0.80756 0 0.58978 -0.80756 0 0.58978 -0.80756 0 0.58978 1.6859e-07 0 -1 1.6859e-07 0 -1 1.6859e-07 0 -1 1.6859e-07 0 -1 -1.6859e-07 0 1 -1.6859e-07 0 1 -1.6859e-07 0 1 -1.6859e-07 0 1 -1 0 -1.6859e-07 -1 0 -1.6859e-07 -1 0 -1.6859e-07 -1 0 -1.6859e-07 1.6859e-07 0 -1 1.6859e-07 0 -1 1.6859e-07 0 -1 1.6859e-07 0 -1 0 1 0 0 1 0 0 1 0 0 1 0 0 1 0 0 1 0 0 1 0 0 1 0 0 1 0 0 1 0 0 1 0 0 1 0 0 -1 0 0 -1 0 0 -1 0 0 -1 0 0 -1 0 0 -1 0 0 -1 0 0 -1 0 0 -1 0 0 -1 0 0 -1 0 0 -1 0 0 1 0 0 1 0 0 1 0 0 1 0 5.0453e-08 1 3.9986e-08 5.4992e-08 1 -4.0657e-08 5.5313e-08 1 -4.6358e-08 5.0329e-08 1 4.2181e-08 0 1 0 0 1 0 0 1 0 0 1 0 5.04e-08 -1 -4.8744e-08 5.429e-08 -1 4.9378e-08 5.4501e-08 -1 5.4699e-08 5.0329e-08 -1 -5.0512e-08 0 -1 0 0 -1 0 0 -1 0 0 -1 0 0 -1 0 0 -1 0 0 -1 0 0 -1 0 5.4992e-08 1 4.0657e-08 5.0329e-08 1 -4.2181e-08 5.0453e-08 1 -3.9986e-08 5.5313e-08 1 4.6358e-08 5.429e-08 -1 -4.9378e-08 5.0329e-08 -1 5.0512e-08 5.04e-08 -1 4.8744e-08 5.4501e-08 -1 -5.4699e-08 -0.99476 0 -0.10223 -0.99476 0 -0.10223 -0.99476 0 -0.10223 -0.99476 0 -0.10223 -0.029398 0 0.99957 -0.029398 0 0.99957 -0.029398 0 0.99957 -0.029398 0 0.99957 0.98789 0 0.15518 0.98789 0 0.15518 0.98789 0 0.15518 0.98789 0 0.15518 -0.1039 0 -0.99459 -0.1039 0 -0.99459 -0.1039 0 -0.99459 -0.1039 0 -0.99459 -0.99956 0.020937 -0.020818 -0.99956 0.020936 -0.020818 -0.99956 0.020937 -0.020818 -0.99956 0.020936 -0.020818 0.049652 0.052845 0.99737 0.049652 0.052845 0.99737 0.049652 0.052845 0.99737 0.049652 0.052845 0.99737 0.98927 -0.013972 0.14545 0.98927 -0.013966 0.14545 0.98927 -0.013966 0.14545 0.98927 -0.013972 0.14545 -0.22873 -0.047534 -0.97233 -0.22873 -0.047535 -0.97233 -0.22873 -0.047535 -0.97233 -0.22873 -0.047534 -0.97233 -0.98867 0 0.15008 -0.98867 0 0.15008 -0.98867 0 0.15008 -0.98867 0 0.15008 0.052157 0 0.99864 0.052157 0 0.99864 0.052157 0 0.99864 0.052157 0 0.99864 0.99722 0 0.074569 0.99722 0 0.074569 0.99722 0 0.074569 0.99722 0 0.074569 -0.16321 0 -0.98659 -0.16321 0 -0.98659 -0.16321 0 -0.98659 -0.16321 0 -0.98659 -0.99476 0 -0.10223 -0.99476 0 -0.10223 -0.99476 0 -0.10223 -0.99476 0 -0.10223 -0.029398 0 0.99957 -0.029398 0 0.99957 -0.029398 0 0.99957 -0.029398 0 0.99957 0.98861 0 0.15053 0.98861 0 0.15053 0.98861 0 0.15053 0.98861 0 0.15053 -0.12959 0 -0.99157 -0.12959 0 -0.99157 -0.12959 0 -0.99157 -0.12959 0 -0.99157 -0.99476 0 0.10223 -0.99476 0 0.10223 -0.99476 0 0.10223 -0.99476 0 0.10223 -0.029398 0 -0.99957 -0.029398 0 -0.99957 -0.029398 0 -0.99957 -0.029398 0 -0.99957 0.98789 0 -0.15518 0.98789 0 -0.15518 0.98789 0 -0.15518 0.98789 0 -0.15518 -0.1039 0 0.99459 -0.1039 0 0.99459 -0.1039 0 0.99459 -0.1039 0 0.99459 -0.99476 -0.0031339 0.10223 -0.99476 -0.0031354 0.10223 -0.99476 -0.0031354 0.10223 -0.99476 -0.0031339 0.10223 -0.031835 -0.0084205 -0.99946 -0.031834 -0.008422 -0.99946 -0.031834 -0.008422 -0.99946 -0.031835 -0.0084205 -0.99946 0.97423 0.0020325 -0.22553 0.97423 0.002026 -0.22553 0.97423 0.002026 -0.22553 0.97423 0.0020325 -0.22553 -0.14868 0.0076157 0.98886 -0.14868 0.0076099 0.98886 -0.14868 0.0076157 0.98886 -0.14868 0.0076098 0.98886 -0.99476 0 0.10223 -0.99476 0 0.10223 -0.99476 0 0.10223 -0.99476 0 0.10223 -0.029398 0 -0.99957 -0.029398 0 -0.99957 -0.029398 0 -0.99957 -0.029398 0 -0.99957 0.98782 0 -0.15559 0.98782 0 -0.15559 0.98782 0 -0.15559 0.98782 0 -0.15559 -0.10175 0 0.99481 -0.10175 0 0.99481 -0.10175 0 0.99481 -0.10175 0 0.99481 -0.99476 0 0.10223 -0.99476 0 0.10223 -0.99476 0 0.10223 -0.99476 0 0.10223 -0.029398 0 -0.99957 -0.029398 0 -0.99957 -0.029398 0 -0.99957 -0.029398 0 -0.99957 0.98861 0 -0.15053 0.98861 0 -0.15053 0.98861 0 -0.15053 0.98861 0 -0.15053 -0.12959 0 0.99157 -0.12959 0 0.99157 -0.12959 0 0.99157 -0.12959 0 0.99157 7.9406e-08 1 -1.1682e-07 8.3445e-08 1 -1.2169e-07 9.3284e-08 1 -1.3353e-07 6.8121e-08 1 -1.0323e-07 0.001803 1 -0.0023508 0.0022329 0.99999 -0.0029113 0.0037124 0.99998 -0.0048403 1.0404e-07 1 -1.2396e-07 9.5368e-08 1 -1.3015e-07 9.5512e-08 1 -1.3038e-07 9.5785e-08 1 -1.3082e-07 9.5021e-08 1 -1.2959e-07 1.0454e-07 1 -1.3649e-07 1.0274e-07 1 -1.3432e-07 9.8074e-08 1 -1.287e-07 1.0997e-07 1 -1.4303e-07 1.0513e-07 -1 3.1194e-08 1.0556e-07 -1 3.1703e-08 1.0674e-07 -1 3.3124e-08 1.041e-07 -1 2.9955e-08 0.00040716 -1 0.00044954 0.0003288 -1 0.000363 1.132e-07 -1 2.6949e-08 0.00067688 -1 0.00074741 1.0932e-07 -1 3.6239e-08 1.0864e-07 -1 3.5414e-08 1.0674e-07 -1 3.3124e-08 1.1098e-07 -1 3.8237e-08 1.1668e-07 -1 3.4495e-08 1.1622e-07 -1 3.3946e-08 1.1485e-07 -1 3.2291e-08 1.1786e-07 -1 3.5917e-08 -9.5338e-08 -1 1.1481e-07 -9.9273e-08 -1 1.1954e-07 -8.4343e-08 -1 1.0157e-07 -1.0886e-07 -1 1.3109e-07 -0.001803 -1 0.0023508 -0.0022329 -0.99999 0.0029113 -1.0791e-07 -1 1.3485e-07 -0.0037124 -0.99998 0.0048403 -9.6181e-08 -1 1.3146e-07 -9.5105e-08 -1 1.2972e-07 -9.8777e-08 -1 1.3564e-07 -9.3059e-08 -1 1.2642e-07 -1.0078e-07 -1 1.5316e-07 -9.7513e-08 -1 1.4923e-07 -1.1062e-07 -1 1.6501e-07 -8.9062e-08 -1 1.3905e-07 5.6831e-08 1 1.7444e-07 1.1587e-08 1 1.1996e-07 1.6706e-07 1 3.0718e-07 -1.1485e-07 1 -3.2291e-08 -0.00040716 1 -0.00044954 -0.0003288 1 -0.000363 -0.00067689 1 -0.00074741 -1.1539e-07 1 -2.6723e-08 -1.2706e-07 1 3.8763e-07 -1.1697e-07 1 3.9979e-07 -1.5153e-07 1 3.5817e-07 -8.8944e-08 1 4.3354e-07 6.4248e-08 1 1.7278e-07 2.1637e-08 1 1.2146e-07 1.7453e-07 1 3.0558e-07 -1.0674e-07 1 -3.3124e-08 1.6859e-07 0 -1 1.6859e-07 0 -1 1.6859e-07 0 -1 1.6859e-07 0 -1 1.6859e-07 0 -1 1.6859e-07 0 -1 1.6859e-07 0 -1 1.6859e-07 0 -1 1.6859e-07 0 -1 1.6859e-07 0 -1 1.6859e-07 0 -1 1.6859e-07 0 -1 1.6859e-07 0 -1 1.6859e-07 0 -1 1.6859e-07 0 -1 1.6859e-07 0 -1 1.6859e-07 0 -1 1.6859e-07 0 -1 1.6859e-07 0 -1 1.6859e-07 0 -1 1 0 1.6859e-07 1 0 1.6859e-07 1 0 1.6859e-07 1 0 1.6859e-07</float_array><technique_common><accessor source="#g-n-a" count="648" stride="3"><param name="X" type="float"/><param name="Y" type="float"/><param name="Z" type="float"/></accessor></technique_common></source>
<vertices id="g-v"><input semantic="POSITION" source="#g-p"/><input semantic="NORMAL" source="#g-n"/></vertices>
<triangles material="m0" count="170"><input semantic="VERTEX" source="#g-v" offset="0"/><p>0 1 2 1 0 3 4 5 6 5 4 7 8 9 10 11 9 8 12 13 14 13 12 15 16 17 18 17 16 19 20 21 22 21 20 23 24 25 26 25 24 27 28 29 30 31 29 28 32 33 34 32 35 33 36 37 38 37 36 39 40 41 42 40 42 43 44 45 46 45 44 47 48 49 50 49 48 51 52 53 54 53 52 55 56 57 58 56 59 57 60 61 62 61 60 63 64 65 66 66 67 64 68 69 70 70 71 68 72 73 74 74 75 72 76 77 78 78 79 76 80 81 82 82 83 80 84 85 86 86 87 84 88 89 90 88 91 89 92 93 94 93 92 95 96 97 98 97 96 99 100 101 102 100 102 103 104 105 106 104 107 105 108 109 110 109 108 111 111 112 109 113 114 115 116 114 113 117 118 119 118 117 120 121 122 123 123 124 121 125 126 127 127 128 125 129 130 131 132 129 131 133 134 135 136 133 135 137 138 139 139 140 137 141 142 143 143 144 141 145 146 147 146 145 148 149 150 151 150 149 152 153 154 155 154 153 156 157 158 159 160 158 157 161 162 163 164 162 161 165 166 167 165 168 166 169 170 171 172 173 169 174 173 172 175 176 177 176 175 178 179 180 181 180 179 182 183 184 185 183 186 184 187 188 189 188 187 190 191 192 193 194 191 193 170 169 173 171 195 196 195 171 170 197 198 199 198 197 200 201 168 165 202 203 201 203 168 201 204 203 202 205 206 207 207 208 205 209 210 211 212 210 209 213 214 215 214 213 216 217 218 219 218 217 220 221 222 223 222 221 224 225 226 227 228 227 226 229 230 231 232 230 229 233 234 235 234 233 236 237 238 239 239 240 237 241 242 243 244 242 241 245 246 247 248 247 246 249 250 251 250 249 252 253 254 255 254 253 256 257 258 259 260 258 257 261 262 263 262 261 264 265 266 267 266 265 268 269 270 271 270 269 272 273 274 275 276 274 273 277 278 279 280 278 277 281 282 283 281 284 282 285 286 287 288 285 287 289 290 291 292 289 291 293 294 295 296 293 295 297 298 299 300 297 299 301 302 303 304 301 303 305 306 307 308 305 307 309 310 311 310 309 312 313 314 315 314 313 316 317 318 319 317 319 320 321 322 323 324 322 321 112 111 325 325 326 112 326 325 327</p></triangles>
<triangles material="m1" count="48"><input semantic="VERTEX" source="#g-v" offset="0"/><p>328 329 330 328 331 329 332 333 334 332 335 333 336 337 338 336 339 337 340 341 342 340 343 341 344 345 346 344 347 345 348 349 350 348 351 349 352 353 354 352 355 353 356 357 358 356 359 357 360 361 362 360 363 361 364 365 366 364 367 365 368 369 370 368 371 369 372 373 374 372 375 373 376 377 378 379 380 381 382 383 384 385 386 387 388 389 390 391 392 393 394 395 396 397 398 399 400 401 402 400 403 401 404 405 406 405 404 407 408 409 410 409 408 411 412 413 414 413 412 415 416 417 418 416 419 417 420 421 422 421 420 423 424 425 426 424 426 427 428 429 430 428 430 431</p></triangles>
<triangles material="m2" count="114"><input semantic="VERTEX" source="#g-v" offset="0"/><p>432 433 434 433 432 435 436 437 438 438 439 436 440 441 442 442 443 440 444 445 446 445 444 447 448 449 450 449 448 451 452 453 454 453 452 455 456 457 458 457 456 459 460 461 462 462 463 460 464 465 466 465 464 467 468 469 470 470 471 468 472 473 474 474 475 472 476 477 478 477 476 479 480 481 482 481 480 483 484 485 486 486 487 484 488 489 490 490 491 488 492 493 494 493 492 495 496 497 498 497 496 499 500 501 502 501 500 503 504 505 506 505 504 507 508 509 510 509 508 511 512 513 514 514 515 512 516 517 518 517 516 519 520 521 522 521 520 523 524 525 526 525 524 527 528 529 530 530 531 528 532 533 534 533 532 535 536 537 538 537 536 539 540 541 542 541 540 543 544 545 546 545 544 547 548 549 550 549 548 551 552 553 554 553 552 555 556 557 558 557 556 559 560 561 562 561 560 563 564 565 566 565 564 567 568 569 570 569 568 571 572 573 574 573 572 575 576 577 578 577 576 579 580 581 582 581 580 583 584 585 586 585 584 587 588 589 590 589 588 591 592 593 594 593 592 595 596 597 598 597 596 599 600 601 602 601 600 603 604 605 606 605 604 607 608 609 610 609 608 611 612 613 614 613 612 615 616 617 618 617 616 619 620 621 622 621 620 623 624 625 626 627 628 629 627 625 624 628 627 630 625 627 629 626 625 631 626 631 632 632 631 633 634 635 636 637 636 638 636 637 639 638 636 635 635 640 641 641 640 642 640 643 642 640 635 634 644 645 646 647 645 644</p></triangles>
</mesh></geometry></library_geometries><library_visual_scenes><visual_scene id="Scene"><node id="n" name="book"><instance_geometry url="#g"><bind_material><technique_common>
<instance_material symbol="m0" target="#m0"/>
<instance_material symbol="m1" target="#m1"/>
<instance_material symbol="m2" target="#m2"/>
</technique_common></bind_material></instance_geometry></node></visual_scene></library_visual_scenes><scene><instance_visual_scene url="#Scene"/></scene></COLLADA>
