<?xml version="1.0" encoding="utf-8"?>
<COLLADA xmlns="http://www.collada.org/2005/11/COLLADASchema" version="1.4.1">
<asset><contributor><authoring_tool>VATs starter props (see CREDITS.md)</authoring_tool></contributor><unit name="meter" meter="1"/><up_axis>Z_UP</up_axis></asset>
<library_effects>
<effect id="m0-fx"><profile_COMMON><technique sid="common"><lambert><diffuse><color>0.470 0.560 0.420 1</color></diffuse></lambert></technique></profile_COMMON></effect>
<effect id="m1-fx"><profile_COMMON><technique sid="common"><lambert><diffuse><color>0.620 0.380 0.300 1</color></diffuse></lambert></technique></profile_COMMON></effect>
<effect id="m2-fx"><profile_COMMON><technique sid="common"><lambert><diffuse><color>0.800 0.600 0.330 1</color></diffuse></lambert></technique></profile_COMMON></effect>
<effect id="m3-fx"><profile_COMMON><technique sid="common"><lambert><diffuse><color>0.800 0.760 0.680 1</color></diffuse></lambert></technique></profile_COMMON></effect>
</library_effects><library_materials>
<material id="m0" name="m0"><instance_effect url="#m0-fx"/></material>
<material id="m1" name="m1"><instance_effect url="#m1-fx"/></material>
<material id="m2" name="m2"><instance_effect url="#m2-fx"/></material>
<material id="m3" name="m3"><instance_effect url="#m3-fx"/></material>
</library_materials><library_geometries><geometry id="g" name="bottle"><mesh>
<source id="g-p"><float_array id="g-p-a" count="750">-0.035464 0.020475 0 -0.035464 -0.020475 0 -0.01944 0.011224 0.007866 -0.01944 -0.011224 0.007866 0 0.016087 0.22673 0 0.018038 0.19666 0.013932 0.0080437 0.22673 0.015621 0.009019 0.19666 -0.015621 0.009019 0.19666 0 0.018038 0.19666 -0.013932 0.0080437 0.22673 0 0.016087 0.22673 0.015621 0.009019 0.19666 0.015621 -0.009019 0.19666 0.013932 0.0080437 0.22673 0.013932 -0.0080437 0.22673 0 -0.018038 0.19666 0 -0.016087 0.22673 0.015621 -0.009019 0.19666 0.013932 -0.0080437 0.22673 0.035464 0.020475 0 0.01944 0.011224 0.007866 0.035464 -0.020475 0 0.01944 -0.011224 0.007866 0 0.04095 0 0 0.022447 0.007866 0.035464 0.020475 0 0.01944 0.011224 0.007866 0.01944 -0.011224 0.007866 0 -0.022447 0.007866 0.035464 -0.020475 0 0 -0.04095 0 0 0.04095 0 -0.035464 0.020475 0 0 0.022447 0.007866 -0.01944 0.011224 0.007866 0 0.022447 0.007866 -0.01944 0.011224 0.007866 0.01944 0.011224 0.007866 0.01944 -0.011224 0.007866 -0.01944 -0.011224 0.007866 0 -0.022447 0.007866 -0.015621 -0.009019 0.19666 -0.013932 -0.0080437 0.22673 0 -0.018038 0.19666 0 -0.016087 0.22673 -0.015621 -0.009019 0.19666 -0.015621 0.009019 0.19666 -0.013932 -0.0080437 0.22673 -0.013932 0.0080437 0.22673 -0.01944 -0.011224 0.007866 -0.035464 -0.020475 0 0 -0.022447 0.007866 0 -0.04095 0 -0.035464 -0.020475 0 -0.035464 0.020475 0 -0.035464 -0.020475 0.14338 -0.035464 0.020475 0.14338 -3.0989e-16 0.04095 0.13628 0.026598 0.025594 0.13628 0 0.04095 0.14338 0.035464 0.020475 0.14338 0.026598 0.025594 0.052506 0.035464 0.020475 0 0 0.04095 0 -3.0989e-16 0.04095 0.052506 0.035464 0.020475 0 0.035464 -0.020475 0 0.035464 0.020475 0.14338 0.035464 -0.020475 0.14338 -3.0989e-16 0.04095 0.13628 0 0.04095 0.14338 -0.026598 0.025594 0.13628 -0.035464 0.020475 0.14338 -0.035464 0.020475 0 -0.026598 0.025594 0.052506 0 0.04095 0 -3.0989e-16 0.04095 0.052506 0 -0.04095 0 0 -0.04095 0.14338 0.035464 -0.020475 0 0.035464 -0.020475 0.14338 -0.035464 -0.020475 0 -0.035464 -0.020475 0.14338 0 -0.04095 0 0 -0.04095 0.14338 -0.035464 -0.020475 0.14338 -0.035464 0.020475 0.14338 -0.026879 -0.015518 0.16831 -0.026879 0.015518 0.16831 0.035464 -0.020475 0.14338 0.026879 -0.015518 0.16831 0.035464 0.020475 0.14338 0.026879 0.015518 0.16831 0 -0.04095 0.14338 0 -0.031037 0.16831 0.035464 -0.020475 0.14338 0.026879 -0.015518 0.16831 0 0.031037 0.16831 0 0.04095 0.14338 0.026879 0.015518 0.16831 0.035464 0.020475 0.14338 -0.035464 0.020475 0.14338 0 0.04095 0.14338 -0.026879 0.015518 0.16831 0 0.031037 0.16831 -0.035464 -0.020475 0.14338 -0.026879 -0.015518 0.16831 0 -0.04095 0.14338 0 -0.031037 0.16831 0 0.018038 0.19666 0 0.031037 0.16831 0.015621 0.009019 0.19666 0.026879 0.015518 0.16831 -0.026879 0.015518 0.16831 0 0.031037 0.16831 -0.015621 0.009019 0.19666 0 0.018038 0.19666 -0.026879 -0.015518 0.16831 -0.026879 0.015518 0.16831 -0.015621 -0.009019 0.19666 -0.015621 0.009019 0.19666 -0.026879 -0.015518 0.16831 -0.015621 -0.009019 0.19666 0 -0.031037 0.16831 0 -0.018038 0.19666 0 -0.031037 0.16831 0 -0.018038 0.19666 0.026879 -0.015518 0.16831 0.015621 -0.009019 0.19666 0.026879 0.015518 0.16831 0.026879 -0.015518 0.16831 0.015621 0.009019 0.19666 0.015621 -0.009019 0.19666 -0.013932 0.0080437 0.22673 0 0.016087 0.22673 -0.010588 0.0061133 0.26033 0 0.012227 0.26033 -0.010588 -0.0061133 0.26033 -0.010588 0.0061133 0.26033 -0.014294 -0.0082529 0.26995 -0.014294 0.0082529 0.26995 -0.014294 -0.0082529 0.26995 -0.014294 0.0082529 0.26995 -0.014294 -0.0082529 0.27956 -0.014294 0.0082529 0.27956 0 -0.016087 0.22673 0 -0.012227 0.26033 0.013932 -0.0080437 0.22673 0.010588 -0.0061133 0.26033 0 0.016506 0.27956 0 0.016506 0.26995 0.014294 0.0082529 0.27956 0.014294 0.0082529 0.26995 -0.014294 -0.0082529 0.26995 0 -0.016506 0.26995 -0.010588 -0.0061133 0.26033 0 -0.012227 0.26033 0 0.016506 0.27956 0.014294 0.0082529 0.27956 -0.014294 0.0082529 0.27956 -0.014294 -0.0082529 0.27956 0.014294 -0.0082529 0.27956 0 -0.016506 0.27956 0 0.016506 0.26995 0 0.012227 0.26033 0.014294 0.0082529 0.26995 0.010588 0.0061133 0.26033 -0.013932 -0.0080437 0.22673 -0.010588 -0.0061133 0.26033 0 -0.016087 0.22673 0 -0.012227 0.26033 -0.014294 -0.0082529 0.26995 -0.014294 -0.0082529 0.27956 0 -0.016506 0.26995 0 -0.016506 0.27956 -0.014294 0.0082529 0.27956 -0.014294 0.0082529 0.26995 0 0.016506 0.27956 0 0.016506 0.26995 -0.014294 0.0082529 0.26995 -0.010588 0.0061133 0.26033 0 0.016506 0.26995 0 0.012227 0.26033 0 -0.012227 0.26033 0 -0.016506 0.26995 0.010588 -0.0061133 0.26033 0.014294 -0.0082529 0.26995 0.013932 0.0080437 0.22673 0.013932 -0.0080437 0.22673 0.010588 0.0061133 0.26033 0.010588 -0.0061133 0.26033 0 -0.016506 0.26995 0 -0.016506 0.27956 0.014294 -0.0082529 0.26995 0.014294 -0.0082529 0.27956 0.014294 0.0082529 0.26995 0.014294 -0.0082529 0.26995 0.014294 0.0082529 0.27956 0.014294 -0.0082529 0.27956 0.010588 0.0061133 0.26033 0.010588 -0.0061133 0.26033 0.014294 0.0082529 0.26995 0.014294 -0.0082529 0.26995 0 0.012227 0.26033 0 0.016087 0.22673 0.010588 0.0061133 0.26033 0.013932 0.0080437 0.22673 -0.013932 -0.0080437 0.22673 -0.013932 0.0080437 0.22673 -0.010588 -0.0061133 0.26033 -0.010588 0.0061133 0.26033 0 0.012461 0.3 0.010791 0.0062303 0.3 -0.010791 0.0062303 0.3 -0.010791 -0.0062303 0.3 0.010791 -0.0062303 0.3 0 -0.012461 0.3 0 -0.010214 0.27956 0 -0.012461 0.3 0.0088452 -0.0051068 0.27956 0.010791 -0.0062303 0.3 0 0.012461 0.3 0 0.010214 0.27956 0.010791 0.0062303 0.3 0.0088452 0.0051068 0.27956 -0.010791 0.0062303 0.3 -0.0088452 0.0051068 0.27956 0 0.012461 0.3 0 0.010214 0.27956 0.0088452 0.0051068 0.27956 0.0088452 -0.0051068 0.27956 0.010791 0.0062303 0.3 0.010791 -0.0062303 0.3 -0.010791 -0.0062303 0.3 0 -0.012461 0.3 -0.0088452 -0.0051068 0.27956 0 -0.010214 0.27956 -0.0088452 -0.0051068 0.27956 -0.0088452 0.0051068 0.27956 -0.010791 -0.0062303 0.3 -0.010791 0.0062303 0.3 -0.026598 0.025594 0.13628 -0.026598 0.025594 0.052506 -3.0989e-16 0.04095 0.13628 -3.0989e-16 0.04095 0.052506 -3.0989e-16 0.04095 0.13628 -3.0989e-16 0.04095 0.052506 0.026598 0.025594 0.13628 0.026598 0.025594 0.052506</float_array><technique_common><accessor source="#g-p-a" count="250" stride="3"><param name="X" type="float"/><param name="Y" type="float"/><param name="Z" type="float"/></accessor></technique_common></source>
<source id="g-n"><float_array id="g-n-a" count="750">0.44066 0 -0.89768 0.44066 0 -0.89768 0.44066 0 -0.89768 0.44066 0 -0.89768 0.49921 0.86466 0.056083 0.49921 0.86466 0.056083 0.49921 0.86466 0.056083 0.49921 0.86466 0.056083 -0.49921 0.86466 0.056083 -0.49921 0.86466 0.056083 -0.49921 0.86466 0.056083 -0.49921 0.86466 0.056083 0.99843 0 0.056083 0.99843 0 0.056083 0.99843 0 0.056083 0.99843 0 0.056083 0.49921 -0.86466 0.056083 0.49921 -0.86466 0.056083 0.49921 -0.86466 0.056083 0.49921 -0.86466 0.056083 -0.44066 0 -0.89768 -0.44066 0 -0.89768 -0.44066 0 -0.89768 -0.44066 0 -0.89768 -0.22033 -0.38162 -0.89768 -0.22033 -0.38162 -0.89768 -0.22033 -0.38162 -0.89768 -0.22033 -0.38162 -0.89768 -0.22033 0.38162 -0.89768 -0.22033 0.38162 -0.89768 -0.22033 0.38162 -0.89768 -0.22033 0.38162 -0.89768 0.22033 -0.38162 -0.89768 0.22033 -0.38162 -0.89768 0.22033 -0.38162 -0.89768 0.22033 -0.38162 -0.89768 0 0 -1 0 0 -1 0 0 -1 0 0 -1 0 0 -1 0 0 -1 -0.49921 -0.86466 0.056083 -0.49921 -0.86466 0.056083 -0.49921 -0.86466 0.056083 -0.49921 -0.86466 0.056083 -0.99843 0 0.056083 -0.99843 0 0.056083 -0.99843 0 0.056083 -0.99843 0 0.056083 0.22033 0.38162 -0.89768 0.22033 0.38162 -0.89768 0.22033 0.38162 -0.89768 0.22033 0.38162 -0.89768 -1 0 0 -1 0 0 -1 0 0 -1 0 0 0.5 0.86603 -2.1995e-14 0.5 0.86603 -2.3893e-08 0.5 0.86603 -7.0527e-09 0.5 0.86603 -1.8825e-08 0.5 0.86603 1.01e-09 0.5 0.86603 5.7856e-09 0.5 0.86603 4.3721e-09 0.5 0.86603 2.951e-15 1 0 0 1 0 0 1 0 0 1 0 0 -0.5 0.86603 2.183e-14 -0.5 0.86603 -7.0527e-09 -0.5 0.86603 -2.3893e-08 -0.5 0.86603 -1.8825e-08 -0.5 0.86603 5.7856e-09 -0.5 0.86603 1.01e-09 -0.5 0.86603 4.3721e-09 -0.5 0.86603 -2.9733e-15 0.5 -0.86603 0 0.5 -0.86603 0 0.5 -0.86603 0 0.5 -0.86603 0 -0.5 -0.86603 0 -0.5 -0.86603 0 -0.5 -0.86603 0 -0.5 -0.86603 0 -0.94551 0 0.32559 -0.94551 0 0.32559 -0.94551 0 0.32559 -0.94551 0 0.32559 0.94551 0 0.32559 0.94551 0 0.32559 0.94551 0 0.32559 0.94551 0 0.32559 0.47276 -0.81884 0.32559 0.47276 -0.81884 0.32559 0.47276 -0.81884 0.32559 0.47276 -0.81884 0.32559 0.47276 0.81884 0.32559 0.47276 0.81884 0.32559 0.47276 0.81884 0.32559 0.47276 0.81884 0.32559 -0.47276 0.81884 0.32559 -0.47276 0.81884 0.32559 -0.47276 0.81884 0.32559 -0.47276 0.81884 0.32559 -0.47276 -0.81884 0.32559 -0.47276 -0.81884 0.32559 -0.47276 -0.81884 0.32559 -0.47276 -0.81884 0.32559 0.46471 0.8049 0.36904 0.46471 0.8049 0.36904 0.46471 0.8049 0.36904 0.46471 0.8049 0.36904 -0.46471 0.8049 0.36904 -0.46471 0.8049 0.36904 -0.46471 0.8049 0.36904 -0.46471 0.8049 0.36904 -0.92941 0 0.36904 -0.92941 0 0.36904 -0.92941 0 0.36904 -0.92941 0 0.36904 -0.46471 -0.8049 0.36904 -0.46471 -0.8049 0.36904 -0.46471 -0.8049 0.36904 -0.46471 -0.8049 0.36904 0.46471 -0.8049 0.36904 0.46471 -0.8049 0.36904 0.46471 -0.8049 0.36904 0.46471 -0.8049 0.36904 0.92941 0 0.36904 0.92941 0 0.36904 0.92941 0 0.36904 0.92941 0 0.36904 -0.49754 0.86177 0.099026 -0.49754 0.86177 0.099026 -0.49754 0.86177 0.099026 -0.49754 0.86177 0.099026 -0.93309 0 -0.35963 -0.93309 0 -0.35963 -0.93309 0 -0.35963 -0.93309 0 -0.35963 -1 0 0 -1 0 0 -1 0 0 -1 0 0 0.49754 -0.86177 0.099026 0.49754 -0.86177 0.099026 0.49754 -0.86177 0.099026 0.49754 -0.86177 0.099026 0.5 0.86603 0 0.5 0.86603 0 0.5 0.86603 0 0.5 0.86603 0 -0.46655 -0.80808 -0.35963 -0.46655 -0.80808 -0.35963 -0.46655 -0.80808 -0.35963 -0.46655 -0.80808 -0.35963 0 0 1 0 0 1 0 0 1 0 0 1 0 0 1 0 0 1 0.46655 0.80808 -0.35963 0.46655 0.80808 -0.35963 0.46655 0.80808 -0.35963 0.46655 0.80808 -0.35963 -0.49754 -0.86177 0.099026 -0.49754 -0.86177 0.099026 -0.49754 -0.86177 0.099026 -0.49754 -0.86177 0.099026 -0.5 -0.86603 0 -0.5 -0.86603 0 -0.5 -0.86603 0 -0.5 -0.86603 0 -0.5 0.86603 0 -0.5 0.86603 0 -0.5 0.86603 0 -0.5 0.86603 0 -0.46655 0.80808 -0.35963 -0.46655 0.80808 -0.35963 -0.46655 0.80808 -0.35963 -0.46655 0.80808 -0.35963 0.46655 -0.80808 -0.35963 0.46655 -0.80808 -0.35963 0.46655 -0.80808 -0.35963 0.46655 -0.80808 -0.35963 0.99508 0 0.099027 0.99508 0 0.099027 0.99508 0 0.099027 0.99508 0 0.099027 0.5 -0.86603 0 0.5 -0.86603 0 0.5 -0.86603 0 0.5 -0.86603 0 1 0 0 1 0 0 1 0 0 1 0 0 0.93309 0 -0.35963 0.93309 0 -0.35963 0.93309 0 -0.35963 0.93309 0 -0.35963 0.49754 0.86177 0.099026 0.49754 0.86177 0.099026 0.49754 0.86177 0.099026 0.49754 0.86177 0.099026 -0.99508 0 0.099027 -0.99508 0 0.099027 -0.99508 0 0.099027 -0.99508 0 0.099027 0 0 1 0 0 1 0 0 1 0 0 1 0 0 1 0 0 1 0.49775 -0.86213 -0.094782 0.49775 -0.86213 -0.094782 0.49775 -0.86213 -0.094782 0.49775 -0.86213 -0.094782 0.49775 0.86213 -0.094782 0.49775 0.86213 -0.094782 0.49775 0.86213 -0.094782 0.49775 0.86213 -0.094782 -0.49775 0.86213 -0.094782 -0.49775 0.86213 -0.094782 -0.49775 0.86213 -0.094782 -0.49775 0.86213 -0.094782 0.9955 0 -0.094782 0.9955 0 -0.094782 0.9955 0 -0.094782 0.9955 0 -0.094782 -0.49775 -0.86213 -0.094782 -0.49775 -0.86213 -0.094782 -0.49775 -0.86213 -0.094782 -0.49775 -0.86213 -0.094782 -0.9955 0 -0.094782 -0.9955 0 -0.094782 -0.9955 0 -0.094782 -0.9955 0 -0.094782 -0.5 0.86603 0 -0.5 0.86603 0 -0.5 0.86603 0 -0.5 0.86603 0 0.5 0.86603 0 0.5 0.86603 0 0.5 0.86603 0 0.5 0.86603 0</float_array><technique_common><accessor source="#g-n-a" count="250" stride="3"><param name="X" type="float"/><param name="Y" type="float"/><param name="Z" type="float"/></accessor></technique_common></source>
<vertices id="g-v"><input semantic="POSITION" source="#g-p"/><input semantic="NORMAL" source="#g-n"/></vertices>
<triangles material="m0" count="72"><input semantic="VERTEX" source="#g-v" offset="0"/><p>2 1 0 1 2 3 6 5 4 5 6 7 10 9 8 9 10 11 14 13 12 13 14 15 18 17 16 17 18 19 22 21 20 21 22 23 26 25 24 25 26 27 30 29 28 29 30 31 34 33 32 33 34 35 38 37 36 37 38 39 37 39 40 40 39 41 44 43 42 43 44 45 48 47 46 47 48 49 52 51 50 51 52 53 56 55 54 55 56 57 60 59 58 59 60 61 59 61 62 63 62 61 64 62 63 62 64 65 68 67 66 67 68 69 72 71 70 72 73 71 73 72 74 75 74 72 74 75 76 76 75 77 80 79 78 79 80 81 84 83 82 83 84 85 88 87 86 87 88 89 92 91 90 91 92 93 96 95 94 95 96 97 100 99 98 99 100 101 104 103 102 103 104 105 108 107 106 107 108 109 112 111 110 111 112 113 116 115 114 115 116 117 120 119 118 119 120 121 124 123 122 123 124 125 128 127 126 127 128 129 132 131 130 131 132 133</p></triangles>
<triangles material="m1" count="6"><input semantic="VERTEX" source="#g-v" offset="0"/><p>136 135 134 148 147 146 170 169 168 190 189 188 205 206 207 210 209 208</p></triangles>
<triangles material="m2" count="50"><input semantic="VERTEX" source="#g-v" offset="0"/><p>135 136 137 140 139 138 139 140 141 144 143 142 143 144 145 147 148 149 152 151 150 151 152 153 156 155 154 155 156 157 160 159 158 159 160 161 159 161 162 162 161 163 166 165 164 165 166 167 169 170 171 174 173 172 173 174 175 178 177 176 177 178 179 182 181 180 181 182 183 186 185 184 185 186 187 189 190 191 194 193 192 193 194 195 198 197 196 197 198 199 202 201 200 201 202 203 206 205 204 209 210 211 214 213 212 213 214 215 213 215 216 216 215 217 220 219 218 219 220 221 224 223 222 223 224 225 228 227 226 227 228 229 232 231 230 231 232 233 236 235 234 235 236 237 240 239 238 239 240 241</p></triangles>
<triangles material="m3" count="4"><input semantic="VERTEX" source="#g-v" offset="0"/><p>244 243 242 243 244 245 248 247 246 247 248 249</p></triangles>
</mesh></geometry></library_geometries><library_visual_scenes><visual_scene id="Scene"><node id="n" name="bottle"><instance_geometry url="#g"><bind_material><technique_common>
<instance_material symbol="m0" target="#m0"/>
<instance_material symbol="m1" target="#m1"/>
<instance_material symbol="m2" target="#m2"/>
<instance_material symbol="m3" target="#m3"/>
</technique_common></bind_material></instance_geometry></node></visual_scene></library_visual_scenes><scene><instance_visual_scene url="#Scene"/></scene></COLLADA>
