<?xml version="1.0" encoding="utf-8"?>
<COLLADA xmlns="http://www.collada.org/2005/11/COLLADASchema" version="1.4.1">
<asset><contributor><authoring_tool>VATs starter props (see CREDITS.md)</authoring_tool></contributor><unit name="meter" meter="1"/><up_axis>Z_UP</up_axis></asset>
<library_effects>
<effect id="m0-fx"><profile_COMMON><technique sid="common"><lambert><diffuse><color>0.400 0.300 0.230 1</color></diffuse></lambert></technique></profile_COMMON></effect>
<effect id="m1-fx"><profile_COMMON><technique sid="common"><lambert><diffuse><color>0.620 0.470 0.340 1</color></diffuse></lambert></technique></profile_COMMON></effect>
<effect id="m2-fx"><profile_COMMON><technique sid="common"><lambert><diffuse><color>0.800 0.760 0.680 1</color></diffuse></lambert></technique></profile_COMMON></effect>
</library_effects><library_materials>
<material id="m0" name="m0"><instance_effect url="#m0-fx"/></material>
<material id="m1" name="m1"><instance_effect url="#m1-fx"/></material>
<material id="m2" name="m2"><instance_effect url="#m2-fx"/></material>
</library_materials><library_geometries><geometry id="g" name="bow"><mesh>
<source id="g-p"><float_array id="g-p-a" count="3918">-0.023744 0.084589 0.25563 0.00018227 0.1049 0.28872 4.1685e-08 0.094623 0.25091 -0.017481 0.10483 0.29172 1.194e-07 0.15066 0.38073 -0.018637 0.161 0.36669 -0.017661 0.1428 0.3811 1.0845e-07 0.16985 0.36554 1.194e-07 0.15066 0.38073 0.018637 0.161 0.36669 1.0845e-07 0.16985 0.36554 0.017662 0.14376 0.38002 -0.017661 0.1428 0.3811 -0.018637 0.161 0.36669 -0.026357 0.13398 0.36946 -0.024977 0.13003 0.38242 1.1833e-07 0.1005 0.38368 -0.017661 0.10836 0.38331 1.077e-07 0.1015 0.37339 -0.018637 0.11035 0.37224 0.024977 0.13003 0.38242 0.018637 0.11035 0.37224 0.026357 0.13398 0.36946 0.017662 0.10836 0.38331 5.2067e-08 0.10678 0.3195 0.023744 0.1208 0.31427 0.018637 0.11035 0.37224 1.077e-07 0.1015 0.37339 -0.023744 0.1208 0.31427 -0.026357 0.13398 0.36946 -0.033579 0.15464 0.30166 -0.018637 0.11035 0.37224 0.033579 0.15464 0.30166 0.023744 0.18849 0.28904 0.018637 0.161 0.36669 0.026357 0.13398 0.36946 1.194e-07 0.15066 0.38073 -0.016733 0.15075 0.39564 1.2985e-07 0.15767 0.39601 -0.017661 0.1428 0.3811 0.026357 0.13398 0.36946 0.018637 0.161 0.36669 0.017662 0.14376 0.38002 0.024977 0.13003 0.38242 -0.018637 0.11035 0.37224 -0.024977 0.13003 0.38242 -0.026357 0.13398 0.36946 -0.017661 0.10836 0.38331 0.017662 0.10836 0.38331 1.077e-07 0.1015 0.37339 0.018637 0.11035 0.37224 1.1833e-07 0.1005 0.38368 1.194e-07 0.15066 0.38073 0.016733 0.15075 0.39564 0.017662 0.14376 0.38002 1.2985e-07 0.15767 0.39601 -0.023664 0.12627 0.39475 -0.017661 0.1428 0.3811 -0.024977 0.13003 0.38242 -0.016733 0.15075 0.39564 -0.016733 0.10646 0.39385 -0.017661 0.10836 0.38331 1.1833e-07 0.1005 0.38368 1.2845e-07 0.099537 0.39348 0.023664 0.12627 0.39475 0.017662 0.10836 0.38331 0.024977 0.13003 0.38242 0.016733 0.10646 0.39385 8.7818e-08 -0.071156 -0.63914 -0.012976 0.013892 -0.58089 8.4742e-08 0.017474 -0.58478 -0.010041 -0.072232 -0.63512 0.012976 0.013892 -0.58089 0.0142 -0.074828 -0.62542 0.010041 -0.072232 -0.63512 0.018351 0.0052435 -0.57149 0.018351 0.0052435 -0.57149 0.010041 -0.077425 -0.61572 0.0142 -0.074828 -0.62542 0.012976 -0.0034047 -0.5621 -0.010041 -0.077425 -0.61572 9.1772e-08 -0.0069869 -0.55821 -0.012976 -0.0034047 -0.5621 9.5339e-08 -0.0785 -0.61171 -0.0142 -0.074828 -0.62542 -0.018351 0.0052435 -0.57149 -0.012976 0.013892 -0.58089 -0.010041 -0.072232 -0.63512 8.7818e-08 -0.071156 -0.63914 0.012976 0.013892 -0.58089 0.010041 -0.072232 -0.63512 8.4742e-08 0.017474 -0.58478 0.010041 -0.077425 -0.61572 9.1772e-08 -0.0069869 -0.55821 9.5339e-08 -0.0785 -0.61171 0.012976 -0.0034047 -0.5621 -0.010041 -0.077425 -0.61572 -0.012976 -0.0034047 -0.5621 -0.018351 0.0052435 -0.57149 -0.0142 -0.074828 -0.62542 -0.013329 0.0063472 -0.56215 -0.018351 0.0052435 -0.57149 -0.012976 -0.0034047 -0.5621 -0.01885 0.014881 -0.565 0.012976 -0.0034047 -0.5621 9.112e-08 0.0024633 -0.55827 9.1772e-08 -0.0069869 -0.55821 0.013329 0.0063472 -0.56215 0.012976 0.013892 -0.58089 8.45e-08 0.022721 -0.5745 0.013329 0.018837 -0.57063 8.4742e-08 0.017474 -0.58478 -0.018351 0.0052435 -0.57149 -0.01885 0.014881 -0.565 -0.013329 0.018837 -0.57063 -0.012976 0.013892 -0.58089 -0.012976 -0.0034047 -0.5621 9.112e-08 0.0024633 -0.55827 -0.013329 0.0063472 -0.56215 9.1772e-08 -0.0069869 -0.55821 0.018351 0.0052435 -0.57149 0.018851 0.014881 -0.565 0.013329 0.0063472 -0.56215 0.012976 -0.0034047 -0.5621 0.018351 0.0052435 -0.57149 0.013329 0.018837 -0.57063 0.018851 0.014881 -0.565 0.012976 0.013892 -0.58089 -0.012976 0.013892 -0.58089 8.45e-08 0.022721 -0.5745 8.4742e-08 0.017474 -0.58478 -0.013329 0.018837 -0.57063 0.023664 0.12627 -0.39475 0.023744 0.1208 -0.31427 0.016733 0.10646 -0.39385 0.033579 0.15464 -0.30166 0.0016004 -0.18706 -2.6977e-10 -0.0039532 -0.18386 6.665e-10 -0.002102 -0.18706 3.5441e-10 0.0034516 -0.18386 -5.8186e-10 0.0016004 -0.18065 -2.6977e-10 -0.002102 -0.18065 3.5441e-10 0.0097049 -0.18512 -0.74597 -0.013725 -0.17834 -0.72634 0.013725 -0.17834 -0.72634 -0.0097047 -0.18512 -0.74597 -0.0097047 -0.16655 -0.73171 9.2351e-08 -0.16125 -0.72768 0.0097049 -0.16655 -0.73171 0.013725 -0.17834 -0.72634 -0.0097047 -0.16655 -0.73171 0.0097049 -0.16655 -0.73171 -0.013725 -0.17834 -0.72634 -0.017481 0.10483 -0.29172 -4.928e-08 0.11539 -0.28867 -0.023744 0.11275 -0.29269 0.00018218 0.1049 -0.28872 0.023744 0.089227 -0.30146 0.017845 0.10483 -0.29172 0.017845 0.087331 -0.29824 0.023744 0.11275 -0.29269 -0.023744 0.089227 -0.30146 -5.3564e-08 0.075208 -0.30669 -0.017481 0.087331 -0.29824 0.00018217 0.076902 -0.30213 -0.023744 0.089227 -0.30146 -0.017481 0.10483 -0.29172 -0.023744 0.11275 -0.29269 -0.017481 0.087331 -0.29824 0.017845 0.087331 -0.29824 -5.3564e-08 0.075208 -0.30669 0.023744 0.089227 -0.30146 0.00018217 0.076902 -0.30213 -4.928e-08 0.11539 -0.28867 -0.033579 0.14659 -0.28007 -0.023744 0.11275 -0.29269 -0.023744 0.18044 -0.26746 -4.1048e-08 0.19446 -0.26223 0.017845 0.10483 -0.29172 -4.928e-08 0.11539 -0.28867 0.00018218 0.1049 -0.28872 0.023744 0.11275 -0.29269 -0.023664 0.12627 -0.39475 -0.018437 0.11008 -0.47912 -0.026073 0.093555 -0.47095 -0.016733 0.15075 -0.39564 3.0302e-08 0.070187 -0.45938 -0.016733 0.10646 -0.39385 -0.018437 0.077031 -0.46277 -4.2257e-09 0.099537 -0.39348 0.026074 0.093555 -0.47095 0.016733 0.10646 -0.39385 0.018437 0.077031 -0.46277 0.023664 0.12627 -0.39475 0.018437 0.11008 -0.47912 0.023664 0.12627 -0.39475 0.026074 0.093555 -0.47095 0.016733 0.15075 -0.39564 -0.018437 0.11008 -0.47912 -3.6769e-09 0.15767 -0.39601 2.4745e-08 0.11692 -0.48251 -0.016733 0.15075 -0.39564 -0.016733 0.10646 -0.39385 -0.026073 0.093555 -0.47095 -0.018437 0.077031 -0.46277 -0.023664 0.12627 -0.39475 3.0302e-08 0.070187 -0.45938 0.016733 0.10646 -0.39385 -4.2257e-09 0.099537 -0.39348 0.018437 0.077031 -0.46277 0.018437 0.11008 -0.47912 -3.6769e-09 0.15767 -0.39601 0.016733 0.15075 -0.39564 2.4745e-08 0.11692 -0.48251 -0.023744 0.1165 -0.18075 -0.026129 0.079288 -0.14526 -0.026129 0.10562 -0.13886 -0.023744 0.092066 -0.19822 -2.5226e-08 0.12572 -0.17416 0.026129 0.10562 -0.13886 0.023744 0.1165 -0.18075 -1.4884e-08 0.11555 -0.13645 -0.023744 0.092066 -0.19822 -2.167e-08 0.076205 -0.14601 -0.026129 0.079288 -0.14526 -3.3339e-08 0.089205 -0.20028 -2.5226e-08 0.12572 -0.17416 -0.026129 0.10562 -0.13886 -1.4884e-08 0.11555 -0.13645 -0.023744 0.1165 -0.18075 0.023744 0.092066 -0.19822 -2.167e-08 0.076205 -0.14601 -3.3339e-08 0.089205 -0.20028 0.026129 0.079288 -0.14526 0.026129 0.079288 -0.14526 0.023744 0.1165 -0.18075 0.026129 0.10562 -0.13886 0.023744 0.092066 -0.19822 -3.5239e-08 0.082422 -0.20511 0.023744 0.092066 -0.19822 -3.3339e-08 0.089205 -0.20028 0.023744 0.073855 -0.21124 -4.2914e-08 0.094623 -0.25091 -0.023744 0.10069 -0.24269 -4.0629e-08 0.11105 -0.23968 -0.023744 0.084589 -0.25563 0.023744 0.10069 -0.24269 0.023744 0.073855 -0.21124 0.023744 0.084589 -0.25563 0.023744 0.092066 -0.19822 -3.5239e-08 0.082422 -0.20511 -0.023744 0.092066 -0.19822 -0.023744 0.073855 -0.21124 -3.3339e-08 0.089205 -0.20028 -0.023744 0.084589 -0.25563 -0.023744 0.073855 -0.21124 -0.023744 0.10069 -0.24269 -0.023744 0.092066 -0.19822 -4.2914e-08 0.094623 -0.25091 0.023744 0.10069 -0.24269 0.023744 0.084589 -0.25563 -4.0629e-08 0.11105 -0.23968 -4.0629e-08 0.11105 -0.23968 0.023744 0.1223 -0.22532 0.023744 0.10069 -0.24269 -3.7563e-08 0.13309 -0.22461 -0.023744 0.10069 -0.24269 -0.023744 0.092066 -0.19822 -0.023744 0.1223 -0.22532 -0.023744 0.1165 -0.18075 0.023744 0.1223 -0.22532 0.023744 0.092066 -0.19822 0.023744 0.10069 -0.24269 0.023744 0.1165 -0.18075 -3.7563e-08 0.13309 -0.22461 0.023744 0.1165 -0.18075 0.023744 0.1223 -0.22532 -2.5226e-08 0.12572 -0.17416 -3.7563e-08 0.13309 -0.22461 -0.023744 0.1165 -0.18075 -2.5226e-08 0.12572 -0.17416 -0.023744 0.1223 -0.22532 -4.0629e-08 0.11105 -0.23968 -0.023744 0.1223 -0.22532 -3.7563e-08 0.13309 -0.22461 -0.023744 0.10069 -0.24269 -0.023744 0.084589 -0.25563 -0.023744 0.053772 -0.2256 -0.023744 0.073855 -0.21124 -0.023744 0.061068 -0.26591 -0.023744 0.061068 -0.26591 -4.4708e-08 0.041801 -0.23415 -0.023744 0.053772 -0.2256 -4.7723e-08 0.047048 -0.27204 -0.023744 0.053772 -0.2256 -3.5239e-08 0.082422 -0.20511 -0.023744 0.073855 -0.21124 -4.4708e-08 0.041801 -0.23415 -3.5239e-08 0.082422 -0.20511 0.023744 0.053772 -0.2256 0.023744 0.073855 -0.21124 -4.4708e-08 0.041801 -0.23415 0.023744 0.084589 -0.25563 0.017845 0.087331 -0.29824 0.017845 0.10483 -0.29172 0.023744 0.061068 -0.26591 -0.017481 0.087331 -0.29824 -4.7723e-08 0.047048 -0.27204 -0.023744 0.061068 -0.26591 0.00018217 0.076902 -0.30213 -0.017481 0.087331 -0.29824 -0.023744 0.084589 -0.25563 -0.017481 0.10483 -0.29172 -0.023744 0.061068 -0.26591 0.017845 0.087331 -0.29824 -4.7723e-08 0.047048 -0.27204 0.00018217 0.076902 -0.30213 0.023744 0.061068 -0.26591 0.023744 0.053772 -0.2256 0.023744 0.084589 -0.25563 0.023744 0.073855 -0.21124 0.023744 0.061068 -0.26591 0.023744 0.061068 -0.26591 -4.4708e-08 0.041801 -0.23415 -4.7723e-08 0.047048 -0.27204 0.023744 0.053772 -0.2256 0.00018218 0.1049 -0.28872 0.023744 0.084589 -0.25563 0.017845 0.10483 -0.29172 -4.2914e-08 0.094623 -0.25091 -0.023744 0.097274 -0.32304 -5.3564e-08 0.075208 -0.30669 -0.023744 0.089227 -0.30146 -5.714e-08 0.083254 -0.32827 -5.5661e-08 0.10678 -0.3195 -5.714e-08 0.083254 -0.32827 -0.023744 0.097274 -0.32304 -0.023744 0.1208 -0.31427 0.023744 0.097274 -0.32304 -5.3564e-08 0.075208 -0.30669 -5.714e-08 0.083254 -0.32827 0.023744 0.089227 -0.30146 0.033579 0.14659 -0.28007 0.023744 0.18849 -0.28904 0.023744 0.18044 -0.26746 0.033579 0.15464 -0.30166 0.023744 0.11275 -0.29269 0.033579 0.15464 -0.30166 0.033579 0.14659 -0.28007 0.023744 0.1208 -0.31427 -0.023744 0.089227 -0.30146 -0.023744 0.1208 -0.31427 -0.023744 0.097274 -0.32304 -0.023744 0.11275 -0.29269 -0.023744 0.18849 -0.28904 -0.033579 0.14659 -0.28007 -0.023744 0.18044 -0.26746 -0.033579 0.15464 -0.30166 -4.4623e-08 0.20251 -0.28381 0.023744 0.18044 -0.26746 0.023744 0.18849 -0.28904 -4.1048e-08 0.19446 -0.26223 -0.033579 0.15464 -0.30166 -0.023744 0.11275 -0.29269 -0.033579 0.14659 -0.28007 -0.023744 0.1208 -0.31427 0.023744 0.097274 -0.32304 -5.5661e-08 0.10678 -0.3195 0.023744 0.1208 -0.31427 -5.714e-08 0.083254 -0.32827 -4.4623e-08 0.20251 -0.28381 -0.023744 0.18044 -0.26746 -4.1048e-08 0.19446 -0.26223 -0.023744 0.18849 -0.28904 0.023744 0.11275 -0.29269 0.033579 0.14659 -0.28007 -4.928e-08 0.11539 -0.28867 0.023744 0.18044 -0.26746 -4.1048e-08 0.19446 -0.26223 0.00018218 0.1049 -0.28872 -0.023744 0.084589 -0.25563 -4.2914e-08 0.094623 -0.25091 -0.017481 0.10483 -0.29172 -5.5661e-08 0.10678 -0.3195 -0.016733 0.10646 -0.39385 -4.2257e-09 0.099537 -0.39348 -0.023744 0.1208 -0.31427 -0.023744 0.18849 -0.28904 -0.016733 0.15075 -0.39564 -0.033579 0.15464 -0.30166 -0.023664 0.12627 -0.39475 -3.6769e-09 0.15767 -0.39601 0.023744 0.18849 -0.28904 0.016733 0.15075 -0.39564 -4.4623e-08 0.20251 -0.28381 -5.5661e-08 0.10678 -0.3195 -4.2257e-09 0.099537 -0.39348 0.016733 0.10646 -0.39385 0.023744 0.1208 -0.31427 -0.023664 0.12627 -0.39475 -0.023744 0.1208 -0.31427 -0.033579 0.15464 -0.30166 -0.016733 0.10646 -0.39385 0.033579 0.15464 -0.30166 0.023664 0.12627 -0.39475 0.016733 0.15075 -0.39564 0.023744 0.18849 -0.28904 0.019136 0.020386 -0.56129 0.018437 0.077031 -0.46277 0.013531 0.010593 -0.55196 0.026074 0.093555 -0.47095 9.1097e-08 0.0065367 -0.54809 -0.018437 0.077031 -0.46277 -0.013531 0.010593 -0.55196 3.0302e-08 0.070187 -0.45938 -0.026073 0.093555 -0.47095 -0.013531 0.030178 -0.57063 -0.019136 0.020386 -0.56129 -0.018437 0.11008 -0.47912 0.013531 0.030178 -0.57063 2.4745e-08 0.11692 -0.48251 0.018437 0.11008 -0.47912 8.416e-08 0.034234 -0.5745 9.1097e-08 0.0065367 -0.54809 0.018437 0.077031 -0.46277 3.0302e-08 0.070187 -0.45938 0.013531 0.010593 -0.55196 -0.018437 0.077031 -0.46277 -0.019136 0.020386 -0.56129 -0.013531 0.010593 -0.55196 -0.026073 0.093555 -0.47095 -0.013531 0.030178 -0.57063 2.4745e-08 0.11692 -0.48251 8.416e-08 0.034234 -0.5745 -0.018437 0.11008 -0.47912 -0.023744 0.18849 -0.28904 -3.6769e-09 0.15767 -0.39601 -0.016733 0.15075 -0.39564 -4.4623e-08 0.20251 -0.28381 8.45e-08 0.022721 -0.5745 -0.013531 0.030178 -0.57063 8.416e-08 0.034234 -0.5745 -0.013329 0.018837 -0.57063 0.013329 0.018837 -0.57063 0.013531 0.030178 -0.57063 0.019136 0.020386 -0.56129 0.018851 0.014881 -0.565 0.018851 0.014881 -0.565 0.013531 0.010593 -0.55196 0.013329 0.0063472 -0.56215 0.019136 0.020386 -0.56129 9.112e-08 0.0024633 -0.55827 -0.013531 0.010593 -0.55196 -0.013329 0.0063472 -0.56215 9.1097e-08 0.0065367 -0.54809 -0.013329 0.018837 -0.57063 -0.019136 0.020386 -0.56129 -0.013531 0.030178 -0.57063 -0.01885 0.014881 -0.565 8.45e-08 0.022721 -0.5745 0.013531 0.030178 -0.57063 0.013329 0.018837 -0.57063 8.416e-08 0.034234 -0.5745 9.112e-08 0.0024633 -0.55827 0.013531 0.010593 -0.55196 9.1097e-08 0.0065367 -0.54809 0.013329 0.0063472 -0.56215 0.013531 0.030178 -0.57063 0.018437 0.11008 -0.47912 0.026074 0.093555 -0.47095 0.019136 0.020386 -0.56129 0.0082385 -0.15813 -0.65706 9.5339e-08 -0.0785 -0.61171 1.009e-07 -0.16072 -0.65484 0.010041 -0.077425 -0.61572 -0.010041 -0.077425 -0.61572 -0.011651 -0.15187 -0.66242 -0.0082383 -0.15813 -0.65706 -0.0142 -0.074828 -0.62542 9.6956e-08 -0.14302 -0.67 -0.010041 -0.072232 -0.63512 8.7818e-08 -0.071156 -0.63914 -0.0082383 -0.14561 -0.66778 0.0082385 -0.14561 -0.66778 0.010041 -0.072232 -0.63512 0.0142 -0.074828 -0.62542 0.011651 -0.15187 -0.66242 0.011651 -0.15187 -0.66242 0.0142 -0.074828 -0.62542 0.010041 -0.077425 -0.61572 0.0082385 -0.15813 -0.65706 -0.0082383 -0.15813 -0.65706 9.5339e-08 -0.0785 -0.61171 -0.010041 -0.077425 -0.61572 1.009e-07 -0.16072 -0.65484 -0.0142 -0.074828 -0.62542 -0.0082383 -0.14561 -0.66778 -0.011651 -0.15187 -0.66242 -0.010041 -0.072232 -0.63512 -0.01885 0.014881 -0.565 -0.013531 0.010593 -0.55196 -0.019136 0.020386 -0.56129 -0.013329 0.0063472 -0.56215 -0.011651 -0.15187 -0.66242 -0.0075453 -0.17187 -0.69894 -0.010671 -0.17891 -0.69625 -0.0082383 -0.14561 -0.66778 0.0075454 -0.17187 -0.69894 9.6956e-08 -0.14302 -0.67 0.0082385 -0.14561 -0.66778 9.2953e-08 -0.16895 -0.70006 9.4666e-08 -0.18888 -0.69244 0.0082385 -0.15813 -0.65706 1.009e-07 -0.16072 -0.65484 0.0075454 -0.18596 -0.69356 -0.0082383 -0.15813 -0.65706 -0.010671 -0.17891 -0.69625 -0.0075453 -0.18596 -0.69356 -0.011651 -0.15187 -0.66242 -0.0075453 -0.17187 -0.69894 9.6956e-08 -0.14302 -0.67 9.2953e-08 -0.16895 -0.70006 -0.0082383 -0.14561 -0.66778 0.0075454 -0.17187 -0.69894 0.011651 -0.15187 -0.66242 0.010671 -0.17891 -0.69625 0.0082385 -0.14561 -0.66778 0.010671 -0.17891 -0.69625 0.0082385 -0.15813 -0.65706 0.0075454 -0.18596 -0.69356 0.011651 -0.15187 -0.66242 9.6956e-08 -0.14302 -0.67 0.010041 -0.072232 -0.63512 0.0082385 -0.14561 -0.66778 8.7818e-08 -0.071156 -0.63914 0.0076773 -0.17805 -0.70879 9.2953e-08 -0.16895 -0.70006 0.0075454 -0.17187 -0.69894 9.2068e-08 -0.17386 -0.70879 -0.0075453 -0.18596 -0.69356 -0.010857 -0.18818 -0.70879 -0.0076771 -0.19831 -0.70879 -0.010671 -0.17891 -0.69625 -0.0076771 -0.17805 -0.70879 9.2953e-08 -0.16895 -0.70006 9.2068e-08 -0.17386 -0.70879 -0.0075453 -0.17187 -0.69894 9.1463e-08 -0.20251 -0.70879 -0.0075453 -0.18596 -0.69356 -0.0076771 -0.19831 -0.70879 9.4666e-08 -0.18888 -0.69244 0.010857 -0.18818 -0.70879 0.010671 -0.17891 -0.69625 0.0075454 -0.18596 -0.69356 0.0076773 -0.19831 -0.70879 0.0076773 -0.17805 -0.70879 0.010671 -0.17891 -0.69625 0.010857 -0.18818 -0.70879 0.0075454 -0.17187 -0.69894 -0.010671 -0.17891 -0.69625 -0.0076771 -0.17805 -0.70879 -0.010857 -0.18818 -0.70879 -0.0075453 -0.17187 -0.69894 9.4666e-08 -0.18888 -0.69244 -0.0082383 -0.15813 -0.65706 -0.0075453 -0.18596 -0.69356 1.009e-07 -0.16072 -0.65484 9.1463e-08 -0.20251 -0.70879 0.0075454 -0.18596 -0.69356 9.4666e-08 -0.18888 -0.69244 0.0076773 -0.19831 -0.70879 0.0076773 -0.17805 -0.70879 0.013725 -0.17834 -0.72634 0.0097049 -0.16655 -0.73171 0.010857 -0.18818 -0.70879 9.2351e-08 -0.16125 -0.72768 0.0076773 -0.17805 -0.70879 0.0097049 -0.16655 -0.73171 9.2068e-08 -0.17386 -0.70879 0.0097049 -0.18512 -0.74597 8.4969e-08 -0.19042 -0.75 -0.0097047 -0.18512 -0.74597 -0.0097047 -0.16655 -0.73171 -0.0076771 -0.17805 -0.70879 9.2351e-08 -0.16125 -0.72768 9.2068e-08 -0.17386 -0.70879 -0.013725 -0.17834 -0.72634 -0.0076771 -0.17805 -0.70879 -0.0097047 -0.16655 -0.73171 -0.010857 -0.18818 -0.70879 -0.0097047 -0.18512 -0.74597 -0.0076771 -0.19831 -0.70879 -0.013725 -0.17834 -0.72634 -0.010857 -0.18818 -0.70879 8.4969e-08 -0.19042 -0.75 9.1463e-08 -0.20251 -0.70879 -0.0097047 -0.18512 -0.74597 -0.0076771 -0.19831 -0.70879 0.0097049 -0.18512 -0.74597 9.1463e-08 -0.20251 -0.70879 8.4969e-08 -0.19042 -0.75 0.0076773 -0.19831 -0.70879 0.013725 -0.17834 -0.72634 0.0076773 -0.19831 -0.70879 0.0097049 -0.18512 -0.74597 0.010857 -0.18818 -0.70879 0.026357 0.13398 0.36946 0.023744 0.1208 0.31427 0.033579 0.15464 0.30166 0.018637 0.11035 0.37224 -0.013724 -0.17834 0.72634 0.0097051 -0.18512 0.74597 0.013725 -0.17834 0.72634 -0.0097044 -0.18512 0.74597 -0.0097044 -0.16655 0.73171 0.0097051 -0.16655 0.73171 3.3771e-07 -0.16125 0.72768 -0.0097044 -0.16655 0.73171 0.013725 -0.17834 0.72634 0.0097051 -0.16655 0.73171 -0.013724 -0.17834 0.72634 4.8051e-08 0.11539 0.28867 -0.017481 0.10483 0.29172 -0.023744 0.11275 0.29269 0.00018227 0.1049 0.28872 0.023744 0.089227 0.30146 0.017845 0.10483 0.29172 0.023744 0.11275 0.29269 0.017845 0.087331 0.29824 4.9844e-08 0.075208 0.30669 -0.017481 0.087331 0.29824 0.00018228 0.076902 0.30213 -0.023744 0.089227 0.30146 -0.023744 0.089227 0.30146 -0.017481 0.10483 0.29172 -0.017481 0.087331 0.29824 -0.023744 0.11275 0.29269 4.9844e-08 0.075208 0.30669 0.017845 0.087331 0.29824 0.023744 0.089227 0.30146 0.00018228 0.076902 0.30213 -0.023744 0.18044 0.26746 4.8051e-08 0.11539 0.28867 -0.033579 0.14659 0.28007 4.7369e-08 0.19446 0.26223 -0.023744 0.11275 0.29269 4.8051e-08 0.11539 0.28867 0.023744 0.11275 0.29269 0.017845 0.10483 0.29172 0.00018227 0.1049 0.28872 -0.023664 0.12627 0.39475 -0.018437 0.11008 0.47912 -0.016733 0.15075 0.39564 -0.026073 0.093555 0.47095 1.8519e-07 0.070187 0.45938 -0.016733 0.10646 0.39385 1.2845e-07 0.099537 0.39348 -0.018437 0.077031 0.46277 0.026074 0.093555 0.47095 0.016733 0.10646 0.39385 0.023664 0.12627 0.39475 0.018437 0.077031 0.46277 0.018437 0.11008 0.47912 0.023664 0.12627 0.39475 0.016733 0.15075 0.39564 0.026074 0.093555 0.47095 -0.018437 0.11008 0.47912 1.2985e-07 0.15767 0.39601 -0.016733 0.15075 0.39564 1.8744e-07 0.11692 0.48251 -0.016733 0.10646 0.39385 -0.026073 0.093555 0.47095 -0.023664 0.12627 0.39475 -0.018437 0.077031 0.46277 0.016733 0.10646 0.39385 1.8519e-07 0.070187 0.45938 1.2845e-07 0.099537 0.39348 0.018437 0.077031 0.46277 1.2985e-07 0.15767 0.39601 0.018437 0.11008 0.47912 0.016733 0.15075 0.39564 1.8744e-07 0.11692 0.48251 -0.026129 0.079288 0.14526 -0.023744 0.1165 0.18075 -0.026129 0.10562 0.13886 -0.023744 0.092066 0.19822 3.3495e-08 0.12572 0.17416 0.026129 0.10562 0.13886 3.1124e-08 0.11555 0.13645 0.023744 0.1165 0.18075 2.756e-08 0.076205 0.14601 -0.023744 0.092066 0.19822 -0.026129 0.079288 0.14526 3.4191e-08 0.089205 0.20028 -0.026129 0.10562 0.13886 3.3495e-08 0.12572 0.17416 3.1124e-08 0.11555 0.13645 -0.023744 0.1165 0.18075 0.023744 0.092066 0.19822 2.756e-08 0.076205 0.14601 0.026129 0.079288 0.14526 3.4191e-08 0.089205 0.20028 0.023744 0.1165 0.18075 0.026129 0.079288 0.14526 0.026129 0.10562 0.13886 0.023744 0.092066 0.19822 3.3919e-08 0.082422 0.20511 0.023744 0.092066 0.19822 0.023744 0.073855 0.21124 3.4191e-08 0.089205 0.20028 4.1685e-08 0.094623 0.25091 -0.023744 0.10069 0.24269 -0.023744 0.084589 0.25563 4.0184e-08 0.11105 0.23968 0.023744 0.073855 0.21124 0.023744 0.10069 0.24269 0.023744 0.084589 0.25563 0.023744 0.092066 0.19822 3.3919e-08 0.082422 0.20511 -0.023744 0.092066 0.19822 3.4191e-08 0.089205 0.20028 -0.023744 0.073855 0.21124 -0.023744 0.10069 0.24269 -0.023744 0.073855 0.21124 -0.023744 0.084589 0.25563 -0.023744 0.092066 0.19822 4.1685e-08 0.094623 0.25091 0.023744 0.10069 0.24269 4.0184e-08 0.11105 0.23968 0.023744 0.084589 0.25563 4.0184e-08 0.11105 0.23968 0.023744 0.1223 0.22532 3.8171e-08 0.13309 0.22461 0.023744 0.10069 0.24269 -0.023744 0.092066 0.19822 -0.023744 0.10069 0.24269 -0.023744 0.1223 0.22532 -0.023744 0.1165 0.18075 0.023744 0.092066 0.19822 0.023744 0.1223 0.22532 0.023744 0.10069 0.24269 0.023744 0.1165 0.18075 3.8171e-08 0.13309 0.22461 0.023744 0.1165 0.18075 3.3495e-08 0.12572 0.17416 0.023744 0.1223 0.22532 -0.023744 0.1165 0.18075 3.8171e-08 0.13309 0.22461 3.3495e-08 0.12572 0.17416 -0.023744 0.1223 0.22532 0.023744 0.1208 -0.31427 0.023744 0.089227 -0.30146 0.023744 0.097274 -0.32304 0.023744 0.11275 -0.29269 4.0184e-08 0.11105 0.23968 -0.023744 0.1223 0.22532 -0.023744 0.10069 0.24269 3.8171e-08 0.13309 0.22461 -0.023744 0.053772 0.2256 -0.023744 0.084589 0.25563 -0.023744 0.073855 0.21124 -0.023744 0.061068 0.26591 3.4243e-08 0.041801 0.23415 -0.023744 0.061068 0.26591 -0.023744 0.053772 0.2256 4.4003e-08 0.047048 0.27204 -0.023744 0.053772 0.2256 3.3919e-08 0.082422 0.20511 3.4243e-08 0.041801 0.23415 -0.023744 0.073855 0.21124 3.3919e-08 0.082422 0.20511 0.023744 0.073855 0.21124 0.023744 0.053772 0.2256 3.4243e-08 0.041801 0.23415 0.017845 0.087331 0.29824 0.023744 0.084589 0.25563 0.017845 0.10483 0.29172 0.023744 0.061068 0.26591 4.4003e-08 0.047048 0.27204 -0.017481 0.087331 0.29824 -0.023744 0.061068 0.26591 0.00018228 0.076902 0.30213 -0.017481 0.087331 0.29824 -0.023744 0.084589 0.25563 -0.023744 0.061068 0.26591 -0.017481 0.10483 0.29172 0.017845 0.087331 0.29824 4.4003e-08 0.047048 0.27204 0.023744 0.061068 0.26591 0.00018228 0.076902 0.30213 0.023744 0.073855 0.21124 0.023744 0.084589 0.25563 0.023744 0.053772 0.2256 0.023744 0.061068 0.26591 0.023744 0.061068 0.26591 3.4243e-08 0.041801 0.23415 0.023744 0.053772 0.2256 4.4003e-08 0.047048 0.27204 0.00018227 0.1049 0.28872 0.023744 0.084589 0.25563 4.1685e-08 0.094623 0.25091 0.017845 0.10483 0.29172 0.023744 0.089227 0.30146 0.023744 0.1208 0.31427 0.023744 0.097274 0.32304 0.023744 0.11275 0.29269 5.2067e-08 0.10678 0.3195 -0.023744 0.1208 0.31427 -0.023744 0.097274 0.32304 5.3545e-08 0.083254 0.32827 4.9844e-08 0.075208 0.30669 -0.023744 0.097274 0.32304 -0.023744 0.089227 0.30146 5.3545e-08 0.083254 0.32827 0.023744 0.097274 0.32304 4.9844e-08 0.075208 0.30669 0.023744 0.089227 0.30146 5.3545e-08 0.083254 0.32827 0.023744 0.18849 0.28904 0.033579 0.14659 0.28007 0.023744 0.18044 0.26746 0.033579 0.15464 0.30166 0.033579 0.15464 0.30166 0.023744 0.11275 0.29269 0.033579 0.14659 0.28007 0.023744 0.1208 0.31427 -0.023744 0.1208 0.31427 -0.023744 0.089227 0.30146 -0.023744 0.097274 0.32304 -0.023744 0.11275 0.29269 -0.033579 0.14659 0.28007 -0.023744 0.18849 0.28904 -0.023744 0.18044 0.26746 -0.033579 0.15464 0.30166 5.107e-08 0.20251 0.28381 0.023744 0.18044 0.26746 4.7369e-08 0.19446 0.26223 0.023744 0.18849 0.28904 0.023744 0.097274 0.32304 5.2067e-08 0.10678 0.3195 5.3545e-08 0.083254 0.32827 0.023744 0.1208 0.31427 -0.023744 0.11275 0.29269 -0.033579 0.15464 0.30166 -0.033579 0.14659 0.28007 -0.023744 0.1208 0.31427 0.023744 0.18044 0.26746 4.8051e-08 0.11539 0.28867 4.7369e-08 0.19446 0.26223 0.033579 0.14659 0.28007 0.023744 0.11275 0.29269 -0.023744 0.18044 0.26746 5.107e-08 0.20251 0.28381 4.7369e-08 0.19446 0.26223 -0.023744 0.18849 0.28904 -0.018637 0.11035 0.37224 -0.023744 0.1208 0.31427 5.2067e-08 0.10678 0.3195 1.077e-07 0.1015 0.37339 -0.018637 0.161 0.36669 -0.023744 0.18849 0.28904 -0.033579 0.15464 0.30166 -0.026357 0.13398 0.36946 1.0845e-07 0.16985 0.36554 0.023744 0.18849 0.28904 5.107e-08 0.20251 0.28381 0.018637 0.161 0.36669 0.016733 0.10646 0.39385 1.2845e-07 0.099537 0.39348 1.1833e-07 0.1005 0.38368 0.017662 0.10836 0.38331 -0.017661 0.10836 0.38331 -0.023664 0.12627 0.39475 -0.024977 0.13003 0.38242 -0.016733 0.10646 0.39385 0.016733 0.15075 0.39564 0.023664 0.12627 0.39475 0.024977 0.13003 0.38242 0.017662 0.14376 0.38002 0.018437 0.077031 0.46277 0.019136 0.020386 0.56129 0.013531 0.010593 0.55196 0.026074 0.093555 0.47095 2.759e-07 0.0065367 0.54809 -0.018437 0.077031 0.46277 1.8519e-07 0.070187 0.45938 -0.013531 0.010593 0.55196 -0.026073 0.093555 0.47095 -0.013531 0.030178 0.57063 -0.018437 0.11008 0.47912 -0.019136 0.020386 0.56129 1.8744e-07 0.11692 0.48251 0.013531 0.030178 0.57063 0.018437 0.11008 0.47912 2.7787e-07 0.034234 0.5745 0.018437 0.077031 0.46277 2.759e-07 0.0065367 0.54809 1.8519e-07 0.070187 0.45938 0.013531 0.010593 0.55196 -0.018437 0.077031 0.46277 -0.019136 0.020386 0.56129 -0.026073 0.093555 0.47095 -0.013531 0.010593 0.55196 -0.013531 0.030178 0.57063 1.8744e-07 0.11692 0.48251 -0.018437 0.11008 0.47912 2.7787e-07 0.034234 0.5745 1.0845e-07 0.16985 0.36554 5.107e-08 0.20251 0.28381 -0.023744 0.18849 0.28904 -0.018637 0.161 0.36669 -0.013531 0.030178 0.57063 3.0332e-07 -0.071156 0.63914 2.7787e-07 0.034234 0.5745 -0.010041 -0.072232 0.63512 0.014201 -0.074828 0.62542 0.013531 0.030178 0.57063 0.010041 -0.072232 0.63512 0.019136 0.020386 0.56129 0.010041 -0.077425 0.61572 0.019136 0.020386 0.56129 0.014201 -0.074828 0.62542 0.013531 0.010593 0.55196 2.759e-07 0.0065367 0.54809 -0.010041 -0.077425 0.61572 -0.013531 0.010593 0.55196 3.0159e-07 -0.0785 0.61171 -0.0142 -0.074828 0.62542 -0.010041 -0.072232 0.63512 -0.013531 0.030178 0.57063 -0.019136 0.020386 0.56129 3.0332e-07 -0.071156 0.63914 0.013531 0.030178 0.57063 2.7787e-07 0.034234 0.5745 0.010041 -0.072232 0.63512 0.010041 -0.077425 0.61572 2.759e-07 0.0065367 0.54809 0.013531 0.010593 0.55196 3.0159e-07 -0.0785 0.61171 0.026074 0.093555 0.47095 0.013531 0.030178 0.57063 0.019136 0.020386 0.56129 0.018437 0.11008 0.47912 0.0082387 -0.15813 0.65706 3.0159e-07 -0.0785 0.61171 0.010041 -0.077425 0.61572 3.217e-07 -0.16072 0.65484 -0.011651 -0.15187 0.66242 -0.010041 -0.077425 0.61572 -0.0082381 -0.15813 0.65706 -0.0142 -0.074828 0.62542 3.2286e-07 -0.14302 0.67 -0.010041 -0.072232 0.63512 -0.0082381 -0.14561 0.66778 3.0332e-07 -0.071156 0.63914 0.0082387 -0.14561 0.66778 0.011651 -0.15187 0.66242 0.014201 -0.074828 0.62542 0.010041 -0.072232 0.63512 0.011651 -0.15187 0.66242 0.0082387 -0.15813 0.65706 0.010041 -0.077425 0.61572 0.014201 -0.074828 0.62542 -0.0082381 -0.15813 0.65706 3.0159e-07 -0.0785 0.61171 3.217e-07 -0.16072 0.65484 -0.010041 -0.077425 0.61572 -0.0082381 -0.14561 0.66778 -0.0142 -0.074828 0.62542 -0.011651 -0.15187 0.66242 -0.010041 -0.072232 0.63512 -0.010041 -0.077425 0.61572 -0.0142 -0.074828 0.62542 -0.019136 0.020386 0.56129 -0.013531 0.010593 0.55196 -0.011651 -0.15187 0.66242 -0.007545 -0.17187 0.69894 -0.0082381 -0.14561 0.66778 -0.01067 -0.17891 0.69625 3.2286e-07 -0.14302 0.67 0.0075457 -0.17187 0.69894 0.0082387 -0.14561 0.66778 3.2899e-07 -0.16895 0.70006 0.0082387 -0.15813 0.65706 3.2814e-07 -0.18888 0.69244 3.217e-07 -0.16072 0.65484 0.0075457 -0.18596 0.69356 -0.0082381 -0.15813 0.65706 -0.01067 -0.17891 0.69625 -0.011651 -0.15187 0.66242 -0.007545 -0.18596 0.69356 -0.007545 -0.17187 0.69894 3.2286e-07 -0.14302 0.67 -0.0082381 -0.14561 0.66778 3.2899e-07 -0.16895 0.70006 0.0075457 -0.17187 0.69894 0.011651 -0.15187 0.66242 0.0082387 -0.14561 0.66778 0.010671 -0.17891 0.69625 0.010671 -0.17891 0.69625 0.0082387 -0.15813 0.65706 0.011651 -0.15187 0.66242 0.0075457 -0.18596 0.69356 3.2286e-07 -0.14302 0.67 0.010041 -0.072232 0.63512 3.0332e-07 -0.071156 0.63914 0.0082387 -0.14561 0.66778 3.2899e-07 -0.16895 0.70006 0.0076776 -0.17805 0.70879 0.0075457 -0.17187 0.69894 3.3105e-07 -0.17386 0.70879 -0.007545 -0.18596 0.69356 -0.010857 -0.18818 0.70879 -0.01067 -0.17891 0.69625 -0.0076769 -0.19831 0.70879 -0.0076769 -0.17805 0.70879 3.2899e-07 -0.16895 0.70006 -0.007545 -0.17187 0.69894 3.3105e-07 -0.17386 0.70879 3.3045e-07 -0.20251 0.70879 -0.007545 -0.18596 0.69356 3.2814e-07 -0.18888 0.69244 -0.0076769 -0.19831 0.70879 0.010858 -0.18818 0.70879 0.0075457 -0.18596 0.69356 0.010671 -0.17891 0.69625 0.0076776 -0.19831 0.70879 0.0076776 -0.17805 0.70879 0.010671 -0.17891 0.69625 0.0075457 -0.17187 0.69894 0.010858 -0.18818 0.70879 -0.01067 -0.17891 0.69625 -0.0076769 -0.17805 0.70879 -0.007545 -0.17187 0.69894 -0.010857 -0.18818 0.70879 3.2814e-07 -0.18888 0.69244 -0.0082381 -0.15813 0.65706 3.217e-07 -0.16072 0.65484 -0.007545 -0.18596 0.69356 0.0075457 -0.18596 0.69356 3.3045e-07 -0.20251 0.70879 3.2814e-07 -0.18888 0.69244 0.0076776 -0.19831 0.70879 0.0076776 -0.17805 0.70879 0.013725 -0.17834 0.72634 0.010858 -0.18818 0.70879 0.0097051 -0.16655 0.73171 0.0076776 -0.17805 0.70879 3.3771e-07 -0.16125 0.72768 0.0097051 -0.16655 0.73171 3.3105e-07 -0.17386 0.70879 0.0097051 -0.18512 0.74597 -0.0097044 -0.18512 0.74597 3.3785e-07 -0.19042 0.75 -0.0076769 -0.17805 0.70879 3.3771e-07 -0.16125 0.72768 3.3105e-07 -0.17386 0.70879 -0.0097044 -0.16655 0.73171 -0.013724 -0.17834 0.72634 -0.0076769 -0.17805 0.70879 -0.010857 -0.18818 0.70879 -0.0097044 -0.16655 0.73171 -0.0076769 -0.19831 0.70879 -0.013724 -0.17834 0.72634 -0.010857 -0.18818 0.70879 -0.0097044 -0.18512 0.74597 3.3045e-07 -0.20251 0.70879 -0.0097044 -0.18512 0.74597 -0.0076769 -0.19831 0.70879 3.3785e-07 -0.19042 0.75 3.3045e-07 -0.20251 0.70879 0.0097051 -0.18512 0.74597 3.3785e-07 -0.19042 0.75 0.0076776 -0.19831 0.70879 0.0076776 -0.19831 0.70879 0.013725 -0.17834 0.72634 0.0097051 -0.18512 0.74597 0.010858 -0.18818 0.70879 0.029537 0.11171 0.075742 2.4878e-08 0.13067 0.087471 0.031408 0.11059 0.092347 2.2019e-08 0.13172 0.071292 3.126e-09 0.12542 -0.031425 0.019876 0.1146 0.031425 0.019876 0.1146 -0.031425 1.3722e-08 0.12542 0.031425 2.1913e-08 0.051139 0.10679 -0.031837 0.075663 0.14132 -0.031408 0.05737 0.10527 2.7027e-08 0.071906 0.14223 3.137e-08 0.11985 0.13059 0.031408 0.11059 0.092347 2.4878e-08 0.13067 0.087471 0.031838 0.10775 0.13353 -0.031408 0.05737 0.10527 -0.031837 0.10775 0.13353 -0.031408 0.11059 0.092347 -0.031837 0.075663 0.14132 -0.031408 0.11059 0.092347 3.137e-08 0.11985 0.13059 2.4878e-08 0.13067 0.087471 -0.031837 0.10775 0.13353 0.031838 0.075663 0.14132 2.1913e-08 0.051139 0.10679 0.031408 0.05737 0.10527 2.7027e-08 0.071906 0.14223 0.031838 0.10775 0.13353 0.031838 0.075663 0.14132 0.031408 0.05737 0.10527 0.031408 0.11059 0.092347 -2.9691e-09 0.13288 -0.078651 0.019876 0.1146 -0.031425 0.03132 0.11118 -0.083923 3.126e-09 0.12542 -0.031425 -0.019876 0.085918 -0.031425 -0.03132 0.11118 -0.083923 -0.03132 0.053629 -0.0979 -0.019876 0.1146 -0.031425 -1.2694e-08 0.046891 -0.099537 -0.019876 0.085918 -0.031425 -0.03132 0.053629 -0.0979 -8.1088e-10 0.082559 -0.031425 -0.019876 0.1146 -0.031425 -2.9691e-09 0.13288 -0.078651 -0.03132 0.11118 -0.083923 3.126e-09 0.12542 -0.031425 0.019876 0.085918 -0.031425 -1.2694e-08 0.046891 -0.099537 0.03132 0.053629 -0.0979 -8.1088e-10 0.082559 -0.031425 0.03132 0.11118 -0.083923 0.019876 0.085918 -0.031425 0.03132 0.053629 -0.0979 0.019876 0.1146 -0.031425 0.031837 0.10775 -0.13353 0.03132 0.053629 -0.0979 0.031837 0.075663 -0.14132 0.03132 0.11118 -0.083923 0.031837 0.075663 -0.14132 -1.2694e-08 0.046891 -0.099537 -2.093e-08 0.071906 -0.14223 0.03132 0.053629 -0.0979 -1.266e-08 0.11985 -0.13059 -0.03132 0.11118 -0.083923 -2.9691e-09 0.13288 -0.078651 -0.031838 0.10775 -0.13353 -0.031838 0.10775 -0.13353 -0.03132 0.053629 -0.0979 -0.03132 0.11118 -0.083923 -0.031838 0.075663 -0.14132 0.026129 0.079288 -0.14526 0.031837 0.10775 -0.13353 0.031837 0.075663 -0.14132 0.026129 0.10562 -0.13886 0.031837 0.075663 -0.14132 -2.093e-08 0.071906 -0.14223 0.026129 0.079288 -0.14526 -2.167e-08 0.076205 -0.14601 -0.026129 0.10562 -0.13886 -1.266e-08 0.11985 -0.13059 -1.4884e-08 0.11555 -0.13645 -0.031838 0.10775 -0.13353 -0.026129 0.079288 -0.14526 -2.093e-08 0.071906 -0.14223 -0.031838 0.075663 -0.14132 -2.167e-08 0.076205 -0.14601 -1.266e-08 0.11985 -0.13059 0.03132 0.11118 -0.083923 0.031837 0.10775 -0.13353 -2.9691e-09 0.13288 -0.078651 -0.031838 0.075663 -0.14132 -1.2694e-08 0.046891 -0.099537 -0.03132 0.053629 -0.0979 -2.093e-08 0.071906 -0.14223 0.026129 0.10562 -0.13886 -1.266e-08 0.11985 -0.13059 0.031837 0.10775 -0.13353 -1.4884e-08 0.11555 -0.13645 -0.026129 0.079288 -0.14526 -0.031838 0.10775 -0.13353 -0.026129 0.10562 -0.13886 -0.031838 0.075663 -0.14132 -0.019876 0.085918 -0.031425 -0.019876 0.1146 0.031425 -0.019876 0.1146 -0.031425 -0.019876 0.085918 0.031425 -8.1088e-10 0.082559 -0.031425 -0.019876 0.085918 0.031425 -0.019876 0.085918 -0.031425 9.7848e-09 0.082559 0.031425 -0.019876 0.1146 -0.031425 1.3722e-08 0.12542 0.031425 3.126e-09 0.12542 -0.031425 -0.019876 0.1146 0.031425 2.2019e-08 0.13172 0.071292 0.019876 0.1146 0.031425 1.3722e-08 0.12542 0.031425 0.029537 0.11171 0.075742 -0.019876 0.085918 0.031425 -0.029537 0.11171 0.075742 -0.019876 0.1146 0.031425 -0.029537 0.05866 0.087541 1.914e-08 0.052449 0.088923 -0.019876 0.085918 0.031425 9.7848e-09 0.082559 0.031425 -0.029537 0.05866 0.087541 -0.019876 0.1146 0.031425 2.2019e-08 0.13172 0.071292 1.3722e-08 0.12542 0.031425 -0.029537 0.11171 0.075742 0.019876 0.085918 -0.031425 9.7848e-09 0.082559 0.031425 -8.1088e-10 0.082559 -0.031425 0.019876 0.085918 0.031425 0.019876 0.085918 0.031425 1.914e-08 0.052449 0.088923 9.7848e-09 0.082559 0.031425 0.029537 0.05866 0.087541 0.019876 0.1146 -0.031425 0.019876 0.085918 0.031425 0.019876 0.085918 -0.031425 0.019876 0.1146 0.031425 0.029537 0.11171 0.075742 0.019876 0.085918 0.031425 0.019876 0.1146 0.031425 0.029537 0.05866 0.087541 2.1913e-08 0.051139 0.10679 -0.029537 0.05866 0.087541 1.914e-08 0.052449 0.088923 -0.031408 0.05737 0.10527 -0.031408 0.05737 0.10527 -0.031408 0.11059 0.092347 -0.029537 0.05866 0.087541 -0.029537 0.11171 0.075742 0.031408 0.11059 0.092347 0.031408 0.05737 0.10527 0.029537 0.05866 0.087541 0.029537 0.11171 0.075742 0.026129 0.079288 0.14526 0.031838 0.10775 0.13353 0.026129 0.10562 0.13886 0.031838 0.075663 0.14132 0.026129 0.079288 0.14526 2.756e-08 0.076205 0.14601 2.7027e-08 0.071906 0.14223 0.031838 0.075663 0.14132 -0.026129 0.10562 0.13886 3.137e-08 0.11985 0.13059 -0.031837 0.10775 0.13353 3.1124e-08 0.11555 0.13645 -0.026129 0.079288 0.14526 2.7027e-08 0.071906 0.14223 2.756e-08 0.076205 0.14601 -0.031837 0.075663 0.14132 -0.029537 0.11171 0.075742 2.4878e-08 0.13067 0.087471 2.2019e-08 0.13172 0.071292 -0.031408 0.11059 0.092347 0.029537 0.05866 0.087541 2.1913e-08 0.051139 0.10679 1.914e-08 0.052449 0.088923 0.031408 0.05737 0.10527 3.137e-08 0.11985 0.13059 0.026129 0.10562 0.13886 0.031838 0.10775 0.13353 3.1124e-08 0.11555 0.13645 -0.026129 0.079288 0.14526 -0.026129 0.10562 0.13886 -0.031837 0.10775 0.13353 -0.031837 0.075663 0.14132 0.0034516 -0.18386 -5.8186e-10 0.0034515 -0.18386 -0.70321 0.0016004 -0.18065 -2.6977e-10 0.0016003 -0.18065 -0.70321 0.0034517 -0.18386 0.70321 0.0016005 -0.18065 0.70321 0.0016004 -0.18065 -2.6977e-10 0.0016003 -0.18065 -0.70321 -0.002102 -0.18065 3.5441e-10 -0.0021021 -0.18065 -0.70321 0.0016005 -0.18065 0.70321 -0.0021019 -0.18065 0.70321 -0.002102 -0.18065 3.5441e-10 -0.0021021 -0.18065 -0.70321 -0.0039532 -0.18386 6.665e-10 -0.0039534 -0.18386 -0.70321 -0.0021019 -0.18065 0.70321 -0.0039531 -0.18386 0.70321 -0.0039532 -0.18386 6.665e-10 -0.0039534 -0.18386 -0.70321 -0.002102 -0.18706 3.5441e-10 -0.0021021 -0.18706 -0.70321 -0.0039531 -0.18386 0.70321 -0.0021019 -0.18706 0.70321 -0.002102 -0.18706 3.5441e-10 -0.0021021 -0.18706 -0.70321 0.0016004 -0.18706 -2.6977e-10 -0.0021019 -0.18706 0.70321 0.0016003 -0.18706 -0.70321 0.0016005 -0.18706 0.70321 0.0016004 -0.18706 -2.6977e-10 0.0016003 -0.18706 -0.70321 0.0034516 -0.18386 -5.8186e-10 0.0034515 -0.18386 -0.70321 0.0016005 -0.18706 0.70321 0.0034517 -0.18386 0.70321</float_array><technique_common><accessor source="#g-p-a" count="1306" stride="3"><param name="X" type="float"/><param name="Y" type="float"/><param name="Z" type="float"/></accessor></technique_common></source>
<source id="g-n"><float_array id="g-n-a" count="3918">-0.32957 0.89203 -0.30929 -0.2032 0.89312 -0.40132 -0.41774 0.87725 -0.23648 -0.084532 0.87528 -0.47616 -0.24411 0.59752 0.76379 -0.24298 0.59874 0.76319 -0.24802 0.59327 0.76585 -0.23926 0.60276 0.76121 0.24953 0.59162 0.76663 0.24739 0.59395 0.76552 0.23926 0.60276 0.76121 0.25835 0.58186 0.77116 -0.85671 0.36934 0.36005 -0.85897 0.28881 0.42279 -0.85338 0.39992 0.33437 -0.83118 0.50097 0.24118 -0.40347 -0.91064 -0.0891 -0.41475 -0.90268 -0.11468 -0.40868 -0.90709 -0.10082 -0.41925 -0.89922 -0.12507 0.94996 -0.31215 0.011818 0.94853 -0.31605 0.020245 0.95076 -0.30985 0.0068554 0.94749 -0.31872 0.026058 0.47355 -0.87411 -0.10807 0.48657 -0.86628 -0.1132 0.44058 -0.89266 -0.095157 0.4228 -0.90192 -0.088245 -0.9599 -0.27953 0.021334 -0.95428 -0.29779 0.025962 -0.96202 -0.27228 0.019502 -0.95114 -0.30744 0.028415 0.9276 0.32669 0.18118 0.92469 0.33568 0.17963 0.93602 0.2989 0.18583 0.93919 0.28758 0.18766 -0.35892 0.83959 -0.40775 -0.36136 0.83721 -0.41048 -0.34429 0.85338 -0.39142 -0.37533 0.82316 -0.42607 0.85383 0.40214 0.33054 0.85291 0.28835 0.4352 0.85588 0.36099 0.37034 0.83926 0.48873 0.23831 -0.94853 -0.31605 0.020247 -0.94996 -0.31215 0.011819 -0.95076 -0.30985 0.0068567 -0.94749 -0.31872 0.02606 0.41475 -0.90268 -0.11468 0.40868 -0.90709 -0.10082 0.41925 -0.89922 -0.12507 0.40347 -0.91064 -0.0891 0.33524 0.86152 -0.38132 0.33407 0.86254 -0.38001 0.32522 0.87019 -0.37013 0.34429 0.85338 -0.39142 -0.91512 0.39579 0.076851 -0.93743 0.34805 0.0092164 -0.83118 0.50097 0.24118 -0.95751 0.27438 -0.088854 -0.39562 -0.91095 -0.11685 -0.40106 -0.90705 -0.12808 -0.3887 -0.91562 -0.10272 -0.38237 -0.91962 -0.089975 0.94643 -0.32277 0.0089607 0.94475 -0.32736 0.017034 0.94752 -0.31967 0.0035182 0.94334 -0.331 0.02348 -0.36924 0.48616 -0.79203 -0.37123 0.48549 -0.79151 -0.37139 0.48544 -0.79147 -0.36902 0.48623 -0.79209 0.9174 0.18858 -0.35045 0.91989 0.186 -0.34526 0.92011 0.18578 -0.34481 0.91718 0.1888 -0.35091 0.92071 -0.25199 0.29799 0.91117 -0.26182 0.31816 0.91027 -0.26271 0.32 0.92157 -0.25107 0.29611 -0.3607 -0.55853 0.74696 -0.3745 -0.55385 0.74364 -0.37572 -0.55343 0.74334 -0.35893 -0.55911 0.74737 -0.91989 0.186 -0.34526 -0.91718 0.1888 -0.35091 -0.9174 0.18858 -0.35045 -0.92011 0.18578 -0.34481 0.36924 0.48616 -0.79203 0.37123 0.48549 -0.79151 0.36902 0.48623 -0.79209 0.37138 0.48544 -0.79147 0.3607 -0.55853 0.74696 0.3745 -0.55385 0.74364 0.35893 -0.55911 0.74737 0.37572 -0.55343 0.74334 -0.91117 -0.26182 0.31816 -0.92157 -0.25107 0.29611 -0.92071 -0.25199 0.29799 -0.91027 -0.26271 0.32 -0.85807 -0.17713 0.48201 -0.84882 -0.2176 0.48182 -0.87904 -0.029396 0.47583 -0.80304 -0.36098 0.47415 0.28244 -0.00099041 0.95929 0.28378 0.0022399 0.95889 0.2856 0.0066214 0.95833 0.28067 -0.0052343 0.95979 0.36084 0.83326 -0.4189 0.35989 0.83293 -0.42037 0.36364 0.83422 -0.41455 0.35705 0.83192 -0.42476 -0.86918 0.34374 -0.35548 -0.77894 0.32204 -0.53809 -0.86718 0.34333 -0.36073 -0.91477 0.35071 -0.2005 -0.28244 -0.00099042 0.95929 -0.28378 0.0022399 0.95889 -0.28067 -0.0052343 0.95979 -0.2856 0.0066214 0.95833 0.84882 -0.2176 0.48182 0.80304 -0.36097 0.47415 0.85807 -0.17713 0.48201 0.87905 -0.029396 0.47583 0.86918 0.34374 -0.35548 0.86718 0.34333 -0.36073 0.77894 0.32204 -0.53809 0.91477 0.3507 -0.2005 -0.36084 0.83326 -0.4189 -0.3599 0.83293 -0.42037 -0.35705 0.83192 -0.42476 -0.36364 0.83422 -0.41454 0.94745 -0.31909 -0.022673 0.95991 -0.27959 -0.019996 0.94334 -0.331 -0.02348 0.96202 -0.27228 -0.019501 1.6859e-07 -4.5209e-23 1 1.6859e-07 -5.9078e-24 1 1.6859e-07 -9.9517e-25 1 1.6859e-07 -2.0646e-23 1 1.6859e-07 1.8656e-23 1 1.6859e-07 1.8656e-23 1 2.996e-07 0.9452 -0.3265 3.537e-07 0.9452 -0.3265 -5.5043e-08 0.9452 -0.3265 8.0666e-07 0.9452 -0.3265 -1.342e-07 0.60524 -0.79604 -1.342e-07 0.60524 -0.79604 -1.342e-07 0.60524 -0.79604 -1.534e-07 -0.41486 -0.90989 -1.534e-07 -0.41486 -0.90989 -1.534e-07 -0.41486 -0.90989 -1.534e-07 -0.41486 -0.90989 -0.16638 -0.0096589 0.98601 -0.16689 -0.0088081 0.98594 -0.16613 -0.010087 0.98605 -0.16719 -0.0082873 0.98589 0.52929 -0.29641 0.79498 0.52929 -0.29641 0.79498 0.52929 -0.29641 0.79498 0.52929 -0.29641 0.79498 -0.42496 -0.84284 0.33021 -0.42496 -0.84284 0.33021 -0.42496 -0.84284 0.33021 -0.42496 -0.84284 0.33021 -0.50657 -0.30122 0.80787 -0.50657 -0.30122 0.80787 -0.50657 -0.30122 0.80787 -0.50657 -0.30122 0.80787 0.43578 -0.84922 0.29818 0.43578 -0.84922 0.29818 0.43578 -0.84922 0.29818 0.43578 -0.84922 0.29818 -0.083501 -0.35285 0.93195 -0.076905 -0.3408 0.93698 -0.11408 -0.37601 0.91956 -0.032951 -0.32072 0.9466 -0.021522 -0.31705 0.94816 0.16698 -0.0028979 0.98596 0.16713 -0.0026379 0.98593 0.16722 -0.0024784 0.98592 0.1669 -0.003028 0.98597 -0.95371 0.27886 -0.11261 -0.92959 0.34703 -0.1242 -0.92284 0.36367 -0.12698 -0.95733 0.26703 -0.11056 -0.37915 -0.84721 0.37213 -0.3647 -0.85098 0.37791 -0.38234 -0.84634 0.37084 -0.36081 -0.85196 0.37945 0.92548 -0.33906 0.16888 0.93188 -0.32212 0.16682 0.92388 -0.34316 0.16937 0.93309 -0.31883 0.16642 0.92959 0.34703 -0.1242 0.95371 0.27886 -0.11261 0.92284 0.36366 -0.12697 0.95733 0.26703 -0.11056 -0.37966 0.83661 -0.39489 -0.36106 0.84153 -0.40183 -0.38263 0.83579 -0.39376 -0.3574 0.84245 -0.40317 -0.93188 -0.32212 0.16682 -0.92548 -0.33906 0.16888 -0.92388 -0.34316 0.16937 -0.93309 -0.31883 0.16642 0.37915 -0.84721 0.37213 0.3647 -0.85098 0.37791 0.36081 -0.85196 0.37945 0.38234 -0.84634 0.37084 0.37965 0.83662 -0.39489 0.36106 0.84153 -0.40183 0.3574 0.84245 -0.40317 0.38262 0.83579 -0.39376 -0.99882 0.023294 -0.042685 -0.99868 0.018238 -0.047978 -0.99848 0.012987 -0.053471 -0.99889 0.027425 -0.038358 0.38959 0.89413 0.22081 0.37924 0.89633 0.22972 0.40367 0.89083 0.2085 0.36419 0.8992 0.2425 -0.13189 -0.96355 -0.23275 -0.12467 -0.9637 -0.23608 -0.12054 -0.96376 -0.23798 -0.13617 -0.96343 -0.23077 -0.38959 0.89413 0.22081 -0.37924 0.89633 0.22972 -0.36419 0.8992 0.2425 -0.40367 0.89083 0.2085 0.13189 -0.96355 -0.23275 0.12467 -0.9637 -0.23609 0.13617 -0.96343 -0.23077 0.12054 -0.96376 -0.23798 0.99868 0.018238 -0.047978 0.99882 0.023294 -0.042685 0.99848 0.012987 -0.053472 0.99889 0.027424 -0.038358 -0.00054457 -0.58071 0.81411 -0.00021688 -0.58125 0.81373 -0.00097724 -0.58001 0.81461 -2.8156e-07 -0.5816 0.81348 -0.12763 0.58526 -0.80073 -0.12162 0.59762 -0.7925 -0.14022 0.55867 -0.81745 -0.10905 0.62279 -0.77476 1 1.8324e-07 -1.2228e-08 1 5.8684e-08 -1.1851e-07 1 2.4444e-07 3.9995e-08 1 -1.8099e-16 -1.6859e-07 0.00054485 -0.58071 0.81411 0.00021715 -0.58125 0.81373 5.5584e-07 -0.5816 0.81348 0.00097751 -0.58001 0.81461 -1 2.4179e-16 1.6859e-07 -1 1.9559e-16 1.6859e-07 -1 2.2657e-16 1.6859e-07 -1 1.8099e-16 1.6859e-07 0.12763 0.58526 -0.80073 0.12162 0.59762 -0.7925 0.10905 0.62278 -0.77476 0.14022 0.55867 -0.81745 0.19823 0.58535 -0.78618 0.19995 0.58319 -0.78734 0.17203 0.61718 -0.76779 0.22607 0.54964 -0.80423 -1 5.4306e-17 1.6859e-07 -1 1.1535e-16 1.6859e-07 -1 8.4607e-17 1.6859e-07 -1 1.4464e-16 1.6859e-07 1 -5.0673e-08 -2.2511e-07 1 -1.0209e-07 -2.8247e-07 1 -5.4306e-17 -1.6859e-07 1 -1.5107e-07 -3.371e-07 0.40614 0.90554 0.12262 0.39741 0.9086 0.12851 0.41389 0.90273 0.11737 0.39054 0.91091 0.1331 -0.40614 0.90554 0.12263 -0.39741 0.9086 0.12851 -0.39054 0.91091 0.1331 -0.41389 0.90273 0.11737 -0.19823 0.58535 -0.78618 -0.19996 0.58319 -0.78734 -0.22607 0.54964 -0.80423 -0.17203 0.61718 -0.76779 -1 9.0525e-08 1.1418e-07 -1 1.4369e-07 1.6874e-07 -1 1.878e-07 2.14e-07 -1 4.4458e-08 6.6912e-08 -0.51228 -0.84864 -0.13182 -0.50344 -0.85249 -0.14077 -0.48878 -0.85846 -0.15535 -0.52711 -0.84176 -0.11657 5.0016e-07 -0.5816 0.81347 6.4428e-07 -0.5816 0.81347 1.003e-06 -0.5816 0.81347 3.0551e-07 -0.5816 0.81347 -3.7e-07 -0.5816 0.81347 -2.2588e-07 -0.5816 0.81347 -7.2874e-07 -0.5816 0.81347 -3.1229e-08 -0.5816 0.81347 0.98948 0.056031 -0.13337 0.98964 0.05259 -0.13361 0.98975 0.049887 -0.1338 0.98937 0.058247 -0.13321 -0.50476 -0.61383 -0.60699 -0.51077 -0.61342 -0.60235 -0.51634 -0.61301 -0.59801 -0.49753 -0.61427 -0.61249 -0.98834 0.055763 -0.14168 -0.98817 0.059416 -0.14142 -0.98847 0.052901 -0.14188 -0.98805 0.061762 -0.14125 0.50557 -0.61653 -0.60357 0.51152 -0.61615 -0.59892 0.49836 -0.61694 -0.60911 0.51706 -0.61576 -0.59455 1 -2.2729e-07 -3.3579e-08 1 -1.6506e-07 3.0275e-08 1 -2.7892e-07 -8.6553e-08 1 -1.1115e-07 8.5601e-08 0.51228 -0.84864 -0.13182 0.50344 -0.85249 -0.14077 0.52711 -0.84176 -0.11657 0.48878 -0.85846 -0.15535 0.20319 0.89232 0.40307 0.32983 0.89096 0.31208 0.084639 0.87493 0.4768 0.418 0.87612 0.2402 -0.53313 -0.79273 -0.29557 -0.53313 -0.79273 -0.29557 -0.53313 -0.79273 -0.29557 -0.53313 -0.79273 -0.29557 9.1692e-06 0.34936 -0.93699 8.8689e-06 0.34936 -0.93699 9.2317e-06 0.34936 -0.93699 9.5321e-06 0.34936 -0.93699 0.53313 -0.79273 -0.29557 0.53313 -0.79273 -0.29557 0.53313 -0.79273 -0.29557 0.53313 -0.79273 -0.29557 0.96487 0.24616 0.091781 0.96487 0.24616 0.091781 0.96487 0.24616 0.091781 0.96487 0.24616 0.091781 0.96487 -0.24616 -0.091781 0.96487 -0.24616 -0.091781 0.96487 -0.24616 -0.091781 0.96487 -0.24616 -0.091781 -1 8.6624e-17 1.6859e-07 -1 8.5077e-17 1.6859e-07 -1 9.9973e-17 1.6859e-07 -1 7.1729e-17 1.6859e-07 -0.96487 0.24616 0.091781 -0.96487 0.24616 0.091782 -0.96487 0.24616 0.091781 -0.96487 0.24616 0.091782 0.53312 0.79273 0.29557 0.53312 0.79273 0.29557 0.53312 0.79273 0.29557 0.53312 0.79273 0.29557 -0.96487 -0.24616 -0.091781 -0.96487 -0.24616 -0.091781 -0.96487 -0.24616 -0.091781 -0.96487 -0.24616 -0.091781 -9.5477e-06 0.34936 -0.93699 -9.4851e-06 0.34936 -0.93699 -9.848e-06 0.34936 -0.93699 -9.1848e-06 0.34936 -0.93699 -0.53313 0.79273 0.29557 -0.53313 0.79273 0.29557 -0.53313 0.79273 0.29557 -0.53313 0.79273 0.29557 0.11408 -0.37601 0.91956 0.076907 -0.3408 0.93698 0.083501 -0.35285 0.93195 0.032949 -0.32072 0.9466 0.021519 -0.31705 0.94816 -0.2032 0.89312 0.40132 -0.32957 0.89203 0.30929 -0.41774 0.87725 0.23648 -0.084532 0.87528 0.47616 -0.47314 -0.87407 0.11021 -0.40448 -0.90961 0.094909 -0.38237 -0.91962 0.089976 -0.48657 -0.86628 0.1132 -0.92469 0.33568 -0.17963 -0.94442 0.27468 -0.18064 -0.92783 0.3268 -0.17983 -0.94804 0.26183 -0.18076 0.37461 0.86553 -0.33244 0.41812 0.84401 -0.3359 0.36685 0.86912 -0.33175 0.42285 0.84151 -0.33623 0.47314 -0.87407 0.11021 0.38237 -0.91962 0.089977 0.40448 -0.90961 0.094909 0.48657 -0.86628 0.1132 -0.94745 -0.31909 -0.022674 -0.95991 -0.27959 -0.019997 -0.96202 -0.27228 -0.019502 -0.94334 -0.331 -0.023482 0.92783 0.3268 -0.17982 0.94804 0.26183 -0.18076 0.94442 0.27468 -0.18064 0.92469 0.33568 -0.17963 0.9207 -0.33548 0.19941 0.92325 -0.33021 0.1964 0.92034 -0.33621 0.19983 0.92348 -0.32974 0.19613 -0.37938 -0.75187 0.53923 -0.37846 -0.75207 0.53959 -0.37951 -0.75184 0.53918 -0.37836 -0.75209 0.53963 -0.91562 0.27706 -0.29134 -0.92269 0.26211 -0.28273 -0.92361 0.26012 -0.28158 -0.915 0.27833 -0.29207 0.38134 0.6874 -0.61811 0.37136 0.68956 -0.62177 0.37038 0.68977 -0.62212 0.38254 0.68714 -0.61766 0.37938 -0.75187 0.53923 0.37846 -0.75207 0.53959 0.37836 -0.75209 0.53963 0.37951 -0.75184 0.53918 -0.92325 -0.33021 0.1964 -0.9207 -0.33548 0.19941 -0.92034 -0.33621 0.19983 -0.92348 -0.32974 0.19613 -0.38135 0.6874 -0.61811 -0.37136 0.68956 -0.62177 -0.38255 0.68714 -0.61766 -0.37038 0.68977 -0.62212 -0.41812 0.84401 -0.3359 -0.37461 0.86553 -0.33244 -0.36685 0.86912 -0.33175 -0.42285 0.84151 -0.33623 -0.27612 -0.0020565 -0.96112 -0.27661 -0.0030165 -0.96098 -0.27493 0.0002837 -0.96146 -0.27782 -0.0053924 -0.96062 0.83875 0.090704 -0.53691 0.85011 -0.015371 -0.52638 0.826 0.16003 -0.54048 0.77894 0.32204 -0.53809 0.90361 -0.34384 0.25545 0.88571 -0.40423 0.2283 0.85213 -0.48885 0.18679 0.92301 -0.24672 0.29527 -0.35731 -0.86614 0.34947 -0.35659 -0.86593 0.35073 -0.35499 -0.86545 0.35353 -0.35889 -0.86661 0.34668 -0.83875 0.090705 -0.53691 -0.82599 0.16003 -0.54048 -0.85011 -0.015371 -0.52638 -0.77894 0.32204 -0.53809 0.27612 -0.0020565 -0.96112 0.27661 -0.0030165 -0.96098 0.27782 -0.0053924 -0.96062 0.27493 0.00028372 -0.96146 0.35731 -0.86614 0.34947 0.35659 -0.86593 0.35073 0.35889 -0.86661 0.34668 0.35499 -0.86545 0.35353 0.92269 0.26211 -0.28273 0.915 0.27833 -0.29207 0.91562 0.27706 -0.29134 0.92361 0.26012 -0.28158 0.3602 -0.43328 0.82615 0.37378 -0.42954 0.82206 0.35913 -0.43356 0.82647 0.37479 -0.42926 0.82175 -0.91902 -0.19502 0.3426 -0.91558 -0.19928 0.34928 -0.91533 -0.19959 0.34975 -0.91928 -0.19468 0.34208 -0.35156 0.37314 -0.85859 -0.37707 0.36574 -0.85092 -0.3793 0.36507 -0.85021 -0.34918 0.37381 -0.85927 0.90737 0.15691 -0.38995 0.92315 0.13714 -0.35913 0.92198 0.13869 -0.36155 0.9062 0.1583 -0.39211 0.91558 -0.19928 0.34928 0.91928 -0.19468 0.34208 0.91902 -0.19502 0.3426 0.91533 -0.19959 0.34975 -0.3602 -0.43328 0.82615 -0.37378 -0.42954 0.82206 -0.37479 -0.42926 0.82175 -0.35913 -0.43356 0.82647 -0.92198 0.13869 -0.36155 -0.90737 0.15691 -0.38995 -0.9062 0.1583 -0.39211 -0.92315 0.13714 -0.35913 -0.90361 -0.34384 0.25545 -0.88571 -0.40423 0.2283 -0.92301 -0.24672 0.29527 -0.85213 -0.48886 0.18679 -0.92268 0.28497 -0.25973 -0.91551 0.30053 -0.26745 -0.9144 0.30286 -0.2686 -0.92381 0.28243 -0.25847 0.3659 0.70515 -0.60735 0.38023 0.70279 -0.60126 0.38268 0.70237 -0.6002 0.36297 0.70561 -0.60857 0.37136 -0.74184 0.55836 0.38066 -0.73996 0.55457 0.38198 -0.73969 0.55403 0.36979 -0.74214 0.559 -0.9229 -0.3135 0.22357 -0.91987 -0.31998 0.22682 -0.91945 -0.32088 0.22727 -0.92335 -0.31252 0.22308 -0.3659 0.70515 -0.60735 -0.38023 0.70279 -0.60126 -0.36297 0.70561 -0.60857 -0.38268 0.70237 -0.6002 0.91551 0.30053 -0.26745 0.92268 0.28497 -0.25973 0.9144 0.30286 -0.2686 0.92381 0.28244 -0.25847 0.91987 -0.31998 0.22682 0.9229 -0.3135 0.22357 0.91945 -0.32088 0.22727 0.92335 -0.31252 0.22308 0.35156 0.37314 -0.85859 0.37706 0.36574 -0.85092 0.34918 0.37381 -0.85927 0.3793 0.36507 -0.85021 0.40643 0.78734 -0.46359 0.39854 0.78729 -0.47047 0.37669 0.78671 -0.48907 0.43007 0.78696 -0.44241 -0.91998 -0.30628 0.2446 -0.92351 -0.29605 0.24388 -0.92537 -0.29052 0.24348 -0.91751 -0.31322 0.24508 -0.40643 0.78734 -0.46359 -0.39854 0.78729 -0.47047 -0.43007 0.78696 -0.44241 -0.3767 0.78671 -0.48907 -0.38309 -0.71419 0.58581 -0.37111 -0.71494 0.59257 -0.39003 -0.71369 0.58183 -0.36486 -0.71528 0.59603 0.92351 -0.29605 0.24388 0.91751 -0.31322 0.24508 0.91998 -0.30628 0.2446 0.92537 -0.29052 0.24348 0.93051 0.30615 -0.20105 0.92712 0.31727 -0.19948 0.93426 0.29331 -0.20283 0.92191 0.33349 -0.19712 -0.92712 0.31727 -0.19948 -0.93051 0.30615 -0.20105 -0.93426 0.29331 -0.20283 -0.92191 0.33349 -0.19712 -0.37136 -0.74184 0.55837 -0.38066 -0.73996 0.55457 -0.36979 -0.74214 0.559 -0.38198 -0.73969 0.55403 0.38309 -0.71419 0.58581 0.37111 -0.71494 0.59257 0.36486 -0.71528 0.59603 0.39003 -0.71369 0.58183 0.89637 0.32301 0.30363 0.8712 0.39329 0.29382 0.85816 0.42443 0.28882 0.90766 0.28496 0.30813 0.534 0.7278 0.4303 0.46273 0.74742 0.47671 0.56259 0.71796 0.40992 0.41383 0.75724 0.50531 4.1757e-07 0.60524 -0.79604 4.1757e-07 0.60524 -0.79604 4.1757e-07 0.60524 -0.79604 -0.56259 0.71796 0.40992 -0.46273 0.74742 0.47671 -0.534 0.7278 0.4303 -0.41383 0.75724 0.50531 -0.8712 0.39329 0.29382 -0.89637 0.32301 0.30363 -0.85816 0.42443 0.28882 -0.90766 0.28496 0.30813 -0.93533 -0.34638 -0.071919 -0.94666 -0.32 -0.037998 -0.93857 -0.33934 -0.062793 -0.95402 -0.29951 -0.012144 -0.53979 -0.80777 -0.23693 -0.47664 -0.83747 -0.26731 -0.5306 -0.81248 -0.24153 -0.46116 -0.84385 -0.27433 0.53059 -0.81248 -0.24153 0.47664 -0.83747 -0.26731 0.53979 -0.80777 -0.23693 0.46116 -0.84385 -0.27433 0.93857 -0.33934 -0.062793 0.94666 -0.32 -0.037998 0.93533 -0.34638 -0.071919 0.95402 -0.29951 -0.012144 0.95428 -0.29779 0.02596 0.9599 -0.27953 0.021333 0.96202 -0.27228 0.0195 0.95114 -0.30744 0.028413 4.6379e-07 0.9452 0.3265 4.0969e-07 0.9452 0.3265 5.5043e-08 0.9452 0.3265 9.1675e-07 0.9452 0.3265 1.342e-07 0.60524 0.79604 1.342e-07 0.60524 0.79604 1.342e-07 0.60524 0.79604 1.534e-07 -0.41486 0.90989 1.534e-07 -0.41486 0.90989 1.534e-07 -0.41486 0.90989 1.534e-07 -0.41486 0.90989 -0.16689 -0.0088081 -0.98594 -0.16638 -0.0096589 -0.98601 -0.16613 -0.010087 -0.98605 -0.16719 -0.0082873 -0.98589 0.52929 -0.29641 -0.79498 0.52929 -0.29641 -0.79498 0.52929 -0.29641 -0.79498 0.52929 -0.29641 -0.79498 -0.42496 -0.84284 -0.33021 -0.42496 -0.84284 -0.33021 -0.42496 -0.84284 -0.33021 -0.42496 -0.84284 -0.33021 -0.50657 -0.30122 -0.80787 -0.50657 -0.30122 -0.80787 -0.50657 -0.30122 -0.80787 -0.50657 -0.30122 -0.80787 0.43578 -0.84922 -0.29818 0.43578 -0.84922 -0.29818 0.43578 -0.84922 -0.29818 0.43578 -0.84922 -0.29818 -0.032952 -0.32072 -0.9466 -0.083501 -0.35285 -0.93195 -0.076906 -0.3408 -0.93698 -0.021523 -0.31705 -0.94816 -0.11408 -0.37601 -0.91956 0.16713 -0.0026379 -0.98593 0.1669 -0.003028 -0.98597 0.16698 -0.0028979 -0.98596 0.16722 -0.0024784 -0.98592 -0.95371 0.27886 0.11261 -0.92959 0.34703 0.1242 -0.95733 0.26703 0.11056 -0.92284 0.36367 0.12698 -0.37915 -0.84721 -0.37213 -0.3647 -0.85098 -0.37791 -0.36081 -0.85196 -0.37945 -0.38234 -0.84634 -0.37084 0.92548 -0.33906 -0.16888 0.93188 -0.32212 -0.16682 0.93309 -0.31883 -0.16642 0.92388 -0.34316 -0.16937 0.92959 0.34703 0.1242 0.95371 0.27886 0.11261 0.95733 0.26703 0.11056 0.92284 0.36366 0.12697 -0.37966 0.83661 0.39489 -0.36106 0.84153 0.40183 -0.3574 0.84245 0.40317 -0.38263 0.83579 0.39376 -0.93188 -0.32212 -0.16682 -0.92548 -0.33906 -0.16888 -0.93309 -0.31883 -0.16642 -0.92388 -0.34316 -0.16937 0.3647 -0.85098 -0.37791 0.37915 -0.84721 -0.37213 0.36081 -0.85196 -0.37945 0.38234 -0.84634 -0.37084 0.36106 0.84153 0.40183 0.37965 0.83662 0.39489 0.3574 0.84245 0.40317 0.38262 0.83579 0.39376 -0.99868 0.018238 0.047978 -0.99882 0.023294 0.042685 -0.99848 0.012987 0.053472 -0.99889 0.027425 0.038358 0.38959 0.89413 -0.22081 0.37924 0.89633 -0.22972 0.36419 0.8992 -0.2425 0.40367 0.89083 -0.2085 -0.12467 -0.9637 0.23608 -0.13189 -0.96355 0.23275 -0.12054 -0.96376 0.23798 -0.13617 -0.96343 0.23077 -0.37924 0.89633 -0.22972 -0.38959 0.89413 -0.22081 -0.36419 0.8992 -0.2425 -0.40367 0.89083 -0.2085 0.13189 -0.96355 0.23275 0.12467 -0.9637 0.23609 0.12054 -0.96376 0.23798 0.13617 -0.96343 0.23077 0.99882 0.023294 0.042685 0.99868 0.018238 0.047978 0.99848 0.012987 0.053471 0.99889 0.027424 0.038358 -0.00054485 -0.58071 -0.81411 -0.00021715 -0.58125 -0.81373 -5.5584e-07 -0.5816 -0.81348 -0.00097751 -0.58001 -0.81461 -0.12763 0.58526 0.80073 -0.12162 0.59762 0.7925 -0.10905 0.62279 0.77476 -0.14022 0.55867 0.81745 1 5.8684e-08 -2.1866e-07 1 1.8324e-07 -3.2495e-07 1 2.4444e-07 -3.7717e-07 1 -6.3941e-17 -1.6859e-07 0.00054457 -0.58071 -0.81411 0.00021688 -0.58125 -0.81373 0.00097724 -0.58001 -0.81461 2.8156e-07 -0.5816 -0.81348 -1 1.836e-17 1.6859e-07 -1 4.9343e-17 1.6859e-07 -1 3.1357e-18 1.6859e-07 -1 6.3941e-17 1.6859e-07 0.12763 0.58526 0.80073 0.12162 0.59762 0.7925 0.14022 0.55867 0.81745 0.10905 0.62278 0.77476 0.19823 0.58535 0.78618 0.19996 0.58319 0.78734 0.22607 0.54964 0.80423 0.17203 0.61718 0.76779 -1 1.2958e-16 1.6859e-07 -1 1.9062e-16 1.6859e-07 -1 1.6032e-16 1.6859e-07 -1 1.0029e-16 1.6859e-07 1 -1.0209e-07 -5.4704e-08 1 -5.0673e-08 -1.1206e-07 1 -1.9062e-16 -1.6859e-07 1 -1.5107e-07 -7.1522e-11 0.40614 0.90554 -0.12263 0.39741 0.9086 -0.12851 0.39054 0.91091 -0.1331 0.41389 0.90273 -0.11737 -0.39741 0.9086 -0.12851 -0.40614 0.90554 -0.12262 -0.39054 0.91091 -0.1331 -0.41389 0.90273 -0.11737 1 -8.5077e-17 -1.6859e-07 1 -8.6624e-17 -1.6859e-07 1 -9.9973e-17 -1.6859e-07 1 -7.1729e-17 -1.6859e-07 -0.19823 0.58535 0.78618 -0.19996 0.58319 0.78734 -0.17203 0.61718 0.76779 -0.22607 0.54964 0.80423 -1 1.4369e-07 1.6844e-07 -1 9.0525e-08 2.2299e-07 -1 1.878e-07 1.2318e-07 -1 4.4458e-08 2.7026e-07 -0.50344 -0.85249 0.14077 -0.51228 -0.84864 0.13182 -0.48878 -0.85846 0.15535 -0.52711 -0.84176 0.11657 2.2588e-07 -0.5816 -0.81347 3.7e-07 -0.5816 -0.81347 3.1229e-08 -0.5816 -0.81347 7.2874e-07 -0.5816 -0.81347 -6.4428e-07 -0.5816 -0.81347 -1.003e-06 -0.5816 -0.81347 -5.0016e-07 -0.5816 -0.81347 -3.0551e-07 -0.5816 -0.81347 0.98964 0.05259 0.13361 0.98948 0.056031 0.13337 0.98975 0.049887 0.1338 0.98937 0.058247 0.13321 -0.51077 -0.61342 0.60235 -0.50476 -0.61383 0.60699 -0.51634 -0.61301 0.59801 -0.49753 -0.61427 0.61249 -0.98834 0.055763 0.14168 -0.98817 0.059416 0.14142 -0.98805 0.061762 0.14125 -0.98847 0.052901 0.14188 0.50557 -0.61653 0.60357 0.51152 -0.61615 0.59892 0.51706 -0.61576 0.59455 0.49836 -0.61694 0.60911 1 -2.7892e-07 -2.5062e-07 1 -1.6506e-07 -3.6745e-07 1 -2.2729e-07 -3.036e-07 1 -1.1115e-07 -4.2278e-07 0.51228 -0.84864 0.13182 0.50344 -0.85249 0.14077 0.48878 -0.85846 0.15535 0.52711 -0.84176 0.11657 0.20319 0.89232 -0.40307 0.32983 0.89096 -0.31208 0.418 0.87612 -0.2402 0.084639 0.87493 -0.4768 1 -1.5831e-16 -1.6859e-07 1 -1.5985e-16 -1.6859e-07 1 -1.4496e-16 -1.6859e-07 1 -1.732e-16 -1.6859e-07 9.4851e-06 0.34936 0.93699 9.848e-06 0.34936 0.93699 9.5477e-06 0.34936 0.93699 9.1848e-06 0.34936 0.93699 -0.53313 -0.79273 0.29557 -0.53313 -0.79273 0.29557 -0.53313 -0.79273 0.29557 -0.53313 -0.79273 0.29557 0.53313 -0.79273 0.29557 0.53313 -0.79273 0.29557 0.53313 -0.79273 0.29557 0.53313 -0.79273 0.29557 0.96487 0.24616 -0.091782 0.96487 0.24616 -0.091782 0.96487 0.24616 -0.091782 0.96487 0.24616 -0.091781 0.96487 -0.24616 0.091781 0.96487 -0.24616 0.091781 0.96487 -0.24616 0.091781 0.96487 -0.24616 0.091781 -1 1.5985e-16 1.6859e-07 -1 1.5831e-16 1.6859e-07 -1 1.4496e-16 1.6859e-07 -1 1.732e-16 1.6859e-07 -0.96487 0.24616 -0.091781 -0.96487 0.24616 -0.091781 -0.96487 0.24616 -0.091781 -0.96487 0.24616 -0.091781 0.53312 0.79273 -0.29557 0.53312 0.79273 -0.29557 0.53312 0.79273 -0.29557 0.53312 0.79273 -0.29557 -9.2317e-06 0.34936 0.93699 -9.1692e-06 0.34936 0.93699 -8.8689e-06 0.34936 0.93699 -9.5321e-06 0.34936 0.93699 -0.96487 -0.24616 0.091781 -0.96487 -0.24616 0.091781 -0.96487 -0.24616 0.091781 -0.96487 -0.24616 0.091781 0.032949 -0.32072 -0.9466 0.0835 -0.35285 -0.93195 0.021519 -0.31705 -0.94816 0.076907 -0.3408 -0.93698 0.11408 -0.37601 -0.91956 -0.53313 0.79273 -0.29557 -0.53313 0.79273 -0.29557 -0.53313 0.79273 -0.29557 -0.53313 0.79273 -0.29557 -0.44058 -0.89266 -0.095156 -0.48657 -0.86628 -0.1132 -0.47355 -0.87411 -0.10807 -0.4228 -0.90192 -0.088244 -0.93602 0.2989 0.18583 -0.92469 0.33568 0.17963 -0.9276 0.32669 0.18118 -0.93919 0.28758 0.18767 0.39454 0.8571 0.33124 0.41822 0.84414 0.33543 0.42285 0.84151 0.33623 0.38819 0.86044 0.33008 0.39562 -0.91095 -0.11685 0.38237 -0.91962 -0.089976 0.3887 -0.91562 -0.10272 0.40106 -0.90705 -0.12808 -0.94475 -0.32736 0.017036 -0.94643 -0.32277 0.0089624 -0.94752 -0.31967 0.0035198 -0.94334 -0.331 0.023482 0.92909 0.36984 -0.00025635 0.94804 0.26183 0.18076 0.94096 0.33191 0.066558 0.88337 0.44513 -0.1467 0.92325 -0.33021 -0.1964 0.9207 -0.33548 -0.19941 0.92034 -0.33621 -0.19983 0.92348 -0.32974 -0.19613 -0.37938 -0.75187 -0.53923 -0.37846 -0.75207 -0.53959 -0.37836 -0.75209 -0.53963 -0.37951 -0.75184 -0.53918 -0.91562 0.27706 0.29134 -0.92269 0.26211 0.28273 -0.915 0.27833 0.29207 -0.92361 0.26012 0.28158 0.37136 0.68956 0.62177 0.38134 0.6874 0.61811 0.37038 0.68977 0.62212 0.38254 0.68714 0.61766 0.37846 -0.75207 -0.53959 0.37938 -0.75187 -0.53923 0.37836 -0.75209 -0.53963 0.37951 -0.75184 -0.53918 -0.92325 -0.33021 -0.1964 -0.9207 -0.33548 -0.19941 -0.92348 -0.32974 -0.19612 -0.92034 -0.33621 -0.19982 -0.38135 0.6874 0.61811 -0.37136 0.68956 0.62177 -0.37038 0.68977 0.62212 -0.38255 0.68714 0.61766 -0.39454 0.8571 0.33124 -0.42285 0.84151 0.33623 -0.41822 0.84414 0.33543 -0.38819 0.86044 0.33008 -0.37157 0.48542 0.79139 -0.36924 0.48616 0.79203 -0.37172 0.48537 0.79135 -0.36902 0.48623 0.79209 0.91989 0.18601 0.34525 0.91698 0.18912 0.35124 0.92011 0.18578 0.34481 0.91677 0.18935 0.35169 0.91117 -0.26178 -0.31818 0.92228 -0.24987 -0.29491 0.91027 -0.26271 -0.32 0.92313 -0.24891 -0.29305 -0.37686 -0.55332 -0.74284 -0.3607 -0.55856 -0.74693 -0.37802 -0.55294 -0.74254 -0.35893 -0.55911 -0.74737 -0.91989 0.18601 0.34525 -0.92011 0.18578 0.34481 -0.91698 0.18912 0.35125 -0.91676 0.18935 0.35169 0.36924 0.48616 0.79203 0.37157 0.48542 0.79139 0.37171 0.48537 0.79135 0.36902 0.48623 0.79209 0.3607 -0.55856 -0.74693 0.37686 -0.55332 -0.74284 0.37802 -0.55294 -0.74254 0.35893 -0.55911 -0.74737 0.91562 0.27706 0.29134 0.92269 0.26211 0.28273 0.92361 0.26012 0.28158 0.915 0.27833 0.29207 0.3602 -0.43328 -0.82615 0.37378 -0.42954 -0.82206 0.37479 -0.42926 -0.82175 0.35913 -0.43356 -0.82647 -0.91558 -0.19928 -0.34928 -0.91902 -0.19502 -0.3426 -0.91533 -0.19959 -0.34975 -0.91928 -0.19468 -0.34208 -0.35156 0.37314 0.85859 -0.37707 0.36574 0.85092 -0.34918 0.37381 0.85927 -0.3793 0.36507 0.85021 0.90737 0.15691 0.38995 0.9062 0.1583 0.39211 0.92198 0.13869 0.36155 0.92315 0.13714 0.35913 0.91558 -0.19928 -0.34928 0.91533 -0.19959 -0.34975 0.91902 -0.19502 -0.3426 0.91928 -0.19468 -0.34208 -0.3602 -0.43328 -0.82615 -0.37378 -0.42954 -0.82206 -0.35913 -0.43356 -0.82647 -0.37479 -0.42926 -0.82175 -0.90737 0.15691 0.38995 -0.92198 0.13869 0.36155 -0.9062 0.1583 0.39211 -0.92315 0.13714 0.35914 -0.91117 -0.26178 -0.31818 -0.91027 -0.26271 -0.32 -0.92228 -0.24987 -0.29491 -0.92313 -0.24891 -0.29305 -0.92268 0.28497 0.25973 -0.91551 0.30053 0.26745 -0.92381 0.28243 0.25847 -0.9144 0.30286 0.2686 0.38023 0.70279 0.60126 0.3659 0.70515 0.60735 0.38268 0.70237 0.6002 0.36297 0.70561 0.60857 0.38066 -0.73996 -0.55457 0.37136 -0.74184 -0.55837 0.38198 -0.73969 -0.55403 0.36979 -0.74214 -0.559 -0.9229 -0.3135 -0.22357 -0.91987 -0.31998 -0.22682 -0.92335 -0.31252 -0.22308 -0.91945 -0.32088 -0.22727 -0.3659 0.70515 0.60735 -0.38023 0.70279 0.60126 -0.38268 0.70237 0.6002 -0.36297 0.70561 0.60857 0.91551 0.30053 0.26745 0.92268 0.28497 0.25973 0.92381 0.28244 0.25847 0.9144 0.30286 0.2686 0.91987 -0.31998 -0.22682 0.9229 -0.3135 -0.22357 0.92335 -0.31252 -0.22308 0.91945 -0.32088 -0.22727 0.35156 0.37314 0.85859 0.37707 0.36574 0.85092 0.3793 0.36507 0.85021 0.34918 0.37381 0.85927 0.39854 0.78729 0.47047 0.40643 0.78734 0.46359 0.3767 0.78671 0.48907 0.43007 0.78696 0.44241 -0.91998 -0.30628 -0.2446 -0.92351 -0.29605 -0.24388 -0.91751 -0.31322 -0.24508 -0.92537 -0.29052 -0.24348 -0.40643 0.78734 0.46359 -0.39854 0.78729 0.47047 -0.37669 0.78671 0.48907 -0.43007 0.78696 0.44241 -0.38309 -0.71419 -0.58581 -0.37111 -0.71494 -0.59257 -0.36486 -0.71528 -0.59603 -0.39003 -0.71369 -0.58183 0.92351 -0.29605 -0.24388 0.91998 -0.30628 -0.2446 0.91751 -0.31322 -0.24508 0.92537 -0.29052 -0.24348 0.93051 0.30615 0.20105 0.92712 0.31727 0.19947 0.92191 0.33349 0.19712 0.93426 0.29331 0.20283 -0.92712 0.31727 0.19948 -0.93051 0.30615 0.20105 -0.92191 0.33349 0.19712 -0.93425 0.29331 0.20283 -0.37136 -0.74184 -0.55836 -0.38066 -0.73996 -0.55457 -0.38198 -0.73969 -0.55403 -0.36979 -0.74214 -0.559 0.37111 -0.71494 -0.59257 0.38309 -0.71419 -0.58581 0.36486 -0.71528 -0.59603 0.39003 -0.71369 -0.58183 0.89637 0.32301 -0.30363 0.8712 0.39329 -0.29382 0.90766 0.28496 -0.30813 0.85816 0.42443 -0.28882 0.46273 0.74742 -0.47671 0.534 0.7278 -0.4303 0.56259 0.71796 -0.40992 0.41383 0.75724 -0.50531 6.8598e-07 0.60524 0.79604 6.8598e-07 0.60524 0.79604 6.8598e-07 0.60524 0.79604 -0.46273 0.74742 -0.4767 -0.534 0.7278 -0.4303 -0.41383 0.75724 -0.50531 -0.56259 0.71796 -0.40992 -0.8712 0.39329 -0.29382 -0.89637 0.32301 -0.30363 -0.90766 0.28496 -0.30813 -0.85816 0.42443 -0.28882 -0.94666 -0.32 0.037998 -0.93857 -0.33934 0.062794 -0.95402 -0.29951 0.012144 -0.93533 -0.34638 0.07192 -0.47664 -0.83747 0.26731 -0.53059 -0.81248 0.24153 -0.46116 -0.84385 0.27433 -0.53979 -0.80777 0.23693 0.47664 -0.83747 0.2673 0.53059 -0.81248 0.24153 0.53979 -0.80777 0.23693 0.46116 -0.84385 0.27433 0.94666 -0.32 0.037998 0.93857 -0.33934 0.062793 0.93533 -0.34638 0.071919 0.95402 -0.29951 0.012144 0.54299 0.83968 0.010092 0.55064 0.83384 0.038804 0.53901 0.84229 -0.0041303 0.55447 0.83046 0.053921 0.47811 0.8783 -8.0603e-08 0.47811 0.8783 -8.0603e-08 0.47811 0.8783 -8.0603e-08 0.47811 0.8783 -8.0603e-08 -0.16114 -0.86871 0.46838 -0.14929 -0.86594 0.47734 -0.19502 -0.87555 0.44201 -0.11552 -0.85703 0.50215 0.42303 0.89669 0.13039 0.44172 0.88475 0.14864 0.50312 0.83823 0.21033 0.34973 0.93486 0.060953 -0.99994 -0.0025766 -0.010608 -0.99994 -0.0025766 -0.010608 -0.99994 -0.0025766 -0.010608 -0.99994 -0.0025766 -0.010608 -0.44172 0.88475 0.14864 -0.42303 0.89669 0.13039 -0.50312 0.83823 0.21033 -0.34973 0.93486 0.060953 0.14929 -0.86594 0.47734 0.16114 -0.86871 0.46838 0.19502 -0.87555 0.44201 0.11552 -0.85703 0.50215 0.99994 -0.0025765 -0.010608 0.99994 -0.0025765 -0.010608 0.99994 -0.0025765 -0.010608 0.99994 -0.0025765 -0.010608 0.55019 0.8302 0.089782 0.51629 0.84914 0.11138 0.57633 0.81399 0.072503 0.47357 0.86997 0.13742 -0.97885 -0.020431 0.20355 -0.97977 -0.033968 0.19724 -0.98042 -0.046479 0.19136 -0.97705 1.1965e-16 0.21299 -0.16178 -0.87586 0.45464 -0.15216 -0.87606 0.45757 -0.1647 -0.87578 0.45375 -0.14804 -0.87612 0.4588 -0.51629 0.84914 0.11138 -0.55019 0.8302 0.089782 -0.57633 0.81399 0.072503 -0.47357 0.86997 0.13742 0.15216 -0.87606 0.45757 0.16178 -0.87586 0.45464 0.1647 -0.87578 0.45375 0.14804 -0.87612 0.4588 0.97977 -0.033968 0.19724 0.97885 -0.020431 0.20355 0.98042 -0.046479 0.19136 0.97705 -1.1965e-16 0.21299 0.99994 -0.0025765 0.010608 0.99994 -0.0025766 0.010608 0.99994 -0.0025765 0.010608 0.99994 -0.0025766 0.010608 0.15073 -0.86411 -0.48019 0.17545 -0.86819 -0.46417 0.11552 -0.85703 -0.50215 0.21076 -0.87272 -0.44038 -0.42739 0.89603 -0.1203 -0.47116 0.86835 -0.15482 -0.53379 0.82019 -0.2058 -0.34973 0.93486 -0.060953 -0.99994 -0.0025766 0.010609 -0.99994 -0.0025766 0.010609 -0.99994 -0.0025766 0.010609 -0.99994 -0.0025766 0.010609 0.63434 0.18246 -0.75122 0.63434 0.18246 -0.75122 0.63434 0.18246 -0.75122 0.63434 0.18246 -0.75122 0.098923 -0.6568 -0.74755 0.098922 -0.6568 -0.74755 0.098923 -0.6568 -0.74755 0.098922 -0.6568 -0.74755 -0.24437 0.7821 -0.57323 -0.24437 0.7821 -0.57323 -0.24437 0.7821 -0.57324 -0.24437 0.7821 -0.57323 -0.098924 -0.6568 -0.74755 -0.098923 -0.6568 -0.74755 -0.098924 -0.6568 -0.74755 -0.098923 -0.6568 -0.74755 0.42739 0.89603 -0.1203 0.47116 0.86835 -0.15482 0.34973 0.93486 -0.060953 0.53379 0.82019 -0.2058 -0.15073 -0.86411 -0.48019 -0.17545 -0.86819 -0.46417 -0.21076 -0.87272 -0.44038 -0.11552 -0.85703 -0.50215 0.24437 0.7821 -0.57323 0.24437 0.7821 -0.57324 0.24437 0.7821 -0.57323 0.24437 0.7821 -0.57324 -0.63434 0.18246 -0.75122 -0.63434 0.18246 -0.75122 -0.63434 0.18246 -0.75122 -0.63434 0.18246 -0.75122 -1 1.2246e-16 1.6859e-07 -1 1.2246e-16 1.6859e-07 -1 1.2246e-16 1.6859e-07 -1 1.2246e-16 1.6859e-07 -0.16662 -0.98602 2.8089e-08 -0.16662 -0.98602 2.8089e-08 -0.16662 -0.98602 2.8089e-08 -0.16662 -0.98602 2.8089e-08 -0.47811 0.8783 8.0603e-08 -0.47811 0.8783 8.0603e-08 -0.47811 0.8783 8.0603e-08 -0.47811 0.8783 8.0603e-08 0.53909 0.83734 -0.090745 0.51561 0.85 -0.10789 0.47357 0.86997 -0.13742 0.56669 0.82095 -0.069948 -0.97923 -0.02013 -0.20175 -0.98001 -0.028893 -0.19682 -0.97705 1.1965e-16 -0.21299 -0.98101 -0.042113 -0.18935 -0.15997 -0.87616 -0.4547 -0.15214 -0.87615 -0.4574 -0.14805 -0.87612 -0.4588 -0.16303 -0.87615 -0.45364 -0.51561 0.85 -0.10789 -0.53909 0.83734 -0.090745 -0.47357 0.86997 -0.13742 -0.56669 0.82095 -0.069947 0.16662 -0.98602 -2.8089e-08 0.16662 -0.98602 -2.8089e-08 0.16662 -0.98602 -2.8089e-08 0.16662 -0.98602 -2.8089e-08 0.15214 -0.87615 -0.4574 0.15996 -0.87616 -0.4547 0.14804 -0.87612 -0.4588 0.16303 -0.87615 -0.45364 1 -1.2246e-16 -1.6859e-07 1 -1.2246e-16 -1.6859e-07 1 -1.2246e-16 -1.6859e-07 1 -1.2246e-16 -1.6859e-07 0.98001 -0.028893 -0.19682 0.97923 -0.02013 -0.20175 0.97705 -1.1965e-16 -0.21299 0.98101 -0.042113 -0.18935 -0.19778 -0.97711 -0.078344 -0.1936 -0.9774 -0.084867 -0.20205 -0.97675 -0.071648 -0.18958 -0.97763 -0.09113 -0.99394 -0.025934 -0.10678 -0.99334 -0.025391 -0.11242 -0.99382 -0.025823 -0.10793 -0.9932 -0.025274 -0.11363 0.99334 -0.025391 -0.11242 0.99394 -0.025935 -0.10678 0.99382 -0.025823 -0.10793 0.9932 -0.025274 -0.11363 0.63434 0.18246 0.75122 0.63434 0.18246 0.75122 0.63434 0.18246 0.75122 0.63434 0.18246 0.75122 0.098923 -0.6568 0.74755 0.098922 -0.6568 0.74755 0.098922 -0.6568 0.74755 0.098923 -0.6568 0.74755 -0.24437 0.7821 0.57323 -0.24437 0.7821 0.57324 -0.24437 0.7821 0.57323 -0.24437 0.7821 0.57324 -0.098923 -0.6568 0.74755 -0.098922 -0.6568 0.74755 -0.098922 -0.6568 0.74755 -0.098923 -0.6568 0.74755 -0.54299 0.83968 0.010093 -0.55064 0.83384 0.038805 -0.55447 0.83046 0.053921 -0.53901 0.84229 -0.0041299 0.1936 -0.9774 -0.084868 0.19778 -0.97711 -0.078344 0.20205 -0.97675 -0.071648 0.18958 -0.97763 -0.091131 0.24437 0.7821 0.57324 0.24437 0.7821 0.57323 0.24437 0.7821 0.57323 0.24437 0.7821 0.57324 -0.63434 0.18246 0.75122 -0.63434 0.18246 0.75122 -0.63434 0.18246 0.75122 -0.63434 0.18246 0.75122 0.86603 0.5 -1.46e-07 0.86603 0.5 -1.46e-07 0.86603 0.5 -1.46e-07 0.86603 0.5 -1.46e-07 0.86603 0.5 -1.46e-07 0.86603 0.5 -1.46e-07 1.2246e-16 1 0 1.2246e-16 1 0 1.2246e-16 1 0 1.2246e-16 1 0 1.2246e-16 1 0 1.2246e-16 1 0 -0.86603 0.5 1.46e-07 -0.86603 0.5 1.46e-07 -0.86603 0.5 1.46e-07 -0.86603 0.5 1.46e-07 -0.86603 0.5 1.46e-07 -0.86603 0.5 1.46e-07 -0.86603 -0.5 1.46e-07 -0.86603 -0.5 1.46e-07 -0.86603 -0.5 1.46e-07 -0.86603 -0.5 1.46e-07 -0.86603 -0.5 1.46e-07 -0.86603 -0.5 1.46e-07 -1.2246e-16 -1 0 -1.2246e-16 -1 0 -1.2246e-16 -1 0 -1.2246e-16 -1 0 -1.2246e-16 -1 0 -1.2246e-16 -1 0 0.86603 -0.5 -1.46e-07 0.86603 -0.5 -1.46e-07 0.86603 -0.5 -1.46e-07 0.86603 -0.5 -1.46e-07 0.86603 -0.5 -1.46e-07 0.86603 -0.5 -1.46e-07</float_array><technique_common><accessor source="#g-n-a" count="1306" stride="3"><param name="X" type="float"/><param name="Y" type="float"/><param name="Z" type="float"/></accessor></technique_common></source>
<vertices id="g-v"><input semantic="POSITION" source="#g-p"/><input semantic="NORMAL" source="#g-n"/></vertices>
<triangles material="m0" count="540"><input semantic="VERTEX" source="#g-v" offset="0"/><p>0 1 2 1 0 3 4 5 6 7 5 4 8 9 10 9 8 11 12 13 14 15 12 14 16 17 18 19 18 17 20 21 22 21 20 23 24 25 26 27 24 26 28 29 30 29 28 31 32 33 34 35 32 34 36 37 38 37 36 39 40 41 42 42 43 40 44 45 46 45 44 47 48 49 50 48 51 49 52 53 54 53 52 55 56 57 58 57 56 59 60 61 62 63 60 62 64 65 66 65 64 67 68 69 70 69 68 71 72 73 74 73 72 75 76 77 78 77 76 79 80 81 82 81 80 83 84 85 86 86 87 84 88 89 90 88 91 89 92 93 94 92 95 93 96 97 98 98 99 96 100 101 102 101 100 103 104 105 106 107 105 104 108 109 110 109 108 111 112 113 114 114 115 112 116 117 118 117 116 119 120 121 122 123 120 122 124 125 126 125 124 127 128 129 130 129 128 131 132 133 134 133 132 135 136 137 138 139 137 136 137 140 141 140 137 139 142 143 144 143 142 145 146 147 148 149 150 151 150 149 152 153 154 155 154 153 156 157 158 159 158 157 160 161 162 163 163 162 164 165 166 167 166 165 168 169 170 171 170 169 172 173 174 175 173 176 174 176 173 177 178 179 180 181 179 178 182 183 184 183 182 185 186 187 188 187 186 189 190 191 192 191 190 193 194 195 196 195 194 197 198 199 200 199 198 201 202 203 204 203 202 205 206 207 208 207 206 209 210 211 212 211 210 213 214 215 216 215 214 217 218 219 220 219 218 221 222 223 224 223 222 225 226 227 228 227 226 229 230 231 232 231 230 233 234 235 236 234 237 235 238 239 240 239 238 241 242 243 244 243 242 245 246 247 248 247 246 249 250 251 252 253 251 250 254 255 256 257 256 255 258 259 260 261 259 258 262 263 264 265 263 262 266 267 268 269 268 267 270 271 272 271 270 273 274 275 276 275 274 277 278 279 280 279 278 281 282 283 284 283 282 285 286 287 288 287 286 289 290 291 292 291 290 293 294 295 296 295 294 297 298 299 300 298 301 299 302 303 304 303 302 305 306 307 308 307 306 309 310 311 312 310 313 311 314 315 316 315 314 317 318 319 320 318 321 319 322 323 324 323 322 325 326 327 328 327 326 329 330 331 332 331 330 333 334 335 336 337 334 336 338 339 340 339 338 341 342 343 344 343 342 345 346 347 348 347 346 349 350 351 352 351 350 353 354 355 356 355 354 357 358 359 360 359 358 361 362 363 364 363 362 365 366 367 368 367 366 369 370 371 372 371 370 373 374 375 376 376 377 378 377 376 375 379 380 381 380 379 382 383 384 385 386 384 383 387 388 389 390 389 388 391 392 393 392 391 394 395 396 397 397 398 395 399 400 401 400 399 402 403 404 405 405 406 403 407 408 409 407 410 408 411 412 413 412 411 414 415 416 417 416 415 418 419 420 421 420 419 422 423 424 425 424 423 426 427 428 429 428 427 430 431 432 433 432 431 434 435 436 437 438 436 435 439 440 441 440 439 442 443 444 445 446 443 445 447 448 449 450 448 447 451 452 453 452 451 454 455 456 457 456 455 458 459 460 461 462 460 459 463 464 465 464 463 466 467 468 469 469 470 467 471 472 473 471 474 472 475 476 477 476 475 478 479 480 481 480 479 482 483 484 485 485 486 483 487 488 489 489 490 487 491 492 493 492 491 494 495 496 497 496 495 498 499 500 501 500 499 502 503 504 505 504 503 506 507 508 509 508 507 510 511 512 513 512 511 514 515 516 517 516 515 518 519 520 521 520 519 522 523 524 525 523 526 524 527 528 529 527 530 528 531 532 533 531 534 532 535 536 537 536 535 538 539 540 541 540 539 542 543 544 545 544 543 546 547 548 549 548 547 550 551 552 553 551 553 554 555 556 557 558 556 555 559 560 561 560 559 562 563 564 565 564 563 566 567 568 569 568 567 570 571 572 573 574 572 571 575 576 577 576 575 578 579 580 581 582 583 584 585 584 583 586 587 588 587 586 589 590 591 592 592 591 593 594 595 596 596 595 597 598 599 600 599 598 601 602 603 604 603 602 605 606 607 608 607 606 609 610 611 612 611 610 613 614 615 616 617 618 619 618 617 620 621 622 623 622 621 624 625 626 627 626 625 628 629 630 631 630 629 632 633 634 635 633 636 634 637 638 639 638 637 640 641 642 643 642 641 644 643 642 645 646 647 648 649 646 648 650 651 652 651 650 653 654 655 656 657 655 654 658 659 660 659 658 661 662 663 664 663 662 665 666 667 668 669 667 666 670 671 672 671 670 673 674 675 676 675 674 677 678 679 680 679 678 681 682 683 684 683 682 685 686 687 688 689 687 686 690 691 692 691 690 693 694 695 696 695 694 697 698 699 700 701 699 698 702 703 704 705 703 702 706 707 708 707 706 709 710 711 712 711 710 713 714 715 716 715 714 717 718 719 720 719 718 721 722 723 724 722 725 723 726 727 728 727 726 729 730 731 732 731 730 733 734 735 736 736 737 734 738 739 740 739 738 741 742 743 744 745 743 742 746 747 748 747 746 749 750 751 752 751 750 753 754 755 756 755 754 757 758 759 760 759 758 761 762 763 764 763 762 765 766 767 768 767 766 769 770 771 772 773 770 772 774 775 776 775 774 777 778 779 780 779 778 781 782 783 784 783 782 785 786 787 788 789 787 786 790 791 792 793 792 791 794 795 796 797 795 794 798 799 800 801 799 798 802 803 804 803 802 805 806 807 808 808 809 806 810 811 812 811 810 813 814 815 816 817 815 814 818 819 820 818 821 819 822 823 824 822 825 823 826 827 828 829 827 826 830 831 832 831 830 833 834 835 836 837 835 834 838 839 840 839 838 841 842 843 844 843 842 845 846 847 848 847 849 850 847 846 849 851 852 853 852 851 854 855 856 857 857 858 855 859 860 861 861 862 859 863 864 865 866 864 863 867 868 869 867 869 870 871 872 873 872 871 874 875 876 877 875 877 878 879 880 881 882 880 879 883 884 885 886 884 883 887 888 889 888 887 890 891 892 893 892 891 894 895 896 897 896 895 898 899 900 901 900 899 902 903 904 905 906 904 903 907 908 909 909 910 907 911 912 913 912 911 914 915 916 917 916 915 918 919 920 921 920 919 922 923 924 925 924 923 926 927 928 929 930 927 929 931 932 933 932 931 934 935 936 937 936 935 938 939 940 941 942 940 939 943 944 945 944 943 946 947 948 949 948 947 950 951 952 953 952 951 954 955 956 957 958 955 957 959 960 961 962 959 961 963 964 965 964 963 966 967 968 969 968 967 970 971 972 973 974 971 973 975 976 977 976 975 978 979 980 981 980 979 982 983 984 985 984 983 986 987 988 989 988 987 990 991 992 993 994 992 991 995 996 997 996 995 998 999 1000 1001 1000 999 1002 1003 1004 1005 1004 1003 1006 1007 1008 1009 1008 1007 1010 1011 1012 1013 1012 1011 1014 1015 1016 1017 1018 1016 1015 1019 1020 1021 1022 1020 1019 1023 1024 1025 1026 1024 1023 1027 1028 1029 1030 1028 1027 1031 1032 1033 1032 1031 1034 1035 1036 1037 1038 1036 1035 1039 1040 1041 1040 1039 1042 1043 1044 1045 1044 1043 1046 1047 1048 1049 1048 1047 1050 1051 1052 1053 1054 1055 1056 1055 1054 1057 1058 1059 1060 1059 1058 1061 1062 1063 1064 1062 1065 1063 1066 1067 1068 1067 1066 1069 1070 1071 1072 1071 1070 1073 1074 1075 1076 1075 1074 1077</p></triangles>
<triangles material="m1" count="96"><input semantic="VERTEX" source="#g-v" offset="0"/><p>1078 1079 1080 1079 1078 1081 1082 1083 1084 1083 1082 1085 1086 1087 1088 1087 1086 1089 1090 1091 1092 1093 1091 1090 1094 1095 1096 1095 1094 1097 1098 1099 1100 1099 1098 1101 1102 1103 1104 1105 1103 1102 1106 1107 1108 1106 1108 1109 1110 1111 1112 1111 1110 1113 1114 1115 1116 1115 1114 1117 1118 1119 1120 1119 1118 1121 1122 1123 1124 1123 1122 1125 1126 1127 1128 1127 1126 1129 1130 1131 1132 1131 1130 1133 1134 1135 1136 1135 1134 1137 1138 1139 1140 1139 1138 1141 1142 1143 1144 1143 1142 1145 1146 1147 1148 1147 1146 1149 1150 1151 1152 1151 1150 1153 1154 1155 1156 1157 1156 1155 1158 1159 1160 1161 1159 1158 1162 1163 1164 1163 1162 1165 1166 1167 1168 1167 1166 1169 1170 1171 1172 1171 1170 1173 1174 1175 1176 1175 1174 1177 1178 1179 1180 1181 1179 1178 1182 1183 1184 1183 1182 1185 1186 1187 1188 1187 1186 1189 1190 1191 1192 1191 1190 1193 1194 1195 1196 1197 1195 1194 1198 1199 1200 1199 1198 1201 1202 1203 1204 1203 1202 1205 1206 1207 1208 1207 1206 1209 1210 1211 1212 1211 1210 1213 1214 1215 1216 1215 1214 1217 1218 1219 1220 1219 1218 1221 1222 1223 1224 1225 1223 1222 1226 1227 1228 1227 1226 1229 1230 1231 1232 1233 1232 1231 1234 1235 1236 1234 1236 1237 1238 1239 1240 1239 1238 1241 1242 1243 1244 1244 1245 1242 1246 1247 1248 1247 1246 1249 1250 1251 1252 1251 1250 1253 1254 1255 1256 1255 1254 1257 1258 1259 1260 1259 1258 1261 1262 1263 1264 1263 1262 1265 1266 1267 1268 1266 1268 1269</p></triangles>
<triangles material="m2" count="24"><input semantic="VERTEX" source="#g-v" offset="0"/><p>1270 1271 1272 1272 1271 1273 1272 1274 1270 1274 1272 1275 1276 1277 1278 1278 1277 1279 1278 1280 1276 1280 1278 1281 1282 1283 1284 1284 1283 1285 1284 1286 1282 1286 1284 1287 1288 1289 1290 1290 1289 1291 1290 1292 1288 1292 1290 1293 1294 1295 1296 1296 1297 1294 1296 1295 1298 1297 1296 1299 1300 1301 1302 1302 1301 1303 1302 1304 1300 1304 1302 1305</p></triangles>
</mesh></geometry></library_geometries><library_visual_scenes><visual_scene id="Scene"><node id="n" name="bow"><instance_geometry url="#g"><bind_material><technique_common>
<instance_material symbol="m0" target="#m0"/>
<instance_material symbol="m1" target="#m1"/>
<instance_material symbol="m2" target="#m2"/>
</technique_common></bind_material></instance_geometry></node></visual_scene></library_visual_scenes><scene><instance_visual_scene url="#Scene"/></scene></COLLADA>
