<?xml version="1.0" encoding="utf-8"?>
<COLLADA xmlns="http://www.collada.org/2005/11/COLLADASchema" version="1.4.1">
<asset><contributor><authoring_tool>VATs starter props (see CREDITS.md)</authoring_tool></contributor><unit name="meter" meter="1"/><up_axis>Z_UP</up_axis></asset>
<library_effects>
<effect id="m0-fx"><profile_COMMON><technique sid="common"><lambert><diffuse><color>0.620 0.660 0.710 1</color></diffuse></lambert></technique></profile_COMMON></effect>
<effect id="m1-fx"><profile_COMMON><technique sid="common"><lambert><diffuse><color>0.420 0.490 0.580 1</color></diffuse></lambert></technique></profile_COMMON></effect>
<effect id="m2-fx"><profile_COMMON><technique sid="common"><lambert><diffuse><color>0.240 0.250 0.280 1</color></diffuse></lambert></technique></profile_COMMON></effect>
<effect id="m3-fx"><profile_COMMON><technique sid="common"><lambert><diffuse><color>0.800 0.600 0.330 1</color></diffuse></lambert></technique></profile_COMMON></effect>
</library_effects><library_materials>
<material id="m0" name="m0"><instance_effect url="#m0-fx"/></material>
<material id="m1" name="m1"><instance_effect url="#m1-fx"/></material>
<material id="m2" name="m2"><instance_effect url="#m2-fx"/></material>
<material id="m3" name="m3"><instance_effect url="#m3-fx"/></material>
</library_materials><library_geometries><geometry id="g" name="can"><mesh>
<source id="g-p"><float_array id="g-p-a" count="852">0.023031 0.023031 0.0034798 -4.8535e-10 0.032571 0.0034798 0.022145 0.022145 0 -4.6668e-10 0.031318 0 4.6668e-10 -0.031318 0 -0.022145 -0.022145 0 4.8535e-10 -0.032571 0.0034798 -0.023031 -0.023031 0.0034798 -0.022145 -0.022145 0 -0.031318 -4.6668e-10 0 -0.023031 -0.023031 0.0034798 -0.032571 -4.8535e-10 0.0034798 0.031318 4.6668e-10 0 0.022145 -0.022145 0 0.032571 4.8535e-10 0.0034798 0.023031 -0.023031 0.0034798 -4.8535e-10 0.032571 0.0034798 -0.023031 0.023031 0.0034798 -4.6668e-10 0.031318 0 -0.022145 0.022145 0 0.023031 -0.023031 0.0034798 0.022145 -0.022145 0 4.8535e-10 -0.032571 0.0034798 4.6668e-10 -0.031318 0 0.022145 0.022145 0 0.031318 4.6668e-10 0 0.023031 0.023031 0.0034798 0.032571 4.8535e-10 0.0034798 -0.031318 -4.6668e-10 0 -0.022145 0.022145 0 -0.032571 -4.8535e-10 0.0034798 -0.023031 0.023031 0.0034798 -5.1835e-10 0.034786 0.10787 -5.1835e-10 0.034786 0.11483 -0.024597 0.024597 0.10787 -0.024597 0.024597 0.11483 -0.034786 -5.1835e-10 0.10787 -0.024597 0.024597 0.10787 -0.034786 -5.1835e-10 0.11483 -0.024597 0.024597 0.11483 -0.024597 -0.024597 0.10787 -0.034786 -5.1835e-10 0.10787 -0.024597 -0.024597 0.11483 -0.034786 -5.1835e-10 0.11483 0.024597 0.024597 0.10787 0.034786 5.1835e-10 0.10787 0.024597 0.024597 0.11483 0.034786 5.1835e-10 0.11483 0.024597 0.024597 0.10787 0.024597 0.024597 0.11483 -5.1835e-10 0.034786 0.10787 -5.1835e-10 0.034786 0.11483 4.6668e-10 -0.031318 0 0.022145 -0.022145 0 -0.022145 -0.022145 0 -0.031318 -4.6668e-10 0 0.031318 4.6668e-10 0 0.022145 0.022145 0 -0.022145 0.022145 0 -4.6668e-10 0.031318 0 0.034786 5.1835e-10 0.10787 0.024597 -0.024597 0.10787 0.034786 5.1835e-10 0.11483 0.024597 -0.024597 0.11483 0.024597 -0.024597 0.11483 0.024597 -0.024597 0.10787 5.1835e-10 -0.034786 0.11483 5.1835e-10 -0.034786 0.10787 5.1835e-10 -0.034786 0.11483 5.1835e-10 -0.034786 0.10787 -0.024597 -0.024597 0.11483 -0.024597 -0.024597 0.10787 -0.020159 -0.020159 0.11483 -0.028508 -4.2481e-10 0.11483 -0.017393 -0.017393 0.11135 -0.024597 -3.6653e-10 0.11135 -0.024597 -3.6653e-10 0.11135 -0.028508 -4.2481e-10 0.11483 -0.017393 0.017393 0.11135 -0.020159 0.020159 0.11483 4.2481e-10 -0.028508 0.11483 3.6653e-10 -0.024597 0.11135 0.020159 -0.020159 0.11483 0.017393 -0.017393 0.11135 0.024597 3.6653e-10 0.11135 0.017393 0.017393 0.11135 0.028508 4.2481e-10 0.11483 0.020159 0.020159 0.11483 0.020159 -0.020159 0.11483 0.017393 -0.017393 0.11135 0.028508 4.2481e-10 0.11483 0.024597 3.6653e-10 0.11135 -0.017393 0.017393 0.11135 -0.020159 0.020159 0.11483 -0.0086964 0.020995 0.11135 -4.2482e-10 0.028508 0.11483 -3.6653e-10 0.024597 0.11135 0.017393 0.017393 0.11135 -3.6653e-10 0.024597 0.11135 0.020159 0.020159 0.11483 -4.2482e-10 0.028508 0.11483 4.2481e-10 -0.028508 0.11483 -0.020159 -0.020159 0.11483 3.6653e-10 -0.024597 0.11135 -0.017393 -0.017393 0.11135 -5.1835e-10 0.034786 0.11483 0.024597 0.024597 0.11483 -4.2482e-10 0.028508 0.11483 -0.024597 0.024597 0.11483 0.020159 0.020159 0.11483 -0.020159 0.020159 0.11483 -0.028508 -4.2481e-10 0.11483 -0.034786 -5.1835e-10 0.11483 -0.020159 -0.020159 0.11483 -0.024597 -0.024597 0.11483 0.034786 5.1835e-10 0.11483 0.028508 4.2481e-10 0.11483 0.020159 -0.020159 0.11483 0.024597 -0.024597 0.11483 4.2481e-10 -0.028508 0.11483 5.1835e-10 -0.034786 0.11483 1.5839e-10 -0.010629 0.12116 0.0090571 -0.0073803 0.11929 -0.0090571 -0.0073803 0.11929 1.0219e-10 -0.0068576 0.11899 -0.0043234 -0.0053067 0.11809 0.0043234 -0.0053067 0.11809 0.0051475 0.006364 0.11135 0.0019948 0.0028795 0.11336 -0.0051475 0.006364 0.11135 -0.0019948 0.0028795 0.11336 0.0019948 0.0046194 0.11638 0.0019948 0.0028795 0.11336 -0.0019948 0.0046194 0.11638 -0.0019948 0.0028795 0.11336 0.0019948 0.0028795 0.11336 0.0019948 0.0046194 0.11638 0.0043234 -0.0053067 0.11809 0.0043234 -0.0035669 0.1211 0.0043234 -0.0053067 0.11809 0.0043234 -0.0035669 0.1211 1.0219e-10 -0.0068576 0.11899 7.6261e-11 -0.0051177 0.122 1.0219e-10 -0.0068576 0.11899 7.6261e-11 -0.0051177 0.122 -0.0043234 -0.0053067 0.11809 -0.0043234 -0.0035669 0.1211 -0.0019948 0.0028795 0.11336 -0.0043234 -0.0053067 0.11809 -0.0019948 0.0046194 0.11638 -0.0043234 -0.0035669 0.1211 -0.0019948 0.0046194 0.11638 -0.0051475 0.006364 0.11135 0.0019948 0.0046194 0.11638 0.0051475 0.006364 0.11135 0.0090571 -0.0073803 0.11929 0.0043234 -0.0035669 0.1211 0.0051475 0.006364 0.11135 0.0019948 0.0046194 0.11638 -0.0090571 -0.0073803 0.11929 -0.0051475 0.006364 0.11135 -0.0043234 -0.0035669 0.1211 -0.0019948 0.0046194 0.11638 1.5839e-10 -0.010629 0.12116 -0.0090571 -0.0073803 0.11929 7.6261e-11 -0.0051177 0.122 -0.0043234 -0.0035669 0.1211 1.5839e-10 -0.010629 0.12116 7.6261e-11 -0.0051177 0.122 0.0090571 -0.0073803 0.11929 0.0043234 -0.0035669 0.1211 0.027637 -0.027637 0.097434 5.8242e-10 -0.039085 0.097434 0.024597 -0.024597 0.10787 5.1835e-10 -0.034786 0.10787 -0.027637 -0.027637 0.097434 -0.039085 -5.8242e-10 0.097434 -0.024597 -0.024597 0.10787 -0.034786 -5.1835e-10 0.10787 -5.8242e-10 0.039085 0.097434 -5.1835e-10 0.034786 0.10787 -0.027637 0.027637 0.097434 -0.024597 0.024597 0.10787 0.027637 0.027637 0.097434 0.024597 0.024597 0.10787 -5.8242e-10 0.039085 0.097434 -5.1835e-10 0.034786 0.10787 0.039085 5.8242e-10 0.097434 0.027637 -0.027637 0.097434 0.034786 5.1835e-10 0.10787 0.024597 -0.024597 0.10787 0.027637 0.027637 0.097434 0.039085 5.8242e-10 0.097434 0.024597 0.024597 0.10787 0.034786 5.1835e-10 0.10787 -0.039085 -5.8242e-10 0.097434 -0.027637 0.027637 0.097434 -0.034786 -5.1835e-10 0.10787 -0.024597 0.024597 0.10787 5.8242e-10 -0.039085 0.097434 -0.027637 -0.027637 0.097434 5.1835e-10 -0.034786 0.10787 -0.024597 -0.024597 0.10787 3.6653e-10 -0.024597 0.11135 -0.017393 -0.017393 0.11135 0.017393 -0.017393 0.11135 0.024597 3.6653e-10 0.11135 -0.024597 -3.6653e-10 0.11135 0.0051475 0.006364 0.11135 0.017393 0.017393 0.11135 -0.0051475 0.006364 0.11135 0.0051475 0.016803 0.11135 -0.017393 0.017393 0.11135 -0.0051475 0.016803 0.11135 -0.0086964 0.020995 0.11135 -3.6653e-10 0.024597 0.11135 -0.023031 -0.023031 0.0034798 -0.032571 -4.8535e-10 0.0034798 -0.027637 -0.027637 0.010439 -0.039085 -5.8242e-10 0.010439 0.032571 4.8535e-10 0.0034798 0.023031 -0.023031 0.0034798 0.039085 5.8242e-10 0.010439 0.027637 -0.027637 0.010439 0.023031 0.023031 0.0034798 0.032571 4.8535e-10 0.0034798 0.027637 0.027637 0.010439 0.039085 5.8242e-10 0.010439 0.027637 -0.027637 0.010439 0.023031 -0.023031 0.0034798 5.8242e-10 -0.039085 0.010439 4.8535e-10 -0.032571 0.0034798 5.8242e-10 -0.039085 0.010439 4.8535e-10 -0.032571 0.0034798 -0.027637 -0.027637 0.010439 -0.023031 -0.023031 0.0034798 0.027637 0.027637 0.010439 -5.8242e-10 0.039085 0.010439 0.023031 0.023031 0.0034798 -4.8535e-10 0.032571 0.0034798 -5.8242e-10 0.039085 0.010439 -0.027637 0.027637 0.010439 -4.8535e-10 0.032571 0.0034798 -0.023031 0.023031 0.0034798 -0.032571 -4.8535e-10 0.0034798 -0.023031 0.023031 0.0034798 -0.039085 -5.8242e-10 0.010439 -0.027637 0.027637 0.010439 0.0051475 0.006364 0.11135 -0.0051475 0.006364 0.11135 0.0051475 0.016803 0.11135 -0.0051475 0.016803 0.11135 5.8242e-10 -0.039085 0.097434 5.8242e-10 -0.039085 0.010439 -0.027637 -0.027637 0.097434 -0.027637 -0.027637 0.010439 -5.8242e-10 0.039085 0.010439 -5.8242e-10 0.039085 0.097434 -0.027637 0.027637 0.010439 -0.027637 0.027637 0.097434 0.027637 -0.027637 0.097434 0.027637 -0.027637 0.010439 5.8242e-10 -0.039085 0.097434 5.8242e-10 -0.039085 0.010439 0.027637 0.027637 0.010439 0.039085 5.8242e-10 0.010439 0.027637 0.027637 0.097434 0.039085 5.8242e-10 0.097434 0.027637 0.027637 0.010439 0.027637 0.027637 0.097434 -5.8242e-10 0.039085 0.010439 -5.8242e-10 0.039085 0.097434 -0.039085 -5.8242e-10 0.010439 -0.027637 0.027637 0.010439 -0.039085 -5.8242e-10 0.097434 -0.027637 0.027637 0.097434 0.039085 5.8242e-10 0.010439 0.027637 -0.027637 0.010439 0.039085 5.8242e-10 0.097434 0.027637 -0.027637 0.097434 -0.027637 -0.027637 0.010439 -0.039085 -5.8242e-10 0.010439 -0.027637 -0.027637 0.097434 -0.039085 -5.8242e-10 0.097434</float_array><technique_common><accessor source="#g-p-a" count="284" stride="3"><param name="X" type="float"/><param name="Y" type="float"/><param name="Z" type="float"/></accessor></technique_common></source>
<source id="g-n"><float_array id="g-n-a" count="852">0.36313 0.87666 -0.3156 0.36313 0.87666 -0.3156 0.36313 0.87666 -0.3156 0.36313 0.87666 -0.3156 -0.36313 -0.87666 -0.3156 -0.36313 -0.87666 -0.3156 -0.36313 -0.87666 -0.3156 -0.36313 -0.87666 -0.3156 -0.87666 -0.36313 -0.3156 -0.87666 -0.36313 -0.3156 -0.87666 -0.36313 -0.3156 -0.87666 -0.36313 -0.3156 0.87666 -0.36313 -0.3156 0.87666 -0.36313 -0.3156 0.87666 -0.36313 -0.3156 0.87666 -0.36313 -0.3156 -0.36313 0.87666 -0.3156 -0.36313 0.87666 -0.3156 -0.36313 0.87666 -0.3156 -0.36313 0.87666 -0.3156 0.36313 -0.87666 -0.3156 0.36313 -0.87666 -0.3156 0.36313 -0.87666 -0.3156 0.36313 -0.87666 -0.3156 0.87666 0.36313 -0.3156 0.87666 0.36313 -0.3156 0.87666 0.36313 -0.3156 0.87666 0.36313 -0.3156 -0.87666 0.36313 -0.3156 -0.87666 0.36313 -0.3156 -0.87666 0.36313 -0.3156 -0.87666 0.36313 -0.3156 -0.38268 0.92388 0 -0.38268 0.92388 0 -0.38268 0.92388 0 -0.38268 0.92388 0 -0.92388 0.38268 0 -0.92388 0.38268 0 -0.92388 0.38268 0 -0.92388 0.38268 0 -0.92388 -0.38268 0 -0.92388 -0.38268 0 -0.92388 -0.38268 0 -0.92388 -0.38268 0 0.92388 0.38268 0 0.92388 0.38268 0 0.92388 0.38268 0 0.92388 0.38268 0 0.38268 0.92388 0 0.38268 0.92388 0 0.38268 0.92388 0 0.38268 0.92388 0 0 0 -1 0 0 -1 0 0 -1 0 0 -1 0 0 -1 0 0 -1 0 0 -1 0 0 -1 0.92388 -0.38268 0 0.92388 -0.38268 0 0.92388 -0.38268 0 0.92388 -0.38268 0 0.38268 -0.92388 0 0.38268 -0.92388 0 0.38268 -0.92388 0 0.38268 -0.92388 0 -0.38268 -0.92388 0 -0.38268 -0.92388 0 -0.38268 -0.92388 0 -0.38268 -0.92388 0 0.64084 0.26544 0.72033 0.64084 0.26544 0.72033 0.64084 0.26544 0.72033 0.64084 0.26544 0.72033 0.64084 -0.26544 0.72033 0.64084 -0.26544 0.72033 0.64084 -0.26544 0.72033 0.64084 -0.26544 0.72033 -0.26544 0.64084 0.72033 -0.26544 0.64084 0.72033 -0.26544 0.64084 0.72033 -0.26544 0.64084 0.72033 -0.64084 -0.26544 0.72033 -0.64084 -0.26544 0.72033 -0.64084 -0.26544 0.72033 -0.64084 -0.26544 0.72033 -0.64084 0.26544 0.72033 -0.64084 0.26544 0.72033 -0.64084 0.26544 0.72033 -0.64084 0.26544 0.72033 0.26544 -0.64084 0.72033 0.26544 -0.64084 0.72033 0.26544 -0.64084 0.72033 0.26544 -0.64084 0.72033 0.26544 -0.64084 0.72033 -0.26544 -0.64084 0.72033 -0.26544 -0.64084 0.72033 -0.26544 -0.64084 0.72033 -0.26544 -0.64084 0.72033 0.26544 0.64084 0.72033 0.26544 0.64084 0.72033 0.26544 0.64084 0.72033 0.26544 0.64084 0.72033 0 0 1 0 0 1 0 0 1 0 0 1 0 0 1 0 0 1 0 0 1 0 0 1 0 0 1 0 0 1 0 0 1 0 0 1 0 0 1 0 0 1 0 0 1 0 0 1 0 -0.5 -0.86602 -4.477e-07 -0.5 -0.86603 4.477e-07 -0.5 -0.86603 -2.0353e-15 -0.5 -0.86603 5.1932e-07 -0.5 -0.86603 -5.1932e-07 -0.5 -0.86603 -3.904e-07 -0.5 -0.86603 -3.9269e-07 -0.5 -0.86603 3.904e-07 -0.5 -0.86603 3.9269e-07 -0.5 -0.86603 0 -0.86603 0.5 0 -0.86603 0.5 0 -0.86603 0.5 0 -0.86603 0.5 -0.97097 -0.20715 0.1196 -0.97097 -0.20715 0.1196 -0.97097 -0.20715 0.1196 -0.97097 -0.20715 0.1196 -0.38268 0.8001 -0.46194 -0.38268 0.8001 -0.46194 -0.38268 0.8001 -0.46194 -0.38268 0.8001 -0.46194 0.38268 0.8001 -0.46194 0.38268 0.8001 -0.46194 0.38268 0.8001 -0.46194 0.38268 0.8001 -0.46194 0.97097 -0.20715 0.1196 0.97097 -0.20715 0.1196 0.97097 -0.20715 0.1196 0.97097 -0.20715 0.1196 0 0.94469 0.32796 0 0.94469 0.32796 0 0.94469 0.32796 0 0.94469 0.32796 0.63516 0.51369 0.5768 0.63516 0.51369 0.5768 0.63516 0.51369 0.5768 0.63516 0.51369 0.5768 -0.63516 0.51369 0.5768 -0.63516 0.51369 0.5768 -0.63516 0.51369 0.5768 -0.63516 0.51369 0.5768 -0.25033 -0.1452 0.95721 -0.25033 -0.1452 0.95721 -0.25033 -0.1452 0.95721 -0.25033 -0.1452 0.95721 0.25033 -0.1452 0.95721 0.25033 -0.1452 0.95721 0.25033 -0.1452 0.95721 0.25033 -0.1452 0.95721 0.35767 -0.86349 0.35562 0.35767 -0.86349 0.35562 0.35767 -0.86349 0.35562 0.35767 -0.86349 0.35562 -0.86349 -0.35767 0.35562 -0.86349 -0.35767 0.35562 -0.86349 -0.35767 0.35562 -0.86349 -0.35767 0.35562 -0.35767 0.86349 0.35562 -0.35767 0.86349 0.35562 -0.35767 0.86349 0.35562 -0.35767 0.86349 0.35562 0.35767 0.86349 0.35562 0.35767 0.86349 0.35562 0.35767 0.86349 0.35562 0.35767 0.86349 0.35562 0.86349 -0.35767 0.35562 0.86349 -0.35767 0.35562 0.86349 -0.35767 0.35562 0.86349 -0.35767 0.35562 0.86349 0.35767 0.35562 0.86349 0.35767 0.35562 0.86349 0.35767 0.35562 0.86349 0.35767 0.35562 -0.86349 0.35767 0.35562 -0.86349 0.35767 0.35562 -0.86349 0.35767 0.35562 -0.86349 0.35767 0.35562 -0.35767 -0.86349 0.35562 -0.35767 -0.86349 0.35562 -0.35767 -0.86349 0.35562 -0.35767 -0.86349 0.35562 0 0 1 0 0 1 0 0 1 0 0 1 0 0 1 0 0 1 0 0 1 0 0 1 0 0 1 0 0 1 0 0 1 0 0 1 0 0 1 -0.69883 -0.28946 -0.6541 -0.69883 -0.28946 -0.6541 -0.69883 -0.28946 -0.6541 -0.69883 -0.28946 -0.6541 0.69883 -0.28946 -0.6541 0.69883 -0.28946 -0.6541 0.69883 -0.28946 -0.6541 0.69883 -0.28946 -0.6541 0.69883 0.28946 -0.6541 0.69883 0.28946 -0.6541 0.69883 0.28946 -0.6541 0.69883 0.28946 -0.6541 0.28946 -0.69883 -0.6541 0.28946 -0.69883 -0.6541 0.28946 -0.69883 -0.6541 0.28946 -0.69883 -0.6541 -0.28946 -0.69883 -0.6541 -0.28946 -0.69883 -0.6541 -0.28946 -0.69883 -0.6541 -0.28946 -0.69883 -0.6541 0.28946 0.69883 -0.6541 0.28946 0.69883 -0.6541 0.28946 0.69883 -0.6541 0.28946 0.69883 -0.6541 -0.28946 0.69883 -0.6541 -0.28946 0.69883 -0.6541 -0.28946 0.69883 -0.6541 -0.28946 0.69883 -0.6541 -0.69883 0.28946 -0.6541 -0.69883 0.28946 -0.6541 -0.69883 0.28946 -0.6541 -0.69883 0.28946 -0.6541 0 0 1 0 0 1 0 0 1 0 0 1 -0.38268 -0.92388 0 -0.38268 -0.92388 0 -0.38268 -0.92388 0 -0.38268 -0.92388 0 -0.38268 0.92388 0 -0.38268 0.92388 0 -0.38268 0.92388 0 -0.38268 0.92388 0 0.38268 -0.92388 0 0.38268 -0.92388 0 0.38268 -0.92388 0 0.38268 -0.92388 0 0.92388 0.38268 0 0.92388 0.38268 0 0.92388 0.38268 0 0.92388 0.38268 0 0.38268 0.92388 0 0.38268 0.92388 0 0.38268 0.92388 0 0.38268 0.92388 0 -0.92388 0.38268 0 -0.92388 0.38268 0 -0.92388 0.38268 0 -0.92388 0.38268 0 0.92388 -0.38268 0 0.92388 -0.38268 0 0.92388 -0.38268 0 0.92388 -0.38268 0 -0.92388 -0.38268 0 -0.92388 -0.38268 0 -0.92388 -0.38268 0 -0.92388 -0.38268 0</float_array><technique_common><accessor source="#g-n-a" count="284" stride="3"><param name="X" type="float"/><param name="Y" type="float"/><param name="Z" type="float"/></accessor></technique_common></source>
<vertices id="g-v"><input semantic="POSITION" source="#g-p"/><input semantic="NORMAL" source="#g-n"/></vertices>
<triangles material="m0" count="51"><input semantic="VERTEX" source="#g-v" offset="0"/><p>2 1 0 1 2 3 6 5 4 5 6 7 10 9 8 9 10 11 14 13 12 13 14 15 18 17 16 17 18 19 22 21 20 21 22 23 26 25 24 25 26 27 30 29 28 29 30 31 54 53 52 53 54 55 53 55 56 56 55 57 57 55 58 57 58 59 173 172 171 172 173 174 177 176 175 176 177 178 181 180 179 180 181 182 185 184 183 184 185 186 189 188 187 188 189 190 193 192 191 192 193 194 197 196 195 196 197 198 201 200 199 200 201 202 205 204 203 204 205 206 204 206 207 207 206 208 208 206 209 210 207 208 208 209 211 207 210 212 212 210 213 211 209 213 212 213 209 212 209 214 214 209 215</p></triangles>
<triangles material="m1" count="95"><input semantic="VERTEX" source="#g-v" offset="0"/><p>34 33 32 33 34 35 38 37 36 37 38 39 42 41 40 41 42 43 46 45 44 45 46 47 50 49 48 49 50 51 62 61 60 61 62 63 66 65 64 65 66 67 70 69 68 69 70 71 74 73 72 73 74 75 78 77 76 77 78 79 82 81 80 81 82 83 86 85 84 85 86 87 90 89 88 89 90 91 94 93 92 93 94 95 95 94 96 99 98 97 98 99 100 103 102 101 102 103 104 107 106 105 108 107 105 109 106 107 108 110 107 108 111 110 112 111 108 112 113 111 114 113 112 109 115 106 116 115 109 117 115 116 117 118 115 114 119 113 119 118 117 119 114 120 118 119 120 123 122 121 122 123 124 123 125 124 122 124 126 122 126 127 127 126 128 125 123 129 128 129 127 125 129 130 130 129 128 133 132 131 132 133 134 137 136 135 136 137 138 141 140 139 140 141 142 145 144 143 144 145 146 149 148 147 148 149 150 153 152 151 152 153 154 157 156 155 156 157 158 161 160 159 160 161 162 165 164 163 164 165 166 169 168 167 168 169 170 218 217 216 217 218 219 222 221 220 221 222 223 226 225 224 225 226 227 230 229 228 229 230 231 234 233 232 233 234 235 238 237 236 237 238 239 242 241 240 241 242 243 246 245 244 245 246 247</p></triangles>
<triangles material="m2" count="2"><input semantic="VERTEX" source="#g-v" offset="0"/><p>250 249 248 249 250 251</p></triangles>
<triangles material="m3" count="16"><input semantic="VERTEX" source="#g-v" offset="0"/><p>254 253 252 253 254 255 258 257 256 257 258 259 262 261 260 261 262 263 266 265 264 265 266 267 270 269 268 269 270 271 274 273 272 273 274 275 278 277 276 277 278 279 282 281 280 281 282 283</p></triangles>
</mesh></geometry></library_geometries><library_visual_scenes><visual_scene id="Scene"><node id="n" name="can"><instance_geometry url="#g"><bind_material><technique_common>
<instance_material symbol="m0" target="#m0"/>
<instance_material symbol="m1" target="#m1"/>
<instance_material symbol="m2" target="#m2"/>
<instance_material symbol="m3" target="#m3"/>
</technique_common></bind_material></instance_geometry></node></visual_scene></library_visual_scenes><scene><instance_visual_scene url="#Scene"/></scene></COLLADA>
