<?xml version="1.0" encoding="utf-8"?>
<COLLADA xmlns="http://www.collada.org/2005/11/COLLADASchema" version="1.4.1">
<asset><contributor><authoring_tool>VATs starter props (see CREDITS.md)</authoring_tool></contributor><unit name="meter" meter="1"/><up_axis>Z_UP</up_axis></asset>
<library_effects>
<effect id="m0-fx"><profile_COMMON><technique sid="common"><lambert><diffuse><color>0.620 0.470 0.340 1</color></diffuse></lambert></technique></profile_COMMON></effect>
</library_effects><library_materials>
<material id="m0" name="m0"><instance_effect url="#m0-fx"/></material>
</library_materials><library_geometries><geometry id="g" name="chair"><mesh>
<source id="g-p"><float_array id="g-p-a" count="687">-0.019167 -0.13417 0.095833 -0.019167 0.13417 0.095833 -0.019167 -0.13417 0.13417 -0.019167 0.13417 0.13417 0.115 0.115 0 0.19167 0.115 0 0.115 0.19167 0 0.19167 0.19167 0 -0.115 -0.115 0.82417 -0.13417 -0.115 0.56542 -0.115 -0.115 0.46 -0.19167 -0.115 0.46 -0.1725 -0.115 0.56542 -0.1725 -0.115 0.64208 -0.13417 -0.115 0.64208 -0.19167 -0.115 0.82417 0.019167 0.13417 0.095833 0.019167 -0.13417 0.095833 0.019167 0.13417 0.13417 0.019167 -0.13417 0.13417 0.19167 -0.19167 0.46 -0.115 -0.19167 0.46 0.19167 0.19167 0.46 -0.115 -0.115 0.46 -0.19167 -0.115 0.46 -0.115 0.115 0.46 -0.115 0.19167 0.46 -0.19167 0.115 0.46 -0.1725 -0.115 0.56542 -0.1725 0.115 0.56542 -0.1725 -0.115 0.64208 -0.1725 0.115 0.64208 -0.115 0.19167 0 -0.115 0.19167 0.36417 -0.19167 0.19167 0 -0.115 0.19167 0.46 -0.115 0.19167 0.90083 -0.19167 0.19167 0.90083 0.115 0.19167 0.36417 0.19167 0.19167 0.46 0.115 0.19167 0 0.19167 0.19167 0 -0.115 0.115 0.36417 0.115 0.115 0.36417 -0.115 0.19167 0.36417 0.115 0.19167 0.36417 0.19167 0.115 0.36417 -0.19167 0.115 0.36417 0.19167 -0.115 0.36417 0.115 -0.115 0.36417 -0.115 -0.115 0.36417 -0.19167 -0.115 0.36417 0.115 -0.19167 0.36417 -0.115 -0.19167 0.36417 -0.13417 -0.115 0.64208 -0.1725 -0.115 0.64208 -0.13417 0.115 0.64208 -0.1725 0.115 0.64208 -0.19167 -0.19167 0 -0.19167 -0.115 0 -0.19167 -0.19167 0.90083 -0.19167 -0.115 0.36417 -0.19167 -0.115 0.46 -0.19167 0.115 0.36417 -0.19167 -0.115 0.82417 -0.19167 0.115 0.82417 -0.19167 0.115 0.46 -0.19167 0.19167 0.90083 -0.19167 0.19167 0 -0.19167 0.115 0 0.19167 0.19167 0 0.19167 0.115 0 0.19167 0.19167 0.46 0.19167 0.115 0.36417 0.19167 -0.115 0.36417 0.19167 -0.19167 0.46 0.19167 -0.19167 0 0.19167 -0.115 0 -0.13417 -0.115 0.56542 -0.13417 -0.115 0.64208 -0.13417 0.115 0.56542 -0.13417 0.115 0.64208 -0.1725 -0.115 0.56542 -0.13417 -0.115 0.56542 -0.1725 0.115 0.56542 -0.13417 0.115 0.56542 -0.115 -0.19167 0.90083 -0.19167 -0.19167 0.90083 -0.115 0.19167 0.90083 -0.19167 0.19167 0.90083 -0.19167 -0.19167 0 -0.115 -0.19167 0 -0.19167 -0.115 0 -0.115 -0.115 0 -0.115 0.19167 0.46 -0.115 0.115 0.46 -0.115 0.19167 0.90083 -0.115 0.115 0.82417 -0.115 -0.115 0.82417 -0.115 -0.19167 0.90083 -0.115 -0.19167 0.46 -0.115 -0.115 0.46 0.115 -0.19167 0 0.19167 -0.19167 0 0.115 -0.115 0 0.19167 -0.115 0 -0.19167 -0.115 0.82417 -0.115 -0.115 0.82417 -0.19167 0.115 0.82417 -0.115 0.115 0.82417 -0.115 0.115 0.46 -0.13417 0.115 0.64208 -0.115 0.115 0.82417 -0.19167 0.115 0.82417 -0.1725 0.115 0.64208 -0.1725 0.115 0.56542 -0.13417 0.115 0.56542 -0.19167 0.115 0.46 -0.115 0.115 0.36417 -0.115 0.115 0 -0.19167 0.115 0.36417 -0.19167 0.115 0 -0.19167 0.115 0 -0.115 0.115 0 -0.19167 0.19167 0 -0.115 0.19167 0 -0.115 -0.19167 0.90083 -0.115 -0.19167 0.46 -0.19167 -0.19167 0.90083 -0.115 -0.19167 0.36417 -0.115 -0.19167 0 -0.19167 -0.19167 0 0.115 -0.19167 0.36417 0.19167 -0.19167 0.46 0.19167 -0.19167 0 0.115 -0.19167 0 0.115 0.1725 0.095833 0.115 0.1725 0.13417 -0.115 0.1725 0.095833 -0.115 0.1725 0.13417 -0.115 0.115 0 -0.115 0.1725 0.095833 -0.115 0.19167 0 -0.115 0.19167 0.36417 -0.115 0.1725 0.13417 -0.115 0.13417 0.13417 -0.115 0.13417 0.095833 -0.115 0.115 0.36417 0.115 -0.115 0 0.115 -0.1725 0.095833 0.115 -0.19167 0 0.115 -0.19167 0.36417 0.115 -0.1725 0.13417 0.115 -0.13417 0.13417 0.115 -0.13417 0.095833 0.115 -0.115 0.36417 0.19167 -0.115 0 0.19167 -0.115 0.36417 0.115 -0.115 0 0.115 -0.115 0.36417 -0.115 -0.115 0 -0.115 -0.115 0.36417 -0.19167 -0.115 0 -0.19167 -0.115 0.36417 0.19167 0.115 0.36417 0.19167 0.115 0 0.115 0.115 0.36417 0.115 0.115 0 0.115 0.13417 0.13417 0.115 0.13417 0.095833 0.019167 0.13417 0.13417 0.019167 0.13417 0.095833 0.115 0.115 0.095833 0.115 0.13417 0.095833 0.115 0.115 0.36417 0.115 0.13417 0.13417 0.115 0.1725 0.13417 0.115 0.1725 0.095833 0.115 0.19167 0 0.115 0.115 0 0.115 0.19167 0.36417 -0.019167 0.13417 0.13417 -0.019167 0.13417 0.095833 -0.115 0.13417 0.13417 -0.115 0.13417 0.095833 0.115 -0.13417 0.095833 0.115 -0.13417 0.13417 0.019167 -0.13417 0.095833 0.019167 -0.13417 0.13417 -0.019167 -0.13417 0.13417 -0.115 -0.13417 0.13417 -0.019167 -0.13417 0.095833 -0.115 -0.13417 0.095833 -0.115 -0.19167 0 -0.115 -0.13417 0.095833 -0.115 -0.115 0 -0.115 -0.115 0.36417 -0.115 -0.13417 0.13417 -0.115 -0.1725 0.13417 -0.115 -0.1725 0.095833 -0.115 -0.19167 0.36417 -0.115 -0.1725 0.095833 0.115 -0.1725 0.095833 -0.115 -0.13417 0.095833 0.115 -0.13417 0.095833 -0.019167 -0.13417 0.095833 0.019167 -0.13417 0.095833 -0.019167 0.13417 0.095833 0.019167 0.13417 0.095833 -0.115 0.1725 0.095833 -0.115 0.13417 0.095833 0.115 0.1725 0.095833 0.115 0.13417 0.095833 0.115 -0.1725 0.13417 0.115 -0.1725 0.095833 -0.115 -0.1725 0.13417 -0.115 -0.1725 0.095833 0.115 -0.1725 0.13417 -0.115 -0.1725 0.13417 0.115 -0.13417 0.13417 -0.115 -0.13417 0.13417 0.019167 -0.13417 0.13417 -0.019167 -0.13417 0.13417 0.019167 0.13417 0.13417 -0.019167 0.13417 0.13417 0.115 0.1725 0.13417 0.115 0.13417 0.13417 -0.115 0.1725 0.13417 -0.115 0.13417 0.13417</float_array><technique_common><accessor source="#g-p-a" count="229" stride="3"><param name="X" type="float"/><param name="Y" type="float"/><param name="Z" type="float"/></accessor></technique_common></source>
<source id="g-n"><float_array id="g-n-a" count="687">-1 0 0 -1 0 0 -1 0 0 -1 0 0 0 0 -1 0 0 -1 0 0 -1 0 0 -1 0 1 0 0 1 0 0 1 0 0 1 0 0 1 0 0 1 0 0 1 0 0 1 0 1 0 0 1 0 0 1 0 0 1 0 0 0 0 1 0 0 1 0 0 1 0 0 1 0 0 1 0 0 1 0 0 1 0 0 1 -1 0 0 -1 0 0 -1 0 0 -1 0 0 0 1 0 0 1 0 0 1 0 0 1 0 0 1 0 0 1 0 0 1 0 0 1 0 0 1 0 0 1 0 0 0 -1 0 0 -1 0 0 -1 0 0 -1 0 0 -1 0 0 -1 0 0 -1 0 0 -1 0 0 -1 0 0 -1 0 0 -1 0 0 -1 0 0 1 0 0 1 0 0 1 0 0 1 -1 0 0 -1 0 0 -1 0 0 -1 0 0 -1 0 0 -1 0 0 -1 0 0 -1 0 0 -1 0 0 -1 0 0 -1 0 0 -1 0 0 1 0 0 1 0 0 1 0 0 1 0 0 1 0 0 1 0 0 1 0 0 1 0 0 1 0 0 1 0 0 1 0 0 1 0 0 0 0 -1 0 0 -1 0 0 -1 0 0 -1 0 0 1 0 0 1 0 0 1 0 0 1 0 0 -1 0 0 -1 0 0 -1 0 0 -1 1 0 0 1 0 0 1 0 0 1 0 0 1 0 0 1 0 0 1 0 0 1 0 0 0 0 -1 0 0 -1 0 0 -1 0 0 -1 0 0 -1 0 0 -1 0 0 -1 0 0 -1 0 -1 0 0 -1 0 0 -1 0 0 -1 0 0 -1 0 0 -1 0 0 -1 0 0 -1 0 0 -1 0 0 -1 0 0 -1 0 0 -1 0 0 0 -1 0 0 -1 0 0 -1 0 0 -1 0 -1 0 0 -1 0 0 -1 0 0 -1 0 0 -1 0 0 -1 0 0 -1 0 0 -1 0 0 -1 0 0 -1 0 0 1 0 0 1 0 0 1 0 0 1 0 1 0 0 1 0 0 1 0 0 1 0 0 1 0 0 1 0 0 1 0 0 1 0 0 -1 0 0 -1 0 0 -1 0 0 -1 0 0 -1 0 0 -1 0 0 -1 0 0 -1 0 0 0 1 0 0 1 0 0 1 0 0 1 0 0 1 0 0 1 0 0 1 0 0 1 0 0 -1 0 0 -1 0 0 -1 0 0 -1 0 0 -1 0 0 -1 0 0 -1 0 0 -1 0 -1 0 0 -1 0 0 -1 0 0 -1 0 0 -1 0 0 -1 0 0 -1 0 0 -1 0 0 -1 0 0 0 -1 0 0 -1 0 0 -1 0 0 -1 0 0 1 0 0 1 0 0 1 0 0 1 0 0 1 0 0 1 0 0 1 0 0 1 0 1 0 0 1 0 0 1 0 0 1 0 0 1 0 0 1 0 0 1 0 0 1 0 0 0 0 -1 0 0 -1 0 0 -1 0 0 -1 0 0 -1 0 0 -1 0 0 -1 0 0 -1 0 0 -1 0 0 -1 0 0 -1 0 0 -1 0 -1 0 0 -1 0 0 -1 0 0 -1 0 0 0 1 0 0 1 0 0 1 0 0 1 0 0 1 0 0 1 0 0 1 0 0 1 0 0 1 0 0 1 0 0 1 0 0 1</float_array><technique_common><accessor source="#g-n-a" count="229" stride="3"><param name="X" type="float"/><param name="Y" type="float"/><param name="Z" type="float"/></accessor></technique_common></source>
<vertices id="g-v"><input semantic="POSITION" source="#g-p"/><input semantic="NORMAL" source="#g-n"/></vertices>
<triangles material="m0" count="162"><input semantic="VERTEX" source="#g-v" offset="0"/><p>2 1 0 1 2 3 6 5 4 5 6 7 10 9 8 9 10 11 9 11 12 12 11 13 14 8 9 8 14 15 15 14 13 15 13 11 18 17 16 17 18 19 22 21 20 21 22 23 23 22 24 24 22 25 25 22 26 27 24 25 30 29 28 29 30 31 34 33 32 33 34 35 35 34 36 36 34 37 35 38 33 39 38 35 39 40 38 40 39 41 44 43 42 43 44 45 48 47 46 49 47 48 50 47 49 47 50 51 52 50 49 50 52 53 56 55 54 55 56 57 60 59 58 59 60 61 61 60 62 61 62 63 62 60 64 64 60 65 66 63 62 67 63 66 67 66 65 67 65 60 68 63 67 63 68 69 72 71 70 71 72 73 73 72 74 75 74 72 76 74 75 74 76 77 80 79 78 79 80 81 84 83 82 83 84 85 88 87 86 87 88 89 92 91 90 91 92 93 96 95 94 95 96 97 97 96 98 98 96 99 100 98 99 98 100 101 104 103 102 103 104 105 108 107 106 107 108 109 112 111 110 111 112 113 111 113 114 114 113 115 116 110 111 110 116 117 117 116 115 117 115 113 120 119 118 119 120 121 124 123 122 123 124 125 128 127 126 127 128 129 129 128 130 130 128 131 132 127 129 132 133 127 133 132 134 135 134 132 138 137 136 137 138 139 142 141 140 141 142 143 141 143 144 144 143 145 146 140 141 140 146 147 147 146 145 147 145 143 150 149 148 149 150 151 149 151 152 152 151 153 154 148 149 148 154 155 155 154 153 155 153 151 158 157 156 157 158 159 162 161 160 161 162 163 166 165 164 165 166 167 170 169 168 169 170 171 174 173 172 173 174 175 175 174 176 178 172 177 172 178 179 178 177 180 180 177 176 180 176 174 183 182 181 182 183 184 187 186 185 186 187 188 191 190 189 190 191 192 195 194 193 194 195 196 194 196 197 197 196 198 199 193 194 193 199 200 200 199 198 200 198 196 203 202 201 202 203 204 207 206 205 206 207 208 207 209 208 209 207 210 211 208 209 208 211 212 215 214 213 214 215 216 219 218 217 218 219 220 223 222 221 222 223 224 223 225 224 225 223 226 227 224 225 224 227 228</p></triangles>
</mesh></geometry></library_geometries><library_visual_scenes><visual_scene id="Scene"><node id="n" name="chair"><instance_geometry url="#g"><bind_material><technique_common>
<instance_material symbol="m0" target="#m0"/>
</technique_common></bind_material></instance_geometry></node></visual_scene></library_visual_scenes><scene><instance_visual_scene url="#Scene"/></scene></COLLADA>
