<?xml version="1.0" encoding="utf-8"?>
<COLLADA xmlns="http://www.collada.org/2005/11/COLLADASchema" version="1.4.1">
<asset><contributor><authoring_tool>VATs starter props (see CREDITS.md)</authoring_tool></contributor><unit name="meter" meter="1"/><up_axis>Z_UP</up_axis></asset>
<library_effects>
<effect id="m0-fx"><profile_COMMON><technique sid="common"><lambert><diffuse><color>0.700 0.760 0.800 1</color></diffuse></lambert></technique></profile_COMMON></effect>
<effect id="m1-fx"><profile_COMMON><technique sid="common"><lambert><diffuse><color>0.800 0.600 0.330 1</color></diffuse></lambert></technique></profile_COMMON></effect>
<effect id="m2-fx"><profile_COMMON><technique sid="common"><lambert><diffuse><color>0.470 0.560 0.420 1</color></diffuse></lambert></technique></profile_COMMON></effect>
</library_effects><library_materials>
<material id="m0" name="m0"><instance_effect url="#m0-fx"/></material>
<material id="m1" name="m1"><instance_effect url="#m1-fx"/></material>
<material id="m2" name="m2"><instance_effect url="#m2-fx"/></material>
</library_materials><library_geometries><geometry id="g" name="cocktail-glass"><mesh>
<source id="g-p"><float_array id="g-p-a" count="576">0.02677 0.027732 0 -0.0052527 0.027732 0 0.042781 0 0 -0.021264 0 0 0.02677 -0.027732 0 -0.0052527 -0.027732 0 -0.0052527 0.027732 0.0071161 0.02677 0.027732 0.0071161 -0.021264 0 0.0071161 0.042781 0 0.0071161 -0.0052527 -0.027732 0.0071161 0.02677 -0.027732 0.0071161 0.0083888 0.0041043 0.087969 0.013128 0.0041043 0.087969 0.0060192 -6.4215e-17 0.087969 0.015498 -6.4215e-17 0.087969 0.0083888 -0.0041043 0.087969 0.013128 -0.0041043 0.087969 0.0083888 -0.0041043 0.01779 -0.0052527 -0.027732 0.0071161 0.0060192 -6.4215e-17 0.01779 0.013128 -0.0041043 0.01779 -0.021264 0 0.0071161 0.02677 -0.027732 0.0071161 0.015498 -6.4215e-17 0.01779 0.042781 0 0.0071161 0.013128 0.0041043 0.01779 0.02677 0.027732 0.0071161 0.0083888 0.0041043 0.01779 -0.0052527 0.027732 0.0071161 -0.0052527 0.027732 0.0071161 -0.0052527 0.027732 0 0.02677 0.027732 0.0071161 -0.021264 0 0.0071161 0.02677 0.027732 0 -0.021264 0 0 0.042781 0 0 0.042781 0 0.0071161 -0.0052527 -0.027732 0.0071161 -0.0052527 -0.027732 0 0.02677 -0.027732 0 0.02677 -0.027732 0.0071161 0.013128 0.0041043 0.087969 0.015498 -6.4215e-17 0.087969 0.037533 0.046376 0.1449 0.0083888 0.0041043 0.087969 0.064308 -1.2843e-16 0.1449 -0.016017 0.046376 0.1449 0.013128 -0.0041043 0.087969 -0.042792 -1.2843e-16 0.1449 0.037533 -0.046376 0.1449 0.0060192 -6.4215e-17 0.087969 0.0083888 -0.0041043 0.087969 -0.016017 -0.046376 0.1449 0.0083888 0.0041043 0.087969 0.0083888 0.0041043 0.01779 0.013128 0.0041043 0.087969 0.0060192 -6.4215e-17 0.087969 0.013128 0.0041043 0.01779 0.0060192 -6.4215e-17 0.01779 0.015498 -6.4215e-17 0.01779 0.015498 -6.4215e-17 0.087969 0.0083888 -0.0041043 0.087969 0.0083888 -0.0041043 0.01779 0.013128 -0.0041043 0.01779 0.013128 -0.0041043 0.087969 -0.011585 -0.038701 0.1449 -0.016017 -0.046376 0.1449 -0.033929 -2.5686e-16 0.1449 0.033102 -0.038701 0.1449 -0.042792 -1.2843e-16 0.1449 0.037533 -0.046376 0.1449 0.055446 -3.8529e-16 0.1449 0.064308 -1.2843e-16 0.1449 0.033102 0.038701 0.1449 0.037533 0.046376 0.1449 -0.011585 0.038701 0.1449 -0.016017 0.046376 0.1449 0.0254 -0.02536 0.12903 0.040042 -7.7057e-16 0.12903 0.033102 -0.038701 0.1449 0.055446 -3.8529e-16 0.1449 -0.018525 -7.0636e-16 0.12903 -0.0038834 -0.02536 0.12903 -0.033929 -2.5686e-16 0.1449 -0.011585 -0.038701 0.1449 -0.011585 -0.038701 0.1449 -0.0038834 -0.02536 0.12903 0.033102 -0.038701 0.1449 0.0254 -0.02536 0.12903 0.0254 0.02536 0.12903 0.033102 0.038701 0.1449 0.040042 -7.7057e-16 0.12903 0.055446 -3.8529e-16 0.1449 -0.011585 0.038701 0.1449 0.033102 0.038701 0.1449 -0.0038834 0.02536 0.12903 0.0254 0.02536 0.12903 -0.0038834 0.02536 0.12903 -0.018525 -7.0636e-16 0.12903 -0.011585 0.038701 0.1449 -0.033929 -2.5686e-16 0.1449 -0.0038834 0.02536 0.12903 0.0254 0.02536 0.12903 -0.018525 -7.0636e-16 0.12903 0.040042 -7.7057e-16 0.12903 -0.0038834 -0.02536 0.12903 0.0254 -0.02536 0.12903 -0.021612 -0.0066287 0.12064 -0.00738 -0.0066287 0.14529 -0.021612 0.0040454 0.12064 -0.00738 0.0040454 0.14529 -0.064308 -0.0066287 0.14529 -0.064308 0.0040454 0.14529 -0.050076 -0.0066287 0.16994 -0.050076 0.0040454 0.16994 -0.050076 -0.0066287 0.12064 -0.050076 0.0040454 0.12064 -0.064308 -0.0066287 0.14529 -0.064308 0.0040454 0.14529 -0.00738 -0.0066287 0.14529 -0.021612 -0.0066287 0.16994 -0.00738 0.0040454 0.14529 -0.021612 0.0040454 0.16994 -0.021612 0.0040454 0.12064 -0.050076 0.0040454 0.12064 -0.021612 -0.0066287 0.12064 -0.050076 -0.0066287 0.12064 -0.050076 0.0040454 0.16994 -0.021612 0.0040454 0.16994 -0.050076 -0.0066287 0.16994 -0.021612 -0.0066287 0.16994 -0.00738 0.0040454 0.14529 -0.021612 0.0040454 0.16994 -0.015858 0.0040454 0.14529 -0.021612 0.0040454 0.12064 -0.025851 0.0040454 0.1626 -0.025851 0.0040454 0.12798 -0.045837 0.0040454 0.1626 -0.045837 0.0040454 0.12798 -0.050076 0.0040454 0.16994 -0.050076 0.0040454 0.12064 -0.055831 0.0040454 0.14529 -0.064308 0.0040454 0.14529 -0.00738 -0.0066287 0.14529 -0.021612 -0.0066287 0.12064 -0.015858 -0.0066287 0.14529 -0.021612 -0.0066287 0.16994 -0.025851 -0.0066287 0.12798 -0.025851 -0.0066287 0.1626 -0.045837 -0.0066287 0.12798 -0.045837 -0.0066287 0.1626 -0.050076 -0.0066287 0.12064 -0.050076 -0.0066287 0.16994 -0.055831 -0.0066287 0.14529 -0.064308 -0.0066287 0.14529 -0.025851 -0.0066287 0.12798 -0.045837 -0.0066287 0.12798 -0.015858 -0.0066287 0.14529 -0.055831 -0.0066287 0.14529 -0.025851 -0.0066287 0.1626 -0.045837 -0.0066287 0.1626 -0.045837 0.0040454 0.12798 -0.025851 0.0040454 0.12798 -0.055831 0.0040454 0.14529 -0.015858 0.0040454 0.14529 -0.045837 0.0040454 0.1626 -0.025851 0.0040454 0.1626 0.031074 0.0034014 0.12135 0.031074 -0.0012125 0.12135 0.047503 0.0045549 0.17821 0.047503 -0.0023659 0.17821 0.040818 0.0045549 0.18 0.047503 0.0045549 0.17821 0.040818 -0.0023659 0.18 0.047503 -0.0023659 0.17821 0.031074 0.0034014 0.12135 0.026617 0.0034014 0.12254 0.031074 -0.0012125 0.12135 0.026617 -0.0012125 0.12254 0.040818 -0.0023659 0.18 0.047503 -0.0023659 0.17821 0.026617 -0.0012125 0.12254 0.031074 -0.0012125 0.12135 0.026617 -0.0012125 0.12254 0.026617 0.0034014 0.12254 0.040818 -0.0023659 0.18 0.040818 0.0045549 0.18 0.040818 0.0045549 0.18 0.026617 0.0034014 0.12254 0.047503 0.0045549 0.17821 0.031074 0.0034014 0.12135</float_array><technique_common><accessor source="#g-p-a" count="192" stride="3"><param name="X" type="float"/><param name="Y" type="float"/><param name="Z" type="float"/></accessor></technique_common></source>
<source id="g-n"><float_array id="g-n-a" count="576">0 0 -1 0 0 -1 0 0 -1 0 0 -1 0 0 -1 0 0 -1 0 0 1 0 0 1 0 0 1 0 0 1 0 0 1 0 0 1 0 0 1 0 0 1 0 0 1 0 0 1 0 0 1 0 0 1 -0.18217 -0.31553 0.93126 -0.18217 -0.31553 0.93126 -0.36434 1.2081e-08 0.93126 0.18217 -0.31553 0.93126 -0.36434 8.7123e-10 0.93126 0.18217 -0.31553 0.93126 0.36434 1.2081e-08 0.93126 0.36434 8.7123e-10 0.93126 0.18217 0.31553 0.93126 0.18217 0.31553 0.93126 -0.18217 0.31553 0.93126 -0.18217 0.31553 0.93126 -0.5 0.86603 0 -0.5 0.86603 0 0.5 0.86603 0 -1 -1.2242e-16 0 0.5 0.86603 0 -1 1.3262e-16 0 1 -1.2242e-16 0 1 1.3262e-16 0 -0.5 -0.86603 0 -0.5 -0.86603 0 0.5 -0.86603 0 0.5 -0.86603 0 0.37958 0.65745 -0.65091 0.75916 -7.1373e-09 -0.65091 0.37958 0.65745 -0.65091 -0.37958 0.65745 -0.65091 0.75916 -3.7622e-10 -0.65091 -0.37958 0.65745 -0.65091 0.37958 -0.65745 -0.65091 -0.75916 3.7622e-10 -0.65091 0.37958 -0.65745 -0.65091 -0.75916 7.1372e-09 -0.65091 -0.37958 -0.65745 -0.65091 -0.37958 -0.65745 -0.65091 -0.5 0.86603 0 -0.5 0.86603 0 0.5 0.86603 0 -1 -6.1618e-15 0 0.5 0.86603 0 -1 -7.4268e-15 0 1 -6.1618e-15 0 1 -7.4268e-15 0 -0.5 -0.86603 0 -0.5 -0.86603 0 0.5 -0.86603 0 0.5 -0.86603 0 0 0 1 0 0 1 0 0 1 0 0 1 0 0 1 0 0 1 0 0 1 0 0 1 0 0 1 0 0 1 0 0 1 0 0 1 -0.66296 0.38276 0.64341 -0.66296 0.38276 0.64341 -0.66296 0.38276 0.64341 -0.66296 0.38276 0.64341 0.66296 0.38276 0.64341 0.66296 0.38276 0.64341 0.66296 0.38276 0.64341 0.66296 0.38276 0.64341 0 0.76552 0.64341 0 0.76552 0.64341 0 0.76552 0.64341 0 0.76552 0.64341 -0.66296 -0.38276 0.64341 -0.66296 -0.38276 0.64341 -0.66296 -0.38276 0.64341 -0.66296 -0.38276 0.64341 0 -0.76552 0.64341 0 -0.76552 0.64341 0 -0.76552 0.64341 0 -0.76552 0.64341 0.66296 -0.38276 0.64341 0.66296 -0.38276 0.64341 0.66296 -0.38276 0.64341 0.66296 -0.38276 0.64341 0 0 1 0 0 1 0 0 1 0 0 1 0 0 1 0 0 1 0.86603 8.0412e-14 -0.5 0.86603 1.8366e-14 -0.5 0.86603 6.2046e-14 -0.5 0.86603 0 -0.5 -0.86603 0 0.5 -0.86603 0 0.5 -0.86603 0 0.5 -0.86603 0 0.5 -0.86603 8.0491e-14 -0.5 -0.86603 6.2107e-14 -0.5 -0.86603 1.8384e-14 -0.5 -0.86603 0 -0.5 0.86603 0 0.5 0.86603 0 0.5 0.86603 0 0.5 0.86603 0 0.5 0 1.6098e-13 -1 0 1.6098e-13 -1 0 1.6098e-13 -1 0 1.6098e-13 -1 0 0 1 0 0 1 0 0 1 0 0 1 0 1 0 0 1 0 0 1 0 0 1 0 0 1 0 0 1 0 0 1 0 0 1 0 0 1 0 0 1 0 0 1 0 0 1 0 0 -1 0 0 -1 0 0 -1 0 0 -1 0 0 -1 0 0 -1 0 0 -1 0 0 -1 0 0 -1 0 0 -1 0 0 -1 0 0 -1 0 0 -1 1.1487e-07 0 -1 1.1487e-07 0 -1 1.1487e-07 0 -1 1.1487e-07 0 -1 1.1487e-07 0 -1 1.1487e-07 0 1 -1.1487e-07 0 1 -1.1487e-07 0 1 -1.1487e-07 0 1 -1.1487e-07 0 1 -1.1487e-07 0 1 -1.1487e-07 0.9607 0 -0.2776 0.9607 0 -0.2776 0.9607 0 -0.2776 0.9607 0 -0.2776 0.25882 0 0.96593 0.25882 0 0.96593 0.25882 0 0.96593 0.25882 0 0.96593 -0.25882 0 -0.96593 -0.25882 0 -0.96593 -0.25882 0 -0.96593 -0.25882 0 -0.96593 -0.0050442 -0.99981 -0.018825 -0.0050442 -0.99981 -0.018825 -0.0050442 -0.99981 -0.018825 -0.0050442 -0.99981 -0.018825 -0.97079 0 0.23994 -0.97079 0 0.23994 -0.97079 0 0.23994 -0.97079 0 0.23994 -0.0050442 0.99981 -0.018825 -0.0050442 0.99981 -0.018825 -0.0050442 0.99981 -0.018825 -0.0050442 0.99981 -0.018825</float_array><technique_common><accessor source="#g-n-a" count="192" stride="3"><param name="X" type="float"/><param name="Y" type="float"/><param name="Z" type="float"/></accessor></technique_common></source>
<vertices id="g-v"><input semantic="POSITION" source="#g-p"/><input semantic="NORMAL" source="#g-n"/></vertices>
<triangles material="m0" count="84"><input semantic="VERTEX" source="#g-v" offset="0"/><p>2 1 0 1 2 3 3 2 4 3 4 5 8 7 6 7 8 9 9 8 10 9 10 11 14 13 12 13 14 15 15 14 16 15 16 17 20 19 18 19 21 18 19 20 22 21 19 23 23 24 21 24 23 25 25 26 24 26 25 27 28 22 20 27 28 26 22 28 29 28 27 29 32 31 30 31 33 30 31 32 34 33 31 35 32 36 34 36 32 37 35 38 33 38 35 39 37 40 36 40 38 39 40 37 41 38 40 41 44 43 42 45 44 42 43 44 46 44 45 47 46 48 43 45 49 47 48 46 50 49 45 51 50 52 48 51 53 49 53 51 52 52 50 53 56 55 54 55 57 54 55 56 58 57 55 59 56 60 58 60 56 61 59 62 57 62 59 63 61 64 60 64 62 63 64 61 65 62 64 65 68 67 66 66 67 69 68 70 67 71 69 67 71 72 69 73 72 71 73 74 72 75 74 73 76 70 68 74 75 76 76 77 70 77 76 75 80 79 78 79 80 81 84 83 82 83 84 85 88 87 86 87 88 89 92 91 90 91 92 93 96 95 94 95 96 97 100 99 98 99 100 101</p></triangles>
<triangles material="m1" count="48"><input semantic="VERTEX" source="#g-v" offset="0"/><p>104 103 102 103 104 105 105 104 106 105 106 107 110 109 108 109 110 111 114 113 112 113 114 115 118 117 116 117 118 119 122 121 120 121 122 123 126 125 124 125 126 127 130 129 128 129 130 131 134 133 132 135 134 132 136 133 134 135 137 134 138 133 136 135 139 137 138 140 133 141 139 135 142 140 138 141 142 139 140 142 143 142 141 143 146 145 144 147 146 144 148 145 146 147 149 146 150 145 148 147 151 149 150 152 145 153 151 147 154 152 150 153 154 151 152 154 155 154 153 155 158 157 156 157 158 159 159 158 160 159 160 161 164 163 162 163 164 165 165 164 166 165 166 167</p></triangles>
<triangles material="m2" count="12"><input semantic="VERTEX" source="#g-v" offset="0"/><p>170 169 168 169 170 171 174 173 172 173 174 175 178 177 176 177 178 179 182 181 180 181 182 183 186 185 184 185 186 187 190 189 188 189 190 191</p></triangles>
</mesh></geometry></library_geometries><library_visual_scenes><visual_scene id="Scene"><node id="n" name="cocktail-glass"><instance_geometry url="#g"><bind_material><technique_common>
<instance_material symbol="m0" target="#m0"/>
<instance_material symbol="m1" target="#m1"/>
<instance_material symbol="m2" target="#m2"/>
</technique_common></bind_material></instance_geometry></node></visual_scene></library_visual_scenes><scene><instance_visual_scene url="#Scene"/></scene></COLLADA>
