<?xml version="1.0" encoding="utf-8"?>
<COLLADA xmlns="http://www.collada.org/2005/11/COLLADASchema" version="1.4.1">
<asset><contributor><authoring_tool>VATs starter props (see CREDITS.md)</authoring_tool></contributor><unit name="meter" meter="1"/><up_axis>Z_UP</up_axis></asset>
<library_effects>
<effect id="m0-fx"><profile_COMMON><technique sid="common"><lambert><diffuse><color>0.800 0.600 0.330 1</color></diffuse></lambert></technique></profile_COMMON></effect>
<effect id="m1-fx"><profile_COMMON><technique sid="common"><lambert><diffuse><color>0.240 0.250 0.280 1</color></diffuse></lambert></technique></profile_COMMON></effect>
<effect id="m2-fx"><profile_COMMON><technique sid="common"><lambert><diffuse><color>0.700 0.760 0.800 1</color></diffuse></lambert></technique></profile_COMMON></effect>
<effect id="m3-fx"><profile_COMMON><technique sid="common"><lambert><diffuse><color>0.680 0.580 0.360 1</color></diffuse></lambert></technique></profile_COMMON></effect>
</library_effects><library_materials>
<material id="m0" name="m0"><instance_effect url="#m0-fx"/></material>
<material id="m1" name="m1"><instance_effect url="#m1-fx"/></material>
<material id="m2" name="m2"><instance_effect url="#m2-fx"/></material>
<material id="m3" name="m3"><instance_effect url="#m3-fx"/></material>
</library_materials><library_geometries><geometry id="g" name="flashlight"><mesh>
<source id="g-p"><float_array id="g-p-a" count="3582">0.016542 0.0056459 0.019835 0.0092841 0.014296 0.019835 0.0087511 0.013372 0.020888 0.01554 0.0052812 0.020888 0.0087711 -0.013407 0.027573 -0.0018434 -0.016299 0.028626 -0.0016578 -0.015246 0.027573 0.0093055 -0.014333 0.028626 -0.001836 0.016257 0.019835 0.0087511 0.013372 0.020888 0.0092841 0.014296 0.019835 -0.0016508 0.015207 0.020888 0.0093055 -0.014333 0.028626 0.015578 -0.0052948 0.027573 0.016582 -0.0056604 0.028626 0.0087711 -0.013407 0.027573 -0.0016508 0.015207 0.020888 -0.011615 0.010611 0.019835 -0.010798 0.0099254 0.020888 -0.001836 0.016257 0.019835 0.016582 0.0056605 0.028626 0.015578 -0.0052948 0.027573 0.015578 0.0052949 0.027573 0.016582 -0.0056604 0.028626 -0.015477 4.5297e-08 0.019835 -0.010798 -0.0099253 0.020888 -0.014411 4.528e-08 0.020888 -0.011615 -0.010611 0.019835 -0.015477 4.5297e-08 0.019835 -0.010798 0.0099254 0.020888 -0.011615 0.010611 0.019835 -0.014411 4.528e-08 0.020888 0.016582 0.0056605 0.028626 0.0087711 0.013407 0.027573 0.0093055 0.014333 0.028626 0.015578 0.0052949 0.027573 -0.0016578 -0.015246 0.027573 -0.011648 -0.010638 0.028626 -0.010829 -0.0099511 0.027573 -0.0018434 -0.016299 0.028626 0.016542 -0.0056458 0.019835 0.01554 0.0052812 0.020888 0.01554 -0.0052811 0.020888 0.016542 0.0056459 0.019835 -0.01552 4.3308e-08 0.028626 -0.011648 0.010638 0.028626 -0.010829 0.0099512 0.027573 -0.014451 4.3719e-08 0.027573 -0.01552 4.3308e-08 0.028626 -0.010829 -0.0099511 0.027573 -0.011648 -0.010638 0.028626 -0.014451 4.3719e-08 0.027573 0.0092841 -0.014296 0.019835 0.01554 -0.0052811 0.020888 0.0087511 -0.013372 0.020888 0.016542 -0.0056458 0.019835 -0.011648 0.010638 0.028626 -0.0016578 0.015246 0.027573 -0.010829 0.0099512 0.027573 -0.0018434 0.016299 0.028626 -0.001836 -0.016256 0.019835 0.0092841 -0.014296 0.019835 0.0087511 -0.013372 0.020888 -0.0016508 -0.015207 0.020888 -0.0018434 0.016299 0.028626 0.0087711 0.013407 0.027573 -0.0016578 0.015246 0.027573 0.0093055 0.014333 0.028626 -0.010798 -0.0099253 0.020888 -0.001836 -0.016256 0.019835 -0.0016508 -0.015207 0.020888 -0.011615 -0.010611 0.019835 -0.015838 2.853e-08 0.093962 -0.01552 4.3308e-08 0.028626 -0.011648 -0.010638 0.028626 -0.011891 -0.010843 0.093962 -0.011648 -0.010638 0.028626 -0.0018987 -0.016612 0.093962 -0.011891 -0.010843 0.093962 -0.0018434 -0.016299 0.028626 -0.0018987 -0.016612 0.093962 -0.0018434 -0.016299 0.028626 0.0093055 -0.014333 0.028626 0.0094647 -0.014608 0.093962 0.0093055 -0.014333 0.028626 0.016882 -0.0057693 0.093962 0.0094647 -0.014608 0.093962 0.016582 -0.0056604 0.028626 0.016882 -0.0057693 0.093962 0.016582 -0.0056604 0.028626 0.016582 0.0056605 0.028626 0.016882 0.0057693 0.093962 0.016882 0.0057693 0.093962 0.016582 0.0056605 0.028626 0.0093055 0.014333 0.028626 0.0094646 0.014608 0.093962 0.0093055 0.014333 0.028626 -0.0018987 0.016612 0.093962 0.0094646 0.014608 0.093962 -0.0018434 0.016299 0.028626 -0.0018987 0.016612 0.093962 -0.0018434 0.016299 0.028626 -0.011648 0.010638 0.028626 -0.011891 0.010843 0.093962 -0.011648 0.010638 0.028626 -0.015838 2.853e-08 0.093962 -0.011891 0.010843 0.093962 -0.01552 4.3308e-08 0.028626 -0.019615 0.017323 0.11842 -0.004439 0.031019 0.13391 -0.0036494 0.026541 0.11842 -0.023098 0.020246 0.13391 -0.019615 -0.017323 0.11842 -0.030467 1.2357e-09 0.13391 -0.02592 1.3475e-08 0.11842 -0.023098 -0.020246 0.13391 0.030629 -0.010773 0.13391 0.014506 -0.02334 0.11842 0.026355 -0.0092175 0.11842 0.016779 -0.027278 0.13391 -0.004439 0.031019 0.13391 0.014506 0.02334 0.11842 -0.0036494 0.026541 0.11842 0.016779 0.027278 0.13391 0.014506 -0.02334 0.11842 -0.004439 -0.031019 0.13391 -0.0036494 -0.026541 0.11842 0.016779 -0.027278 0.13391 0.014506 0.02334 0.11842 0.030629 0.010773 0.13391 0.026355 0.0092176 0.11842 0.016779 0.027278 0.13391 -0.030467 1.2357e-09 0.13391 -0.019615 0.017323 0.11842 -0.02592 1.3475e-08 0.11842 -0.023098 0.020246 0.13391 -0.004439 -0.031019 0.13391 -0.019615 -0.017323 0.11842 -0.0036494 -0.026541 0.11842 -0.023098 -0.020246 0.13391 -0.02592 1.3475e-08 0.11842 -0.015772 0.014099 0.10545 -0.020903 2.2621e-08 0.10545 -0.019615 0.017323 0.11842 -0.0036494 -0.026541 0.11842 -0.015772 -0.014099 0.10545 -0.0027783 -0.021601 0.10545 -0.019615 -0.017323 0.11842 0.021642 0.0075019 0.10545 0.026355 -0.0092175 0.11842 0.021642 -0.0075018 0.10545 0.026355 0.0092176 0.11842 -0.015772 0.014099 0.10545 -0.0036494 0.026541 0.11842 -0.0027783 0.021601 0.10545 -0.019615 0.017323 0.11842 -0.015772 -0.014099 0.10545 -0.02592 1.3475e-08 0.11842 -0.020903 2.2621e-08 0.10545 -0.019615 -0.017323 0.11842 0.026355 -0.0092175 0.11842 0.011997 -0.018995 0.10545 0.021642 -0.0075018 0.10545 0.014506 -0.02334 0.11842 -0.0036494 0.026541 0.11842 0.011997 0.018995 0.10545 -0.0027783 0.021601 0.10545 0.014506 0.02334 0.11842 0.011997 -0.018995 0.10545 -0.0036494 -0.026541 0.11842 -0.0027783 -0.021601 0.10545 0.014506 -0.02334 0.11842 0.026355 0.0092176 0.11842 0.030629 -0.010773 0.13391 0.026355 -0.0092175 0.11842 0.030629 0.010773 0.13391 0.0094683 0.014615 0.095447 0.021642 0.0075019 0.10545 0.016888 0.0057718 0.095447 0.011997 0.018995 0.10545 -0.0027783 0.021601 0.10545 0.0094683 0.014615 0.095447 -0.0018999 0.016619 0.095447 0.011997 0.018995 0.10545 -0.011897 0.010847 0.095447 -0.0027783 0.021601 0.10545 -0.0018999 0.016619 0.095447 -0.015772 0.014099 0.10545 -0.020903 2.2621e-08 0.10545 -0.011897 0.010847 0.095447 -0.015845 2.8194e-08 0.095447 -0.015772 0.014099 0.10545 -0.0027783 -0.021601 0.10545 -0.015772 -0.014099 0.10545 -0.011897 -0.010847 0.095447 -0.0018999 -0.016619 0.095447 0.0094683 -0.014615 0.095447 -0.0027783 -0.021601 0.10545 -0.0018999 -0.016619 0.095447 0.011997 -0.018995 0.10545 -0.011897 -0.010847 0.095447 -0.020903 2.2621e-08 0.10545 -0.015845 2.8194e-08 0.095447 -0.015772 -0.014099 0.10545 0.021642 -0.0075018 0.10545 0.0094683 -0.014615 0.095447 0.016888 -0.0057717 0.095447 0.011997 -0.018995 0.10545 0.011997 0.018995 0.10545 0.026355 0.0092176 0.11842 0.021642 0.0075019 0.10545 0.014506 0.02334 0.11842 -0.01158 0.010581 0.010429 -0.015477 4.5297e-08 0.019835 -0.011615 0.010611 0.019835 -0.015431 4.7424e-08 0.010429 -0.001836 0.016257 0.019835 -0.001828 0.016211 0.010429 -0.01158 0.010581 0.010429 -0.011615 0.010611 0.019835 0.0092612 0.014256 0.010429 -0.001836 0.016257 0.019835 0.0092841 0.014296 0.019835 -0.001828 0.016211 0.010429 0.016542 0.0056459 0.019835 0.016499 0.0056302 0.010429 0.0092612 0.014256 0.010429 0.0092841 0.014296 0.019835 0.016499 -0.0056301 0.010429 0.016542 0.0056459 0.019835 0.016542 -0.0056458 0.019835 0.016499 0.0056302 0.010429 0.0092612 -0.014256 0.010429 0.016542 -0.0056458 0.019835 0.0092841 -0.014296 0.019835 0.016499 -0.0056301 0.010429 -0.001836 -0.016256 0.019835 -0.001828 -0.016211 0.010429 0.0092612 -0.014256 0.010429 0.0092841 -0.014296 0.019835 -0.01158 -0.010581 0.010429 -0.001836 -0.016256 0.019835 -0.011615 -0.010611 0.019835 -0.001828 -0.016211 0.010429 -0.015477 4.5297e-08 0.019835 -0.015431 4.7424e-08 0.010429 -0.01158 -0.010581 0.010429 -0.011615 -0.010611 0.019835 0.016888 0.0057718 0.095447 0.021642 -0.0075018 0.10545 0.016888 -0.0057717 0.095447 0.021642 0.0075019 0.10545 -0.010787 0.0099165 -0.067007 -0.014521 6.2927e-08 -0.053694 -0.010883 0.0099967 -0.053694 -0.014397 6.6133e-08 -0.067007 -0.0016701 0.015316 -0.053694 -0.0016484 0.015193 -0.067007 -0.010787 0.0099165 -0.067007 -0.010883 0.0099967 -0.053694 0.0087442 0.01336 -0.067007 -0.0016701 0.015316 -0.053694 0.0088065 0.013468 -0.053694 -0.0016484 0.015193 -0.067007 0.015645 0.0053192 -0.053694 0.015527 0.0052765 -0.067007 0.0087442 0.01336 -0.067007 0.0088065 0.013468 -0.053694 0.015527 -0.0052764 -0.067007 0.015645 0.0053192 -0.053694 0.015645 -0.005319 -0.053694 0.015527 0.0052765 -0.067007 0.0087442 -0.01336 -0.067007 0.015645 -0.005319 -0.053694 0.0088065 -0.013468 -0.053694 0.015527 -0.0052764 -0.067007 -0.0016701 -0.015316 -0.053694 -0.0016484 -0.015193 -0.067007 0.0087442 -0.01336 -0.067007 0.0088065 -0.013468 -0.053694 -0.010787 -0.0099164 -0.067007 -0.0016701 -0.015316 -0.053694 -0.010883 -0.0099966 -0.053694 -0.0016484 -0.015193 -0.067007 -0.014521 6.2927e-08 -0.053694 -0.014397 6.6133e-08 -0.067007 -0.010787 -0.0099164 -0.067007 -0.010883 -0.0099966 -0.053694 -0.015845 2.8194e-08 0.095447 -0.012489 -0.011344 0.095127 -0.011897 -0.010847 0.095447 -0.016617 2.8113e-08 0.095127 -0.011897 0.010847 0.095447 -0.002034 0.01738 0.095127 -0.012489 0.011344 0.095127 -0.0018999 0.016619 0.095447 -0.0018999 -0.016619 0.095447 0.0098544 -0.015283 0.095127 0.0094683 -0.014615 0.095447 -0.002034 -0.01738 0.095127 0.0094647 -0.014608 0.093962 0.016882 -0.0057693 0.093962 0.017607 -0.0060333 0.094282 0.0098506 -0.015277 0.094282 0.017607 0.0060334 0.094282 0.016882 -0.0057693 0.093962 0.016882 0.0057693 0.093962 0.017607 -0.0060333 0.094282 0.017614 0.006036 0.095127 0.016888 -0.0057717 0.095447 0.017614 -0.0060359 0.095127 0.016888 0.0057718 0.095447 0.016882 0.0057693 0.093962 0.0098506 0.015277 0.094282 0.017607 0.0060334 0.094282 0.0094646 0.014608 0.093962 0.0098544 0.015284 0.095127 -0.0018999 0.016619 0.095447 0.0094683 0.014615 0.095447 -0.002034 0.01738 0.095127 -0.002034 -0.01738 0.095127 -0.011897 -0.010847 0.095447 -0.012489 -0.011344 0.095127 -0.0018999 -0.016619 0.095447 -0.012489 -0.011344 0.095127 -0.016617 2.8113e-08 0.095127 -0.012483 -0.011339 0.094282 -0.01661 2.8327e-08 0.094282 -0.002034 -0.01738 0.095127 -0.012483 -0.011339 0.094282 -0.0020327 -0.017372 0.094282 -0.012489 -0.011344 0.095127 0.0098544 -0.015283 0.095127 -0.002034 -0.01738 0.095127 0.0098506 -0.015277 0.094282 -0.0020327 -0.017372 0.094282 0.017614 -0.0060359 0.095127 0.0098506 -0.015277 0.094282 0.017607 -0.0060333 0.094282 0.0098544 -0.015283 0.095127 0.017614 0.006036 0.095127 0.017614 -0.0060359 0.095127 0.017607 0.0060334 0.094282 0.017607 -0.0060333 0.094282 0.0098544 0.015284 0.095127 0.017614 0.006036 0.095127 0.0098506 0.015277 0.094282 0.017607 0.0060334 0.094282 -0.002034 0.01738 0.095127 0.0098506 0.015277 0.094282 -0.0020327 0.017372 0.094282 0.0098544 0.015284 0.095127 -0.012489 0.011344 0.095127 -0.002034 0.01738 0.095127 -0.012483 0.011339 0.094282 -0.0020327 0.017372 0.094282 -0.016617 2.8113e-08 0.095127 -0.012483 0.011339 0.094282 -0.01661 2.8327e-08 0.094282 -0.012489 0.011344 0.095127 -0.0020327 -0.017372 0.094282 0.0094647 -0.014608 0.093962 0.0098506 -0.015277 0.094282 -0.0018987 -0.016612 0.093962 0.017614 0.006036 0.095127 0.0098544 0.015284 0.095127 0.0094683 0.014615 0.095447 0.016888 0.0057718 0.095447 -0.0018987 -0.016612 0.093962 -0.012483 -0.011339 0.094282 -0.011891 -0.010843 0.093962 -0.0020327 -0.017372 0.094282 -0.012483 0.011339 0.094282 -0.015838 2.853e-08 0.093962 -0.01661 2.8327e-08 0.094282 -0.011891 0.010843 0.093962 -0.015838 2.853e-08 0.093962 -0.011891 -0.010843 0.093962 -0.012483 -0.011339 0.094282 -0.01661 2.8327e-08 0.094282 0.0094683 -0.014615 0.095447 0.017614 -0.0060359 0.095127 0.016888 -0.0057717 0.095447 0.0098544 -0.015283 0.095127 -0.012489 0.011344 0.095127 -0.016617 2.8113e-08 0.095127 -0.015845 2.8194e-08 0.095447 -0.011897 0.010847 0.095447 -0.011891 0.010843 0.093962 -0.0020327 0.017372 0.094282 -0.0018987 0.016612 0.093962 -0.012483 0.011339 0.094282 0.0094646 0.014608 0.093962 -0.0018987 0.016612 0.093962 -0.0020327 0.017372 0.094282 0.0098506 0.015277 0.094282 0.019001 -0.0027316 0.07583 0.016971 -0.0027818 0.083014 0.016833 -0.0027316 0.075863 0.019139 -0.0027818 0.082981 0.016996 -0.0014861 0.084319 0.016971 -0.0027818 0.083014 0.019139 -0.0027818 0.082981 0.019164 -0.0014861 0.084286 0.018976 -0.0014176 0.074525 0.016833 -0.0027316 0.075863 0.016808 -0.0014176 0.074558 0.019001 -0.0027316 0.07583 0.016833 0.0027317 0.075863 0.018976 0.0014177 0.074525 0.016808 0.0014177 0.074558 0.019001 0.0027317 0.07583 0.019139 0.0027819 0.082981 0.016996 0.0014861 0.084319 0.019164 0.0014861 0.084286 0.016971 0.0027819 0.083014 0.016971 0.0027819 0.083014 0.019001 0.0027317 0.07583 0.016833 0.0027317 0.075863 0.019139 0.0027819 0.082981 0.019164 -0.0014861 0.084286 0.016996 0.0014861 0.084319 0.016996 -0.0014861 0.084319 0.019164 0.0014861 0.084286 0.019139 -0.0027818 0.082981 0.019164 0.0014861 0.084286 0.019164 -0.0014861 0.084286 0.019139 0.0027819 0.082981 0.019001 -0.0027316 0.07583 0.019001 0.0027317 0.07583 0.018976 -0.0014176 0.074525 0.018976 0.0014177 0.074525 0.016808 -0.0014176 0.074558 0.016833 0.0027317 0.075863 0.016808 0.0014177 0.074558 0.016833 -0.0027316 0.075863 0.016971 0.0027819 0.083014 0.016971 -0.0027818 0.083014 0.016996 0.0014861 0.084319 0.016996 -0.0014861 0.084319 0.018976 -0.0014176 0.074525 0.016808 -0.0014176 0.074558 0.016808 0.0014177 0.074558 0.018976 0.0014177 0.074525 -0.023098 -0.020246 0.13391 -0.033144 7.152e-10 0.13546 -0.030467 1.2357e-09 0.13391 -0.025149 -0.021967 0.13546 0.028646 0.010051 0.15963 0.033144 -0.011688 0.15808 0.033144 0.011688 0.15808 0.028646 -0.010051 0.15963 -0.025149 0.021967 0.13546 -0.0049039 0.033655 0.13546 -0.004439 0.031019 0.13391 -0.023098 0.020246 0.13391 0.015724 -0.02545 0.15963 0.033144 -0.011688 0.15808 0.028646 -0.010051 0.15963 0.018118 -0.029596 0.15808 -0.004439 0.031019 0.13391 0.018118 0.029596 0.13546 0.016779 0.027278 0.13391 -0.0049039 0.033655 0.13546 -0.0040726 -0.028941 0.15963 0.018118 -0.029596 0.15808 0.015724 -0.02545 0.15963 -0.0049039 -0.033655 0.15808 0.033144 0.011688 0.13546 0.016779 0.027278 0.13391 0.018118 0.029596 0.13546 0.030629 0.010773 0.13391 -0.0049039 -0.033655 0.15808 -0.021482 -0.01889 0.15963 -0.025149 -0.021967 0.15808 -0.0040726 -0.028941 0.15963 0.030629 0.010773 0.13391 0.033144 -0.011688 0.13546 0.030629 -0.010773 0.13391 0.033144 0.011688 0.13546 -0.0049039 0.033655 0.13546 0.018118 0.029596 0.15808 0.018118 0.029596 0.13546 -0.0049039 0.033655 0.15808 0.018118 -0.029596 0.13546 -0.0049039 -0.033655 0.15808 -0.0049039 -0.033655 0.13546 0.018118 -0.029596 0.15808 0.018118 0.029596 0.15808 0.033144 0.011688 0.13546 0.018118 0.029596 0.13546 0.033144 0.011688 0.15808 -0.033144 7.152e-10 0.13546 -0.025149 0.021967 0.15808 -0.025149 0.021967 0.13546 -0.033144 -1.4225e-08 0.15808 -0.0049039 -0.033655 0.15808 -0.025149 -0.021967 0.13546 -0.0049039 -0.033655 0.13546 -0.025149 -0.021967 0.15808 0.033144 0.011688 0.15808 0.033144 -0.011688 0.13546 0.033144 0.011688 0.13546 0.033144 -0.011688 0.15808 -0.025149 0.021967 0.15808 -0.0049039 0.033655 0.13546 -0.025149 0.021967 0.13546 -0.0049039 0.033655 0.15808 -0.025149 -0.021967 0.13546 -0.033144 -1.4225e-08 0.15808 -0.033144 7.152e-10 0.13546 -0.025149 -0.021967 0.15808 0.033144 -0.011688 0.15808 0.018118 -0.029596 0.13546 0.033144 -0.011688 0.13546 0.018118 -0.029596 0.15808 -0.025149 0.021967 0.13546 -0.030467 1.2357e-09 0.13391 -0.033144 7.152e-10 0.13546 -0.023098 0.020246 0.13391 0.028646 0.010051 0.15963 0.018118 0.029596 0.15808 0.015724 0.02545 0.15963 0.033144 0.011688 0.15808 -0.004439 -0.031019 0.13391 -0.025149 -0.021967 0.13546 -0.023098 -0.020246 0.13391 -0.0049039 -0.033655 0.13546 0.015724 0.02545 0.15963 -0.0049039 0.033655 0.15808 -0.0040726 0.028941 0.15963 0.018118 0.029596 0.15808 -0.004439 -0.031019 0.13391 0.018118 -0.029596 0.13546 -0.0049039 -0.033655 0.13546 0.016779 -0.027278 0.13391 -0.025149 0.021967 0.15808 -0.0040726 0.028941 0.15963 -0.0049039 0.033655 0.15808 -0.021482 0.01889 0.15963 0.030629 -0.010773 0.13391 0.018118 -0.029596 0.13546 0.016779 -0.027278 0.13391 0.033144 -0.011688 0.13546 -0.028357 -1.3154e-08 0.15963 -0.025149 -0.021967 0.15808 -0.021482 -0.01889 0.15963 -0.033144 -1.4225e-08 0.15808 -0.021482 0.01889 0.15963 -0.033144 -1.4225e-08 0.15808 -0.028357 -1.3154e-08 0.15963 -0.025149 0.021967 0.15808 0.0091671 -0.014093 -0.0029974 -0.0019644 -0.016985 -0.0018133 -0.0017953 -0.016026 -0.0029974 0.0096539 -0.014936 -0.0018133 -0.015807 5.6548e-08 -0.027693 -0.01114 0.010212 -0.028812 -0.014856 5.6915e-08 -0.028812 -0.011868 0.010823 -0.027693 -0.01158 -0.010581 0.010429 -0.016373 4.7462e-08 0.0092099 -0.012301 -0.011186 0.0092099 -0.015431 4.7424e-08 0.010429 -0.0018538 -0.016357 -0.042439 -0.011005 -0.010099 -0.041339 -0.011693 -0.010677 -0.042439 -0.0016977 -0.015472 -0.041339 -0.01597 5.3871e-08 -0.017235 -0.01129 0.010338 -0.01609 -0.011993 0.010928 -0.017235 -0.015053 5.3836e-08 -0.01609 -0.0018933 -0.016582 -0.027693 -0.011868 -0.010823 -0.027693 -0.01114 -0.010212 -0.028812 -0.0017282 -0.015645 -0.028812 -0.016216 5.0276e-08 -0.0018133 -0.011435 0.01046 -0.0029974 -0.015243 5.067e-08 -0.0029974 -0.012181 0.011086 -0.0018133 -0.0019217 -0.016743 -0.017235 -0.01129 -0.010338 -0.01609 -0.011993 -0.010928 -0.017235 -0.0017624 -0.015839 -0.01609 -0.011005 0.010099 -0.041339 -0.0016977 0.015472 -0.041339 -0.0018538 0.016358 -0.042439 -0.011693 0.010677 -0.042439 -0.0019644 -0.016985 -0.0018133 -0.011435 -0.01046 -0.0029974 -0.0017953 -0.016026 -0.0029974 -0.012181 -0.011086 -0.0018133 -0.01114 0.010212 -0.028812 -0.0018933 0.016582 -0.027693 -0.0017282 0.015646 -0.028812 -0.011868 0.010823 -0.027693 -0.011005 -0.010099 -0.041339 -0.015579 5.9968e-08 -0.042439 -0.011693 -0.010677 -0.042439 -0.014681 5.9944e-08 -0.041339 -0.01129 0.010338 -0.01609 -0.0019217 0.016743 -0.017235 -0.011993 0.010928 -0.017235 -0.0017624 0.015839 -0.01609 -0.01114 -0.010212 -0.028812 -0.015807 5.6548e-08 -0.027693 -0.014856 5.6915e-08 -0.028812 -0.011868 -0.010823 -0.027693 -0.011435 0.01046 -0.0029974 -0.0019644 0.016985 -0.0018133 -0.0017953 0.016026 -0.0029974 -0.012181 0.011086 -0.0018133 -0.01129 -0.010338 -0.01609 -0.01597 5.3871e-08 -0.017235 -0.011993 -0.010928 -0.017235 -0.015053 5.3836e-08 -0.01609 -0.0018538 0.016358 -0.042439 0.0088861 0.013606 -0.041339 0.0093354 0.014385 -0.042439 -0.0016977 0.015472 -0.041339 -0.011435 -0.01046 -0.0029974 -0.016216 5.0276e-08 -0.0018133 -0.015243 5.067e-08 -0.0029974 -0.012181 -0.011086 -0.0018133 -0.0018933 0.016582 -0.027693 0.0094493 0.014582 -0.027693 0.0089739 0.013758 -0.028812 -0.0017282 0.015646 -0.028812 -0.0019217 0.016743 -0.017235 0.0090722 0.013929 -0.01609 0.0095309 0.014723 -0.017235 -0.0017624 0.015839 -0.01609 -0.0019644 0.016985 -0.0018133 0.0091671 0.014093 -0.0029974 -0.0017953 0.016026 -0.0029974 0.0096539 0.014936 -0.0018133 -0.010883 -0.0099966 -0.053694 -0.015447 6.2564e-08 -0.052597 -0.014521 6.2927e-08 -0.053694 -0.011592 -0.010592 -0.052597 0.016639 0.005681 -0.042439 0.0088861 0.013606 -0.041339 0.015794 0.0053736 -0.041339 0.0093354 0.014385 -0.042439 -0.0018308 -0.016227 -0.052597 -0.011592 -0.010592 -0.052597 -0.010883 -0.0099966 -0.053694 -0.0016701 -0.015316 -0.053694 0.016853 0.0057589 -0.027693 0.0089739 0.013758 -0.028812 0.0094493 0.014582 -0.027693 0.015959 0.0054337 -0.028812 0.0088065 -0.013468 -0.053694 -0.0018308 -0.016227 -0.052597 -0.0016701 -0.015316 -0.053694 0.0092693 -0.01427 -0.052597 0.0090722 0.013929 -0.01609 0.017006 0.0058147 -0.017235 0.0095309 0.014723 -0.017235 0.016144 0.0055009 -0.01609 -0.011868 0.010823 -0.027693 -0.01597 5.3871e-08 -0.017235 -0.011993 0.010928 -0.017235 -0.015807 5.6548e-08 -0.027693 -0.012181 0.011086 -0.0018133 -0.016373 4.7462e-08 0.0092099 -0.012301 0.011187 0.0092099 -0.016216 5.0276e-08 -0.0018133 -0.0019217 0.016743 -0.017235 -0.0018933 0.016582 -0.027693 -0.011868 0.010823 -0.027693 -0.011993 0.010928 -0.017235 -0.0019915 0.017139 0.0092099 -0.0019644 0.016985 -0.0018133 -0.012181 0.011086 -0.0018133 -0.012301 0.011187 0.0092099 0.0094493 0.014582 -0.027693 -0.0019217 0.016743 -0.017235 0.0095309 0.014723 -0.017235 -0.0018933 0.016582 -0.027693 0.0096539 0.014936 -0.0018133 -0.0019915 0.017139 0.0092099 0.009732 0.015072 0.0092099 -0.0019644 0.016985 -0.0018133 0.017006 0.0058147 -0.017235 0.016853 0.0057589 -0.027693 0.0094493 0.014582 -0.027693 0.0095309 0.014723 -0.017235 0.017384 0.0059523 0.0092099 0.017237 0.0058988 -0.0018133 0.0096539 0.014936 -0.0018133 0.009732 0.015072 0.0092099 0.017006 -0.0058146 -0.017235 0.016853 -0.0057587 -0.027693 0.016853 0.0057589 -0.027693 0.017006 0.0058147 -0.017235 0.017237 -0.0058987 -0.0018133 0.017384 0.0059523 0.0092099 0.017384 -0.0059521 0.0092099 0.017237 0.0058988 -0.0018133 0.0094493 -0.014582 -0.027693 0.017006 -0.0058146 -0.017235 0.0095309 -0.014723 -0.017235 0.016853 -0.0057587 -0.027693 0.0096539 -0.014936 -0.0018133 0.017384 -0.0059521 0.0092099 0.009732 -0.015071 0.0092099 0.017237 -0.0058987 -0.0018133 -0.0019217 -0.016743 -0.017235 -0.0018933 -0.016582 -0.027693 0.0094493 -0.014582 -0.027693 0.0095309 -0.014723 -0.017235 -0.0019915 -0.017139 0.0092099 -0.0019644 -0.016985 -0.0018133 0.0096539 -0.014936 -0.0018133 0.009732 -0.015071 0.0092099 -0.011868 -0.010823 -0.027693 -0.0019217 -0.016743 -0.017235 -0.011993 -0.010928 -0.017235 -0.0018933 -0.016582 -0.027693 -0.012181 -0.011086 -0.0018133 -0.0019915 -0.017139 0.0092099 -0.012301 -0.011186 0.0092099 -0.0019644 -0.016985 -0.0018133 -0.01597 5.3871e-08 -0.017235 -0.015807 5.6548e-08 -0.027693 -0.011868 -0.010823 -0.027693 -0.011993 -0.010928 -0.017235 -0.016373 4.7462e-08 0.0092099 -0.016216 5.0276e-08 -0.0018133 -0.012181 -0.011086 -0.0018133 -0.012301 -0.011186 0.0092099 -0.015579 5.9968e-08 -0.042439 -0.015447 6.2564e-08 -0.052597 -0.011592 -0.010592 -0.052597 -0.011693 -0.010677 -0.042439 -0.011592 -0.010592 -0.052597 -0.0018538 -0.016357 -0.042439 -0.011693 -0.010677 -0.042439 -0.0018308 -0.016227 -0.052597 -0.0018538 -0.016357 -0.042439 -0.0018308 -0.016227 -0.052597 0.0092693 -0.01427 -0.052597 0.0093354 -0.014384 -0.042439 0.0092693 -0.01427 -0.052597 0.016639 -0.0056808 -0.042439 0.0093354 -0.014384 -0.042439 0.016514 -0.0056356 -0.052597 0.016514 -0.0056356 -0.052597 0.016639 0.005681 -0.042439 0.016639 -0.0056808 -0.042439 0.016514 0.0056358 -0.052597 0.016639 0.005681 -0.042439 0.016514 0.0056358 -0.052597 0.0092693 0.01427 -0.052597 0.0093354 0.014385 -0.042439 0.0092693 0.01427 -0.052597 -0.0018538 0.016358 -0.042439 0.0093354 0.014385 -0.042439 -0.0018308 0.016227 -0.052597 -0.0018538 0.016358 -0.042439 -0.0018308 0.016227 -0.052597 -0.011592 0.010592 -0.052597 -0.011693 0.010677 -0.042439 -0.011592 0.010592 -0.052597 -0.015579 5.9968e-08 -0.042439 -0.011693 0.010677 -0.042439 -0.015447 6.2564e-08 -0.052597 -0.011005 0.010099 -0.041339 -0.014856 5.6915e-08 -0.028812 -0.01114 0.010212 -0.028812 -0.014681 5.9944e-08 -0.041339 -0.0019915 -0.017139 0.0092099 -0.01158 -0.010581 0.010429 -0.012301 -0.011186 0.0092099 -0.001828 -0.016211 0.010429 -0.01129 0.010338 -0.01609 -0.015243 5.067e-08 -0.0029974 -0.011435 0.01046 -0.0029974 -0.015053 5.3836e-08 -0.01609 -0.015579 5.9968e-08 -0.042439 -0.011005 0.010099 -0.041339 -0.011693 0.010677 -0.042439 -0.014681 5.9944e-08 -0.041339 -0.0017282 0.015646 -0.028812 -0.0016977 0.015472 -0.041339 -0.011005 0.010099 -0.041339 -0.01114 0.010212 -0.028812 0.0090722 -0.013929 -0.01609 -0.0017624 -0.015839 -0.01609 -0.0019217 -0.016743 -0.017235 0.0095309 -0.014723 -0.017235 -0.0017953 0.016026 -0.0029974 -0.0017624 0.015839 -0.01609 -0.01129 0.010338 -0.01609 -0.011435 0.01046 -0.0029974 0.0092612 -0.014256 0.010429 -0.001828 -0.016211 0.010429 -0.0019915 -0.017139 0.0092099 0.009732 -0.015071 0.0092099 0.0088861 0.013606 -0.041339 -0.0017282 0.015646 -0.028812 0.0089739 0.013758 -0.028812 -0.0016977 0.015472 -0.041339 0.0089739 -0.013758 -0.028812 -0.0018933 -0.016582 -0.027693 -0.0017282 -0.015645 -0.028812 0.0094493 -0.014582 -0.027693 0.0090722 0.013929 -0.01609 -0.0017953 0.016026 -0.0029974 0.0091671 0.014093 -0.0029974 -0.0017624 0.015839 -0.01609 0.017384 -0.0059521 0.0092099 0.0092612 -0.014256 0.010429 0.009732 -0.015071 0.0092099 0.016499 -0.0056301 0.010429 0.015959 0.0054337 -0.028812 0.015794 0.0053736 -0.041339 0.0088861 0.013606 -0.041339 0.0089739 0.013758 -0.028812 0.0088861 -0.013606 -0.041339 -0.0018538 -0.016357 -0.042439 0.0093354 -0.014384 -0.042439 -0.0016977 -0.015472 -0.041339 0.016322 0.0055658 -0.0029974 0.016144 0.0055009 -0.01609 0.0090722 0.013929 -0.01609 0.0091671 0.014093 -0.0029974 0.016499 0.0056302 0.010429 0.017384 -0.0059521 0.0092099 0.017384 0.0059523 0.0092099 0.016499 -0.0056301 0.010429 0.015794 -0.0053734 -0.041339 0.015959 0.0054337 -0.028812 0.015959 -0.0054336 -0.028812 0.015794 0.0053736 -0.041339 0.0091671 -0.014093 -0.0029974 0.016322 -0.0055657 -0.0029974 0.017237 -0.0058987 -0.0018133 0.0096539 -0.014936 -0.0018133 0.016144 -0.0055008 -0.01609 0.016322 0.0055658 -0.0029974 0.016322 -0.0055657 -0.0029974 0.016144 0.0055009 -0.01609 0.0092612 0.014256 0.010429 0.017384 0.0059523 0.0092099 0.009732 0.015072 0.0092099 0.016499 0.0056302 0.010429 0.0088861 -0.013606 -0.041339 0.015959 -0.0054336 -0.028812 0.0089739 -0.013758 -0.028812 0.015794 -0.0053734 -0.041339 0.017006 -0.0058146 -0.017235 0.0090722 -0.013929 -0.01609 0.0095309 -0.014723 -0.017235 0.016144 -0.0055008 -0.01609 0.0090722 -0.013929 -0.01609 0.016322 -0.0055657 -0.0029974 0.0091671 -0.014093 -0.0029974 0.016144 -0.0055008 -0.01609 -0.0019915 0.017139 0.0092099 0.0092612 0.014256 0.010429 0.009732 0.015072 0.0092099 -0.001828 0.016211 0.010429 -0.0017282 -0.015645 -0.028812 -0.0016977 -0.015472 -0.041339 0.0088861 -0.013606 -0.041339 0.0089739 -0.013758 -0.028812 0.015959 -0.0054336 -0.028812 0.0094493 -0.014582 -0.027693 0.0089739 -0.013758 -0.028812 0.016853 -0.0057587 -0.027693 -0.0017953 -0.016026 -0.0029974 -0.0017624 -0.015839 -0.01609 0.0090722 -0.013929 -0.01609 0.0091671 -0.014093 -0.0029974 -0.01158 0.010581 0.010429 -0.0019915 0.017139 0.0092099 -0.012301 0.011187 0.0092099 -0.001828 0.016211 0.010429 -0.011005 -0.010099 -0.041339 -0.0017282 -0.015645 -0.028812 -0.01114 -0.010212 -0.028812 -0.0016977 -0.015472 -0.041339 0.0093354 -0.014384 -0.042439 0.015794 -0.0053734 -0.041339 0.0088861 -0.013606 -0.041339 0.016639 -0.0056808 -0.042439 -0.01129 -0.010338 -0.01609 -0.0017953 -0.016026 -0.0029974 -0.011435 -0.01046 -0.0029974 -0.0017624 -0.015839 -0.01609 -0.016373 4.7462e-08 0.0092099 -0.01158 0.010581 0.010429 -0.012301 0.011187 0.0092099 -0.015431 4.7424e-08 0.010429 -0.014856 5.6915e-08 -0.028812 -0.014681 5.9944e-08 -0.041339 -0.011005 -0.010099 -0.041339 -0.01114 -0.010212 -0.028812 -0.015447 6.2564e-08 -0.052597 -0.010883 0.0099967 -0.053694 -0.014521 6.2927e-08 -0.053694 -0.011592 0.010592 -0.052597 -0.015243 5.067e-08 -0.0029974 -0.015053 5.3836e-08 -0.01609 -0.01129 -0.010338 -0.01609 -0.011435 -0.01046 -0.0029974 0.016322 0.0055658 -0.0029974 0.017237 -0.0058987 -0.0018133 0.016322 -0.0055657 -0.0029974 0.017237 0.0058988 -0.0018133 -0.010883 0.0099967 -0.053694 -0.0018308 0.016227 -0.052597 -0.0016701 0.015316 -0.053694 -0.011592 0.010592 -0.052597 0.016144 0.0055009 -0.01609 0.016144 -0.0055008 -0.01609 0.017006 -0.0058146 -0.017235 0.017006 0.0058147 -0.017235 -0.0018308 0.016227 -0.052597 0.0088065 0.013468 -0.053694 -0.0016701 0.015316 -0.053694 0.0092693 0.01427 -0.052597 0.016853 0.0057589 -0.027693 0.015959 -0.0054336 -0.028812 0.015959 0.0054337 -0.028812 0.016853 -0.0057587 -0.027693 0.015645 0.0053192 -0.053694 0.0092693 0.01427 -0.052597 0.016514 0.0056358 -0.052597 0.0088065 0.013468 -0.053694 0.015794 0.0053736 -0.041339 0.016639 -0.0056808 -0.042439 0.016639 0.005681 -0.042439 0.015794 -0.0053734 -0.041339 0.016514 0.0056358 -0.052597 0.015645 -0.005319 -0.053694 0.015645 0.0053192 -0.053694 0.016514 -0.0056356 -0.052597 0.016322 0.0055658 -0.0029974 0.0096539 0.014936 -0.0018133 0.017237 0.0058988 -0.0018133 0.0091671 0.014093 -0.0029974 0.015645 -0.005319 -0.053694 0.0092693 -0.01427 -0.052597 0.0088065 -0.013468 -0.053694 0.016514 -0.0056356 -0.052597 0.0080011 -0.012073 -0.0875 0.017418 -0.0059646 -0.084441 0.0097503 -0.015103 -0.084441 0.014131 -0.0047681 -0.0875 0.0097503 0.015103 -0.084441 -0.0013903 0.013729 -0.0875 -0.0019978 0.017175 -0.084441 0.0080011 0.012073 -0.0875 0.0097503 -0.015103 -0.084441 -0.0019978 -0.017175 -0.084441 -0.0013903 -0.013729 -0.0875 0.0080011 -0.012073 -0.0875 0.017418 0.0059647 -0.084441 0.0080011 0.012073 -0.0875 0.0097503 0.015103 -0.084441 0.014131 0.0047682 -0.0875 -0.012329 0.01121 -0.084441 -0.012911 6.951e-08 -0.0875 -0.016409 6.8347e-08 -0.084441 -0.009649 0.0089613 -0.0875 -0.0019978 -0.017175 -0.084441 -0.009649 -0.0089611 -0.0875 -0.0013903 -0.013729 -0.0875 -0.012329 -0.01121 -0.084441 0.014131 0.0047682 -0.0875 0.017418 -0.0059646 -0.084441 0.014131 -0.0047681 -0.0875 0.017418 0.0059647 -0.084441 -0.009649 0.0089613 -0.0875 -0.0019978 0.017175 -0.084441 -0.0013903 0.013729 -0.0875 -0.012329 0.01121 -0.084441 0.0080011 0.012073 -0.0875 -0.009649 0.0089613 -0.0875 -0.0013903 0.013729 -0.0875 0.014131 -0.0047681 -0.0875 -0.009649 -0.0089611 -0.0875 -0.012911 6.951e-08 -0.0875 -0.0013903 -0.013729 -0.0875 0.0080011 -0.012073 -0.0875 0.014131 0.0047682 -0.0875 0.017488 0.0059902 -0.068657 0.017418 -0.0059646 -0.084441 0.017418 0.0059647 -0.084441 0.017488 -0.0059901 -0.068657 -0.012329 0.01121 -0.084441 -0.0020108 0.017248 -0.068657 -0.0019978 0.017175 -0.084441 -0.012386 0.011258 -0.068657 -0.012329 -0.01121 -0.084441 -0.016484 6.528e-08 -0.068657 -0.016409 6.8347e-08 -0.084441 -0.012386 -0.011258 -0.068657 0.017488 -0.0059901 -0.068657 0.0097503 -0.015103 -0.084441 0.017418 -0.0059646 -0.084441 0.0097875 -0.015168 -0.068657 -0.0020108 0.017248 -0.068657 0.0097503 0.015103 -0.084441 -0.0019978 0.017175 -0.084441 0.0097875 0.015168 -0.068657 0.0097503 -0.015103 -0.084441 -0.0020108 -0.017248 -0.068657 -0.0019978 -0.017175 -0.084441 0.0097875 -0.015168 -0.068657 0.0097503 0.015103 -0.084441 0.017488 0.0059902 -0.068657 0.017418 0.0059647 -0.084441 0.0097875 0.015168 -0.068657 -0.016484 6.528e-08 -0.068657 -0.012329 0.01121 -0.084441 -0.016409 6.8347e-08 -0.084441 -0.012386 0.011258 -0.068657 -0.012911 6.951e-08 -0.0875 -0.012329 -0.01121 -0.084441 -0.016409 6.8347e-08 -0.084441 -0.009649 -0.0089611 -0.0875 0.017488 0.0059902 -0.068657 0.015527 -0.0052764 -0.067007 0.017488 -0.0059901 -0.068657 0.015527 0.0052765 -0.067007 0.017488 0.0059902 -0.068657 0.0087442 0.01336 -0.067007 0.015527 0.0052765 -0.067007 0.0097875 0.015168 -0.068657 0.0097875 0.015168 -0.068657 -0.0020108 0.017248 -0.068657 -0.0016484 0.015193 -0.067007 0.0087442 0.01336 -0.067007 -0.012386 0.011258 -0.068657 -0.0016484 0.015193 -0.067007 -0.0020108 0.017248 -0.068657 -0.010787 0.0099165 -0.067007 -0.012386 0.011258 -0.068657 -0.014397 6.6133e-08 -0.067007 -0.010787 0.0099165 -0.067007 -0.016484 6.528e-08 -0.068657 -0.0016484 -0.015193 -0.067007 -0.012386 -0.011258 -0.068657 -0.0020108 -0.017248 -0.068657 -0.010787 -0.0099164 -0.067007 -0.0016484 -0.015193 -0.067007 0.0097875 -0.015168 -0.068657 0.0087442 -0.01336 -0.067007 -0.0020108 -0.017248 -0.068657 -0.016484 6.528e-08 -0.068657 -0.012386 -0.011258 -0.068657 -0.010787 -0.0099164 -0.067007 -0.014397 6.6133e-08 -0.067007 -0.0020108 -0.017248 -0.068657 -0.012329 -0.01121 -0.084441 -0.0019978 -0.017175 -0.084441 -0.012386 -0.011258 -0.068657 0.0087442 -0.01336 -0.067007 0.017488 -0.0059901 -0.068657 0.015527 -0.0052764 -0.067007 0.0097875 -0.015168 -0.068657 0.028646 0.010051 0.15963 0.015724 0.02545 0.15963 0.014399 0.023155 0.1625 0.026155 0.0091447 0.1625 -0.028357 -1.3154e-08 0.15963 -0.019451 0.017186 0.1625 -0.021482 0.01889 0.15963 -0.025707 -1.4527e-08 0.1625 -0.019451 -0.017186 0.1625 -0.0040726 -0.028941 0.15963 -0.0036124 -0.026331 0.1625 -0.021482 -0.01889 0.15963 0.026155 -0.0091447 0.1625 0.028646 0.010051 0.15963 0.026155 0.0091447 0.1625 0.028646 -0.010051 0.15963 -0.0036124 0.026331 0.1625 -0.021482 0.01889 0.15963 -0.019451 0.017186 0.1625 -0.0040726 0.028941 0.15963 -0.028357 -1.3154e-08 0.15963 -0.021482 -0.01889 0.15963 -0.019451 -0.017186 0.1625 -0.025707 -1.4527e-08 0.1625 0.015724 -0.02545 0.15963 0.026155 -0.0091447 0.1625 0.014399 -0.023155 0.1625 0.028646 -0.010051 0.15963 -0.0040726 0.028941 0.15963 0.014399 0.023155 0.1625 0.015724 0.02545 0.15963 -0.0036124 0.026331 0.1625 0.026155 -0.0091447 0.1625 -0.0036124 -0.026331 0.1625 0.014399 -0.023155 0.1625 -0.019451 0.017186 0.1625 -0.019451 -0.017186 0.1625 0.014399 0.023155 0.1625 0.026155 0.0091447 0.1625 -0.0036124 0.026331 0.1625 -0.025707 -1.4527e-08 0.1625 -0.0040726 -0.028941 0.15963 0.015724 -0.02545 0.15963 0.014399 -0.023155 0.1625 -0.0036124 -0.026331 0.1625 -0.014451 4.3719e-08 0.027573 -0.014411 4.528e-08 0.020888 -0.010798 -0.0099253 0.020888 -0.010829 -0.0099511 0.027573 -0.010798 -0.0099253 0.020888 -0.0016578 -0.015246 0.027573 -0.010829 -0.0099511 0.027573 -0.0016508 -0.015207 0.020888 -0.0016578 -0.015246 0.027573 -0.0016508 -0.015207 0.020888 0.0087511 -0.013372 0.020888 0.0087711 -0.013407 0.027573 0.0087511 -0.013372 0.020888 0.015578 -0.0052948 0.027573 0.0087711 -0.013407 0.027573 0.01554 -0.0052811 0.020888 0.01554 -0.0052811 0.020888 0.015578 0.0052949 0.027573 0.015578 -0.0052948 0.027573 0.01554 0.0052812 0.020888 0.015578 0.0052949 0.027573 0.01554 0.0052812 0.020888 0.0087511 0.013372 0.020888 0.0087711 0.013407 0.027573 0.0087511 0.013372 0.020888 -0.0016578 0.015246 0.027573 0.0087711 0.013407 0.027573 -0.0016508 0.015207 0.020888 -0.0016578 0.015246 0.027573 -0.0016508 0.015207 0.020888 -0.010798 0.0099254 0.020888 -0.010829 0.0099512 0.027573 -0.010798 0.0099254 0.020888 -0.014451 4.3719e-08 0.027573 -0.010829 0.0099512 0.027573 -0.014411 4.528e-08 0.020888 0.014437 -0.0045835 0.061447 0.017769 -0.0046864 0.084625 0.01472 -0.0046864 0.084662 0.017486 -0.0045835 0.061409 0.014737 0.0033131 0.086041 0.017769 0.0046865 0.084625 0.01472 0.0046865 0.084662 0.017786 0.0033131 0.086004 0.017786 -0.003313 0.086004 0.01472 -0.0046864 0.084662 0.017769 -0.0046864 0.084625 0.014737 -0.003313 0.086041 0.014437 -0.0045835 0.061447 0.017469 -0.0031978 0.06003 0.017486 -0.0045835 0.061409 0.01442 -0.0031978 0.060067 0.014437 0.0045836 0.061447 0.017469 0.0031979 0.06003 0.01442 0.0031979 0.060067 0.017486 0.0045836 0.061409 0.01442 0.0031979 0.060067 0.014437 -0.0045835 0.061447 0.014437 0.0045836 0.061447 0.01472 0.0046865 0.084662 0.01442 -0.0031978 0.060067 0.014737 -0.003313 0.086041 0.01472 -0.0046864 0.084662 0.014737 0.0033131 0.086041 0.01442 0.0031979 0.060067 0.017469 -0.0031978 0.06003 0.01442 -0.0031978 0.060067 0.017469 0.0031979 0.06003 0.017486 0.0045836 0.061409 0.01472 0.0046865 0.084662 0.017769 0.0046865 0.084625 0.014437 0.0045836 0.061447 0.017786 -0.003313 0.086004 0.017769 0.0046865 0.084625 0.017786 0.0033131 0.086004 0.017769 -0.0046864 0.084625 0.017486 0.0045836 0.061409 0.017469 -0.0031978 0.06003 0.017469 0.0031979 0.06003 0.017486 -0.0045835 0.061409 0.014737 0.0033131 0.086041 0.017786 -0.003313 0.086004 0.017786 0.0033131 0.086004 0.014737 -0.003313 0.086041</float_array><technique_common><accessor source="#g-p-a" count="1194" stride="3"><param name="X" type="float"/><param name="Y" type="float"/><param name="Z" type="float"/></accessor></technique_common></source>
<source id="g-n"><float_array id="g-n-a" count="3582">0.55516 0.46584 0.68905 0.55516 0.46584 0.68905 0.55516 0.46584 0.68905 0.55516 0.46584 0.68905 0.12569 -0.71283 -0.68999 0.12569 -0.71283 -0.68999 0.12569 -0.71283 -0.68999 0.12569 -0.71283 -0.68999 0.12585 0.7137 0.68905 0.12585 0.7137 0.68905 0.12585 0.7137 0.68905 0.12585 0.71371 0.68905 0.55448 -0.46526 -0.68999 0.55448 -0.46526 -0.68999 0.55448 -0.46526 -0.68999 0.55448 -0.46526 -0.68999 -0.36236 0.62762 0.68905 -0.36236 0.62762 0.68905 -0.36236 0.62762 0.68905 -0.36236 0.62762 0.68905 0.72382 5.0057e-08 -0.68998 0.72382 4.6549e-07 -0.68999 0.72382 0 -0.68998 0.72382 5.0199e-07 -0.68999 -0.68101 -0.24787 0.68905 -0.68101 -0.24787 0.68905 -0.68101 -0.24787 0.68905 -0.68101 -0.24787 0.68905 -0.68101 0.24787 0.68905 -0.68101 0.24787 0.68905 -0.68101 0.24787 0.68905 -0.68101 0.24787 0.68905 0.55448 0.46527 -0.68998 0.55448 0.46527 -0.68998 0.55448 0.46527 -0.68999 0.55448 0.46527 -0.68998 -0.36191 -0.62685 -0.68999 -0.36191 -0.62685 -0.68998 -0.36191 -0.62685 -0.68998 -0.36191 -0.62685 -0.68999 0.72471 1.4767e-08 0.68905 0.72472 1.3715e-07 0.68905 0.72471 0 0.68905 0.72472 1.4793e-07 0.68905 -0.68017 0.24756 -0.68998 -0.68017 0.24756 -0.68999 -0.68017 0.24756 -0.68999 -0.68017 0.24756 -0.68998 -0.68017 -0.24756 -0.68998 -0.68017 -0.24756 -0.68998 -0.68017 -0.24756 -0.68998 -0.68017 -0.24756 -0.68998 0.55516 -0.46584 0.68905 0.55516 -0.46584 0.68905 0.55516 -0.46584 0.68905 0.55516 -0.46584 0.68905 -0.36191 0.62685 -0.68999 -0.36191 0.62685 -0.68999 -0.36191 0.62685 -0.68999 -0.36191 0.62685 -0.68998 0.12585 -0.71371 0.68905 0.12585 -0.71371 0.68905 0.12585 -0.71371 0.68905 0.12585 -0.71371 0.68905 0.12569 0.71283 -0.68998 0.12569 0.71283 -0.68998 0.12569 0.71283 -0.68998 0.12569 0.71283 -0.68998 -0.36236 -0.62762 0.68905 -0.36236 -0.62762 0.68905 -0.36236 -0.62762 0.68905 -0.36236 -0.62762 0.68905 -0.93968 -0.34202 -0.0045775 -0.93968 -0.34202 -0.0045775 -0.93968 -0.34202 -0.0045775 -0.93968 -0.34202 -0.0045775 -0.49999 -0.86602 -0.0045776 -0.49999 -0.86602 -0.0045775 -0.49999 -0.86602 -0.0045775 -0.49999 -0.86602 -0.0045776 0.17365 -0.9848 -0.0045775 0.17365 -0.9848 -0.0045775 0.17365 -0.9848 -0.0045775 0.17365 -0.9848 -0.0045775 0.76604 -0.64278 -0.0045773 0.76604 -0.64278 -0.0045773 0.76604 -0.64278 -0.0045773 0.76604 -0.64278 -0.0045773 0.99999 2.1638e-07 -0.0045771 0.99999 3.0724e-07 -0.0045771 0.99999 2.959e-07 -0.0045771 0.99999 2.0523e-07 -0.0045771 0.76604 0.64278 -0.004577 0.76604 0.64278 -0.004577 0.76604 0.64278 -0.004577 0.76604 0.64278 -0.004577 0.17365 0.9848 -0.004577 0.17365 0.9848 -0.004577 0.17365 0.9848 -0.004577 0.17365 0.9848 -0.004577 -0.49999 0.86602 -0.0045772 -0.49999 0.86602 -0.0045772 -0.49999 0.86602 -0.0045772 -0.49999 0.86602 -0.0045772 -0.93968 0.34202 -0.0045774 -0.93968 0.34202 -0.0045774 -0.93968 0.34202 -0.0045774 -0.93968 0.34202 -0.0045774 -0.48199 0.83482 -0.266 -0.48199 0.83482 -0.266 -0.48199 0.83482 -0.266 -0.48199 0.83482 -0.266 -0.90584 -0.3297 -0.266 -0.90584 -0.3297 -0.266 -0.90584 -0.3297 -0.266 -0.90584 -0.3297 -0.266 0.73845 -0.61963 -0.266 0.73845 -0.61963 -0.266 0.73845 -0.61963 -0.266 0.73845 -0.61963 -0.266 0.16739 0.94933 -0.266 0.16739 0.94933 -0.266 0.16739 0.94933 -0.266 0.16739 0.94933 -0.266 0.16739 -0.94933 -0.266 0.16739 -0.94933 -0.266 0.16739 -0.94933 -0.266 0.16739 -0.94933 -0.266 0.73845 0.61963 -0.266 0.73845 0.61963 -0.266 0.73845 0.61963 -0.266 0.73845 0.61963 -0.266 -0.90584 0.3297 -0.266 -0.90584 0.3297 -0.266 -0.90584 0.3297 -0.266 -0.90584 0.3297 -0.266 -0.48199 -0.83482 -0.266 -0.48199 -0.83482 -0.266 -0.48199 -0.83482 -0.266 -0.48199 -0.83482 -0.266 -0.88317 0.32145 -0.34159 -0.88317 0.32145 -0.34159 -0.88317 0.32145 -0.34159 -0.88317 0.32145 -0.34159 -0.46993 -0.81393 -0.34159 -0.46993 -0.81393 -0.34159 -0.46993 -0.81393 -0.34159 -0.46993 -0.81393 -0.34159 0.93985 5.6071e-07 -0.34159 0.93985 5.8962e-07 -0.34159 0.93985 7.0854e-07 -0.34159 0.93985 4.5915e-07 -0.34159 -0.46993 0.81393 -0.34159 -0.46993 0.81393 -0.34159 -0.46993 0.81393 -0.34159 -0.46993 0.81393 -0.34159 -0.88317 -0.32145 -0.34159 -0.88317 -0.32145 -0.34159 -0.88317 -0.32145 -0.34159 -0.88317 -0.32145 -0.34159 0.71997 -0.60412 -0.34159 0.71997 -0.60412 -0.34159 0.71997 -0.60412 -0.34159 0.71997 -0.60412 -0.34159 0.1632 0.92557 -0.34158 0.1632 0.92557 -0.34158 0.1632 0.92557 -0.34159 0.1632 0.92557 -0.34158 0.1632 -0.92557 -0.34159 0.1632 -0.92557 -0.34159 0.1632 -0.92557 -0.34159 0.1632 -0.92557 -0.34159 0.96397 3.5342e-07 -0.266 0.96397 3.6095e-07 -0.266 0.96397 3.8657e-07 -0.266 0.96397 3.3076e-07 -0.266 0.69193 0.5806 -0.42911 0.69193 0.5806 -0.42911 0.69193 0.5806 -0.42911 0.69193 0.5806 -0.42911 0.15685 0.88953 -0.42911 0.15685 0.88953 -0.42911 0.15685 0.88953 -0.42911 0.15685 0.88953 -0.42911 -0.45163 0.78224 -0.42911 -0.45163 0.78224 -0.42911 -0.45163 0.78224 -0.42911 -0.45163 0.78224 -0.42911 -0.84878 0.30893 -0.42911 -0.84878 0.30893 -0.42911 -0.84878 0.30893 -0.42911 -0.84878 0.30893 -0.42911 -0.45163 -0.78224 -0.42911 -0.45163 -0.78224 -0.42911 -0.45163 -0.78224 -0.42911 -0.45163 -0.78224 -0.42911 0.15685 -0.88953 -0.42911 0.15685 -0.88953 -0.42911 0.15685 -0.88953 -0.42911 0.15685 -0.88953 -0.42911 -0.84878 -0.30893 -0.42911 -0.84878 -0.30893 -0.42911 -0.84878 -0.30893 -0.42911 -0.84878 -0.30893 -0.42911 0.69193 -0.5806 -0.42911 0.69193 -0.5806 -0.42911 0.69193 -0.5806 -0.42911 0.69193 -0.5806 -0.42911 0.71997 0.60412 -0.34159 0.71997 0.60412 -0.34159 0.71997 0.60412 -0.34159 0.71997 0.60412 -0.34158 -0.93968 0.34202 -0.0045773 -0.93968 0.34202 -0.0045772 -0.93968 0.34202 -0.0045774 -0.93968 0.34202 -0.0045771 -0.49999 0.86602 -0.0045771 -0.49999 0.86602 -0.0045769 -0.49999 0.86602 -0.0045771 -0.49999 0.86602 -0.0045772 0.17365 0.9848 -0.0045769 0.17365 0.9848 -0.0045769 0.17365 0.9848 -0.004577 0.17365 0.9848 -0.0045768 0.76604 0.64278 -0.004577 0.76604 0.64278 -0.004577 0.76604 0.64278 -0.004577 0.76604 0.64278 -0.004577 0.99999 2.9486e-07 -0.004577 0.99999 3.1843e-07 -0.0045771 0.99999 2.0412e-07 -0.0045769 0.99999 4.0937e-07 -0.0045772 0.76604 -0.64278 -0.0045772 0.76604 -0.64278 -0.0045772 0.76604 -0.64278 -0.0045773 0.76604 -0.64278 -0.0045771 0.17365 -0.9848 -0.0045775 0.17365 -0.9848 -0.0045775 0.17365 -0.9848 -0.0045775 0.17365 -0.9848 -0.0045775 -0.49999 -0.86602 -0.0045776 -0.49999 -0.86602 -0.0045776 -0.49999 -0.86602 -0.0045777 -0.49999 -0.86602 -0.0045776 -0.93968 -0.34202 -0.0045774 -0.93968 -0.34202 -0.0045773 -0.93968 -0.34202 -0.0045774 -0.93968 -0.34202 -0.0045775 0.90325 7.6397e-07 -0.42911 0.90325 7.5323e-07 -0.42911 0.90325 7.034e-07 -0.42911 0.90325 8.0485e-07 -0.42911 -0.93966 0.34201 -0.0087998 -0.93966 0.34201 -0.0087998 -0.93966 0.34201 -0.0087998 -0.93966 0.34201 -0.0087998 -0.49998 0.86599 -0.0087996 -0.49998 0.86599 -0.0087996 -0.49998 0.86599 -0.0087996 -0.49998 0.86599 -0.0087996 0.17364 0.98477 -0.0087995 0.17364 0.98477 -0.0087995 0.17364 0.98477 -0.0087996 0.17364 0.98477 -0.0087994 0.76601 0.64276 -0.0087995 0.76601 0.64276 -0.0087994 0.76601 0.64276 -0.0087995 0.76601 0.64276 -0.0087996 0.99996 3.1061e-07 -0.0087996 0.99996 3.4158e-07 -0.0087996 0.99996 4.3329e-07 -0.0087997 0.99996 2.184e-07 -0.0087995 0.76601 -0.64276 -0.0087998 0.76601 -0.64276 -0.0087998 0.76601 -0.64276 -0.0087997 0.76602 -0.64276 -0.0087999 0.17364 -0.98477 -0.0087999 0.17364 -0.98477 -0.0087999 0.17364 -0.98477 -0.0087999 0.17364 -0.98477 -0.0087999 -0.49998 -0.86599 -0.0088 -0.49998 -0.86599 -0.0088 -0.49998 -0.86599 -0.0088001 -0.49998 -0.86599 -0.0088 -0.93966 -0.34201 -0.0088 -0.93966 -0.34201 -0.0088 -0.93966 -0.34201 -0.0088 -0.93966 -0.34201 -0.0088 -0.37872 -0.13784 0.91519 -0.37872 -0.13784 0.91519 -0.37872 -0.13784 0.91519 -0.37872 -0.13784 0.91519 -0.20151 0.34903 0.91519 -0.20151 0.34903 0.91519 -0.20151 0.34903 0.91519 -0.20151 0.34903 0.91519 0.069984 -0.3969 0.91519 0.069984 -0.3969 0.91519 0.069984 -0.3969 0.91519 0.069984 -0.3969 0.91519 0.30885 -0.25916 -0.91512 0.30885 -0.25915 -0.91512 0.30885 -0.25915 -0.91512 0.30885 -0.25916 -0.91512 0.40317 1.1578e-06 -0.91513 0.40317 8.2754e-07 -0.91512 0.40317 1.1773e-06 -0.91513 0.40317 8.1469e-07 -0.91512 0.40302 -5.5195e-07 0.91519 0.40302 -2.4595e-07 0.91519 0.40302 -2.3405e-07 0.91519 0.40302 -5.6998e-07 0.91519 0.30885 0.25915 -0.91513 0.30885 0.25915 -0.91512 0.30885 0.25915 -0.91513 0.30885 0.25915 -0.91512 0.069985 0.3969 0.91519 0.069985 0.3969 0.91519 0.069985 0.3969 0.91519 0.069985 0.3969 0.91519 -0.20151 -0.34903 0.91519 -0.20151 -0.34903 0.91519 -0.20151 -0.34903 0.91519 -0.20151 -0.34903 0.91519 -0.93966 -0.34201 -0.0084033 -0.93966 -0.34201 -0.0084035 -0.93966 -0.34201 -0.0084033 -0.93966 -0.34201 -0.0084035 -0.49998 -0.86599 -0.0084032 -0.49998 -0.86599 -0.0084039 -0.49998 -0.86599 -0.0084031 -0.49998 -0.86599 -0.008404 0.17364 -0.98477 -0.0084051 0.17364 -0.98477 -0.0084029 0.17364 -0.98477 -0.008405 0.17364 -0.98477 -0.0084028 0.76602 -0.64276 -0.008403 0.76602 -0.64276 -0.0084043 0.76602 -0.64276 -0.0084029 0.76602 -0.64276 -0.0084044 0.99996 2.8959e-07 -0.0084029 0.99996 2.9277e-07 -0.0084029 0.99996 2.8973e-07 -0.0084029 0.99996 2.9292e-07 -0.0084029 0.76602 0.64277 -0.0084052 0.76602 0.64277 -0.0084027 0.76602 0.64277 -0.0084051 0.76602 0.64277 -0.0084025 0.17364 0.98477 -0.008403 0.17364 0.98477 -0.0084063 0.17364 0.98477 -0.0084028 0.17364 0.98477 -0.0084065 -0.49998 0.86599 -0.0084028 -0.49998 0.86599 -0.0084031 -0.49998 0.86599 -0.0084028 -0.49998 0.86599 -0.0084031 -0.93966 0.34201 -0.0084033 -0.93966 0.34201 -0.0084029 -0.93966 0.34201 -0.0084033 -0.93966 0.34201 -0.0084029 0.070011 -0.39705 -0.91512 0.070011 -0.39705 -0.91512 0.070011 -0.39705 -0.91512 0.070011 -0.39705 -0.91512 0.30874 0.25906 0.91519 0.30874 0.25906 0.91519 0.30874 0.25906 0.91519 0.30873 0.25906 0.91519 -0.20159 -0.34916 -0.91512 -0.20159 -0.34916 -0.91512 -0.20159 -0.34916 -0.91512 -0.20159 -0.34916 -0.91512 -0.37886 0.13789 -0.91512 -0.37886 0.13789 -0.91513 -0.37886 0.13789 -0.91513 -0.37886 0.13789 -0.91512 -0.37886 -0.13789 -0.91513 -0.37886 -0.13789 -0.91512 -0.37886 -0.13789 -0.91512 -0.37886 -0.13789 -0.91513 0.30873 -0.25906 0.91519 0.30873 -0.25906 0.91519 0.30873 -0.25906 0.91519 0.30873 -0.25906 0.91519 -0.37872 0.13784 0.91519 -0.37872 0.13784 0.91519 -0.37872 0.13784 0.91519 -0.37872 0.13784 0.91519 -0.20159 0.34916 -0.91512 -0.20159 0.34916 -0.91512 -0.20159 0.34916 -0.91512 -0.20159 0.34916 -0.91512 0.07001 0.39705 -0.91512 0.07001 0.39705 -0.91512 0.07001 0.39705 -0.91512 0.07001 0.39705 -0.91512 -0.00010687 -0.99998 -0.0070154 -0.00010687 -0.99998 -0.0070154 -0.00010687 -0.99998 -0.0070154 -0.00010687 -0.99998 -0.0070154 0.010747 -0.70958 0.70454 0.010747 -0.70958 0.70454 0.010747 -0.70958 0.70454 0.010747 -0.70958 0.70454 -0.010822 -0.70462 -0.7095 -0.010822 -0.70462 -0.7095 -0.010821 -0.70462 -0.7095 -0.010822 -0.70462 -0.7095 -0.010822 0.70462 -0.7095 -0.010822 0.70462 -0.7095 -0.010821 0.70462 -0.7095 -0.010822 0.70462 -0.7095 0.010746 0.70958 0.70454 0.010746 0.70958 0.70454 0.010746 0.70958 0.70454 0.010746 0.70958 0.70454 -0.00010712 0.99998 -0.0070148 -0.00010713 0.99998 -0.0070148 -0.00010713 0.99998 -0.0070148 -0.00010712 0.99998 -0.0070148 0.015251 0 0.99988 0.015251 0 0.99988 0.015251 0 0.99988 0.015251 0 0.99988 0.99981 6.3149e-09 -0.019277 0.99981 6.9785e-09 -0.019277 0.99981 0 -0.019277 0.99981 5.7803e-09 -0.019277 0.99981 2.2462e-09 -0.019276 0.99981 0 -0.019276 0.99981 0 -0.019276 0.99981 0 -0.019276 -0.99981 0 0.019277 -0.99981 0 0.019276 -0.99981 0 0.019277 -0.99981 0 0.019276 -0.99981 0 0.019276 -0.99981 0 0.019276 -0.99981 0 0.019277 -0.99981 0 0.019277 -0.01525 0 -0.99988 -0.01525 0 -0.99988 -0.01525 0 -0.99988 -0.01525 0 -0.99988 -0.49466 -0.18004 -0.85023 -0.49466 -0.18004 -0.85023 -0.49466 -0.18004 -0.85023 -0.49466 -0.18004 -0.85023 0.32718 -7.9163e-07 0.94496 0.32717 -1.4885e-06 0.94496 0.32718 -6.8083e-07 0.94496 0.32717 -1.6585e-06 0.94496 -0.2632 0.45588 -0.85024 -0.2632 0.45588 -0.85024 -0.2632 0.45588 -0.85024 -0.2632 0.45588 -0.85024 0.25063 -0.2103 0.94496 0.25063 -0.2103 0.94496 0.25063 -0.2103 0.94496 0.25063 -0.2103 0.94496 0.091409 0.51841 -0.85024 0.091409 0.51841 -0.85024 0.091409 0.51841 -0.85024 0.091409 0.51841 -0.85024 0.056813 -0.32221 0.94496 0.056813 -0.3222 0.94496 0.056813 -0.3222 0.94496 0.056813 -0.32221 0.94496 0.40325 0.33837 -0.85023 0.40325 0.33837 -0.85024 0.40325 0.33837 -0.85024 0.40325 0.33837 -0.85023 -0.16359 -0.28334 0.94496 -0.16359 -0.28335 0.94496 -0.16359 -0.28335 0.94496 -0.16359 -0.28334 0.94496 0.52641 5.5979e-07 -0.85023 0.52641 7.5909e-07 -0.85023 0.52641 7.8393e-07 -0.85023 0.52641 5.4291e-07 -0.85023 0.17365 0.98481 7.9263e-07 0.17365 0.98481 7.8791e-07 0.17365 0.98481 6.7883e-07 0.17365 0.98481 9.0171e-07 0.17365 -0.98481 -7.2233e-07 0.17365 -0.98481 -7.2177e-07 0.17365 -0.98481 -7.0878e-07 0.17365 -0.98481 -7.3532e-07 0.76604 0.64279 3.7571e-07 0.76604 0.64279 3.7667e-07 0.76604 0.64279 3.5353e-07 0.76604 0.64279 3.9885e-07 -0.93969 0.34202 2.4887e-07 -0.93969 0.34202 2.5256e-07 -0.93969 0.34202 3.3809e-07 -0.93969 0.34202 1.6334e-07 -0.5 -0.86603 -5.0718e-07 -0.5 -0.86603 -5.0316e-07 -0.5 -0.86603 -6.0027e-07 -0.5 -0.86603 -4.1007e-07 1 2.9787e-07 6.4503e-08 1 2.937e-07 6.8817e-08 1 3.9438e-07 -3.5267e-08 1 1.9719e-07 1.6859e-07 -0.5 0.86603 6.9665e-07 -0.5 0.86603 7.0091e-07 -0.5 0.86603 5.9823e-07 -0.5 0.86603 7.9934e-07 -0.93969 -0.34202 -1.3333e-07 -0.93969 -0.34202 -1.3976e-07 -0.93969 -0.34202 -2.8862e-07 -0.93969 -0.34202 1.5533e-08 0.76604 -0.64279 -4.2978e-07 0.76604 -0.64279 -4.3694e-07 0.76604 -0.64279 -2.6396e-07 0.76604 -0.64279 -6.0276e-07 -0.49466 0.18004 -0.85024 -0.49466 0.18004 -0.85023 -0.49466 0.18004 -0.85023 -0.49466 0.18004 -0.85024 0.25063 0.21031 0.94496 0.25063 0.21031 0.94496 0.25063 0.21031 0.94496 0.25063 0.21031 0.94496 -0.2632 -0.45588 -0.85023 -0.2632 -0.45588 -0.85023 -0.2632 -0.45588 -0.85023 -0.2632 -0.45588 -0.85023 0.056814 0.32221 0.94496 0.056813 0.32221 0.94496 0.056813 0.32221 0.94496 0.056814 0.32221 0.94496 0.09141 -0.51841 -0.85023 0.09141 -0.51841 -0.85023 0.09141 -0.51841 -0.85023 0.09141 -0.51841 -0.85023 -0.16359 0.28334 0.94496 -0.16359 0.28334 0.94496 -0.16359 0.28334 0.94496 -0.16359 0.28334 0.94496 0.40325 -0.33837 -0.85023 0.40325 -0.33837 -0.85023 0.40325 -0.33837 -0.85023 0.40325 -0.33837 -0.85023 -0.30745 -0.1119 0.94496 -0.30745 -0.1119 0.94496 -0.30745 -0.1119 0.94496 -0.30745 -0.1119 0.94496 -0.30745 0.1119 0.94496 -0.30745 0.1119 0.94496 -0.30745 0.1119 0.94496 -0.30745 0.1119 0.94496 0.13741 -0.77931 -0.61139 0.13741 -0.77931 -0.61139 0.13741 -0.77931 -0.61139 0.13741 -0.77931 -0.61139 -0.73429 0.26726 -0.62401 -0.73429 0.26726 -0.62401 -0.73429 0.26726 -0.62401 -0.73429 0.26726 -0.62401 -0.76054 -0.27681 0.58733 -0.76054 -0.27681 0.58733 -0.76054 -0.27681 0.58733 -0.76054 -0.27681 0.58733 -0.39651 -0.68677 0.60921 -0.39651 -0.68677 0.6092 -0.39651 -0.68677 0.6092 -0.39651 -0.68677 0.60921 -0.75072 0.27324 0.60147 -0.75072 0.27324 0.60147 -0.75072 0.27324 0.60147 -0.75072 0.27324 0.60147 -0.39071 -0.67672 -0.62401 -0.39071 -0.67672 -0.62401 -0.39071 -0.67672 -0.62401 -0.39071 -0.67672 -0.62402 -0.74361 0.27065 -0.61139 -0.74361 0.27065 -0.61139 -0.74361 0.27065 -0.61139 -0.74361 0.27065 -0.61139 -0.39945 -0.69186 0.60147 -0.39945 -0.69186 0.60147 -0.39945 -0.69186 0.60147 -0.39945 -0.69186 0.60147 -0.39651 0.68677 0.6092 -0.39651 0.68677 0.6092 -0.39651 0.68677 0.6092 -0.39651 0.68677 0.6092 -0.39567 -0.68531 -0.61139 -0.39567 -0.68531 -0.61139 -0.39567 -0.68531 -0.61139 -0.39567 -0.68531 -0.61139 -0.39071 0.67672 -0.62401 -0.39071 0.67672 -0.62401 -0.39071 0.67672 -0.62401 -0.39071 0.67672 -0.62401 -0.74519 -0.27123 0.6092 -0.74519 -0.27123 0.6092 -0.74519 -0.27123 0.6092 -0.74519 -0.27123 0.6092 -0.39945 0.69186 0.60147 -0.39945 0.69186 0.60147 -0.39945 0.69186 0.60147 -0.39945 0.69186 0.60147 -0.73429 -0.26726 -0.62401 -0.73429 -0.26726 -0.62401 -0.73429 -0.26726 -0.62401 -0.73429 -0.26726 -0.62401 -0.39567 0.68531 -0.61139 -0.39567 0.68531 -0.61139 -0.39567 0.68531 -0.61139 -0.39567 0.68531 -0.61139 -0.75071 -0.27324 0.60147 -0.75072 -0.27324 0.60147 -0.75071 -0.27324 0.60147 -0.75072 -0.27324 0.60147 0.13771 0.78097 0.6092 0.13771 0.78097 0.6092 0.13771 0.78097 0.6092 0.13771 0.78097 0.6092 -0.74361 -0.27065 -0.61139 -0.74361 -0.27065 -0.61139 -0.74361 -0.27065 -0.61139 -0.74361 -0.27065 -0.61139 0.13569 0.76954 -0.62401 0.13569 0.76954 -0.62401 0.13569 0.76954 -0.62401 0.13569 0.76954 -0.62401 0.13873 0.78676 0.60147 0.13873 0.78676 0.60147 0.13873 0.78676 0.60147 0.13873 0.78676 0.60147 0.13741 0.77931 -0.61139 0.13741 0.77931 -0.61139 0.13741 0.77931 -0.61139 0.13741 0.77931 -0.61139 -0.73629 -0.26799 -0.62134 -0.73629 -0.26799 -0.62134 -0.73629 -0.26799 -0.62134 -0.73629 -0.26799 -0.62134 0.60748 0.50974 0.6092 0.60748 0.50974 0.6092 0.60748 0.50974 0.6092 0.60748 0.50974 0.6092 -0.39177 -0.67856 -0.62134 -0.39177 -0.67856 -0.62134 -0.39177 -0.67856 -0.62134 -0.39177 -0.67856 -0.62134 0.5986 0.50228 -0.62401 0.5986 0.50228 -0.62401 0.5986 0.50228 -0.62401 0.5986 0.50228 -0.62401 0.13606 -0.77163 -0.62134 0.13606 -0.77163 -0.62134 0.13606 -0.77164 -0.62134 0.13606 -0.77163 -0.62134 0.61199 0.51352 0.60147 0.61199 0.51352 0.60147 0.61199 0.51352 0.60147 0.61199 0.51352 0.60147 -0.93959 0.34198 -0.014671 -0.93959 0.34198 -0.014671 -0.93959 0.34198 -0.014671 -0.93959 0.34198 -0.014671 -0.93961 0.34199 -0.013329 -0.93961 0.34199 -0.013329 -0.93961 0.34199 -0.013329 -0.93961 0.34199 -0.013329 -0.49995 0.86593 -0.014671 -0.49995 0.86593 -0.014671 -0.49995 0.86593 -0.014671 -0.49995 0.86593 -0.014671 -0.49996 0.86595 -0.013329 -0.49996 0.86595 -0.013329 -0.49996 0.86595 -0.013329 -0.49996 0.86595 -0.013329 0.17363 0.9847 -0.014671 0.17363 0.9847 -0.014671 0.17363 0.9847 -0.014671 0.17363 0.9847 -0.014671 0.17363 0.98472 -0.013329 0.17363 0.98472 -0.013329 0.17363 0.98472 -0.013329 0.17363 0.98472 -0.013329 0.76596 0.64272 -0.014671 0.76596 0.64272 -0.014671 0.76596 0.64272 -0.014671 0.76596 0.64272 -0.014671 0.76598 0.64273 -0.013329 0.76598 0.64273 -0.013329 0.76598 0.64273 -0.013329 0.76598 0.64273 -0.013329 0.99989 5.0966e-07 -0.014671 0.99989 5.1197e-07 -0.014671 0.99989 5.0935e-07 -0.014671 0.99989 5.0705e-07 -0.014671 0.99991 3.4241e-07 -0.013329 0.99991 3.3808e-07 -0.013329 0.99991 3.8719e-07 -0.013329 0.99991 2.9302e-07 -0.013329 0.76596 -0.64272 -0.014671 0.76596 -0.64272 -0.014671 0.76596 -0.64272 -0.014671 0.76596 -0.64272 -0.014671 0.76598 -0.64273 -0.013329 0.76598 -0.64273 -0.013329 0.76598 -0.64273 -0.013329 0.76598 -0.64273 -0.013329 0.17363 -0.9847 -0.014671 0.17363 -0.9847 -0.014671 0.17363 -0.9847 -0.014671 0.17363 -0.9847 -0.014671 0.17363 -0.98472 -0.013329 0.17363 -0.98472 -0.013329 0.17363 -0.98472 -0.013329 0.17363 -0.98472 -0.013329 -0.49995 -0.86593 -0.014671 -0.49995 -0.86593 -0.014671 -0.49995 -0.86593 -0.014671 -0.49995 -0.86593 -0.014671 -0.49996 -0.86595 -0.013329 -0.49996 -0.86595 -0.013329 -0.49996 -0.86595 -0.013329 -0.49996 -0.86595 -0.013329 -0.93959 -0.34198 -0.014671 -0.93959 -0.34198 -0.014671 -0.93959 -0.34198 -0.014671 -0.93959 -0.34198 -0.014671 -0.93961 -0.34199 -0.013329 -0.93961 -0.34199 -0.013329 -0.93961 -0.34199 -0.013329 -0.93961 -0.34199 -0.013329 -0.93962 -0.34199 -0.012228 -0.93962 -0.34199 -0.012228 -0.93962 -0.34199 -0.012228 -0.93962 -0.34199 -0.012228 -0.49996 -0.86596 -0.012229 -0.49996 -0.86596 -0.012229 -0.49996 -0.86596 -0.012229 -0.49996 -0.86596 -0.012229 0.17364 -0.98473 -0.012228 0.17364 -0.98473 -0.012229 0.17364 -0.98473 -0.012228 0.17364 -0.98473 -0.012228 0.76599 -0.64274 -0.012228 0.76599 -0.64274 -0.012228 0.76599 -0.64274 -0.012228 0.76599 -0.64274 -0.012228 0.99993 4.6152e-07 -0.012228 0.99993 4.5478e-07 -0.012228 0.99993 5.071e-07 -0.012228 0.99993 4.0894e-07 -0.012228 0.76599 0.64274 -0.012228 0.76599 0.64274 -0.012228 0.76599 0.64274 -0.012228 0.76599 0.64274 -0.012228 0.17363 0.98473 -0.012228 0.17363 0.98473 -0.012228 0.17363 0.98473 -0.012228 0.17363 0.98473 -0.012228 -0.49996 0.86596 -0.012228 -0.49996 0.86596 -0.012228 -0.49996 0.86596 -0.012228 -0.49996 0.86596 -0.012228 -0.93962 0.34199 -0.012228 -0.93962 0.34199 -0.012228 -0.93962 0.34199 -0.012228 -0.93962 0.34199 -0.012228 -0.93961 0.34199 -0.013183 -0.93961 0.34199 -0.013183 -0.93961 0.34199 -0.013183 -0.93961 0.34199 -0.013183 -0.40467 -0.70092 0.58733 -0.40467 -0.70092 0.58733 -0.40467 -0.70092 0.58733 -0.40467 -0.70092 0.58733 -0.93961 0.34199 -0.013614 -0.93961 0.34199 -0.013614 -0.93961 0.34199 -0.013614 -0.93961 0.34199 -0.013614 -0.74519 0.27123 0.6092 -0.74519 0.27123 0.6092 -0.74519 0.27123 0.6092 -0.74519 0.27123 0.6092 -0.49996 0.86595 -0.013183 -0.49996 0.86595 -0.013183 -0.49996 0.86595 -0.013183 -0.49996 0.86595 -0.013183 0.13873 -0.78676 0.60147 0.13873 -0.78676 0.60147 0.13873 -0.78676 0.60147 0.13873 -0.78676 0.60147 -0.49995 0.86595 -0.013614 -0.49995 0.86595 -0.013614 -0.49995 0.86595 -0.013614 -0.49995 0.86595 -0.013614 0.14054 -0.79705 0.58733 0.14054 -0.79705 0.58733 0.14054 -0.79705 0.58733 0.14054 -0.79705 0.58733 0.17363 0.98472 -0.013183 0.17363 0.98472 -0.013183 0.17363 0.98472 -0.013183 0.17363 0.98472 -0.013183 0.13569 -0.76954 -0.62402 0.13569 -0.76954 -0.62402 0.13569 -0.76954 -0.62402 0.13569 -0.76954 -0.62402 0.17363 0.98472 -0.013614 0.17363 0.98472 -0.013614 0.17363 0.98472 -0.013614 0.17363 0.98472 -0.013614 0.62 -0.52024 0.58733 0.62 -0.52024 0.58733 0.62 -0.52024 0.58733 0.62 -0.52024 0.58733 0.76598 0.64273 -0.013183 0.76598 0.64273 -0.013183 0.76598 0.64273 -0.013183 0.76598 0.64273 -0.013183 0.13771 -0.78097 0.6092 0.1377 -0.78096 0.60921 0.13771 -0.78097 0.6092 0.1377 -0.78096 0.60921 0.76597 0.64273 -0.013614 0.76597 0.64273 -0.013614 0.76597 0.64273 -0.013614 0.76597 0.64273 -0.013614 0.80935 3.147e-07 0.58733 0.80935 3.2962e-07 0.58733 0.80935 3.134e-07 0.58733 0.80935 3.3132e-07 0.58733 0.99991 3.785e-07 -0.013183 0.99991 3.6812e-07 -0.013183 0.99991 3.181e-07 -0.013183 0.99991 4.2888e-07 -0.013183 0.6062 -0.50866 -0.61139 0.6062 -0.50866 -0.61139 0.6062 -0.50866 -0.61139 0.6062 -0.50866 -0.61139 0.99991 3.2392e-07 -0.013614 0.99991 3.0133e-07 -0.013614 0.99991 2.0703e-07 -0.013614 0.99991 4.1895e-07 -0.013614 0.62 0.52024 0.58733 0.62 0.52024 0.58733 0.62 0.52024 0.58733 0.62 0.52024 0.58733 0.76598 -0.64273 -0.013183 0.76598 -0.64273 -0.013183 0.76598 -0.64273 -0.013183 0.76598 -0.64273 -0.013183 0.61199 -0.51352 0.60147 0.61199 -0.51352 0.60147 0.61199 -0.51352 0.60147 0.61199 -0.51352 0.60147 0.76597 -0.64273 -0.013614 0.76597 -0.64273 -0.013614 0.76597 -0.64273 -0.013614 0.76597 -0.64273 -0.013614 0.14054 0.79705 0.58733 0.14054 0.79705 0.58733 0.14054 0.79705 0.58733 0.14054 0.79705 0.58733 0.17363 -0.98472 -0.013183 0.17363 -0.98472 -0.013183 0.17363 -0.98472 -0.013183 0.17363 -0.98472 -0.013183 0.5986 -0.50228 -0.62402 0.5986 -0.50228 -0.62402 0.5986 -0.50228 -0.62402 0.5986 -0.50228 -0.62402 0.17363 -0.98472 -0.013614 0.17363 -0.98472 -0.013614 0.17363 -0.98472 -0.013614 0.17363 -0.98472 -0.013614 -0.40467 0.70092 0.58733 -0.40468 0.70092 0.58733 -0.40467 0.70092 0.58733 -0.40468 0.70092 0.58733 -0.49996 -0.86595 -0.013183 -0.49996 -0.86595 -0.013183 -0.49996 -0.86595 -0.013183 -0.49996 -0.86595 -0.013183 0.60748 -0.50974 0.6092 0.60748 -0.50974 0.6092 0.60748 -0.50974 0.6092 0.60748 -0.50974 0.6092 -0.49995 -0.86595 -0.013614 -0.49995 -0.86595 -0.013614 -0.49995 -0.86595 -0.013614 -0.49995 -0.86595 -0.013614 -0.76054 0.27681 0.58733 -0.76054 0.27681 0.58733 -0.76054 0.27681 0.58733 -0.76054 0.27681 0.58733 -0.93961 -0.34199 -0.013183 -0.93961 -0.34199 -0.013183 -0.93961 -0.34199 -0.013183 -0.93961 -0.34199 -0.013183 -0.73629 0.26799 -0.62134 -0.73629 0.26799 -0.62134 -0.73629 0.26799 -0.62134 -0.73629 0.26799 -0.62134 -0.93961 -0.34199 -0.013614 -0.93961 -0.34199 -0.013614 -0.93961 -0.34199 -0.013614 -0.93961 -0.34199 -0.013614 0.79133 2.2696e-07 -0.61139 0.79133 1.7038e-07 -0.61139 0.79133 1.6385e-07 -0.61139 0.79133 2.319e-07 -0.61139 -0.39177 0.67856 -0.62134 -0.39177 0.67856 -0.62134 -0.39177 0.67856 -0.62134 -0.39177 0.67856 -0.62134 0.79889 -5.1669e-08 0.60147 0.7989 3.3473e-07 0.60147 0.7989 2.9608e-07 0.60147 0.79889 -8.0991e-08 0.60147 0.13606 0.77163 -0.62134 0.13606 0.77164 -0.62134 0.13606 0.77163 -0.62134 0.13606 0.77164 -0.62134 0.78141 3.0919e-07 -0.62401 0.78141 8.4491e-07 -0.62402 0.78142 2.4859e-07 -0.62401 0.78141 8.9042e-07 -0.62402 0.60022 0.50365 -0.62134 0.60023 0.50365 -0.62134 0.60022 0.50365 -0.62134 0.60023 0.50365 -0.62134 0.79301 3.9784e-07 0.6092 0.79301 3.4586e-07 0.60921 0.79301 4.0217e-07 0.6092 0.79301 3.4014e-07 0.60921 0.78354 3.3772e-07 -0.62134 0.78354 3.2179e-07 -0.62134 0.78354 3.3952e-07 -0.62134 0.78354 3.2044e-07 -0.62134 0.60619 0.50866 -0.61139 0.6062 0.50866 -0.61139 0.60619 0.50866 -0.61139 0.6062 0.50866 -0.61139 0.60023 -0.50365 -0.62134 0.60023 -0.50365 -0.62134 0.60023 -0.50365 -0.62134 0.60023 -0.50365 -0.62134 0.52183 -0.43787 -0.73209 0.52183 -0.43787 -0.73209 0.52183 -0.43787 -0.73209 0.52183 -0.43787 -0.73209 0.11829 0.67086 -0.73209 0.11829 0.67086 -0.73209 0.11829 0.67086 -0.73209 0.11829 0.67086 -0.73209 0.11829 -0.67086 -0.73209 0.11829 -0.67086 -0.73209 0.11829 -0.67086 -0.73209 0.11829 -0.67086 -0.73209 0.52183 0.43787 -0.73209 0.52183 0.43787 -0.73209 0.52183 0.43787 -0.73209 0.52183 0.43787 -0.73209 -0.64012 0.23299 -0.73209 -0.64012 0.23299 -0.73209 -0.64012 0.23299 -0.73209 -0.64012 0.23299 -0.73209 -0.3406 -0.58994 -0.73209 -0.3406 -0.58994 -0.73209 -0.3406 -0.58994 -0.73209 -0.3406 -0.58994 -0.73209 0.68121 1.547e-07 -0.73209 0.68121 5.9698e-08 -0.73209 0.68121 0 -0.73209 0.68121 1.9742e-07 -0.73209 -0.3406 0.58994 -0.73209 -0.3406 0.58994 -0.73209 -0.3406 0.58994 -0.73209 -0.3406 0.58994 -0.73209 1.6859e-07 -4.7529e-16 -1 1.6859e-07 -3.3571e-16 -1 1.6859e-07 -1.6986e-15 -1 1.6859e-07 -5.6984e-16 -1 1.6859e-07 3.2135e-16 -1 1.6859e-07 0 -1 1.6859e-07 3.2658e-16 -1 1.6859e-07 -4.4623e-15 -1 1.6859e-07 0 -1 0.99999 3.4563e-07 -0.0044343 0.99999 3.2905e-07 -0.0044343 0.99999 2.8981e-07 -0.0044343 0.99999 3.8476e-07 -0.0044344 -0.5 0.86602 -0.0044361 -0.5 0.86602 -0.0044361 -0.5 0.86602 -0.0044361 -0.5 0.86602 -0.0044361 -0.93968 -0.34202 -0.0044368 -0.93968 -0.34202 -0.0044368 -0.93968 -0.34202 -0.0044368 -0.93968 -0.34202 -0.0044368 0.76604 -0.64278 -0.0044348 0.76604 -0.64278 -0.0044348 0.76604 -0.64278 -0.0044347 0.76604 -0.64278 -0.0044348 0.17365 0.9848 -0.0044352 0.17365 0.9848 -0.0044353 0.17365 0.9848 -0.0044353 0.17365 0.9848 -0.0044352 0.17365 -0.9848 -0.0044356 0.17365 -0.9848 -0.0044356 0.17365 -0.9848 -0.0044357 0.17365 -0.9848 -0.0044355 0.76604 0.64278 -0.0044345 0.76604 0.64278 -0.0044345 0.76604 0.64278 -0.0044345 0.76604 0.64278 -0.0044345 -0.93968 0.34202 -0.0044366 -0.93968 0.34202 -0.0044366 -0.93968 0.34202 -0.0044366 -0.93968 0.34202 -0.0044367 -0.64012 -0.23299 -0.73209 -0.64012 -0.23299 -0.73209 -0.64012 -0.23299 -0.73209 -0.64012 -0.23299 -0.73209 0.64397 1.5909e-07 0.76505 0.64397 2.3477e-07 0.76505 0.64397 2.4778e-07 0.76505 0.64397 1.4065e-07 0.76505 0.49331 0.41394 0.76505 0.49331 0.41393 0.76505 0.49331 0.41394 0.76505 0.49331 0.41393 0.76505 0.11182 0.63418 0.76505 0.11182 0.63418 0.76505 0.11182 0.63418 0.76505 0.11182 0.63418 0.76505 -0.32198 0.55769 0.76505 -0.32198 0.55769 0.76505 -0.32198 0.55769 0.76505 -0.32198 0.55769 0.76505 -0.60513 0.22025 0.76505 -0.60513 0.22025 0.76505 -0.60513 0.22025 0.76505 -0.60513 0.22025 0.76505 -0.32198 -0.55769 0.76505 -0.32198 -0.55769 0.76505 -0.32198 -0.55769 0.76505 -0.32198 -0.55769 0.76505 0.11182 -0.63418 0.76505 0.11182 -0.63418 0.76505 0.11182 -0.63418 0.76505 0.11182 -0.63418 0.76505 -0.60513 -0.22025 0.76505 -0.60513 -0.22025 0.76505 -0.60513 -0.22025 0.76505 -0.60513 -0.22025 0.76505 -0.5 -0.86602 -0.0044364 -0.5 -0.86602 -0.0044364 -0.5 -0.86602 -0.0044364 -0.5 -0.86602 -0.0044364 0.49331 -0.41393 0.76505 0.49331 -0.41393 0.76505 0.49331 -0.41393 0.76505 0.49331 -0.41393 0.76505 0.57816 0.48514 0.65603 0.57816 0.48514 0.65603 0.57816 0.48514 0.65603 0.57816 0.48513 0.65603 -0.70922 0.25813 0.65603 -0.70922 0.25813 0.65603 -0.70922 0.25813 0.65603 -0.70922 0.25813 0.65603 -0.37737 -0.65362 0.65603 -0.37737 -0.65362 0.65603 -0.37737 -0.65362 0.65603 -0.37737 -0.65362 0.65603 0.75474 -1.0312e-06 0.65603 0.75474 -1.0364e-06 0.65603 0.75474 -1.0374e-06 0.65603 0.75474 -1.0304e-06 0.65603 -0.37737 0.65362 0.65603 -0.37737 0.65362 0.65603 -0.37737 0.65362 0.65603 -0.37737 0.65362 0.65603 -0.70922 -0.25814 0.65603 -0.70922 -0.25814 0.65603 -0.70922 -0.25814 0.65603 -0.70922 -0.25814 0.65603 0.57816 -0.48514 0.65603 0.57816 -0.48514 0.65603 0.57816 -0.48514 0.65603 0.57816 -0.48514 0.65603 0.13106 0.74327 0.65603 0.13106 0.74327 0.65603 0.13106 0.74327 0.65603 0.13106 0.74327 0.65603 -1.2279e-07 -9.6194e-07 1 6.9237e-07 -4.9707e-07 1 -1.6859e-07 -1.2807e-15 1 2.4425e-07 -4.5503e-07 1 1.827e-06 1.3408e-13 1 -2.9606e-07 -8.9887e-07 1 -2.5715e-06 -2.0163e-06 1 -1.6859e-07 5.9606e-16 1 -1.6859e-07 2.6727e-16 1 0.13106 -0.74327 0.65603 0.13106 -0.74327 0.65603 0.13106 -0.74327 0.65603 0.13106 -0.74327 0.65603 -0.93968 -0.34201 -0.0056314 -0.93968 -0.34201 -0.0056315 -0.93968 -0.34201 -0.0056314 -0.93968 -0.34201 -0.0056314 -0.49999 -0.86601 -0.0056315 -0.49999 -0.86601 -0.0056315 -0.49999 -0.86601 -0.0056314 -0.49999 -0.86601 -0.0056316 0.17365 -0.98479 -0.0056315 0.17365 -0.98479 -0.0056316 0.17365 -0.98479 -0.0056315 0.17365 -0.98479 -0.0056314 0.76603 -0.64278 -0.0056314 0.76603 -0.64278 -0.0056314 0.76603 -0.64278 -0.0056313 0.76603 -0.64278 -0.0056315 0.99998 0 -0.0056313 0.99998 0 -0.0056313 0.99998 0 -0.0056313 0.99998 0 -0.0056313 0.76603 0.64278 -0.0056312 0.76603 0.64278 -0.0056312 0.76603 0.64278 -0.0056313 0.76603 0.64278 -0.0056313 0.17365 0.98479 -0.0056315 0.17365 0.98479 -0.0056314 0.17365 0.98479 -0.0056316 0.17365 0.98479 -0.0056314 -0.49999 0.86601 -0.0056314 -0.49999 0.86601 -0.0056315 -0.49999 0.86601 -0.0056313 -0.49999 0.86601 -0.0056311 -0.93968 0.34201 -0.0056313 -0.93968 0.34201 -0.0056313 -0.93968 0.34201 -0.0056313 -0.93968 0.34201 -0.0056313 -5.3809e-05 -0.99999 -0.004433 -5.3811e-05 -0.99999 -0.004433 -5.3811e-05 -0.99999 -0.004433 -5.3809e-05 -0.99999 -0.004433 0.0085926 0.70867 0.70549 0.0085928 0.70867 0.70549 0.0085925 0.70867 0.70549 0.0085929 0.70867 0.70549 0.0085939 -0.70867 0.70549 0.0085939 -0.70867 0.70549 0.0085938 -0.70867 0.70549 0.008594 -0.70867 0.70548 -0.0086313 -0.70554 -0.70862 -0.0086313 -0.70554 -0.70862 -0.0086314 -0.70554 -0.70862 -0.0086313 -0.70554 -0.70862 -0.0086316 0.70554 -0.70862 -0.0086316 0.70554 -0.70862 -0.0086317 0.70554 -0.70862 -0.0086315 0.70554 -0.70862 -0.99993 -1.3208e-07 0.012179 -0.99993 -1.6185e-07 0.012179 -0.99993 -1.28e-07 0.01218 -0.99993 -2.1106e-07 0.01218 -0.99993 -1.8291e-07 0.012179 -0.99993 -2.4375e-07 0.012179 -0.99993 -2.4888e-07 0.01218 -0.99993 -1.7814e-07 0.012179 -0.01218 2.2302e-07 -0.99993 -0.01218 2.2302e-07 -0.99993 -0.01218 2.2302e-07 -0.99993 -0.01218 2.2302e-07 -0.99993 -5.4093e-05 0.99999 -0.0044325 -5.4169e-05 0.99999 -0.0044326 -5.4176e-05 0.99999 -0.0044326 -5.4086e-05 0.99999 -0.0044325 0.99993 1.3559e-07 -0.01218 0.99993 1.4515e-07 -0.01218 0.99993 1.8238e-07 -0.012179 0.99993 1.313e-07 -0.01218 0.99993 1.4279e-07 -0.01218 0.99993 1.3208e-07 -0.012179 0.99993 1.8291e-07 -0.012179 0.99993 1.28e-07 -0.012179 0.01218 -5.9801e-07 0.99993 0.01218 -4.4119e-07 0.99993 0.01218 -6.9351e-07 0.99993 0.01218 -3.457e-07 0.99993</float_array><technique_common><accessor source="#g-n-a" count="1194" stride="3"><param name="X" type="float"/><param name="Y" type="float"/><param name="Z" type="float"/></accessor></technique_common></source>
<vertices id="g-v"><input semantic="POSITION" source="#g-p"/><input semantic="NORMAL" source="#g-n"/></vertices>
<triangles material="m0" count="144"><input semantic="VERTEX" source="#g-v" offset="0"/><p>0 1 2 2 3 0 4 5 6 5 4 7 8 9 10 9 8 11 12 13 14 13 12 15 16 17 18 17 16 19 20 21 22 21 20 23 24 25 26 25 24 27 28 29 30 29 28 31 32 33 34 33 32 35 36 37 38 37 36 39 40 41 42 40 43 41 44 45 46 46 47 44 48 49 50 49 48 51 52 53 54 53 52 55 56 57 58 56 59 57 60 61 62 62 63 60 64 65 66 64 67 65 68 69 70 69 68 71 72 73 74 74 75 72 76 77 78 77 76 79 80 81 82 82 83 80 84 85 86 85 84 87 88 89 90 90 91 88 92 93 94 94 95 92 96 97 98 97 96 99 100 101 102 102 103 100 104 105 106 105 104 107 108 109 110 109 108 111 112 113 114 113 112 115 116 117 118 116 119 117 120 121 122 120 123 121 124 125 126 125 124 127 128 129 130 129 128 131 132 133 134 132 135 133 136 137 138 136 139 137 140 141 142 140 143 141 144 145 146 144 147 145 148 149 150 149 148 151 152 153 154 153 152 155 156 157 158 157 156 159 160 161 162 160 163 161 164 165 166 164 167 165 168 169 170 169 168 171 172 173 174 173 172 175 176 177 178 177 176 179 180 181 182 180 183 181 184 185 186 185 184 187 188 189 190 188 191 189 192 193 194 192 194 195 196 197 198 197 196 199 200 201 202 201 200 203 204 205 206 204 207 205 208 209 210 209 208 211 212 213 214 213 212 215 216 217 218 219 216 218 220 221 222 221 220 223 224 225 226 227 224 226 228 229 230 229 228 231 232 233 234 233 232 235 236 237 238 239 236 238 240 241 242 241 240 243 244 245 246 247 244 246 248 249 250 249 248 251 252 253 254 253 252 255 256 257 258 259 256 258 260 261 262 261 260 263 264 265 266 267 264 266 268 269 270 269 268 271 272 273 274 273 272 275 276 277 278 279 276 278 280 281 282 281 280 283 284 285 286 287 284 286</p></triangles>
<triangles material="m1" count="395"><input semantic="VERTEX" source="#g-v" offset="0"/><p>288 289 290 289 288 291 292 293 294 292 295 293 296 297 298 297 296 299 300 301 302 302 303 300 304 305 306 304 307 305 308 309 310 309 308 311 312 313 314 313 312 315 316 317 318 316 319 317 320 321 322 321 320 323 324 325 326 327 326 325 328 329 330 329 328 331 332 333 334 335 334 333 336 337 338 337 336 339 340 341 342 343 342 341 344 345 346 347 346 345 348 349 350 349 348 351 352 353 354 355 354 353 356 357 358 357 356 359 360 361 362 361 360 363 364 365 366 364 366 367 368 369 370 369 368 371 372 373 374 373 372 375 376 377 378 378 379 376 380 381 382 381 380 383 384 385 386 384 386 387 388 389 390 389 388 391 392 393 394 394 395 392 396 397 398 397 396 399 400 401 402 403 400 402 404 405 406 407 405 404 408 409 410 409 408 411 412 413 414 413 412 415 416 417 418 419 417 416 420 421 422 421 420 423 424 425 426 424 427 425 428 427 424 428 429 427 429 430 431 430 429 428 432 433 434 435 436 433 435 433 432 437 436 435 437 438 436 438 437 439 440 441 442 443 440 442 444 445 446 445 444 447 448 449 450 449 448 451 452 453 454 452 454 455 456 457 458 457 456 459 460 461 462 461 460 463 464 465 466 465 464 467 468 469 470 469 468 471 472 473 474 473 472 475 476 477 478 477 476 479 480 481 482 481 480 483 484 485 486 485 484 487 488 489 490 488 491 489 492 493 494 493 492 495 496 497 498 496 499 497 500 501 502 500 503 501 504 505 506 504 507 505 508 509 510 509 508 511 512 513 514 512 515 513 516 517 518 517 516 519 520 521 522 521 520 523 524 525 526 525 524 527 528 529 530 529 528 531 532 533 534 533 532 535 536 537 538 537 536 539 540 541 542 541 540 543 544 545 546 545 544 547 548 549 550 549 548 551 552 553 554 553 552 555 556 557 558 556 559 557 560 561 562 560 563 561 564 565 566 565 564 567 568 569 570 569 568 571 572 573 574 572 574 575 576 577 578 576 579 577 580 581 582 581 580 583 584 585 586 584 586 587 588 589 590 588 591 589 592 593 594 593 592 595 596 597 598 596 599 597 600 601 602 600 603 601 604 605 606 605 604 607 608 609 610 609 608 611 612 613 614 612 615 613 616 617 618 617 616 619 620 621 622 621 620 623 624 625 626 624 626 627 628 629 630 629 628 631 632 633 634 632 635 633 636 637 638 637 636 639 640 641 642 640 643 641 644 645 646 644 646 647 648 649 650 649 648 651 652 653 654 653 652 655 656 657 658 656 659 657 660 661 662 661 660 663 664 665 666 665 664 667 668 669 670 671 668 670 672 673 674 675 672 674 676 677 678 677 676 679 680 681 682 681 680 683 684 685 686 687 684 686 688 689 690 691 688 690 692 693 694 695 692 694 696 697 698 697 696 699 700 701 702 701 700 703 704 705 706 705 704 707 708 709 710 711 708 710 712 713 714 715 712 714 716 717 718 717 716 719 720 721 722 721 720 723 724 725 726 727 724 726 728 729 730 731 728 730 732 733 734 735 732 734 736 737 738 737 736 739 740 741 742 743 740 742 744 745 746 745 744 747 748 749 750 749 748 751 752 753 754 755 752 754 756 757 758 757 756 759 760 761 762 763 760 762 764 765 766 765 764 767 768 769 770 769 768 771 772 773 774 773 772 775 776 777 778 777 776 779 780 781 782 781 780 783 784 785 786 787 784 786 788 789 790 788 790 791 792 793 794 795 792 794 796 797 798 796 798 799 800 801 802 801 800 803 804 805 806 805 804 807 808 809 810 809 808 811 812 813 814 813 812 815 816 817 818 819 816 818 820 821 822 820 823 821 824 825 826 827 824 826 828 829 830 828 831 829 832 833 834 833 832 835 836 837 838 838 839 836 840 841 842 841 840 843 844 845 846 844 847 845 848 849 850 849 848 851 852 853 854 853 852 855 856 857 858 857 856 859 860 861 862 861 860 863 864 865 866 867 864 866 868 869 870 869 868 871 872 873 874 875 872 874 876 877 878 876 879 877 880 881 882 881 880 883 884 885 886 884 887 885 888 889 890 889 888 891 892 893 894 893 892 895 896 897 898 899 896 898 900 901 902 900 903 901 904 905 906 907 904 906 908 909 910 909 908 911 912 913 914 913 912 915 916 917 918 916 918 919 920 921 922 920 923 921 924 925 926 924 927 925 928 929 930 929 928 931 932 933 934 932 935 933 936 937 938 936 939 937 940 941 942 941 940 943 944 945 946 945 944 947 948 949 950 949 948 951 952 953 954 953 952 955 956 957 958 958 959 956 960 961 962 961 960 963 964 965 966 965 964 967 968 969 970 969 968 971 972 973 974 973 972 975 976 977 978 977 976 979 980 981 982 981 983 984 981 984 985 986 983 987 983 980 988 983 981 980 983 986 984 989 990 991 992 990 989 993 994 995 994 993 996 997 998 999 998 997 1000 1001 1002 1003 1004 1002 1001 1005 1006 1007 1008 1006 1005 1009 1010 1011 1010 1009 1012 1013 1014 1015 1014 1013 1016 1017 1018 1019 1020 1018 1017 1021 1022 1023 1022 1021 1024 1025 1026 1027 1026 1025 1028 1029 1030 1031 1029 1032 1030 1033 1034 1035 1033 1035 1036 1037 1038 1039 1038 1037 1040 1041 1042 1043 1041 1044 1042 1045 1046 1047 1046 1045 1048 1049 1050 1051 1050 1049 1052 1053 1054 1055 1053 1055 1056 1057 1058 1059 1060 1058 1057 1061 1062 1063 1062 1061 1064</p></triangles>
<triangles material="m2" count="25"><input semantic="VERTEX" source="#g-v" offset="0"/><p>1065 1066 1067 1067 1068 1065 1069 1070 1071 1070 1069 1072 1073 1074 1075 1074 1073 1076 1077 1078 1079 1078 1077 1080 1081 1082 1083 1082 1081 1084 1085 1086 1087 1087 1088 1085 1089 1090 1091 1090 1089 1092 1093 1094 1095 1094 1093 1096 1097 1098 1099 1098 1100 1101 1102 1098 1097 1102 1097 1103 1100 1098 1102 1100 1102 1104 1101 1100 1105 1106 1107 1108 1108 1109 1106</p></triangles>
<triangles material="m3" count="46"><input semantic="VERTEX" source="#g-v" offset="0"/><p>1110 1111 1112 1113 1110 1112 1114 1115 1116 1115 1114 1117 1118 1119 1120 1121 1118 1120 1122 1123 1124 1123 1122 1125 1126 1127 1128 1127 1126 1129 1130 1131 1132 1133 1130 1132 1134 1135 1136 1135 1134 1137 1138 1139 1140 1141 1138 1140 1142 1143 1144 1143 1142 1145 1146 1147 1148 1147 1146 1149 1150 1151 1152 1150 1153 1151 1154 1155 1156 1154 1157 1155 1158 1159 1160 1159 1158 1161 1162 1163 1164 1163 1162 1165 1166 1167 1168 1167 1169 1168 1167 1166 1170 1171 1169 1172 1169 1171 1173 1169 1167 1172 1174 1175 1176 1175 1174 1177 1178 1179 1180 1179 1178 1181 1182 1183 1184 1185 1183 1182 1183 1185 1186 1186 1187 1188 1186 1185 1189 1187 1186 1189 1190 1191 1192 1191 1190 1193</p></triangles>
</mesh></geometry></library_geometries><library_visual_scenes><visual_scene id="Scene"><node id="n" name="flashlight"><instance_geometry url="#g"><bind_material><technique_common>
<instance_material symbol="m0" target="#m0"/>
<instance_material symbol="m1" target="#m1"/>
<instance_material symbol="m2" target="#m2"/>
<instance_material symbol="m3" target="#m3"/>
</technique_common></bind_material></instance_geometry></node></visual_scene></library_visual_scenes><scene><instance_visual_scene url="#Scene"/></scene></COLLADA>
