<?xml version="1.0" encoding="utf-8"?>
<COLLADA xmlns="http://www.collada.org/2005/11/COLLADASchema" version="1.4.1">
<asset><contributor><authoring_tool>VATs starter props (see CREDITS.md)</authoring_tool></contributor><unit name="meter" meter="1"/><up_axis>Z_UP</up_axis></asset>
<library_effects>
<effect id="m0-fx"><profile_COMMON><technique sid="common"><lambert><diffuse><color>0.620 0.660 0.710 1</color></diffuse></lambert></technique></profile_COMMON></effect>
<effect id="m1-fx"><profile_COMMON><technique sid="common"><lambert><diffuse><color>0.360 0.390 0.430 1</color></diffuse></lambert></technique></profile_COMMON></effect>
<effect id="m2-fx"><profile_COMMON><technique sid="common"><lambert><diffuse><color>0.200 0.230 0.270 1</color></diffuse></lambert></technique></profile_COMMON></effect>
<effect id="m3-fx"><profile_COMMON><technique sid="common"><lambert><diffuse><color>0.400 0.300 0.230 1</color></diffuse></lambert></technique></profile_COMMON></effect>
<effect id="m4-fx"><profile_COMMON><technique sid="common"><lambert><diffuse><color>0.700 0.760 0.800 1</color></diffuse></lambert></technique></profile_COMMON></effect>
</library_effects><library_materials>
<material id="m0" name="m0"><instance_effect url="#m0-fx"/></material>
<material id="m1" name="m1"><instance_effect url="#m1-fx"/></material>
<material id="m2" name="m2"><instance_effect url="#m2-fx"/></material>
<material id="m3" name="m3"><instance_effect url="#m3-fx"/></material>
<material id="m4" name="m4"><instance_effect url="#m4-fx"/></material>
</library_materials><library_geometries><geometry id="g" name="greatsword"><mesh>
<source id="g-p"><float_array id="g-p-a" count="5715">0 -0.0575 0.1199 -0.0138 -0.0898 0.174 0 -0.0898 0.174 -0.0138 -0.0575 0.1199 -0.0138 -0.1001 0.0803 -0.0138 -0.1001 0.0617 0 -0.1001 0.0617 0 -0.1001 0.0988 -0.0138 -0.1001 0.0988 0.0138 -0.1001 0.0988 0.0138 -0.1001 0.0617 0.0138 -0.06 0.0617 0 -0.1001 0.0617 0 -0.06 0.0617 -0.0138 -0.06 0.0617 0.0138 -0.1001 0.0617 -0.0138 -0.1001 0.0617 0 -0.0045 -0.32 0.004 0 -0.32 0.004 -0.0045 -0.32 0 0 -0.32 -0.004 0 -0.32 -0.004 -0.0045 -0.32 -0.0056 0 -0.32 0 -0.0061 -0.32 -0.004 0.0034 -0.32 0.0196 -0.0295 -0.2583 0.0273 0 -0.2267 0.0193 -0.0323 -0.2267 0.0273 0 -0.2267 0.0196 -0.0295 -0.2583 0.0278 0 -0.2738 -0.0193 -0.0323 -0.2267 -0.0196 -0.0295 -0.2583 0 -0.0376 -0.2583 0 -0.0403 -0.2267 0 -0.0376 -0.2583 0.0193 -0.0323 -0.2267 0 -0.0403 -0.2267 0.0196 -0.0295 -0.2583 -0.0273 0 -0.2267 -0.0278 0 -0.2738 -0.0196 -0.0295 -0.2583 -0.0193 -0.0323 -0.2267 -0.0273 0 -0.2267 -0.0196 -0.0295 -0.2583 0.0138 -0.06 0.0988 0.0138 -0.1001 0.0617 0.0138 -0.06 0.0617 0.0138 -0.1001 0.0988 -0.0138 -0.0989 0.1366 -0.0138 -0.0898 0.174 -0.0138 -0.0575 0.1199 0 -0.0989 0.1366 -0.0138 -0.0898 0.174 -0.0138 -0.0989 0.1366 0 -0.0898 0.174 -0.0057 -0.0238 0.1178 -0.0057 -0.01 0.1178 -0.0138 -0.0138 0.1178 -0.0138 -0.0138 0.1178 -0.0138 -0.06 0.0988 -0.0057 -0.0238 0.1178 0.0195 0 0.1178 0.0057 -0.01 0.1178 0.0138 -0.0138 0.1178 0.0057 0 0.1178 0.0138 -0.06 0.0988 0.0057 -0.0238 0.1178 0 -0.0311 0.1178 0 -0.0311 0.1178 0 -0.06 0.0988 0.0138 -0.06 0.0988 0 -0.0195 0.0438 -0.0138 -0.06 0.0617 -0.0138 -0.0138 0.0438 0 -0.0195 0.0438 0 -0.06 0.0617 -0.0138 -0.06 0.0617 0.0138 -0.0138 0.0438 0.0138 -0.0138 0.1178 -0.0195 0 0.1178 -0.0057 0 0.1178 -0.0138 -0.06 0.0988 -0.0138 -0.0138 0.0808 -0.0138 -0.06 0.0803 -0.0138 -0.0138 0.1178 0 -0.1001 0.0988 -0.0138 -0.0989 0.1366 -0.0138 -0.1001 0.0988 0 -0.0989 0.1366 -0.0138 -0.1001 0.0988 -0.0138 -0.1001 0.0803 -0.0138 -0.06 0.0988 -0.0138 -0.06 0.0988 0 -0.0311 0.1178 -0.0057 -0.0238 0.1178 0.0195 0 0.0438 0.0138 -0.0138 0.1178 0.0138 -0.0138 0.0438 0.0195 0 0.1178 0.0056 0 -0.32 0 -0.06 0.0988 0.0138 -0.0575 0.1199 0.0138 -0.06 0.0988 0 -0.0575 0.1199 -0.0138 -0.0138 0.0808 -0.0195 0 0.1178 -0.0195 0 0.0808 -0.0138 -0.0138 0.1178 0.0138 -0.06 0.0617 0.0138 -0.06 0.0617 0 -0.0195 0.0438 0.0138 -0.0138 0.0438 0.0138 -0.06 0.0988 0.0138 -0.0138 0.1178 0.0057 -0.0238 0.1178 0.0057 -0.0238 0.1178 -0.0138 -0.06 0.0617 -0.0138 -0.0138 0.0438 -0.0138 -0.1001 0.0617 -0.0138 -0.0138 0.0438 -0.0195 0 0.0438 0.0138 -0.0989 0.1366 0.0138 -0.0898 0.174 0.0138 -0.0575 0.1199 0.0138 -0.0898 0.174 0.0138 -0.0989 0.1366 0.0138 -0.1001 0.0988 0.0138 -0.0989 0.1366 -0.0138 -0.06 0.0988 -0.0138 -0.0575 0.1199 0.0138 -0.0575 0.1199 0.0138 -0.0898 0.174 0 -0.0376 -0.2583 0 -0.0061 -0.32 0.004 -0.0045 -0.32 0.0196 -0.0295 -0.2583 -0.0278 0 -0.2738 -0.0056 0 -0.32 -0.004 -0.0045 -0.32 -0.004 -0.0045 -0.32 -0.0196 -0.0295 -0.2583 -0.0278 0 -0.2738 -0.004 -0.0045 -0.32 0 -0.0376 -0.2583 -0.0196 -0.0295 -0.2583 0 -0.0061 -0.32 0.004 -0.0045 -0.32 0.0278 0 -0.2738 0.0196 -0.0295 -0.2583 0.0278 0 -0.2738 0.004 -0.0045 -0.32 0.0056 0 -0.32 0.0273 0 -0.2267 0.0126 -0.0126 -0.207 0.0193 -0.0323 -0.2267 0.0126 -0.0126 -0.207 0.0273 0 -0.2267 0.0178 0 -0.207 0 -0.0178 -0.207 0.0193 -0.0323 -0.2267 0.0126 -0.0126 -0.207 0 -0.0403 -0.2267 -0.0193 -0.0323 -0.2267 0 -0.0403 -0.2267 0 -0.0178 -0.207 -0.0126 -0.0126 -0.207 -0.0273 0 -0.2267 -0.0193 -0.0323 -0.2267 -0.0126 -0.0126 -0.207 -0.0178 0 -0.207 -0.0273 0 -0.2267 -0.0126 -0.0126 -0.207 0 0.0575 0.1199 -0.0138 0.0898 0.174 -0.0138 0.0575 0.1199 0 0.0898 0.174 -0.0138 0.1001 0.0803 0 0.1001 0.0617 -0.0138 0.1001 0.0617 0 0.1001 0.0988 -0.0138 0.1001 0.0988 0.0138 0.1001 0.0988 0.0138 0.1001 0.0617 0.0138 0.06 0.0617 0 0.1001 0.0617 0.0138 0.1001 0.0617 -0.0138 0.06 0.0617 -0.0138 0.1001 0.0617 0 0.06 0.0617 0 0.0045 -0.32 0.004 0.0045 -0.32 -0.004 0.0045 -0.32 0 0.0061 -0.32 -0.004 -0.0034 -0.32 0.0196 0.0295 -0.2583 0.0273 0 -0.2267 0.0278 0 -0.2738 0.0273 0 -0.2267 0.0196 0.0295 -0.2583 0.0193 0.0323 -0.2267 -0.0193 0.0323 -0.2267 0 0.0376 -0.2583 -0.0196 0.0295 -0.2583 0 0.0403 -0.2267 0 0.0376 -0.2583 0.0193 0.0323 -0.2267 0.0196 0.0295 -0.2583 0 0.0403 -0.2267 -0.0278 0 -0.2738 -0.0273 0 -0.2267 -0.0196 0.0295 -0.2583 -0.0196 0.0295 -0.2583 -0.0273 0 -0.2267 -0.0193 0.0323 -0.2267 0.0138 0.06 0.0988 0.0138 0.06 0.0617 0.0138 0.1001 0.0617 0.0138 0.1001 0.0988 -0.0138 0.0989 0.1366 -0.0138 0.0575 0.1199 -0.0138 0.0898 0.174 -0.0138 0.0898 0.174 0 0.0989 0.1366 -0.0138 0.0989 0.1366 0 0.0898 0.174 -0.0057 0.0238 0.1178 -0.0138 0.0138 0.1178 -0.0057 0.01 0.1178 -0.0138 0.0138 0.1178 -0.0057 0.0238 0.1178 -0.0138 0.06 0.0988 0.0138 0.0138 0.1178 0.0057 0.01 0.1178 0.0057 0.0238 0.1178 0.0138 0.06 0.0988 0 0.0311 0.1178 0 0.0311 0.1178 0.0138 0.06 0.0988 0 0.06 0.0988 0 0.06 0.0617 0 0.0195 0.0438 -0.0138 0.06 0.0617 -0.0138 0.0138 0.0438 -0.0138 0.06 0.0617 0 0.0195 0.0438 0.0138 0.0138 0.0438 0.0138 0.0138 0.1178 -0.0138 0.0138 0.0808 -0.0138 0.06 0.0988 -0.0138 0.06 0.0803 -0.0138 0.0138 0.1178 -0.0138 0.0989 0.1366 0 0.1001 0.0988 -0.0138 0.1001 0.0988 0 0.0989 0.1366 -0.0138 0.1001 0.0988 -0.0138 0.1001 0.0803 0 0.0311 0.1178 -0.0138 0.06 0.0988 -0.0057 0.0238 0.1178 -0.0138 0.06 0.0988 0.0138 0.0138 0.1178 0.0195 0 0.0438 0.0138 0.0138 0.0438 0.0195 0 0.1178 0.0138 0.0575 0.1199 0 0.06 0.0988 0.0138 0.06 0.0988 0 0.0575 0.1199 -0.0195 0 0.1178 -0.0138 0.0138 0.0808 -0.0195 0 0.0808 -0.0138 0.0138 0.1178 0.0138 0.06 0.0617 0 0.0195 0.0438 0.0138 0.06 0.0617 0.0138 0.0138 0.0438 0.0138 0.0138 0.1178 0.0138 0.06 0.0988 0.0057 0.0238 0.1178 0.0057 0.0238 0.1178 -0.0138 0.06 0.0617 -0.0138 0.0138 0.0438 -0.0138 0.1001 0.0617 -0.0138 0.0138 0.0438 -0.0195 0 0.0438 0.0138 0.0989 0.1366 0.0138 0.0898 0.174 0.0138 0.0575 0.1199 0.0138 0.0989 0.1366 0.0138 0.0898 0.174 0.0138 0.1001 0.0988 0.0138 0.0989 0.1366 -0.0138 0.0575 0.1199 -0.0138 0.06 0.0988 0.0138 0.0575 0.1199 0.0138 0.0898 0.174 0 0.0376 -0.2583 0.004 0.0045 -0.32 0 0.0061 -0.32 0.0196 0.0295 -0.2583 -0.0278 0 -0.2738 -0.004 0.0045 -0.32 -0.0056 0 -0.32 -0.0196 0.0295 -0.2583 -0.004 0.0045 -0.32 -0.0278 0 -0.2738 -0.004 0.0045 -0.32 0 0.0376 -0.2583 0 0.0061 -0.32 -0.0196 0.0295 -0.2583 0.004 0.0045 -0.32 0.0278 0 -0.2738 0.0056 0 -0.32 0.0278 0 -0.2738 0.004 0.0045 -0.32 0.0196 0.0295 -0.2583 0.0126 0.0126 -0.207 0.0273 0 -0.2267 0.0193 0.0323 -0.2267 0.0273 0 -0.2267 0.0126 0.0126 -0.207 0.0178 0 -0.207 0.0193 0.0323 -0.2267 0 0.0178 -0.207 0.0126 0.0126 -0.207 0 0.0403 -0.2267 -0.0193 0.0323 -0.2267 0 0.0178 -0.207 0 0.0403 -0.2267 -0.0126 0.0126 -0.207 -0.0273 0 -0.2267 -0.0126 0.0126 -0.207 -0.0193 0.0323 -0.2267 -0.0126 0.0126 -0.207 -0.0273 0 -0.2267 -0.0178 0 -0.207 -0.0126 -0.0126 -0.207 -0.0179 0.0006 -0.2019 -0.0178 0 -0.207 -0.0179 0.0006 -0.2019 -0.0126 -0.0126 -0.207 -0.0127 -0.0122 -0.1965 0.0179 0 -0.2019 0.0127 -0.0122 -0.1965 0.0126 -0.0126 -0.207 0.0179 0 -0.2019 0.0126 -0.0126 -0.207 0.0178 0 -0.207 0 -0.0174 -0.1971 -0.0127 -0.0122 -0.1965 -0.0126 -0.0126 -0.207 0 -0.0174 -0.1971 -0.0126 -0.0126 -0.207 0 -0.0178 -0.207 0.0126 -0.0126 -0.207 0 -0.0174 -0.1971 0 -0.0178 -0.207 0 -0.0174 -0.1971 0.0126 -0.0126 -0.207 0.0127 -0.0122 -0.1965 0.0137 -0.0137 -0.0025 0 -0.0195 -0.0064 0.0135 -0.0139 -0.008 0.0137 -0.0137 -0.0025 0 -0.0193 -0.0016 0 -0.0195 -0.0064 0.0134 -0.0108 -0.055 0 -0.0179 -0.0648 0.0132 -0.0125 -0.0635 0.0134 -0.0108 -0.055 0 -0.0168 -0.053 0 -0.0179 -0.0648 0.0131 -0.0137 -0.1073 0 -0.0191 -0.1076 0 -0.018 -0.1115 0.0131 -0.0137 -0.1073 0 -0.018 -0.1115 0.0129 -0.0127 -0.1125 0.0128 -0.0127 -0.1529 0 -0.0178 -0.1514 0 -0.0184 -0.1581 0.0128 -0.0127 -0.1529 0 -0.0184 -0.1581 0.0127 -0.0132 -0.1581 0 -0.0195 -0.0064 -0.0137 -0.0137 -0.0025 -0.0135 -0.0139 -0.008 -0.0137 -0.0137 -0.0025 0 -0.0195 -0.0064 0 -0.0193 -0.0016 0 -0.0179 -0.0648 -0.0134 -0.0108 -0.0552 -0.0132 -0.0125 -0.0635 -0.0134 -0.0108 -0.0552 0 -0.0179 -0.0648 0 -0.0168 -0.053 0 -0.018 -0.1115 -0.0131 -0.0137 -0.1073 -0.0129 -0.0127 -0.1125 -0.0131 -0.0137 -0.1073 0 -0.018 -0.1115 0 -0.0191 -0.1076 0 -0.0184 -0.1581 -0.0128 -0.0127 -0.1529 -0.0127 -0.0132 -0.1581 -0.0128 -0.0127 -0.1529 0 -0.0184 -0.1581 0 -0.0178 -0.1514 0.0193 0 -0.0054 0.0137 -0.0137 -0.0025 0.0135 -0.0139 -0.008 0.0193 0 -0.0054 0.0135 -0.0139 -0.008 0.0191 0 -0.0114 0.0187 0 -0.0605 0.0134 -0.0108 -0.055 0.0132 -0.0125 -0.0635 0.0134 -0.0108 -0.055 0.0187 0 -0.0605 0.0189 0 -0.0549 0.0185 0 -0.1094 0.0129 -0.0127 -0.1125 0.0183 0 -0.1149 0.0185 0 -0.1094 0.0131 -0.0137 -0.1073 0.0129 -0.0127 -0.1125 0.018 0 -0.1566 0.0128 -0.0127 -0.1529 0.0127 -0.0132 -0.1581 0.018 0 -0.1566 0.0127 -0.0132 -0.1581 0.018 0 -0.1643 -0.0138 -0.0138 0.041 -0.0195 0 0.0438 -0.0195 0 0.0367 -0.0195 0 0.0438 -0.0138 -0.0138 0.041 -0.0138 -0.0138 0.0438 -0.0135 -0.0139 -0.008 -0.0193 0 -0.0054 -0.0191 0 -0.0114 -0.0193 0 -0.0054 -0.0135 -0.0139 -0.008 -0.0137 -0.0137 -0.0025 -0.0187 0.0012 -0.0605 -0.0132 -0.0125 -0.0635 -0.0134 -0.0108 -0.0552 -0.0134 -0.0108 -0.0552 -0.0189 0.0004 -0.0549 -0.0187 0.0012 -0.0605 -0.0129 -0.0127 -0.1125 -0.0185 -0.0004 -0.1094 -0.0183 0 -0.1149 -0.0185 -0.0004 -0.1094 -0.0129 -0.0127 -0.1125 -0.0131 -0.0137 -0.1073 0.0195 0 0.0438 0.0138 -0.0138 0.0438 0.0138 -0.0138 0.041 0.0195 0 0.0438 0.0138 -0.0138 0.041 0.0195 0 0.0367 0 -0.0195 0.0438 -0.0138 -0.0138 0.0438 -0.0138 -0.0138 0.041 0 -0.0195 0.041 -0.0127 -0.0132 -0.1581 -0.018 -0.0004 -0.1566 -0.018 -0.0003 -0.1643 -0.018 -0.0004 -0.1566 -0.0127 -0.0132 -0.1581 -0.0128 -0.0127 -0.1529 0.0138 -0.0138 0.041 0 -0.0195 0.0438 0 -0.0195 0.041 0.0138 -0.0138 0.0438 -0.0126 0.0126 -0.207 -0.0179 -0.0006 -0.2019 -0.0127 0.0122 -0.1965 -0.0179 -0.0006 -0.2019 -0.0126 0.0126 -0.207 -0.0178 0 -0.207 0.0126 0.0126 -0.207 0.0179 0 -0.2019 0.0178 0 -0.207 0.0179 0 -0.2019 0.0126 0.0126 -0.207 0.0127 0.0122 -0.1965 -0.0126 0.0126 -0.207 0 0.0174 -0.1971 0 0.0178 -0.207 0 0.0174 -0.1971 -0.0126 0.0126 -0.207 -0.0127 0.0122 -0.1965 0.0126 0.0126 -0.207 0 0.0174 -0.1971 0.0127 0.0122 -0.1965 0 0.0174 -0.1971 0.0126 0.0126 -0.207 0 0.0178 -0.207 0 0.0195 -0.0064 0.0137 0.0137 -0.0025 0.0135 0.0139 -0.008 0.0137 0.0137 -0.0025 0 0.0195 -0.0064 0 0.0193 -0.0016 0 0.0179 -0.0648 0.0134 0.0108 -0.055 0.0132 0.0125 -0.0635 0.0134 0.0108 -0.055 0 0.0179 -0.0648 0 0.0168 -0.053 0 0.018 -0.1115 0.0131 0.0137 -0.1073 0.0129 0.0127 -0.1125 0.0131 0.0137 -0.1073 0 0.018 -0.1115 0 0.0191 -0.1076 0 0.0184 -0.1581 0.0128 0.0127 -0.1529 0.0127 0.0132 -0.1581 0.0128 0.0127 -0.1529 0 0.0184 -0.1581 0 0.0178 -0.1514 0 0.0195 -0.0064 -0.0137 0.0137 -0.0025 0 0.0193 -0.0016 -0.0137 0.0137 -0.0025 0 0.0195 -0.0064 -0.0135 0.0139 -0.008 0 0.0179 -0.0648 -0.0134 0.0108 -0.0552 0 0.0168 -0.053 -0.0134 0.0108 -0.0552 0 0.0179 -0.0648 -0.0132 0.0125 -0.0635 0 0.018 -0.1115 -0.0131 0.0137 -0.1073 0 0.0191 -0.1076 -0.0131 0.0137 -0.1073 0 0.018 -0.1115 -0.0129 0.0127 -0.1125 0 0.0184 -0.1581 -0.0128 0.0127 -0.1529 0 0.0178 -0.1514 -0.0128 0.0127 -0.1529 0 0.0184 -0.1581 -0.0127 0.0132 -0.1581 0.0135 0.0139 -0.008 0.0193 0 -0.0054 0.0191 0 -0.0114 0.0193 0 -0.0054 0.0135 0.0139 -0.008 0.0137 0.0137 -0.0025 0.0134 0.0108 -0.055 0.0187 0 -0.0605 0.0132 0.0125 -0.0635 0.0187 0 -0.0605 0.0134 0.0108 -0.055 0.0189 0 -0.0549 0.0129 0.0127 -0.1125 0.0185 0 -0.1094 0.0183 0 -0.1149 0.0185 0 -0.1094 0.0129 0.0127 -0.1125 0.0131 0.0137 -0.1073 0.0127 0.0132 -0.1581 0.018 0 -0.1566 0.018 0 -0.1643 0.018 0 -0.1566 0.0127 0.0132 -0.1581 0.0128 0.0127 -0.1529 -0.0138 0.0138 0.041 -0.0195 0 0.0438 -0.0138 0.0138 0.0438 -0.0195 0 0.0438 -0.0138 0.0138 0.041 -0.0195 0 0.0367 -0.0135 0.0139 -0.008 -0.0193 0 -0.0054 -0.0137 0.0137 -0.0025 -0.0193 0 -0.0054 -0.0135 0.0139 -0.008 -0.0191 0 -0.0114 -0.0187 -0.0012 -0.0605 -0.0134 0.0108 -0.0552 -0.0132 0.0125 -0.0635 -0.0134 0.0108 -0.0552 -0.0187 -0.0012 -0.0605 -0.0189 -0.0004 -0.0549 -0.0129 0.0127 -0.1125 -0.0185 0.0004 -0.1094 -0.0131 0.0137 -0.1073 -0.0185 0.0004 -0.1094 -0.0129 0.0127 -0.1125 -0.0183 0 -0.1149 0.0138 0.0138 0.041 0.0195 0 0.0438 0.0195 0 0.0367 0.0195 0 0.0438 0.0138 0.0138 0.041 0.0138 0.0138 0.0438 -0.0138 0.0138 0.041 0 0.0195 0.0438 0 0.0195 0.041 -0.0138 0.0138 0.0438 -0.0127 0.0132 -0.1581 -0.018 0.0004 -0.1566 -0.0128 0.0127 -0.1529 -0.018 0.0004 -0.1566 -0.0127 0.0132 -0.1581 -0.018 0.0003 -0.1643 0.0138 0.0138 0.041 0 0.0195 0.0438 0.0138 0.0138 0.0438 0 0.0195 0.041 -0.0127 -0.0122 -0.1965 -0.0214 0.0005 -0.1968 -0.0179 0.0006 -0.2019 -0.0151 -0.0155 -0.192 -0.0214 0.0005 -0.1968 -0.0127 -0.0122 -0.1965 0.0152 -0.0155 -0.1631 0.018 0 -0.1643 0.0127 -0.0132 -0.1581 0.018 0 -0.1643 0.0152 -0.0155 -0.1631 0.0215 0 -0.1677 0.0127 -0.0122 -0.1965 0.0214 0 -0.1968 0.0151 -0.0155 -0.192 0.0214 0 -0.1968 0.0127 -0.0122 -0.1965 0.0179 0 -0.2019 0 -0.0184 -0.1581 -0.0127 -0.0132 -0.1581 0 -0.0224 -0.1649 -0.0152 -0.0155 -0.1631 0 -0.0224 -0.1649 -0.0127 -0.0132 -0.1581 -0.0151 -0.0155 -0.192 -0.0215 -0.0025 -0.1667 -0.0214 0.0005 -0.1968 -0.0215 -0.0025 -0.1667 -0.0151 -0.0155 -0.192 -0.0152 -0.0155 -0.1631 0.0215 0 -0.1677 0.0151 -0.0155 -0.192 0.0214 0 -0.1968 0.0215 0 -0.1677 0.0152 -0.0155 -0.1631 0.0151 -0.0155 -0.192 0 -0.0224 -0.1649 -0.0151 -0.0155 -0.192 0 -0.0216 -0.1929 -0.0152 -0.0155 -0.1631 -0.0151 -0.0155 -0.192 0 -0.0224 -0.1649 0.0151 -0.0155 -0.192 0 -0.0224 -0.1649 0 -0.0216 -0.1929 0 -0.0224 -0.1649 0.0151 -0.0155 -0.192 0.0152 -0.0155 -0.1631 -0.0127 -0.0132 -0.1581 -0.0215 -0.0025 -0.1667 -0.0152 -0.0155 -0.1631 -0.0215 -0.0025 -0.1667 -0.0127 -0.0132 -0.1581 -0.018 -0.0003 -0.1643 0.0127 -0.0122 -0.1965 0 -0.0216 -0.1929 0 -0.0174 -0.1971 0.0151 -0.0155 -0.192 0 -0.0216 -0.1929 0.0127 -0.0122 -0.1965 0.0127 -0.0132 -0.1581 0 -0.0224 -0.1649 0.0152 -0.0155 -0.1631 0 -0.0224 -0.1649 0.0127 -0.0132 -0.1581 0 -0.0184 -0.1581 -0.0127 -0.0122 -0.1965 0 -0.0216 -0.1929 -0.0151 -0.0155 -0.192 0 -0.0216 -0.1929 -0.0127 -0.0122 -0.1965 0 -0.0174 -0.1971 0.0138 -0.0138 0.041 0.0179 -0.0179 0.0345 0.0253 0 0.0302 0.0195 0 0.0367 0.0138 -0.0138 0.041 0.0253 0 0.0302 -0.0137 -0.0137 -0.0025 -0.0251 0 0.0042 -0.0193 0 -0.0054 -0.0251 0 0.0042 -0.0137 -0.0137 -0.0025 -0.0178 -0.0178 0.0071 0.0179 -0.0179 0.0345 0 -0.0253 0.0345 0 -0.0251 0.0111 0.0179 -0.0179 0.0345 0 -0.0251 0.0111 0.0178 -0.0178 0.0071 0 -0.0251 0.0111 -0.0179 -0.0179 0.0345 -0.0178 -0.0178 0.0071 -0.0179 -0.0179 0.0345 0 -0.0251 0.0111 0 -0.0253 0.0345 0.0253 0 0.0302 0.0179 -0.0179 0.0345 0.0178 -0.0178 0.0071 0.0251 0 0.0042 -0.0178 -0.0178 0.0071 -0.0253 0 0.0302 -0.0251 0 0.0042 -0.0179 -0.0179 0.0345 0 -0.0195 0.041 -0.0138 -0.0138 0.041 0 -0.0253 0.0345 -0.0179 -0.0179 0.0345 0.0137 -0.0137 -0.0025 0 -0.0251 0.0111 0 -0.0193 -0.0016 0 -0.0251 0.0111 0.0137 -0.0137 -0.0025 0.0178 -0.0178 0.0071 -0.0137 -0.0137 -0.0025 0 -0.0251 0.0111 -0.0178 -0.0178 0.0071 0 -0.0251 0.0111 -0.0137 -0.0137 -0.0025 0 -0.0193 -0.0016 0.0138 -0.0138 0.041 0 -0.0253 0.0345 0.0179 -0.0179 0.0345 0 -0.0195 0.041 0.0137 -0.0137 -0.0025 0.0251 0 0.0042 0.0178 -0.0178 0.0071 0.0251 0 0.0042 0.0137 -0.0137 -0.0025 0.0193 0 -0.0054 -0.0138 -0.0138 0.041 -0.0253 0 0.0302 -0.0179 -0.0179 0.0345 -0.0253 0 0.0302 -0.0138 -0.0138 0.041 -0.0195 0 0.0367 -0.0134 -0.0108 -0.0552 0 -0.0214 -0.0445 -0.0174 -0.0145 -0.0483 0 -0.0214 -0.0445 -0.0134 -0.0108 -0.0552 0 -0.0168 -0.053 0.0134 -0.0108 -0.055 0 -0.0214 -0.0445 0 -0.0168 -0.053 0.0174 -0.0145 -0.0483 0 -0.0214 -0.0445 0.0134 -0.0108 -0.055 -0.0191 0 -0.0114 -0.0176 -0.0159 -0.0162 -0.0135 -0.0139 -0.008 -0.0248 0 -0.019 -0.0176 -0.0159 -0.0162 -0.0191 0 -0.0114 -0.0174 -0.0145 -0.0483 -0.0189 0.0004 -0.0549 -0.0134 -0.0108 -0.0552 -0.0189 0.0004 -0.0549 -0.0174 -0.0145 -0.0483 -0.0246 -0.0002 -0.0517 0.0176 -0.0159 -0.0162 0 -0.0239 -0.0151 0 -0.0214 -0.0445 0.0176 -0.0159 -0.0162 0 -0.0214 -0.0445 0.0174 -0.0145 -0.0483 0 -0.0214 -0.0445 -0.0176 -0.0159 -0.0162 -0.0174 -0.0145 -0.0483 -0.0176 -0.0159 -0.0162 0 -0.0214 -0.0445 0 -0.0239 -0.0151 0.0248 0 -0.019 0.0174 -0.0145 -0.0483 0.0246 0 -0.0517 0.0176 -0.0159 -0.0162 0.0174 -0.0145 -0.0483 0.0248 0 -0.019 -0.0174 -0.0145 -0.0483 -0.0248 0 -0.019 -0.0246 -0.0002 -0.0517 -0.0248 0 -0.019 -0.0174 -0.0145 -0.0483 -0.0176 -0.0159 -0.0162 -0.0131 -0.0137 -0.1073 -0.024 -0.0003 -0.1034 -0.0185 -0.0004 -0.1094 -0.017 -0.0162 -0.1017 -0.024 -0.0003 -0.1034 -0.0131 -0.0137 -0.1073 0.0187 0 -0.0605 0.0132 -0.0125 -0.0635 0.0243 0 -0.0669 0.0172 -0.0165 -0.0708 0.0243 0 -0.0669 0.0132 -0.0125 -0.0635 -0.0132 -0.0125 -0.0635 -0.0172 -0.0165 -0.0708 0 -0.0223 -0.0753 0 -0.0179 -0.0648 -0.0132 -0.0125 -0.0635 0 -0.0223 -0.0753 0.017 -0.0162 -0.1017 0 -0.0223 -0.0753 0 -0.0232 -0.1021 0 -0.0223 -0.0753 0.017 -0.0162 -0.1017 0.0172 -0.0165 -0.0708 0 -0.0223 -0.0753 -0.0172 -0.0165 -0.0708 -0.017 -0.0162 -0.1017 0 -0.0223 -0.0753 -0.017 -0.0162 -0.1017 0 -0.0232 -0.1021 0.024 0 -0.1034 0.0172 -0.0165 -0.0708 0.017 -0.0162 -0.1017 0.0172 -0.0165 -0.0708 0.024 0 -0.1034 0.0243 0 -0.0669 -0.0172 -0.0165 -0.0708 -0.024 -0.0003 -0.1034 -0.017 -0.0162 -0.1017 -0.0243 0.0011 -0.0669 -0.024 -0.0003 -0.1034 -0.0172 -0.0165 -0.0708 -0.0129 -0.0127 -0.1125 -0.0183 0 -0.1149 -0.0168 -0.0166 -0.1171 -0.0237 0 -0.1202 -0.0166 -0.0164 -0.1478 -0.018 -0.0004 -0.1566 -0.0128 -0.0127 -0.1529 -0.0235 -0.0004 -0.1526 0.0168 -0.0166 -0.1171 0.0183 0 -0.1149 0.0129 -0.0127 -0.1125 0.0237 0 -0.1202 0.0168 -0.0166 -0.1171 0 -0.0217 -0.1438 0.0166 -0.0164 -0.1478 0.0168 -0.0166 -0.1171 0 -0.0228 -0.118 0 -0.0217 -0.1438 0 -0.0217 -0.1438 -0.0168 -0.0166 -0.1171 -0.0166 -0.0164 -0.1478 -0.0168 -0.0166 -0.1171 0 -0.0217 -0.1438 0 -0.0228 -0.118 0.0237 0 -0.1202 0.0166 -0.0164 -0.1478 0.0235 0 -0.1526 0.0237 0 -0.1202 0.0168 -0.0166 -0.1171 0.0166 -0.0164 -0.1478 -0.0166 -0.0164 -0.1478 -0.0237 0 -0.1202 -0.0235 -0.0004 -0.1526 -0.0237 0 -0.1202 -0.0166 -0.0164 -0.1478 -0.0168 -0.0166 -0.1171 0.0135 -0.0139 -0.008 0 -0.0239 -0.0151 0.0176 -0.0159 -0.0162 0 -0.0239 -0.0151 0.0135 -0.0139 -0.008 0 -0.0195 -0.0064 0.0128 -0.0127 -0.1529 0 -0.0217 -0.1438 0 -0.0178 -0.1514 0.0166 -0.0164 -0.1478 0 -0.0217 -0.1438 0.0128 -0.0127 -0.1529 0.0134 -0.0108 -0.055 0.0189 0 -0.0549 0.0174 -0.0145 -0.0483 0.0174 -0.0145 -0.0483 0.0189 0 -0.0549 0.0246 0 -0.0517 -0.0132 -0.0125 -0.0635 -0.0243 0.0011 -0.0669 -0.0172 -0.0165 -0.0708 -0.0243 0.0011 -0.0669 -0.0132 -0.0125 -0.0635 -0.0187 0.0012 -0.0605 -0.0128 -0.0127 -0.1529 0 -0.0217 -0.1438 -0.0166 -0.0164 -0.1478 0 -0.0217 -0.1438 -0.0128 -0.0127 -0.1529 0 -0.0178 -0.1514 0.0131 -0.0137 -0.1073 0 -0.0232 -0.1021 0 -0.0191 -0.1076 0.017 -0.0162 -0.1017 0.0129 -0.0127 -0.1125 0 -0.0228 -0.118 0.0168 -0.0166 -0.1171 0 -0.0228 -0.118 0.0129 -0.0127 -0.1125 0 -0.018 -0.1115 0 -0.0195 -0.0064 -0.0135 -0.0139 -0.008 0 -0.0239 -0.0151 -0.0176 -0.0159 -0.0162 0 -0.0239 -0.0151 -0.0135 -0.0139 -0.008 0.0128 -0.0127 -0.1529 0.018 0 -0.1566 0.0166 -0.0164 -0.1478 0.0166 -0.0164 -0.1478 0.018 0 -0.1566 0.0235 0 -0.1526 -0.0131 -0.0137 -0.1073 0 -0.0232 -0.1021 -0.017 -0.0162 -0.1017 0 -0.0191 -0.1076 0.0176 -0.0159 -0.0162 0.0191 0 -0.0114 0.0135 -0.0139 -0.008 0.0191 0 -0.0114 0.0176 -0.0159 -0.0162 0.0248 0 -0.019 0.0132 -0.0125 -0.0635 0 -0.0223 -0.0753 0.0172 -0.0165 -0.0708 0 -0.0223 -0.0753 0.0132 -0.0125 -0.0635 0 -0.0179 -0.0648 0.0131 -0.0137 -0.1073 0.024 0 -0.1034 0.017 -0.0162 -0.1017 0.024 0 -0.1034 0.0131 -0.0137 -0.1073 0.0185 0 -0.1094 0 -0.018 -0.1115 -0.0129 -0.0127 -0.1125 0 -0.0228 -0.118 -0.0168 -0.0166 -0.1171 0 -0.0228 -0.118 -0.0129 -0.0127 -0.1125 -0.0214 -0.0005 -0.1968 -0.0127 0.0122 -0.1965 -0.0179 -0.0006 -0.2019 -0.0214 -0.0005 -0.1968 -0.0151 0.0155 -0.192 -0.0127 0.0122 -0.1965 0.0152 0.0155 -0.1631 0.018 0 -0.1643 0.0215 0 -0.1677 0.018 0 -0.1643 0.0152 0.0155 -0.1631 0.0127 0.0132 -0.1581 0.0127 0.0122 -0.1965 0.0214 0 -0.1968 0.0179 0 -0.2019 0.0214 0 -0.1968 0.0127 0.0122 -0.1965 0.0151 0.0155 -0.192 -0.0127 0.0132 -0.1581 0 0.0184 -0.1581 0 0.0224 -0.1649 -0.0127 0.0132 -0.1581 0 0.0224 -0.1649 -0.0152 0.0155 -0.1631 -0.0215 0.0025 -0.1667 -0.0151 0.0155 -0.192 -0.0214 -0.0005 -0.1968 -0.0151 0.0155 -0.192 -0.0215 0.0025 -0.1667 -0.0152 0.0155 -0.1631 0.0151 0.0155 -0.192 0.0215 0 -0.1677 0.0214 0 -0.1968 0.0215 0 -0.1677 0.0151 0.0155 -0.192 0.0152 0.0155 -0.1631 -0.0151 0.0155 -0.192 0 0.0224 -0.1649 0 0.0216 -0.1929 0 0.0224 -0.1649 -0.0151 0.0155 -0.192 -0.0152 0.0155 -0.1631 0.0151 0.0155 -0.192 0 0.0224 -0.1649 0.0152 0.0155 -0.1631 0 0.0224 -0.1649 0.0151 0.0155 -0.192 0 0.0216 -0.1929 -0.0127 0.0132 -0.1581 -0.0215 0.0025 -0.1667 -0.018 0.0003 -0.1643 -0.0215 0.0025 -0.1667 -0.0127 0.0132 -0.1581 -0.0152 0.0155 -0.1631 0 0.0216 -0.1929 0.0127 0.0122 -0.1965 0 0.0174 -0.1971 0 0.0216 -0.1929 0.0151 0.0155 -0.192 0.0127 0.0122 -0.1965 0 0.0224 -0.1649 0.0127 0.0132 -0.1581 0.0152 0.0155 -0.1631 0.0127 0.0132 -0.1581 0 0.0224 -0.1649 0 0.0184 -0.1581 -0.0127 0.0122 -0.1965 0 0.0216 -0.1929 0 0.0174 -0.1971 0 0.0216 -0.1929 -0.0127 0.0122 -0.1965 -0.0151 0.0155 -0.192 0.0138 0.0138 0.041 0.0253 0 0.0302 0.0179 0.0179 0.0345 0.0253 0 0.0302 0.0138 0.0138 0.041 0.0195 0 0.0367 -0.0251 0 0.0042 -0.0178 0.0178 0.0071 -0.0137 0.0137 -0.0025 -0.0251 0 0.0042 -0.0137 0.0137 -0.0025 -0.0193 0 -0.0054 0 0.0251 0.0111 0.0179 0.0179 0.0345 0.0178 0.0178 0.0071 0.0179 0.0179 0.0345 0 0.0251 0.0111 0 0.0253 0.0345 0 0.0251 0.0111 -0.0179 0.0179 0.0345 0 0.0253 0.0345 -0.0179 0.0179 0.0345 0 0.0251 0.0111 -0.0178 0.0178 0.0071 0.0178 0.0178 0.0071 0.0253 0 0.0302 0.0251 0 0.0042 0.0179 0.0179 0.0345 -0.0178 0.0178 0.0071 -0.0253 0 0.0302 -0.0179 0.0179 0.0345 -0.0251 0 0.0042 -0.0138 0.0138 0.041 0 0.0195 0.041 0 0.0253 0.0345 -0.0179 0.0179 0.0345 0 0.0251 0.0111 0.0137 0.0137 -0.0025 0 0.0193 -0.0016 0 0.0251 0.0111 0.0178 0.0178 0.0071 0.0137 0.0137 -0.0025 -0.0137 0.0137 -0.0025 0 0.0251 0.0111 0 0.0193 -0.0016 0 0.0251 0.0111 -0.0137 0.0137 -0.0025 -0.0178 0.0178 0.0071 0 0.0253 0.0345 0.0138 0.0138 0.041 0.0179 0.0179 0.0345 0 0.0195 0.041 0.0137 0.0137 -0.0025 0.0251 0 0.0042 0.0193 0 -0.0054 0.0251 0 0.0042 0.0137 0.0137 -0.0025 0.0178 0.0178 0.0071 -0.0253 0 0.0302 -0.0138 0.0138 0.041 -0.0179 0.0179 0.0345 -0.0138 0.0138 0.041 -0.0253 0 0.0302 -0.0195 0 0.0367 -0.0134 0.0108 -0.0552 0 0.0214 -0.0445 0 0.0168 -0.053 0 0.0214 -0.0445 -0.0134 0.0108 -0.0552 -0.0174 0.0145 -0.0483 0 0.0214 -0.0445 0.0134 0.0108 -0.055 0 0.0168 -0.053 0 0.0214 -0.0445 0.0174 0.0145 -0.0483 0.0134 0.0108 -0.055 -0.0191 0 -0.0114 -0.0176 0.0159 -0.0162 -0.0248 0 -0.019 -0.0191 0 -0.0114 -0.0135 0.0139 -0.008 -0.0176 0.0159 -0.0162 -0.0174 0.0145 -0.0483 -0.0189 -0.0004 -0.0549 -0.0246 0.0002 -0.0517 -0.0189 -0.0004 -0.0549 -0.0174 0.0145 -0.0483 -0.0134 0.0108 -0.0552 0 0.0214 -0.0445 0.0176 0.0159 -0.0162 0.0174 0.0145 -0.0483 0.0176 0.0159 -0.0162 0 0.0214 -0.0445 0 0.0239 -0.0151 0 0.0214 -0.0445 -0.0176 0.0159 -0.0162 0 0.0239 -0.0151 -0.0176 0.0159 -0.0162 0 0.0214 -0.0445 -0.0174 0.0145 -0.0483 0.0174 0.0145 -0.0483 0.0248 0 -0.019 0.0246 0 -0.0517 0.0248 0 -0.019 0.0174 0.0145 -0.0483 0.0176 0.0159 -0.0162 -0.0174 0.0145 -0.0483 -0.0248 0 -0.019 -0.0176 0.0159 -0.0162 -0.0248 0 -0.019 -0.0174 0.0145 -0.0483 -0.0246 0.0002 -0.0517 -0.024 0.0003 -0.1034 -0.0131 0.0137 -0.1073 -0.0185 0.0004 -0.1094 -0.024 0.0003 -0.1034 -0.017 0.0162 -0.1017 -0.0131 0.0137 -0.1073 0.0132 0.0125 -0.0635 0.0243 0 -0.0669 0.0172 0.0165 -0.0708 0.0132 0.0125 -0.0635 0.0187 0 -0.0605 0.0243 0 -0.0669 -0.0132 0.0125 -0.0635 0 0.0223 -0.0753 -0.0172 0.0165 -0.0708 0 0.0223 -0.0753 -0.0132 0.0125 -0.0635 0 0.0179 -0.0648 0.017 0.0162 -0.1017 0 0.0223 -0.0753 0.0172 0.0165 -0.0708 0 0.0223 -0.0753 0.017 0.0162 -0.1017 0 0.0232 -0.1021 -0.017 0.0162 -0.1017 0 0.0223 -0.0753 0 0.0232 -0.1021 0 0.0223 -0.0753 -0.017 0.0162 -0.1017 -0.0172 0.0165 -0.0708 0.024 0 -0.1034 0.0172 0.0165 -0.0708 0.0243 0 -0.0669 0.0172 0.0165 -0.0708 0.024 0 -0.1034 0.017 0.0162 -0.1017 -0.024 0.0003 -0.1034 -0.0172 0.0165 -0.0708 -0.017 0.0162 -0.1017 -0.0172 0.0165 -0.0708 -0.024 0.0003 -0.1034 -0.0243 -0.0011 -0.0669 -0.0168 0.0166 -0.1171 -0.0183 0 -0.1149 -0.0129 0.0127 -0.1125 -0.0237 0 -0.1202 -0.0166 0.0164 -0.1478 -0.018 0.0004 -0.1566 -0.0235 0.0004 -0.1526 -0.0128 0.0127 -0.1529 0.0168 0.0166 -0.1171 0.0183 0 -0.1149 0.0237 0 -0.1202 0.0129 0.0127 -0.1125 0 0.0217 -0.1438 0.0168 0.0166 -0.1171 0.0166 0.0164 -0.1478 0.0168 0.0166 -0.1171 0 0.0217 -0.1438 0 0.0228 -0.118 0 0.0217 -0.1438 -0.0168 0.0166 -0.1171 0 0.0228 -0.118 -0.0168 0.0166 -0.1171 0 0.0217 -0.1438 -0.0166 0.0164 -0.1478 0.0166 0.0164 -0.1478 0.0237 0 -0.1202 0.0235 0 -0.1526 0.0237 0 -0.1202 0.0166 0.0164 -0.1478 0.0168 0.0166 -0.1171 -0.0166 0.0164 -0.1478 -0.0237 0 -0.1202 -0.0168 0.0166 -0.1171 -0.0237 0 -0.1202 -0.0166 0.0164 -0.1478 -0.0235 0.0004 -0.1526 0 0.0239 -0.0151 0.0135 0.0139 -0.008 0.0176 0.0159 -0.0162 0.0135 0.0139 -0.008 0 0.0239 -0.0151 0 0.0195 -0.0064 0 0.0217 -0.1438 0.0166 0.0164 -0.1478 0.0128 0.0127 -0.1529 0 0.0217 -0.1438 0.0128 0.0127 -0.1529 0 0.0178 -0.1514 0.0174 0.0145 -0.0483 0.0189 0 -0.0549 0.0134 0.0108 -0.055 0.0174 0.0145 -0.0483 0.0246 0 -0.0517 0.0189 0 -0.0549 -0.0243 -0.0011 -0.0669 -0.0132 0.0125 -0.0635 -0.0172 0.0165 -0.0708 -0.0132 0.0125 -0.0635 -0.0243 -0.0011 -0.0669 -0.0187 -0.0012 -0.0605 -0.0128 0.0127 -0.1529 0 0.0217 -0.1438 0 0.0178 -0.1514 0 0.0217 -0.1438 -0.0128 0.0127 -0.1529 -0.0166 0.0164 -0.1478 0 0.0232 -0.1021 0.0131 0.0137 -0.1073 0 0.0191 -0.1076 0.017 0.0162 -0.1017 0 0.0228 -0.118 0.0129 0.0127 -0.1125 0.0168 0.0166 -0.1171 0.0129 0.0127 -0.1125 0 0.0228 -0.118 0 0.018 -0.1115 -0.0135 0.0139 -0.008 0 0.0195 -0.0064 0 0.0239 -0.0151 -0.0135 0.0139 -0.008 0 0.0239 -0.0151 -0.0176 0.0159 -0.0162 0.0166 0.0164 -0.1478 0.0235 0 -0.1526 0.018 0 -0.1566 0.0166 0.0164 -0.1478 0.018 0 -0.1566 0.0128 0.0127 -0.1529 -0.0131 0.0137 -0.1073 0 0.0232 -0.1021 0 0.0191 -0.1076 -0.017 0.0162 -0.1017 0.0176 0.0159 -0.0162 0.0191 0 -0.0114 0.0248 0 -0.019 0.0191 0 -0.0114 0.0176 0.0159 -0.0162 0.0135 0.0139 -0.008 0 0.0223 -0.0753 0.0132 0.0125 -0.0635 0.0172 0.0165 -0.0708 0.0132 0.0125 -0.0635 0 0.0223 -0.0753 0 0.0179 -0.0648 0.0131 0.0137 -0.1073 0.024 0 -0.1034 0.0185 0 -0.1094 0.024 0 -0.1034 0.0131 0.0137 -0.1073 0.017 0.0162 -0.1017 -0.0129 0.0127 -0.1125 0 0.0228 -0.118 -0.0168 0.0166 -0.1171 -0.0129 0.0127 -0.1125 0 0.018 -0.1115 0 0.0228 -0.118 -0.0057 -0.0356 0.2268 0 -0.0429 0.2268 0 -0.0361 0.2444 -0.0057 -0.0288 0.2444 0.0057 -0.0356 0.2268 0 -0.0361 0.2444 0 -0.0429 0.2268 0.0057 -0.0288 0.2444 0 -0.036 0.1943 -0.0057 -0.0356 0.2268 -0.0057 -0.0287 0.1943 0 -0.0429 0.2268 0 -0.036 0.1943 0.0057 -0.0287 0.1943 0.0057 -0.0356 0.2268 0 -0.0429 0.2268 -0.0057 -0.0287 0.1943 -0.0057 -0.0433 0.1639 0 -0.036 0.1943 0 -0.0506 0.1639 0.0057 -0.0433 0.1639 0 -0.036 0.1943 0 -0.0506 0.1639 0.0057 -0.0287 0.1943 0 -0.0311 0.1178 -0.0057 -0.0433 0.1639 -0.0057 -0.0238 0.1178 0 -0.0506 0.1639 0 -0.0506 0.1639 0 -0.0311 0.1178 0.0057 -0.0433 0.1639 0.0057 -0.0238 0.1178 0.0057 -0.0288 0.2444 0 -0.0279 0.3357 0 -0.0361 0.2444 0.0057 -0.0206 0.3357 -0.0057 -0.0206 0.3357 -0.0057 -0.0288 0.2444 0 -0.0279 0.3357 0 -0.0361 0.2444 0 -0.0311 0.8693 -0.0057 -0.0238 0.8458 0 -0.0311 0.8458 -0.0057 -0.0238 0.8693 0 -0.0215 0.8223 -0.0057 -0.0238 0.8458 -0.0057 -0.0142 0.8223 0 -0.0311 0.8458 -0.0057 -0.0142 0.8223 -0.0057 -0.0238 0.7988 0 -0.0215 0.8223 0 -0.0311 0.7988 0 -0.0279 0.7753 -0.0057 -0.0238 0.7988 -0.0057 -0.0206 0.7753 0 -0.0311 0.7988 -0.0057 -0.0238 0.6967 0 -0.0311 0.6967 0 -0.0279 0.7753 -0.0057 -0.0206 0.7753 0 -0.0311 0.6967 -0.0057 -0.0238 0.6574 0 -0.0311 0.6574 -0.0057 -0.0238 0.6967 0.0057 -0.0238 0.8693 0 -0.0311 0.8458 0.0057 -0.0238 0.8458 0 -0.0311 0.8693 0 -0.0311 0.8458 0 -0.0215 0.8223 0.0057 -0.0238 0.8458 0.0057 -0.0142 0.8223 0.0057 -0.0238 0.7988 0 -0.0215 0.8223 0 -0.0311 0.7988 0.0057 -0.0142 0.8223 0 -0.0279 0.7753 0.0057 -0.0206 0.7753 0.0057 -0.0238 0.7988 0 -0.0311 0.7988 0.0057 -0.0238 0.6967 0 -0.0279 0.7753 0 -0.0311 0.6967 0.0057 -0.0206 0.7753 0.0057 -0.0238 0.6967 0 -0.0311 0.6574 0.0057 -0.0238 0.6574 0 -0.0311 0.6967 0 -0.0238 0.9656 0 -0.0311 0.9381 0.0057 -0.0209 0.9486 -0.0057 -0.0209 0.9486 0 -0.0311 0.9381 0 -0.0238 0.9656 0.0001 0 1.03 0 -0.011 1.0046 0.0057 0 1.006 0.0057 -0.01 0.9867 0.0057 0 1.006 0 -0.011 1.0046 0 -0.0238 0.9656 0.0057 -0.01 0.9867 0 -0.011 1.0046 0.0057 -0.01 0.9867 0 -0.0238 0.9656 0.0057 -0.0209 0.9486 -0.0057 -0.01 0.9867 -0.0057 -0.0209 0.9486 0 -0.0238 0.9656 0 -0.0238 0.9656 0 -0.011 1.0046 -0.0057 -0.01 0.9867 0.0057 -0.0316 0.6434 0.0057 -0.0238 0.6574 0 -0.0311 0.6574 0.0057 -0.0316 0.6434 0 -0.0311 0.6574 0 -0.0367 0.6437 0 -0.0311 0.6574 -0.0057 -0.0316 0.6434 0 -0.0367 0.6437 -0.0057 -0.0316 0.6434 0 -0.0311 0.6574 -0.0057 -0.0238 0.6574 0 -0.0233 0.6253 0.0057 -0.0316 0.6434 0 -0.0367 0.6437 0.0057 -0.0316 0.6434 0 -0.0233 0.6253 0.0057 -0.0166 0.624 0 -0.0233 0.6253 -0.0057 -0.0316 0.6434 -0.0057 -0.0166 0.624 -0.0057 -0.0316 0.6434 0 -0.0233 0.6253 0 -0.0367 0.6437 0 -0.011 1.0046 0.0001 0 1.03 -0.0057 0 1.006 -0.0057 0 1.006 -0.0057 -0.01 0.9867 0 -0.011 1.0046 0 -0.0311 0.9381 0.0057 -0.0238 0.8693 0.0057 -0.0209 0.9486 0 -0.0311 0.9381 0 -0.0311 0.9381 -0.0057 -0.0209 0.9486 -0.0057 -0.0238 0.8693 0 -0.0311 0.9381 0.0057 -0.0279 0.6047 0.0057 -0.0166 0.624 0 -0.0233 0.6253 0.0057 -0.0279 0.6047 0 -0.0233 0.6253 0 -0.0336 0.603 0 -0.0233 0.6253 -0.0057 -0.0279 0.6047 0 -0.0336 0.603 -0.0057 -0.0279 0.6047 0 -0.0233 0.6253 -0.0057 -0.0166 0.624 0.0057 -0.0279 0.6047 0 -0.019 0.5844 0.0057 -0.0132 0.5858 0 -0.019 0.5844 0.0057 -0.0279 0.6047 0 -0.0336 0.603 0 -0.019 0.5844 0 -0.0336 0.603 -0.0057 -0.0279 0.6047 0 -0.019 0.5844 -0.0057 -0.0279 0.6047 -0.0057 -0.0132 0.5858 0 -0.0279 0.3357 -0.0057 -0.0238 0.571 -0.0057 -0.0206 0.3357 0 -0.0311 0.571 0 -0.0279 0.3357 0.0057 -0.0206 0.3357 0.0057 -0.0238 0.571 0 -0.0311 0.571 0 -0.019 0.5844 -0.0057 -0.0238 0.571 0 -0.0311 0.571 -0.0057 -0.0238 0.571 0 -0.019 0.5844 -0.0057 -0.0132 0.5858 0.0057 -0.0238 0.571 0.0057 -0.0132 0.5858 0 -0.019 0.5844 0.0057 -0.0238 0.571 0 -0.019 0.5844 0 -0.0311 0.571 -0.0057 0.0356 0.2268 0 0.0361 0.2444 0 0.0429 0.2268 -0.0057 0.0288 0.2444 0 0.0361 0.2444 0.0057 0.0356 0.2268 0 0.0429 0.2268 0.0057 0.0288 0.2444 -0.0057 0.0356 0.2268 0 0.036 0.1943 -0.0057 0.0287 0.1943 0 0.0429 0.2268 0 0.036 0.1943 0.0057 0.0356 0.2268 0.0057 0.0287 0.1943 0 0.0429 0.2268 -0.0057 0.0433 0.1639 0 0.036 0.1943 0 0.0506 0.1639 -0.0057 0.0287 0.1943 0 0.036 0.1943 0.0057 0.0433 0.1639 0 0.0506 0.1639 0.0057 0.0287 0.1943 -0.0057 0.0433 0.1639 0 0.0311 0.1178 -0.0057 0.0238 0.1178 0 0.0506 0.1639 0 0.0311 0.1178 0.0057 0.0433 0.1639 0.0057 0.0238 0.1178 0 0.0506 0.1639 0 0.0279 0.3357 0.0057 0.0288 0.2444 0 0.0361 0.2444 0.0057 0.0206 0.3357 -0.0057 0.0288 0.2444 0 0.0279 0.3357 0 0.0361 0.2444 -0.0057 0.0206 0.3357 -0.0057 0.0238 0.8458 0 0.0311 0.8693 0 0.0311 0.8458 -0.0057 0.0238 0.8693 -0.0057 0.0238 0.8458 0 0.0215 0.8223 -0.0057 0.0142 0.8223 0 0.0311 0.8458 -0.0057 0.0238 0.7988 0 0.0215 0.8223 0 0.0311 0.7988 -0.0057 0.0142 0.8223 -0.0057 0.0238 0.7988 0 0.0279 0.7753 -0.0057 0.0206 0.7753 0 0.0311 0.7988 -0.0057 0.0238 0.6967 0 0.0279 0.7753 0 0.0311 0.6967 -0.0057 0.0206 0.7753 -0.0057 0.0238 0.6574 0 0.0311 0.6967 0 0.0311 0.6574 -0.0057 0.0238 0.6967 0 0.0311 0.8458 0.0057 0.0238 0.8693 0.0057 0.0238 0.8458 0 0.0311 0.8693 0 0.0215 0.8223 0.0057 0.0238 0.8458 0.0057 0.0142 0.8223 0 0.0311 0.8458 0 0.0215 0.8223 0.0057 0.0238 0.7988 0 0.0311 0.7988 0.0057 0.0142 0.8223 0 0.0279 0.7753 0.0057 0.0238 0.7988 0.0057 0.0206 0.7753 0 0.0311 0.7988 0 0.0279 0.7753 0.0057 0.0238 0.6967 0 0.0311 0.6967 0.0057 0.0206 0.7753 0 0.0311 0.6574 0.0057 0.0238 0.6967 0.0057 0.0238 0.6574 0 0.0311 0.6967 0 0.0238 0.9656 0.0057 0.0209 0.9486 0 0.0311 0.9381 -0.0057 0.0209 0.9486 0 0.0238 0.9656 0 0.0311 0.9381 0 0.011 1.0046 0.0001 0 1.03 0.0057 0 1.006 0.0057 0 1.006 0.0057 0.01 0.9867 0 0.011 1.0046 0.0057 0.01 0.9867 0.0057 0.0209 0.9486 0 0.0238 0.9656 0 0.0238 0.9656 0 0.011 1.0046 0.0057 0.01 0.9867 -0.0057 0.0209 0.9486 -0.0057 0.01 0.9867 0 0.0238 0.9656 0 0.011 1.0046 0 0.0238 0.9656 -0.0057 0.01 0.9867 0.0057 0.0238 0.6574 0.0057 0.0316 0.6434 0 0.0311 0.6574 0 0.0367 0.6437 0 0.0311 0.6574 0.0057 0.0316 0.6434 -0.0057 0.0316 0.6434 0 0.0311 0.6574 0 0.0367 0.6437 0 0.0311 0.6574 -0.0057 0.0316 0.6434 -0.0057 0.0238 0.6574 0 0.0233 0.6253 0.0057 0.0316 0.6434 0.0057 0.0166 0.624 0.0057 0.0316 0.6434 0 0.0233 0.6253 0 0.0367 0.6437 -0.0057 0.0316 0.6434 0 0.0233 0.6253 -0.0057 0.0166 0.624 0 0.0367 0.6437 0 0.0233 0.6253 -0.0057 0.0316 0.6434 -0.0057 0 1.006 0 0.011 1.0046 -0.0057 0.01 0.9867 0 0.011 1.0046 -0.0057 0 1.006 0.0001 0 1.03 0.0057 0.0238 0.8693 0 0.0311 0.9381 0.0057 0.0209 0.9486 0 0.0311 0.9381 -0.0057 0.0238 0.8693 -0.0057 0.0209 0.9486 0 0.0311 0.9381 0 0.0311 0.9381 0.0057 0.0166 0.624 0.0057 0.0279 0.6047 0 0.0233 0.6253 0 0.0336 0.603 0 0.0233 0.6253 0.0057 0.0279 0.6047 -0.0057 0.0279 0.6047 0 0.0233 0.6253 0 0.0336 0.603 0 0.0233 0.6253 -0.0057 0.0279 0.6047 -0.0057 0.0166 0.624 0 0.019 0.5844 0.0057 0.0279 0.6047 0.0057 0.0132 0.5858 0.0057 0.0279 0.6047 0 0.019 0.5844 0 0.0336 0.603 0 0.0336 0.603 0 0.019 0.5844 -0.0057 0.0279 0.6047 -0.0057 0.0132 0.5858 -0.0057 0.0279 0.6047 0 0.019 0.5844 -0.0057 0.0238 0.571 0 0.0279 0.3357 -0.0057 0.0206 0.3357 0 0.0311 0.571 0 0.0279 0.3357 0.0057 0.0238 0.571 0.0057 0.0206 0.3357 0 0.0311 0.571 -0.0057 0.0238 0.571 0 0.019 0.5844 0 0.0311 0.571 0 0.019 0.5844 -0.0057 0.0238 0.571 -0.0057 0.0132 0.5858 0.0057 0.0132 0.5858 0.0057 0.0238 0.571 0 0.019 0.5844 0 0.0311 0.571 0 0.019 0.5844 0.0057 0.0238 0.571 -0.0057 0.0118 0.2444 -0.0057 0 0.2268 -0.0057 0 0.2444 -0.0057 -0.0288 0.2444 -0.0057 -0.01 0.2268 -0.0057 -0.0356 0.2268 0.0057 -0.0288 0.2444 0.0057 -0.01 0.2268 0.0057 -0.01 0.2444 -0.0057 0.0118 0.2268 -0.0057 0 0.1943 -0.0057 -0.0287 0.1943 -0.0057 -0.01 0.1943 0.0057 -0.0287 0.1943 0.0057 -0.01 0.1943 0.0057 -0.0356 0.2268 0.0057 0 0.2268 -0.0057 -0.01 0.2444 -0.0057 0.0118 0.1943 -0.0057 0 0.1639 -0.0057 -0.01 0.1639 -0.0057 -0.0433 0.1639 0.0057 -0.01 0.1639 0.0057 -0.0433 0.1639 0.0057 0 0.1943 -0.0057 0.0118 0.1639 -0.0057 0 0.1178 -0.0057 -0.0238 0.1178 -0.0057 -0.01 0.1178 0.0057 -0.0238 0.1178 0.0057 -0.01 0.1178 0.0057 0 0.1639 0.0057 0 0.2444 0.0057 -0.0206 0.3357 0.0057 -0.01 0.3357 -0.0057 -0.0206 0.3357 -0.0057 -0.01 0.3357 -0.0057 0 0.3357 -0.0057 0.0118 0.3357 -0.0057 0.0118 0.5691 -0.0057 0 0.5691 -0.0057 -0.0238 0.8458 -0.0057 -0.01 0.8693 -0.0057 -0.01 0.8458 -0.0057 -0.0142 0.8223 -0.0057 -0.01 0.8223 -0.0057 -0.01 0.7988 -0.0057 -0.0238 0.7988 -0.0057 -0.0206 0.7753 -0.0057 -0.01 0.7753 -0.0057 -0.01 0.6967 -0.0057 -0.0238 0.6967 -0.0057 -0.0238 0.6574 -0.0057 -0.01 0.6574 0.0057 -0.01 0.8458 0.0057 -0.0142 0.8223 0.0057 -0.01 0.8223 0.0057 -0.0238 0.8458 0.0057 -0.01 0.7988 0.0057 -0.0238 0.7988 0.0057 -0.0206 0.7753 0.0057 -0.01 0.7753 0.0057 -0.01 0.6967 0.0057 -0.0238 0.6967 0.0057 -0.0238 0.6574 0.0057 0 0.8458 0.0057 0 0.8223 0.0057 0 0.7988 0.0057 0 0.7753 0.0057 -0.01 0.6574 0.0057 0 0.6967 -0.0057 0 0.8223 -0.0057 0 0.7988 -0.0057 0 0.7753 -0.0057 0 0.6967 -0.0057 0 0.6574 0.0057 0 0.6384 0.0057 0 0.6574 -0.0057 -0.01 0.6384 -0.0057 -0.0316 0.6434 0.0057 -0.01 0.6384 0.0057 -0.0316 0.6434 -0.0057 -0.01 0.6195 -0.0057 -0.0166 0.624 0.0057 -0.0166 0.624 0.0057 -0.01 0.6195 -0.0057 0 0.6384 0.0057 0 0.6195 0.0057 -0.01 0.9867 0.0057 0 0.8693 0.0057 0 1.006 0.0057 -0.01 0.8693 0.0057 -0.0209 0.9486 0.0057 -0.0238 0.8693 -0.0057 -0.0238 0.8693 -0.0057 -0.0209 0.9486 -0.0057 0 0.8458 -0.0057 -0.01 0.9867 -0.0057 0 0.8693 0.0057 0 0.606 -0.0057 -0.01 0.606 -0.0057 -0.0279 0.6047 0.0057 -0.01 0.606 0.0057 -0.0279 0.6047 -0.0057 0 0.6195 -0.0057 0 0.606 0.0057 0 0.589 -0.0057 -0.01 0.589 -0.0057 -0.0132 0.5858 0.0057 -0.01 0.589 0.0057 -0.0132 0.5858 -0.0057 -0.01 0.5691 -0.0057 -0.0238 0.571 0.0057 -0.01 0.5691 0.0057 -0.0238 0.571 0.0057 0 0.3357 -0.0057 0 0.589 0.0057 0 0.5691 -0.0057 0.0288 0.2444 -0.0057 0.01 0.2268 -0.0057 0.01 0.2444 0.0057 0.0288 0.2444 0.0057 0.01 0.2268 0.0057 0.0356 0.2268 -0.0057 -0.0118 0.2268 -0.0057 -0.0118 0.1943 -0.0057 0.0356 0.2268 -0.0057 0.0287 0.1943 -0.0057 0.01 0.1943 0.0057 0.0287 0.1943 0.0057 0.01 0.1943 0.0057 0.01 0.2444 -0.0057 -0.0118 0.1639 -0.0057 0.01 0.1639 -0.0057 0.0433 0.1639 0.0057 0.01 0.1639 0.0057 0.0433 0.1639 -0.0057 -0.0118 0.1178 -0.0057 0.0238 0.1178 0.0057 0.0238 0.1178 0.0057 0.01 0.1178 0.0057 0 0.1178 -0.0057 0.01 0.1178 -0.0057 0.0118 0.1178 0.0057 0.0206 0.3357 0.0057 0.01 0.3357 -0.0057 0.0206 0.3357 -0.0057 0.01 0.3357 -0.0057 -0.0118 0.2444 -0.0057 -0.0118 0.6574 -0.0057 -0.0118 0.6384 -0.0057 -0.0118 0.6195 -0.0057 -0.0118 0.606 -0.0057 -0.0118 0.589 -0.0057 -0.0118 0.5691 -0.0057 -0.0118 0.3357 -0.0057 0 1.006 -0.0057 0.01 0.8458 -0.0057 0.0142 0.8223 -0.0057 0.01 0.8223 -0.0057 0.0238 0.8458 -0.0057 0.01 0.7988 -0.0057 0.0238 0.7988 -0.0057 0.0206 0.7753 -0.0057 0.01 0.7753 -0.0057 0.01 0.6967 -0.0057 0.0238 0.6967 -0.0057 0.0238 0.6574 0.0057 0.0238 0.8458 0.0057 0.01 0.8693 0.0057 0.01 0.8458 0.0057 0.0142 0.8223 0.0057 0.01 0.8223 0.0057 0.01 0.7988 0.0057 0.0238 0.7988 0.0057 0.0206 0.7753 0.0057 0.01 0.7753 0.0057 0.01 0.6967 0.0057 0.0238 0.6967 0.0057 0.0238 0.6574 0.0057 0.01 0.6574 -0.0057 0.01 0.9867 -0.0057 0.01 0.8693 -0.0057 0.01 0.6574 0.0057 0.01 0.9867 0.0057 0.01 0.6384 -0.0057 0.01 0.6384 -0.0057 0.0316 0.6434 0.0057 0.0316 0.6434 -0.0057 0.0118 0.6574 -0.0057 0.0118 0.6384 -0.0057 0.0166 0.624 -0.0057 0.01 0.6195 0.0057 0.0166 0.624 0.0057 0.01 0.6195 -0.0057 0.0118 0.6195 0.0057 0.0238 0.8693 0.0057 0.0209 0.9486 -0.0057 0.0209 0.9486 -0.0057 0.0238 0.8693 0.0057 0.01 0.606 -0.0057 0.01 0.606 -0.0057 0.0279 0.6047 0.0057 0.0279 0.6047 -0.0057 0.0118 0.606 -0.0057 0.01 0.589 -0.0057 0.0118 0.589 0.0057 0.01 0.589 -0.0057 0.0132 0.5858 0.0057 0.0132 0.5858 -0.0057 0.01 0.5691 -0.0057 0.0238 0.571 0.0057 0.01 0.5691 0.0057 0.0238 0.571</float_array><technique_common><accessor source="#g-p-a" count="1905" stride="3"><param name="X" type="float"/><param name="Y" type="float"/><param name="Z" type="float"/></accessor></technique_common></source>
<source id="g-n"><float_array id="g-n-a" count="5715">0 0.859 0.512 0 0.859 0.512 0 0.859 0.512 0 0.859 0.512 0 -1 0 0 -1 0 0 -1 0 0 -1 0 0 -1 0 0 -1 0 0 -1 0 0 0 -1 0 0 -1 0 0 -1 0 0 -1 0 0 -1 0 0 -1 0 0 -1 0 0 -1 0 0 -1 0 0 -1 0 0 -1 0 0 -1 0 0 -1 0 0 -1 0 0 -1 0.971 -0.24 -0.01 0.971 -0.24 -0.01 0.971 -0.24 -0.01 0.965 -0.261 0.01 0.965 -0.261 0.01 0.965 -0.261 0.01 -0.382 -0.921 -0.077 -0.382 -0.921 -0.077 -0.382 -0.921 -0.077 -0.382 -0.921 -0.077 0.382 -0.921 -0.077 0.382 -0.921 -0.077 0.382 -0.921 -0.077 0.382 -0.921 -0.077 -0.965 -0.261 0.01 -0.965 -0.261 0.01 -0.965 -0.261 0.01 -0.971 -0.24 -0.01 -0.971 -0.24 -0.01 -0.971 -0.24 -0.01 1 0 0 1 0 0 1 0 0 1 0 0 -1 0 0 -1 0 0 -1 0 0 0 -0.972 0.237 0 -0.972 0.237 0 -0.972 0.237 0 -0.972 0.237 0 0 1 0 0 1 0 0 1 -0.428 -0.345 0.836 -0.428 -0.345 0.836 -0.428 -0.345 0.836 0 0 1 0 0 1 0 0 1 0 0 1 0.436 -0.341 0.833 0.436 -0.341 0.833 0.436 -0.341 0.833 0 -0.551 0.834 0 -0.551 0.834 0 -0.551 0.834 -0.148 -0.358 -0.922 -0.148 -0.358 -0.922 -0.148 -0.358 -0.922 0 -0.405 -0.914 0 -0.405 -0.914 0 -0.405 -0.914 1 0 0 1 0 0 0 0 1 0 0 1 -1 0 0 -1 0 0 -1 0 0 -1 0 0 0 -1 0.03 0 -1 0.03 0 -1 0.03 0 -1 0.03 -1 0 0 -1 0 0 0 -0.551 0.834 -0.436 -0.341 0.833 -0.436 -0.341 0.833 -0.436 -0.341 0.833 0.924 -0.383 0 0.924 -0.383 0 0.924 -0.383 0 0.924 -0.383 0 0 0 -1 0 0.993 -0.115 0 0.993 -0.115 0 0.993 -0.115 0 0.993 -0.115 -0.924 -0.383 0 -0.924 -0.383 0 -0.924 -0.383 0 -0.924 -0.383 0 0 -0.405 -0.914 0.148 -0.358 -0.922 0.148 -0.358 -0.922 0.148 -0.358 -0.922 0.428 -0.345 0.836 0.428 -0.345 0.836 0.428 -0.345 0.836 0 0 1 -1 0 0 -1 0 0 -1 0 0 -0.924 -0.383 0 -0.924 -0.383 0 0 -0.972 0.237 0 -0.972 0.237 1 0 0 1 0 0 1 0 0 0 -1 0.03 0 -1 0.03 0 0.993 -0.115 0 0.993 -0.115 0 0.859 0.512 0 0.859 0.512 0.346 -0.836 -0.427 0.346 -0.836 -0.427 0.346 -0.836 -0.427 0.346 -0.836 -0.427 -0.857 -0.312 -0.411 -0.857 -0.312 -0.411 -0.857 -0.312 -0.411 -0.821 -0.426 -0.381 -0.821 -0.426 -0.381 -0.821 -0.426 -0.381 -0.346 -0.836 -0.427 -0.346 -0.836 -0.427 -0.346 -0.836 -0.427 -0.346 -0.836 -0.427 0.821 -0.426 -0.381 0.821 -0.426 -0.381 0.821 -0.426 -0.381 0.857 -0.312 -0.411 0.857 -0.312 -0.411 0.857 -0.312 -0.411 0.845 -0.209 0.493 0.845 -0.209 0.493 0.845 -0.209 0.493 0.846 -0.35 0.403 0.846 -0.35 0.403 0.846 -0.35 0.403 0.264 -0.638 0.724 0.264 -0.638 0.724 0.264 -0.638 0.724 0.264 -0.638 0.724 -0.264 -0.638 0.724 -0.264 -0.638 0.724 -0.264 -0.638 0.724 -0.264 -0.638 0.724 -0.845 -0.209 0.493 -0.845 -0.209 0.493 -0.845 -0.209 0.493 -0.846 -0.35 0.403 -0.846 -0.35 0.403 -0.846 -0.35 0.403 0 -0.859 0.512 0 -0.859 0.512 0 -0.859 0.512 0 -0.859 0.512 0 1 0 0 1 0 0 1 0 0 1 0 0 1 0 0 1 0 0 1 0 0 0 -1 0 0 -1 0 0 -1 0 0 -1 0 0 -1 0 0 -1 0 0 -1 0 0 -1 0 0 -1 0 0 -1 0 0 -1 0.965 0.261 0.01 0.965 0.261 0.01 0.965 0.261 0.01 0.971 0.24 -0.01 0.971 0.24 -0.01 0.971 0.24 -0.01 -0.382 0.921 -0.077 -0.382 0.921 -0.077 -0.382 0.921 -0.077 -0.382 0.921 -0.077 0.382 0.921 -0.077 0.382 0.921 -0.077 0.382 0.921 -0.077 0.382 0.921 -0.077 -0.965 0.261 0.01 -0.965 0.261 0.01 -0.965 0.261 0.01 -0.971 0.24 -0.01 -0.971 0.24 -0.01 -0.971 0.24 -0.01 1 0 0 1 0 0 1 0 0 1 0 0 -1 0 0 -1 0 0 -1 0 0 0 0.972 0.237 0 0.972 0.237 0 0.972 0.237 0 0.972 0.237 0 0 1 0 0 1 0 0 1 -0.428 0.345 0.836 -0.428 0.345 0.836 -0.428 0.345 0.836 0 0 1 0 0 1 0.436 0.341 0.833 0.436 0.341 0.833 0.436 0.341 0.833 0 0.551 0.834 0 0.551 0.834 0 0.551 0.834 0 0.405 -0.914 0 0.405 -0.914 0 0.405 -0.914 -0.148 0.358 -0.922 -0.148 0.358 -0.922 -0.148 0.358 -0.922 1 0 0 1 0 0 -1 0 0 -1 0 0 -1 0 0 -1 0 0 0 1 0.03 0 1 0.03 0 1 0.03 0 1 0.03 -1 0 0 -1 0 0 -0.436 0.341 0.833 -0.436 0.341 0.833 -0.436 0.341 0.833 0 0.551 0.834 0.924 0.383 0 0.924 0.383 0 0.924 0.383 0 0.924 0.383 0 0 -0.993 -0.115 0 -0.993 -0.115 0 -0.993 -0.115 0 -0.993 -0.115 -0.924 0.383 0 -0.924 0.383 0 -0.924 0.383 0 -0.924 0.383 0 0 0.405 -0.914 0.148 0.358 -0.922 0.148 0.358 -0.922 0.148 0.358 -0.922 0.428 0.345 0.836 0.428 0.345 0.836 0.428 0.345 0.836 0 0 1 -1 0 0 -1 0 0 -1 0 0 -0.924 0.383 0 -0.924 0.383 0 0 0.972 0.237 0 0.972 0.237 1 0 0 1 0 0 1 0 0 0 1 0.03 0 1 0.03 0 -0.993 -0.115 0 -0.993 -0.115 0 -0.859 0.512 0 -0.859 0.512 0.346 0.836 -0.427 0.346 0.836 -0.427 0.346 0.836 -0.427 0.346 0.836 -0.427 -0.857 0.312 -0.411 -0.857 0.312 -0.411 -0.857 0.312 -0.411 -0.821 0.426 -0.381 -0.821 0.426 -0.381 -0.821 0.426 -0.381 -0.346 0.836 -0.427 -0.346 0.836 -0.427 -0.346 0.836 -0.427 -0.346 0.836 -0.427 0.857 0.312 -0.411 0.857 0.312 -0.411 0.857 0.312 -0.411 0.821 0.426 -0.381 0.821 0.426 -0.381 0.821 0.426 -0.381 0.845 0.209 0.493 0.845 0.209 0.493 0.845 0.209 0.493 0.846 0.35 0.403 0.846 0.35 0.403 0.846 0.35 0.403 0.264 0.638 0.724 0.264 0.638 0.724 0.264 0.638 0.724 0.264 0.638 0.724 -0.264 0.638 0.724 -0.264 0.638 0.724 -0.264 0.638 0.724 -0.264 0.638 0.724 -0.845 0.209 0.493 -0.845 0.209 0.493 -0.845 0.209 0.493 -0.846 0.35 0.403 -0.846 0.35 0.403 -0.846 0.35 0.403 -0.923 -0.382 0.032 -0.923 -0.382 0.032 -0.923 -0.382 0.032 -0.927 -0.376 0.011 -0.927 -0.376 0.011 -0.927 -0.376 0.011 0.92 -0.391 0.011 0.92 -0.391 0.011 0.92 -0.391 0.011 0.924 -0.383 -0.013 0.924 -0.383 -0.013 0.924 -0.383 -0.013 -0.377 -0.926 0.036 -0.377 -0.926 0.036 -0.377 -0.926 0.036 -0.382 -0.923 0.044 -0.382 -0.923 0.044 -0.382 -0.923 0.044 0.382 -0.923 0.044 0.382 -0.923 0.044 0.382 -0.923 0.044 0.377 -0.926 0.036 0.377 -0.926 0.036 0.377 -0.926 0.036 0.386 -0.922 0.037 0.386 -0.922 0.037 0.386 -0.922 0.037 0.385 -0.922 0.043 0.385 -0.922 0.043 0.385 -0.922 0.043 0.354 -0.918 0.182 0.354 -0.918 0.182 0.354 -0.918 0.182 0.42 -0.904 0.081 0.42 -0.904 0.081 0.42 -0.904 0.081 0.375 -0.891 -0.255 0.375 -0.891 -0.255 0.375 -0.891 -0.255 0.36 -0.915 -0.184 0.36 -0.915 -0.184 0.36 -0.915 -0.184 0.378 -0.923 0.075 0.378 -0.923 0.075 0.378 -0.923 0.075 0.379 -0.923 0.073 0.379 -0.923 0.073 0.379 -0.923 0.073 -0.386 -0.922 0.037 -0.386 -0.922 0.037 -0.386 -0.922 0.037 -0.385 -0.922 0.043 -0.385 -0.922 0.043 -0.385 -0.922 0.043 -0.353 -0.917 0.188 -0.353 -0.917 0.188 -0.353 -0.917 0.188 -0.422 -0.903 0.081 -0.422 -0.903 0.081 -0.422 -0.903 0.081 -0.36 -0.915 -0.184 -0.36 -0.915 -0.184 -0.36 -0.915 -0.184 -0.375 -0.891 -0.255 -0.375 -0.891 -0.255 -0.375 -0.891 -0.255 -0.379 -0.923 0.073 -0.379 -0.923 0.073 -0.379 -0.923 0.073 -0.378 -0.923 0.075 -0.378 -0.923 0.075 -0.378 -0.923 0.075 0.923 -0.384 -0.005 0.923 -0.384 -0.005 0.923 -0.384 -0.005 0.925 -0.379 -0.033 0.925 -0.379 -0.033 0.925 -0.379 -0.033 0.908 -0.413 0.069 0.908 -0.413 0.069 0.908 -0.413 0.069 0.889 -0.456 -0.033 0.889 -0.456 -0.033 0.889 -0.456 -0.033 0.919 -0.393 -0.035 0.919 -0.393 -0.035 0.919 -0.393 -0.035 0.921 -0.378 -0.098 0.921 -0.378 -0.098 0.921 -0.378 -0.098 0.926 -0.378 0.022 0.926 -0.378 0.022 0.926 -0.378 0.022 0.927 -0.375 -0.008 0.927 -0.375 -0.008 0.927 -0.375 -0.008 -0.923 -0.384 -0.004 -0.923 -0.384 -0.004 -0.923 -0.384 -0.004 -0.924 -0.383 -0.011 -0.924 -0.383 -0.011 -0.924 -0.383 -0.011 -0.925 -0.379 -0.033 -0.925 -0.379 -0.033 -0.925 -0.379 -0.033 -0.923 -0.384 -0.005 -0.923 -0.384 -0.005 -0.923 -0.384 -0.005 -0.922 -0.381 0.064 -0.922 -0.381 0.064 -0.922 -0.381 0.064 -0.892 -0.441 -0.101 -0.892 -0.441 -0.101 -0.892 -0.441 -0.101 -0.915 -0.397 -0.066 -0.915 -0.397 -0.066 -0.915 -0.397 -0.066 -0.916 -0.389 -0.1 -0.916 -0.389 -0.1 -0.916 -0.389 -0.1 0.924 -0.383 -0.011 0.924 -0.383 -0.011 0.924 -0.383 -0.011 0.923 -0.384 -0.004 0.923 -0.384 -0.004 0.923 -0.384 -0.004 -0.383 -0.924 -0.011 -0.383 -0.924 -0.011 -0.383 -0.924 -0.011 -0.383 -0.924 -0.011 -0.923 -0.384 -0.014 -0.923 -0.384 -0.014 -0.923 -0.384 -0.014 -0.921 -0.388 0.023 -0.921 -0.388 0.023 -0.921 -0.388 0.023 0.383 -0.924 -0.011 0.383 -0.924 -0.011 0.383 -0.924 -0.011 0.383 -0.924 -0.011 -0.927 0.376 0.011 -0.927 0.376 0.011 -0.927 0.376 0.011 -0.923 0.382 0.032 -0.923 0.382 0.032 -0.923 0.382 0.032 0.924 0.383 -0.013 0.924 0.383 -0.013 0.924 0.383 -0.013 0.92 0.391 0.011 0.92 0.391 0.011 0.92 0.391 0.011 -0.382 0.923 0.044 -0.382 0.923 0.044 -0.382 0.923 0.044 -0.377 0.926 0.036 -0.377 0.926 0.036 -0.377 0.926 0.036 0.377 0.926 0.036 0.377 0.926 0.036 0.377 0.926 0.036 0.382 0.923 0.044 0.382 0.923 0.044 0.382 0.923 0.044 0.386 0.922 0.037 0.386 0.922 0.037 0.386 0.922 0.037 0.385 0.922 0.043 0.385 0.922 0.043 0.385 0.922 0.043 0.354 0.918 0.182 0.354 0.918 0.182 0.354 0.918 0.182 0.42 0.904 0.081 0.42 0.904 0.081 0.42 0.904 0.081 0.36 0.915 -0.184 0.36 0.915 -0.184 0.36 0.915 -0.184 0.375 0.891 -0.255 0.375 0.891 -0.255 0.375 0.891 -0.255 0.379 0.923 0.073 0.379 0.923 0.073 0.379 0.923 0.073 0.378 0.923 0.075 0.378 0.923 0.075 0.378 0.923 0.075 -0.385 0.922 0.043 -0.385 0.922 0.043 -0.385 0.922 0.043 -0.386 0.922 0.037 -0.386 0.922 0.037 -0.386 0.922 0.037 -0.422 0.903 0.081 -0.422 0.903 0.081 -0.422 0.903 0.081 -0.353 0.917 0.188 -0.353 0.917 0.188 -0.353 0.917 0.188 -0.375 0.891 -0.255 -0.375 0.891 -0.255 -0.375 0.891 -0.255 -0.36 0.915 -0.184 -0.36 0.915 -0.184 -0.36 0.915 -0.184 -0.378 0.923 0.075 -0.378 0.923 0.075 -0.378 0.923 0.075 -0.379 0.923 0.073 -0.379 0.923 0.073 -0.379 0.923 0.073 0.925 0.379 -0.033 0.925 0.379 -0.033 0.925 0.379 -0.033 0.923 0.384 -0.005 0.923 0.384 -0.005 0.923 0.384 -0.005 0.908 0.413 0.069 0.908 0.413 0.069 0.908 0.413 0.069 0.889 0.456 -0.033 0.889 0.456 -0.033 0.889 0.456 -0.033 0.919 0.393 -0.035 0.919 0.393 -0.035 0.919 0.393 -0.035 0.921 0.378 -0.098 0.921 0.378 -0.098 0.921 0.378 -0.098 0.927 0.375 -0.008 0.927 0.375 -0.008 0.927 0.375 -0.008 0.926 0.378 0.022 0.926 0.378 0.022 0.926 0.378 0.022 -0.924 0.383 -0.011 -0.924 0.383 -0.011 -0.924 0.383 -0.011 -0.923 0.384 -0.004 -0.923 0.384 -0.004 -0.923 0.384 -0.004 -0.923 0.384 -0.005 -0.923 0.384 -0.005 -0.923 0.384 -0.005 -0.925 0.379 -0.033 -0.925 0.379 -0.033 -0.925 0.379 -0.033 -0.922 0.381 0.064 -0.922 0.381 0.064 -0.922 0.381 0.064 -0.892 0.441 -0.101 -0.892 0.441 -0.101 -0.892 0.441 -0.101 -0.916 0.389 -0.1 -0.916 0.389 -0.1 -0.916 0.389 -0.1 -0.915 0.397 -0.066 -0.915 0.397 -0.066 -0.915 0.397 -0.066 0.923 0.384 -0.004 0.923 0.384 -0.004 0.923 0.384 -0.004 0.924 0.383 -0.011 0.924 0.383 -0.011 0.924 0.383 -0.011 -0.383 0.924 -0.011 -0.383 0.924 -0.011 -0.383 0.924 -0.011 -0.383 0.924 -0.011 -0.921 0.388 0.023 -0.921 0.388 0.023 -0.921 0.388 0.023 -0.923 0.384 -0.014 -0.923 0.384 -0.014 -0.923 0.384 -0.014 0.383 0.924 -0.011 0.383 0.924 -0.011 0.383 0.924 -0.011 0.383 0.924 -0.011 -0.713 -0.501 -0.49 -0.713 -0.501 -0.49 -0.713 -0.501 -0.49 -0.614 -0.437 -0.657 -0.614 -0.437 -0.657 -0.614 -0.437 -0.657 0.868 -0.12 0.481 0.868 -0.12 0.481 0.868 -0.12 0.481 0.7 -0.071 0.71 0.7 -0.071 0.71 0.7 -0.071 0.71 0.603 -0.448 -0.66 0.603 -0.448 -0.66 0.603 -0.448 -0.66 0.707 -0.518 -0.48 0.707 -0.518 -0.48 0.707 -0.518 -0.48 -0.333 -0.815 0.475 -0.333 -0.815 0.475 -0.333 -0.815 0.475 -0.3 -0.801 0.518 -0.3 -0.801 0.518 -0.3 -0.801 0.518 -0.926 -0.375 -0.04 -0.926 -0.375 -0.04 -0.926 -0.375 -0.04 -0.9 -0.436 -0.002 -0.9 -0.436 -0.002 -0.9 -0.436 -0.002 0.926 -0.376 -0.003 0.926 -0.376 -0.003 0.926 -0.376 -0.003 0.926 -0.377 -0.002 0.926 -0.377 -0.002 0.926 -0.377 -0.002 -0.378 -0.925 -0.025 -0.378 -0.925 -0.025 -0.378 -0.925 -0.025 -0.412 -0.911 -0.002 -0.412 -0.911 -0.002 -0.412 -0.911 -0.002 0.378 -0.925 -0.025 0.378 -0.925 -0.025 0.378 -0.925 -0.025 0.412 -0.911 -0.002 0.412 -0.911 -0.002 0.412 -0.911 -0.002 -0.818 -0.252 0.518 -0.818 -0.252 0.518 -0.818 -0.252 0.518 -0.615 0.125 0.778 -0.615 0.125 0.778 -0.615 0.125 0.778 0.308 -0.672 -0.674 0.308 -0.672 -0.674 0.308 -0.672 -0.674 0.313 -0.677 -0.666 0.313 -0.677 -0.666 0.313 -0.677 -0.666 0.3 -0.801 0.518 0.3 -0.801 0.518 0.3 -0.801 0.518 0.333 -0.815 0.475 0.333 -0.815 0.475 0.333 -0.815 0.475 -0.313 -0.677 -0.666 -0.313 -0.677 -0.666 -0.313 -0.677 -0.666 -0.308 -0.672 -0.674 -0.308 -0.672 -0.674 -0.308 -0.672 -0.674 0.775 -0.178 0.607 0.775 -0.178 0.607 0.775 -0.178 0.607 0.739 -0.103 0.666 0.739 -0.103 0.666 0.739 -0.103 0.666 -0.777 -0.422 -0.467 -0.777 -0.422 -0.467 -0.777 -0.422 -0.467 -0.77 -0.401 -0.497 -0.77 -0.401 -0.497 -0.77 -0.401 -0.497 0.383 -0.924 -0.009 0.383 -0.924 -0.009 0.383 -0.924 -0.009 0.381 -0.924 -0.008 0.381 -0.924 -0.008 0.381 -0.924 -0.008 -0.381 -0.924 -0.008 -0.381 -0.924 -0.008 -0.381 -0.924 -0.008 -0.383 -0.924 -0.009 -0.383 -0.924 -0.009 -0.383 -0.924 -0.009 0.923 -0.384 -0.008 0.923 -0.384 -0.008 0.923 -0.384 -0.008 0.923 -0.384 -0.008 -0.923 -0.384 -0.008 -0.923 -0.384 -0.008 -0.923 -0.384 -0.008 -0.923 -0.384 -0.008 -0.294 -0.71 0.64 -0.294 -0.71 0.64 -0.294 -0.71 0.64 -0.294 -0.71 0.64 0.329 -0.859 -0.392 0.329 -0.859 -0.392 0.329 -0.859 -0.392 0.247 -0.85 -0.466 0.247 -0.85 -0.466 0.247 -0.85 -0.466 -0.247 -0.85 -0.466 -0.247 -0.85 -0.466 -0.247 -0.85 -0.466 -0.329 -0.859 -0.392 -0.329 -0.859 -0.392 -0.329 -0.859 -0.392 0.294 -0.71 0.64 0.294 -0.71 0.64 0.294 -0.71 0.64 0.294 -0.71 0.64 0.77 -0.401 -0.497 0.77 -0.401 -0.497 0.77 -0.401 -0.497 0.777 -0.422 -0.467 0.777 -0.422 -0.467 0.777 -0.422 -0.467 -0.775 -0.178 0.607 -0.775 -0.178 0.607 -0.775 -0.178 0.607 -0.739 -0.103 0.666 -0.739 -0.103 0.666 -0.739 -0.103 0.666 -0.194 -0.806 -0.559 -0.194 -0.806 -0.559 -0.194 -0.806 -0.559 -0.303 -0.838 -0.454 -0.303 -0.838 -0.454 -0.303 -0.838 -0.454 0.307 -0.837 -0.453 0.307 -0.837 -0.453 0.307 -0.837 -0.453 0.192 -0.803 -0.565 0.192 -0.803 -0.565 0.192 -0.803 -0.565 -0.85 -0.227 0.475 -0.85 -0.227 0.475 -0.85 -0.227 0.475 -0.773 -0.252 0.582 -0.773 -0.252 0.582 -0.773 -0.252 0.582 -0.718 -0.34 -0.607 -0.718 -0.34 -0.607 -0.718 -0.34 -0.607 -0.419 -0.4 -0.815 -0.419 -0.4 -0.815 -0.419 -0.4 -0.815 0.408 -0.909 -0.078 0.408 -0.909 -0.078 0.408 -0.909 -0.078 0.357 -0.933 -0.041 0.357 -0.933 -0.041 0.357 -0.933 -0.041 -0.357 -0.933 -0.041 -0.357 -0.933 -0.041 -0.357 -0.933 -0.041 -0.408 -0.909 -0.078 -0.408 -0.909 -0.078 -0.408 -0.909 -0.078 0.896 -0.445 -0.008 0.896 -0.445 -0.008 0.896 -0.445 -0.008 0.907 -0.42 -0.023 0.907 -0.42 -0.023 0.907 -0.42 -0.023 -0.893 -0.45 -0.005 -0.893 -0.45 -0.005 -0.893 -0.45 -0.005 -0.907 -0.42 -0.023 -0.907 -0.42 -0.023 -0.907 -0.42 -0.023 -0.685 -0.376 -0.624 -0.685 -0.376 -0.624 -0.685 -0.376 -0.624 -0.678 -0.366 -0.638 -0.678 -0.366 -0.638 -0.678 -0.366 -0.638 0.674 -0.437 0.596 0.674 -0.437 0.596 0.674 -0.437 0.596 0.671 -0.433 0.602 0.671 -0.433 0.602 0.671 -0.433 0.602 -0.144 -0.833 0.534 -0.144 -0.833 0.534 -0.144 -0.833 0.534 -0.316 -0.872 0.374 -0.316 -0.872 0.374 -0.316 -0.872 0.374 0.382 -0.924 0.03 0.382 -0.924 0.03 0.382 -0.924 0.03 0.325 -0.946 -0.012 0.325 -0.946 -0.012 0.325 -0.946 -0.012 -0.325 -0.946 -0.012 -0.325 -0.946 -0.012 -0.325 -0.946 -0.012 -0.382 -0.924 0.03 -0.382 -0.924 0.03 -0.382 -0.924 0.03 0.917 -0.399 -0.01 0.917 -0.399 -0.01 0.917 -0.399 -0.01 0.919 -0.394 -0.007 0.919 -0.394 -0.007 0.919 -0.394 -0.007 -0.914 -0.406 -0.01 -0.914 -0.406 -0.01 -0.914 -0.406 -0.01 -0.927 -0.376 0.008 -0.927 -0.376 0.008 -0.927 -0.376 0.008 -0.69 -0.157 0.706 -0.69 -0.157 0.706 -0.69 -0.157 0.706 -0.69 -0.157 0.706 -0.533 -0.443 -0.72 -0.533 -0.443 -0.72 -0.533 -0.443 -0.72 -0.533 -0.443 -0.72 0.69 -0.157 0.706 0.69 -0.157 0.706 0.69 -0.157 0.706 0.69 -0.157 0.706 0.301 -0.954 -0.006 0.301 -0.954 -0.006 0.301 -0.954 -0.006 0.351 -0.935 -0.041 0.351 -0.935 -0.041 0.351 -0.935 -0.041 -0.301 -0.954 -0.006 -0.301 -0.954 -0.006 -0.301 -0.954 -0.006 -0.351 -0.935 -0.041 -0.351 -0.935 -0.041 -0.351 -0.935 -0.041 0.922 -0.388 -0.008 0.922 -0.388 -0.008 0.922 -0.388 -0.008 0.921 -0.388 -0.007 0.921 -0.388 -0.007 0.921 -0.388 -0.007 -0.919 -0.395 -0.003 -0.919 -0.395 -0.003 -0.919 -0.395 -0.003 -0.921 -0.388 -0.007 -0.921 -0.388 -0.007 -0.921 -0.388 -0.007 0.4 -0.827 0.395 0.4 -0.827 0.395 0.4 -0.827 0.395 0.39 -0.825 0.41 0.39 -0.825 0.41 0.39 -0.825 0.41 0.29 -0.853 -0.435 0.29 -0.853 -0.435 0.29 -0.853 -0.435 0.094 -0.772 -0.629 0.094 -0.772 -0.629 0.094 -0.772 -0.629 0.704 -0.351 -0.618 0.704 -0.351 -0.618 0.704 -0.351 -0.618 0.449 -0.405 -0.797 0.449 -0.405 -0.797 0.449 -0.405 -0.797 -0.687 -0.411 0.599 -0.687 -0.411 0.599 -0.687 -0.411 0.599 -0.682 -0.404 0.61 -0.682 -0.404 0.61 -0.682 -0.404 0.61 -0.094 -0.772 -0.629 -0.094 -0.772 -0.629 -0.094 -0.772 -0.629 -0.29 -0.853 -0.435 -0.29 -0.853 -0.435 -0.29 -0.853 -0.435 0.326 -0.758 -0.565 0.326 -0.758 -0.565 0.326 -0.758 -0.565 0.326 -0.758 -0.565 0.208 -0.662 0.72 0.208 -0.662 0.72 0.208 -0.662 0.72 0.351 -0.755 0.554 0.351 -0.755 0.554 0.351 -0.755 0.554 -0.39 -0.825 0.41 -0.39 -0.825 0.41 -0.39 -0.825 0.41 -0.4 -0.827 0.395 -0.4 -0.827 0.395 -0.4 -0.827 0.395 0.542 -0.433 -0.72 0.542 -0.433 -0.72 0.542 -0.433 -0.72 0.536 -0.435 -0.724 0.536 -0.435 -0.724 0.536 -0.435 -0.724 -0.326 -0.758 -0.565 -0.326 -0.758 -0.565 -0.326 -0.758 -0.565 -0.326 -0.758 -0.565 0.85 -0.227 0.475 0.85 -0.227 0.475 0.85 -0.227 0.475 0.773 -0.252 0.582 0.773 -0.252 0.582 0.773 -0.252 0.582 0.144 -0.833 0.534 0.144 -0.833 0.534 0.144 -0.833 0.534 0.316 -0.872 0.374 0.316 -0.872 0.374 0.316 -0.872 0.374 0.681 -0.36 -0.638 0.681 -0.36 -0.638 0.681 -0.36 -0.638 0.685 -0.365 -0.631 0.685 -0.365 -0.631 0.685 -0.365 -0.631 -0.351 -0.755 0.554 -0.351 -0.755 0.554 -0.351 -0.755 0.554 -0.208 -0.662 0.72 -0.208 -0.662 0.72 -0.208 -0.662 0.72 -0.713 0.501 -0.49 -0.713 0.501 -0.49 -0.713 0.501 -0.49 -0.614 0.437 -0.657 -0.614 0.437 -0.657 -0.614 0.437 -0.657 0.7 0.071 0.71 0.7 0.071 0.71 0.7 0.071 0.71 0.868 0.12 0.481 0.868 0.12 0.481 0.868 0.12 0.481 0.707 0.518 -0.48 0.707 0.518 -0.48 0.707 0.518 -0.48 0.603 0.448 -0.66 0.603 0.448 -0.66 0.603 0.448 -0.66 -0.333 0.815 0.475 -0.333 0.815 0.475 -0.333 0.815 0.475 -0.3 0.801 0.518 -0.3 0.801 0.518 -0.3 0.801 0.518 -0.926 0.375 -0.04 -0.926 0.375 -0.04 -0.926 0.375 -0.04 -0.9 0.436 -0.002 -0.9 0.436 -0.002 -0.9 0.436 -0.002 0.926 0.376 -0.003 0.926 0.376 -0.003 0.926 0.376 -0.003 0.926 0.377 -0.002 0.926 0.377 -0.002 0.926 0.377 -0.002 -0.378 0.925 -0.025 -0.378 0.925 -0.025 -0.378 0.925 -0.025 -0.412 0.911 -0.002 -0.412 0.911 -0.002 -0.412 0.911 -0.002 0.412 0.911 -0.002 0.412 0.911 -0.002 0.412 0.911 -0.002 0.378 0.925 -0.025 0.378 0.925 -0.025 0.378 0.925 -0.025 -0.615 -0.125 0.778 -0.615 -0.125 0.778 -0.615 -0.125 0.778 -0.818 0.252 0.518 -0.818 0.252 0.518 -0.818 0.252 0.518 0.308 0.672 -0.674 0.308 0.672 -0.674 0.308 0.672 -0.674 0.313 0.677 -0.666 0.313 0.677 -0.666 0.313 0.677 -0.666 0.3 0.801 0.518 0.3 0.801 0.518 0.3 0.801 0.518 0.333 0.815 0.475 0.333 0.815 0.475 0.333 0.815 0.475 -0.308 0.672 -0.674 -0.308 0.672 -0.674 -0.308 0.672 -0.674 -0.313 0.677 -0.666 -0.313 0.677 -0.666 -0.313 0.677 -0.666 0.775 0.178 0.607 0.775 0.178 0.607 0.775 0.178 0.607 0.739 0.103 0.666 0.739 0.103 0.666 0.739 0.103 0.666 -0.77 0.401 -0.497 -0.77 0.401 -0.497 -0.77 0.401 -0.497 -0.777 0.422 -0.467 -0.777 0.422 -0.467 -0.777 0.422 -0.467 0.381 0.924 -0.008 0.381 0.924 -0.008 0.381 0.924 -0.008 0.383 0.924 -0.009 0.383 0.924 -0.009 0.383 0.924 -0.009 -0.383 0.924 -0.009 -0.383 0.924 -0.009 -0.383 0.924 -0.009 -0.381 0.924 -0.008 -0.381 0.924 -0.008 -0.381 0.924 -0.008 0.923 0.384 -0.008 0.923 0.384 -0.008 0.923 0.384 -0.008 0.923 0.384 -0.008 -0.923 0.384 -0.008 -0.923 0.384 -0.008 -0.923 0.384 -0.008 -0.923 0.384 -0.008 -0.294 0.71 0.64 -0.294 0.71 0.64 -0.294 0.71 0.64 -0.294 0.71 0.64 0.329 0.859 -0.392 0.329 0.859 -0.392 0.329 0.859 -0.392 0.247 0.85 -0.466 0.247 0.85 -0.466 0.247 0.85 -0.466 -0.329 0.859 -0.392 -0.329 0.859 -0.392 -0.329 0.859 -0.392 -0.247 0.85 -0.466 -0.247 0.85 -0.466 -0.247 0.85 -0.466 0.294 0.71 0.64 0.294 0.71 0.64 0.294 0.71 0.64 0.294 0.71 0.64 0.777 0.422 -0.467 0.777 0.422 -0.467 0.777 0.422 -0.467 0.77 0.401 -0.497 0.77 0.401 -0.497 0.77 0.401 -0.497 -0.775 0.178 0.607 -0.775 0.178 0.607 -0.775 0.178 0.607 -0.739 0.103 0.666 -0.739 0.103 0.666 -0.739 0.103 0.666 -0.303 0.838 -0.454 -0.303 0.838 -0.454 -0.303 0.838 -0.454 -0.194 0.806 -0.559 -0.194 0.806 -0.559 -0.194 0.806 -0.559 0.307 0.837 -0.453 0.307 0.837 -0.453 0.307 0.837 -0.453 0.192 0.803 -0.565 0.192 0.803 -0.565 0.192 0.803 -0.565 -0.773 0.252 0.582 -0.773 0.252 0.582 -0.773 0.252 0.582 -0.85 0.227 0.475 -0.85 0.227 0.475 -0.85 0.227 0.475 -0.419 0.4 -0.815 -0.419 0.4 -0.815 -0.419 0.4 -0.815 -0.718 0.34 -0.607 -0.718 0.34 -0.607 -0.718 0.34 -0.607 0.357 0.933 -0.041 0.357 0.933 -0.041 0.357 0.933 -0.041 0.408 0.909 -0.078 0.408 0.909 -0.078 0.408 0.909 -0.078 -0.408 0.909 -0.078 -0.408 0.909 -0.078 -0.408 0.909 -0.078 -0.357 0.933 -0.041 -0.357 0.933 -0.041 -0.357 0.933 -0.041 0.896 0.445 -0.008 0.896 0.445 -0.008 0.896 0.445 -0.008 0.907 0.42 -0.023 0.907 0.42 -0.023 0.907 0.42 -0.023 -0.907 0.42 -0.023 -0.907 0.42 -0.023 -0.907 0.42 -0.023 -0.893 0.45 -0.005 -0.893 0.45 -0.005 -0.893 0.45 -0.005 -0.685 0.376 -0.624 -0.685 0.376 -0.624 -0.685 0.376 -0.624 -0.678 0.366 -0.638 -0.678 0.366 -0.638 -0.678 0.366 -0.638 0.671 0.433 0.602 0.671 0.433 0.602 0.671 0.433 0.602 0.674 0.437 0.596 0.674 0.437 0.596 0.674 0.437 0.596 -0.144 0.833 0.534 -0.144 0.833 0.534 -0.144 0.833 0.534 -0.316 0.872 0.374 -0.316 0.872 0.374 -0.316 0.872 0.374 0.325 0.946 -0.012 0.325 0.946 -0.012 0.325 0.946 -0.012 0.382 0.924 0.03 0.382 0.924 0.03 0.382 0.924 0.03 -0.382 0.924 0.03 -0.382 0.924 0.03 -0.382 0.924 0.03 -0.325 0.946 -0.012 -0.325 0.946 -0.012 -0.325 0.946 -0.012 0.919 0.394 -0.007 0.919 0.394 -0.007 0.919 0.394 -0.007 0.917 0.399 -0.01 0.917 0.399 -0.01 0.917 0.399 -0.01 -0.914 0.406 -0.01 -0.914 0.406 -0.01 -0.914 0.406 -0.01 -0.927 0.376 0.008 -0.927 0.376 0.008 -0.927 0.376 0.008 -0.69 0.157 0.706 -0.69 0.157 0.706 -0.69 0.157 0.706 -0.69 0.157 0.706 -0.533 0.443 -0.72 -0.533 0.443 -0.72 -0.533 0.443 -0.72 -0.533 0.443 -0.72 0.69 0.157 0.706 0.69 0.157 0.706 0.69 0.157 0.706 0.69 0.157 0.706 0.301 0.954 -0.006 0.301 0.954 -0.006 0.301 0.954 -0.006 0.351 0.935 -0.041 0.351 0.935 -0.041 0.351 0.935 -0.041 -0.351 0.935 -0.041 -0.351 0.935 -0.041 -0.351 0.935 -0.041 -0.301 0.954 -0.006 -0.301 0.954 -0.006 -0.301 0.954 -0.006 0.922 0.388 -0.008 0.922 0.388 -0.008 0.922 0.388 -0.008 0.921 0.388 -0.007 0.921 0.388 -0.007 0.921 0.388 -0.007 -0.921 0.388 -0.007 -0.921 0.388 -0.007 -0.921 0.388 -0.007 -0.919 0.395 -0.003 -0.919 0.395 -0.003 -0.919 0.395 -0.003 0.4 0.827 0.395 0.4 0.827 0.395 0.4 0.827 0.395 0.39 0.825 0.41 0.39 0.825 0.41 0.39 0.825 0.41 0.094 0.772 -0.629 0.094 0.772 -0.629 0.094 0.772 -0.629 0.29 0.853 -0.435 0.29 0.853 -0.435 0.29 0.853 -0.435 0.704 0.351 -0.618 0.704 0.351 -0.618 0.704 0.351 -0.618 0.449 0.405 -0.797 0.449 0.405 -0.797 0.449 0.405 -0.797 -0.687 0.411 0.599 -0.687 0.411 0.599 -0.687 0.411 0.599 -0.682 0.404 0.61 -0.682 0.404 0.61 -0.682 0.404 0.61 -0.29 0.853 -0.435 -0.29 0.853 -0.435 -0.29 0.853 -0.435 -0.094 0.772 -0.629 -0.094 0.772 -0.629 -0.094 0.772 -0.629 0.326 0.758 -0.565 0.326 0.758 -0.565 0.326 0.758 -0.565 0.326 0.758 -0.565 0.208 0.662 0.72 0.208 0.662 0.72 0.208 0.662 0.72 0.351 0.755 0.554 0.351 0.755 0.554 0.351 0.755 0.554 -0.39 0.825 0.41 -0.39 0.825 0.41 -0.39 0.825 0.41 -0.4 0.827 0.395 -0.4 0.827 0.395 -0.4 0.827 0.395 0.536 0.435 -0.724 0.536 0.435 -0.724 0.536 0.435 -0.724 0.542 0.433 -0.72 0.542 0.433 -0.72 0.542 0.433 -0.72 -0.326 0.758 -0.565 -0.326 0.758 -0.565 -0.326 0.758 -0.565 -0.326 0.758 -0.565 0.773 0.252 0.582 0.773 0.252 0.582 0.773 0.252 0.582 0.85 0.227 0.475 0.85 0.227 0.475 0.85 0.227 0.475 0.144 0.833 0.534 0.144 0.833 0.534 0.144 0.833 0.534 0.316 0.872 0.374 0.316 0.872 0.374 0.316 0.872 0.374 0.685 0.365 -0.631 0.685 0.365 -0.631 0.685 0.365 -0.631 0.681 0.36 -0.638 0.681 0.36 -0.638 0.681 0.36 -0.638 -0.208 0.662 0.72 -0.208 0.662 0.72 -0.208 0.662 0.72 -0.351 0.755 0.554 -0.351 0.755 0.554 -0.351 0.755 0.554 -0.766 -0.599 0.232 -0.766 -0.599 0.232 -0.766 -0.599 0.232 -0.766 -0.599 0.232 0.766 -0.599 0.232 0.766 -0.599 0.232 0.766 -0.599 0.232 0.766 -0.599 0.232 -0.781 -0.611 -0.129 -0.781 -0.611 -0.129 -0.781 -0.611 -0.129 -0.781 -0.611 -0.129 0.781 -0.611 -0.129 0.781 -0.611 -0.129 0.781 -0.611 -0.129 0.781 -0.611 -0.129 -0.756 -0.591 0.282 -0.756 -0.591 0.282 -0.756 -0.591 0.282 -0.756 -0.591 0.282 0.756 -0.591 0.282 0.756 -0.591 0.282 0.756 -0.591 0.282 0.756 -0.591 0.282 -0.762 -0.596 -0.251 -0.762 -0.596 -0.251 -0.762 -0.596 -0.251 -0.762 -0.596 -0.251 0.762 -0.596 -0.251 0.762 -0.596 -0.251 0.762 -0.596 -0.251 0.762 -0.596 -0.251 0.786 -0.615 0.056 0.786 -0.615 0.056 0.786 -0.615 0.056 0.786 -0.615 0.056 -0.786 -0.615 0.056 -0.786 -0.615 0.056 -0.786 -0.615 0.056 -0.786 -0.615 0.056 -0.788 -0.616 0 -0.788 -0.616 0 -0.788 -0.616 0 -0.788 -0.616 0 -0.764 -0.597 -0.244 -0.764 -0.597 -0.244 -0.764 -0.597 -0.244 -0.764 -0.597 -0.244 -0.764 -0.597 0.244 -0.764 -0.597 0.244 -0.764 -0.597 0.244 -0.764 -0.597 0.244 -0.785 -0.614 -0.083 -0.785 -0.614 -0.083 -0.785 -0.614 -0.083 -0.785 -0.614 -0.083 -0.787 -0.616 0.025 -0.787 -0.616 0.025 -0.787 -0.616 0.025 -0.787 -0.616 0.025 -0.788 -0.616 0 -0.788 -0.616 0 -0.788 -0.616 0 -0.788 -0.616 0 0.788 -0.616 0 0.788 -0.616 0 0.788 -0.616 0 0.788 -0.616 0 0.764 -0.597 -0.244 0.764 -0.597 -0.244 0.764 -0.597 -0.244 0.764 -0.597 -0.244 0.764 -0.597 0.244 0.764 -0.597 0.244 0.764 -0.597 0.244 0.764 -0.597 0.244 0.785 -0.614 -0.083 0.785 -0.614 -0.083 0.785 -0.614 -0.083 0.785 -0.614 -0.083 0.787 -0.616 0.025 0.787 -0.616 0.025 0.787 -0.616 0.025 0.787 -0.616 0.025 0.788 -0.616 0 0.788 -0.616 0 0.788 -0.616 0 0.788 -0.616 0 0.783 -0.601 0.16 0.783 -0.601 0.16 0.783 -0.601 0.16 -0.783 -0.601 0.16 -0.783 -0.601 0.16 -0.783 -0.601 0.16 0.859 -0.472 0.201 0.859 -0.472 0.201 0.859 -0.472 0.201 0.848 -0.471 0.243 0.848 -0.471 0.243 0.848 -0.471 0.243 0.756 -0.622 0.205 0.756 -0.622 0.205 0.756 -0.622 0.205 0.796 -0.582 0.168 0.796 -0.582 0.168 0.796 -0.582 0.168 -0.796 -0.582 0.168 -0.796 -0.582 0.168 -0.796 -0.582 0.168 -0.756 -0.622 0.205 -0.756 -0.622 0.205 -0.756 -0.622 0.205 0.745 -0.583 0.324 0.745 -0.583 0.324 0.745 -0.583 0.324 0.644 -0.709 0.286 0.644 -0.709 0.286 0.644 -0.709 0.286 -0.644 -0.709 0.286 -0.644 -0.709 0.286 -0.644 -0.709 0.286 -0.745 -0.583 0.324 -0.745 -0.583 0.324 -0.745 -0.583 0.324 0.57 -0.666 -0.481 0.57 -0.666 -0.481 0.57 -0.666 -0.481 0.619 -0.623 -0.477 0.619 -0.623 -0.477 0.619 -0.623 -0.477 -0.619 -0.623 -0.477 -0.619 -0.623 -0.477 -0.619 -0.623 -0.477 -0.57 -0.666 -0.481 -0.57 -0.666 -0.481 -0.57 -0.666 -0.481 -0.857 -0.472 0.208 -0.857 -0.472 0.208 -0.857 -0.472 0.208 -0.848 -0.471 0.243 -0.848 -0.471 0.243 -0.848 -0.471 0.243 0.865 -0.502 0.018 0.865 -0.502 0.018 0.865 -0.502 0.018 0.788 -0.616 0 -0.788 -0.616 0 -0.865 -0.502 0.018 -0.865 -0.502 0.018 -0.865 -0.502 0.018 0.748 -0.573 0.335 0.748 -0.573 0.335 0.748 -0.573 0.335 0.616 -0.715 0.329 0.616 -0.715 0.329 0.616 -0.715 0.329 -0.616 -0.715 0.329 -0.616 -0.715 0.329 -0.616 -0.715 0.329 -0.748 -0.573 0.335 -0.748 -0.573 0.335 -0.748 -0.573 0.335 0.685 -0.576 -0.445 0.685 -0.576 -0.445 0.685 -0.576 -0.445 0.696 -0.564 -0.443 0.696 -0.564 -0.443 0.696 -0.564 -0.443 -0.696 -0.564 -0.443 -0.696 -0.564 -0.443 -0.696 -0.564 -0.443 -0.685 -0.576 -0.445 -0.685 -0.576 -0.445 -0.685 -0.576 -0.445 -0.788 -0.616 -0.009 -0.788 -0.616 -0.009 -0.788 -0.616 -0.009 -0.788 -0.616 -0.009 0.788 -0.616 -0.009 0.788 -0.616 -0.009 0.788 -0.616 -0.009 0.788 -0.616 -0.009 -0.688 -0.538 0.487 -0.688 -0.538 0.487 -0.688 -0.538 0.487 -0.565 -0.67 0.482 -0.565 -0.67 0.482 -0.565 -0.67 0.482 0.565 -0.67 0.482 0.565 -0.67 0.482 0.565 -0.67 0.482 0.688 -0.538 0.487 0.688 -0.538 0.487 0.688 -0.538 0.487 -0.766 0.599 0.232 -0.766 0.599 0.232 -0.766 0.599 0.232 -0.766 0.599 0.232 0.766 0.599 0.232 0.766 0.599 0.232 0.766 0.599 0.232 0.766 0.599 0.232 -0.781 0.611 -0.129 -0.781 0.611 -0.129 -0.781 0.611 -0.129 -0.781 0.611 -0.129 0.781 0.611 -0.129 0.781 0.611 -0.129 0.781 0.611 -0.129 0.781 0.611 -0.129 -0.756 0.591 0.282 -0.756 0.591 0.282 -0.756 0.591 0.282 -0.756 0.591 0.282 0.756 0.591 0.282 0.756 0.591 0.282 0.756 0.591 0.282 0.756 0.591 0.282 -0.762 0.596 -0.251 -0.762 0.596 -0.251 -0.762 0.596 -0.251 -0.762 0.596 -0.251 0.762 0.596 -0.251 0.762 0.596 -0.251 0.762 0.596 -0.251 0.762 0.596 -0.251 0.786 0.615 0.056 0.786 0.615 0.056 0.786 0.615 0.056 0.786 0.615 0.056 -0.786 0.615 0.056 -0.786 0.615 0.056 -0.786 0.615 0.056 -0.786 0.615 0.056 -0.788 0.616 0 -0.788 0.616 0 -0.788 0.616 0 -0.788 0.616 0 -0.764 0.597 -0.244 -0.764 0.597 -0.244 -0.764 0.597 -0.244 -0.764 0.597 -0.244 -0.764 0.597 0.244 -0.764 0.597 0.244 -0.764 0.597 0.244 -0.764 0.597 0.244 -0.785 0.614 -0.083 -0.785 0.614 -0.083 -0.785 0.614 -0.083 -0.785 0.614 -0.083 -0.787 0.616 0.025 -0.787 0.616 0.025 -0.787 0.616 0.025 -0.787 0.616 0.025 -0.788 0.616 0 -0.788 0.616 0 -0.788 0.616 0 -0.788 0.616 0 0.788 0.616 0 0.788 0.616 0 0.788 0.616 0 0.788 0.616 0 0.764 0.597 -0.244 0.764 0.597 -0.244 0.764 0.597 -0.244 0.764 0.597 -0.244 0.764 0.597 0.244 0.764 0.597 0.244 0.764 0.597 0.244 0.764 0.597 0.244 0.785 0.614 -0.083 0.785 0.614 -0.083 0.785 0.614 -0.083 0.785 0.614 -0.083 0.787 0.616 0.025 0.787 0.616 0.025 0.787 0.616 0.025 0.787 0.616 0.025 0.788 0.616 0 0.788 0.616 0 0.788 0.616 0 0.788 0.616 0 0.783 0.601 0.16 0.783 0.601 0.16 0.783 0.601 0.16 -0.783 0.601 0.16 -0.783 0.601 0.16 -0.783 0.601 0.16 0.859 0.472 0.201 0.859 0.472 0.201 0.859 0.472 0.201 0.848 0.471 0.243 0.848 0.471 0.243 0.848 0.471 0.243 0.796 0.582 0.168 0.796 0.582 0.168 0.796 0.582 0.168 0.756 0.622 0.205 0.756 0.622 0.205 0.756 0.622 0.205 -0.796 0.582 0.168 -0.796 0.582 0.168 -0.796 0.582 0.168 -0.756 0.622 0.205 -0.756 0.622 0.205 -0.756 0.622 0.205 0.745 0.583 0.324 0.745 0.583 0.324 0.745 0.583 0.324 0.644 0.709 0.286 0.644 0.709 0.286 0.644 0.709 0.286 -0.644 0.709 0.286 -0.644 0.709 0.286 -0.644 0.709 0.286 -0.745 0.583 0.324 -0.745 0.583 0.324 -0.745 0.583 0.324 0.619 0.623 -0.477 0.619 0.623 -0.477 0.619 0.623 -0.477 0.57 0.666 -0.481 0.57 0.666 -0.481 0.57 0.666 -0.481 -0.619 0.623 -0.477 -0.619 0.623 -0.477 -0.619 0.623 -0.477 -0.57 0.666 -0.481 -0.57 0.666 -0.481 -0.57 0.666 -0.481 -0.848 0.471 0.243 -0.848 0.471 0.243 -0.848 0.471 0.243 -0.857 0.472 0.208 -0.857 0.472 0.208 -0.857 0.472 0.208 0.865 0.502 0.018 0.865 0.502 0.018 0.865 0.502 0.018 0.788 0.616 0 -0.865 0.502 0.018 -0.865 0.502 0.018 -0.865 0.502 0.018 -0.788 0.616 0 0.748 0.573 0.335 0.748 0.573 0.335 0.748 0.573 0.335 0.616 0.715 0.329 0.616 0.715 0.329 0.616 0.715 0.329 -0.616 0.715 0.329 -0.616 0.715 0.329 -0.616 0.715 0.329 -0.748 0.573 0.335 -0.748 0.573 0.335 -0.748 0.573 0.335 0.685 0.576 -0.445 0.685 0.576 -0.445 0.685 0.576 -0.445 0.696 0.564 -0.443 0.696 0.564 -0.443 0.696 0.564 -0.443 -0.696 0.564 -0.443 -0.696 0.564 -0.443 -0.696 0.564 -0.443 -0.685 0.576 -0.445 -0.685 0.576 -0.445 -0.685 0.576 -0.445 -0.788 0.616 -0.009 -0.788 0.616 -0.009 -0.788 0.616 -0.009 -0.788 0.616 -0.009 0.788 0.616 -0.009 0.788 0.616 -0.009 0.788 0.616 -0.009 0.788 0.616 -0.009 -0.688 0.538 0.487 -0.688 0.538 0.487 -0.688 0.538 0.487 -0.565 0.67 0.482 -0.565 0.67 0.482 -0.565 0.67 0.482 0.565 0.67 0.482 0.565 0.67 0.482 0.565 0.67 0.482 0.688 0.538 0.487 0.688 0.538 0.487 0.688 0.538 0.487 -1 0 0 -1 0 0 -1 0 0 -1 0 0 -1 0 0 -1 0 0 1 0 0 1 0 0 1 0 0 -1 0 0 -1 0 0 -1 0 0 -1 0 0 1 0 0 1 0 0 1 0 0 1 0 0 -1 0 0 -1 0 0 -1 0 0 -1 0 0 -1 0 0 1 0 0 1 0 0 1 0 0 -1 0 0 -1 0 0 -1 0 0 -1 0 0 1 0 0 1 0 0 1 0 0 1 0 0 1 0 0 1 0 0 -1 0 0 -1 0 0 -1 0 0 -1 0 0 -1 0 0 -1 0 0 -1 0 0 -1 0 0 -1 0 0 -1 0 0 -1 0 0 -1 0 0 -1 0 0 -1 0 0 -1 0 0 -1 0 0 -1 0 0 -1 0 0 -1 0 0 1 0 0 1 0 0 1 0 0 1 0 0 1 0 0 1 0 0 1 0 0 1 0 0 1 0 0 1 0 0 1 0 0 1 0 0 1 0 0 1 0 0 1 0 0 1 0 0 1 0 0 -1 0 0 -1 0 0 -1 0 0 -1 0 0 -1 0 0 1 0 0 1 0 0 -1 0 0 -1 0 0 1 0 0 1 0 0 -1 0 0 -1 0 0 1 0 0 1 0 0 -1 0 0 1 0 0 1 0 0 1 0 0 1 0 0 1 0 0 1 0 0 1 0 0 -1 0 0 -1 0 0 -1 0 0 -1 0 0 -1 0 0 1 0 0 -1 0 0 -1 0 0 1 0 0 1 0 0 -1 0 0 -1 0 0 1 0 0 -1 0 0 -1 0 0 1 0 0 1 0 0 -1 0 0 -1 0 0 1 0 0 1 0 0 1 0 0 -1 0 0 1 0 0 -1 0 0 -1 0 0 -1 0 0 1 0 0 1 0 0 1 0 0 -1 0 0 -1 0 0 -1 0 0 -1 0 0 -1 0 0 1 0 0 1 0 0 1 0 0 -1 0 0 -1 0 0 -1 0 0 1 0 0 1 0 0 -1 0 0 -1 0 0 1 0 0 1 0 0 1 0 0 -1 0 0 -1 0 0 1 0 0 1 0 0 -1 0 0 -1 0 0 -1 0 0 -1 0 0 -1 0 0 -1 0 0 -1 0 0 -1 0 0 -1 0 0 -1 0 0 -1 0 0 -1 0 0 -1 0 0 -1 0 0 -1 0 0 -1 0 0 -1 0 0 -1 0 0 -1 0 0 -1 0 0 -1 0 0 -1 0 0 1 0 0 1 0 0 1 0 0 1 0 0 1 0 0 1 0 0 1 0 0 1 0 0 1 0 0 1 0 0 1 0 0 1 0 0 1 0 0 -1 0 0 -1 0 0 -1 0 0 1 0 0 1 0 0 -1 0 0 -1 0 0 1 0 0 -1 0 0 -1 0 0 -1 0 0 -1 0 0 1 0 0 1 0 0 -1 0 0 1 0 0 1 0 0 -1 0 0 -1 0 0 1 0 0 -1 0 0 -1 0 0 1 0 0 -1 0 0 -1 0 0 -1 0 0 1 0 0 -1 0 0 1 0 0 -1 0 0 -1 0 0 1 0 0 1 0 0</float_array><technique_common><accessor source="#g-n-a" count="1905" stride="3"><param name="X" type="float"/><param name="Y" type="float"/><param name="Z" type="float"/></accessor></technique_common></source>
<vertices id="g-v"><input semantic="POSITION" source="#g-p"/><input semantic="NORMAL" source="#g-n"/></vertices>
<triangles material="m0" count="334"><input semantic="VERTEX" source="#g-v" offset="0"/><p>1691 1692 1693 1694 1695 1696 1697 1698 1699 1700 1701 1692 1702 1695 1703 1695 1702 1696 1698 1704 1705 1698 1706 1704 1698 1697 1706 1698 1705 1707 1695 1694 1708 1695 1701 1703 1709 1710 1701 1702 1711 1712 1711 1702 1703 1713 1704 1714 1704 1713 1705 1705 1713 1715 1703 1710 1711 1716 1717 1710 1718 1711 1719 1714 1720 1713 1713 1720 1721 1713 1721 1722 1711 1718 1712 1711 1717 1719 1708 1692 1695 1699 1698 1723 1699 1724 1697 1724 1699 1725 1726 1708 1694 1708 1726 1727 1691 1728 1729 1728 1691 1693 1730 1728 1731 1732 1733 1734 1735 1734 1736 1734 1735 1732 1735 1737 1738 1737 1735 1736 1739 1737 1740 1737 1739 1738 1739 1741 1742 1741 1739 1740 1743 1741 1744 1745 1746 1747 1748 1746 1745 1749 1746 1750 1746 1749 1747 1749 1751 1752 1750 1751 1749 1753 1751 1754 1751 1753 1752 1754 1755 1753 1745 1747 1756 1747 1749 1757 1749 1752 1758 1752 1753 1759 1753 1760 1761 1753 1755 1760 1734 1762 1736 1736 1763 1737 1737 1764 1740 1740 1765 1741 1741 1766 1744 1741 1743 1742 1760 1767 1768 1743 1769 1770 1769 1743 1744 1771 1755 1772 1755 1771 1760 1769 1773 1774 1770 1769 1774 1775 1771 1772 1771 1775 1776 1769 1766 1777 1771 1778 1767 1779 1780 1781 1782 1779 1783 1782 1745 1780 1782 1784 1748 1782 1748 1745 1782 1783 1784 1785 1786 1733 1733 1787 1734 1733 1732 1785 1788 1733 1786 1788 1789 1733 1776 1790 1778 1774 1791 1792 1791 1774 1773 1793 1775 1794 1775 1793 1776 1773 1777 1795 1791 1795 1796 1793 1797 1790 1798 1792 1791 1792 1798 1799 1794 1800 1793 1794 1801 1800 1726 1802 1727 1802 1726 1803 1804 1724 1725 1805 1724 1804 1725 1699 1806 1727 1693 1708 1798 1796 1807 1802 1728 1727 1802 1807 1731 1804 1725 1808 1800 1808 1797 1803 1799 1802 1798 1802 1799 1804 1800 1801 1804 1801 1805 1809 1810 1811 1812 1813 1814 1815 1701 1816 1810 1817 1818 1810 1818 1819 1820 1813 1821 1813 1820 1814 1813 1812 1822 1813 1723 1707 1707 1821 1813 1707 1705 1715 1692 1701 1815 1692 1811 1810 1692 1701 1695 1692 1691 1700 1810 1809 1817 1810 1701 1692 1816 1710 1823 1824 1818 1825 1818 1824 1819 1820 1826 1827 1826 1820 1821 1821 1707 1715 1715 1713 1722 1715 1826 1821 1701 1710 1816 1701 1810 1819 1701 1700 1709 1701 1710 1703 1819 1710 1701 1823 1717 1828 1825 1829 1824 1830 1826 1831 1826 1830 1827 1826 1715 1722 1831 1722 1832 1722 1831 1826 1722 1721 1832 1710 1709 1716 1710 1819 1824 1710 1717 1711 1710 1717 1823 1717 1824 1833 1717 1716 1834 1824 1829 1833 1824 1717 1710 1811 1692 1693 1723 1698 1707 1723 1813 1822 1822 1806 1723 1835 1822 1812 1822 1835 1836 1811 1837 1809 1837 1811 1838 1693 1838 1811 1693 1692 1708 1839 1728 1693 1839 1693 1692 1839 1692 1815 1840 1765 1766 1841 1766 1777 1842 1777 1795 1843 1795 1796 1844 1796 1807 1845 1807 1731 1845 1728 1846 1847 1789 1788 1848 1849 1850 1851 1849 1848 1852 1849 1853 1849 1852 1850 1852 1854 1855 1853 1854 1852 1856 1854 1857 1854 1856 1855 1857 1858 1856 1859 1860 1861 1862 1861 1863 1861 1862 1859 1862 1864 1865 1864 1862 1863 1866 1864 1867 1864 1866 1865 1866 1868 1869 1868 1866 1867 1870 1868 1871 1861 1780 1756 1756 1747 1757 1756 1863 1861 1863 1756 1757 1757 1749 1758 1757 1864 1863 1864 1757 1758 1758 1752 1759 1758 1867 1864 1867 1758 1759 1759 1868 1867 1759 1753 1761 1868 1759 1761 1868 1870 1869 1761 1760 1768 1761 1871 1868 1789 1787 1733 1789 1872 1873 1789 1847 1872 1787 1873 1848 1787 1762 1734 1848 1762 1787 1762 1763 1736 1762 1848 1850 1850 1763 1762 1763 1764 1737 1763 1850 1852 1852 1764 1763 1764 1765 1740 1764 1852 1855 1855 1765 1764 1765 1855 1856 1765 1766 1741 1856 1766 1765 1856 1858 1874 1780 1875 1781 1780 1745 1756 1780 1861 1860 1780 1779 1782 1871 1761 1768 1871 1767 1876 1768 1767 1871 1877 1858 1878 1858 1877 1874 1876 1879 1870 1870 1871 1876 1766 1877 1777 1766 1841 1840 1766 1769 1744 1766 1856 1874 1766 1880 1881 1766 1881 1777 1766 1765 1880 1874 1877 1766 1877 1882 1883 1878 1882 1877 1879 1876 1884 1884 1876 1885 1777 1881 1886 1777 1842 1841 1777 1886 1795 1777 1773 1769 1777 1883 1795 1877 1883 1777 1876 1778 1885 1767 1778 1876 1767 1760 1771 1887 1888 1860 1860 1859 1887 1875 1780 1860 1875 1860 1888 1873 1872 1889 1873 1889 1890 1873 1851 1848 1873 1787 1789 1873 1890 1851 1778 1771 1776 1885 1790 1891 1885 1778 1790 1892 1882 1893 1882 1892 1883 1891 1894 1884 1885 1891 1884 1795 1886 1895 1795 1843 1842 1795 1892 1796 1795 1883 1892 1795 1895 1796 1795 1791 1773 1796 1892 1896 1796 1896 1807 1796 1897 1807 1796 1895 1897 1796 1798 1791 1796 1844 1843 1790 1776 1793 1891 1797 1898 1891 1790 1797 1896 1893 1899 1893 1896 1892 1894 1891 1898 1894 1898 1900 1901 1837 1838 1902 1837 1901 1835 1903 1836 1903 1835 1904 1806 1699 1723 1806 1822 1836 1836 1808 1806 1838 1693 1728 1728 1693 1727 1728 1839 1846 1728 1730 1729 1728 1901 1838 1731 1728 1845 1731 1728 1802 1807 1802 1798 1807 1845 1844 1807 1901 1731 1807 1897 1730 1807 1730 1731 1901 1728 1731 1896 1901 1807 1898 1808 1903 1808 1800 1804 1808 1725 1806 1808 1836 1903 1797 1793 1800 1797 1808 1898 1901 1899 1902 1899 1901 1896 1903 1904 1900 1898 1903 1900</p></triangles>
<triangles material="m1" count="196"><input semantic="VERTEX" source="#g-v" offset="0"/><p>0 1 2 1 0 3 4 5 6 7 8 4 7 4 6 6 9 7 9 6 10 11 12 13 12 14 13 12 11 15 14 12 16 17 18 19 18 17 20 21 17 22 22 23 21 17 21 20 24 22 17 19 24 17 21 23 25 26 27 28 29 30 31 32 33 34 35 32 34 36 37 38 37 36 39 40 41 42 43 44 45 46 47 48 49 47 46 50 51 52 53 54 55 54 53 56 57 58 59 60 61 62 63 64 65 64 63 66 67 68 69 70 71 72 73 74 75 76 77 78 79 46 48 46 79 80 58 81 59 81 58 82 83 84 85 83 86 84 87 88 89 88 87 90 91 85 92 91 83 85 70 93 71 94 95 96 97 98 99 98 97 100 101 19 18 102 103 104 103 102 105 106 107 108 107 106 109 76 110 77 111 112 113 114 115 116 64 117 65 118 84 119 84 118 85 92 118 120 92 85 118 121 108 122 108 121 106 123 56 53 56 123 124 125 126 127 91 52 83 52 91 50 128 90 87 90 128 129 49 125 127 125 49 46 130 105 102 105 130 131 2 132 0 133 132 2 134 135 136 136 137 134 138 139 140 141 142 143 144 145 146 145 144 147 148 149 150 151 152 153 154 155 156 157 158 159 160 161 162 161 160 163 164 165 166 167 164 166 168 169 170 171 172 173 174 175 176 175 174 177 178 179 180 181 179 178 181 178 182 179 183 184 183 179 181 185 186 187 186 188 189 186 190 188 186 185 190 191 18 20 18 191 192 191 21 193 191 20 21 193 21 23 194 191 193 192 191 194 21 195 23 196 197 198 199 200 201 202 203 204 205 203 202 206 207 208 207 206 209 210 211 212 213 214 215 216 217 218 219 216 218 220 221 222 223 224 225 226 224 223 227 228 229 230 231 232 63 233 234 234 66 63 235 236 237 238 239 240 241 242 243 244 245 246 247 216 248 216 247 217 229 81 82 81 229 228 249 250 251 250 249 252 253 254 255 256 254 253 251 257 258 257 251 250 259 260 261 262 238 240 263 264 265 266 264 263 101 18 192 267 268 269 267 270 268 271 272 273 274 272 271 275 242 241 276 277 278 279 280 281 282 234 233 283 249 251 249 283 284 283 258 285 258 283 251 273 286 287 272 286 273 226 288 224 289 288 226 290 291 292 221 257 250 221 220 257 256 293 254 294 293 256 219 290 216 290 219 291 270 295 296 270 296 268 297 177 174 177 297 298 299 300 301 302 300 299 303 304 305 306 307 308 309 310 311 310 309 312 313 314 315 316 317 318 319 320 321 322 323 324 325 326 327 326 325 328 329 330 331 330 329 332 333 334 335 336 337 338</p></triangles>
<triangles material="m2" count="96"><input semantic="VERTEX" source="#g-v" offset="0"/><p>339 340 341 342 343 344 345 346 347 348 349 350 351 352 353 354 355 356 357 358 359 360 361 362 363 364 365 366 367 368 369 370 371 372 373 374 375 376 377 378 379 380 381 382 383 384 385 386 387 388 389 390 391 392 393 394 395 396 397 398 399 400 401 402 403 404 405 406 407 408 409 410 411 412 413 414 415 416 417 418 419 420 421 422 423 424 425 426 427 428 429 430 431 432 433 434 435 436 437 438 439 440 441 442 443 444 445 446 447 448 449 450 451 452 453 454 455 456 457 458 459 460 461 462 463 464 465 466 467 465 467 468 469 470 471 472 473 474 475 476 477 476 475 478 479 480 481 482 483 484 485 486 487 488 489 490 491 492 493 494 495 496 497 498 499 500 501 502 503 504 505 506 507 508 509 510 511 512 513 514 515 516 517 518 519 520 521 522 523 524 525 526 527 528 529 530 531 532 533 534 535 536 537 538 539 540 541 542 543 544 545 546 547 548 549 550 551 552 553 554 555 556 557 558 559 560 561 562 563 564 565 566 567 568 569 570 571 572 573 574 575 576 577 578 579 580 581 582 583 584 585 586 587 588 589 590 591 592 593 594 595 596 597 598 599 600 601 602 603 604 605 606 607 606 605 608 609 610 611 612 613 614 615 616 617 616 615 618</p></triangles>
<triangles material="m3" count="240"><input semantic="VERTEX" source="#g-v" offset="0"/><p>619 620 621 622 623 624 625 626 627 628 629 630 631 632 633 634 635 636 637 638 639 640 641 642 643 644 645 646 647 648 649 650 651 652 653 654 655 656 657 658 659 660 661 662 663 664 665 666 667 668 669 670 671 672 673 674 675 676 677 678 679 680 681 682 683 684 685 686 687 688 689 690 691 692 693 694 695 696 697 698 699 700 701 702 703 704 705 706 707 708 709 710 711 712 713 714 715 716 717 715 717 718 719 720 721 720 719 722 723 724 725 726 725 724 727 728 729 730 731 732 733 734 735 736 737 738 739 740 741 740 739 742 743 744 745 746 747 748 749 750 751 752 753 754 755 756 757 758 759 760 761 762 763 764 765 766 767 768 769 770 771 772 773 774 775 776 777 778 779 780 781 782 783 784 785 786 787 788 789 790 791 792 793 794 795 796 797 798 799 800 801 802 803 804 805 806 807 808 809 810 811 812 813 814 815 816 817 818 819 820 821 822 823 824 825 826 827 828 829 830 831 832 833 834 835 836 837 838 839 840 841 842 843 844 845 846 847 847 846 848 849 850 851 850 849 852 853 854 855 854 853 856 857 858 859 860 861 862 863 864 865 866 867 868 869 870 871 872 873 874 875 876 877 878 879 880 881 882 883 884 885 886 887 888 889 890 891 892 893 894 895 896 897 898 899 900 901 902 903 904 905 906 907 908 909 910 911 912 913 914 912 911 915 916 917 918 919 920 921 922 923 924 925 926 927 928 929 930 931 932 933 934 935 934 933 936 937 938 939 940 941 942 943 944 945 946 947 948 949 950 951 952 953 954 955 956 957 958 959 960 961 962 963 964 965 966 967 968 969 970 971 972 973 974 975 976 977 978 979 980 981 982 983 984 985 986 987 988 989 990 991 992 993 994 995 996 997 998 999 1000 1001 1002 1003 1004 1005 1006 1007 1008 1009 1010 1011 1012 1013 1014 1015 1016 1017 1018 1019 1020 1021 1022 1023 1024 1025 1026 1027 1028 1029 1030 1031 1032 1033 1034 1035 1036 1037 1038 1039 1040 1041 1042 1043 1044 1045 1046 1047 1048 1049 1050 1051 1052 1053 1054 1055 1056 1057 1058 1059 1058 1057 1060 1061 1062 1063 1062 1061 1064 1065 1066 1067 1065 1067 1068 1069 1070 1071 1072 1073 1074 1075 1076 1077 1078 1079 1080 1081 1082 1083 1082 1081 1084 1085 1086 1087 1088 1089 1090 1091 1092 1093 1094 1095 1096 1097 1098 1099 1100 1101 1102 1103 1104 1105 1106 1107 1108 1109 1110 1111 1112 1113 1114 1115 1116 1117 1118 1119 1120 1121 1122 1123 1124 1125 1126 1127 1128 1129 1130 1131 1132 1133 1134 1135 1136 1137 1138 1139 1140 1141 1142 1143 1144 1145 1146 1147 1148 1149 1150 1151 1152 1153 1154 1155 1156 1157 1158 1159 1160 1161 1162 1163 1164 1165 1166 1167 1168 1169 1170 1171 1172 1173 1174 1175 1176 1177 1178 1179 1180 1181 1182 1183 1184 1185 1186 1187 1188 1189 1187 1190 1188 1191 1192 1193 1192 1191 1194 1195 1196 1197 1196 1195 1198 1199 1200 1201 1202 1203 1204 1205 1206 1207 1208 1209 1210 1211 1212 1213 1214 1215 1216 1217 1218 1219 1220 1221 1222 1223 1224 1225 1226 1227 1228 1229 1230 1231 1232 1233 1234 1235 1236 1237 1238 1239 1240 1241 1242 1243 1244 1245 1246 1247 1248 1249 1250 1251 1252 1253 1254 1255 1253 1256 1254 1257 1258 1259 1260 1261 1262 1263 1264 1265 1266 1267 1268 1269 1270 1271 1272 1273 1274 1275 1276 1277 1276 1275 1278 1279 1280 1281 1282 1283 1284 1285 1286 1287 1288 1289 1290 1291 1292 1293 1294 1295 1296 1297 1298 1299 1300 1301 1302</p></triangles>
<triangles material="m4" count="164"><input semantic="VERTEX" source="#g-v" offset="0"/><p>1303 1304 1305 1306 1303 1305 1307 1308 1309 1308 1307 1310 1311 1312 1313 1312 1311 1314 1315 1316 1317 1318 1315 1317 1319 1320 1321 1322 1321 1320 1323 1324 1325 1324 1323 1326 1327 1328 1329 1328 1327 1330 1331 1332 1333 1334 1333 1332 1335 1336 1337 1336 1335 1338 1339 1340 1341 1342 1341 1340 1343 1344 1345 1346 1344 1343 1347 1348 1349 1348 1347 1350 1351 1352 1353 1354 1353 1352 1355 1356 1357 1356 1355 1358 1359 1360 1361 1362 1359 1361 1363 1364 1365 1366 1364 1363 1367 1368 1369 1370 1368 1367 1371 1372 1373 1374 1373 1372 1375 1376 1377 1376 1375 1378 1379 1380 1381 1382 1379 1381 1383 1384 1385 1384 1383 1386 1387 1388 1389 1390 1388 1387 1391 1392 1393 1394 1395 1396 1397 1398 1399 1400 1401 1402 1403 1404 1405 1406 1407 1408 1409 1410 1411 1412 1413 1414 1415 1416 1417 1418 1419 1420 1421 1422 1423 1424 1425 1426 1427 1428 1429 1430 1431 1432 1433 1434 1435 1436 1437 1438 1439 1440 1441 1442 1443 1444 1445 1446 1447 1367 1448 1370 1449 1346 1343 1450 1451 1452 1453 1454 1455 1456 1457 1458 1459 1460 1461 1462 1463 1464 1465 1466 1467 1468 1469 1470 1471 1472 1473 1474 1475 1476 1477 1478 1479 1478 1477 1480 1481 1482 1483 1484 1481 1483 1485 1486 1487 1488 1489 1490 1491 1492 1493 1494 1495 1496 1497 1498 1499 1498 1497 1500 1501 1502 1503 1502 1501 1504 1505 1506 1507 1506 1505 1508 1509 1510 1511 1510 1509 1512 1513 1514 1515 1514 1513 1516 1517 1518 1519 1518 1517 1520 1521 1522 1523 1522 1521 1524 1525 1526 1527 1526 1525 1528 1529 1530 1531 1530 1529 1532 1533 1534 1535 1534 1533 1536 1537 1538 1539 1538 1537 1540 1541 1542 1543 1542 1541 1544 1545 1546 1547 1546 1545 1548 1549 1550 1551 1550 1549 1552 1553 1554 1555 1554 1553 1556 1557 1558 1559 1558 1557 1560 1561 1562 1563 1562 1561 1564 1565 1566 1567 1566 1565 1568 1569 1570 1571 1570 1569 1572 1573 1574 1575 1574 1573 1576 1577 1578 1579 1578 1577 1580 1581 1582 1583 1582 1581 1584 1585 1586 1587 1588 1589 1590 1591 1592 1593 1594 1595 1596 1597 1598 1599 1600 1601 1602 1603 1604 1605 1606 1607 1608 1609 1610 1611 1612 1613 1614 1615 1616 1617 1618 1619 1620 1621 1622 1623 1624 1625 1626 1627 1628 1629 1630 1631 1632 1633 1634 1635 1636 1637 1638 1639 1640 1641 1642 1562 1564 1643 1644 1645 1540 1646 1538 1647 1648 1649 1650 1651 1652 1653 1654 1655 1656 1657 1658 1659 1660 1661 1662 1663 1664 1665 1666 1667 1668 1669 1670 1671 1672 1673 1672 1671 1674 1675 1676 1677 1676 1675 1678 1679 1680 1681 1682 1683 1684 1685 1686 1687 1688 1689 1690</p></triangles>
</mesh></geometry></library_geometries><library_visual_scenes><visual_scene id="Scene"><node id="n" name="greatsword"><instance_geometry url="#g"><bind_material><technique_common>
<instance_material symbol="m0" target="#m0"/>
<instance_material symbol="m1" target="#m1"/>
<instance_material symbol="m2" target="#m2"/>
<instance_material symbol="m3" target="#m3"/>
<instance_material symbol="m4" target="#m4"/>
</technique_common></bind_material></instance_geometry></node></visual_scene></library_visual_scenes><scene><instance_visual_scene url="#Scene"/></scene></COLLADA>
