<?xml version="1.0" encoding="utf-8"?>
<COLLADA xmlns="http://www.collada.org/2005/11/COLLADASchema" version="1.4.1">
<asset><contributor><authoring_tool>VATs starter props (see CREDITS.md)</authoring_tool></contributor><unit name="meter" meter="1"/><up_axis>Z_UP</up_axis></asset>
<library_effects>
<effect id="m0-fx"><profile_COMMON><technique sid="common"><lambert><diffuse><color>0.620 0.470 0.340 1</color></diffuse></lambert></technique></profile_COMMON></effect>
<effect id="m1-fx"><profile_COMMON><technique sid="common"><lambert><diffuse><color>0.240 0.250 0.280 1</color></diffuse></lambert></technique></profile_COMMON></effect>
<effect id="m2-fx"><profile_COMMON><technique sid="common"><lambert><diffuse><color>0.400 0.300 0.230 1</color></diffuse></lambert></technique></profile_COMMON></effect>
<effect id="m3-fx"><profile_COMMON><technique sid="common"><lambert><diffuse><color>0.360 0.390 0.430 1</color></diffuse></lambert></technique></profile_COMMON></effect>
</library_effects><library_materials>
<material id="m0" name="m0"><instance_effect url="#m0-fx"/></material>
<material id="m1" name="m1"><instance_effect url="#m1-fx"/></material>
<material id="m2" name="m2"><instance_effect url="#m2-fx"/></material>
<material id="m3" name="m3"><instance_effect url="#m3-fx"/></material>
</library_materials><library_geometries><geometry id="g" name="guitar"><mesh>
<source id="g-p"><float_array id="g-p-a" count="2625">-0.046793 -0.10304 -0.23334 0.032023 -0.10304 -0.23334 0.032023 -0.18705 -0.17484 -0.046793 -0.18705 -0.17484 -0.046793 -0.15793 0.20217 0.032023 -0.15793 0.20217 0.032023 -0.15564 0.26743 -0.046793 -0.15564 0.26743 -0.046793 0.087517 0.33448 0.032023 0.087517 0.33448 0.032023 0.15564 0.26743 -0.046793 0.15564 0.26743 -0.046793 0.21123 -0.085582 0.032023 0.21123 -0.085582 0.032023 0.18705 -0.17484 -0.046793 0.18705 -0.17484 -0.046793 0.052644 0.20217 -0.046793 0.087517 0.33448 -0.046793 0.15564 0.26743 -0.046793 0.15793 0.20217 0.032023 0.093387 -0.11484 0.032023 0.10304 -0.23334 0.032023 0.18705 -0.17484 0.032023 0.21123 -0.085582 0.032023 -0.21123 -0.085582 0.032023 -0.18705 -0.17484 0.032023 -0.10304 -0.23334 0.032023 -0.093387 -0.11484 0.032023 1.162e-17 -0.12316 0.032023 1.162e-17 -0.25 -0.046793 -0.15793 0.20217 -0.046793 -0.15564 0.26743 -0.046793 -0.087518 0.33448 -0.046793 -0.052644 0.20217 -0.046793 -4.3342e-08 0.20217 -0.046793 -4.3342e-08 0.35441 -0.046793 -0.15564 0.26743 0.032023 -0.15564 0.26743 0.032023 -0.087518 0.33448 -0.046793 -0.087518 0.33448 -0.046793 -4.3342e-08 0.35441 0.032023 -4.3342e-08 0.35441 0.032023 0.087517 0.33448 -0.046793 0.087517 0.33448 -0.046793 0.18705 -0.17484 0.032023 0.18705 -0.17484 0.032023 0.10304 -0.23334 -0.046793 0.10304 -0.23334 -0.046793 -5.8805e-18 -0.25 0.032023 1.162e-17 -0.25 0.032023 -0.10304 -0.23334 -0.046793 -0.10304 -0.23334 -0.046793 -5.8805e-18 -0.12316 -0.046793 -5.8805e-18 0.0036715 -0.046793 0.06235 0.0036715 -0.046793 0.093387 -0.11484 -0.046793 -0.21123 -0.085582 -0.046793 -0.18705 0.0036715 -0.046793 -0.06235 0.0036715 -0.046793 -0.093387 -0.11484 0.032023 -4.3342e-08 0.20217 0.032023 1.162e-17 0.16965 0.032023 0.045174 0.15549 0.032023 0.052644 0.20217 0.032023 -0.15793 0.20217 0.032023 -0.13646 0.14076 0.032023 -0.045175 0.15549 0.032023 -0.052644 0.20217 0.032023 0.13646 0.14076 0.032023 0.15793 0.20217 -0.046793 0.18705 0.0036715 -0.046793 0.21123 -0.085582 -0.046793 0.042547 0.14076 -0.046793 0.13646 0.14076 -0.046793 -0.21123 -0.085582 0.032023 -0.21123 -0.085582 0.032023 -0.18705 0.0036715 -0.046793 -0.18705 0.0036715 0.032023 1.162e-17 0.045656 0.032023 1.162e-17 0.0036715 0.032023 0.06235 0.0036715 0.032023 0.045577 0.059814 -0.046793 -0.13646 0.14076 -0.046793 -0.042547 0.14076 -0.046793 -0.18705 0.0036715 0.032023 -0.18705 0.0036715 0.032023 -0.13794 0.074549 -0.046793 -0.13794 0.074549 0.032023 0.18705 0.0036715 0.032023 0.13794 0.074548 -0.046793 -0.044264 0.10765 -0.046793 -5.8805e-18 0.10765 -0.046793 -5.8805e-18 0.074549 -0.046793 -0.045981 0.074549 -0.046793 -5.8805e-18 0.14076 -0.046793 0.13794 0.074549 0.032023 0.13794 0.074548 0.032023 0.18705 0.0036715 -0.046793 0.18705 0.0036715 -0.046793 -0.13646 0.14076 0.032023 -0.13646 0.14076 0.032023 -0.15793 0.20217 -0.046793 -0.15793 0.20217 0.032023 -4.3342e-08 0.35441 0.032023 0.087517 0.33448 0.032023 -0.15564 0.26743 0.032023 -0.087518 0.33448 0.032023 0.15564 0.26743 -0.046793 0.15564 0.26743 0.032023 0.15564 0.26743 0.032023 0.15793 0.20217 -0.046793 0.15793 0.20217 -0.046793 0.045981 0.074549 -0.046793 -0.13794 0.074549 -0.046793 0.15793 0.20217 0.032023 0.15793 0.20217 0.032023 0.13646 0.14076 -0.046793 0.13646 0.14076 -0.046793 0.13794 0.074549 0.032023 0.12606 0.10765 -0.046793 0.12606 0.10765 -0.046793 0.13646 0.14076 0.032023 0.13646 0.14076 0.032023 0.059482 0.10765 0.032023 0.12606 0.10765 0.032023 -0.12606 0.10765 0.032023 -0.059482 0.10765 -0.046793 0.044264 0.10765 -0.046793 -0.12606 0.10765 -0.046793 0.12606 0.10765 0.032023 -0.12606 0.10765 -0.046793 -0.12606 0.10765 -0.046793 -0.13794 0.074549 0.032023 -0.13794 0.074549 0.032023 -0.13794 0.074549 0.032023 -0.18705 0.0036715 0.032023 -0.06235 0.0036715 0.032023 -0.045577 0.059814 -0.046793 0.10304 -0.23334 0.032023 0.10304 -0.23334 0.032023 1.162e-17 -0.25 -0.046793 -5.8805e-18 -0.25 -0.046793 -0.087518 0.33448 0.032023 -0.087518 0.33448 0.032023 -4.3342e-08 0.35441 -0.046793 -4.3342e-08 0.35441 0.032023 -0.13646 0.14076 -0.046793 -0.13646 0.14076 -0.046793 -0.12606 0.10765 0.032023 -0.12606 0.10765 0.032023 0.13794 0.074548 -0.046793 0.13794 0.074549 -0.046793 0.12606 0.10765 0.032023 0.12606 0.10765 -0.046793 -0.10304 -0.23334 -0.046793 -5.8805e-18 -0.25 -0.046793 -0.18705 -0.17484 0.032023 -0.18705 -0.17484 0.032023 -0.21123 -0.085582 -0.046793 -0.21123 -0.085582 -0.046793 0.10304 -0.23334 -0.046793 0.18705 -0.17484 -0.046793 -0.18705 -0.17484 -0.046793 0.18705 0.0036715 0.032023 0.18705 0.0036715 0.032023 0.21123 -0.085582 -0.046793 0.21123 -0.085582 0.032023 -0.059482 0.10765 0.032023 -0.045577 0.059814 -0.016788 -0.045577 0.059814 -0.016788 -0.059482 0.10765 0.032023 0.045577 0.059814 0.032023 0.059482 0.10765 -0.016788 0.059482 0.10765 -0.016788 0.045577 0.059814 0.032023 1.162e-17 0.16965 0.032023 -0.045175 0.15549 -0.016788 -0.045175 0.15549 -0.016788 7.8186e-19 0.16965 0.032023 -0.045577 0.059814 0.032023 1.162e-17 0.045656 -0.016788 7.8187e-19 0.045656 -0.016788 -0.045577 0.059814 -0.016788 7.8187e-19 0.10765 -0.016788 0.059482 0.10765 -0.016788 0.045174 0.15549 -0.016788 7.8186e-19 0.16965 -0.016788 -0.059482 0.10765 -0.016788 -0.045175 0.15549 -0.016788 -0.045577 0.059814 -0.016788 7.8187e-19 0.045656 -0.016788 0.045577 0.059814 0.032023 0.059482 0.10765 0.032023 0.045174 0.15549 -0.016788 0.045174 0.15549 -0.016788 0.059482 0.10765 0.032023 1.162e-17 0.045656 0.032023 0.045577 0.059814 -0.016788 0.045577 0.059814 -0.016788 7.8187e-19 0.045656 0.032023 -0.045175 0.15549 0.032023 -0.059482 0.10765 -0.016788 -0.059482 0.10765 -0.016788 -0.045175 0.15549 0.032023 0.045174 0.15549 0.032023 1.162e-17 0.16965 -0.016788 7.8186e-19 0.16965 -0.016788 0.045174 0.15549 -0.019999 6.8916e-20 0.17447 0.040556 1.3515e-17 0.17447 0.040556 -0.032981 0.17447 -0.019999 -0.032981 0.17447 0.015825 -0.032981 0.40199 0.040556 -0.032981 0.40199 0.040556 -0.032981 0.6206 0.015825 -0.032981 0.6206 0.038607 -4.3342e-08 0.63714 0.038607 0.040946 0.63714 0.0023038 0.045608 0.73789 -0.0023697 -8.6683e-08 0.75 0.015825 0.032981 0.40199 0.040556 0.032981 0.40199 0.040556 0.032981 0.17447 -0.019999 0.032981 0.17447 0.015825 -4.3342e-08 0.40199 0.015825 -4.3342e-08 0.6206 0.015825 0.032981 0.6206 0.015825 0.032981 0.40199 0.040556 -4.3342e-08 0.40199 0.040556 1.3515e-17 0.17447 0.040556 0.032981 0.17447 0.040556 0.032981 0.40199 0.040556 -4.3342e-08 0.6206 0.040556 0.032981 0.6206 -0.019999 6.8916e-20 0.17447 0.015825 -4.3342e-08 0.40199 0.015825 0.032981 0.40199 -0.019999 0.032981 0.17447 0.015825 0.032981 0.6206 0.040556 0.032981 0.6206 -0.019999 -0.032981 0.17447 0.040556 -0.032981 0.17447 -0.018109 -0.031352 0.0018011 -0.018109 -0.094056 0.0018011 0.038902 -0.094056 0.0018011 0.042446 -0.031352 0.0018011 -0.018109 -0.031352 -0.041888 0.042446 -0.031352 -0.041888 0.038902 -0.094056 -0.034151 -0.018109 -0.094056 -0.034151 0.042446 -0.031352 0.0018011 0.038902 -0.094056 0.0018011 0.038902 -0.094056 -0.034151 0.042446 -0.031352 -0.041888 -0.018109 0.031352 0.0018011 -0.018109 0.094056 0.0018011 -0.018109 0.094056 -0.034151 -0.018109 0.031352 -0.041888 0.038902 -0.094056 0.0018011 -0.018109 -0.094056 0.0018011 -0.018109 -0.094056 -0.034151 0.038902 -0.094056 -0.034151 -0.018109 0.094056 0.0018011 0.038902 0.094056 0.0018011 0.038902 0.094056 -0.034151 -0.018109 0.094056 -0.034151 -0.018109 -0.094056 0.0018011 -0.018109 -0.031352 0.0018011 -0.018109 -0.031352 -0.041888 -0.018109 -0.094056 -0.034151 0.038902 0.094056 0.0018011 0.042446 0.031352 0.0018011 0.042446 0.031352 -0.041888 0.038902 0.094056 -0.034151 0.042446 0.031352 0.0018011 0.042446 -0.031352 0.0018011 0.042446 -0.031352 -0.041888 0.042446 0.031352 -0.041888 -0.018109 0.094056 -0.034151 0.038902 0.094056 -0.034151 0.042446 0.031352 -0.041888 -0.018109 0.031352 -0.041888 -0.018109 0.031352 -0.041888 0.042446 0.031352 -0.041888 0.042446 -0.031352 -0.041888 -0.018109 -0.031352 -0.041888 -0.018109 0.094056 0.0018011 -0.018109 0.031352 0.0018011 0.042446 0.031352 0.0018011 0.038902 0.094056 0.0018011 -0.024456 -8.6683e-08 0.73887 -0.0023697 -8.6683e-08 0.75 0.0023038 0.045608 0.73789 -0.019783 0.045608 0.72676 0.014614 -0.040946 0.63557 0.038607 -0.040946 0.63714 0.0023038 -0.045608 0.73789 -0.019783 -0.045608 0.72676 0.038607 0.040946 0.63714 0.014614 0.040946 0.63557 -0.019783 0.045608 0.72676 0.0023038 0.045608 0.73789 0.014614 -4.3342e-08 0.63557 0.014614 -0.040946 0.63557 -0.019783 -0.045608 0.72676 -0.024456 -8.6683e-08 0.73887 0.015825 -4.3342e-08 0.6206 0.015825 -0.032981 0.6206 0.014614 -0.040946 0.63557 0.014614 -4.3342e-08 0.63557 0.040556 0.032981 0.6206 0.015825 0.032981 0.6206 0.014614 0.040946 0.63557 0.038607 0.040946 0.63714 0.015825 -0.032981 0.6206 0.040556 -0.032981 0.6206 0.038607 -0.040946 0.63714 0.014614 -0.040946 0.63557 0.040556 -4.3342e-08 0.6206 0.040556 0.032981 0.6206 0.038607 0.040946 0.63714 0.038607 -4.3342e-08 0.63714 0.040556 -0.032981 0.6206 0.038607 -0.040946 0.63714 0.015825 0.032981 0.6206 0.014614 0.040946 0.63557 0.014614 0.040946 0.63557 0.014614 -4.3342e-08 0.63557 -0.024456 -8.6683e-08 0.73887 -0.019783 0.045608 0.72676 -0.019783 -0.045608 0.72676 0.0023038 -0.045608 0.73789 -0.0023697 -8.6683e-08 0.75 -0.024456 -8.6683e-08 0.73887 -0.019999 -0.032981 0.17447 0.015825 -0.032981 0.40199 0.040556 -0.032981 0.6206 0.040556 -0.032981 0.40199 0.040556 -0.032981 0.17447 0.015825 -0.032981 0.40199 0.015825 -0.032981 0.6206 0.038607 -0.040946 0.63714 0.038607 -4.3342e-08 0.63714 -0.0023697 -8.6683e-08 0.75 0.0023038 -0.045608 0.73789 -0.019999 0.032981 0.17447 0.040556 0.032981 0.17447 0.040547 -0.027293 0.6206 0.040547 -0.020063 0.6206 0.040547 -0.020063 -0.011221 0.040547 -0.027293 -0.011221 0.045129 -0.027293 0.6206 0.045129 -0.027293 -0.011221 0.045129 -0.020063 -0.011221 0.045129 -0.020063 0.6206 0.040547 -0.027293 -0.011221 0.040547 -0.020063 -0.011221 0.045129 -0.020063 -0.011221 0.045129 -0.027293 -0.011221 0.040547 -0.020063 -0.011221 0.040547 -0.020063 0.6206 0.045129 -0.020063 0.6206 0.045129 -0.020063 -0.011221 0.045129 -0.020063 0.6206 0.040547 -0.020063 0.6206 0.032294 -0.028224 0.65144 0.036456 -0.028224 0.65335 0.040547 -0.027293 0.6206 0.040547 -0.027293 -0.011221 0.045129 -0.027293 -0.011221 0.045129 -0.027293 0.6206 0.035617 -0.025621 0.65981 0.040717 -0.025621 0.64638 0.029335 -0.025621 0.64206 0.024235 -0.025621 0.65549 0.035617 -0.049367 0.65981 0.024235 -0.049367 0.65549 0.029335 -0.049367 0.64206 0.040717 -0.049367 0.64638 0.029335 -0.025621 0.64206 0.029335 -0.049367 0.64206 0.024235 -0.049367 0.65549 0.024235 -0.025621 0.65549 0.035617 -0.025621 0.65981 0.035617 -0.049367 0.65981 0.040717 -0.049367 0.64638 0.040717 -0.025621 0.64638 0.040717 -0.025621 0.64638 0.040717 -0.049367 0.64638 0.029335 -0.049367 0.64206 0.029335 -0.025621 0.64206 0.024235 -0.025621 0.65549 0.024235 -0.049367 0.65549 0.035617 -0.049367 0.65981 0.035617 -0.025621 0.65981 0.02298 -0.029192 0.691 0.02808 -0.029192 0.67757 0.016699 -0.029192 0.67324 0.011598 -0.029192 0.68668 0.02298 -0.05226 0.691 0.011598 -0.05226 0.68668 0.016699 -0.05226 0.67324 0.02808 -0.05226 0.67757 0.016699 -0.029192 0.67324 0.016699 -0.05226 0.67324 0.011598 -0.05226 0.68668 0.011598 -0.029192 0.68668 0.02298 -0.029192 0.691 0.02298 -0.05226 0.691 0.02808 -0.05226 0.67757 0.02808 -0.029192 0.67757 0.02808 -0.029192 0.67757 0.02808 -0.05226 0.67757 0.016699 -0.05226 0.67324 0.016699 -0.029192 0.67324 0.011598 -0.029192 0.68668 0.011598 -0.05226 0.68668 0.02298 -0.05226 0.691 0.02298 -0.029192 0.691 0.01115 -0.030115 0.72273 0.016251 -0.030115 0.70929 0.0048687 -0.030115 0.70497 -0.00023149 -0.030115 0.71841 0.01115 -0.056011 0.72273 -0.00023149 -0.056011 0.71841 0.0048687 -0.056011 0.70497 0.016251 -0.056011 0.70929 0.0048687 -0.030115 0.70497 0.0048687 -0.056011 0.70497 -0.00023149 -0.056011 0.71841 -0.00023149 -0.030115 0.71841 0.01115 -0.030115 0.72273 0.01115 -0.056011 0.72273 0.016251 -0.056011 0.70929 0.016251 -0.030115 0.70929 0.016251 -0.030115 0.70929 0.016251 -0.056011 0.70929 0.0048687 -0.056011 0.70497 0.0048687 -0.030115 0.70497 -0.00023149 -0.030115 0.71841 -0.00023149 -0.056011 0.71841 0.01115 -0.056011 0.72273 0.01115 -0.030115 0.72273 0.035617 0.025621 0.65981 0.024235 0.025621 0.65549 0.029335 0.025621 0.64206 0.040717 0.025621 0.64638 0.035617 0.049367 0.65981 0.040717 0.049367 0.64638 0.029335 0.049367 0.64206 0.024235 0.049367 0.65549 0.029335 0.025621 0.64206 0.024235 0.025621 0.65549 0.024235 0.049367 0.65549 0.029335 0.049367 0.64206 0.035617 0.025621 0.65981 0.040717 0.025621 0.64638 0.040717 0.049367 0.64638 0.035617 0.049367 0.65981 0.040717 0.025621 0.64638 0.029335 0.025621 0.64206 0.029335 0.049367 0.64206 0.040717 0.049367 0.64638 0.024235 0.025621 0.65549 0.035617 0.025621 0.65981 0.035617 0.049367 0.65981 0.024235 0.049367 0.65549 0.02298 0.029192 0.691 0.011598 0.029192 0.68668 0.016699 0.029192 0.67324 0.02808 0.029192 0.67757 0.02298 0.05226 0.691 0.02808 0.05226 0.67757 0.016699 0.05226 0.67324 0.011598 0.05226 0.68668 0.016699 0.029192 0.67324 0.011598 0.029192 0.68668 0.011598 0.05226 0.68668 0.016699 0.05226 0.67324 0.02298 0.029192 0.691 0.02808 0.029192 0.67757 0.02808 0.05226 0.67757 0.02298 0.05226 0.691 0.02808 0.029192 0.67757 0.016699 0.029192 0.67324 0.016699 0.05226 0.67324 0.02808 0.05226 0.67757 0.011598 0.029192 0.68668 0.02298 0.029192 0.691 0.02298 0.05226 0.691 0.011598 0.05226 0.68668 0.01115 0.030115 0.72273 -0.00023149 0.030115 0.71841 0.0048687 0.030115 0.70497 0.016251 0.030115 0.70929 0.01115 0.056011 0.72273 0.016251 0.056011 0.70929 0.0048687 0.056011 0.70497 -0.00023149 0.056011 0.71841 0.0048687 0.030115 0.70497 -0.00023149 0.030115 0.71841 -0.00023149 0.056011 0.71841 0.0048687 0.056011 0.70497 0.01115 0.030115 0.72273 0.016251 0.030115 0.70929 0.016251 0.056011 0.70929 0.01115 0.056011 0.72273 0.016251 0.030115 0.70929 0.0048687 0.030115 0.70497 0.0048687 0.056011 0.70497 0.016251 0.056011 0.70929 -0.00023149 0.030115 0.71841 0.01115 0.030115 0.72273 0.01115 0.056011 0.72273 -0.00023149 0.056011 0.71841 0.032294 -0.028224 0.65144 0.032294 -0.035454 0.65144 0.036456 -0.035454 0.65335 0.036456 -0.028224 0.65335 0.045129 -0.027293 0.6206 0.045129 -0.020063 0.6206 0.036456 -0.028224 0.65335 0.036456 -0.035454 0.65335 0.040547 -0.020063 0.6206 0.040547 -0.027293 0.6206 0.032294 -0.035454 0.65144 0.032294 -0.028224 0.65144 0.040547 -0.027293 0.6206 0.045129 -0.027293 0.6206 0.036456 -0.035454 0.65335 0.032294 -0.035454 0.65144 0.040547 -0.018202 0.6206 0.040547 -0.010972 0.6206 0.040547 -0.010972 -0.011221 0.040547 -0.018202 -0.011221 0.045129 -0.018202 0.6206 0.045129 -0.018202 -0.011221 0.045129 -0.010972 -0.011221 0.045129 -0.010972 0.6206 0.040547 -0.018202 -0.011221 0.040547 -0.010972 -0.011221 0.045129 -0.010972 -0.011221 0.045129 -0.018202 -0.011221 0.040547 -0.010972 -0.011221 0.040547 -0.010972 0.6206 0.045129 -0.010972 0.6206 0.045129 -0.010972 -0.011221 0.045129 -0.010972 0.6206 0.040547 -0.010972 0.6206 0.017785 -0.030004 0.68543 0.021947 -0.030004 0.68735 0.040547 -0.018202 0.6206 0.040547 -0.018202 -0.011221 0.045129 -0.018202 -0.011221 0.045129 -0.018202 0.6206 0.017785 -0.030004 0.68543 0.017785 -0.037234 0.68543 0.021947 -0.037234 0.68735 0.021947 -0.030004 0.68735 0.045129 -0.018202 0.6206 0.045129 -0.010972 0.6206 0.021947 -0.030004 0.68735 0.021947 -0.037234 0.68735 0.040547 -0.010972 0.6206 0.040547 -0.018202 0.6206 0.017785 -0.037234 0.68543 0.017785 -0.030004 0.68543 0.040547 -0.018202 0.6206 0.045129 -0.018202 0.6206 0.021947 -0.037234 0.68735 0.017785 -0.037234 0.68543 0.040547 -0.0088822 0.62038 0.040547 -0.001652 0.62038 0.040547 -0.001652 -0.011442 0.040547 -0.0088821 -0.011442 0.045129 -0.0088822 0.62038 0.045129 -0.0088821 -0.011442 0.045129 -0.001652 -0.011442 0.045129 -0.001652 0.62038 0.040547 -0.0088821 -0.011442 0.040547 -0.001652 -0.011442 0.045129 -0.001652 -0.011442 0.045129 -0.0088821 -0.011442 0.040547 -0.001652 -0.011442 0.040547 -0.001652 0.62038 0.045129 -0.001652 0.62038 0.045129 -0.001652 -0.011442 0.045129 -0.001652 0.62038 0.040547 -0.001652 0.62038 0.0067404 -0.031826 0.71595 0.010902 -0.031826 0.71787 0.040547 -0.0088822 0.62038 0.040547 -0.0088821 -0.011442 0.045129 -0.0088821 -0.011442 0.045129 -0.0088822 0.62038 0.0067404 -0.031826 0.71595 0.0067404 -0.039057 0.71595 0.010902 -0.039057 0.71787 0.010902 -0.031826 0.71787 0.045129 -0.0088822 0.62038 0.045129 -0.001652 0.62038 0.010902 -0.031826 0.71787 0.010902 -0.039057 0.71787 0.040547 -0.001652 0.62038 0.040547 -0.0088822 0.62038 0.0067404 -0.039057 0.71595 0.0067404 -0.031826 0.71595 0.040547 -0.0088822 0.62038 0.045129 -0.0088822 0.62038 0.010902 -0.039057 0.71787 0.0067404 -0.039057 0.71595 0.040547 0.02702 0.6206 0.040547 0.02702 -0.011221 0.040547 0.019556 -0.011221 0.040547 0.019556 0.6206 0.045129 0.02702 0.6206 0.045129 0.019556 0.6206 0.045129 0.019556 -0.011221 0.045129 0.02702 -0.011221 0.040547 0.02702 -0.011221 0.045129 0.02702 -0.011221 0.045129 0.019556 -0.011221 0.040547 0.019556 -0.011221 0.040547 0.019556 -0.011221 0.045129 0.019556 -0.011221 0.045129 0.019556 0.6206 0.040547 0.019556 0.6206 0.045129 0.019556 0.6206 0.036456 0.02798 0.65335 0.032294 0.02798 0.65144 0.040547 0.019556 0.6206 0.040547 0.02702 0.6206 0.045129 0.02702 0.6206 0.045129 0.02702 -0.011221 0.040547 0.02702 -0.011221 0.032294 0.02798 0.65144 0.036456 0.02798 0.65335 0.036456 0.035444 0.65335 0.032294 0.035444 0.65144 0.045129 0.02702 0.6206 0.036456 0.035444 0.65335 0.036456 0.02798 0.65335 0.045129 0.019556 0.6206 0.040547 0.019556 0.6206 0.032294 0.02798 0.65144 0.032294 0.035444 0.65144 0.040547 0.02702 0.6206 0.040547 0.02702 0.6206 0.032294 0.035444 0.65144 0.036456 0.035444 0.65335 0.045129 0.02702 0.6206 0.040547 0.017635 0.6206 0.040547 0.017635 -0.011221 0.040547 0.010172 -0.011221 0.040547 0.010172 0.6206 0.045129 0.017635 0.6206 0.045129 0.010172 0.6206 0.045129 0.010172 -0.011221 0.045129 0.017635 -0.011221 0.040547 0.017635 -0.011221 0.045129 0.017635 -0.011221 0.045129 0.010172 -0.011221 0.040547 0.010172 -0.011221 0.040547 0.010172 -0.011221 0.045129 0.010172 -0.011221 0.045129 0.010172 0.6206 0.040547 0.010172 0.6206 0.045129 0.010172 0.6206 0.021947 0.029818 0.68735 0.017785 0.029818 0.68543 0.040547 0.010172 0.6206 0.040547 0.017635 0.6206 0.045129 0.017635 0.6206 0.045129 0.017635 -0.011221 0.040547 0.017635 -0.011221 0.017785 0.029818 0.68543 0.021947 0.029818 0.68735 0.021947 0.037282 0.68735 0.017785 0.037282 0.68543 0.045129 0.017635 0.6206 0.021947 0.037282 0.68735 0.021947 0.029818 0.68735 0.045129 0.010172 0.6206 0.040547 0.010172 0.6206 0.017785 0.029818 0.68543 0.017785 0.037282 0.68543 0.040547 0.017635 0.6206 0.040547 0.017635 0.6206 0.017785 0.037282 0.68543 0.021947 0.037282 0.68735 0.045129 0.017635 0.6206 0.040547 0.0080141 0.62038 0.040547 0.0080141 -0.011442 0.040547 0.00055057 -0.011442 0.040547 0.00055052 0.62038 0.045129 0.0080141 0.62038 0.045129 0.00055052 0.62038 0.045129 0.00055057 -0.011442 0.045129 0.0080141 -0.011442 0.040547 0.0080141 -0.011442 0.045129 0.0080141 -0.011442 0.045129 0.00055057 -0.011442 0.040547 0.00055057 -0.011442 0.040547 0.00055057 -0.011442 0.045129 0.00055057 -0.011442 0.045129 0.00055052 0.62038 0.040547 0.00055052 0.62038 0.045129 0.00055052 0.62038 0.010902 0.031699 0.71787 0.0067404 0.031699 0.71595 0.040547 0.00055052 0.62038 0.040547 0.0080141 0.62038 0.045129 0.0080141 0.62038 0.045129 0.0080141 -0.011442 0.040547 0.0080141 -0.011442 0.0067404 0.031699 0.71595 0.010902 0.031699 0.71787 0.010902 0.039163 0.71787 0.0067404 0.039163 0.71595 0.045129 0.0080141 0.62038 0.010902 0.039163 0.71787 0.010902 0.031699 0.71787 0.045129 0.00055052 0.62038 0.040547 0.00055052 0.62038 0.0067404 0.031699 0.71595 0.0067404 0.039163 0.71595 0.040547 0.0080141 0.62038 0.040547 0.0080141 0.62038 0.0067404 0.039163 0.71595 0.010902 0.039163 0.71787 0.045129 0.0080141 0.62038 0.040422 -0.023618 -0.0067277 0.046793 -0.023618 -0.0067277 0.046793 -0.019113 -0.011233 0.040422 -0.019113 -0.011233 0.040422 -0.019113 -0.011233 0.046793 -0.019113 -0.011233 0.046793 -0.023618 -0.015738 0.040422 -0.023618 -0.015738 0.040422 -0.023618 -0.015738 0.046793 -0.023618 -0.015738 0.046793 -0.028124 -0.011233 0.040422 -0.028124 -0.011233 0.040422 -0.028124 -0.011233 0.046793 -0.028124 -0.011233 0.046793 -0.023618 -0.0067277 0.040422 -0.023618 -0.0067277 0.040422 -0.019113 -0.011233 0.040422 -0.023618 -0.015738 0.040422 -0.028124 -0.011233 0.040422 -0.023618 -0.0067277 0.046793 -0.023618 -0.015738 0.046793 -0.019113 -0.011233 0.046793 -0.023618 -0.0067277 0.046793 -0.028124 -0.011233 0.040422 -0.014692 -0.0067277 0.046793 -0.014692 -0.0067277 0.046793 -0.010187 -0.011233 0.040422 -0.010187 -0.011233 0.040422 -0.010187 -0.011233 0.046793 -0.010187 -0.011233 0.046793 -0.014692 -0.015738 0.040422 -0.014692 -0.015738 0.040422 -0.014692 -0.015738 0.046793 -0.014692 -0.015738 0.046793 -0.019197 -0.011233 0.040422 -0.019197 -0.011233 0.040422 -0.019197 -0.011233 0.046793 -0.019197 -0.011233 0.046793 -0.014692 -0.0067277 0.040422 -0.014692 -0.0067277 0.040422 -0.010187 -0.011233 0.040422 -0.014692 -0.015738 0.040422 -0.019197 -0.011233 0.040422 -0.014692 -0.0067277 0.046793 -0.014692 -0.015738 0.046793 -0.010187 -0.011233 0.046793 -0.014692 -0.0067277 0.046793 -0.019197 -0.011233 0.040422 -0.0054291 -0.0067277 0.046793 -0.0054291 -0.0067277 0.046793 -0.00092395 -0.011233 0.040422 -0.00092395 -0.011233 0.040422 -0.00092395 -0.011233 0.046793 -0.00092395 -0.011233 0.046793 -0.0054291 -0.015738 0.040422 -0.0054291 -0.015738 0.040422 -0.0054291 -0.015738 0.046793 -0.0054291 -0.015738 0.046793 -0.0099343 -0.011233 0.040422 -0.0099343 -0.011233 0.040422 -0.0099343 -0.011233 0.046793 -0.0099343 -0.011233 0.046793 -0.0054291 -0.0067277 0.040422 -0.0054291 -0.0067277 0.040422 -0.00092395 -0.011233 0.040422 -0.0054291 -0.015738 0.040422 -0.0099343 -0.011233 0.040422 -0.0054291 -0.0067277 0.046793 -0.0054291 -0.015738 0.046793 -0.00092395 -0.011233 0.046793 -0.0054291 -0.0067277 0.046793 -0.0099343 -0.011233 0.040422 0.0042159 -0.0067277 0.046793 0.0042159 -0.0067277 0.046793 0.0087211 -0.011233 0.040422 0.0087211 -0.011233 0.040422 0.0087211 -0.011233 0.046793 0.0087211 -0.011233 0.046793 0.0042159 -0.015738 0.040422 0.0042159 -0.015738 0.040422 0.0042159 -0.015738 0.046793 0.0042159 -0.015738 0.046793 -0.00028926 -0.011233 0.040422 -0.00028926 -0.011233 0.040422 -0.00028926 -0.011233 0.046793 -0.00028926 -0.011233 0.046793 0.0042159 -0.0067277 0.040422 0.0042159 -0.0067277 0.040422 0.0087211 -0.011233 0.040422 0.0042159 -0.015738 0.040422 -0.00028926 -0.011233 0.040422 0.0042159 -0.0067277 0.046793 0.0042159 -0.015738 0.046793 0.0087211 -0.011233 0.046793 0.0042159 -0.0067277 0.046793 -0.00028926 -0.011233 0.040422 0.013655 -0.0067277 0.046793 0.013655 -0.0067277 0.046793 0.01816 -0.011233 0.040422 0.01816 -0.011233 0.040422 0.01816 -0.011233 0.046793 0.01816 -0.011233 0.046793 0.013655 -0.015738 0.040422 0.013655 -0.015738 0.040422 0.013655 -0.015738 0.046793 0.013655 -0.015738 0.046793 0.0091496 -0.011233 0.040422 0.0091496 -0.011233 0.040422 0.0091496 -0.011233 0.046793 0.0091496 -0.011233 0.046793 0.013655 -0.0067277 0.040422 0.013655 -0.0067277 0.040422 0.01816 -0.011233 0.040422 0.013655 -0.015738 0.040422 0.0091496 -0.011233 0.040422 0.013655 -0.0067277 0.046793 0.013655 -0.015738 0.046793 0.01816 -0.011233 0.046793 0.013655 -0.0067277 0.046793 0.0091496 -0.011233 0.040422 0.023219 -0.0067277 0.046793 0.023219 -0.0067277 0.046793 0.027724 -0.011233 0.040422 0.027724 -0.011233 0.040422 0.027724 -0.011233 0.046793 0.027724 -0.011233 0.046793 0.023219 -0.015738 0.040422 0.023219 -0.015738 0.040422 0.023219 -0.015738 0.046793 0.023219 -0.015738 0.046793 0.018713 -0.011233 0.040422 0.018713 -0.011233 0.040422 0.018713 -0.011233 0.046793 0.018713 -0.011233 0.046793 0.023219 -0.0067277 0.040422 0.023219 -0.0067277 0.040422 0.027724 -0.011233 0.040422 0.023219 -0.015738 0.040422 0.018713 -0.011233 0.040422 0.023219 -0.0067277 0.046793 0.023219 -0.015738 0.046793 0.027724 -0.011233 0.046793 0.023219 -0.0067277 0.046793 0.018713 -0.011233</float_array><technique_common><accessor source="#g-p-a" count="875" stride="3"><param name="X" type="float"/><param name="Y" type="float"/><param name="Z" type="float"/></accessor></technique_common></source>
<source id="g-n"><float_array id="g-n-a" count="2625">1.269e-16 -0.5715 -0.82061 1.269e-16 -0.5715 -0.82061 1.269e-16 -0.5715 -0.82061 1.269e-16 -0.5715 -0.82061 2.2191e-16 -0.99938 0.035106 2.2191e-16 -0.99938 0.035106 2.2191e-16 -0.99938 0.035106 2.2191e-16 -0.99938 0.035106 -1.5576e-16 0.70147 0.7127 -1.5576e-16 0.70147 0.7127 -1.5576e-16 0.70147 0.7127 -1.5576e-16 0.70147 0.7127 -2.1432e-16 0.9652 -0.26152 -2.1432e-16 0.9652 -0.26152 -2.1432e-16 0.9652 -0.26152 -2.1432e-16 0.9652 -0.26152 -1 -2.2204e-16 0 -1 -2.2204e-16 0 -1 -2.2204e-16 0 -1 -2.2204e-16 0 1 2.2204e-16 0 1 2.2204e-16 0 1 2.2204e-16 0 1 2.2204e-16 0 1 2.2204e-16 0 1 2.2204e-16 0 1 2.2204e-16 0 1 2.2204e-16 0 1 2.2204e-16 0 1 2.2204e-16 0 -1 -2.2204e-16 0 -1 -2.2204e-16 0 -1 -2.2204e-16 0 -1 -2.2204e-16 0 -1 -2.2204e-16 0 -1 -2.2204e-16 0 1.5576e-16 -0.70147 0.7127 1.5576e-16 -0.70147 0.7127 1.5576e-16 -0.70147 0.7127 1.5576e-16 -0.70147 0.7127 -4.9295e-17 0.222 0.97505 -4.9295e-17 0.222 0.97505 -4.9295e-17 0.222 0.97505 -4.9295e-17 0.222 0.97505 -1.269e-16 0.5715 -0.82061 -1.269e-16 0.5715 -0.82061 -1.269e-16 0.5715 -0.82061 -1.269e-16 0.5715 -0.82061 3.5437e-17 -0.15959 -0.98718 3.5437e-17 -0.15959 -0.98718 3.5437e-17 -0.15959 -0.98718 3.5437e-17 -0.15959 -0.98718 -1 2.0146e-09 -1.6591e-07 -1 3.2803e-09 -1.7662e-07 -1 1.0649e-08 -1.9294e-07 -1 2.6648e-08 -1.6664e-07 -1 -6.7881e-08 -2.7346e-07 -1 -3.8148e-08 -2.7304e-07 -1 -3.6653e-09 -1.8002e-07 -1 -1.9212e-08 -1.8378e-07 1 2.2204e-16 0 1 2.2204e-16 0 1 2.2204e-16 0 1 2.2204e-16 0 1 2.2204e-16 0 1 2.2204e-16 0 1 2.2204e-16 0 1 2.2204e-16 0 1 2.2204e-16 0 1 2.2204e-16 0 -1 1.1002e-13 -3.225e-07 -1 2.5901e-08 -2.4865e-07 -1 -2.2204e-16 0 -1 -2.2204e-16 0 2.1432e-16 -0.9652 0.26152 2.1432e-16 -0.9652 0.26152 2.1432e-16 -0.9652 0.26152 2.1432e-16 -0.9652 0.26152 1 2.2204e-16 0 1 2.2204e-16 0 1 2.2204e-16 0 1 2.2204e-16 0 -1 -2.2204e-16 0 -1 -2.2204e-16 0 1.8252e-16 -0.82199 0.56951 1.8252e-16 -0.82199 0.56951 1.8252e-16 -0.82199 0.56951 1.8252e-16 -0.82199 0.56951 1 2.2204e-16 0 1 2.2204e-16 0 -1 -2.2204e-16 0 -1 -2.2204e-16 0 -1 -2.2204e-16 0 -1 -2.2204e-16 0 -1 -2.2204e-16 0 3.36e-07 0.82198 0.56951 1.776e-07 0.82198 0.56951 -1.8252e-16 0.82198 0.56951 1.584e-07 0.82198 0.56951 1.5207e-07 -0.94397 -0.33004 3.4616e-07 -0.94397 -0.33004 1.9409e-07 -0.94397 -0.33004 2.096e-16 -0.94397 -0.33004 1 2.2204e-16 0 1 2.2204e-16 0 1 2.2204e-16 0 1 2.2204e-16 0 1 2.2204e-16 0 -2.2191e-16 0.99938 0.035106 -2.2191e-16 0.99938 0.035106 -2.2191e-16 0.99938 0.035106 -2.2191e-16 0.99938 0.035106 -1 -2.2204e-16 0 -1 -2.2204e-16 0 -2.096e-16 0.94397 -0.33004 -2.096e-16 0.94397 -0.33004 -2.096e-16 0.94397 -0.33004 -2.096e-16 0.94397 -0.33004 -1 -2.2204e-16 0 -1.9648e-07 0.95402 -0.29973 -5.1876e-08 0.95402 -0.29973 -2.1184e-16 0.95402 -0.29973 -1.4461e-07 0.95402 -0.29973 1 2.2204e-16 0 1 2.2204e-16 0 1 2.2204e-16 0 1 2.2204e-16 0 -1 -2.2204e-16 0 -1 -2.2204e-16 0 -1 -2.2204e-16 0 -5.9175e-08 -0.94121 0.33782 -2.2145e-07 -0.94121 0.33782 -1.6228e-07 -0.94121 0.33782 2.0899e-16 -0.94121 0.33782 1 2.2204e-16 0 1 2.2204e-16 0 1 2.2204e-16 0 1 2.2204e-16 0 -3.5437e-17 0.15959 -0.98718 -3.5437e-17 0.15959 -0.98718 -3.5437e-17 0.15959 -0.98718 -3.5437e-17 0.15959 -0.98718 4.9295e-17 -0.222 0.97505 4.9295e-17 -0.222 0.97505 4.9295e-17 -0.222 0.97505 4.9295e-17 -0.222 0.97505 2.2761e-07 -0.95402 -0.29973 3.1437e-07 -0.95402 -0.29973 2.8325e-07 -0.95402 -0.29973 1.9648e-07 -0.95402 -0.29973 1.9931e-07 0.94121 0.33782 2.1554e-07 0.94121 0.33782 2.2145e-07 0.94121 0.33782 2.0523e-07 0.94121 0.33782 -1 -2.2204e-16 0 -1 -2.2204e-16 0 2.1432e-16 -0.9652 -0.26152 2.1432e-16 -0.9652 -0.26152 2.1432e-16 -0.9652 -0.26152 2.1432e-16 -0.9652 -0.26152 -1 -2.2204e-16 0 -1 -2.2204e-16 0 -1 -2.2204e-16 0 -2.1432e-16 0.9652 0.26152 -2.1432e-16 0.9652 0.26152 -2.1432e-16 0.9652 0.26152 -2.1432e-16 0.9652 0.26152 -2.1322e-16 0.96026 0.2791 -2.1322e-16 0.96026 0.2791 -2.1322e-16 0.96026 0.2791 -2.1322e-16 0.96026 0.2791 2.1322e-16 -0.96026 0.2791 2.1322e-16 -0.96026 0.2791 2.1322e-16 -0.96026 0.2791 2.1322e-16 -0.96026 0.2791 -6.6405e-17 0.29906 -0.95423 -6.6405e-17 0.29906 -0.95423 -6.6405e-17 0.29906 -0.95423 -6.6405e-17 0.29906 -0.95423 -6.587e-17 0.29665 0.95499 -6.587e-17 0.29665 0.95499 -6.587e-17 0.29665 0.95499 -6.587e-17 0.29665 0.95499 1 2.6346e-08 3.7574e-07 1 2.2204e-16 4.5089e-07 1 1.1293e-07 7.9788e-07 1 4.736e-08 7.5745e-07 1 -5.7744e-08 4.0333e-07 1 -3.128e-07 9.9806e-07 1 2.2204e-16 0 1 2.2204e-16 0 1 2.2204e-16 0 2.1273e-16 -0.95807 -0.28653 2.1273e-16 -0.95807 -0.28653 2.1273e-16 -0.95807 -0.28653 2.1273e-16 -0.95807 -0.28653 6.587e-17 -0.29665 0.95499 6.587e-17 -0.29665 0.95499 6.587e-17 -0.29665 0.95499 6.587e-17 -0.29665 0.95499 -2.1273e-16 0.95807 -0.28653 -2.1273e-16 0.95807 -0.28653 -2.1273e-16 0.95807 -0.28653 -2.1273e-16 0.95807 -0.28653 6.6405e-17 -0.29906 -0.95423 6.6405e-17 -0.29906 -0.95423 6.6405e-17 -0.29906 -0.95423 6.6405e-17 -0.29906 -0.95423 -6.8259e-07 -1.5156e-22 -1 -6.8259e-07 -1.5156e-22 -1 -6.8259e-07 -1.5156e-22 -1 -6.8259e-07 -1.5156e-22 -1 2.2204e-16 -1 -1.0108e-07 -1.0687e-14 -1 -9.6512e-08 2.2204e-16 -1 0 2.2204e-16 -1 0 0.94058 -0.0014605 0.33957 0.94079 2.089e-16 0.33898 0.94012 -0.0045641 0.34081 0.93995 -0.005698 0.34126 -2.2204e-16 1 1.9677e-07 1.0687e-14 1 1.9696e-07 1.3153e-13 1 1.9302e-07 1.2185e-13 1 1.9302e-07 -1 -2.2204e-16 0 -1 -2.2204e-16 0 -1 -2.2204e-16 0 -1 -2.2204e-16 0 1 2.2204e-16 9.0835e-08 1 2.2204e-16 1.8167e-07 1 2.2204e-16 1.8167e-07 1 2.2204e-16 9.0835e-08 1 2.2204e-16 0 1 2.2204e-16 0 -0.98783 -2.1934e-16 0.15554 -0.98783 -2.1934e-16 0.15554 -0.98783 -2.1934e-16 0.15554 -0.98783 -2.1934e-16 0.15554 -2.2204e-16 1 2.0089e-07 -2.2204e-16 1 2.0089e-07 -1.2185e-13 -1 -1.9302e-07 -1.3153e-13 -1 -1.9302e-07 0 0 1 0 0 1 0 0 1 0 0 1 2.719e-17 -0.12245 -0.99247 2.719e-17 -0.12245 -0.99247 2.719e-17 -0.12245 -0.99247 2.719e-17 -0.12245 -0.99247 0.99841 -0.056433 -3.7951e-08 0.99841 -0.056433 0 0.99841 -0.056433 -2.1523e-08 0.99841 -0.056433 -5.6727e-08 -1 -2.2204e-16 0 -1 -2.2204e-16 0 -1 -2.2204e-16 0 -1 -2.2204e-16 0 2.2204e-16 -1 0 2.2204e-16 -1 0 2.2204e-16 -1 0 2.2204e-16 -1 0 -2.2204e-16 1 0 -2.2204e-16 1 0 -2.2204e-16 1 0 -2.2204e-16 1 0 -1 -2.2204e-16 0 -1 -2.2204e-16 0 -1 -2.2204e-16 0 -1 -2.2204e-16 0 0.99841 0.056433 0 0.99841 0.056433 0 0.99841 0.056433 0 0.99841 0.056433 0 1 2.2204e-16 0 1 2.2204e-16 0 1 2.2204e-16 0 1 2.2204e-16 0 -2.7191e-17 0.12246 -0.99247 -2.7191e-17 0.12246 -0.99247 -2.7191e-17 0.12246 -0.99247 -2.7191e-17 0.12246 -0.99247 0 0 -1 0 0 -1 0 0 -1 0 0 -1 0 0 1 0 0 1 0 0 1 0 0 1 -0.43288 0.27253 0.85927 -0.43288 0.27253 0.85927 -0.43288 0.27253 0.85927 -0.43288 0.27253 0.85927 0.0053603 -0.99898 -0.044871 0.0029525 -0.99898 -0.04516 0.01871 -0.99889 -0.043261 0.021617 -0.99885 -0.042909 0.0029543 0.99898 -0.04516 0.0053618 0.99898 -0.04487 0.021616 0.99885 -0.042908 0.01871 0.99889 -0.04326 -0.93534 -2.0769e-16 -0.35375 -0.93541 -0.00053072 -0.35357 -0.93562 -0.0021325 -0.35301 -0.93554 -0.0015472 -0.35321 -0.99674 -2.2132e-16 -0.080626 -0.99674 -2.2132e-16 -0.080626 -0.99674 -2.2132e-16 -0.080626 -0.99674 -2.2132e-16 -0.080626 -2.0005e-16 0.90092 -0.43398 0.017959 0.89088 -0.45388 0.030576 0.88338 -0.46766 0.011715 0.89446 -0.447 0.017958 -0.89088 -0.45388 2.0005e-16 -0.90092 -0.43398 0.011714 -0.89446 -0.447 0.030574 -0.88338 -0.46766 0.99312 2.2052e-16 0.11707 0.99312 2.2052e-16 0.11707 0.99312 2.2052e-16 0.11707 0.99312 2.2052e-16 0.11707 0.99312 2.2052e-16 0.11707 0.99312 2.2052e-16 0.11707 -0.99674 -2.2132e-16 -0.080626 -0.99674 -2.2132e-16 -0.080626 -0.93566 -2.0776e-16 -0.35291 -0.93557 0.00053148 -0.35315 -0.93534 0.0019075 -0.35375 -0.93541 0.0014944 -0.35357 -0.43288 -0.27253 0.85927 -0.43288 -0.27253 0.85927 -0.43288 -0.27253 0.85927 -0.43288 -0.27253 0.85927 -0.98783 -2.1934e-16 0.15554 -0.98783 -2.1934e-16 0.15554 1 2.2204e-16 0 1 2.2204e-16 9.0835e-08 1 2.2204e-16 1.8167e-07 -1 -2.2204e-16 0 -1 -2.2204e-16 0 0.94013 0.0014548 0.3408 0.93997 2.0871e-16 0.34127 0.9405 0.0047071 0.33975 0.94068 0.0063104 0.33924 -6.8259e-07 -1.5156e-22 -1 -6.8259e-07 -1.5156e-22 -1 -1 -2.2204e-16 0 -1 -2.2204e-16 0 -1 -2.2204e-16 0 -1 -2.2204e-16 0 1 2.2204e-16 6.542e-08 1 2.2204e-16 6.542e-08 1 2.2204e-16 6.542e-08 1 2.2204e-16 6.542e-08 0 0 -1 0 0 -1 0 0 -1 0 0 -1 -2.2204e-16 1 6.9508e-08 -2.2204e-16 1 6.9508e-08 -2.2204e-16 1 6.9508e-08 -2.2204e-16 1 6.9508e-08 -2.1546e-16 0.97033 0.24178 -0.007674 0.97053 0.24087 -0.10498 0.96797 0.22808 -0.095239 0.96865 0.22947 2.2204e-16 -1 -1.3902e-07 2.2204e-16 -1 -1.3902e-07 2.2204e-16 -1 -1.3902e-07 2.2204e-16 -1 -1.3902e-07 -2.2204e-16 1 0 -2.2204e-16 1 0 -2.2204e-16 1 0 -2.2204e-16 1 0 2.2204e-16 -1 0 2.2204e-16 -1 0 2.2204e-16 -1 0 2.2204e-16 -1 0 -0.93491 -2.0759e-16 -0.35489 -0.93491 -2.0759e-16 -0.35489 -0.93491 -2.0759e-16 -0.35489 -0.93491 -2.0759e-16 -0.35489 0.93491 2.0759e-16 0.35488 0.93491 2.0759e-16 0.35488 0.93491 2.0759e-16 0.35488 0.93491 2.0759e-16 0.35488 0.35488 7.8799e-17 -0.93491 0.35488 7.8799e-17 -0.93491 0.35488 7.8799e-17 -0.93491 0.35488 7.8799e-17 -0.93491 -0.35488 -7.88e-17 0.93491 -0.35488 -7.88e-17 0.93491 -0.35488 -7.88e-17 0.93491 -0.35488 -7.88e-17 0.93491 -2.2204e-16 1 0 -2.2204e-16 1 0 -2.2204e-16 1 0 -2.2204e-16 1 0 2.2204e-16 -1 0 2.2204e-16 -1 0 2.2204e-16 -1 0 2.2204e-16 -1 0 -0.93491 -2.0759e-16 -0.35488 -0.93491 -2.0759e-16 -0.35488 -0.93491 -2.0759e-16 -0.35488 -0.93491 -2.0759e-16 -0.35488 0.93491 2.0759e-16 0.35488 0.93491 2.0759e-16 0.35488 0.93491 2.0759e-16 0.35488 0.93491 2.0759e-16 0.35488 0.35488 7.8799e-17 -0.93491 0.35488 7.8799e-17 -0.93491 0.35488 7.8799e-17 -0.93491 0.35488 7.8799e-17 -0.93491 -0.35488 -7.88e-17 0.93491 -0.35488 -7.88e-17 0.93491 -0.35488 -7.88e-17 0.93491 -0.35488 -7.88e-17 0.93491 -2.2204e-16 1 0 -2.2204e-16 1 0 -2.2204e-16 1 0 -2.2204e-16 1 0 2.2204e-16 -1 0 2.2204e-16 -1 0 2.2204e-16 -1 0 2.2204e-16 -1 0 -0.93491 -2.0759e-16 -0.35489 -0.93491 -2.0759e-16 -0.35489 -0.93491 -2.0759e-16 -0.35489 -0.93491 -2.0759e-16 -0.35489 0.93491 2.0759e-16 0.35489 0.93491 2.0759e-16 0.35489 0.93491 2.0759e-16 0.35489 0.93491 2.0759e-16 0.35489 0.35488 7.8799e-17 -0.93491 0.35488 7.8799e-17 -0.93491 0.35488 7.8799e-17 -0.93491 0.35488 7.8799e-17 -0.93491 -0.35488 -7.8799e-17 0.93491 -0.35488 -7.8799e-17 0.93491 -0.35488 -7.8799e-17 0.93491 -0.35488 -7.8799e-17 0.93491 2.2204e-16 -1 0 2.2204e-16 -1 0 2.2204e-16 -1 0 2.2204e-16 -1 0 -2.2204e-16 1 0 -2.2204e-16 1 0 -2.2204e-16 1 0 -2.2204e-16 1 0 -0.93491 -2.0759e-16 -0.35489 -0.93491 -2.0759e-16 -0.35489 -0.93491 -2.0759e-16 -0.35489 -0.93491 -2.0759e-16 -0.35489 0.93491 2.0759e-16 0.35488 0.93491 2.0759e-16 0.35488 0.93491 2.0759e-16 0.35488 0.93491 2.0759e-16 0.35488 0.35488 7.8799e-17 -0.93491 0.35488 7.8799e-17 -0.93491 0.35488 7.8799e-17 -0.93491 0.35488 7.8799e-17 -0.93491 -0.35488 -7.88e-17 0.93491 -0.35488 -7.88e-17 0.93491 -0.35488 -7.88e-17 0.93491 -0.35488 -7.88e-17 0.93491 2.2204e-16 -1 0 2.2204e-16 -1 0 2.2204e-16 -1 0 2.2204e-16 -1 0 -1.0207e-06 1 2.6889e-06 -1.0207e-06 1 2.6889e-06 -1.0207e-06 1 2.6889e-06 -1.0207e-06 1 2.6889e-06 -0.93491 -2.0759e-16 -0.35488 -0.93491 -2.0759e-16 -0.35488 -0.93491 -2.0759e-16 -0.35488 -0.93491 -2.0759e-16 -0.35488 0.93491 2.0759e-16 0.35488 0.93491 2.0759e-16 0.35488 0.93491 2.0759e-16 0.35488 0.93491 2.0759e-16 0.35488 0.35488 7.8799e-17 -0.93491 0.35488 7.8799e-17 -0.93491 0.35488 7.8799e-17 -0.93491 0.35488 7.8799e-17 -0.93491 -0.35488 -7.88e-17 0.93491 -0.35488 -7.88e-17 0.93491 -0.35488 -7.88e-17 0.93491 -0.35488 -7.88e-17 0.93491 2.2204e-16 -1 0 2.2204e-16 -1 0 2.2204e-16 -1 0 2.2204e-16 -1 0 -2.2204e-16 1 0 -2.2204e-16 1 0 -2.2204e-16 1 0 -2.2204e-16 1 0 -0.93491 -2.0759e-16 -0.35489 -0.93491 -2.0759e-16 -0.35489 -0.93491 -2.0759e-16 -0.35489 -0.93491 -2.0759e-16 -0.35489 0.93491 2.0759e-16 0.35489 0.93491 2.0759e-16 0.35489 0.93491 2.0759e-16 0.35489 0.93491 2.0759e-16 0.35489 0.35488 7.8799e-17 -0.93491 0.35488 7.8799e-17 -0.93491 0.35488 7.8799e-17 -0.93491 0.35488 7.8799e-17 -0.93491 -0.35488 -7.8799e-17 0.93491 -0.35488 -7.8799e-17 0.93491 -0.35488 -7.8799e-17 0.93491 -0.35488 -7.8799e-17 0.93491 -0.41812 -9.2841e-17 0.90839 -0.41812 -9.2841e-17 0.90839 -0.41812 -9.2841e-17 0.90839 -0.41812 -9.2841e-17 0.90839 0.96667 2.1464e-16 0.25601 0.96667 2.1464e-16 0.25601 0.96667 2.1464e-16 0.25601 0.96667 2.1464e-16 0.25601 -0.96599 -2.1449e-16 -0.25857 -0.96599 -2.1449e-16 -0.25857 -0.96599 -2.1449e-16 -0.25857 -0.96599 -2.1449e-16 -0.25857 0.007674 -0.97053 -0.24087 2.1546e-16 -0.97033 -0.24178 0.095238 -0.96865 -0.22946 0.10498 -0.96797 -0.22808 -1 -2.2204e-16 0 -1 -2.2204e-16 0 -1 -2.2204e-16 0 -1 -2.2204e-16 0 1 2.2204e-16 6.542e-08 1 2.2204e-16 6.542e-08 1 2.2204e-16 6.542e-08 1 2.2204e-16 6.542e-08 0 0 -1 0 0 -1 0 0 -1 0 0 -1 -2.2204e-16 1 6.9508e-08 -2.2204e-16 1 6.9508e-08 -2.2204e-16 1 6.9508e-08 -2.2204e-16 1 6.9508e-08 -2.1353e-16 0.96167 0.27421 -0.0037567 0.96194 0.27324 -0.11207 0.96341 0.24348 -0.10751 0.96359 0.2448 2.2204e-16 -1 -1.3697e-07 2.2204e-16 -1 -1.3697e-07 2.2204e-16 -1 -1.3697e-07 2.2204e-16 -1 -1.3697e-07 -0.41812 -9.2841e-17 0.90839 -0.41812 -9.2841e-17 0.90839 -0.41812 -9.2841e-17 0.90839 -0.41812 -9.2841e-17 0.90839 0.94464 2.0975e-16 0.3281 0.94464 2.0975e-16 0.3281 0.94464 2.0975e-16 0.3281 0.94464 2.0975e-16 0.3281 -0.94353 -2.0951e-16 -0.33129 -0.94353 -2.0951e-16 -0.33129 -0.94353 -2.0951e-16 -0.33129 -0.94353 -2.0951e-16 -0.33129 0.0037567 -0.96194 -0.27324 2.1353e-16 -0.96167 -0.27421 0.10751 -0.96359 -0.2448 0.11207 -0.96341 -0.24348 -1 -2.2204e-16 0 -1 -2.2204e-16 0 -1 -2.2204e-16 0 -1 -2.2204e-16 0 1 2.2204e-16 6.542e-08 1 2.2204e-16 6.542e-08 1 2.2204e-16 6.542e-08 1 2.2204e-16 6.542e-08 0 0 -1 0 0 -1 0 0 -1 0 0 -1 -2.2204e-16 1 6.8486e-08 -2.2204e-16 1 6.8486e-08 -2.2204e-16 1 6.8486e-08 -2.2204e-16 1 6.8486e-08 -2.1212e-16 0.95528 0.29569 -0.0027131 0.95551 0.29493 -0.11974 0.95811 0.26015 -0.11646 0.95824 0.26119 2.2204e-16 -1 -1.3697e-07 2.2204e-16 -1 -1.3697e-07 2.2204e-16 -1 -1.3697e-07 2.2204e-16 -1 -1.3697e-07 -0.41811 -9.2838e-17 0.9084 -0.41811 -9.2838e-17 0.9084 -0.41811 -9.2838e-17 0.9084 -0.41811 -9.2838e-17 0.9084 0.94354 2.0951e-16 0.33127 0.94354 2.0951e-16 0.33127 0.94354 2.0951e-16 0.33127 0.94354 2.0951e-16 0.33127 -0.94275 -2.0933e-16 -0.33349 -0.94275 -2.0933e-16 -0.33349 -0.94275 -2.0933e-16 -0.33349 -0.94275 -2.0933e-16 -0.33349 0.0027131 -0.95551 -0.29493 2.1212e-16 -0.95529 -0.29569 0.11646 -0.95824 -0.26119 0.11974 -0.95812 -0.26015 -1 -2.2204e-16 0 -1 -2.2204e-16 0 -1 -2.2204e-16 0 -1 -2.2204e-16 0 1 2.2204e-16 6.542e-08 1 2.2204e-16 6.542e-08 1 2.2204e-16 6.542e-08 1 2.2204e-16 6.542e-08 0 0 -1 0 0 -1 0 0 -1 0 0 -1 2.2204e-16 -1 -6.9508e-08 2.2204e-16 -1 -6.9508e-08 2.2204e-16 -1 -6.9508e-08 2.2204e-16 -1 -6.9508e-08 -0.010198 -0.96567 0.25958 -0.10232 -0.96959 0.2223 -0.094749 -0.96963 0.22547 2.1419e-16 -0.96465 0.26354 -2.2204e-16 1 6.9508e-08 -2.2204e-16 1 6.9508e-08 -2.2204e-16 1 6.9508e-08 -2.2204e-16 1 6.9508e-08 -0.41812 -9.2841e-17 0.90839 -0.41812 -9.2841e-17 0.90839 -0.41812 -9.2841e-17 0.90839 -0.41812 -9.2841e-17 0.90839 0.96667 2.1464e-16 0.25601 0.96667 2.1464e-16 0.25601 0.96667 2.1464e-16 0.25601 0.96667 2.1464e-16 0.25601 -0.96599 -2.1449e-16 -0.25857 -0.96599 -2.1449e-16 -0.25857 -0.96599 -2.1449e-16 -0.25857 -0.96599 -2.1449e-16 -0.25857 -2.1419e-16 0.96465 -0.26354 0.094749 0.96963 -0.22547 0.10232 0.96959 -0.2223 0.010198 0.96567 -0.25958 -1 -2.2204e-16 0 -1 -2.2204e-16 0 -1 -2.2204e-16 0 -1 -2.2204e-16 0 1 2.2204e-16 6.542e-08 1 2.2204e-16 6.542e-08 1 2.2204e-16 6.542e-08 1 2.2204e-16 6.542e-08 0 0 -1 0 0 -1 0 0 -1 0 0 -1 2.2204e-16 -1 -6.8486e-08 2.2204e-16 -1 -6.8486e-08 2.2204e-16 -1 -6.8486e-08 2.2204e-16 -1 -6.8486e-08 -0.0056277 -0.95766 0.28785 -0.1125 -0.96312 0.24442 -0.1085 -0.96315 0.24612 2.125e-16 -0.95702 0.29002 -2.2204e-16 1 6.9508e-08 -2.2204e-16 1 6.9508e-08 -2.2204e-16 1 6.9508e-08 -2.2204e-16 1 6.9508e-08 -0.41812 -9.2841e-17 0.90839 -0.41812 -9.2841e-17 0.90839 -0.41812 -9.2841e-17 0.90839 -0.41812 -9.2841e-17 0.90839 0.94464 2.0975e-16 0.3281 0.94464 2.0975e-16 0.3281 0.94464 2.0975e-16 0.3281 0.94464 2.0975e-16 0.3281 -0.94353 -2.0951e-16 -0.33129 -0.94353 -2.0951e-16 -0.33129 -0.94353 -2.0951e-16 -0.33129 -0.94353 -2.0951e-16 -0.33129 -2.125e-16 0.95702 -0.29002 0.1085 0.96315 -0.24612 0.1125 0.96312 -0.24442 0.0056277 0.95766 -0.28785 -1 -2.2204e-16 0 -1 -2.2204e-16 0 -1 -2.2204e-16 0 -1 -2.2204e-16 0 1 2.2204e-16 6.542e-08 1 2.2204e-16 6.542e-08 1 2.2204e-16 6.542e-08 1 2.2204e-16 6.542e-08 0 0 -1 0 0 -1 0 0 -1 0 0 -1 2.2204e-16 -1 -6.855e-08 2.2204e-16 -1 -6.855e-08 2.2204e-16 -1 -6.855e-08 2.2204e-16 -1 -6.855e-08 -0.0041188 -0.95125 0.30838 -0.12117 -0.95708 0.26327 -0.11825 -0.95712 0.26445 2.1111e-16 -0.95077 0.30988 -2.2204e-16 1 6.8486e-08 -2.2204e-16 1 6.8486e-08 -2.2204e-16 1 6.8486e-08 -2.2204e-16 1 6.8486e-08 -0.41811 -9.2838e-17 0.9084 -0.41811 -9.2838e-17 0.9084 -0.41811 -9.2838e-17 0.9084 -0.41811 -9.2838e-17 0.9084 0.94354 2.0951e-16 0.33127 0.94354 2.0951e-16 0.33127 0.94354 2.0951e-16 0.33127 0.94354 2.0951e-16 0.33127 -0.94275 -2.0933e-16 -0.33349 -0.94275 -2.0933e-16 -0.33349 -0.94275 -2.0933e-16 -0.33349 -0.94275 -2.0933e-16 -0.33349 -2.1111e-16 0.95077 -0.30988 0.11825 0.95712 -0.26445 0.12117 0.95708 -0.26327 0.0041188 0.95125 -0.30838 -1.5701e-16 0.70711 0.70711 -1.5701e-16 0.70711 0.70711 -1.5701e-16 0.70711 0.70711 -1.5701e-16 0.70711 0.70711 -1.5701e-16 0.70711 -0.70711 -1.5701e-16 0.70711 -0.70711 -1.5701e-16 0.70711 -0.70711 -1.5701e-16 0.70711 -0.70711 1.5701e-16 -0.70711 -0.70711 1.5701e-16 -0.70711 -0.70711 1.5701e-16 -0.70711 -0.70711 1.5701e-16 -0.70711 -0.70711 1.5701e-16 -0.70711 0.70711 1.5701e-16 -0.70711 0.70711 1.5701e-16 -0.70711 0.70711 1.5701e-16 -0.70711 0.70711 -1 -2.2204e-16 0 -1 -2.2204e-16 0 -1 -2.2204e-16 0 -1 -2.2204e-16 0 1 2.2204e-16 0 1 2.2204e-16 0 1 2.2204e-16 0 1 2.2204e-16 0 -1.5701e-16 0.70711 0.70711 -1.5701e-16 0.70711 0.70711 -1.5701e-16 0.70711 0.70711 -1.5701e-16 0.70711 0.70711 -1.5701e-16 0.70711 -0.70711 -1.5701e-16 0.70711 -0.70711 -1.5701e-16 0.70711 -0.70711 -1.5701e-16 0.70711 -0.70711 1.5701e-16 -0.70711 -0.70711 1.5701e-16 -0.70711 -0.70711 1.5701e-16 -0.70711 -0.70711 1.5701e-16 -0.70711 -0.70711 1.5701e-16 -0.70711 0.70711 1.5701e-16 -0.70711 0.70711 1.5701e-16 -0.70711 0.70711 1.5701e-16 -0.70711 0.70711 -1 -2.2204e-16 0 -1 -2.2204e-16 0 -1 -2.2204e-16 0 -1 -2.2204e-16 0 1 2.2204e-16 0 1 2.2204e-16 0 1 2.2204e-16 0 1 2.2204e-16 0 -1.5701e-16 0.70711 0.70711 -1.5701e-16 0.70711 0.70711 -1.5701e-16 0.70711 0.70711 -1.5701e-16 0.70711 0.70711 -1.5701e-16 0.70711 -0.70711 -1.5701e-16 0.70711 -0.70711 -1.5701e-16 0.70711 -0.70711 -1.5701e-16 0.70711 -0.70711 1.5701e-16 -0.70711 -0.70711 1.5701e-16 -0.70711 -0.70711 1.5701e-16 -0.70711 -0.70711 1.5701e-16 -0.70711 -0.70711 1.5701e-16 -0.70711 0.70711 1.5701e-16 -0.70711 0.70711 1.5701e-16 -0.70711 0.70711 1.5701e-16 -0.70711 0.70711 -1 -2.2204e-16 0 -1 -2.2204e-16 0 -1 -2.2204e-16 0 -1 -2.2204e-16 0 1 2.2204e-16 0 1 2.2204e-16 0 1 2.2204e-16 0 1 2.2204e-16 0 -1.5701e-16 0.70711 0.70711 -1.5701e-16 0.70711 0.70711 -1.5701e-16 0.70711 0.70711 -1.5701e-16 0.70711 0.70711 -1.5701e-16 0.70711 -0.70711 -1.5701e-16 0.70711 -0.70711 -1.5701e-16 0.70711 -0.70711 -1.5701e-16 0.70711 -0.70711 1.5701e-16 -0.70711 -0.70711 1.5701e-16 -0.70711 -0.70711 1.5701e-16 -0.70711 -0.70711 1.5701e-16 -0.70711 -0.70711 1.5701e-16 -0.70711 0.70711 1.5701e-16 -0.70711 0.70711 1.5701e-16 -0.70711 0.70711 1.5701e-16 -0.70711 0.70711 -1 -2.2204e-16 0 -1 -2.2204e-16 0 -1 -2.2204e-16 0 -1 -2.2204e-16 0 1 2.2204e-16 0 1 2.2204e-16 0 1 2.2204e-16 0 1 2.2204e-16 0 -1.5701e-16 0.70711 0.70711 -1.5701e-16 0.70711 0.70711 -1.5701e-16 0.70711 0.70711 -1.5701e-16 0.70711 0.70711 -1.5701e-16 0.70711 -0.70711 -1.5701e-16 0.70711 -0.70711 -1.5701e-16 0.70711 -0.70711 -1.5701e-16 0.70711 -0.70711 1.5701e-16 -0.70711 -0.70711 1.5701e-16 -0.70711 -0.70711 1.5701e-16 -0.70711 -0.70711 1.5701e-16 -0.70711 -0.70711 1.5701e-16 -0.70711 0.70711 1.5701e-16 -0.70711 0.70711 1.5701e-16 -0.70711 0.70711 1.5701e-16 -0.70711 0.70711 -1 -2.2204e-16 0 -1 -2.2204e-16 0 -1 -2.2204e-16 0 -1 -2.2204e-16 0 1 2.2204e-16 0 1 2.2204e-16 0 1 2.2204e-16 0 1 2.2204e-16 0 -1.5701e-16 0.70711 0.70711 -1.5701e-16 0.70711 0.70711 -1.5701e-16 0.70711 0.70711 -1.5701e-16 0.70711 0.70711 -1.5701e-16 0.70711 -0.70711 -1.5701e-16 0.70711 -0.70711 -1.5701e-16 0.70711 -0.70711 -1.5701e-16 0.70711 -0.70711 1.5701e-16 -0.70711 -0.70711 1.5701e-16 -0.70711 -0.70711 1.5701e-16 -0.70711 -0.70711 1.5701e-16 -0.70711 -0.70711 1.5701e-16 -0.70711 0.70711 1.5701e-16 -0.70711 0.70711 1.5701e-16 -0.70711 0.70711 1.5701e-16 -0.70711 0.70711 -1 -2.2204e-16 0 -1 -2.2204e-16 0 -1 -2.2204e-16 0 -1 -2.2204e-16 0 1 2.2204e-16 0 1 2.2204e-16 0 1 2.2204e-16 0 1 2.2204e-16 0</float_array><technique_common><accessor source="#g-n-a" count="875" stride="3"><param name="X" type="float"/><param name="Y" type="float"/><param name="Z" type="float"/></accessor></technique_common></source>
<vertices id="g-v"><input semantic="POSITION" source="#g-p"/><input semantic="NORMAL" source="#g-n"/></vertices>
<triangles material="m0" count="148"><input semantic="VERTEX" source="#g-v" offset="0"/><p>2 3 0 0 1 2 6 7 4 4 5 6 9 11 8 11 9 10 13 15 12 15 13 14 17 19 16 19 17 18 22 23 20 20 21 22 26 27 24 24 25 26 21 20 28 28 29 21 31 33 30 33 31 32 35 16 34 16 35 17 37 39 36 39 37 38 41 43 40 43 41 42 46 47 44 44 45 46 50 51 48 48 49 50 53 55 52 55 53 54 57 59 56 59 57 58 62 63 60 60 61 62 66 67 64 64 65 66 68 69 63 63 62 68 54 71 55 71 54 70 16 73 72 73 16 19 76 77 74 74 75 76 80 81 78 78 79 80 30 83 82 83 30 33 86 87 84 84 85 86 88 89 81 81 80 88 91 93 90 93 91 92 34 72 94 72 34 16 96 98 95 98 96 97 101 102 99 99 100 101 63 104 103 103 60 63 67 106 105 105 64 67 69 107 104 104 63 69 109 111 108 111 109 110 92 54 53 54 92 112 113 58 57 58 113 93 115 117 114 117 115 116 112 70 54 70 112 118 120 122 119 122 120 121 68 62 123 123 124 68 66 65 125 125 126 66 127 92 91 92 127 112 90 113 128 113 90 93 129 112 127 112 129 118 132 133 130 130 131 132 136 137 134 134 135 136 93 53 58 53 93 92 60 103 106 106 67 60 33 94 83 94 33 34 79 78 137 137 136 79 61 60 67 67 66 61 58 52 59 52 58 53 140 141 138 138 139 140 143 145 142 145 143 144 32 34 33 34 32 35 29 28 27 27 26 29 148 149 146 146 147 148 73 127 72 127 73 129 83 128 82 128 83 90 72 91 94 91 72 127 126 125 134 134 137 126 124 123 81 81 89 124 151 153 150 153 151 152 94 90 83 90 94 91 28 79 136 136 27 28 59 155 154 155 59 52 158 159 156 156 157 158 55 161 160 161 55 71 56 154 162 154 56 59 52 160 155 160 52 55 20 80 79 79 28 20 27 136 135 135 24 27 23 88 80 80 20 23 164 166 163 166 164 165</p></triangles>
<triangles material="m1" count="24"><input semantic="VERTEX" source="#g-v" offset="0"/><p>168 170 167 170 168 169 173 174 171 171 172 173 177 178 175 175 176 177 180 182 179 182 180 181 185 186 183 183 184 185 186 188 187 187 183 186 183 187 189 189 190 183 184 183 190 190 191 184 194 195 192 192 193 194 197 199 196 199 197 198 201 203 200 203 201 202 206 207 204 204 205 206</p></triangles>
<triangles material="m2" count="84"><input semantic="VERTEX" source="#g-v" offset="0"/><p>210 211 208 208 209 210 214 215 212 212 213 214 218 219 216 216 217 218 221 223 220 223 221 222 225 227 224 227 225 226 230 231 228 228 229 230 231 233 232 232 228 231 235 237 234 237 235 236 239 220 238 220 239 221 213 212 240 240 241 213 243 245 242 245 243 244 248 249 246 246 247 248 252 253 250 250 251 252 255 257 254 257 255 256 260 261 258 258 259 260 263 265 262 265 263 264 267 269 266 269 267 268 254 268 267 268 254 257 272 273 270 270 271 272 276 277 274 274 275 276 280 281 278 278 279 280 284 285 282 282 283 284 287 289 286 289 287 288 242 288 287 288 242 245 291 293 290 293 291 292 296 297 294 294 295 296 299 301 298 301 299 300 303 305 302 305 303 304 307 309 306 309 307 308 311 313 310 313 311 312 316 317 314 314 315 316 320 321 318 318 319 320 321 323 322 322 318 321 306 325 324 325 306 309 327 329 326 329 327 328 331 333 330 333 331 332 335 234 334 234 335 235 228 232 336 336 337 228 229 228 337 337 338 229 340 224 339 224 340 225 343 344 341 341 342 343 209 208 345 345 346 209</p></triangles>
<triangles material="m3" count="264"><input semantic="VERTEX" source="#g-v" offset="0"/><p>348 350 347 350 348 349 353 354 351 351 352 353 357 358 355 355 356 357 360 362 359 362 360 361 364 366 363 366 364 365 369 370 367 367 368 369 372 374 371 374 372 373 377 378 375 375 376 377 380 382 379 382 380 381 385 386 383 383 384 385 389 390 387 387 388 389 392 394 391 394 392 393 396 398 395 398 396 397 401 402 399 399 400 401 404 406 403 406 404 405 409 410 407 407 408 409 413 414 411 411 412 413 416 418 415 418 416 417 420 422 419 422 420 421 425 426 423 423 424 425 428 430 427 430 428 429 433 434 431 431 432 433 437 438 435 435 436 437 440 442 439 442 440 441 445 446 443 443 444 445 448 450 447 450 448 449 452 454 451 454 452 453 457 458 455 455 456 457 461 462 459 459 460 461 464 466 463 466 464 465 469 470 467 467 468 469 472 474 471 474 472 473 476 478 475 478 476 477 481 482 479 479 480 481 485 486 483 483 484 485 488 490 487 490 488 489 493 494 491 491 492 493 496 498 495 498 496 497 500 502 499 502 500 501 505 506 503 503 504 505 509 510 507 507 508 509 512 514 511 514 512 513 516 518 515 518 516 517 521 522 519 519 520 521 524 526 523 526 524 525 529 530 527 527 528 529 532 534 531 534 532 533 537 538 535 535 536 537 541 542 539 539 540 541 544 546 543 546 544 545 548 550 547 550 548 549 553 554 551 551 552 553 556 558 555 558 556 557 561 562 559 559 560 561 564 566 563 566 564 565 569 570 567 567 568 569 572 574 571 574 572 573 577 578 575 575 576 577 581 582 579 579 580 581 584 586 583 586 584 585 588 590 587 590 588 589 593 594 591 591 592 593 596 598 595 598 596 597 601 602 599 599 600 601 604 606 603 606 604 605 609 610 607 607 608 609 612 614 611 614 612 613 617 618 615 615 616 617 621 622 619 619 620 621 625 626 623 623 624 625 629 630 627 627 628 629 632 634 631 634 632 633 636 638 635 638 636 637 641 642 639 639 640 641 644 646 643 646 644 645 648 650 647 650 648 649 652 654 651 654 652 653 657 658 655 655 656 657 661 662 659 659 660 661 665 666 663 663 664 665 669 670 667 667 668 669 672 674 671 674 672 673 676 678 675 678 676 677 681 682 679 679 680 681 684 686 683 686 684 685 688 690 687 690 688 689 692 694 691 694 692 693 697 698 695 695 696 697 701 702 699 699 700 701 705 706 703 703 704 705 709 710 707 707 708 709 712 714 711 714 712 713 716 718 715 718 716 717 721 722 719 719 720 721 724 726 723 726 724 725 728 730 727 730 728 729 732 734 731 734 732 733 737 738 735 735 736 737 741 742 739 739 740 741 745 746 743 743 744 745 748 750 747 750 748 749 753 754 751 751 752 753 756 758 755 758 756 757 760 762 759 762 760 761 765 766 763 763 764 765 769 770 767 767 768 769 772 774 771 774 772 773 777 778 775 775 776 777 780 782 779 782 780 781 785 786 783 783 784 785 789 790 787 787 788 789 793 794 791 791 792 793 796 798 795 798 796 797 801 802 799 799 800 801 804 806 803 806 804 805 808 810 807 810 808 809 813 814 811 811 812 813 817 818 815 815 816 817 820 822 819 822 820 821 825 826 823 823 824 825 828 830 827 830 828 829 833 834 831 831 832 833 837 838 835 835 836 837 841 842 839 839 840 841 844 846 843 846 844 845 849 850 847 847 848 849 852 854 851 854 852 853 856 858 855 858 856 857 861 862 859 859 860 861 865 866 863 863 864 865 868 870 867 870 868 869 873 874 871 871 872 873</p></triangles>
</mesh></geometry></library_geometries><library_visual_scenes><visual_scene id="Scene"><node id="n" name="guitar"><instance_geometry url="#g"><bind_material><technique_common>
<instance_material symbol="m0" target="#m0"/>
<instance_material symbol="m1" target="#m1"/>
<instance_material symbol="m2" target="#m2"/>
<instance_material symbol="m3" target="#m3"/>
</technique_common></bind_material></instance_geometry></node></visual_scene></library_visual_scenes><scene><instance_visual_scene url="#Scene"/></scene></COLLADA>
