<?xml version="1.0" encoding="utf-8"?>
<COLLADA xmlns="http://www.collada.org/2005/11/COLLADASchema" version="1.4.1">
<asset><contributor><authoring_tool>VATs starter props (see CREDITS.md)</authoring_tool></contributor><unit name="meter" meter="1"/><up_axis>Z_UP</up_axis></asset>
<library_effects>
<effect id="m0-fx"><profile_COMMON><technique sid="common"><lambert><diffuse><color>0.620 0.660 0.710 1</color></diffuse></lambert></technique></profile_COMMON></effect>
<effect id="m1-fx"><profile_COMMON><technique sid="common"><lambert><diffuse><color>0.360 0.390 0.430 1</color></diffuse></lambert></technique></profile_COMMON></effect>
<effect id="m2-fx"><profile_COMMON><technique sid="common"><lambert><diffuse><color>0.200 0.230 0.270 1</color></diffuse></lambert></technique></profile_COMMON></effect>
</library_effects><library_materials>
<material id="m0" name="m0"><instance_effect url="#m0-fx"/></material>
<material id="m1" name="m1"><instance_effect url="#m1-fx"/></material>
<material id="m2" name="m2"><instance_effect url="#m2-fx"/></material>
</library_materials><library_geometries><geometry id="g" name="knife"><mesh>
<source id="g-p"><float_array id="g-p-a" count="4254">-0.0039 0.0099 0.0797 -0.0039 -0.0009 0.0796 -0.0039 -0.0009 0.0808 -0.0039 0.0099 0.0786 -0.0039 -0.0009 0.0589 -0.0039 0.0099 0.0577 -0.0039 0.021 0.0727 -0.0039 0.0209 0.0564 -0.0039 0.0209 0.0564 0 0.021 0.0727 0 0.0209 0.0564 -0.0039 0.0099 0.0797 -0.0005 0.021 0.0739 -0.0039 0.021 0.0727 -0.0039 0.0101 0.1726 -0.0039 -0.0009 0.1729 -0.0039 0.0099 0.1948 -0.0039 -0.0009 0.1941 -0.0039 0.0086 0.2149 -0.0039 -0.0009 0.214 -0.0039 0.0054 0.2289 -0.0039 -0.0117 0.0797 -0.0039 -0.0117 0.0786 -0.0039 -0.0119 0.1726 -0.0039 -0.0117 0.0577 -0.0039 -0.0228 0.0727 -0.0039 -0.0228 0.0564 -0.0039 -0.0228 0.0564 0 -0.0228 0.0727 -0.0039 -0.0228 0.0727 -0.0005 -0.0228 0.0739 0 -0.0228 0.0739 -0.0005 -0.0228 0.0739 -0.0039 -0.0117 0.0786 -0.0039 -0.0228 0.0727 -0.0039 -0.0117 0.1948 -0.0039 -0.0072 0.2289 -0.0039 -0.0104 0.2149 -0.0039 -0.0009 0.2371 0.0039 0.0099 0.0797 0.0039 -0.0009 0.0796 0.0039 0.0099 0.0786 0.0039 -0.0009 0.0589 0.0039 0.0099 0.0577 0.0039 0.021 0.0727 0.0039 0.0209 0.0564 0.0039 0.021 0.0727 0.0039 0.0209 0.0564 0.0005 0.021 0.0739 0 0.021 0.0739 -0.0005 0.021 0.0739 -0.0039 0.021 0.0727 0.0039 0.0099 0.0797 0.0039 0.021 0.0727 0.0005 0.021 0.0739 0.0039 0.0101 0.1726 0.0039 -0.0009 0.0808 0.0039 -0.0009 0.1941 0.0039 -0.0009 0.1729 0.0039 0.0099 0.1948 0.0039 -0.0009 0.214 0.0039 0.0054 0.2289 0.0039 0.0086 0.2149 0.0039 -0.0117 0.0797 0.0039 -0.0117 0.0786 0.0039 -0.0117 0.0577 0.0039 -0.0119 0.1726 0.0039 -0.0228 0.0727 0.0039 -0.0228 0.0564 0.0039 -0.0228 0.0727 0 -0.0228 0.0564 0.0039 -0.0228 0.0564 0.0005 -0.0228 0.0739 0.0039 -0.0117 0.0797 0.0005 -0.0228 0.0739 0.0039 -0.0228 0.0727 0.0039 -0.0117 0.1948 0.0039 -0.0104 0.2149 0.0039 -0.0072 0.2289 0.0039 -0.0009 0.2371 -0.0139 0.0001 0.0578 -0.0139 0.0116 0.0634 -0.0139 0.0117 0.057 -0.0139 -0.0116 0.0634 -0.0139 0 0.0642 -0.0139 -0.0115 0.057 0.0139 -0.0115 0.057 0.0139 -0.0232 0.0549 0.0139 -0.0115 0.057 -0.0139 0.0001 0.0578 0.0139 0.0001 0.0578 -0.0139 -0.0115 0.057 0.0139 0.0001 0.0578 -0.0139 0.0117 0.057 0.0139 0.0117 0.057 0.0139 0.0001 0.0578 0.0139 0.0116 0.0634 0.0139 0 0.0642 0.0139 -0.0116 0.0634 0.0139 -0.0115 0.057 -0.0139 0 0.0642 0.0139 -0.0116 0.0634 0.0139 0 0.0642 0.0139 0 0.0642 -0.0139 0.0116 0.0634 -0.0139 0 0.0642 -0.0139 -0.0115 0.057 -0.0139 -0.0233 0.0613 -0.0139 -0.0232 0.0549 -0.0139 0.0232 0.0613 -0.0139 0.0233 0.0549 0.0139 0.0117 0.057 0.0139 0.0232 0.0613 0.0139 0.0233 0.0549 -0.0139 -0.0232 0.0549 -0.0139 -0.0232 0.0549 0.0139 -0.0232 0.0549 0.0062 -0.0274 0.0522 -0.0062 -0.0274 0.0522 -0.0062 0.0274 0.0586 0.0139 0.0232 0.0613 0.0062 0.0274 0.0586 -0.0139 -0.0116 0.0634 -0.0139 -0.0116 0.0634 0.0139 -0.0233 0.0613 0.0139 -0.0116 0.0634 0.0139 -0.0233 0.0613 0.0139 -0.0232 0.0549 0.0062 -0.0275 0.0586 -0.0062 -0.0275 0.0586 0.0062 -0.0274 0.0522 -0.0062 -0.0274 0.0522 -0.0139 -0.0232 0.0549 -0.0062 -0.0275 0.0586 -0.0139 -0.0233 0.0613 -0.0062 -0.0274 0.0522 -0.0139 0.0232 0.0613 -0.0062 0.0274 0.0586 -0.0139 0.0233 0.0549 -0.0062 0.0275 0.0522 0.0139 -0.0232 0.0549 0.0062 -0.0275 0.0586 0.0062 -0.0274 0.0522 0.0139 -0.0233 0.0613 0.0139 0.0233 0.0549 0.0062 0.0274 0.0586 0.0139 0.0232 0.0613 0.0062 0.0275 0.0522 0.0062 -0.0275 0.0586 -0.0139 -0.0233 0.0613 -0.0062 -0.0275 0.0586 -0.0139 -0.0233 0.0613 0.0139 -0.0233 0.0613 0.0139 0.0116 0.0634 -0.0139 0.0232 0.0613 0.0139 0.0116 0.0634 -0.0139 0.0232 0.0613 -0.0139 0.0116 0.0634 0.0139 0.0232 0.0613 -0.0062 0.0274 0.0586 0.0062 0.0275 0.0522 -0.0062 0.0275 0.0522 0.0062 0.0274 0.0586 -0.0139 0.0001 0.0578 0.0139 0.0117 0.057 -0.0139 0.0117 0.057 -0.0139 0.0233 0.0549 0.0139 0.0233 0.0549 -0.0062 0.0275 0.0522 0.0062 0.0275 0.0522 -0.0139 0.0233 0.0549 0.0139 0.0233 0.0549 0.0033 -0.0105 -0.02 0.0099 -0.0074 -0.0205 0.0087 -0.0065 -0.02 0.0033 -0.0105 -0.02 -0.0033 -0.0105 -0.02 -0.0038 -0.0118 -0.0205 0.0103 0.0073 0.0325 0.0127 -0.0002 0.0325 0.0113 -0.0002 0.032 0.0091 0.0064 0.032 0.0035 0.0105 0.032 0.0039 0.0119 0.0325 0.0041 -0.0127 -0.0031 -0.0041 -0.0127 -0.0031 -0.0036 -0.0113 -0.0037 0.0036 -0.0113 -0.0037 0.0107 -0.0079 -0.0031 0.0041 -0.0127 -0.0031 0.0104 0.0074 0.0295 0.0114 -0.0002 0.03 0.0129 -0.0002 0.0295 0.0092 0.0065 0.03 0.004 0.0121 0.0295 0.0035 0.0107 0.03 0.004 -0.0126 -0.0062 -0.0036 -0.0112 -0.0056 -0.004 -0.0126 -0.0062 0.0036 -0.0112 -0.0056 0.0106 -0.0079 -0.0062 0.0094 -0.007 -0.0056 -0.0093 0.0066 0.047 -0.0031 0.0095 0.0464 -0.0082 0.0058 0.0464 -0.0036 0.0108 0.047 -0.0082 0.0058 0.0464 -0.0102 -0.0002 0.0464 -0.0115 -0.0002 0.047 0.0084 0.0059 0.0445 0.0104 -0.0002 0.0445 0.0118 -0.0002 0.044 0.0095 0.0067 0.044 0.0036 0.011 0.044 0.0032 0.0097 0.0445 0.0084 0.0059 0.0445 0.0042 -0.013 0.0144 -0.0042 -0.013 0.0144 -0.0037 -0.0115 0.0139 0.0037 -0.0115 0.0139 0.0109 -0.0081 0.0144 0.0042 -0.013 0.0144 0.0042 -0.013 0.0114 -0.0037 -0.0115 0.0119 -0.0042 -0.013 0.0114 0.0042 -0.013 0.0114 0.0097 -0.0072 0.0119 0.0037 -0.0115 0.0119 0.0082 0.0058 0.0464 0.0115 -0.0002 0.047 0.0102 -0.0002 0.0464 0.0093 0.0066 0.047 0.0031 0.0095 0.0464 0.0036 0.0108 0.047 0.0038 0.0116 -0.0175 0.01 0.0071 -0.0175 0.0089 0.0063 -0.018 0.0034 0.0103 -0.018 -0.0038 0.0116 -0.0175 0.0038 0.0116 -0.0175 0.0039 -0.0123 0.0325 0.0091 -0.0068 0.032 0.0103 -0.0077 0.0325 0.0039 -0.0123 0.0325 -0.0039 -0.0123 0.0325 -0.0035 -0.0109 0.032 0.0038 0.0114 -0.0205 0.0087 0.0062 -0.02 0.0099 0.007 -0.0205 0.0033 0.0101 -0.02 -0.0038 0.0114 -0.0205 -0.0033 0.0101 -0.02 0.0035 -0.011 0.03 0.0104 -0.0078 0.0295 0.0092 -0.0069 0.03 0.0035 -0.011 0.03 -0.0035 -0.011 0.03 -0.004 -0.0125 0.0295 -0.0124 -0.0002 -0.0175 -0.0089 -0.0066 -0.018 -0.01 -0.0075 -0.0175 -0.0124 -0.0002 -0.0175 -0.01 0.0071 -0.0175 -0.0089 0.0063 -0.018 0.0036 0.0109 -0.0037 -0.0041 0.0124 -0.0031 0.0041 0.0124 -0.0031 0.0036 0.0109 -0.0037 0.0107 0.0076 -0.0031 0.0095 0.0067 -0.0037 0.0032 -0.0101 0.0445 -0.0032 -0.0101 0.0445 -0.0036 -0.0114 0.044 0.0036 -0.0114 0.044 0.0084 -0.0063 0.0445 0.0032 -0.0101 0.0445 -0.0108 -0.0002 -0.02 -0.0087 0.0062 -0.02 -0.0099 0.007 -0.0205 -0.0122 -0.0002 -0.0205 -0.0087 -0.0065 -0.02 -0.0108 -0.0002 -0.02 0.004 0.0123 -0.0062 -0.0036 0.0108 -0.0056 0.0036 0.0108 -0.0056 -0.0117 -0.0002 -0.0037 -0.0107 0.0076 -0.0031 -0.0095 0.0067 -0.0037 -0.0132 -0.0002 -0.0031 -0.0095 -0.0071 -0.0037 -0.0107 -0.0079 -0.0031 -0.0087 -0.0065 -0.02 -0.011 -0.0002 -0.018 -0.0108 -0.0002 -0.02 -0.0094 -0.007 -0.0056 -0.0117 -0.0002 -0.0037 -0.0116 -0.0002 -0.0056 -0.0096 -0.0072 0.0139 -0.0119 -0.0002 0.0119 -0.0097 -0.0072 0.0119 -0.0119 -0.0002 0.0139 -0.0096 -0.0072 0.0139 -0.0037 -0.0115 0.0119 -0.0037 -0.0115 0.0139 -0.0091 -0.0068 0.032 -0.0114 -0.0002 0.03 -0.0092 -0.0069 0.03 -0.0113 -0.0002 0.032 -0.0091 -0.0068 0.032 -0.0035 -0.011 0.03 -0.0035 -0.0109 0.032 -0.0082 -0.0062 0.0464 -0.0102 -0.0002 0.0464 -0.0104 -0.0002 0.0445 -0.0082 -0.0062 0.0464 -0.0032 -0.0101 0.0445 -0.0031 -0.0099 0.0464 -0.0084 -0.0063 0.0445 -0.0034 -0.0106 -0.018 -0.0089 -0.0066 -0.018 -0.0087 -0.0065 -0.02 -0.0033 -0.0105 -0.02 -0.0034 -0.0106 -0.018 0.0033 -0.0105 -0.02 0.0034 -0.0106 -0.018 -0.0036 -0.0113 -0.0037 -0.0094 -0.007 -0.0056 -0.0036 -0.0112 -0.0056 -0.0095 -0.0071 -0.0037 -0.0097 -0.0072 0.0119 -0.0092 -0.0069 0.03 -0.0035 -0.0109 0.032 0.0035 -0.011 0.03 0.0035 -0.0109 0.032 -0.0084 -0.0063 0.0445 -0.0033 -0.0105 -0.02 0.0034 -0.0106 -0.018 0.0087 -0.0065 -0.02 0.0089 -0.0066 -0.018 0.0036 -0.0113 -0.0037 -0.0036 -0.0113 -0.0037 -0.0036 -0.0112 -0.0056 0.0036 -0.0113 -0.0037 0.0094 -0.007 -0.0056 0.0095 -0.0071 -0.0037 0.0036 -0.0112 -0.0056 0.0037 -0.0115 0.0139 -0.0037 -0.0115 0.0139 -0.0037 -0.0115 0.0119 0.0037 -0.0115 0.0119 -0.0035 -0.011 0.03 0.0031 -0.0099 0.0464 -0.0032 -0.0101 0.0445 0.0032 -0.0101 0.0445 -0.0031 -0.0099 0.0464 0.0033 -0.0105 -0.02 0.0036 -0.0112 -0.0056 0.0096 -0.0072 0.0139 0.0119 -0.0002 0.0119 0.0119 -0.0002 0.0139 0.0096 -0.0072 0.0139 0.0037 -0.0115 0.0139 0.0037 -0.0115 0.0119 0.0097 -0.0072 0.0119 0.0091 -0.0068 0.032 0.0035 -0.011 0.03 0.0092 -0.0069 0.03 0.0035 -0.0109 0.032 0.0091 -0.0068 0.032 0.0114 -0.0002 0.03 0.0113 -0.0002 0.032 0.0082 -0.0062 0.0464 0.0032 -0.0101 0.0445 0.0084 -0.0063 0.0445 0.0031 -0.0099 0.0464 0.0082 -0.0062 0.0464 0.0104 -0.0002 0.0445 0.0102 -0.0002 0.0464 0.011 -0.0002 -0.018 0.0087 0.0062 -0.02 0.0089 0.0063 -0.018 0.011 -0.0002 -0.018 0.0089 -0.0066 -0.018 0.0087 -0.0065 -0.02 0.0108 -0.0002 -0.02 0.0117 -0.0002 -0.0037 0.0095 -0.0071 -0.0037 0.0094 -0.007 -0.0056 0.0116 -0.0002 -0.0056 0.0117 -0.0002 -0.0037 0.0094 0.0066 -0.0056 0.0095 0.0067 -0.0037 0.0097 -0.0072 0.0119 0.0092 -0.0069 0.03 0.0084 -0.0063 0.0445 0.0108 -0.0002 -0.02 0.0116 -0.0002 -0.0056 0.0096 0.0068 0.0139 0.0037 0.0112 0.0119 0.0037 0.0111 0.0139 0.0096 0.0068 0.0139 0.0119 -0.0002 0.0139 0.0119 -0.0002 0.0119 0.0097 0.0068 0.0119 0.0091 0.0064 0.032 0.0114 -0.0002 0.03 0.0092 0.0065 0.03 0.0113 -0.0002 0.032 0.0091 0.0064 0.032 0.0035 0.0107 0.03 0.0035 0.0105 0.032 0.0082 0.0058 0.0464 0.0104 -0.0002 0.0445 0.0084 0.0059 0.0445 0.0102 -0.0002 0.0464 0.0082 0.0058 0.0464 0.0032 0.0097 0.0445 0.0031 0.0095 0.0464 0.0034 0.0103 -0.018 0.0087 0.0062 -0.02 0.0033 0.0101 -0.02 0.0089 0.0063 -0.018 0.0036 0.0109 -0.0037 0.0095 0.0067 -0.0037 0.0094 0.0066 -0.0056 0.0036 0.0108 -0.0056 0.0097 0.0068 0.0119 0.0092 0.0065 0.03 0.0084 0.0059 0.0445 0.0032 0.0097 0.0445 -0.0031 0.0095 0.0464 0.0031 0.0095 0.0464 -0.0034 0.0103 -0.018 -0.0087 0.0062 -0.02 -0.0089 0.0063 -0.018 -0.0034 0.0103 -0.018 0.0033 0.0101 -0.02 -0.0033 0.0101 -0.02 0.0034 0.0103 -0.018 -0.0036 0.0109 -0.0037 0.0036 0.0108 -0.0056 -0.0036 0.0108 -0.0056 0.0036 0.0109 -0.0037 -0.0036 0.0109 -0.0037 -0.0094 0.0066 -0.0056 -0.0095 0.0067 -0.0037 -0.0037 0.0111 0.0139 0.0037 0.0112 0.0119 -0.0037 0.0112 0.0119 0.0037 0.0111 0.0139 -0.0035 0.0105 0.032 0.0035 0.0107 0.03 -0.0035 0.0107 0.03 0.0035 0.0105 0.032 -0.0032 0.0097 0.0445 -0.0033 0.0101 -0.02 -0.0089 -0.0066 -0.018 -0.011 -0.0002 -0.018 -0.0087 0.0062 -0.02 -0.0108 -0.0002 -0.02 -0.0089 0.0063 -0.018 -0.0036 0.0108 -0.0056 -0.0095 -0.0071 -0.0037 -0.0117 -0.0002 -0.0037 -0.0094 0.0066 -0.0056 -0.0116 -0.0002 -0.0056 -0.0095 0.0067 -0.0037 -0.0119 -0.0002 0.0119 -0.0096 0.0068 0.0139 -0.0097 0.0068 0.0119 -0.0096 0.0068 0.0139 -0.0037 0.0112 0.0119 -0.0097 0.0068 0.0119 -0.0037 0.0111 0.0139 -0.0119 -0.0002 0.0139 -0.0114 -0.0002 0.03 -0.0091 0.0064 0.032 -0.0092 0.0065 0.03 -0.0091 0.0064 0.032 -0.0035 0.0107 0.03 -0.0092 0.0065 0.03 -0.0035 0.0105 0.032 -0.0113 -0.0002 0.032 0.0109 0.0077 0.0114 0.0042 0.0126 0.0114 0.0037 0.0112 0.0119 0.0097 0.0068 0.0119 0.0097 0.0068 0.0119 0.0119 -0.0002 0.0119 0.0135 -0.0002 0.0114 0.0038 -0.012 -0.0175 -0.0038 -0.012 -0.0175 -0.0034 -0.0106 -0.018 0.0038 -0.012 -0.0175 0.0089 -0.0066 -0.018 0.01 -0.0075 -0.0175 0.0109 0.0077 0.0144 0.0037 0.0111 0.0139 0.0042 0.0126 0.0144 0.0096 0.0068 0.0139 0.0135 -0.0002 0.0144 0.0119 -0.0002 0.0139 -0.0095 0.0067 0.044 -0.0118 -0.0002 0.044 -0.0104 -0.0002 0.0445 -0.0084 0.0059 0.0445 -0.0032 0.0097 0.0445 -0.0036 0.011 0.044 -0.0031 -0.0099 0.0464 0.0031 -0.0099 0.0464 0.0036 -0.0111 0.047 -0.0036 -0.0111 0.047 -0.0082 -0.0062 0.0464 -0.0031 -0.0099 0.0464 0.0106 0.0075 -0.0062 0.004 0.0123 -0.0062 0.0036 0.0108 -0.0056 0.0094 0.0066 -0.0056 0.0094 0.0066 -0.0056 0.0116 -0.0002 -0.0056 0.0131 -0.0002 -0.0062 -0.0104 0.0074 0.0295 -0.0129 -0.0002 0.0295 -0.0114 -0.0002 0.03 -0.0092 0.0065 0.03 -0.0035 0.0107 0.03 -0.004 0.0121 0.0295 0.0036 -0.0114 0.044 -0.0032 -0.0101 0.0445 -0.0095 -0.0071 0.044 -0.0036 -0.0114 0.044 0.0041 0.0124 -0.0031 0.0095 0.0067 -0.0037 0.0132 -0.0002 -0.0031 0.0117 -0.0002 -0.0037 -0.0091 0.0064 0.032 -0.0113 -0.0002 0.032 -0.0127 -0.0002 0.0325 -0.0103 0.0073 0.0325 -0.0035 0.0105 0.032 -0.0091 0.0064 0.032 -0.0039 0.0119 0.0325 0.004 -0.0125 0.0295 -0.0035 -0.011 0.03 -0.0104 -0.0078 0.0295 -0.004 -0.0125 0.0295 0.0033 0.0101 -0.02 0.0087 0.0062 -0.02 0.0108 -0.0002 -0.02 0.0122 -0.0002 -0.0205 -0.0097 0.0068 0.0119 -0.0135 -0.0002 0.0114 -0.0119 -0.0002 0.0119 -0.0109 0.0077 0.0114 -0.0037 0.0112 0.0119 -0.0042 0.0126 0.0114 0.0035 -0.0109 0.032 -0.0039 -0.0123 0.0325 -0.0091 -0.0068 0.032 -0.0035 -0.0109 0.032 0.0034 0.0103 -0.018 0.0089 0.0063 -0.018 0.0124 -0.0002 -0.0175 0.011 -0.0002 -0.018 -0.0096 0.0068 0.0139 -0.0119 -0.0002 0.0139 -0.0135 -0.0002 0.0144 -0.0109 0.0077 0.0144 -0.0037 0.0111 0.0139 -0.0096 0.0068 0.0139 -0.0042 0.0126 0.0144 0.0093 0.0066 0.047 0.0102 -0.0002 0.0464 0.0093 -0.0069 0.047 0.0082 -0.0062 0.0464 0.0037 -0.0115 0.0119 -0.0037 -0.0115 0.0119 -0.0109 -0.0081 0.0114 -0.0042 -0.013 0.0114 -0.0106 0.0075 -0.0062 -0.0036 0.0108 -0.0056 -0.004 0.0123 -0.0062 -0.0106 0.0075 -0.0062 -0.0131 -0.0002 -0.0062 -0.0116 -0.0002 -0.0056 -0.0094 0.0066 -0.0056 -0.004 0.0123 -0.0062 0.0037 -0.0115 0.0139 -0.0042 -0.013 0.0144 -0.0096 -0.0072 0.0139 -0.0037 -0.0115 0.0139 0.0095 0.0067 0.044 0.0095 -0.0071 0.044 0.0104 -0.0002 0.0445 0.0095 -0.0071 0.044 0.0118 -0.0002 0.044 0.0084 -0.0063 0.0445 -0.0036 0.0109 -0.0037 -0.0132 -0.0002 -0.0031 -0.0107 0.0076 -0.0031 -0.0036 0.0109 -0.0037 -0.0095 0.0067 -0.0037 -0.0041 0.0124 -0.0031 -0.0036 -0.0112 -0.0056 -0.0106 -0.0079 -0.0062 -0.004 -0.0126 -0.0062 0.0036 -0.0112 -0.0056 0.0092 0.0065 0.03 0.0114 -0.0002 0.03 0.0104 -0.0078 0.0295 0.0129 -0.0002 0.0295 0.0092 -0.0069 0.03 0.004 -0.0125 0.0295 -0.0122 -0.0002 -0.0205 -0.0038 0.0114 -0.0205 -0.0099 0.007 -0.0205 -0.0087 0.0062 -0.02 0.0038 0.0114 -0.0205 -0.0033 0.0101 -0.02 -0.0117 -0.0002 -0.0037 -0.0036 -0.0113 -0.0037 -0.0107 -0.0079 -0.0031 -0.0095 -0.0071 -0.0037 0.0036 -0.0113 -0.0037 -0.0041 -0.0127 -0.0031 0.0091 0.0064 0.032 0.0127 -0.0002 0.0325 0.0091 -0.0068 0.032 0.0113 -0.0002 0.032 0.0035 -0.0109 0.032 0.0103 -0.0077 0.0325 -0.011 -0.0002 -0.018 -0.0034 0.0103 -0.018 -0.01 0.0071 -0.0175 -0.0038 0.0116 -0.0175 -0.0034 0.0103 -0.018 -0.0089 0.0063 -0.018 -0.0036 0.0108 0.047 0.0031 0.0095 0.0464 -0.0031 0.0095 0.0464 0.0036 0.0108 0.047 0.0082 0.0058 0.0464 0.0038 -0.0118 -0.0205 -0.0099 -0.0074 -0.0205 -0.0033 -0.0105 -0.02 -0.0099 -0.0074 -0.0205 -0.0038 -0.0118 -0.0205 -0.0087 -0.0065 -0.02 0.0135 -0.0002 0.0114 0.0097 -0.0072 0.0119 0.0109 -0.0081 0.0114 0.0109 0.0077 0.0114 0.0109 -0.0081 0.0114 0.0119 -0.0002 0.0119 -0.011 -0.0002 -0.018 -0.0034 -0.0106 -0.018 -0.01 -0.0075 -0.0175 -0.0089 -0.0066 -0.018 0.0034 -0.0106 -0.018 -0.0038 -0.012 -0.0175 0.0096 -0.0072 0.0139 0.0135 -0.0002 0.0144 0.0096 -0.0072 0.0139 0.0119 -0.0002 0.0139 0.0109 0.0077 0.0144 0.0109 -0.0081 0.0144 -0.0095 0.0067 0.044 0.0036 0.011 0.044 -0.0032 0.0097 0.0445 0.0032 0.0097 0.0445 -0.0036 0.011 0.044 -0.0093 0.0066 0.047 -0.0115 -0.0002 0.047 -0.0082 -0.0062 0.0464 -0.0093 -0.0069 0.047 -0.0093 -0.0069 0.047 -0.0102 -0.0002 0.0464 -0.0084 0.0059 0.0445 -0.0084 -0.0063 0.0445 -0.0118 -0.0002 0.044 -0.0084 -0.0063 0.0445 -0.0104 -0.0002 0.0445 -0.0095 -0.0071 0.044 0.0106 0.0075 -0.0062 0.0116 -0.0002 -0.0056 0.0106 -0.0079 -0.0062 0.0131 -0.0002 -0.0062 0.0094 -0.007 -0.0056 0.004 -0.0126 -0.0062 -0.0104 0.0074 0.0295 0.004 0.0121 0.0295 -0.0035 0.0107 0.03 0.0035 0.0107 0.03 0.0104 0.0074 0.0295 -0.004 0.0121 0.0295 -0.0092 0.0065 0.03 -0.0092 -0.0069 0.03 -0.0129 -0.0002 0.0295 -0.0092 -0.0069 0.03 -0.0114 -0.0002 0.03 -0.0104 -0.0078 0.0295 0.0107 0.0076 -0.0031 0.0117 -0.0002 -0.0037 0.0107 -0.0079 -0.0031 0.0095 -0.0071 -0.0037 0.0095 -0.0071 -0.0037 0.0132 -0.0002 -0.0031 0.0103 0.0073 0.0325 -0.0039 0.0119 0.0325 0.0035 0.0105 0.032 -0.0035 0.0105 0.032 0.0039 0.0119 0.0325 -0.0103 0.0073 0.0325 -0.0103 -0.0077 0.0325 -0.0113 -0.0002 0.032 -0.0103 -0.0077 0.0325 -0.0127 -0.0002 0.0325 -0.0091 -0.0068 0.032 -0.0097 -0.0072 0.0119 -0.0135 -0.0002 0.0114 -0.0097 -0.0072 0.0119 -0.0119 -0.0002 0.0119 -0.0109 0.0077 0.0114 -0.0109 -0.0081 0.0114 0.0099 0.007 -0.0205 0.0108 -0.0002 -0.02 0.0099 -0.0074 -0.0205 0.0122 -0.0002 -0.0205 0.0087 -0.0065 -0.02 0.0038 -0.0118 -0.0205 0.0042 0.0126 0.0114 -0.0037 0.0112 0.0119 0.0037 0.0112 0.0119 -0.0042 0.0126 0.0114 -0.0097 0.0068 0.0119 -0.0109 0.0077 0.0144 -0.0135 -0.0002 0.0144 -0.0096 -0.0072 0.0139 -0.0109 -0.0081 0.0144 -0.0109 -0.0081 0.0144 -0.0119 -0.0002 0.0139 0.0034 -0.0106 -0.018 0.01 0.0071 -0.0175 0.011 -0.0002 -0.018 0.01 -0.0075 -0.0175 0.0089 -0.0066 -0.018 0.0124 -0.0002 -0.0175 -0.0042 0.0126 0.0144 0.0037 0.0111 0.0139 -0.0037 0.0111 0.0139 0.0096 0.0068 0.0139 0.0042 0.0126 0.0144 -0.0094 0.0066 -0.0056 -0.0094 -0.007 -0.0056 -0.0131 -0.0002 -0.0062 -0.0094 -0.007 -0.0056 -0.0116 -0.0002 -0.0056 -0.0106 -0.0079 -0.0062 0.0115 -0.0002 0.047 0.0036 -0.0111 0.047 0.0082 -0.0062 0.0464 0.0093 -0.0069 0.047 -0.0036 -0.0111 0.047 0.0031 -0.0099 0.0464 -0.0118 -0.0002 0.044 -0.0127 -0.0002 0.0325 -0.0095 -0.0071 0.044 -0.0127 -0.0002 0.0325 -0.0095 0.0067 0.044 -0.0103 0.0073 0.0325 -0.0099 -0.0074 -0.0205 -0.0092 -0.0069 -0.0305 -0.0038 -0.0118 -0.0205 -0.0104 -0.0002 0.0445 -0.0082 0.0058 0.0464 -0.0084 0.0059 0.0445 -0.0082 0.0058 0.0464 -0.0031 0.0095 0.0464 -0.0032 0.0097 0.0445 -0.0102 -0.0002 0.0464 -0.0084 0.0059 0.0445 -0.0035 -0.0111 -0.0305 -0.0095 -0.0071 0.044 -0.0039 -0.0123 0.0325 -0.0036 -0.0114 0.044 -0.0103 -0.0077 0.0325 -0.0042 -0.013 0.0114 -0.0041 -0.0127 -0.0031 0.0042 -0.013 0.0114 -0.0042 -0.013 0.0114 -0.0107 -0.0079 -0.0031 -0.0041 -0.0127 -0.0031 -0.0036 -0.0111 0.047 -0.0083 -0.0062 0.0604 -0.0093 -0.0069 0.047 -0.0032 -0.01 0.0604 0.0036 -0.0111 0.047 0.0032 -0.01 0.0604 0.0038 -0.0118 -0.0205 0.0092 -0.0069 -0.0305 0.0099 -0.0074 -0.0205 0.0038 -0.0118 -0.0205 -0.0035 -0.0111 -0.0305 0.0035 -0.0111 -0.0305 -0.0103 -0.0077 0.0325 -0.0036 -0.0114 0.044 0.0039 -0.0123 0.0325 0.0036 -0.0114 0.044 0.0042 -0.013 0.0114 0.0107 -0.0079 -0.0031 0.0109 -0.0081 0.0114 0.0041 -0.0127 -0.0031 -0.0036 -0.0111 0.047 0.0036 -0.0111 0.047 0.0083 -0.0062 0.0604 0.0032 -0.01 0.0604 0.0099 -0.0074 -0.0205 0.0092 -0.0069 -0.0305 0.0122 -0.0002 -0.0205 -0.0039 -0.0123 0.0325 0.0036 -0.0114 0.044 0.0039 -0.0123 0.0325 0.0095 -0.0071 0.044 0.0041 -0.0127 -0.0031 0.0109 -0.0081 0.0114 0.0107 -0.0079 -0.0031 0.0135 -0.0002 0.0114 0.0083 -0.0062 0.0604 0.0115 -0.0002 0.047 0.0103 -0.0002 0.0604 0.0093 -0.0069 0.047 0.0122 -0.0002 -0.0205 0.0092 0.0065 -0.0305 0.0099 0.007 -0.0205 0.0114 -0.0002 -0.0305 0.0095 -0.0071 0.044 0.0127 -0.0002 0.0325 0.0118 -0.0002 0.044 0.0103 -0.0077 0.0325 0.0135 -0.0002 0.0114 0.0107 0.0076 -0.0031 0.0109 0.0077 0.0114 0.0132 -0.0002 -0.0031 0.0115 -0.0002 0.047 0.0083 0.0059 0.0604 0.0103 -0.0002 0.0604 0.0093 -0.0069 0.047 0.0099 0.007 -0.0205 0.0092 0.0065 -0.0305 0.0038 0.0114 -0.0205 0.0103 -0.0077 0.0325 0.0118 -0.0002 0.044 0.0127 -0.0002 0.0325 0.0095 0.0067 0.044 0.0132 -0.0002 -0.0031 0.0109 0.0077 0.0114 0.0107 0.0076 -0.0031 0.0042 0.0126 0.0114 0.0083 0.0059 0.0604 0.0036 0.0108 0.047 0.0032 0.0096 0.0604 0.0093 0.0066 0.047 0.0038 0.0114 -0.0205 0.0035 0.0107 -0.0305 -0.0038 0.0114 -0.0205 0.0035 0.0107 -0.0305 0.0095 0.0067 0.044 0.0039 0.0119 0.0325 0.0036 0.011 0.044 0.0103 0.0073 0.0325 0.0041 0.0124 -0.0031 0.0042 0.0126 0.0114 0.0041 0.0124 -0.0031 -0.0042 0.0126 0.0114 0.0036 0.0108 0.047 -0.0032 0.0096 0.0604 0.0032 0.0096 0.0604 0.0093 0.0066 0.047 -0.0038 0.0114 -0.0205 -0.0092 0.0065 -0.0305 -0.0099 0.007 -0.0205 -0.0035 0.0107 -0.0305 0.0103 0.0073 0.0325 0.0036 0.011 0.044 -0.0039 0.0119 0.0325 -0.0036 0.011 0.044 -0.0107 0.0076 -0.0031 -0.0135 -0.0002 0.0114 -0.0109 0.0077 0.0114 -0.0107 0.0076 -0.0031 -0.0042 0.0126 0.0114 -0.0041 0.0124 -0.0031 -0.0041 0.0124 -0.0031 -0.0109 0.0077 0.0114 -0.0036 0.0108 0.047 -0.0036 0.0108 0.047 -0.0083 0.0059 0.0604 -0.0032 0.0096 0.0604 -0.0122 -0.0002 -0.0205 -0.0092 -0.0069 -0.0305 -0.0099 -0.0074 -0.0205 -0.0122 -0.0002 -0.0205 -0.0092 0.0065 -0.0305 -0.0114 -0.0002 -0.0305 -0.0099 0.007 -0.0205 -0.0135 -0.0002 0.0144 -0.0104 0.0074 0.0295 -0.0109 0.0077 0.0144 -0.0129 -0.0002 0.0295 -0.0135 -0.0002 0.0144 -0.0104 -0.0078 0.0295 -0.0095 0.0067 0.044 -0.0039 0.0119 0.0325 -0.0103 0.0073 0.0325 -0.0118 -0.0002 0.044 0.0039 0.0119 0.0325 -0.0036 0.011 0.044 -0.0032 -0.01 0.0604 -0.0083 -0.0062 0.0604 -0.0115 -0.0002 0.047 -0.0093 -0.0069 0.047 -0.0115 0.0081 -0.04 -0.0044 0.0135 -0.035 -0.0044 0.0133 -0.04 0.0115 0.0081 -0.04 0.0144 -0.0002 -0.035 0.0142 -0.0002 -0.04 0.0115 -0.0085 -0.04 0.0044 -0.0139 -0.035 0.0044 -0.0137 -0.04 -0.0115 -0.0085 -0.04 -0.0144 -0.0002 -0.035 -0.0142 -0.0002 -0.04 -0.0044 -0.0137 -0.04 0.0115 -0.0085 -0.04 0.0044 -0.0137 -0.04 -0.0044 0.0133 -0.04 -0.0115 0.0081 -0.04 0.0044 0.0133 -0.04 0.0142 -0.0002 -0.04 -0.0115 -0.0085 -0.04 -0.0142 -0.0002 -0.04 0.0115 0.0081 -0.04 -0.0044 -0.0139 -0.035 -0.0092 -0.0069 -0.0305 -0.0116 -0.0086 -0.035 -0.0044 -0.0139 -0.035 -0.0115 -0.0085 -0.04 -0.0044 -0.0137 -0.04 -0.0038 -0.0118 -0.0205 -0.0116 0.0083 -0.035 -0.0115 0.0081 -0.04 -0.0144 -0.0002 -0.035 -0.0092 0.0065 -0.0305 -0.0044 0.0135 -0.035 -0.0116 0.0083 -0.035 -0.0092 0.0065 -0.0305 -0.0144 -0.0002 -0.035 -0.0114 -0.0002 -0.0305 -0.0035 0.0107 -0.0305 0.0116 0.0083 -0.035 0.0115 0.0081 -0.04 0.0044 0.0135 -0.035 0.0092 0.0065 -0.0305 0.0044 0.0135 -0.035 0.0035 0.0107 -0.0305 0.0114 -0.0002 -0.0305 0.0092 0.0065 -0.0305 0.0144 -0.0002 -0.035 0.0116 0.0083 -0.035 0.0116 -0.0086 -0.035 0.0044 -0.0139 -0.035 -0.0044 -0.0137 -0.04 0.0044 -0.0137 -0.04 -0.0044 -0.0139 -0.035 0.0035 -0.0111 -0.0305 0.0044 -0.0139 -0.035 0.0092 -0.0069 -0.0305 0.0035 -0.0111 -0.0305 -0.0044 -0.0139 -0.035 0.0044 -0.0139 -0.035 -0.0035 -0.0111 -0.0305 -0.0116 -0.0086 -0.035 -0.0092 -0.0069 -0.0305 -0.0144 -0.0002 -0.035 -0.0116 -0.0086 -0.035 -0.0114 -0.0002 -0.0305 -0.0035 -0.0111 -0.0305 -0.0116 -0.0086 -0.035 -0.0116 0.0083 -0.035 -0.0142 -0.0002 -0.04 -0.0114 -0.0002 -0.0305 -0.0035 0.0107 -0.0305 0.0035 0.0107 -0.0305 -0.0044 0.0135 -0.035 -0.0035 0.0107 -0.0305 0.0044 0.0133 -0.04 0.0116 0.0083 -0.035 -0.0044 0.0135 -0.035 0.0044 0.0135 -0.035 0.0044 0.0133 -0.04 -0.0116 0.0083 -0.035 -0.0044 0.0133 -0.04 0.0044 0.0135 -0.035 0.004 0.0123 -0.0062 0.01 0.0071 -0.0175 0.0038 0.0116 -0.0175 0.004 0.0123 -0.0062 -0.0038 0.0116 -0.0175 -0.004 0.0123 -0.0062 -0.0109 -0.0081 0.0114 -0.0107 -0.0079 -0.0031 -0.0135 -0.0002 0.0114 -0.0132 -0.0002 -0.0031 -0.0132 -0.0002 -0.0031 -0.0109 -0.0081 0.0114 0.0106 0.0075 -0.0062 0.01 0.0071 -0.0175 0.0131 -0.0002 -0.0062 0.0124 -0.0002 -0.0175 0.0106 0.0075 -0.0062 0.0131 -0.0002 -0.0062 0.01 -0.0075 -0.0175 0.0124 -0.0002 -0.0175 0.0106 -0.0079 -0.0062 0.01 -0.0075 -0.0175 0.004 -0.0126 -0.0062 0.0038 -0.012 -0.0175 0.004 -0.0126 -0.0062 -0.0038 -0.012 -0.0175 0.0038 -0.012 -0.0175 0.0106 -0.0079 -0.0062 -0.004 -0.0126 -0.0062 -0.01 -0.0075 -0.0175 -0.0038 -0.012 -0.0175 -0.004 -0.0126 -0.0062 -0.01 -0.0075 -0.0175 -0.0131 -0.0002 -0.0062 -0.0124 -0.0002 -0.0175 -0.0106 -0.0079 -0.0062 0.0116 -0.0086 -0.035 0.0115 -0.0085 -0.04 0.0144 -0.0002 -0.035 0.0114 -0.0002 -0.0305 0.0116 0.0083 -0.035 0.0144 -0.0002 -0.035 0.0092 -0.0069 -0.0305 0.0116 -0.0086 -0.035 0.0142 -0.0002 -0.04 0.0114 -0.0002 -0.0305 0.0116 -0.0086 -0.035 0.0035 -0.0111 -0.0305 0.0038 0.0116 -0.0175 -0.004 0.0123 -0.0062 -0.01 0.0071 -0.0175 -0.0106 0.0075 -0.0062 -0.0106 -0.0079 -0.0062 -0.0131 -0.0002 -0.0062 -0.01 0.0071 -0.0175 -0.0124 -0.0002 -0.0175 -0.0106 0.0075 -0.0062 -0.0038 0.0116 -0.0175 -0.0104 -0.0078 0.0295 -0.0042 -0.013 0.0144 -0.004 -0.0125 0.0295 -0.0109 -0.0081 0.0144 0.0032 0.0096 0.0604 0.0103 -0.0002 0.0604 0.0083 0.0059 0.0604 -0.0032 0.0096 0.0604 -0.0083 0.0059 0.0604 -0.0083 -0.0062 0.0604 0.0083 -0.0062 0.0604 0.0032 -0.01 0.0604 -0.0032 -0.01 0.0604 -0.0103 -0.0002 0.0604 -0.0109 -0.0081 0.0144 -0.004 -0.0125 0.0295 0.0042 -0.013 0.0144 0.004 -0.0125 0.0295 -0.0042 -0.013 0.0144 0.004 -0.0125 0.0295 0.0042 -0.013 0.0144 0.0104 -0.0078 0.0295 0.0109 -0.0081 0.0144 0.0104 -0.0078 0.0295 0.0135 -0.0002 0.0144 0.0129 -0.0002 0.0295 0.0109 -0.0081 0.0144 0.0129 -0.0002 0.0295 0.0135 -0.0002 0.0144 0.0104 0.0074 0.0295 0.0109 0.0077 0.0144 0.0104 0.0074 0.0295 0.0042 0.0126 0.0144 0.004 0.0121 0.0295 0.0109 0.0077 0.0144 0.004 0.0121 0.0295 0.0042 0.0126 0.0144 -0.004 0.0121 0.0295 -0.0104 0.0074 0.0295 -0.0042 0.0126 0.0144 -0.0109 0.0077 0.0144 -0.0129 -0.0002 0.0295 -0.0042 0.0126 0.0144 -0.004 0.0121 0.0295 -0.0115 -0.0002 0.047 -0.0083 0.0059 0.0604 -0.0093 0.0066 0.047 -0.0103 -0.0002 0.0604 -0.0103 -0.0002 0.0604 -0.0093 0.0066 0.047 -0.0115 0 0.0501 -0.0115 -0.0091 0.0582 -0.0115 0 0.0589 -0.0115 0.0091 0.0582 -0.0115 0.0092 0.0494 -0.0115 -0.009 0.0494 0.0115 -0.009 0.0494 0.0115 -0.0182 0.0477 0.0115 -0.009 0.0494 -0.0115 0 0.0501 0.0115 0 0.0501 -0.0115 -0.009 0.0494 0.0115 0 0.0501 -0.0115 0.0092 0.0494 0.0115 0.0092 0.0494 0.0115 0 0.0501 0.0115 -0.0091 0.0582 0.0115 -0.009 0.0494 0.0115 0.0091 0.0582 0.0115 0 0.0589 -0.0115 0 0.0589 0.0115 -0.0091 0.0582 0.0115 0 0.0589 0.0115 0 0.0589 -0.0115 0.0091 0.0582 -0.0115 0 0.0589 -0.0115 -0.009 0.0494 -0.0115 -0.0182 0.0565 -0.0115 -0.0182 0.0477 -0.0115 0.0182 0.0565 -0.0115 0.0182 0.0477 0.0115 0.0092 0.0494 0.0115 0.0182 0.0565 0.0115 0.0182 0.0477 -0.0051 -0.0215 0.0456 0.0115 -0.0182 0.0477 0.0051 -0.0215 0.0456 -0.0115 -0.0182 0.0477 -0.0115 -0.0182 0.0477 -0.0051 0.0215 0.0545 0.0115 0.0182 0.0565 0.0051 0.0215 0.0545 -0.0115 -0.0091 0.0582 -0.0115 -0.0091 0.0582 0.0115 -0.0182 0.0565 0.0115 -0.0091 0.0582 0.0115 -0.0182 0.0565 0.0115 -0.0182 0.0477 -0.0051 -0.0216 0.0545 -0.0051 -0.0215 0.0456 0.0051 -0.0215 0.0456 0.0051 -0.0216 0.0545 -0.0115 -0.0182 0.0477 -0.0051 -0.0216 0.0545 -0.0115 -0.0182 0.0565 -0.0051 -0.0215 0.0456 -0.0051 0.0215 0.0545 -0.0051 0.0216 0.0456 -0.0115 0.0182 0.0477 -0.0115 0.0182 0.0565 0.0115 -0.0182 0.0477 0.0051 -0.0216 0.0545 0.0051 -0.0215 0.0456 0.0115 -0.0182 0.0565 0.0115 0.0182 0.0477 0.0051 0.0215 0.0545 0.0115 0.0182 0.0565 0.0051 0.0216 0.0456 -0.0051 -0.0216 0.0545 0.0115 -0.0182 0.0565 -0.0115 -0.0182 0.0565 0.0051 -0.0216 0.0545 -0.0115 -0.0182 0.0565 0.0115 0.0091 0.0582 -0.0115 0.0182 0.0565 0.0115 0.0091 0.0582 -0.0115 0.0182 0.0565 -0.0115 0.0091 0.0582 0.0115 0.0182 0.0565 0.0051 0.0216 0.0456 -0.0051 0.0215 0.0545 0.0051 0.0215 0.0545 -0.0051 0.0216 0.0456 -0.0115 0 0.0501 0.0115 0.0092 0.0494 -0.0115 0.0092 0.0494 -0.0115 0.0182 0.0477 0.0115 0.0182 0.0477 -0.0051 0.0216 0.0456 0.0051 0.0216 0.0456 -0.0115 0.0182 0.0477 0.0115 0.0182 0.0477 0 0.0212 0.1724 -0.0005 0.0212 0.1724 -0.0005 0.021 0.0739 -0.0039 0.0099 0.0797 -0.0039 0.0101 0.1726 -0.0039 0.0099 0.1948 -0.0005 0.0212 0.1724 -0.0039 0.0101 0.1726 -0.0005 0.0207 0.1956 -0.0005 0.0212 0.1724 -0.0039 0.0099 0.1948 -0.0005 0.0192 0.217 -0.0039 0.0054 0.2289 -0.0005 0.0152 0.2343 -0.0005 0.0152 0.2343 0 0.0099 0.2443 0 0.0152 0.2343 -0.001 0.0051 0.2521 -0.0039 0.0054 0.2289 -0.0039 -0.0009 0.2371 -0.0005 0.0099 0.2443 -0.0039 0.0054 0.2289 -0.001 0.0051 0.2521 -0.0005 0.0192 0.217 0 0.0152 0.2343 0 0.0192 0.217 -0.0005 0.0099 0.2443 0 0.0051 0.2521 0 0.0099 0.2443 -0.0005 0.0207 0.1956 0 0.0192 0.217 0 0.0207 0.1956 -0.001 0.0051 0.2521 0 -0.0009 0.26 0 0.0051 0.2521 -0.0039 0.0086 0.2149 -0.0005 0.0192 0.217 -0.0005 0.0207 0.1956 -0.0039 0.0086 0.2149 -0.0005 0.0207 0.1956 -0.0039 0.0099 0.1948 -0.0039 0.0054 0.2289 -0.0005 0.0099 0.2443 -0.0005 0.0152 0.2343 -0.0039 0.0054 0.2289 -0.0005 0.0192 0.217 -0.0039 0.0086 0.2149 -0.0005 0.0212 0.1724 0 0.0207 0.1956 0 0.0212 0.1724 -0.0005 -0.023 0.1724 0 -0.023 0.1724 -0.0039 -0.0119 0.1726 -0.0039 -0.0117 0.0797 -0.0005 -0.023 0.1724 -0.0005 -0.023 0.1724 -0.0039 -0.0117 0.1948 -0.0039 -0.0119 0.1726 -0.0005 -0.0228 0.0739 -0.0039 -0.0117 0.1948 -0.0005 -0.023 0.1724 -0.0005 -0.0226 0.1956 -0.0005 -0.021 0.217 -0.0039 -0.0072 0.2289 -0.0039 -0.0104 0.2149 -0.0005 -0.0226 0.1956 -0.0039 -0.0104 0.2149 -0.0039 -0.0117 0.1948 -0.0005 -0.0117 0.2443 0 -0.0171 0.2343 0 -0.0117 0.2443 -0.0039 -0.0009 0.2371 -0.001 -0.0009 0.26 -0.001 0.0051 0.2521 -0.001 -0.0009 0.26 -0.0039 -0.0009 0.2371 -0.001 -0.0069 0.2521 -0.001 -0.0069 0.2521 -0.0039 -0.0072 0.2289 -0.0005 -0.0117 0.2443 -0.0005 -0.0117 0.2443 -0.0039 -0.0072 0.2289 -0.0005 -0.0171 0.2343 -0.0005 -0.0171 0.2343 0 -0.021 0.217 0 -0.0171 0.2343 -0.0005 -0.0117 0.2443 0 -0.0069 0.2521 -0.001 -0.0069 0.2521 -0.0005 -0.0226 0.1956 0 -0.021 0.217 -0.0005 -0.021 0.217 -0.001 -0.0009 0.26 0 -0.0069 0.2521 0 -0.0009 0.26 -0.0039 -0.0104 0.2149 -0.0005 -0.0226 0.1956 -0.0005 -0.021 0.217 -0.0039 -0.0072 0.2289 -0.001 -0.0069 0.2521 -0.0039 -0.0009 0.2371 -0.0039 -0.0072 0.2289 -0.0005 -0.021 0.217 -0.0005 -0.0171 0.2343 -0.0005 -0.023 0.1724 0 -0.0226 0.1956 -0.0005 -0.0226 0.1956 -0.0005 0.0212 0.1724 0.0005 0.0212 0.1724 0.0039 0.0101 0.1726 0.0039 0.0099 0.0797 0.0005 0.0212 0.1724 0.0005 0.021 0.0739 0.0005 0.0212 0.1724 0.0039 0.0099 0.1948 0.0039 0.0101 0.1726 0.0039 0.0099 0.1948 0.0005 0.0212 0.1724 0.0005 0.0207 0.1956 0.0005 0.0192 0.217 0.0039 0.0054 0.2289 0.0039 0.0086 0.2149 0.0005 0.0207 0.1956 0.0039 0.0086 0.2149 0.0039 0.0099 0.1948 -0.0005 0.0099 0.2443 0.0005 0.0099 0.2443 0.0005 0.0152 0.2343 0.001 0.0051 0.2521 0.0039 0.0054 0.2289 0.0005 0.0099 0.2443 0.0005 0.0099 0.2443 0.0039 0.0054 0.2289 0.0005 0.0152 0.2343 -0.0005 0.0152 0.2343 0.0005 0.0152 0.2343 0.0005 0.0192 0.217 0.0005 0.0099 0.2443 0.001 0.0051 0.2521 0.0005 0.0207 0.1956 0.0005 0.0192 0.217 -0.0005 0.0192 0.217 -0.001 -0.0009 0.26 0.001 -0.0009 0.26 0.001 0.0051 0.2521 -0.001 0.0051 0.2521 0.0039 0.0086 0.2149 0.0005 0.0207 0.1956 0.0005 0.0192 0.217 0.0039 0.0054 0.2289 0.001 0.0051 0.2521 0.0039 -0.0009 0.2371 0.0039 0.0054 0.2289 0.0005 0.0192 0.217 0.0005 0.0152 0.2343 0.0005 0.0212 0.1724 0.0005 0.0207 0.1956 -0.0005 0.0207 0.1956 0.0005 -0.023 0.1724 0.0005 -0.023 0.1724 0.0039 -0.0117 0.0797 0.0039 -0.0119 0.1726 0.0005 -0.0228 0.0739 0.0039 -0.0117 0.1948 0.0005 -0.023 0.1724 0.0039 -0.0119 0.1726 0.0005 -0.0226 0.1956 0.0005 -0.023 0.1724 0.0039 -0.0117 0.1948 0.0005 -0.021 0.217 0.0039 -0.0072 0.2289 0.0005 -0.0171 0.2343 -0.0005 -0.0171 0.2343 0.0005 -0.0171 0.2343 0.0005 -0.0117 0.2443 0.001 -0.0009 0.26 0.0039 -0.0009 0.2371 0.001 0.0051 0.2521 0.0039 -0.0009 0.2371 0.001 -0.0009 0.26 0.001 -0.0069 0.2521 0.001 -0.0069 0.2521 0.0039 -0.0072 0.2289 0.0039 -0.0009 0.2371 0.0005 -0.0117 0.2443 0.0039 -0.0072 0.2289 0.001 -0.0069 0.2521 -0.0005 -0.021 0.217 0.0005 -0.021 0.217 0.0005 -0.0171 0.2343 0.0005 -0.0117 0.2443 0 -0.0117 0.2443 0.0005 -0.021 0.217 0 -0.0226 0.1956 0.0005 -0.0226 0.1956 0.001 -0.0069 0.2521 -0.001 -0.0069 0.2521 0.001 -0.0069 0.2521 0.001 -0.0009 0.26 0.0039 -0.0104 0.2149 0.0005 -0.021 0.217 0.0005 -0.0226 0.1956 0.0039 -0.0104 0.2149 0.0005 -0.0226 0.1956 0.0039 -0.0117 0.1948 0.0039 -0.0072 0.2289 0.0005 -0.0117 0.2443 0.0005 -0.0171 0.2343 0.0039 -0.0072 0.2289 0.0005 -0.021 0.217 0.0039 -0.0104 0.2149 0.0005 -0.0226 0.1956 0 -0.023 0.1724 0.0005 -0.023 0.1724</float_array><technique_common><accessor source="#g-p-a" count="1418" stride="3"><param name="X" type="float"/><param name="Y" type="float"/><param name="Z" type="float"/></accessor></technique_common></source>
<source id="g-n"><float_array id="g-n-a" count="4254">-1 0 0 -1 0 0 -1 0 0 -1 0 0 -1 0 0 -1 0 0 -1 0 0 -1 0 0 0 1 -0.002 0 1 -0.002 0 1 -0.002 -0.278 0.514 0.811 -0.278 0.514 0.811 -0.278 0.514 0.811 -1 0 0 -1 0 0 -1 0 0 -1 0 0 -1 0 0 -1 0 0 -1 0 0 -1 0 0 -1 0 0 -1 0 0 -1 0 0 -1 0 0 -1 0 0 0 -1 -0.002 0 -1 -0.002 0 -1 -0.002 0 -1 -0.002 0 -1 -0.002 -0.29 -0.448 0.846 -0.29 -0.448 0.846 -0.29 -0.448 0.846 -1 0 0 -1 0 0 -1 0 0 -1 0 0 1 0 0 1 0 0 1 0 0 1 0 0 1 0 0 1 0 0 1 0 0 0 1 -0.002 0 1 -0.002 0 1 -0.002 0 1 -0.002 0 1 -0.002 0 1 -0.002 0.278 0.514 0.811 0.278 0.514 0.811 0.278 0.514 0.811 1 0 0 1 0 0 1 0 0 1 0 0 1 0 0 1 0 0 1 0 0 1 0 0 1 0 0 1 0 0 1 0 0 1 0 0 1 0 0 1 0 0 0 -1 -0.002 0 -1 -0.002 0 -1 -0.002 0 -1 -0.002 0.278 -0.514 0.811 0.278 -0.514 0.811 0.278 -0.514 0.811 1 0 0 1 0 0 1 0 0 1 0 0 -1 0 0 -1 0 0 -1 0 0 -1 0 0 -1 0 0 0 0.179 -0.984 0 0.179 -0.984 0 0.179 -0.984 0 0.075 -0.997 0 0.075 -0.997 0 0.075 -0.997 0 0.075 -0.997 0 -0.075 -0.997 0 -0.075 -0.997 0 -0.075 -0.997 1 0 0 1 0 0 1 0 0 1 0 0 1 0 0 0 -0.075 0.997 0 -0.075 0.997 0 -0.075 0.997 0 0.075 0.997 0 0.075 0.997 0 0.075 0.997 -1 0 0 -1 0 0 -1 0 0 -1 0 0 -1 0 0 1 0 0 1 0 0 1 0 0 0 0.179 -0.984 0 0.526 -0.851 0 0.526 -0.851 0 0.526 -0.851 0 0.526 -0.851 0 0.526 0.851 0 0.526 0.851 0 0.526 0.851 0 -0.075 0.997 0 -0.179 0.984 0 -0.179 0.984 0 -0.179 0.984 1 0 0 1 0 0 0 -1 -0.015 0 -1 -0.015 0 -1 -0.015 0 -1 -0.015 -0.489 -0.872 -0.013 -0.489 -0.872 -0.013 -0.489 -0.872 -0.013 -0.489 -0.872 -0.013 -0.482 0.876 0.013 -0.482 0.876 0.013 -0.482 0.876 0.013 -0.482 0.876 0.013 0.489 -0.872 -0.013 0.489 -0.872 -0.013 0.489 -0.872 -0.013 0.489 -0.872 -0.013 0.482 0.876 0.013 0.482 0.876 0.013 0.482 0.876 0.013 0.482 0.876 0.013 0 -0.526 0.851 0 -0.526 0.851 0 -0.526 0.851 0 -0.179 0.984 0 -0.526 0.851 0 0.075 0.997 0 0.526 0.851 0 0.179 0.984 0 0.179 0.984 0 0.179 0.984 0 0.179 0.984 0 1 0.015 0 1 0.015 0 1 0.015 0 1 0.015 0 -0.075 -0.997 0 -0.179 -0.984 0 -0.179 -0.984 0 -0.179 -0.984 0 -0.526 -0.851 0 -0.526 -0.851 0 -0.526 -0.851 0 -0.526 -0.851 0 -0.179 -0.984 0.22 -0.303 0.927 0.22 -0.303 0.927 0.22 -0.303 0.927 0 -0.375 0.927 0 -0.375 0.927 0 -0.375 0.927 0.344 0.112 -0.932 0.344 0.112 -0.932 0.344 0.112 -0.932 0.213 0.293 -0.932 0.213 0.293 -0.932 0.213 0.293 -0.932 0 -0.351 -0.936 0 -0.351 -0.936 0 -0.351 -0.936 0.206 -0.284 -0.936 0.206 -0.284 -0.936 0.206 -0.284 -0.936 0.34 0.11 0.934 0.34 0.11 0.934 0.34 0.11 0.934 0.21 0.289 0.934 0.21 0.289 0.934 0.21 0.289 0.934 0 -0.354 0.935 0 -0.354 0.935 0 -0.354 0.935 0.208 -0.286 0.935 0.208 -0.286 0.935 0.208 -0.286 0.935 -0.231 0.319 -0.919 -0.231 0.319 -0.919 -0.231 0.319 -0.919 -0.231 0.319 -0.919 -0.375 0.122 -0.919 -0.375 0.122 -0.919 -0.375 0.122 -0.919 0.367 0.119 0.922 0.367 0.119 0.922 0.367 0.119 0.922 0.227 0.313 0.922 0.227 0.313 0.922 0.227 0.313 0.922 0.227 0.313 0.922 0 -0.345 -0.939 0 -0.345 -0.939 0 -0.345 -0.939 0.203 -0.279 -0.939 0.203 -0.279 -0.939 0.203 -0.279 -0.939 0 -0.344 0.939 0 -0.344 0.939 0 -0.344 0.939 0.202 -0.279 0.939 0.202 -0.279 0.939 0.202 -0.279 0.939 0.375 0.122 -0.919 0.375 0.122 -0.919 0.375 0.122 -0.919 0.231 0.319 -0.919 0.231 0.319 -0.919 0.231 0.319 -0.919 0.217 0.299 -0.929 0.217 0.299 -0.929 0.217 0.299 -0.929 0 0.37 -0.929 0 0.37 -0.929 0 0.37 -0.929 0.213 -0.293 -0.932 0.213 -0.293 -0.932 0.213 -0.293 -0.932 0 -0.362 -0.932 0 -0.362 -0.932 0 -0.362 -0.932 0.22 0.303 0.927 0.22 0.303 0.927 0.22 0.303 0.927 0 0.375 0.927 0 0.375 0.927 0 0.375 0.927 0.21 -0.289 0.934 0.21 -0.289 0.934 0.21 -0.289 0.934 0 -0.358 0.934 0 -0.358 0.934 0 -0.358 0.934 -0.352 -0.114 -0.929 -0.352 -0.114 -0.929 -0.352 -0.114 -0.929 -0.352 0.114 -0.929 -0.352 0.114 -0.929 -0.352 0.114 -0.929 0 0.351 -0.936 0 0.351 -0.936 0 0.351 -0.936 0.206 0.284 -0.936 0.206 0.284 -0.936 0.206 0.284 -0.936 0 -0.386 0.922 0 -0.386 0.922 0 -0.386 0.922 0.227 -0.313 0.922 0.227 -0.313 0.922 0.227 -0.313 0.922 -0.357 0.116 0.927 -0.357 0.116 0.927 -0.357 0.116 0.927 -0.357 -0.116 0.927 -0.357 -0.116 0.927 -0.357 -0.116 0.927 0 0.354 0.935 0 0.354 0.935 0 0.354 0.935 -0.334 0.108 -0.936 -0.334 0.108 -0.936 -0.334 0.108 -0.936 -0.334 -0.108 -0.936 -0.334 -0.108 -0.936 -0.334 -0.108 -0.936 -0.947 -0.308 -0.089 -0.947 -0.308 -0.089 -0.947 -0.308 -0.089 -0.95 -0.309 -0.051 -0.95 -0.309 -0.051 -0.95 -0.309 -0.051 -0.951 -0.309 0.011 -0.951 -0.309 0.011 -0.951 -0.309 0.011 -0.951 -0.309 0.011 -0.588 -0.809 0.011 -0.588 -0.809 0.011 -0.588 -0.809 0.011 -0.948 -0.308 0.078 -0.948 -0.308 0.078 -0.948 -0.308 0.078 -0.948 -0.308 0.078 -0.586 -0.807 0.078 -0.586 -0.807 0.078 -0.586 -0.807 0.078 -0.945 -0.307 0.113 -0.945 -0.307 0.113 -0.945 -0.307 0.113 -0.584 -0.804 0.113 -0.584 -0.804 0.113 -0.584 -0.804 0.113 -0.945 -0.307 0.113 -0.585 -0.806 -0.089 -0.585 -0.806 -0.089 -0.585 -0.806 -0.089 -0.585 -0.806 -0.089 0 -0.996 -0.089 0 -0.996 -0.089 0 -0.996 -0.089 -0.587 -0.808 -0.051 -0.587 -0.808 -0.051 -0.587 -0.808 -0.051 -0.587 -0.808 -0.051 -0.588 -0.809 0.011 -0.586 -0.807 0.078 0 -0.997 0.078 0 -0.997 0.078 0 -0.997 0.078 -0.584 -0.804 0.113 0 -0.996 -0.089 0.585 -0.806 -0.089 0.585 -0.806 -0.089 0.585 -0.806 -0.089 0 -0.999 -0.051 0 -0.999 -0.051 0 -0.999 -0.051 0.587 -0.808 -0.051 0.587 -0.808 -0.051 0.587 -0.808 -0.051 0 -0.999 -0.051 0 -1 0.011 0 -1 0.011 0 -1 0.011 0 -1 0.011 0 -0.997 0.078 0 -0.994 0.113 0 -0.994 0.113 0 -0.994 0.113 0 -0.994 0.113 0.585 -0.806 -0.089 0.587 -0.808 -0.051 0.951 -0.309 0.011 0.951 -0.309 0.011 0.951 -0.309 0.011 0.588 -0.809 0.011 0.588 -0.809 0.011 0.588 -0.809 0.011 0.588 -0.809 0.011 0.586 -0.807 0.078 0.586 -0.807 0.078 0.586 -0.807 0.078 0.586 -0.807 0.078 0.948 -0.308 0.078 0.948 -0.308 0.078 0.948 -0.308 0.078 0.584 -0.804 0.113 0.584 -0.804 0.113 0.584 -0.804 0.113 0.584 -0.804 0.113 0.945 -0.307 0.113 0.945 -0.307 0.113 0.945 -0.307 0.113 0.947 0.308 -0.089 0.947 0.308 -0.089 0.947 0.308 -0.089 0.947 -0.308 -0.089 0.947 -0.308 -0.089 0.947 -0.308 -0.089 0.947 -0.308 -0.089 0.95 -0.309 -0.051 0.95 -0.309 -0.051 0.95 -0.309 -0.051 0.95 -0.309 -0.051 0.95 0.309 -0.051 0.95 0.309 -0.051 0.95 0.309 -0.051 0.951 -0.309 0.011 0.948 -0.308 0.078 0.945 -0.307 0.113 0.947 0.308 -0.089 0.95 0.309 -0.051 0.588 0.809 0.011 0.588 0.809 0.011 0.588 0.809 0.011 0.951 0.309 0.011 0.951 0.309 0.011 0.951 0.309 0.011 0.951 0.309 0.011 0.948 0.308 0.078 0.948 0.308 0.078 0.948 0.308 0.078 0.948 0.308 0.078 0.586 0.807 0.078 0.586 0.807 0.078 0.586 0.807 0.078 0.945 0.307 0.113 0.945 0.307 0.113 0.945 0.307 0.113 0.945 0.307 0.113 0.584 0.804 0.113 0.584 0.804 0.113 0.584 0.804 0.113 0.585 0.806 -0.089 0.585 0.806 -0.089 0.585 0.806 -0.089 0.585 0.806 -0.089 0.587 0.808 -0.051 0.587 0.808 -0.051 0.587 0.808 -0.051 0.587 0.808 -0.051 0.588 0.809 0.011 0.586 0.807 0.078 0.584 0.804 0.113 0 0.994 0.113 0 0.994 0.113 0 0.994 0.113 -0.585 0.806 -0.089 -0.585 0.806 -0.089 -0.585 0.806 -0.089 0 0.996 -0.089 0 0.996 -0.089 0 0.996 -0.089 0 0.996 -0.089 0 0.999 -0.051 0 0.999 -0.051 0 0.999 -0.051 0 0.999 -0.051 -0.587 0.808 -0.051 -0.587 0.808 -0.051 -0.587 0.808 -0.051 0 1 0.011 0 1 0.011 0 1 0.011 0 1 0.011 0 0.997 0.078 0 0.997 0.078 0 0.997 0.078 0 0.997 0.078 0 0.994 0.113 -0.585 0.806 -0.089 -0.947 -0.308 -0.089 -0.947 0.308 -0.089 -0.947 0.308 -0.089 -0.947 0.308 -0.089 -0.947 0.308 -0.089 -0.587 0.808 -0.051 -0.95 -0.309 -0.051 -0.95 0.309 -0.051 -0.95 0.309 -0.051 -0.95 0.309 -0.051 -0.95 0.309 -0.051 -0.951 0.309 0.011 -0.951 0.309 0.011 -0.951 0.309 0.011 -0.588 0.809 0.011 -0.588 0.809 0.011 -0.588 0.809 0.011 -0.588 0.809 0.011 -0.951 0.309 0.011 -0.948 0.308 0.078 -0.948 0.308 0.078 -0.948 0.308 0.078 -0.586 0.807 0.078 -0.586 0.807 0.078 -0.586 0.807 0.078 -0.586 0.807 0.078 -0.948 0.308 0.078 0.202 0.279 0.939 0.202 0.279 0.939 0.202 0.279 0.939 0.202 0.279 0.939 0.328 0.106 0.939 0.328 0.106 0.939 0.328 0.106 0.939 0 -0.37 -0.929 0 -0.37 -0.929 0 -0.37 -0.929 0.217 -0.299 -0.929 0.217 -0.299 -0.929 0.217 -0.299 -0.929 0.203 0.279 -0.939 0.203 0.279 -0.939 0.203 0.279 -0.939 0.328 0.107 -0.939 0.328 0.107 -0.939 0.328 0.107 -0.939 -0.367 0.119 0.922 -0.367 0.119 0.922 -0.367 0.119 0.922 -0.227 0.313 0.922 -0.227 0.313 0.922 -0.227 0.313 0.922 0 -0.394 -0.919 0 -0.394 -0.919 0 -0.394 -0.919 -0.231 -0.319 -0.919 -0.231 -0.319 -0.919 -0.231 -0.319 -0.919 0.208 0.286 0.935 0.208 0.286 0.935 0.208 0.286 0.935 0.208 0.286 0.935 0.336 0.109 0.935 0.336 0.109 0.935 0.336 0.109 0.935 -0.34 0.11 0.934 -0.34 0.11 0.934 -0.34 0.11 0.934 -0.21 0.289 0.934 -0.21 0.289 0.934 -0.21 0.289 0.934 0 -0.386 0.922 -0.227 -0.313 0.922 -0.227 -0.313 0.922 -0.227 -0.313 0.922 0.206 0.284 -0.936 0.334 0.108 -0.936 0.334 0.108 -0.936 0.334 0.108 -0.936 -0.344 0.112 -0.932 -0.344 0.112 -0.932 -0.344 0.112 -0.932 -0.213 0.293 -0.932 -0.213 0.293 -0.932 -0.213 0.293 -0.932 -0.213 0.293 -0.932 0 -0.358 0.934 -0.21 -0.289 0.934 -0.21 -0.289 0.934 -0.21 -0.289 0.934 0.22 0.303 0.927 0.357 0.116 0.927 0.357 0.116 0.927 0.357 0.116 0.927 -0.328 0.106 0.939 -0.328 0.106 0.939 -0.328 0.106 0.939 -0.202 0.279 0.939 -0.202 0.279 0.939 -0.202 0.279 0.939 0 -0.362 -0.932 -0.213 -0.293 -0.932 -0.213 -0.293 -0.932 -0.213 -0.293 -0.932 0.217 0.299 -0.929 0.352 0.114 -0.929 0.352 0.114 -0.929 0.352 0.114 -0.929 -0.328 0.107 -0.939 -0.328 0.107 -0.939 -0.328 0.107 -0.939 -0.203 0.279 -0.939 -0.203 0.279 -0.939 -0.203 0.279 -0.939 -0.203 0.279 -0.939 0.375 0.122 -0.919 0.375 -0.122 -0.919 0.375 -0.122 -0.919 0.375 -0.122 -0.919 0 -0.344 0.939 -0.202 -0.279 0.939 -0.202 -0.279 0.939 -0.202 -0.279 0.939 -0.208 0.286 0.935 -0.208 0.286 0.935 -0.208 0.286 0.935 -0.336 0.109 0.935 -0.336 0.109 0.935 -0.336 0.109 0.935 -0.208 0.286 0.935 0 0.354 0.935 0 -0.345 -0.939 -0.203 -0.279 -0.939 -0.203 -0.279 -0.939 -0.203 -0.279 -0.939 0.367 0.119 0.922 0.227 -0.313 0.922 0.367 -0.119 0.922 0.367 -0.119 0.922 0.367 -0.119 0.922 0.367 -0.119 0.922 0 0.351 -0.936 -0.334 0.108 -0.936 -0.206 0.284 -0.936 -0.206 0.284 -0.936 -0.206 0.284 -0.936 -0.206 0.284 -0.936 -0.208 -0.286 0.935 -0.208 -0.286 0.935 -0.208 -0.286 0.935 0 -0.354 0.935 0.34 0.11 0.934 0.34 -0.11 0.934 0.34 -0.11 0.934 0.34 -0.11 0.934 0.34 -0.11 0.934 0.21 -0.289 0.934 -0.357 0.116 0.927 -0.22 0.303 0.927 -0.22 0.303 0.927 -0.22 0.303 0.927 0 0.375 0.927 -0.22 0.303 0.927 -0.334 -0.108 -0.936 -0.206 -0.284 -0.936 -0.206 -0.284 -0.936 -0.206 -0.284 -0.936 0 -0.351 -0.936 -0.206 -0.284 -0.936 0.344 0.112 -0.932 0.344 -0.112 -0.932 0.344 -0.112 -0.932 0.344 -0.112 -0.932 0.213 -0.293 -0.932 0.344 -0.112 -0.932 -0.352 0.114 -0.929 0 0.37 -0.929 -0.217 0.299 -0.929 -0.217 0.299 -0.929 -0.217 0.299 -0.929 -0.217 0.299 -0.929 0 0.394 -0.919 0 0.394 -0.919 0 0.394 -0.919 0 0.394 -0.919 0.231 0.319 -0.919 0 -0.375 0.927 -0.357 -0.116 0.927 -0.22 -0.303 0.927 -0.22 -0.303 0.927 -0.22 -0.303 0.927 -0.22 -0.303 0.927 0.328 -0.106 0.939 0.328 -0.106 0.939 0.328 -0.106 0.939 0.328 0.106 0.939 0.202 -0.279 0.939 0.328 -0.106 0.939 -0.352 -0.114 -0.929 -0.217 -0.299 -0.929 -0.217 -0.299 -0.929 -0.217 -0.299 -0.929 0 -0.37 -0.929 -0.217 -0.299 -0.929 0.203 -0.279 -0.939 0.328 -0.107 -0.939 0.328 -0.107 -0.939 0.328 -0.107 -0.939 0.328 0.107 -0.939 0.328 -0.107 -0.939 -0.227 0.313 0.922 0 0.386 0.922 0 0.386 0.922 0 0.386 0.922 0 0.386 0.922 -0.375 0.122 -0.919 -0.375 -0.122 -0.919 -0.375 -0.122 -0.919 -0.375 -0.122 -0.919 -0.231 -0.319 -0.919 -0.375 -0.122 -0.919 -0.367 0.119 0.922 -0.227 -0.313 0.922 -0.367 -0.119 0.922 -0.367 -0.119 0.922 -0.367 -0.119 0.922 -0.367 -0.119 0.922 0.336 0.109 0.935 0.336 -0.109 0.935 0.336 -0.109 0.935 0.336 -0.109 0.935 0.336 -0.109 0.935 0.208 -0.286 0.935 -0.21 0.289 0.934 0 0.358 0.934 0 0.358 0.934 0 0.358 0.934 0.21 0.289 0.934 0 0.358 0.934 -0.34 0.11 0.934 -0.21 -0.289 0.934 -0.34 -0.11 0.934 -0.34 -0.11 0.934 -0.34 -0.11 0.934 -0.34 -0.11 0.934 0.334 0.108 -0.936 0.334 -0.108 -0.936 0.334 -0.108 -0.936 0.334 -0.108 -0.936 0.206 -0.284 -0.936 0.334 -0.108 -0.936 0.213 0.293 -0.932 0 0.362 -0.932 0 0.362 -0.932 0 0.362 -0.932 0 0.362 -0.932 -0.344 0.112 -0.932 -0.213 -0.293 -0.932 -0.344 -0.112 -0.932 -0.344 -0.112 -0.932 -0.344 -0.112 -0.932 -0.344 -0.112 -0.932 -0.202 -0.279 0.939 -0.328 -0.106 0.939 -0.328 -0.106 0.939 -0.328 -0.106 0.939 -0.328 0.106 0.939 -0.328 -0.106 0.939 0.357 0.116 0.927 0.357 -0.116 0.927 0.357 -0.116 0.927 0.357 -0.116 0.927 0.357 -0.116 0.927 0.22 -0.303 0.927 0 0.344 0.939 0 0.344 0.939 0 0.344 0.939 0 0.344 0.939 -0.202 0.279 0.939 -0.328 0.107 -0.939 -0.328 -0.107 -0.939 -0.328 -0.107 -0.939 -0.328 -0.107 -0.939 -0.203 -0.279 -0.939 -0.328 -0.107 -0.939 0.217 -0.299 -0.929 0.352 0.114 -0.929 0.352 -0.114 -0.929 0.352 -0.114 -0.929 0.352 -0.114 -0.929 0.352 -0.114 -0.929 0 0.345 -0.939 0 0.345 -0.939 0 0.345 -0.939 0.203 0.279 -0.939 0 0.345 -0.939 -0.336 0.109 0.935 -0.208 -0.286 0.935 -0.336 -0.109 0.935 -0.336 -0.109 0.935 -0.336 -0.109 0.935 -0.336 -0.109 0.935 0.375 -0.122 -0.919 0.231 -0.319 -0.919 0.231 -0.319 -0.919 0.231 -0.319 -0.919 0 -0.394 -0.919 0.231 -0.319 -0.919 -0.948 -0.308 0.078 -0.948 -0.308 0.078 -0.948 -0.308 0.078 -0.948 0.308 0.078 -0.948 0.308 0.078 -0.948 0.308 0.078 -0.586 -0.807 -0.074 -0.586 -0.807 -0.074 -0.586 -0.807 -0.074 -0.945 0.307 0.113 -0.945 0.307 0.113 -0.945 0.307 0.113 -0.584 0.804 0.113 -0.584 0.804 0.113 -0.584 0.804 0.113 -0.945 0.307 0.113 -0.584 0.804 0.113 -0.586 -0.807 -0.074 -0.586 -0.807 0.078 -0.586 -0.807 0.078 -0.586 -0.807 0.078 -0.948 -0.308 0.078 0 -1 -0.018 0 -1 -0.018 0 -1 -0.018 -0.588 -0.809 -0.018 -0.588 -0.809 -0.018 -0.588 -0.809 -0.018 -0.586 -0.806 0.086 -0.586 -0.806 0.086 -0.586 -0.806 0.086 0 -0.996 0.086 0 -0.996 0.086 0 -0.996 0.086 0.586 -0.807 -0.074 0.586 -0.807 -0.074 0.586 -0.807 -0.074 0 -0.997 -0.074 0 -0.997 -0.074 0 -0.997 -0.074 -0.586 -0.807 0.078 0 -0.997 0.078 0 -0.997 0.078 0 -0.997 0.078 0.588 -0.809 -0.018 0.588 -0.809 -0.018 0.588 -0.809 -0.018 0 -1 -0.018 0 -0.996 0.086 0.586 -0.806 0.086 0.586 -0.806 0.086 0.586 -0.806 0.086 0.948 -0.308 -0.074 0.948 -0.308 -0.074 0.948 -0.308 -0.074 0 -0.997 0.078 0.586 -0.807 0.078 0.586 -0.807 0.078 0.586 -0.807 0.078 0.588 -0.809 -0.018 0.951 -0.309 -0.018 0.951 -0.309 -0.018 0.951 -0.309 -0.018 0.948 -0.308 0.086 0.948 -0.308 0.086 0.948 -0.308 0.086 0.586 -0.806 0.086 0.948 0.308 -0.074 0.948 0.308 -0.074 0.948 0.308 -0.074 0.948 -0.308 -0.074 0.948 -0.308 0.078 0.948 -0.308 0.078 0.948 -0.308 0.078 0.586 -0.807 0.078 0.951 0.309 -0.018 0.951 0.309 -0.018 0.951 0.309 -0.018 0.951 -0.309 -0.018 0.948 0.308 0.086 0.948 0.308 0.086 0.948 0.308 0.086 0.948 -0.308 0.086 0.586 0.807 -0.074 0.586 0.807 -0.074 0.586 0.807 -0.074 0.948 -0.308 0.078 0.948 0.308 0.078 0.948 0.308 0.078 0.948 0.308 0.078 0.951 0.309 -0.018 0.588 0.809 -0.018 0.588 0.809 -0.018 0.588 0.809 -0.018 0.586 0.806 0.086 0.586 0.806 0.086 0.586 0.806 0.086 0.948 0.308 0.086 0 0.997 -0.074 0 0.997 -0.074 0 0.997 -0.074 0.586 0.807 -0.074 0.586 0.807 0.078 0.586 0.807 0.078 0.586 0.807 0.078 0.948 0.308 0.078 0.588 0.809 -0.018 0 1 -0.018 0 1 -0.018 0 1 -0.018 0 0.996 0.086 0 0.996 0.086 0 0.996 0.086 0.586 0.806 0.086 -0.586 0.807 -0.074 -0.586 0.807 -0.074 -0.586 0.807 -0.074 0 0.997 -0.074 0.586 0.807 0.078 0 0.997 0.078 0 0.997 0.078 0 0.997 0.078 -0.951 0.309 -0.018 -0.951 0.309 -0.018 -0.951 0.309 -0.018 -0.588 0.809 -0.018 -0.588 0.809 -0.018 -0.588 0.809 -0.018 0 1 -0.018 -0.588 0.809 -0.018 0 0.996 0.086 -0.586 0.806 0.086 -0.586 0.806 0.086 -0.586 0.806 0.086 -0.948 -0.308 -0.074 -0.948 -0.308 -0.074 -0.948 -0.308 -0.074 -0.948 0.308 -0.074 -0.948 0.308 -0.074 -0.948 0.308 -0.074 -0.948 0.308 -0.074 -0.95 0.309 0.035 -0.95 0.309 0.035 -0.95 0.309 0.035 -0.95 -0.309 0.035 -0.95 -0.309 0.035 -0.95 -0.309 0.035 -0.586 0.807 0.078 -0.586 0.807 0.078 -0.586 0.807 0.078 -0.948 0.308 0.078 0 0.997 0.078 -0.586 0.807 0.078 -0.586 -0.806 0.086 -0.948 -0.308 0.086 -0.948 -0.308 0.086 -0.948 -0.308 0.086 -0.587 0.808 -0.042 -0.587 0.808 -0.042 -0.587 0.808 -0.042 0.95 0.309 -0.042 0.95 0.309 -0.042 0.95 0.309 -0.042 0.587 -0.808 -0.042 0.587 -0.808 -0.042 0.587 -0.808 -0.042 -0.95 -0.309 -0.042 -0.95 -0.309 -0.042 -0.95 -0.309 -0.042 0 0 -1 0 0 -1 0 0 -1 0 0 -1 0 0 -1 0 0 -1 0 0 -1 0 0 -1 0 0 -1 0 0 -1 -0.5 -0.688 0.525 -0.5 -0.688 0.525 -0.5 -0.688 0.525 -0.587 -0.808 -0.042 -0.587 -0.808 -0.042 -0.587 -0.808 -0.042 0 -0.997 -0.074 -0.95 0.309 -0.042 -0.95 0.309 -0.042 -0.95 0.309 -0.042 -0.5 0.688 0.525 -0.5 0.688 0.525 -0.5 0.688 0.525 -0.809 0.263 0.525 -0.809 0.263 0.525 -0.809 0.263 0.525 -0.586 0.807 -0.074 0.587 0.808 -0.042 0.587 0.808 -0.042 0.587 0.808 -0.042 0.5 0.688 0.525 0.5 0.688 0.525 0.5 0.688 0.525 0.948 0.308 -0.074 0.809 0.263 0.525 0.809 0.263 0.525 0.809 0.263 0.525 0.587 -0.808 -0.042 0 -0.999 -0.042 0 -0.999 -0.042 0 -0.999 -0.042 0 -0.999 -0.042 0.5 -0.688 0.525 0.5 -0.688 0.525 0.5 -0.688 0.525 0 -0.851 0.525 0 -0.851 0.525 0 -0.851 0.525 0 -0.851 0.525 -0.587 -0.808 -0.042 -0.809 -0.263 0.525 -0.809 -0.263 0.525 -0.809 -0.263 0.525 -0.948 -0.308 -0.074 -0.5 -0.688 0.525 -0.95 -0.309 -0.042 -0.809 0.263 0.525 -0.95 0.309 -0.042 -0.809 -0.263 0.525 -0.5 0.688 0.525 0 0.851 0.525 0 0.851 0.525 0 0.851 0.525 0.587 0.808 -0.042 0.5 0.688 0.525 0 0.999 -0.042 0 0.999 -0.042 0 0.999 -0.042 -0.587 0.808 -0.042 0 0.999 -0.042 0 0.851 0.525 0.587 0.808 -0.056 0.587 0.808 -0.056 0.587 0.808 -0.056 0 0.998 -0.056 0 0.998 -0.056 0 0.998 -0.056 -0.588 -0.809 -0.018 -0.951 -0.309 -0.018 -0.951 -0.309 -0.018 -0.951 -0.309 -0.018 -0.951 0.309 -0.018 -0.951 -0.309 -0.018 0.587 0.808 -0.056 0.95 0.309 -0.056 0.95 0.309 -0.056 0.95 0.309 -0.056 0.95 0.309 -0.056 0.95 -0.309 -0.056 0.95 -0.309 -0.056 0.95 -0.309 -0.056 0.95 -0.309 -0.056 0.587 -0.808 -0.056 0.587 -0.808 -0.056 0.587 -0.808 -0.056 0 -0.998 -0.056 0 -0.998 -0.056 0 -0.998 -0.056 0.587 -0.808 -0.056 -0.587 -0.808 -0.056 -0.587 -0.808 -0.056 -0.587 -0.808 -0.056 0 -0.998 -0.056 -0.95 -0.309 -0.056 -0.95 -0.309 -0.056 -0.95 -0.309 -0.056 -0.587 -0.808 -0.056 0.95 -0.309 -0.042 0.95 -0.309 -0.042 0.95 -0.309 -0.042 0.809 0.263 0.525 0.95 0.309 -0.042 0.809 -0.263 0.525 0.809 -0.263 0.525 0.809 -0.263 0.525 0.95 -0.309 -0.042 0.809 -0.263 0.525 0.5 -0.688 0.525 0.586 -0.807 -0.074 0 0.998 -0.056 -0.587 0.808 -0.056 -0.587 0.808 -0.056 -0.587 0.808 -0.056 -0.95 -0.309 -0.056 -0.95 0.309 -0.056 -0.95 0.309 -0.056 -0.95 0.309 -0.056 -0.95 0.309 -0.056 -0.587 0.808 -0.056 -0.587 -0.809 0.035 -0.587 -0.809 0.035 -0.587 -0.809 0.035 -0.95 -0.309 0.035 0 0 1 0 0 1 0 0 1 0 0 1 0 0 1 0 0 1 0 0 1 0 0 1 0 0 1 0 0 1 -0.587 -0.809 0.035 0 -0.999 0.035 0 -0.999 0.035 0 -0.999 0.035 0 -0.999 0.035 0.587 -0.809 0.035 0.587 -0.809 0.035 0.587 -0.809 0.035 0.587 -0.809 0.035 0.95 -0.309 0.035 0.95 -0.309 0.035 0.95 -0.309 0.035 0.95 -0.309 0.035 0.95 0.309 0.035 0.95 0.309 0.035 0.95 0.309 0.035 0.95 0.309 0.035 0.587 0.809 0.035 0.587 0.809 0.035 0.587 0.809 0.035 0.587 0.809 0.035 0 0.999 0.035 0 0.999 0.035 0 0.999 0.035 -0.587 0.809 0.035 -0.587 0.809 0.035 -0.587 0.809 0.035 -0.95 0.309 0.035 0 0.999 0.035 -0.587 0.809 0.035 -0.948 0.308 0.086 -0.948 0.308 0.086 -0.948 0.308 0.086 -0.948 -0.308 0.086 -0.948 0.308 0.086 -0.586 0.806 0.086 -1 0 0 -1 0 0 -1 0 0 -1 0 0 -1 0 0 0 0.181 -0.983 0 0.181 -0.983 0 0.181 -0.983 0 0.076 -0.997 0 0.076 -0.997 0 0.076 -0.997 0 0.076 -0.997 0 -0.076 -0.997 0 -0.076 -0.997 0 -0.076 -0.997 1 0 0 1 0 0 1 0 0 1 0 0 1 0 0 0 -0.076 0.997 0 -0.076 0.997 0 -0.076 0.997 0 0.076 0.997 0 0.076 0.997 0 0.076 0.997 -1 0 0 -1 0 0 -1 0 0 -1 0 0 -1 0 0 1 0 0 1 0 0 1 0 0 0 0.53 -0.848 0 0.53 -0.848 0 0.53 -0.848 0 0.181 -0.983 0 0.53 -0.848 0 0.53 0.848 0 0.53 0.848 0 0.53 0.848 0 -0.076 0.997 0 -0.181 0.983 0 -0.181 0.983 0 -0.181 0.983 1 0 0 1 0 0 0 -1 -0.009 0 -1 -0.009 0 -1 -0.009 0 -1 -0.009 -0.468 -0.884 -0.008 -0.468 -0.884 -0.008 -0.468 -0.884 -0.008 -0.468 -0.884 -0.008 -0.464 0.886 0.008 -0.464 0.886 0.008 -0.464 0.886 0.008 -0.464 0.886 0.008 0.468 -0.884 -0.008 0.468 -0.884 -0.008 0.468 -0.884 -0.008 0.468 -0.884 -0.008 0.464 0.886 0.008 0.464 0.886 0.008 0.464 0.886 0.008 0.464 0.886 0.008 0 -0.53 0.848 0 -0.53 0.848 0 -0.53 0.848 0 -0.53 0.848 0 -0.181 0.983 0 0.076 0.997 0 0.53 0.848 0 0.181 0.983 0 0.181 0.983 0 0.181 0.983 0 0.181 0.983 0 1 0.009 0 1 0.009 0 1 0.009 0 1 0.009 0 -0.076 -0.997 0 -0.181 -0.983 0 -0.181 -0.983 0 -0.181 -0.983 0 -0.53 -0.848 0 -0.53 -0.848 0 -0.53 -0.848 0 -0.53 -0.848 0 -0.181 -0.983 0 1 -0.002 -0.956 0.293 -0.001 -0.956 0.293 -0.001 -0.956 0.293 -0.001 -0.956 0.293 -0.001 -0.956 0.293 0.002 -0.956 0.293 0.002 -0.956 0.293 0.002 -0.954 0.299 0.006 -0.954 0.299 0.006 -0.954 0.299 0.006 -0.954 0.292 0.067 -0.954 0.292 0.067 -0.954 0.292 0.067 0 0.881 0.473 0 0.881 0.473 0 0.881 0.473 -0.979 0.162 0.124 -0.979 0.162 0.124 -0.979 0.162 0.124 -0.947 0.296 0.122 -0.947 0.296 0.122 -0.947 0.296 0.122 0 0.975 0.224 0 0.975 0.224 0 0.975 0.224 0 0.849 0.528 0 0.849 0.528 0 0.849 0.528 0 0.998 0.07 0 0.998 0.07 0 0.998 0.07 0 0.798 0.602 0 0.798 0.602 0 0.798 0.602 -0.954 0.3 0.021 -0.954 0.3 0.021 -0.954 0.3 0.021 -0.954 0.298 0.02 -0.954 0.298 0.02 -0.954 0.298 0.02 -0.957 0.254 0.136 -0.957 0.254 0.136 -0.957 0.254 0.136 -0.954 0.291 0.066 -0.954 0.291 0.066 -0.954 0.291 0.066 0 1 0.019 0 1 0.019 0 1 0.019 0 -1 -0.002 0 -1 -0.002 -0.956 -0.293 -0.001 -0.956 -0.293 -0.001 -0.956 -0.293 -0.001 -0.956 -0.293 0.002 -0.956 -0.293 0.002 -0.956 -0.293 0.002 -0.956 -0.293 -0.001 -0.954 -0.299 0.006 -0.954 -0.299 0.006 -0.954 -0.299 0.006 -0.954 -0.291 0.066 -0.954 -0.291 0.066 -0.954 -0.291 0.066 -0.954 -0.298 0.02 -0.954 -0.298 0.02 -0.954 -0.298 0.02 0 -0.881 0.473 0 -0.881 0.473 0 -0.881 0.473 -0.979 0.164 0.123 -0.979 0.164 0.123 -0.979 0.164 0.123 -0.979 -0.164 0.123 -0.979 -0.164 0.123 -0.979 -0.164 0.123 -0.947 -0.296 0.122 -0.947 -0.296 0.122 -0.947 -0.296 0.122 -0.957 -0.254 0.136 -0.957 -0.254 0.136 -0.957 -0.254 0.136 0 -0.975 0.224 0 -0.975 0.224 0 -0.975 0.224 0 -0.849 0.528 0 -0.849 0.528 0 -0.849 0.528 0 -0.998 0.07 0 -0.998 0.07 0 -0.998 0.07 0 -0.798 0.602 0 -0.798 0.602 0 -0.798 0.602 -0.954 -0.3 0.021 -0.954 -0.3 0.021 -0.954 -0.3 0.021 -0.979 -0.162 0.124 -0.979 -0.162 0.124 -0.979 -0.162 0.124 -0.954 -0.292 0.067 -0.954 -0.292 0.067 -0.954 -0.292 0.067 0 -1 0.019 0 -1 0.019 0 -1 0.019 0 1 -0.002 0 1 -0.002 0.956 0.293 -0.001 0.956 0.293 -0.001 0.956 0.293 -0.001 0.956 0.293 -0.001 0.956 0.293 0.002 0.956 0.293 0.002 0.956 0.293 0.002 0.954 0.299 0.006 0.954 0.299 0.006 0.954 0.299 0.006 0.954 0.291 0.066 0.954 0.291 0.066 0.954 0.291 0.066 0.954 0.298 0.02 0.954 0.298 0.02 0.954 0.298 0.02 0 0.881 0.473 0 0.881 0.473 0 0.881 0.473 0.947 0.296 0.122 0.947 0.296 0.122 0.947 0.296 0.122 0.957 0.254 0.136 0.957 0.254 0.136 0.957 0.254 0.136 0 0.975 0.224 0 0.975 0.224 0 0.975 0.224 0 0.849 0.528 0 0.849 0.528 0 0.998 0.07 0 0.998 0.07 0 0.998 0.07 0 0.798 0.602 0 0.798 0.602 0 0.798 0.602 0 0.849 0.528 0.954 0.3 0.021 0.954 0.3 0.021 0.954 0.3 0.021 0.979 0.162 0.124 0.979 0.162 0.124 0.979 0.162 0.124 0.954 0.292 0.067 0.954 0.292 0.067 0.954 0.292 0.067 0 1 0.019 0 1 0.019 0 1 0.019 0 -1 -0.002 0.956 -0.293 -0.001 0.956 -0.293 -0.001 0.956 -0.293 -0.001 0.956 -0.293 -0.001 0.956 -0.293 0.002 0.956 -0.293 0.002 0.956 -0.293 0.002 0.954 -0.299 0.006 0.954 -0.299 0.006 0.954 -0.299 0.006 0.954 -0.292 0.067 0.954 -0.292 0.067 0.954 -0.292 0.067 0 -0.881 0.473 0 -0.881 0.473 0 -0.881 0.473 0.979 0.164 0.123 0.979 0.164 0.123 0.979 0.164 0.123 0.979 -0.164 0.123 0.979 -0.164 0.123 0.979 -0.164 0.123 0.979 -0.162 0.124 0.979 -0.162 0.124 0.979 -0.162 0.124 0.947 -0.296 0.122 0.947 -0.296 0.122 0.947 -0.296 0.122 0 -0.975 0.224 0 -0.975 0.224 0 -0.975 0.224 0 -0.849 0.528 0 -0.849 0.528 0 -0.998 0.07 0 -0.998 0.07 0 -0.998 0.07 0 -0.849 0.528 0 -0.798 0.602 0 -0.798 0.602 0 -0.798 0.602 0.954 -0.3 0.021 0.954 -0.3 0.021 0.954 -0.3 0.021 0.954 -0.298 0.02 0.954 -0.298 0.02 0.954 -0.298 0.02 0.957 -0.254 0.136 0.957 -0.254 0.136 0.957 -0.254 0.136 0.954 -0.291 0.066 0.954 -0.291 0.066 0.954 -0.291 0.066 0 -1 0.019 0 -1 0.019 0 -1 0.019</float_array><technique_common><accessor source="#g-n-a" count="1418" stride="3"><param name="X" type="float"/><param name="Y" type="float"/><param name="Z" type="float"/></accessor></technique_common></source>
<vertices id="g-v"><input semantic="POSITION" source="#g-p"/><input semantic="NORMAL" source="#g-n"/></vertices>
<triangles material="m0" count="104"><input semantic="VERTEX" source="#g-v" offset="0"/><p>50 1204 49 1205 1206 1207 1205 1207 1208 1209 1210 1211 1212 1213 1214 1215 1216 1217 1218 1219 1220 1221 1222 1223 1224 1225 1226 1227 1228 1229 1230 1231 1232 1233 1234 1235 1236 1237 1238 1239 1240 1241 1242 1243 1244 1245 1246 1247 1248 1249 1250 1251 1252 1253 1254 30 1255 1256 1257 1258 1259 1260 1261 1258 1257 1262 1263 1264 1265 1266 1267 1268 1269 1270 1271 1272 1273 1274 1275 1276 1277 1278 1279 1280 1281 1282 1283 1284 1285 1286 1287 1288 1289 1290 1291 1292 1293 1294 1295 1296 1297 1298 1299 1300 1301 1302 1303 1304 1305 1306 1307 1308 1309 1310 1204 50 1311 1312 49 1204 49 1312 48 1313 1314 1315 1315 1314 1316 1317 1318 1319 1320 1321 1322 1323 1324 1325 1326 1327 1328 1219 1218 1329 1220 1330 1331 1330 1220 1219 1332 1333 1334 1335 1336 1337 1228 1227 1338 1229 1339 1340 1339 1229 1228 1341 1231 1342 1343 1234 1344 1234 1343 1235 1234 1233 1345 1237 1236 1346 1238 1347 1348 1231 1230 1349 1231 1341 1232 1347 1238 1237 1350 1351 1352 1353 1354 1355 1356 1357 1358 1359 1252 1360 1252 1251 1361 1252 1359 1253 1255 30 31 1362 31 72 31 1362 1255 1363 1364 1365 1363 1366 1364 1367 1368 1369 1370 1371 1372 1373 1374 1375 1273 1272 1376 1377 1274 1273 1274 1377 1378 1379 1380 1381 1382 1383 1384 1385 1386 1387 1388 1389 1390 1288 1287 1391 1392 1289 1288 1289 1392 1393 1394 1291 1395 1396 1397 1398 1294 1397 1396 1294 1293 1397 1291 1394 1399 1291 1290 1395 1297 1296 1400 1401 1298 1297 1298 1401 1402 1403 1404 1405 1406 1407 1408 1409 1410 1411 1412 1413 1414 1415 1416 1417 1309 1416 1415 1309 1308 1416</p></triangles>
<triangles material="m1" count="605"><input semantic="VERTEX" source="#g-v" offset="0"/><p>0 1 2 3 4 1 5 6 7 6 5 3 8 9 10 11 12 13 14 2 15 16 14 17 18 16 19 20 18 19 1 0 3 1 21 2 4 22 1 4 3 5 21 1 22 2 23 15 2 14 0 22 4 24 24 25 22 25 24 26 27 28 29 29 28 30 30 28 31 32 33 34 23 17 15 23 2 21 17 14 15 17 23 35 35 19 17 36 19 37 19 38 20 19 16 17 19 35 37 38 19 36 39 40 41 41 42 43 43 44 41 44 43 45 10 46 47 46 9 48 46 10 9 49 9 50 9 8 51 9 51 50 48 9 49 41 44 39 52 53 54 55 56 39 55 57 58 59 60 57 61 60 62 40 39 56 40 63 64 42 64 65 42 41 40 63 40 56 56 66 63 56 55 58 64 42 40 65 67 68 67 65 64 69 70 71 28 70 69 28 69 72 28 27 70 31 28 72 73 74 75 66 56 58 57 66 58 57 55 59 76 66 57 77 76 60 78 77 60 79 60 61 60 76 57 60 79 78 60 59 62 80 81 82 80 83 84 85 86 87 88 89 90 89 88 91 92 93 94 95 96 97 95 98 99 100 101 102 103 104 105 83 80 106 106 107 83 107 106 108 81 80 84 81 109 82 110 82 109 96 95 111 111 112 96 112 111 113 87 114 85 115 116 117 115 117 118 119 120 121 101 100 122 123 124 125 98 95 97 98 126 99 127 99 126 128 129 130 131 130 129 132 133 134 133 132 135 136 137 138 139 138 137 140 141 142 141 140 143 144 145 146 145 144 147 148 149 150 124 123 151 152 149 148 104 103 153 120 119 154 155 156 157 156 155 158 159 160 161 160 159 162 93 92 163 164 165 166 167 168 169 167 170 168 166 171 164 172 173 174 175 176 177 178 179 180 181 182 183 184 185 186 187 188 189 190 191 192 193 194 195 196 197 198 199 200 201 202 203 204 202 205 203 206 207 208 209 210 211 212 213 214 212 214 215 216 217 218 219 220 221 222 223 224 225 226 227 228 229 230 231 232 233 234 235 236 237 238 239 240 241 242 243 244 245 246 247 248 249 250 251 252 253 254 255 256 257 258 259 260 261 262 263 264 265 266 267 268 269 270 271 272 273 274 275 276 277 278 279 280 281 282 283 284 285 286 287 288 289 290 291 292 293 294 295 296 297 298 299 297 300 298 301 302 303 304 305 306 304 307 305 308 309 310 311 312 313 314 315 316 311 313 317 318 319 320 318 320 321 322 323 324 325 326 327 325 328 326 302 301 329 309 308 330 331 332 333 315 314 334 323 322 335 336 337 338 339 340 341 342 343 344 339 341 345 346 347 348 346 348 349 332 331 350 351 352 353 351 354 352 337 336 355 343 342 356 357 358 359 360 361 362 360 362 363 364 365 366 364 367 365 368 369 370 371 372 373 371 374 372 375 376 377 378 379 380 381 382 383 381 383 384 385 386 387 385 387 388 389 390 391 358 357 392 369 368 393 376 375 394 379 378 395 390 389 396 397 398 399 400 401 402 400 402 403 404 405 406 404 407 405 408 409 410 411 412 413 411 414 412 415 416 417 418 419 420 418 421 419 422 423 424 422 424 425 398 397 426 409 408 427 416 415 428 429 430 431 432 433 434 435 436 437 435 438 436 439 440 441 439 442 440 443 444 445 446 447 448 446 449 447 450 451 452 450 453 451 430 429 454 433 432 455 292 291 456 457 458 459 457 460 458 444 443 461 295 294 462 463 464 465 463 466 464 467 468 469 470 471 472 470 473 471 468 467 474 475 476 477 478 479 480 478 481 479 476 475 482 483 484 485 483 485 486 487 488 489 490 491 492 493 494 495 496 497 498 499 500 501 502 503 504 505 506 507 508 509 510 511 512 513 514 515 516 514 516 517 518 519 520 521 522 523 524 525 526 272 527 270 528 529 530 268 267 531 532 533 534 535 536 537 538 539 540 538 541 539 257 542 255 543 544 545 247 246 546 547 548 549 550 551 552 553 554 555 245 556 243 557 558 559 236 560 234 561 562 563 564 565 566 567 568 569 567 570 568 229 228 571 572 573 574 223 222 575 576 577 578 579 580 581 582 583 584 580 579 585 283 282 586 218 587 216 588 589 590 211 591 209 274 273 592 593 594 595 594 593 596 265 264 597 286 285 598 599 600 601 599 602 600 603 604 605 197 196 606 191 190 607 608 609 610 609 608 611 253 252 612 278 613 276 614 615 616 250 249 617 616 618 614 289 288 619 620 621 622 186 623 184 621 620 624 180 625 178 626 627 628 241 240 629 627 626 630 263 631 261 238 237 632 633 634 635 633 635 636 637 638 639 638 637 640 232 231 641 177 642 175 280 279 643 644 645 646 645 644 647 648 649 650 489 651 487 226 225 652 649 648 653 259 258 654 655 656 657 492 658 490 656 655 659 220 219 660 661 662 663 500 499 664 662 661 665 507 666 505 667 668 669 668 667 670 208 671 206 672 673 674 512 511 675 673 672 676 504 677 502 529 528 678 679 680 681 680 679 682 520 683 518 684 685 686 685 684 687 200 199 688 526 689 524 690 691 692 194 193 693 691 690 694 523 695 521 544 543 696 697 698 699 698 697 700 533 532 701 702 703 704 188 187 705 703 702 706 183 707 181 708 709 710 709 708 711 537 712 535 558 557 713 714 715 716 715 714 717 577 576 718 719 720 721 551 550 722 720 719 723 549 724 547 725 726 727 726 725 728 173 172 729 730 731 732 731 730 733 554 553 734 566 735 564 736 737 738 589 588 739 737 736 740 494 493 741 562 561 742 743 744 745 744 743 746 747 748 749 497 496 750 748 747 751 584 752 582 604 603 753 754 755 756 755 754 757 573 572 758 759 760 761 510 762 508 760 759 763 764 765 766 767 768 769 770 771 772 773 774 775 776 777 778 774 773 779 776 778 780 772 771 781 782 783 784 766 765 785 786 787 788 789 790 791 792 793 794 795 796 797 798 799 800 801 802 803 783 782 804 805 806 807 808 809 810 788 787 811 796 795 812 813 814 815 816 817 818 806 805 819 820 821 822 809 808 823 824 825 826 827 828 829 814 813 830 831 832 833 818 817 834 835 836 837 822 821 838 839 840 841 826 825 842 843 844 845 828 827 846 847 848 849 836 835 850 851 852 853 840 839 854 855 856 857 858 859 860 844 843 861 862 863 864 849 848 865 866 867 868 853 852 869 857 856 870 871 872 873 874 875 876 859 858 877 878 879 880 864 863 881 867 866 882 883 884 885 886 887 888 889 890 891 873 872 892 890 889 893 875 874 894 895 896 897 898 899 900 901 902 903 904 902 901 905 906 907 908 909 910 911 912 913 768 767 914 884 883 915 916 912 911 793 792 917 918 919 920 921 922 923 924 925 926 927 928 929 930 931 932 933 934 935 936 934 937 934 938 939 934 936 938 937 940 941 940 937 934 940 934 933 939 938 942 943 944 945 946 947 948 802 801 949 950 951 952 953 954 955 956 957 958 879 878 959 960 961 962 963 964 965 832 831 966 967 968 969 928 927 970 971 972 973 971 974 972 975 976 977 978 979 980 978 981 979 982 947 946 983 984 985 899 898 986 944 943 987 931 930 988 957 956 989 952 951 990 991 984 983 992 954 953 993 994 995 962 961 996 964 963 997 998 999 1000 922 921 1001 998 1000 1002 994 993 1003 1004 1005 1006 1007 1008 1009 1010 790 789 1011 1012 1013 887 886 1014 1012 1011 1015 1016 1005 1004 1017 1018 1019 1018 1017 1020 1021 1022 1023 1024 1022 1021 1025 1026 1027 1028 1029 1030 1026 1025 1031 1032 1033 1034 1035 1029 1028 1036 1037 1038 1039 1033 1032 1040 1041 1042 1043 968 967 925 924 1044 1045 1046 1047 1042 1041 1048 1046 1045 1049 977 976 1050 799 798 1051 1008 1007 1052 1053 1054 1055 1037 1036 1056 1057 1058 1059 1058 1057 1060 1054 1053 1061 1062 1063 1064 910 909 1065 1066 1067 1068 1069 1067 1066 1067 1069 1070 1067 1071 1072 1073 1071 1074 1071 1067 1070 1071 1070 1075 1071 1073 1072 1063 1062 1076 1077 1078 1079 1078 1077 1080 1081 1082 1083 1083 1082 1084 1085 1086 1087 1086 1085 1088 1089 1090 1091 1091 1090 1092 1093 1094 1095 1094 1093 1096 1097 1098 1099 1100 1101 1102 906 905 1103 1099 1098 1104 1105 1101 1100 1106 1107 1108 919 918 1109 1107 1106 1110 896 895 1111</p></triangles>
<triangles material="m2" count="52"><input semantic="VERTEX" source="#g-v" offset="0"/><p>1112 1113 1114 1112 1115 1116 1117 1118 1119 1120 1121 1122 1121 1120 1123 1124 1125 1126 1127 1128 1129 1127 1130 1131 1132 1133 1134 1135 1136 1137 1113 1112 1138 1138 1139 1113 1139 1138 1140 1141 1142 1116 1115 1112 1114 1115 1141 1116 1130 1127 1143 1143 1144 1130 1144 1143 1145 1146 1147 1148 1119 1149 1117 1147 1146 1150 1151 1152 1153 1133 1132 1154 1155 1156 1157 1158 1159 1129 1128 1158 1129 1128 1127 1131 1160 1161 1162 1163 1160 1162 1164 1165 1166 1165 1164 1167 1168 1169 1170 1171 1168 1170 1172 1173 1174 1173 1172 1175 1176 1177 1178 1177 1176 1179 1180 1181 1182 1181 1180 1183 1156 1155 1184 1136 1135 1185 1152 1151 1186 1187 1188 1189 1188 1187 1190 1191 1192 1193 1192 1191 1194 1125 1124 1195 1196 1197 1198 1199 1200 1201 1199 1202 1200 1198 1203 1196</p></triangles>
</mesh></geometry></library_geometries><library_visual_scenes><visual_scene id="Scene"><node id="n" name="knife"><instance_geometry url="#g"><bind_material><technique_common>
<instance_material symbol="m0" target="#m0"/>
<instance_material symbol="m1" target="#m1"/>
<instance_material symbol="m2" target="#m2"/>
</technique_common></bind_material></instance_geometry></node></visual_scene></library_visual_scenes><scene><instance_visual_scene url="#Scene"/></scene></COLLADA>
