<?xml version="1.0" encoding="utf-8"?>
<COLLADA xmlns="http://www.collada.org/2005/11/COLLADASchema" version="1.4.1">
<asset><contributor><authoring_tool>VATs starter props (see CREDITS.md)</authoring_tool></contributor><unit name="meter" meter="1"/><up_axis>Z_UP</up_axis></asset>
<library_effects>
<effect id="m0-fx"><profile_COMMON><technique sid="common"><lambert><diffuse><color>0.360 0.390 0.430 1</color></diffuse></lambert></technique></profile_COMMON></effect>
<effect id="m1-fx"><profile_COMMON><technique sid="common"><lambert><diffuse><color>0.240 0.250 0.280 1</color></diffuse></lambert></technique></profile_COMMON></effect>
<effect id="m2-fx"><profile_COMMON><technique sid="common"><lambert><diffuse><color>0.200 0.230 0.270 1</color></diffuse></lambert></technique></profile_COMMON></effect>
</library_effects><library_materials>
<material id="m0" name="m0"><instance_effect url="#m0-fx"/></material>
<material id="m1" name="m1"><instance_effect url="#m1-fx"/></material>
<material id="m2" name="m2"><instance_effect url="#m2-fx"/></material>
</library_materials><library_geometries><geometry id="g" name="magazine"><mesh>
<source id="g-p"><float_array id="g-p-a" count="486">0.0608 -0.013 -0.1004 0.0608 0.013 -0.1004 0.053 0.013 -0.0775 0.053 -0.013 -0.0775 0.0608 0.013 -0.1004 -0.0097 0.013 -0.0719 -0.0178 0.013 -0.0527 0.053 0.013 -0.0775 -0.0097 0.013 -0.0719 -0.0097 -0.013 -0.0719 -0.0178 -0.013 -0.0527 -0.0178 0.013 -0.0527 -0.0097 -0.013 -0.0719 0.0608 -0.013 -0.1004 0.053 -0.013 -0.0775 -0.0178 -0.013 -0.0527 0.053 -0.013 -0.0775 0.053 0.013 -0.0775 0.0462 0.013 -0.0542 0.0462 -0.013 -0.0542 -0.0248 0.013 -0.0332 0.0462 0.013 -0.0542 -0.0178 0.013 -0.0527 -0.0178 -0.013 -0.0527 -0.0248 -0.013 -0.0332 -0.0248 0.013 -0.0332 0.0462 -0.013 -0.0542 -0.0248 -0.013 -0.0332 0.0462 -0.013 -0.0542 0.0462 0.013 -0.0542 0.0403 0.013 -0.0307 0.0403 -0.013 -0.0307 -0.0306 0.013 -0.0133 0.0403 0.013 -0.0307 -0.0248 0.013 -0.0332 -0.0248 -0.013 -0.0332 -0.0306 -0.013 -0.0133 -0.0306 0.013 -0.0133 0.0403 -0.013 -0.0307 -0.0306 -0.013 -0.0133 0.0403 -0.013 -0.0307 0.0403 0.013 -0.0307 0.0353 0.013 -0.0069 0.0353 -0.013 -0.0069 -0.0353 0.013 0.0069 0.0353 0.013 -0.0069 -0.0306 0.013 -0.0133 -0.0306 -0.013 -0.0133 -0.0353 -0.013 0.0069 -0.0353 0.013 0.0069 0.0353 -0.013 -0.0069 -0.0353 -0.013 0.0069 0.0353 -0.013 -0.0069 0.0353 0.013 -0.0069 0.0314 0.013 0.0171 0.0314 -0.013 0.0171 -0.0389 0.013 0.0273 0.0314 0.013 0.0171 -0.0353 0.013 0.0069 -0.0353 -0.013 0.0069 -0.0389 -0.013 0.0273 -0.0389 0.013 0.0273 0.0314 -0.013 0.0171 -0.0389 -0.013 0.0273 0.0314 -0.013 0.0171 0.0314 0.013 0.0171 0.0284 0.013 0.0412 0.0284 -0.013 0.0412 -0.0413 0.013 0.0479 0.0284 0.013 0.0412 -0.0389 0.013 0.0273 -0.0389 -0.013 0.0273 -0.0413 -0.013 0.0479 -0.0413 0.013 0.0479 0.0284 -0.013 0.0412 -0.0413 -0.013 0.0479 0.0284 -0.013 0.0412 0.0284 0.013 0.0412 0.0264 0.013 0.0653 0.0264 -0.013 0.0653 -0.0425 0.013 0.0686 0.0264 0.013 0.0653 -0.0413 0.013 0.0479 -0.0413 -0.013 0.0479 -0.0425 -0.013 0.0686 -0.0425 0.013 0.0686 0.0264 -0.013 0.0653 -0.0425 -0.013 0.0686 0.0264 -0.013 0.0653 0.0264 0.013 0.0653 0.0254 0.013 0.0894 0.0254 -0.013 0.0894 -0.0426 0.013 0.0894 0.0254 0.013 0.0894 -0.0425 0.013 0.0686 -0.0425 -0.013 0.0686 -0.0426 -0.013 0.0894 -0.0426 0.013 0.0894 0.0254 -0.013 0.0894 -0.0426 -0.013 0.0894 0.0255 0 -0.0862 0.0608 0.013 -0.1004 0.0608 -0.013 -0.1004 -0.0097 0.013 -0.0719 -0.0097 -0.013 -0.0719 -0.0086 0 0.0894 0.0254 -0.013 0.0894 0.0254 0.013 0.0894 -0.0426 0.013 0.0894 -0.0426 -0.013 0.0894 0.06 -0.016 -0.113 0.06 0.016 -0.113 0.0645 0.016 -0.1019 0.0645 -0.016 -0.1019 0.06 0.016 -0.113 -0.0179 0.016 -0.0816 -0.0134 0.016 -0.0704 0.0645 0.016 -0.1019 -0.0179 0.016 -0.0816 -0.0179 -0.016 -0.0816 -0.0134 -0.016 -0.0704 -0.0134 0.016 -0.0704 -0.0179 -0.016 -0.0816 0.06 -0.016 -0.113 0.0645 -0.016 -0.1019 -0.0134 -0.016 -0.0704 0.021 0 -0.0973 0.06 0.016 -0.113 0.06 -0.016 -0.113 -0.0179 0.016 -0.0816 -0.0179 -0.016 -0.0816 0.0255 0 -0.0862 0.0645 -0.016 -0.1019 0.0645 0.016 -0.1019 -0.0134 0.016 -0.0704 -0.0134 -0.016 -0.0704 0.0214 -0.009 0.0894 0.0214 0.009 0.0894 0.0214 0.009 0.1014 0.0214 -0.009 0.1014 0.0214 0.009 0.0894 -0.0386 0.009 0.0894 -0.0386 0.009 0.1014 0.0214 0.009 0.1014 -0.0386 0.009 0.0894 -0.0386 -0.009 0.0894 -0.0386 -0.009 0.1014 -0.0386 0.009 0.1014 -0.0386 -0.009 0.0894 0.0214 -0.009 0.0894 0.0214 -0.009 0.1014 -0.0386 -0.009 0.1014 -0.0086 0 0.0894 0.0214 0.009 0.0894 0.0214 -0.009 0.0894 -0.0386 0.009 0.0894 -0.0386 -0.009 0.0894 -0.0086 0 0.1014 0.0214 -0.009 0.1014 0.0214 0.009 0.1014 -0.0386 0.009 0.1014 -0.0386 -0.009 0.1014</float_array><technique_common><accessor source="#g-p-a" count="162" stride="3"><param name="X" type="float"/><param name="Y" type="float"/><param name="Z" type="float"/></accessor></technique_common></source>
<source id="g-n"><float_array id="g-n-a" count="486">0.947 0 0.32 0.947 0 0.32 0.947 0 0.32 0.947 0 0.32 0 1 0 0 1 0 0 1 0 0 1 0 -0.921 0 -0.389 -0.921 0 -0.389 -0.921 0 -0.389 -0.921 0 -0.389 0 -1 0 0 -1 0 0 -1 0 0 -1 0 0.959 0 0.282 0.959 0 0.282 0.959 0 0.282 0.959 0 0.282 0 1 0 0 1 0 -0.942 0 -0.336 -0.942 0 -0.336 -0.942 0 -0.336 -0.942 0 -0.336 0 -1 0 0 -1 0 0.97 0 0.243 0.97 0 0.243 0.97 0 0.243 0.97 0 0.243 0 1 0 0 1 0 -0.959 0 -0.282 -0.959 0 -0.282 -0.959 0 -0.282 -0.959 0 -0.282 0 -1 0 0 -1 0 0.979 0 0.203 0.979 0 0.203 0.979 0 0.203 0.979 0 0.203 0 1 0 0 1 0 -0.974 0 -0.227 -0.974 0 -0.227 -0.974 0 -0.227 -0.974 0 -0.227 0 -1 0 0 -1 0 0.987 0 0.163 0.987 0 0.163 0.987 0 0.163 0.987 0 0.163 0 1 0 0 1 0 -0.985 0 -0.172 -0.985 0 -0.172 -0.985 0 -0.172 -0.985 0 -0.172 0 -1 0 0 -1 0 0.992 0 0.123 0.992 0 0.123 0.992 0 0.123 0.992 0 0.123 0 1 0 0 1 0 -0.993 0 -0.116 -0.993 0 -0.116 -0.993 0 -0.116 -0.993 0 -0.116 0 -1 0 0 -1 0 0.997 0 0.082 0.997 0 0.082 0.997 0 0.082 0.997 0 0.082 0 1 0 0 1 0 -0.998 0 -0.06 -0.998 0 -0.06 -0.998 0 -0.06 -0.998 0 -0.06 0 -1 0 0 -1 0 0.999 0 0.041 0.999 0 0.041 0.999 0 0.041 0.999 0 0.041 0 1 0 0 1 0 -1 0 -0.004 -1 0 -0.004 -1 0 -0.004 -1 0 -0.004 0 -1 0 0 -1 0 -0.375 0 -0.927 -0.375 0 -0.927 -0.375 0 -0.927 -0.375 0 -0.927 -0.375 0 -0.927 0 0 1 0 0 1 0 0 1 0 0 1 0 0 1 0.927 0 -0.375 0.927 0 -0.375 0.927 0 -0.375 0.927 0 -0.375 0 1 0 0 1 0 0 1 0 0 1 0 -0.927 0 0.375 -0.927 0 0.375 -0.927 0 0.375 -0.927 0 0.375 0 -1 0 0 -1 0 0 -1 0 0 -1 0 -0.375 0 -0.927 -0.375 0 -0.927 -0.375 0 -0.927 -0.375 0 -0.927 -0.375 0 -0.927 0.375 0 0.927 0.375 0 0.927 0.375 0 0.927 0.375 0 0.927 0.375 0 0.927 1 0 0 1 0 0 1 0 0 1 0 0 0 1 0 0 1 0 0 1 0 0 1 0 -1 0 0 -1 0 0 -1 0 0 -1 0 0 0 -1 0 0 -1 0 0 -1 0 0 -1 0 0 0 -1 0 0 -1 0 0 -1 0 0 -1 0 0 -1 0 0 1 0 0 1 0 0 1 0 0 1 0 0 1</float_array><technique_common><accessor source="#g-n-a" count="162" stride="3"><param name="X" type="float"/><param name="Y" type="float"/><param name="Z" type="float"/></accessor></technique_common></source>
<vertices id="g-v"><input semantic="POSITION" source="#g-p"/><input semantic="NORMAL" source="#g-n"/></vertices>
<triangles material="m0" count="16"><input semantic="VERTEX" source="#g-v" offset="0"/><p>136 137 138 136 138 139 140 141 142 140 142 143 144 145 146 144 146 147 148 149 150 148 150 151 152 153 154 152 155 153 152 156 155 152 154 156 157 158 159 157 159 160 157 160 161 157 161 158</p></triangles>
<triangles material="m1" count="72"><input semantic="VERTEX" source="#g-v" offset="0"/><p>0 1 2 0 2 3 4 5 6 4 6 7 8 9 10 8 10 11 12 13 14 12 14 15 16 17 18 16 18 19 7 6 20 7 20 21 22 23 24 22 24 25 15 14 26 15 26 27 28 29 30 28 30 31 21 20 32 21 32 33 34 35 36 34 36 37 27 26 38 27 38 39 40 41 42 40 42 43 33 32 44 33 44 45 46 47 48 46 48 49 39 38 50 39 50 51 52 53 54 52 54 55 45 44 56 45 56 57 58 59 60 58 60 61 51 50 62 51 62 63 64 65 66 64 66 67 57 56 68 57 68 69 70 71 72 70 72 73 63 62 74 63 74 75 76 77 78 76 78 79 69 68 80 69 80 81 82 83 84 82 84 85 75 74 86 75 86 87 88 89 90 88 90 91 81 80 92 81 92 93 94 95 96 94 96 97 87 86 98 87 98 99 100 101 102 100 103 101 100 104 103 100 102 104 105 106 107 105 107 108 105 108 109 105 109 106</p></triangles>
<triangles material="m2" count="16"><input semantic="VERTEX" source="#g-v" offset="0"/><p>110 111 112 110 112 113 114 115 116 114 116 117 118 119 120 118 120 121 122 123 124 122 124 125 126 127 128 126 129 127 126 130 129 126 128 130 131 132 133 131 133 134 131 134 135 131 135 132</p></triangles>
</mesh></geometry></library_geometries><library_visual_scenes><visual_scene id="Scene"><node id="n" name="magazine"><instance_geometry url="#g"><bind_material><technique_common>
<instance_material symbol="m0" target="#m0"/>
<instance_material symbol="m1" target="#m1"/>
<instance_material symbol="m2" target="#m2"/>
</technique_common></bind_material></instance_geometry></node></visual_scene></library_visual_scenes><scene><instance_visual_scene url="#Scene"/></scene></COLLADA>
