<?xml version="1.0" encoding="utf-8"?>
<COLLADA xmlns="http://www.collada.org/2005/11/COLLADASchema" version="1.4.1">
<asset><contributor><authoring_tool>VATs starter props (see CREDITS.md)</authoring_tool></contributor><unit name="meter" meter="1"/><up_axis>Z_UP</up_axis></asset>
<library_effects>
<effect id="m0-fx"><profile_COMMON><technique sid="common"><lambert><diffuse><color>0.240 0.250 0.280 1</color></diffuse></lambert></technique></profile_COMMON></effect>
<effect id="m1-fx"><profile_COMMON><technique sid="common"><lambert><diffuse><color>0.620 0.660 0.710 1</color></diffuse></lambert></technique></profile_COMMON></effect>
<effect id="m2-fx"><profile_COMMON><technique sid="common"><lambert><diffuse><color>0.360 0.390 0.430 1</color></diffuse></lambert></technique></profile_COMMON></effect>
</library_effects><library_materials>
<material id="m0" name="m0"><instance_effect url="#m0-fx"/></material>
<material id="m1" name="m1"><instance_effect url="#m1-fx"/></material>
<material id="m2" name="m2"><instance_effect url="#m2-fx"/></material>
</library_materials><library_geometries><geometry id="g" name="mic-stand"><mesh>
<source id="g-p"><float_array id="g-p-a" count="4539">0.060775 0.11009 0.013056 -0.0067626 0.11477 0.013353 0.060775 0.11477 0.013353 0.14178 0.11477 0.013353 0.13887 0.11187 0.012319 0.060775 -0.11477 0.013353 0.13887 -0.11187 0.012319 0.14178 -0.11477 0.013353 -0.0067625 -0.11477 0.013353 -0.0067625 -0.11009 0.013056 -0.083278 -0.11028 0.020213 -0.087765 -0.033769 0.013353 -0.087765 -0.11477 0.013353 -0.087765 0.033769 0.013353 -0.087765 0.11477 0.013353 -0.084861 0.11187 0.012319 -0.087765 -0.033769 0.013353 -0.084861 -0.11187 0.012319 -0.087765 -0.11477 0.013353 -0.083084 0.033769 0.013056 -0.083084 -0.033769 0.013056 0.062025 -0.11434 0.0075815 -0.008012 -0.11902 0.0068602 0.062025 -0.11902 0.0068602 0.14602 -0.11902 0.0068602 0.14312 -0.11611 0.0068451 0.062025 0.11902 0.0068602 -0.008012 0.11902 0.0068602 -0.008012 0.11434 0.0075815 0.14312 0.11611 0.0068451 0.14602 0.11902 0.0068602 0.060775 -0.11009 0.013056 0.14178 0.033769 0.013353 0.1371 0.033769 0.013056 0.1371 -0.033769 0.013056 0.14178 -0.033769 0.013353 -0.092011 -0.035018 0.0068602 -0.092011 -0.11902 0.0068602 -0.089108 -0.11611 0.0068451 -0.092011 0.035018 0.0068602 -0.089108 0.11611 0.0068451 -0.092011 0.11902 0.0068602 -0.08733 -0.035018 0.0075815 -0.08733 0.035018 0.0075815 -0.008012 -0.11434 0.0075815 0.062025 0.11434 0.0075815 0.14602 0.035018 0.0068602 0.14134 0.035018 0.0075815 -0.0067626 0.11009 0.013056 0.14602 -0.035018 0.0068602 0.14134 -0.035018 0.0075815 -0.083278 -0.032449 0.020213 -0.083278 0.032449 0.020213 -0.087765 0.11477 0.013353 -0.087765 0.033769 0.013353 -0.083278 0.11028 0.020213 -0.083278 0.11028 0.020213 -0.0067626 0.11477 0.013353 -0.087765 0.11477 0.013353 -0.0054423 0.11028 0.020213 0.060775 0.11477 0.013353 0.13729 0.11028 0.020213 0.059455 0.11028 0.020213 0.14178 0.11477 0.013353 0.13729 0.11028 0.020213 0.14178 0.033769 0.013353 0.14178 0.11477 0.013353 0.13729 0.032449 0.020213 0.13729 -0.032449 0.020213 0.14178 -0.033769 0.013353 0.13729 -0.11028 0.020213 0.14178 -0.11477 0.013353 0.13729 -0.11028 0.020213 0.060775 -0.11477 0.013353 0.14178 -0.11477 0.013353 0.059455 -0.11028 0.020213 -0.0054422 -0.11028 0.020213 -0.0067625 -0.11477 0.013353 -0.087765 -0.11477 0.013353 -0.083278 -0.11028 0.020213 -0.096499 0.12351 9.6944e-15 -0.096499 0.036339 9.6944e-15 -0.092011 0.11902 0.0068602 -0.14703 -0.030199 1.5499 -0.14444 -0.031162 1.565 -0.14129 -0.030492 1.5639 -0.10302 0.029609 1.5965 -0.10238 0.01097 1.5967 -0.10312 0.011591 1.6 -0.10229 0.028988 1.5932 -0.15051 -0.012181 1.5498 -0.14423 -0.011506 1.5672 -0.14736 -0.012181 1.5684 -0.14703 0.029609 1.5499 -0.14129 0.029902 1.5639 -0.14444 0.030572 1.565 -0.1472 0.01097 1.5493 -0.14703 0.029609 1.5499 -0.15051 0.011591 1.5498 -0.14372 0.028988 1.5494 -0.10312 0.011591 1.6 -0.12014 0.010916 1.5927 -0.12152 0.011591 1.5958 -0.13444 -0.030698 1.5821 -0.13202 -0.030011 1.5798 -0.14372 -0.029578 1.5494 -0.15051 0.011591 1.5498 -0.14736 0.011591 1.5684 -0.14423 0.010916 1.5672 -0.13712 0.011591 1.5846 -0.1347 0.010905 1.5824 -0.1472 0.01097 1.5493 -0.14703 -0.030199 1.5499 -0.1472 -0.01156 1.5493 -0.15051 -0.012181 1.5498 -0.14372 -0.029578 1.5494 -0.1472 -0.01156 1.5493 -0.13712 -0.012181 1.5846 -0.10238 -0.01156 1.5967 -0.11667 -0.030492 1.59 -0.10229 -0.029578 1.5932 -0.12014 -0.011506 1.5927 -0.13202 -0.030011 1.5798 -0.1472 -0.01156 1.5493 -0.14129 -0.030492 1.5639 -0.14423 -0.011506 1.5672 -0.14372 -0.029578 1.5494 -0.1347 -0.011494 1.5824 -0.10238 0.01097 1.5967 -0.11667 0.029902 1.59 -0.12014 0.010916 1.5927 -0.10229 0.028988 1.5932 -0.13202 0.029421 1.5798 -0.1347 0.010905 1.5824 -0.1472 0.01097 1.5493 -0.14129 0.029902 1.5639 -0.14372 0.028988 1.5494 -0.14423 0.010916 1.5672 -0.10956 0.011591 1.4917 -0.10703 0.030108 1.4943 -0.10468 0.028686 1.4968 -0.11816 0.011591 1.4998 -0.11328 0.028686 1.5049 -0.11564 0.030108 1.5025 -0.12677 0.011591 1.5079 -0.12424 0.030108 1.5106 -0.12188 0.028686 1.5131 -0.066548 -0.012181 1.451 -0.061662 -0.029276 1.4562 -0.064046 -0.011456 1.4537 -0.075151 -0.012181 1.4591 -0.070265 -0.029276 1.4643 -0.072622 -0.030698 1.4618 -0.083753 -0.012181 1.4673 -0.078867 -0.029276 1.4724 -0.081251 -0.011456 1.4699 -0.092356 -0.012181 1.4754 -0.08747 -0.029276 1.4806 -0.089827 -0.030698 1.4781 -0.10096 -0.012181 1.4835 -0.096073 -0.029276 1.4887 -0.098457 -0.011456 1.4862 -0.10956 -0.012181 1.4917 -0.10468 -0.029276 1.4968 -0.10703 -0.030698 1.4943 -0.11816 -0.012181 1.4998 -0.11328 -0.029276 1.5049 -0.11566 -0.011456 1.5024 -0.12677 -0.012181 1.5079 -0.12188 -0.029276 1.5131 -0.12424 -0.030698 1.5106 -0.064019 -0.030698 1.4537 -0.055013 -0.043769 1.4632 0.00030779 0.011591 1.5218 -0.0022214 0.030108 1.5191 -0.0045784 0.028686 1.5166 -0.072649 -0.011456 1.4618 -0.063615 -0.043769 1.4714 -0.065419 -0.046396 1.4695 -0.0082949 0.011591 1.5299 -0.013181 0.028686 1.5248 -0.010824 0.030108 1.5273 -0.081224 -0.030698 1.47 -0.072218 -0.043769 1.4795 -0.016898 0.011591 1.5381 -0.019427 0.030108 1.5354 -0.021784 0.028686 1.5329 -0.089854 -0.011456 1.478 -0.080821 -0.043769 1.4876 -0.082625 -0.046396 1.4857 -0.0255 0.011591 1.5462 -0.030386 0.028686 1.541 -0.02803 0.030108 1.5435 -0.09843 -0.030698 1.4862 -0.089424 -0.043769 1.4957 -0.034103 0.011591 1.5543 -0.036632 0.030108 1.5516 -0.038989 0.028686 1.5491 -0.10706 -0.011456 1.4943 -0.098026 -0.043769 1.5039 -0.09983 -0.046396 1.502 -0.042706 0.011591 1.5624 -0.047592 0.028686 1.5573 -0.045235 0.030108 1.5598 -0.11564 -0.030698 1.5025 -0.10663 -0.043769 1.512 -0.051308 0.011591 1.5706 -0.053838 0.030108 1.5679 -0.056195 0.028686 1.5654 -0.12426 -0.011456 1.5106 -0.11523 -0.043769 1.5201 -0.11704 -0.046396 1.5182 -0.059911 0.011591 1.5787 -0.064797 0.028686 1.5735 -0.06244 0.030108 1.576 -0.056817 -0.046396 1.4613 -0.046038 -0.056885 1.4727 -0.045061 -0.053452 1.4738 -0.0094238 0.045806 1.5115 -0.011228 0.043179 1.5096 -0.0021943 0.010866 1.5192 -0.053664 -0.053452 1.4819 -0.05464 -0.056885 1.4809 -0.010797 0.010866 1.5273 -0.01983 0.043179 1.5177 -0.018026 0.045806 1.5196 -0.074022 -0.046396 1.4776 -0.063243 -0.056885 1.489 -0.062267 -0.053452 1.49 -0.026629 0.045806 1.5278 -0.028433 0.043179 1.5258 -0.0194 0.010866 1.5354 -0.070869 -0.053452 1.4981 -0.071846 -0.056885 1.4971 -0.028002 0.010866 1.5435 -0.037036 0.043179 1.534 -0.035232 0.045806 1.5359 -0.091227 -0.046396 1.4938 -0.080448 -0.056885 1.5052 -0.079472 -0.053452 1.5063 -0.043835 0.045806 1.544 -0.045639 0.043179 1.5421 -0.036605 0.010866 1.5517 -0.088075 -0.053452 1.5144 -0.089051 -0.056885 1.5134 -0.045208 0.010866 1.5598 -0.054241 0.043179 1.5502 -0.052437 0.045806 1.5521 -0.10843 -0.046396 1.5101 -0.097654 -0.056885 1.5215 -0.096678 -0.053452 1.5225 -0.06104 0.045806 1.5603 -0.062844 0.043179 1.5583 -0.053811 0.010866 1.5679 -0.10528 -0.053452 1.5307 -0.10626 -0.056885 1.5296 -0.062413 0.010866 1.576 -0.071447 0.043179 1.5665 -0.069643 0.045806 1.5684 -0.03312 -0.060568 1.4864 -0.03312 -0.05687 1.4864 -0.021179 0.052862 1.4991 -0.020203 0.056295 1.5001 -0.041723 -0.05687 1.4945 -0.041723 -0.060568 1.4945 -0.029782 0.052862 1.5072 -0.028806 0.056295 1.5082 -0.050326 -0.060568 1.5027 -0.050326 -0.05687 1.5027 -0.038385 0.052862 1.5153 -0.037408 0.056295 1.5163 -0.058928 -0.05687 1.5108 -0.058928 -0.060568 1.5108 -0.046987 0.052862 1.5234 -0.046011 0.056295 1.5245 -0.067531 -0.060568 1.5189 -0.067531 -0.05687 1.5189 -0.05559 0.052862 1.5316 -0.054614 0.056295 1.5326 -0.076134 -0.05687 1.527 -0.076134 -0.060568 1.527 -0.064193 0.052862 1.5397 -0.063216 0.056295 1.5407 -0.084736 -0.060568 1.5352 -0.084736 -0.05687 1.5352 -0.072795 0.052862 1.5478 -0.071819 0.056295 1.5488 -0.093339 -0.05687 1.5433 -0.093339 -0.060568 1.5433 -0.081398 0.052862 1.5559 -0.080422 0.056295 1.557 -0.03312 0.056281 1.4864 -0.12718 -0.049104 1.5508 -0.1375 -0.043935 1.5409 -0.13519 -0.041353 1.5423 -0.12873 -0.052439 1.5502 -0.11496 -0.053266 1.5637 -0.11549 -0.056885 1.5642 -0.041723 0.056281 1.4945 -0.041723 0.059978 1.4945 -0.050326 0.056281 1.5027 -0.11486 -0.056885 1.5377 -0.10194 -0.060568 1.5514 -0.1019 -0.056948 1.5514 -0.11388 -0.053515 1.5387 -0.12387 -0.043814 1.5282 -0.12564 -0.046396 1.5263 -0.058928 0.056281 1.5108 -0.058928 0.059978 1.5108 -0.067531 0.056281 1.5189 -0.076134 0.056281 1.527 -0.076134 0.059978 1.527 -0.12873 0.05185 1.5502 -0.11497 0.052676 1.5637 -0.1272 0.048514 1.5508 -0.084736 0.056281 1.5352 -0.093339 0.056281 1.5433 -0.093339 0.059978 1.5433 -0.11338 0.052925 1.5382 -0.12564 0.045806 1.5263 -0.12337 0.043224 1.5277 -0.062413 -0.011456 1.576 -0.051308 -0.012181 1.5706 -0.059911 -0.012181 1.5787 -0.053811 -0.011456 1.5679 -0.059911 -0.012181 1.5787 -0.064797 -0.029276 1.5735 -0.062413 -0.011456 1.576 -0.14334 -0.031162 1.5347 -0.14051 -0.029696 1.5367 -0.051308 -0.012181 1.5706 -0.056195 -0.029276 1.5654 -0.053838 -0.030698 1.5679 -0.045208 -0.011456 1.5598 -0.034103 -0.012181 1.5543 -0.042706 -0.012181 1.5624 -0.036605 -0.011456 1.5517 -0.042706 -0.012181 1.5624 -0.047592 -0.029276 1.5573 -0.045208 -0.011456 1.5598 -0.13284 -0.030698 1.5187 -0.034103 -0.012181 1.5543 -0.038989 -0.029276 1.5491 -0.036632 -0.030698 1.5516 -0.1463 -0.012181 1.5314 -0.14331 -0.01142 1.5335 -0.0255 -0.012181 1.5462 -0.0194 -0.011456 1.5354 -0.016898 -0.012181 1.5381 -0.028002 -0.011456 1.5435 -0.0255 -0.012181 1.5462 -0.030386 -0.029276 1.541 -0.028002 -0.011456 1.5435 -0.016898 -0.012181 1.5381 -0.021784 -0.029276 1.5329 -0.019427 -0.030698 1.5354 -0.13049 -0.029316 1.5211 -0.13537 -0.012181 1.516 -0.13287 -0.01142 1.5186 -0.0082949 -0.012181 1.5299 -0.0021943 -0.011456 1.5192 0.00030779 -0.012181 1.5218 -0.010797 -0.011456 1.5273 -0.0082949 -0.012181 1.5299 -0.013181 -0.029276 1.5248 -0.010797 -0.011456 1.5273 -0.1463 -0.012181 1.5314 -0.13537 -0.012181 1.516 -0.13287 -0.01142 1.5186 -0.14331 -0.01142 1.5335 0.00030779 -0.012181 1.5218 -0.0045784 -0.029276 1.5166 -0.0022214 -0.030698 1.5191 -0.06244 -0.030698 1.576 -0.071447 -0.043769 1.5665 -0.053811 -0.011456 1.5679 -0.062844 -0.043769 1.5583 -0.06104 -0.046396 1.5603 -0.045235 -0.030698 1.5598 -0.054241 -0.043769 1.5502 -0.036605 -0.011456 1.5517 -0.045639 -0.043769 1.5421 -0.043835 -0.046396 1.544 -0.02803 -0.030698 1.5435 -0.037036 -0.043769 1.534 -0.0194 -0.011456 1.5354 -0.028433 -0.043769 1.5258 -0.026629 -0.046396 1.5278 -0.1375 0.043345 1.5409 -0.1352 0.040764 1.5423 -0.14053 0.029106 1.5367 -0.14334 0.030572 1.5347 -0.010824 -0.030698 1.5273 -0.01983 -0.043769 1.5177 -0.10096 0.011591 1.4835 -0.096073 0.028686 1.4887 -0.09843 0.030108 1.4862 -0.092356 0.011591 1.4754 -0.089827 0.030108 1.4781 -0.08747 0.028686 1.4806 -0.083753 0.011591 1.4673 -0.078867 0.028686 1.4724 -0.081224 0.030108 1.47 -0.075151 0.011591 1.4591 -0.072622 0.030108 1.4618 -0.070265 0.028686 1.4643 -0.066548 0.011591 1.451 -0.061662 0.028686 1.4562 -0.064019 0.030108 1.4537 -0.11704 0.045806 1.5182 -0.11523 0.043179 1.5201 -0.12426 0.010866 1.5106 -0.068514 0.011591 1.5868 -0.086392 0.01083 1.5937 -0.084504 0.011591 1.5968 -0.070402 0.01083 1.5837 -0.0082949 0.011591 1.5299 -0.0082949 -0.012181 1.5299 0.00030779 0.011591 1.5218 -0.016898 0.011591 1.5381 -0.010824 0.030108 1.5273 -0.019427 0.030108 1.5354 -0.016898 -0.012181 1.5381 -0.11566 0.010866 1.5024 -0.10663 0.043179 1.512 -0.10843 0.045806 1.5101 -0.0255 0.011591 1.5462 -0.0255 -0.012181 1.5462 -0.034103 0.011591 1.5543 -0.034103 -0.012181 1.5543 -0.02803 0.030108 1.5435 -0.036632 0.030108 1.5516 -0.042706 0.011591 1.5624 -0.042706 -0.012181 1.5624 -0.051308 0.011591 1.5706 -0.051308 -0.012181 1.5706 -0.045235 0.030108 1.5598 -0.053838 0.030108 1.5679 -0.068514 0.011591 1.5868 -0.071043 0.030108 1.5841 -0.072823 0.028726 1.5812 -0.09983 0.045806 1.502 -0.098026 0.043179 1.5039 -0.10706 0.010866 1.4943 -0.018026 0.045806 1.5196 -0.026629 0.045806 1.5278 -0.035232 0.045806 1.5359 -0.043835 0.045806 1.544 -0.098457 0.010866 1.4862 -0.089424 0.043179 1.4957 -0.091227 0.045806 1.4938 -0.052437 0.045806 1.5521 -0.06104 0.045806 1.5603 -0.06244 0.030108 1.576 -0.068514 0.011591 1.5868 -0.059911 0.011591 1.5787 -0.071043 0.030108 1.5841 -0.069643 0.045806 1.5684 -0.078245 0.045806 1.5765 -0.037408 0.056295 1.5163 -0.084504 0.011591 1.5968 -0.089413 0.029106 1.5908 -0.087646 0.030572 1.5937 -0.054614 0.056295 1.5326 -0.082625 0.045806 1.4857 -0.080821 0.043179 1.4876 -0.089854 0.010866 1.478 -0.071819 0.056295 1.5488 -0.080422 0.056295 1.557 -0.068514 -0.012181 1.5868 -0.073323 -0.029316 1.5816 -0.071043 -0.030698 1.5841 -0.028806 0.056295 1.5082 -0.050326 0.059978 1.5027 -0.046011 0.056295 1.5245 -0.067531 0.059978 1.5189 -0.078245 0.045806 1.5765 -0.079518 0.043224 1.5742 -0.070402 0.01083 1.5837 -0.063216 0.056295 1.5407 -0.084736 0.059978 1.5352 -0.081251 0.010866 1.4699 -0.072218 0.043179 1.4795 -0.074022 0.045806 1.4776 -0.089024 0.056295 1.5651 -0.10194 0.059978 1.5514 -0.084504 -0.012181 1.5968 -0.070902 -0.01142 1.5842 -0.068514 -0.012181 1.5868 -0.086392 -0.01142 1.5937 -0.045235 -0.030698 1.5598 -0.059911 -0.012181 1.5787 -0.02803 -0.030698 1.5435 -0.065419 0.045806 1.4695 -0.063615 0.043179 1.4714 -0.072649 0.010866 1.4618 -0.010824 -0.030698 1.5273 -0.084504 -0.012181 1.5968 -0.089399 -0.029696 1.5908 -0.086392 -0.01142 1.5937 0.00030779 -0.012181 1.5218 0.0063813 -0.030698 1.511 0.0089105 -0.012181 1.5137 -0.053838 -0.030698 1.5679 -0.052437 -0.046396 1.5521 -0.086392 0.01083 1.5937 -0.094735 0.040764 1.5851 -0.093486 0.043345 1.5875 -0.036632 -0.030698 1.5516 -0.035232 -0.046396 1.5359 -0.064046 0.010866 1.4537 -0.055013 0.043179 1.4632 -0.056817 0.045806 1.4613 -0.019427 -0.030698 1.5354 -0.018026 -0.046396 1.5196 -0.10626 0.056295 1.5296 -0.10528 0.052862 1.5307 -0.0022214 -0.030698 1.5191 -0.00082106 -0.046396 1.5034 -0.096678 0.052862 1.5225 -0.097654 0.056295 1.5215 -0.06104 -0.046396 1.5603 -0.071819 -0.056885 1.5488 -0.063216 -0.056885 1.5407 -0.088075 0.052862 1.5144 -0.089051 0.056295 1.5134 -0.054614 -0.056885 1.5326 -0.046011 -0.056885 1.5245 -0.043835 -0.046396 1.544 -0.10194 0.059978 1.5514 -0.089439 0.052925 1.5636 -0.089024 0.056295 1.5651 -0.1014 0.056358 1.5509 -0.11486 0.056295 1.5377 -0.037408 -0.056885 1.5163 -0.028806 -0.056885 1.5082 -0.026629 -0.046396 1.5278 -0.079472 0.052862 1.5063 -0.080448 0.056295 1.5052 -0.0094238 -0.046396 1.5115 -0.0116 -0.056885 1.492 -0.070902 -0.01142 1.5842 -0.080018 -0.043814 1.5746 -0.078245 -0.046396 1.5765 -0.084736 -0.060568 1.5352 -0.076134 -0.060568 1.527 -0.070869 0.052862 1.4981 -0.071846 0.056295 1.4971 -0.067531 -0.060568 1.5189 -0.058928 -0.060568 1.5108 -0.087646 -0.031162 1.5937 -0.094721 -0.041353 1.5851 -0.050326 -0.060568 1.5027 -0.041723 -0.060568 1.4945 -0.10226 0.05185 1.5782 -0.10274 0.048514 1.5767 -0.11549 0.056295 1.5642 -0.062267 0.052862 1.49 -0.063243 0.056295 1.489 -0.041723 0.059978 1.4945 -0.05464 0.056295 1.4809 -0.053664 0.052862 1.4819 -0.05464 0.056295 1.4809 -0.058928 0.059978 1.5108 -0.071846 0.056295 1.4971 -0.045061 0.052862 1.4738 -0.046038 0.056295 1.4727 -0.076134 0.059978 1.527 -0.089051 0.056295 1.5134 -0.093339 0.059978 1.5433 -0.10626 0.056295 1.5296 -0.063243 0.056295 1.489 -0.074022 0.045806 1.4776 -0.084736 0.059978 1.5352 -0.080448 0.056295 1.5052 -0.091227 0.045806 1.4938 -0.066548 0.011591 1.451 -0.072649 0.010866 1.4618 -0.064046 0.010866 1.4537 -0.075151 0.011591 1.4591 -0.097654 0.056295 1.5215 -0.09983 0.045806 1.502 -0.11486 0.056295 1.5377 -0.11704 0.045806 1.5182 -0.065419 0.045806 1.4695 -0.072622 0.030108 1.4618 -0.081224 0.030108 1.47 -0.067531 0.059978 1.5189 -0.089827 0.030108 1.4781 -0.09843 0.030108 1.4862 -0.082625 0.045806 1.4857 -0.081251 0.010866 1.4699 -0.092356 0.011591 1.4754 -0.089854 0.010866 1.478 -0.083753 0.011591 1.4673 -0.10843 0.045806 1.5101 -0.10703 0.030108 1.4943 -0.11564 0.030108 1.5025 -0.12564 0.045806 1.5263 -0.12424 0.030108 1.5106 -0.13284 0.030108 1.5187 -0.050326 0.059978 1.5027 -0.083753 0.011591 1.4673 -0.083753 -0.012181 1.4673 -0.092356 0.011591 1.4754 -0.075151 0.011591 1.4591 -0.075151 -0.012181 1.4591 -0.098457 0.010866 1.4862 -0.10956 0.011591 1.4917 -0.10706 0.010866 1.4943 -0.10096 0.011591 1.4835 -0.10096 0.011591 1.4835 -0.10096 -0.012181 1.4835 -0.10956 0.011591 1.4917 -0.092356 -0.012181 1.4754 -0.11816 0.011591 1.4998 -0.11816 -0.012181 1.4998 -0.12677 0.011591 1.5079 -0.10956 -0.012181 1.4917 -0.03312 0.059978 1.4864 -0.13537 0.011591 1.516 -0.0255 0.011591 1.5462 -0.016898 0.011591 1.5381 -0.0194 0.010866 1.5354 -0.028002 0.010866 1.5435 -0.066548 -0.012181 1.451 -0.081224 -0.030698 1.47 -0.11816 0.011591 1.4998 -0.12426 0.010866 1.5106 -0.11566 0.010866 1.5024 -0.12677 0.011591 1.5079 -0.09843 -0.030698 1.4862 -0.020203 -0.056885 1.5001 -0.021179 -0.053452 1.4991 -0.11564 -0.030698 1.5025 -0.029782 -0.053452 1.5072 -0.028806 -0.056885 1.5082 -0.12426 -0.011456 1.5106 -0.11816 -0.012181 1.4998 -0.11566 -0.011456 1.5024 -0.12677 -0.012181 1.5079 -0.072622 -0.030698 1.4618 -0.074022 -0.046396 1.4776 -0.037408 -0.056885 1.5163 -0.038385 -0.053452 1.5153 -0.089827 -0.030698 1.4781 -0.091227 -0.046396 1.4938 -0.034103 0.011591 1.5543 -0.045208 0.010866 1.5598 -0.042706 0.011591 1.5624 -0.036605 0.010866 1.5517 -0.10703 -0.030698 1.4943 -0.10843 -0.046396 1.5101 -0.046987 -0.053452 1.5234 -0.046011 -0.056885 1.5245 -0.13284 -0.030698 1.5187 -0.12677 -0.012181 1.5079 -0.12424 -0.030698 1.5106 -0.12564 -0.046396 1.5263 -0.10956 -0.012181 1.4917 -0.10096 -0.012181 1.4835 -0.098457 -0.011456 1.4862 -0.10706 -0.011456 1.4943 -0.05464 -0.056885 1.4809 -0.063243 -0.056885 1.489 -0.065419 -0.046396 1.4695 -0.089024 -0.056885 1.5651 -0.089939 -0.053515 1.5641 -0.082625 -0.046396 1.4857 -0.071846 -0.056885 1.4971 -0.080448 -0.056885 1.5052 -0.054614 -0.056885 1.5326 -0.05559 -0.053452 1.5316 -0.09983 -0.046396 1.502 -0.097654 -0.056885 1.5215 -0.051308 0.011591 1.5706 -0.062413 0.010866 1.576 -0.059911 0.011591 1.5787 -0.053811 0.010866 1.5679 -0.11704 -0.046396 1.5182 -0.11486 -0.056885 1.5377 -0.064193 -0.053452 1.5397 -0.063216 -0.056885 1.5407 -0.092356 -0.012181 1.4754 -0.083753 -0.012181 1.4673 -0.081251 -0.011456 1.4699 -0.089854 -0.011456 1.478 -0.10273 -0.049104 1.5767 -0.10226 -0.052439 1.5782 -0.089051 -0.056885 1.5134 -0.071819 -0.056885 1.5488 -0.072795 -0.053452 1.5478 -0.03312 -0.060568 1.4864 -0.020203 -0.056885 1.5001 -0.037435 -0.056885 1.4646 -0.024517 -0.060568 1.4783 -0.046038 -0.056885 1.4727 -0.048214 -0.046396 1.4532 -0.056817 -0.046396 1.4613 -0.055416 -0.030698 1.4456 -0.066548 0.011591 1.451 -0.057945 -0.012181 1.4429 -0.064019 -0.030698 1.4537 -0.064019 0.030108 1.4537 -0.057945 0.011591 1.4429 -0.056817 0.045806 1.4613 -0.055416 0.030108 1.4456 -0.046038 0.056295 1.4727 -0.048214 0.045806 1.4532 -0.037435 0.056295 1.4646 -0.03312 0.059978 1.4864 -0.10312 -0.012181 1.6 -0.12152 -0.012181 1.5958 -0.12014 -0.011506 1.5927 -0.080422 -0.056885 1.557 -0.078245 -0.046396 1.5765 -0.089024 -0.056885 1.5651 -0.10194 -0.060568 1.5514 -0.093339 -0.060568 1.5433 -0.069643 -0.046396 1.5684 -0.071043 -0.030698 1.5841 -0.06244 -0.030698 1.576 -0.068514 -0.012181 1.5868 -0.081398 -0.053452 1.5559 -0.080422 -0.056885 1.557 -0.14372 0.028988 1.5494 -0.13202 0.029421 1.5798 -0.11797 0.030572 1.5931 -0.13444 0.030108 1.5821 -0.14736 0.011591 1.5684 -0.14736 -0.012181 1.5684 -0.13712 -0.012181 1.5846 -0.13712 0.011591 1.5846 -0.0116 0.056295 1.492 -0.024517 0.059978 1.4783 -0.020203 0.056295 1.5001 -0.0094238 0.045806 1.5115 -0.00082106 0.045806 1.5034 -0.0022214 0.030108 1.5191 0.0063813 0.030108 1.511 0.0089105 0.011591 1.5137 -0.12152 -0.012181 1.5958 -0.10312 0.011591 1.6 -0.12152 0.011591 1.5958 0.010588 -0.043935 1.4892 0.002517 -0.052439 1.4793 -0.011056 -0.056885 1.4656 0.015177 -0.040117 1.4796 0.017127 -0.031162 1.4947 0.020574 -0.030199 1.4798 0.024052 -0.012181 1.4799 0.019843 -0.012181 1.4983 0.019843 0.011591 1.4983 0.02046 -0.029169 1.4665 0.011142 -0.043935 1.4698 0.00035572 -0.046396 1.4548 0.0060417 -0.030698 1.4494 0.025583 0.011592 1.4701 0.024052 0.011591 1.4799 0.025583 -0.012181 1.4701 -0.10226 -0.052439 1.5782 -0.093485 -0.043935 1.5875 -0.10287 -0.040117 1.5911 -0.0082949 0.011591 1.5299 0.00030779 0.011591 1.5218 -0.0021943 0.010866 1.5192 -0.010797 0.010866 1.5273 -0.072649 -0.011456 1.4618 -0.066548 -0.012181 1.451 -0.064046 -0.011456 1.4537 -0.075151 -0.012181 1.4591 -0.11667 0.029902 1.59 -0.10302 0.029609 1.5965 -0.10229 0.028988 1.5932 -0.11245 -0.043935 1.5865 -0.12682 -0.046396 1.5749 -0.11549 -0.056885 1.5642 -0.11797 -0.031162 1.5931 -0.087646 -0.031162 1.5937 -0.093485 -0.043935 1.5875 -0.10302 -0.030199 1.5965 -0.10312 -0.012181 1.6 -0.084504 -0.012181 1.5968 -0.084504 0.011591 1.5968 -0.0094238 -0.046396 1.5115 -0.011228 -0.043769 1.5096 -0.013557 -0.012181 1.4287 -0.02344 -0.030199 1.4332 -0.023341 -0.012181 1.4297 -0.010255 -0.029169 1.434 -0.023594 -0.040117 1.4386 -0.014008 -0.043935 1.4432 -0.038565 -0.031162 1.4358 -0.041955 -0.012181 1.4329 -0.041955 0.011591 1.4329 -0.023341 0.011591 1.4297 -0.033426 -0.043935 1.4426 -0.023955 -0.052439 1.4512 -0.14444 -0.031162 1.565 -0.14164 -0.040117 1.5501 -0.1376 -0.043935 1.5599 -0.13444 -0.030698 1.5821 -0.1347 -0.011494 1.5824 -0.10238 -0.01156 1.5967 -0.018026 -0.046396 1.5196 -0.12873 -0.052439 1.5502 -0.1375 -0.043935 1.5409 -0.13537 0.011591 1.516 -0.12999 0.028726 1.5207 -0.13284 0.030108 1.5187 -0.14703 -0.030199 1.5499 -0.14334 -0.031162 1.5347 -0.15051 -0.012181 1.5498 -0.1463 -0.012181 1.5314 -0.13537 0.011591 1.516 -0.14331 0.01083 1.5335 -0.13237 0.01083 1.5181 -0.1463 0.011591 1.5314 0.017127 0.030572 1.4947 0.020574 0.029609 1.4798 0.015177 0.039527 1.4796 0.010588 0.043345 1.4892 0.002517 0.05185 1.4793 -0.011056 0.056295 1.4656 0.02046 0.028578 1.4665 0.011142 0.043345 1.4698 0.00035572 0.045806 1.4548 -0.035232 -0.046396 1.5359 -0.10226 0.05185 1.5782 -0.10287 0.039527 1.5911 -0.093486 0.043345 1.5875 -0.1463 0.011591 1.5314 -0.14331 0.01083 1.5335 -0.087646 0.030572 1.5937 -0.10302 0.029609 1.5965 -0.052437 -0.046396 1.5521 -0.11245 0.043345 1.5865 -0.11797 0.030572 1.5931 -0.11549 0.056295 1.5642 -0.12682 0.045806 1.5749 -0.13444 0.030108 1.5821 -0.10238 -0.01156 1.5967 -0.10229 -0.029578 1.5932 -0.10302 -0.030199 1.5965 -0.10312 -0.012181 1.6 -0.10302 -0.030199 1.5965 -0.11667 -0.030492 1.59 -0.11797 -0.031162 1.5931 -0.023955 0.05185 1.4512 -0.014008 0.043345 1.4432 -0.023594 0.039527 1.4386 -0.033426 0.043345 1.4426 -0.038565 0.030572 1.4358 -0.010255 0.028578 1.434 0.0060417 0.030108 1.4494 -0.02344 0.029609 1.4332 -0.013557 0.011591 1.4287 -0.12873 0.05185 1.5502 -0.14164 0.039527 1.5501 -0.1376 0.043345 1.5599 -0.069643 -0.046396 1.5684 -0.10229 -0.029578 1.5932 -0.14444 0.030572 1.565 -0.10238 0.01097 1.5967 -0.1375 0.043345 1.5409 -0.14703 0.029609 1.5499 -0.0021943 -0.011456 1.5192 -0.1463 0.011591 1.5314 -0.15051 0.011591 1.5498 -0.13537 -0.012181 1.516 -0.14334 0.030572 1.5347 -0.13237 0.01083 1.5181 -0.10626 -0.056885 1.5296 0.042845 -0.010297 1.4178 0.042845 -0.025513 1.4178 0.03975 -0.025513 1.4145 0.03975 -0.010297 1.4145 0.036654 0.0096953 1.4112 0.03975 0.0096953 1.4145 0.036588 0.0096953 1.414 0.019769 0.0096953 1.4464 0.045339 0.0096953 1.4421 0.029696 0.0096953 1.4569 0.036654 -0.010297 1.4112 0.036588 -0.010297 1.414 0.03975 -0.010297 1.4145 0.042845 0.024912 1.4178 0.042845 0.0096953 1.4178 0.03975 0.0096953 1.4145 0.03975 0.024912 1.4145 0.019769 -0.010297 1.4464 0.045339 -0.010297 1.4421 0.035412 -0.010297 1.4316 0.029696 0.0096953 1.4569 0.029696 -0.010297 1.4569 0.019769 0.0096953 1.4464 0.019769 -0.010297 1.4464 0.0098425 0.0096953 1.4359 0.02046 -0.029169 1.4665 0.019769 -0.025513 1.4464 0.029696 -0.025513 1.4569 0.049391 -0.025513 1.4356 0.035412 -0.025513 1.4316 0.040379 -0.025513 1.426 0.049611 -0.025513 1.4278 0.042845 -0.025513 1.4178 0.036588 -0.025513 1.414 0.03975 -0.025513 1.4145 0.0431 -0.025513 1.4209 0.045941 -0.025513 1.421 0.031367 -0.025513 1.4165 0.040379 0.024912 1.426 0.049391 0.024912 1.4356 0.049611 0.024912 1.4278 0.0431 0.024912 1.4209 0.045941 0.024912 1.421 0.042845 0.024912 1.4178 -8.4489e-05 0.024912 1.4254 0.025485 0.024912 1.4211 0.015558 0.024912 1.4106 0.0098425 0.024912 1.4359 0.035412 0.024912 1.4316 -0.010255 0.028578 1.434 0.0060417 0.030108 1.4494 0.045339 -0.025513 1.4421 0.0098425 -0.025513 1.4359 0.025485 -0.025513 1.4211 0.0060417 -0.030698 1.4494 0.025583 0.011592 1.4701 0.029696 0.024912 1.4569 0.02046 0.028578 1.4665 0.025583 -0.012181 1.4701 0.029696 0.0096953 1.4569 0.029696 -0.025513 1.4569 0.029696 -0.010297 1.4569 -0.013557 0.011591 1.4287 -0.010255 0.028578 1.434 -8.4489e-05 0.024912 1.4254 -0.013557 -0.012181 1.4287 -8.4489e-05 -0.025513 1.4254 -0.010255 -0.029169 1.434 0.019769 0.024912 1.4464 0.02046 0.028578 1.4665 0.03975 0.024912 1.4145 0.036654 0.024912 1.4112 0.036588 0.024912 1.414 0.030077 0.024912 1.4072 0.031367 0.024912 1.4165 0.022356 0.024912 1.4069 0.045339 0.024912 1.4421 0.029696 0.024912 1.4569 0.036654 -0.025513 1.4112 0.030077 -0.025513 1.4072 0.022356 -0.025513 1.4069 -8.4489e-05 -0.025513 1.4254 0.015558 -0.025513 1.4106 -0.010255 -0.029169 1.434 0.0098425 -0.010297 1.4359 -8.4489e-05 0.0096953 1.4254 -8.4489e-05 -0.010297 1.4254 -8.4489e-05 -0.010297 1.4254 0.015558 -0.010297 1.4106 0.025485 -0.010297 1.4211 0.022356 -0.010297 1.4069 0.0098425 -0.010297 1.4359 -8.4489e-05 -0.010297 1.4254 0.036654 0.0096953 1.4112 0.036654 0.024912 1.4112 0.029696 -0.010297 1.4569 0.040379 -0.010297 1.426 0.049611 -0.010297 1.4278 0.0431 -0.010297 1.4209 0.049391 -0.010297 1.4356 0.031367 -0.010297 1.4165 0.042845 -0.010297 1.4178 0.030077 -0.010297 1.4072 0.045941 -0.010297 1.421 0.045941 -0.025513 1.421 0.045941 -0.010297 1.421 0.049611 -0.010297 1.4278 0.049611 -0.025513 1.4278 0.0098425 0.0096953 1.4359 0.035412 0.0096953 1.4316 -8.4489e-05 0.0096953 1.4254 0.025485 0.0096953 1.4211 0.015558 0.0096953 1.4106 0.022356 0.0096953 1.4069 0.049391 -0.010297 1.4356 0.049391 -0.025513 1.4356 0.049391 0.0096953 1.4356 0.040379 0.0096953 1.426 0.049611 0.0096953 1.4278 0.031367 0.0096953 1.4165 0.030077 0.0096953 1.4072 0.030077 0.024912 1.4072 0.030077 0.0096953 1.4072 0.0431 0.0096953 1.4209 0.022356 0.0096953 1.4069 0.022356 0.024912 1.4069 0.042845 0.0096953 1.4178 0.045941 0.0096953 1.421 0.015558 0.0096953 1.4106 0.015558 0.024912 1.4106 0.015558 -0.010297 1.4106 0.015558 -0.025513 1.4106 0.022356 -0.010297 1.4069 0.022356 -0.025513 1.4069 0.030077 -0.010297 1.4072 0.030077 -0.025513 1.4072 0.045339 0.0096953 1.4421 0.045339 0.024912 1.4421 0.049391 0.0096953 1.4356 0.049391 0.024912 1.4356 0.049611 0.0096953 1.4278 0.049611 0.024912 1.4278 0.045941 0.024912 1.421 0.045941 0.0096953 1.421 0.02046 -0.029169 1.4665 0.045339 -0.010297 1.4421 0.045339 -0.025513 1.4421 0.036654 -0.010297 1.4112 0.036654 -0.025513 1.4112 -8.4489e-05 0.0096953 1.4254 -0.012547 -0.039553 0.02819 -0.083278 -0.032449 0.020213 -0.083278 -0.11028 0.020213 -0.0054422 -0.11028 0.020213 0.012529 -0.054031 0.02819 0.059455 -0.11028 0.020213 0.041484 -0.054031 0.02819 0.06656 -0.039553 0.02819 0.13729 -0.11028 0.020213 0.13729 -0.032449 0.020213 0.081037 -0.014478 0.02819 0.081037 0.014478 0.02819 0.13729 0.032449 0.020213 0.13729 0.11028 0.020213 0.06656 0.039553 0.02819 0.059455 0.11028 0.020213 0.041484 0.054031 0.02819 -0.0054423 0.11028 0.020213 0.012529 0.054031 0.02819 -0.083278 0.11028 0.020213 -0.012547 0.039553 0.02819 -0.083278 0.032449 0.020213 -0.027024 0.014478 0.02819 -0.027024 -0.014478 0.02819 -0.0093323 0.12351 2.4414e-15 -0.096499 0.036339 9.6944e-15 -0.096499 0.12351 9.6944e-15 -0.096499 -0.036339 9.6944e-15 -0.0093322 -0.12351 9.8669e-15 -0.096499 -0.12351 9.6944e-15 0.063345 0.12351 2.7562e-15 0.15051 0.036339 5.4344e-15 0.15051 0.12351 5.4344e-15 0.15051 -0.036339 5.4344e-15 0.063345 -0.12351 0 0.15051 -0.12351 5.4344e-15 -0.096499 -0.036339 9.6944e-15 -0.092011 0.035018 0.0068602 -0.096499 -0.12351 9.6944e-15 -0.0093322 -0.12351 9.8669e-15 -0.092011 -0.11902 0.0068602 -0.008012 -0.11902 0.0068602 0.062025 -0.11902 0.0068602 0.063345 -0.12351 0 0.14602 -0.11902 0.0068602 0.15051 -0.12351 5.4344e-15 0.14602 -0.11902 0.0068602 0.15051 -0.036339 5.4344e-15 0.14602 -0.035018 0.0068602 0.15051 -0.12351 5.4344e-15 0.14602 0.035018 0.0068602 0.15051 0.036339 5.4344e-15 0.14602 0.11902 0.0068602 0.15051 0.12351 5.4344e-15 0.14602 0.11902 0.0068602 0.063345 0.12351 2.7562e-15 0.062025 0.11902 0.0068602 0.15051 0.12351 5.4344e-15 -0.008012 0.11902 0.0068602 -0.0093323 0.12351 2.4414e-15 -0.092011 0.11902 0.0068602 -0.096499 0.12351 9.6944e-15 -0.092011 -0.035018 0.0068602 -0.092011 -0.11902 0.0068602 -0.096499 -0.12351 9.6944e-15 0.015022 -0.010157 1.4451 0.0075606 -0.010157 1.4322 0.022484 -0.010157 1.4471 0.036008 -0.010157 1.4471 0.050931 -0.010157 1.4322 0.04347 -0.010157 1.4451 0.048932 -0.010157 1.4396 0.0095599 -0.010157 1.4396 0.011765 -0.008245 1.3735 0.046727 -0.008245 1.3735 0.048932 0.0095668 1.4396 0.050931 -0.010157 1.4322 0.050931 0.0095668 1.4322 0.048932 -0.010157 1.4396 0.04347 0.0095668 1.4451 0.04347 -0.010157 1.4451 0.036008 0.0095668 1.4471 0.036008 -0.010157 1.4471 0.0095599 -0.010157 1.4396 0.015022 0.0095668 1.4451 0.0095599 0.0095668 1.4396 0.015022 -0.010157 1.4451 0.04347 0.0095668 1.4451 0.050931 0.0095668 1.4322 0.036008 0.0095668 1.4471 0.015022 0.0095668 1.4451 0.0075606 0.0095668 1.4322 0.0095599 0.0095668 1.4396 0.011765 0.0076549 1.3735 0.046727 0.0076549 1.3735 0.022484 0.0095668 1.4471 0.048932 0.0095668 1.4396 0.0075606 0.0095668 1.4322 0.011765 -0.008245 1.3735 0.0075606 -0.010157 1.4322 0.011765 0.0076549 1.3735 0.022484 -0.010157 1.4471 0.022484 0.0095668 1.4471 0.046727 -0.008245 1.3735 0.046727 0.0076549 1.3735 0.011248 -0.004222 1.3536 0.015471 -0.011535 0.062371 0.015471 -0.011535 1.3536 0.011248 -0.0042219 0.062371 0.011248 0.0042228 1.3536 0.011248 0.0042228 0.062371 0.022784 -0.015758 1.3536 0.031229 0.015759 0.062371 0.038542 0.011536 1.3536 0.038542 0.011536 0.062371 0.031229 0.015759 1.3536 0.022784 0.015759 0.062371 0.022784 0.015759 1.3536 0.042764 -0.004222 1.3536 0.042764 -0.0042219 0.062371 0.042764 0.0042228 1.3536 0.038542 -0.011535 0.062371 0.022784 -0.015758 0.062371 0.031229 -0.015758 1.3536 0.01547 0.011536 0.062371 0.015471 0.011536 1.3536 0.042764 0.0042228 0.062371 0.031229 -0.015758 0.062371 0.038542 -0.011535 1.3536 0.011248 -0.0042219 0.062371 -0.027024 -0.014478 0.02819 0.015471 -0.011535 0.062371 -0.027024 0.014478 0.02819 0.011248 0.0042228 0.062371 -0.012547 0.039553 0.02819 -0.012547 -0.039553 0.02819 0.022784 -0.015758 0.062371 0.041484 0.054031 0.02819 0.038542 0.011536 0.062371 0.06656 0.039553 0.02819 0.031229 0.015759 0.062371 0.012529 0.054031 0.02819 0.022784 0.015759 0.062371 0.081037 -0.014478 0.02819 0.038542 -0.011535 0.062371 0.06656 -0.039553 0.02819 0.042764 -0.0042219 0.062371 0.081037 0.014478 0.02819 0.042764 0.0042228 0.062371 0.012529 -0.054031 0.02819 0.031229 -0.015758 0.062371 0.01547 0.011536 0.062371 0.041484 -0.054031 0.02819 0.054092 0.0054929 1.2627 0.05426 -0.0062663 1.2973 0.054092 -0.0060821 1.2627 0.05426 0.0056772 1.2973 0.054377 0.0058059 1.3223 0.054552 -0.0065877 1.361 0.054377 -0.006395 1.3223 0.054552 0.0059987 1.361 -0.084861 0.11187 0.012319 -0.08733 0.035018 0.0075815 -0.083084 0.033769 0.013056 -0.089108 0.11611 0.0068451 -0.08733 -0.035018 0.0075815 -0.083084 -0.033769 0.013056 -0.008012 0.11434 0.0075815 -0.084861 0.11187 0.012319 -0.0067626 0.11009 0.013056 -0.089108 0.11611 0.0068451 0.062025 0.11434 0.0075815 0.13887 0.11187 0.012319 0.14312 0.11611 0.0068451 0.060775 0.11009 0.013056 0.13887 0.11187 0.012319 0.14134 0.035018 0.0075815 0.14312 0.11611 0.0068451 0.1371 0.033769 0.013056 0.14134 -0.035018 0.0075815 0.1371 -0.033769 0.013056 0.13887 -0.11187 0.012319 0.14312 -0.11611 0.0068451 0.13887 -0.11187 0.012319 0.060775 -0.11009 0.013056 0.062025 -0.11434 0.0075815 -0.0067625 -0.11009 0.013056 -0.008012 -0.11434 0.0075815 0.14312 -0.11611 0.0068451 -0.084861 -0.11187 0.012319 -0.089108 -0.11611 0.0068451 -0.010797 0.010866 1.5273 -0.0045784 0.028686 1.5166 -0.013181 0.028686 1.5248 -0.028002 0.010866 1.5435 -0.021784 0.028686 1.5329 -0.030386 0.028686 1.541 -0.045208 0.010866 1.5598 -0.038989 0.028686 1.5491 -0.047592 0.028686 1.5573 -0.062413 0.010866 1.576 -0.056195 0.028686 1.5654 -0.064797 0.028686 1.5735 -0.0021943 0.010866 1.5192 -0.011228 0.043179 1.5096 -0.01983 0.043179 1.5177 -0.0194 0.010866 1.5354 -0.028433 0.043179 1.5258 -0.037036 0.043179 1.534 -0.036605 0.010866 1.5517 -0.045639 0.043179 1.5421 -0.054241 0.043179 1.5502 -0.053811 0.010866 1.5679 -0.062844 0.043179 1.5583 -0.071447 0.043179 1.5665 -0.029782 0.052862 1.5072 -0.046987 0.052862 1.5234 -0.05559 0.052862 1.5316 -0.072795 0.052862 1.5478 -0.021179 0.052862 1.4991 -0.041723 0.056281 1.4945 -0.038385 0.052862 1.5153 -0.058928 0.056281 1.5108 -0.064193 0.052862 1.5397 -0.076134 0.056281 1.527 -0.081398 0.052862 1.5559 -0.093339 0.056281 1.5433 -0.062413 -0.011456 1.576 -0.056195 -0.029276 1.5654 -0.053811 -0.011456 1.5679 -0.045208 -0.011456 1.5598 -0.038989 -0.029276 1.5491 -0.036605 -0.011456 1.5517 -0.028002 -0.011456 1.5435 -0.021784 -0.029276 1.5329 -0.0194 -0.011456 1.5354 -0.010797 -0.011456 1.5273 -0.0045784 -0.029276 1.5166 -0.0021943 -0.011456 1.5192 -0.064797 -0.029276 1.5735 -0.062844 -0.043769 1.5583 -0.047592 -0.029276 1.5573 -0.045639 -0.043769 1.5421 -0.030386 -0.029276 1.541 -0.028433 -0.043769 1.5258 -0.013181 -0.029276 1.5248 -0.011228 -0.043769 1.5096 -0.071447 -0.043769 1.5665 -0.072795 -0.053452 1.5478 -0.054241 -0.043769 1.5502 -0.05559 -0.053452 1.5316 -0.037036 -0.043769 1.534 -0.046987 -0.053452 1.5234 -0.038385 -0.053452 1.5153 -0.01983 -0.043769 1.5177 -0.029782 -0.053452 1.5072 -0.021179 -0.053452 1.4991 -0.081398 -0.053452 1.5559 -0.093339 -0.05687 1.5433 -0.084736 -0.05687 1.5352 -0.064193 -0.053452 1.5397 -0.076134 -0.05687 1.527 -0.067531 -0.05687 1.5189 -0.058928 -0.05687 1.5108 -0.050326 -0.05687 1.5027 -0.041723 -0.05687 1.4945 -0.03312 -0.05687 1.4864 -0.03312 0.056281 1.4864 -0.045061 0.052862 1.4738 -0.050326 0.056281 1.5027 -0.062267 0.052862 1.49 -0.067531 0.056281 1.5189 -0.079472 0.052862 1.5063 -0.084736 0.056281 1.5352 -0.096678 0.052862 1.5225 -0.053664 0.052862 1.4819 -0.055013 0.043179 1.4632 -0.070869 0.052862 1.4981 -0.080821 0.043179 1.4876 -0.088075 0.052862 1.5144 -0.098026 0.043179 1.5039 -0.10528 0.052862 1.5307 -0.11523 0.043179 1.5201 -0.063615 0.043179 1.4714 -0.061662 0.028686 1.4562 -0.070265 0.028686 1.4643 -0.072218 0.043179 1.4795 -0.078867 0.028686 1.4724 -0.08747 0.028686 1.4806 -0.096073 0.028686 1.4887 -0.10468 0.028686 1.4968 -0.089424 0.043179 1.4957 -0.10663 0.043179 1.512 -0.11328 0.028686 1.5049 -0.12188 0.028686 1.5131 -0.064046 0.010866 1.4537 -0.072649 0.010866 1.4618 -0.081251 0.010866 1.4699 -0.089854 0.010866 1.478 -0.098457 0.010866 1.4862 -0.10706 0.010866 1.4943 -0.11566 0.010866 1.5024 -0.12426 0.010866 1.5106 -0.064046 -0.011456 1.4537 -0.070265 -0.029276 1.4643 -0.072649 -0.011456 1.4618 -0.081251 -0.011456 1.4699 -0.08747 -0.029276 1.4806 -0.089854 -0.011456 1.478 -0.098457 -0.011456 1.4862 -0.10468 -0.029276 1.4968 -0.10706 -0.011456 1.4943 -0.11566 -0.011456 1.5024 -0.12188 -0.029276 1.5131 -0.12426 -0.011456 1.5106 -0.061662 -0.029276 1.4562 -0.063615 -0.043769 1.4714 -0.078867 -0.029276 1.4724 -0.080821 -0.043769 1.4876 -0.096073 -0.029276 1.4887 -0.098026 -0.043769 1.5039 -0.11328 -0.029276 1.5049 -0.11523 -0.043769 1.5201 -0.055013 -0.043769 1.4632 -0.053664 -0.053452 1.4819 -0.072218 -0.043769 1.4795 -0.062267 -0.053452 1.49 -0.070869 -0.053452 1.4981 -0.079472 -0.053452 1.5063 -0.088075 -0.053452 1.5144 -0.089424 -0.043769 1.4957 -0.096678 -0.053452 1.5225 -0.10528 -0.053452 1.5307 -0.10663 -0.043769 1.512 -0.045061 -0.053452 1.4738 -0.10273 -0.049104 1.5767 -0.089939 -0.053515 1.5641 -0.094721 -0.041353 1.5851 -0.080018 -0.043814 1.5746 -0.11496 -0.053266 1.5637 -0.1019 -0.056948 1.5514 -0.089399 -0.029696 1.5908 -0.073323 -0.029316 1.5816 -0.086392 -0.01142 1.5937 -0.070902 -0.01142 1.5842 -0.11388 -0.053515 1.5387 -0.13519 -0.041353 1.5423 -0.12387 -0.043814 1.5282 -0.12718 -0.049104 1.5508 -0.14051 -0.029696 1.5367 -0.13049 -0.029316 1.5211 -0.14331 -0.01142 1.5335 -0.13287 -0.01142 1.5186 -0.089439 0.052925 1.5636 -0.094735 0.040764 1.5851 -0.079518 0.043224 1.5742 -0.11497 0.052676 1.5637 -0.10274 0.048514 1.5767 -0.089413 0.029106 1.5908 -0.072823 0.028726 1.5812 -0.086392 0.01083 1.5937 -0.070402 0.01083 1.5837 -0.11338 0.052925 1.5382 -0.1352 0.040764 1.5423 -0.1272 0.048514 1.5508 -0.1014 0.056358 1.5509 -0.12337 0.043224 1.5277 -0.14053 0.029106 1.5367 -0.12999 0.028726 1.5207 -0.14331 0.01083 1.5335 -0.13237 0.01083 1.5181 -0.089108 -0.11611 0.0068451 -0.084861 -0.11187 0.012319 0.057271 -0.0060821 1.2626 0.057271 0.0054929 1.2626 0.054092 0.0054929 1.2627 0.054092 -0.0060821 1.2627 0.057556 0.0058059 1.3223 0.054552 0.0059987 1.361 0.054377 0.0058059 1.3223 0.057731 0.0059987 1.361 0.057439 -0.0062663 1.2973 0.054092 -0.0060821 1.2627 0.05426 -0.0062663 1.2973 0.057271 -0.0060821 1.2626 0.057731 0.0059987 1.361 0.054552 -0.0065877 1.361 0.054552 0.0059987 1.361 0.057731 -0.0065877 1.361 0.054092 0.0054929 1.2627 0.057439 0.0056772 1.2973 0.05426 0.0056772 1.2973 0.057271 0.0054929 1.2626 0.057439 0.0056772 1.2973 0.05426 -0.0062663 1.2973 0.05426 0.0056772 1.2973 0.057439 -0.0062663 1.2973 0.057271 -0.0060821 1.2626 0.057211 0.017924 1.2501 0.057271 0.0054929 1.2626 0.057211 -0.018513 1.2501 0.057439 -0.0062663 1.2973 0.057499 -0.018831 1.3098 0.057439 0.0056772 1.2973 0.057499 0.018241 1.3098 0.057556 -0.006395 1.3223 0.057556 0.0058059 1.3223 0.057731 -0.0065877 1.361 0.057788 -0.019148 1.3735 0.057731 0.0059987 1.361 0.057788 0.018559 1.3735 0.045242 0.026679 1.3735 0.057499 0.018241 1.3098 0.045047 0.026208 1.3098 0.054552 -0.0065877 1.361 0.057556 -0.006395 1.3223 0.054377 -0.006395 1.3223 0.057731 -0.0065877 1.361 0.057211 -0.018513 1.2501 0.044925 -0.025729 1.3098 0.044608 -0.02538 1.2378 0.0091561 -0.02538 1.2378 0.0012716 -0.025453 1.2521 0.0013017 -0.02542 1.2457 0.020015 -0.025537 1.2685 0.00079536 -0.025977 1.354 0.045242 -0.026077 1.3735 0.00070409 -0.026077 1.3735 0.020015 -0.025883 1.3358 0.0091561 0.025981 1.2378 0.0013017 -0.02542 1.2457 0.0013017 0.026021 1.2457 0.0091561 -0.02538 1.2378 0.057788 -0.019148 1.3735 0.046727 -0.008245 1.3735 0.045242 -0.026077 1.3735 0.046727 0.0076549 1.3735 0.00079536 0.026578 1.354 0.045242 0.026679 1.3735 0.020015 0.026484 1.3358 0.00070409 0.026679 1.3735 0.045047 0.026208 1.3098 0.044851 0.025738 1.2378 0.020015 0.026139 1.2685 0.0012716 0.026054 1.2521 0.0091561 0.025981 1.2378 0.0013017 0.026021 1.2457 0.057211 0.017924 1.2501 0.057211 -0.018513 1.2501 0.044608 -0.02538 1.2378 0.044851 0.025738 1.2378 0.057499 -0.018831 1.3098 0.057788 -0.019148 1.3735 0.057556 -0.006395 1.3223 0.057556 0.0058059 1.3223 0.054377 0.0058059 1.3223 0.054377 -0.006395 1.3223 0.00079536 0.026578 1.354 0.00079536 -0.025977 1.354 0.00070409 -0.026077 1.3735 0.00070409 0.026679 1.3735 0.020015 -0.025883 1.3358 0.020015 0.026139 1.2685 0.020015 -0.025537 1.2685 0.020015 0.026484 1.3358 0.020015 -0.025537 1.2685 0.0012716 0.026054 1.2521 0.0012716 -0.025453 1.2521 0.020015 0.026139 1.2685 0.020015 0.026484 1.3358 0.00079536 -0.025977 1.354 0.00079536 0.026578 1.354 0.020015 -0.025883 1.3358 0.011765 0.0076549 1.3735 0.00070409 -0.026077 1.3735 0.011765 -0.008245 1.3735 0.045242 0.026679 1.3735 0.00070409 0.026679 1.3735 0.057788 0.018559 1.3735 0.0013017 0.026021 1.2457 0.0012716 -0.025453 1.2521 0.0012716 0.026054 1.2521 0.0013017 -0.02542 1.2457 0.044851 0.025738 1.2378 0.0091561 -0.02538 1.2378 0.0091561 0.025981 1.2378 0.044608 -0.02538 1.2378 0.057788 0.018559 1.3735 0.057211 0.017924 1.2501 0.044851 0.025738 1.2378</float_array><technique_common><accessor source="#g-p-a" count="1513" stride="3"><param name="X" type="float"/><param name="Y" type="float"/><param name="Z" type="float"/></accessor></technique_common></source>
<source id="g-n"><float_array id="g-n-a" count="4539">-0.0053871 0.063316 -0.99798 0.0052946 0.066761 -0.99775 -0.0052945 0.066761 -0.99775 0.17258 0.17258 -0.96976 0.16883 0.16883 -0.97108 -0.0052945 -0.066763 -0.99775 0.16883 -0.16883 -0.97108 0.17258 -0.17258 -0.96976 0.0052945 -0.066763 -0.99775 0.0053871 -0.063317 -0.99798 -0.83688 0 0.54739 -0.83688 0 0.54739 -0.83688 0 0.54739 -0.066763 -0.0052945 -0.99775 -0.17258 0.17258 -0.96976 -0.16883 0.16883 -0.97108 -0.066763 0.0052945 -0.99775 -0.16883 -0.16883 -0.97108 -0.17258 -0.17258 -0.96976 -0.063318 -0.0053871 -0.99798 -0.063318 0.0053871 -0.99798 0.0027975 -0.1523 0.98833 -0.0027549 -0.15052 0.9886 0.0027549 -0.15052 0.9886 -0.0026011 0.0026011 0.99999 -0.00059936 0.00059935 1 0.0027549 0.15053 0.9886 -0.0027549 0.15053 0.9886 -0.0027975 0.1523 0.98833 -0.00059864 -0.00059861 1 -0.0026004 -0.0026004 0.99999 -0.0053871 -0.063317 -0.99798 0.066761 -0.0052945 -0.99775 0.063316 -0.0053871 -0.99798 0.063316 0.0053871 -0.99798 0.066761 0.0052946 -0.99775 -0.15052 -0.0027549 0.9886 0.0026014 0.0026014 0.99999 0.00059965 0.00059966 1 -0.15052 0.0027549 0.9886 0.00059893 -0.00059889 1 0.0026007 -0.0026007 0.99999 -0.1523 -0.0027975 0.98833 -0.1523 0.0027975 0.98833 -0.0027975 -0.1523 0.98833 0.0027975 0.1523 0.98833 0.15052 0.0027549 0.9886 0.1523 0.0027975 0.98833 0.0053871 0.063316 -0.99798 0.15052 -0.0027549 0.9886 0.1523 -0.0027975 0.98833 -0.83688 0 0.54739 -0.83688 0 0.54739 -0.83688 0 0.54739 -0.83688 0 0.54739 -0.83688 0 0.54739 4.518e-09 0.83688 0.54739 -2.8002e-09 0.83688 0.54739 4.5586e-09 0.83688 0.54739 -4.3758e-09 0.83688 0.54739 -8.5905e-09 0.83688 0.54739 3.9988e-09 0.83688 0.54739 -9.628e-09 0.83688 0.54739 4.5586e-09 0.83688 0.54739 0.83688 0 0.54739 0.83688 0 0.54739 0.83688 0 0.54739 0.83688 0 0.54739 0.83688 0 0.54739 0.83688 0 0.54739 0.83688 0 0.54739 0.83688 0 0.54739 -5.1867e-09 -0.83688 0.54739 -8.4642e-09 -0.83688 0.54739 -5.1258e-09 -0.83688 0.54739 -9.628e-09 -0.83688 0.54739 1.5668e-09 -0.83688 0.54739 2.4169e-09 -0.83688 0.54739 4.5586e-09 -0.83688 0.54739 4.518e-09 -0.83688 0.54739 -0.83688 0 0.54739 -0.83688 2.4252e-09 0.54739 -0.83688 2.2275e-10 0.54739 -0.16998 0.9813 0.090271 -0.17903 0.98017 0.084894 -0.1778 0.98048 0.083983 -0.97661 -0.035556 -0.21206 -0.97661 -0.035556 -0.21206 -0.97661 -0.035556 -0.21206 -0.97661 -0.035556 -0.21206 0.18206 -0.9829 -0.027539 0.18386 -0.98044 -0.0703 0.18457 -0.98027 -0.070721 -0.16998 -0.9813 0.090271 -0.1778 -0.98048 0.083983 -0.17903 -0.98017 0.084893 0.15604 -0.035562 0.98711 0.15604 -0.035562 0.98711 0.15604 -0.035562 0.98711 0.15604 -0.035562 0.98711 0.03787 0.9829 -0.1802 0.080664 0.98044 -0.17955 0.081126 0.98027 -0.18024 -0.14707 0.97932 0.13891 -0.14579 0.97968 0.13771 -0.16911 0.98149 0.08992 0.18206 0.9829 -0.027539 0.18457 0.98027 -0.070721 0.18386 0.98044 -0.0703 0.14649 0.97949 -0.13836 0.14689 0.97937 -0.13875 0.17988 0.98333 -0.026733 0.15604 0.035562 0.98711 0.15604 0.035562 0.98711 0.15604 0.035562 0.98711 0.15604 0.035562 0.98711 0.17988 -0.98333 -0.026734 0.14649 -0.97949 -0.13836 -0.21153 -0.18188 0.9603 -0.37382 -0.20217 0.9052 -0.20546 -0.1866 0.96071 -0.40537 -0.19559 0.89298 -0.71088 -0.20929 0.67146 -0.97079 -0.18188 0.15646 -0.92503 -0.20217 0.32163 -0.91463 -0.19558 0.35382 -0.97086 -0.18661 0.15037 -0.71302 -0.19501 0.67348 -0.21153 0.18188 0.9603 -0.37383 0.20217 0.9052 -0.40537 0.19559 0.89298 -0.20546 0.1866 0.96071 -0.71088 0.20929 0.67146 -0.71302 0.19502 0.67348 -0.97079 0.18188 0.15646 -0.92503 0.20217 0.32163 -0.97086 0.18661 0.15037 -0.91463 0.19558 0.35382 0.72698 3.9103e-06 -0.68666 0.72698 3.7316e-06 -0.68666 0.72698 3.4302e-06 -0.68666 -0.72698 -5.1776e-06 0.68666 -0.72697 -1.155e-05 0.68667 -0.72697 -1.1234e-05 0.68667 0.72697 1.1658e-05 -0.68667 0.72697 9.53e-06 -0.68667 0.72697 1.0091e-05 -0.68667 -0.72697 9.2792e-06 0.68667 -0.72698 -3.9621e-06 0.68665 -0.72697 1.0771e-05 0.68667 0.72698 -7.9395e-06 -0.68666 0.72698 -5.5261e-06 -0.68666 0.72698 -4.0346e-06 -0.68666 -0.72699 4.0218e-06 0.68665 -0.72699 -4.8578e-06 0.68665 -0.72699 3.8477e-06 0.68665 0.72698 -6.4584e-06 -0.68666 0.72699 4.3663e-06 -0.68665 0.72699 3.5198e-06 -0.68665 -0.72698 4.3562e-06 0.68666 -0.72698 3.6403e-06 0.68666 -0.72698 4.1372e-06 0.68666 0.72698 -3.9103e-06 -0.68666 0.72698 -3.4302e-06 -0.68666 0.72698 -3.7316e-06 -0.68666 -0.72698 5.1776e-06 0.68666 -0.72697 1.155e-05 0.68667 -0.72698 4.1372e-06 0.68666 0.72697 -1.1658e-05 -0.68667 0.72697 -1.0091e-05 -0.68667 0.72697 -9.53e-06 -0.68667 -0.72699 -4.3769e-06 0.68665 -0.72698 -7.6918e-06 0.68666 -0.72698 -7.9673e-06 0.68666 -0.72697 5.0657e-06 0.68667 -0.72697 5.1573e-06 0.68667 0.72698 -7.9685e-06 -0.68666 0.72699 2.032e-05 -0.68665 0.72699 2.0103e-05 -0.68665 0.72697 5.615e-06 -0.68667 0.72697 -2.5069e-06 -0.68667 0.72697 -2.076e-06 -0.68667 -0.72699 -3.5785e-06 0.68665 -0.72697 4.1671e-06 0.68666 -0.72697 -3.0941e-06 0.68667 -0.72698 -5.439e-06 0.68666 -0.72698 -5.6002e-06 0.68666 0.72698 -7.0893e-06 -0.68666 0.72697 -4.1231e-06 -0.68666 0.72697 -5.0764e-06 -0.68667 0.72697 -3.0963e-06 -0.68667 0.72699 1.1724e-05 -0.68665 0.72699 1.1063e-05 -0.68665 -0.72698 3.9395e-06 0.68666 -0.72697 4.6796e-06 0.68667 -0.72697 -3.9653e-06 0.68667 -0.72699 -1.3341e-05 0.68665 -0.72698 -1.3152e-05 0.68665 0.72698 -3.687e-06 -0.68666 0.72697 -4.852e-06 -0.68667 0.72697 -4.0965e-06 -0.68667 0.72699 1.3942e-05 -0.68665 0.72697 -5.4063e-06 -0.68667 0.72697 -4.7881e-06 -0.68667 -0.72697 1.1234e-05 0.68667 -0.72697 4.1351e-06 0.68666 -0.72699 -8.8458e-06 0.68665 -0.72699 -9.8228e-06 0.68665 -0.72699 -1.0299e-05 0.68665 0.72697 -1.1682e-05 -0.68667 0.72697 -4.1088e-06 -0.68666 0.72698 -1.5462e-06 -0.68666 0.72697 2.3298e-06 -0.68667 0.72697 -5.8275e-06 -0.68667 0.72697 -4.4646e-06 -0.68667 -0.72698 -6.1959e-06 0.68666 -0.72697 7.3779e-06 0.68666 -0.72697 6.9742e-06 0.68666 -0.72697 5.1959e-06 0.68667 -0.72697 5.5626e-06 0.68667 -0.72698 -8.971e-06 0.68666 0.72698 9.45e-06 -0.68666 0.72698 7.6808e-06 -0.68666 0.72697 5.842e-06 -0.68667 0.72697 -5.0874e-06 -0.68667 0.72697 -4.9073e-06 -0.68667 -0.72697 5.1572e-06 0.68667 -0.72697 6.8436e-06 0.68667 -0.72697 7.1994e-06 0.68667 -0.72697 4.2674e-06 0.68666 -0.72697 5.007e-06 0.68666 -0.72697 -2.4396e-06 0.68667 0.72697 -5.4084e-06 -0.68667 0.72697 -5.1524e-06 -0.68667 0.72697 -4.6922e-06 -0.68667 0.72697 -2.8865e-06 -0.68667 0.72697 -4.1825e-06 -0.68667 -0.72697 5.0659e-06 0.68667 -0.72697 7.1457e-06 0.68667 -0.72697 7.448e-06 0.68667 -0.72698 -6.754e-06 0.68666 -0.72698 -8.4541e-06 0.68666 -0.72697 -2.5416e-06 0.68667 0.72697 7.8981e-06 -0.68666 0.72698 7.8873e-06 -0.68666 0.72699 1.584e-05 -0.68665 0.72698 9.556e-06 -0.68666 0.72698 7.9675e-06 -0.68666 -0.72698 1.5365e-06 0.68666 -0.72698 -2.2347e-05 0.68666 -0.72698 -2.2738e-05 0.68666 -0.72698 -7.7443e-06 0.68666 -0.72698 -8.5782e-06 0.68666 -0.72699 -9.0354e-06 0.68665 0.72698 2.566e-05 -0.68666 0.72698 2.51e-05 -0.68666 0.72697 2.5522e-06 -0.68667 0.72698 7.1146e-06 -0.68666 0.72698 8.0424e-06 -0.68666 -0.72698 0 0.68666 -0.72698 -2.9246e-08 0.68666 -0.72698 7.4121e-06 0.68666 -0.72698 6.8706e-06 0.68666 0.72698 1.0215e-06 -0.68666 0.72698 0 -0.68666 0.72698 -1.1213e-05 -0.68666 0.72698 -1.0559e-05 -0.68666 -0.72698 0 0.68666 -0.72698 7.0352e-07 0.68666 -0.72698 -5.5646e-06 0.68666 -0.72698 -5.9765e-06 0.68666 0.72698 3.1466e-07 -0.68666 0.72698 0 -0.68666 0.72698 -1.0866e-05 -0.68666 0.72698 -1.0079e-05 -0.68666 -0.72698 0 0.68666 -0.72698 -2.4256e-07 0.68666 -0.72698 1.0638e-05 0.68666 -0.72698 1.073e-05 0.68666 0.72698 2.1922e-06 -0.68666 0.72698 0 -0.68666 0.72697 -2.6301e-05 -0.68666 0.72697 -2.6099e-05 -0.68667 -0.72698 0 0.68666 -0.72698 -1.2417e-06 0.68666 -0.72698 -1.4602e-06 0.68666 -0.72698 -1.0288e-06 0.68666 0.72698 1.4726e-06 -0.68666 0.72698 0 -0.68666 0.72698 5.3598e-06 -0.68666 0.72698 4.8656e-06 -0.68666 -0.72698 -6.8062e-09 0.68666 0.65834 -0.1825 -0.73026 0.61627 -0.14025 -0.77494 0.61628 -0.14027 -0.77494 0.65813 -0.18256 -0.73043 0.71233 -0.19975 -0.67282 0.71228 -0.20008 -0.67278 0.72698 -1.2074e-06 -0.68666 0.72698 0 -0.68666 -0.72698 -6.5168e-07 0.68666 -0.72333 0.011952 0.6904 -0.72688 0.016327 0.68657 -0.72688 0.015915 0.68657 -0.72354 0.010982 0.6902 -0.72594 -0.00041793 0.68776 -0.72605 -5.2874e-05 0.68764 0.72698 -5.0058e-07 -0.68666 0.72698 0 -0.68666 -0.72698 3.665e-07 0.68666 0.72698 -2.3781e-06 -0.68666 0.72698 0 -0.68666 0.66017 0.1781 -0.7297 0.71304 0.19488 -0.6735 0.66037 0.17805 -0.72953 -0.72698 1.4896e-06 0.68666 0.72698 -1.4726e-06 -0.68666 0.72698 0 -0.68666 -0.66104 -0.18223 0.72789 -0.62347 -0.13082 0.77083 -0.62337 -0.13045 0.77097 -0.13396 -0.98078 -0.14183 -0.13396 -0.98079 -0.14182 -0.13396 -0.98078 -0.14183 -0.13396 -0.98079 -0.14182 0.72697 -2.3298e-06 -0.68667 0.72697 5.8276e-06 -0.68667 0.72697 -2.5522e-06 -0.68667 0.58807 -0.081936 -0.80465 0.58784 -0.081744 -0.80484 -0.72699 8.7371e-06 0.68665 -0.72698 9.2824e-06 0.68665 -0.72698 8.8709e-06 0.68665 -0.13396 -0.98079 -0.14182 -0.13396 -0.98078 -0.14183 -0.13396 -0.98079 -0.14182 -0.13396 -0.98078 -0.14183 0.72699 -1.3779e-05 -0.68665 0.72697 6.9317e-06 -0.68667 0.72699 -1.584e-05 -0.68665 -0.71964 0.0054652 0.69433 -0.72697 4.0252e-06 0.68667 -0.72698 1.1619e-05 0.68666 -0.72698 1.1909e-05 0.68665 0.57588 -0.053356 -0.81579 0.57547 -0.053572 -0.81607 -0.13396 -0.98078 -0.14183 -0.13396 -0.98078 -0.14183 -0.13396 -0.98078 -0.14183 -0.13396 -0.98078 -0.14183 0.72697 3.0364e-06 -0.68667 0.72698 -1.0191e-05 -0.68666 0.72697 4.4671e-06 -0.68667 -0.72697 3.1812e-06 0.68667 -0.72697 4.3216e-06 0.68667 -0.72697 4.2452e-06 0.68667 -0.71889 0.006328 0.69509 -0.71396 0.0050054 0.70017 -0.71337 0.0053485 0.70077 -0.13396 -0.98078 -0.14183 -0.13396 -0.98079 -0.14183 -0.13396 -0.98079 -0.14183 -0.13396 -0.98078 -0.14183 0.72697 -5.7293e-06 -0.68667 0.72696 3.5312e-06 -0.68668 0.72697 -6.0671e-06 -0.68667 0.16861 -0.97858 0.11813 0.17322 -0.97717 0.12302 0.17261 -0.97736 0.12238 0.16795 -0.97878 0.11743 -0.72698 8.1387e-06 0.68666 -0.72697 -6.6938e-06 0.68667 -0.72696 -6.4993e-06 0.68667 0.72697 4.4646e-06 -0.68667 0.72698 -7.1146e-06 -0.68666 -0.72699 9.0354e-06 0.68665 -0.72698 8.6483e-06 0.68666 -0.72698 8.2023e-06 0.68666 0.72696 6.216e-06 -0.68667 0.72698 -9.6611e-06 -0.68666 -0.72697 2.7667e-06 0.68667 -0.72698 8.4759e-06 0.68666 -0.72698 7.0626e-06 0.68666 0.72698 -9.6317e-06 -0.68665 0.72697 2.8646e-06 -0.68667 -0.72697 2.6647e-06 0.68667 -0.72697 -4.8303e-06 0.68667 -0.72697 -3.9134e-06 0.68666 0.61933 0.13683 -0.77312 0.61933 0.13685 -0.77311 0.5914 0.079936 -0.8024 0.59185 0.080007 -0.80207 0.72696 3.0317e-06 -0.68668 0.72697 5.1006e-06 -0.68667 -0.72698 -4.3562e-06 0.68666 -0.72698 -3.6403e-06 0.68666 -0.72698 -3.9395e-06 0.68666 0.72698 6.4584e-06 -0.68666 0.72699 -3.5198e-06 -0.68665 0.72699 -4.3663e-06 -0.68665 -0.72699 -4.0218e-06 0.68665 -0.72699 4.8578e-06 0.68665 -0.72699 3.5785e-06 0.68665 0.72698 7.9395e-06 -0.68666 0.72698 4.0346e-06 -0.68666 0.72698 5.5261e-06 -0.68666 -0.72697 -9.2792e-06 0.68667 -0.72698 3.9621e-06 0.68665 -0.72699 4.3769e-06 0.68665 0.72698 1.5462e-06 -0.68666 0.72697 4.1088e-06 -0.68666 0.72697 1.1682e-05 -0.68667 -0.10896 0.97877 -0.17359 -0.10896 0.97877 -0.17359 -0.10896 0.97877 -0.17359 -0.10896 0.97877 -0.17359 0.68519 0.065309 0.72543 0.68519 -0.065309 0.72543 0.68519 0.06531 0.72543 0.6852 0.065309 0.72542 0.63439 0.38268 0.67164 0.63439 0.38268 0.67164 0.6852 -0.065309 0.72542 -0.72698 -4.1372e-06 0.68666 -0.72697 -4.1351e-06 0.68666 -0.72698 -1.5365e-06 0.68666 0.68519 0.06531 0.72543 0.68519 -0.06531 0.72543 0.6852 0.06531 0.72543 0.6852 -0.065309 0.72543 0.6344 0.38268 0.67164 0.6344 0.38268 0.67164 0.6852 0.06531 0.72542 0.6852 -0.06531 0.72542 0.6852 0.06531 0.72542 0.6852 -0.06531 0.72542 0.6344 0.38268 0.67164 0.6344 0.38268 0.67164 -0.84925 -0.040557 0.52644 -0.83733 -0.076164 0.54136 -0.83774 -0.077087 0.54059 0.72697 4.0965e-06 -0.68667 0.72697 4.852e-06 -0.68667 0.72698 3.687e-06 -0.68666 0.48554 0.70711 0.51405 0.48554 0.70711 0.51405 0.48555 0.70711 0.51405 0.48555 0.70711 0.51405 -0.72698 -4.1372e-06 0.68666 -0.72697 -4.6796e-06 0.68667 -0.72697 -5.0659e-06 0.68667 0.48555 0.70711 0.51405 0.48555 0.70711 0.51405 0.6344 0.38268 0.67164 0.63602 0.06559 0.76888 0.6852 0.06531 0.72542 0.6344 0.38268 0.67164 0.48554 0.70711 0.51405 0.48554 0.70711 0.51405 0.26182 0.92445 0.27719 0.84683 0.05406 -0.52911 0.83481 0.079943 -0.54471 0.8345 0.080013 -0.54517 0.26182 0.92445 0.27719 0.72697 5.0764e-06 -0.68667 0.72697 4.1231e-06 -0.68666 0.72698 7.0893e-06 -0.68666 0.26182 0.92445 0.27719 0.26182 0.92445 0.27719 -0.73973 0.0050128 0.67289 -0.73492 0.0063202 0.67812 -0.7342 0.0054561 0.67891 0.26182 0.92445 0.27719 -3.1625e-07 1 -3.5152e-07 0.26182 0.92445 0.27719 -4.3193e-07 1 -4.5729e-07 -0.80509 -0.13079 0.57855 -0.80523 -0.13042 0.57845 -0.84948 -0.040742 0.52605 0.26182 0.92445 0.27719 7.4725e-07 1 4.4149e-07 -0.72699 -3.8477e-06 0.68665 -0.72697 -4.1671e-06 0.68666 -0.72697 -5.1572e-06 0.68667 0.26182 0.92445 0.27719 4.2196e-07 1 4.4673e-07 -0.10833 -0.97858 -0.17507 -0.11234 -0.97736 -0.1793 -0.11295 -0.97717 -0.17994 -0.10767 -0.97877 -0.17438 0.6344 -0.38268 0.67164 0.6852 -0.06531 0.72542 0.6344 -0.38268 0.67164 0.72699 -2.0103e-05 -0.68665 0.72699 -2.032e-05 -0.68665 0.72698 7.9685e-06 -0.68666 0.63439 -0.38268 0.67164 0.84728 -0.053347 -0.52846 0.83703 -0.081742 -0.54102 0.84753 -0.053562 -0.52804 0.68519 -0.06531 0.72543 0.7028 -0.3783 0.60246 0.75068 -0.096984 0.65351 0.6344 -0.38268 0.67164 0.48555 -0.70711 0.51405 0.84737 0.054531 -0.52819 0.80715 0.13684 -0.57427 0.80715 0.13682 -0.57427 0.6344 -0.38268 0.67164 0.48555 -0.70711 0.51405 -0.72697 -1.0771e-05 0.68667 -0.72698 7.6918e-06 0.68666 -0.72698 6.1959e-06 0.68666 0.63439 -0.38268 0.67164 0.48554 -0.70711 0.51405 0.72698 -2.51e-05 -0.68666 0.72698 -2.566e-05 -0.68666 0.63439 -0.38268 0.67164 0.55056 -0.70477 0.44742 -0.72698 2.2738e-05 0.68666 -0.72698 2.2347e-05 0.68666 0.48555 -0.70711 0.51405 0.26182 -0.92445 0.27719 0.26182 -0.92445 0.27719 0.72697 -7.8981e-06 -0.68666 0.72698 -7.8873e-06 -0.68666 0.26182 -0.92445 0.27719 0.26182 -0.92445 0.27719 0.48555 -0.70711 0.51405 -0.71207 -0.20147 0.67258 -0.76438 -0.18223 0.61848 -0.76436 -0.18275 0.61835 -0.71198 -0.20208 0.6725 -0.6609 -0.18275 0.72788 0.26182 -0.92445 0.27719 0.26182 -0.92445 0.27719 0.48554 -0.70711 0.51405 -0.72697 -7.448e-06 0.68667 -0.72697 -7.1457e-06 0.68667 0.48554 -0.70711 0.51405 0.33077 -0.9207 0.20713 -0.74029 0.0053572 0.67227 -0.728 -0.00044411 0.68558 -0.72789 -7.7067e-05 0.6857 8.2153e-07 -1 5.3684e-07 -5.8927e-07 -1 -6.2385e-07 0.72697 5.4084e-06 -0.68667 0.72697 5.1524e-06 -0.68667 -3.6912e-07 -1 -4.0749e-07 -2.0062e-07 -1 -2.124e-07 0.83685 -0.081935 -0.54127 0.80879 -0.14027 -0.57112 -2.4771e-07 -1 -2.7895e-07 1.1905e-06 -1 1.2604e-06 0.76613 0.1781 -0.61751 0.76598 0.17804 -0.61772 0.71299 0.1952 -0.67345 -0.72697 -7.1994e-06 0.68667 -0.72697 -6.8436e-06 0.68667 1.1778e-06 1 1.2469e-06 -0.26182 0.92445 -0.27719 0.72698 -9.45e-06 -0.68666 0.72698 -7.6808e-06 -0.68666 -2.1335e-07 1 -2.2587e-07 -0.26182 0.92445 -0.27719 -0.72697 -6.9742e-06 0.68666 -0.72697 -7.3779e-06 0.68666 -6.0199e-07 1 -6.3733e-07 -0.26182 0.92445 -0.27719 -4.3775e-07 1 -4.6344e-07 -0.26182 0.92445 -0.27719 -0.26182 0.92445 -0.27719 -0.48554 0.70711 -0.51405 -0.72698 0 0.68666 -0.26182 0.92445 -0.27719 -0.48554 0.70711 -0.51405 0.13396 0.98078 0.14183 0.13396 0.98079 0.14183 0.13396 0.98078 0.14183 0.13396 0.98079 0.14183 -0.26182 0.92445 -0.27719 -0.48554 0.70711 -0.51405 -0.26182 0.92445 -0.27719 -0.48555 0.70711 -0.51405 -0.48554 0.70711 -0.51405 -0.63439 0.38268 -0.67164 -0.63439 0.38268 -0.67164 -0.72698 0 0.68666 -0.63439 0.38268 -0.67164 -0.63439 0.38268 -0.67164 -0.48554 0.70711 -0.51405 0.13396 0.98079 0.14182 0.13396 0.98079 0.14183 0.13396 0.98079 0.14183 0.13396 0.98079 0.14182 -0.48554 0.70711 -0.51405 -0.6344 0.38268 -0.67164 -0.6344 0.38268 -0.67164 -0.48555 0.70711 -0.51405 -0.63439 0.38269 -0.67164 -0.63439 0.38269 -0.67164 -0.72698 0 0.68666 -0.6852 0.065311 -0.72542 -0.6852 -0.065311 -0.72542 -0.6852 0.065309 -0.72542 -0.68519 0.06531 -0.72543 -0.68519 -0.06531 -0.72543 0.13396 0.98079 0.14183 0.13396 0.98079 0.14183 0.13396 0.98079 0.14183 0.13396 0.98079 0.14183 -0.6852 0.065309 -0.72542 -0.6852 -0.065309 -0.72542 -0.6852 0.06531 -0.72542 -0.6852 -0.065309 -0.72542 -0.6852 0.06531 -0.72542 -0.6852 -0.06531 -0.72542 -0.6852 0.065308 -0.72542 -0.6852 -0.06531 -0.72542 -0.72698 0 0.68666 -0.73139 0.065588 -0.6788 -0.13396 0.98078 -0.14183 -0.13396 0.98078 -0.14183 -0.13396 0.98078 -0.14183 -0.13396 0.98078 -0.14183 -0.68519 -0.065308 -0.72543 -0.63439 -0.38268 -0.67164 0.13396 0.98079 0.14183 0.13396 0.98078 0.14183 0.13396 0.98079 0.14183 0.13396 0.98078 0.14183 -0.63439 -0.38268 -0.67164 -0.72698 -7.3671e-06 0.68666 -0.72698 -7.921e-06 0.68666 -0.6344 -0.38268 -0.67164 0.72698 8.148e-06 -0.68666 0.72698 7.5577e-06 -0.68666 0.13396 -0.98078 0.14183 0.13396 -0.98079 0.14183 0.13396 -0.98079 0.14183 0.13396 -0.98078 0.14183 -0.63439 -0.38268 -0.67164 -0.48554 -0.70711 -0.51405 -0.72698 6.9845e-06 0.68666 -0.72698 6.5903e-06 0.68666 -0.63439 -0.38268 -0.67164 -0.48554 -0.70711 -0.51405 -0.13396 0.98078 -0.14183 -0.13396 0.98079 -0.14182 -0.13396 0.98079 -0.14182 -0.13396 0.98078 -0.14183 -0.6344 -0.38268 -0.67164 -0.48554 -0.70711 -0.51405 0.72698 7.8003e-06 -0.68666 0.72698 7.0775e-06 -0.68666 -0.63439 -0.38269 -0.67164 -0.6852 -0.065308 -0.72542 -0.63439 -0.38269 -0.67164 -0.48555 -0.70711 -0.51405 0.13396 -0.98079 0.14183 0.13396 -0.98079 0.14183 0.13396 -0.98079 0.14183 0.13396 -0.98079 0.14183 -0.26182 -0.92445 -0.27719 -0.26182 -0.92445 -0.27719 -0.48554 -0.70711 -0.51405 -0.7305 0.011958 0.68281 -0.73031 0.010987 0.68303 -0.48554 -0.70711 -0.51405 -0.26182 -0.92445 -0.27719 -0.26182 -0.92445 -0.27719 -0.72698 -8.7294e-06 0.68666 -0.72698 -8.5946e-06 0.68666 -0.48554 -0.70711 -0.51405 -0.26182 -0.92445 -0.27719 -0.13396 0.98079 -0.14182 -0.13396 0.98079 -0.14183 -0.13396 0.98078 -0.14183 -0.13396 0.98079 -0.14182 -0.48555 -0.70711 -0.51405 -0.26182 -0.92445 -0.27719 0.72697 2.3236e-05 -0.68666 0.72697 2.3097e-05 -0.68666 0.13396 -0.98079 0.14183 0.13396 -0.98079 0.14182 0.13396 -0.98079 0.14182 0.13396 -0.98079 0.14183 0.76659 -0.1825 -0.61565 0.76675 -0.18256 -0.61544 -0.26182 -0.92445 -0.27719 -0.72698 5.0305e-06 0.68666 -0.72698 5.5473e-06 0.68666 2.4591e-07 -1 5.6823e-07 0.26182 -0.92445 0.27719 -0.18795 -0.9207 -0.34204 0.070421 -0.9953 -0.066515 -0.26182 -0.92445 -0.27719 -0.41532 -0.70477 -0.57516 -0.48554 -0.70711 -0.51405 -0.56143 -0.3783 -0.73599 -0.68519 0.065308 -0.72543 -0.60967 -0.096984 -0.7867 -0.63439 -0.38268 -0.67164 -0.63439 0.38268 -0.67164 -0.60967 0.096984 -0.7867 -0.48554 0.70711 -0.51405 -0.56143 0.3783 -0.73599 -0.26182 0.92445 -0.27719 -0.41532 0.70477 -0.57516 -0.18795 0.9207 -0.34204 2.3449e-07 1 5.5613e-07 0.037869 -0.9829 -0.1802 0.081126 -0.98027 -0.18024 0.080664 -0.98044 -0.17955 0.26182 -0.92445 0.27719 0.48554 -0.70711 0.51405 0.26182 -0.92445 0.27719 4.2196e-07 -1 4.4673e-07 -4.3775e-07 -1 -4.6344e-07 0.48554 -0.70711 0.51405 0.6344 -0.38268 0.67164 0.6344 -0.38268 0.67164 0.63602 -0.06559 0.76888 0.72698 -5.3598e-06 -0.68666 0.72698 -4.8656e-06 -0.68666 -0.16911 -0.98149 0.08992 -0.14579 -0.97968 0.13771 -0.09496 -0.98017 0.17391 -0.14707 -0.97932 0.13891 -0.93388 0 0.3576 -0.93388 0 0.3576 -0.72698 0 0.68666 -0.72698 0 0.68666 0.33077 0.9207 0.20713 0.070421 0.9953 -0.066515 0.26182 0.92445 0.27719 0.48554 0.70711 0.51405 0.55056 0.70477 0.44742 0.63439 0.38268 0.67164 0.7028 0.3783 0.60246 0.75068 0.096984 0.65351 -0.41024 0 0.91198 0.036093 0.06266 0.99738 -0.41024 0 0.91198 0.69491 -0.66969 0.26194 0.52269 -0.85241 0.01387 0.27571 -0.92529 -0.26042 0.81011 -0.58513 0.036831 0.85418 -0.3703 0.36505 0.93254 -0.34926 0.091551 0.978 -0.092774 0.18685 0.90713 -0.09723 0.40947 0.90713 0.09723 0.40947 0.87428 -0.44114 -0.20254 0.7008 -0.67621 -0.2272 0.53231 -0.68109 -0.50275 0.65072 -0.44596 -0.61456 0.98592 0.11924 0.11724 0.978 0.092775 0.18685 0.98592 -0.11924 0.11725 -0.16503 -0.78466 0.59755 0.054773 -0.61147 0.78937 -0.028494 -0.5749 0.81773 -0.13396 0.98078 -0.14183 -0.13396 0.98079 -0.14183 -0.13396 0.98079 -0.14183 -0.13396 0.98078 -0.14183 0.13396 -0.98079 0.14183 0.13396 -0.98078 0.14183 0.13396 -0.98078 0.14183 0.13396 -0.98079 0.14183 -0.093981 -0.98048 0.17272 -0.099812 -0.9813 0.16456 -0.099412 -0.98149 0.16372 -0.25982 -0.67211 0.69337 -0.51391 -0.7073 0.48541 -0.40458 -0.83083 0.38215 -0.34425 -0.53197 0.77362 0.15289 -0.31989 0.93504 0.8088 -0.14025 -0.57111 0.050469 -0.37476 0.92575 0.036095 -0.062662 0.99738 0.29742 -0.060232 0.95284 0.29742 0.06023 0.95284 -0.72697 -5.034e-06 0.68667 -0.72697 -5.4962e-06 0.68667 -0.066575 -0.1196 -0.99059 -0.039306 -0.34962 -0.93607 -0.13414 -0.092741 -0.98661 0.25108 -0.44208 -0.86112 0.0091291 -0.58527 -0.81079 0.2667 -0.67642 -0.68654 -0.31578 -0.3703 -0.87359 -0.35711 -0.097229 -0.92899 -0.35711 0.097229 -0.92899 -0.13414 0.092742 -0.98661 -0.22191 -0.66969 -0.70871 0.015939 -0.85241 -0.52263 -0.79198 -0.53198 0.2996 -0.81898 -0.57343 -0.021332 -0.70705 -0.67211 0.21988 -0.60446 -0.55557 0.57094 0.1469 -0.97937 -0.13875 0.036941 -0.98333 -0.17806 0.72697 4.6035e-06 -0.68667 -0.60599 -0.78466 0.13071 -0.78701 -0.60903 -0.098501 -0.57397 -0.04056 0.81787 -0.58747 -0.077078 0.80557 -0.58821 -0.076157 0.80511 -0.92065 -0.37618 -0.10436 -0.92482 -0.32107 -0.20403 -0.9937 -0.062662 -0.092877 -0.93434 -0.060232 -0.35125 0.1671 0.97877 0.11868 0.1671 0.97877 0.11868 0.1671 0.97877 0.11868 0.1671 0.97877 0.11868 0.85418 0.3703 0.36505 0.93254 0.34926 0.091529 0.81011 0.58512 0.036817 0.69491 0.66969 0.26194 0.52269 0.85241 0.01387 0.27571 0.92529 -0.26042 0.87429 0.44113 -0.20256 0.70081 0.67619 -0.22721 0.53232 0.68108 -0.50276 0.72697 3.7992e-06 -0.68667 -0.16504 0.78466 0.59756 -0.0285 0.5749 0.81773 0.054762 0.61146 0.78938 0.5765 0.054068 -0.81531 0.57561 0.05454 -0.81591 0.15288 0.31988 0.93504 0.050463 0.37476 0.92575 0.72698 -8.4304e-06 -0.68666 -0.25982 0.6721 0.69337 -0.34425 0.53198 0.77362 -0.40458 0.83083 0.38215 -0.51391 0.7073 0.48541 -0.60446 0.55557 0.57094 -0.97661 0.035556 -0.21206 -0.97661 0.035556 -0.21206 -0.97661 0.035556 -0.21206 -0.97661 0.035556 -0.21206 -0.099812 0.9813 0.16456 -0.093981 0.98048 0.17272 -0.09496 0.98017 0.17391 0.015939 0.85241 -0.52263 0.26672 0.6764 -0.68655 0.0091436 0.58526 -0.81079 -0.22191 0.66969 -0.70871 -0.31578 0.3703 -0.87359 0.2511 0.44206 -0.86112 0.65072 0.44596 -0.61456 -0.039283 0.34963 -0.93606 -0.066565 0.1196 -0.99059 -0.60599 0.78466 0.13071 -0.81898 0.57343 -0.021326 -0.70706 0.6721 0.21988 0.72698 -8.0424e-06 -0.68666 -0.099412 0.98149 0.16372 -0.79198 0.53198 0.2996 0.036941 0.98333 -0.17806 -0.78701 0.60903 -0.098492 -0.92065 0.37618 -0.10435 -0.72698 9.3087e-06 0.68666 -0.93434 0.06023 -0.35125 -0.9937 0.062661 -0.092876 -0.73139 -0.065588 -0.6788 -0.92482 0.32106 -0.20403 -0.5736 -0.040747 0.81812 -0.26182 -0.92445 -0.27719 0.72698 0 -0.68666 0.72698 0 -0.68666 0.72698 0 -0.68666 0.72698 0 -0.68666 0 -1 0 0 -1 0 0 -1 0 0 -1 0 0 -1 0 0 -1 0 0 1 0 0 1 0 0 1 0 0.72698 0 -0.68666 0.72698 0 -0.68666 0.72698 0 -0.68666 0.72698 0 -0.68666 0 1 0 0 1 0 0 1 0 0.72697 0 -0.68666 0.72697 0 -0.68666 0.72698 0 -0.68666 0.72698 0 -0.68666 0.72698 0 -0.68666 0.24993 -0.95116 -0.1812 0.14034 -0.98424 -0.10758 0.098469 -0.99078 -0.093009 0 -1 0 0 -1 0 0 -1 0 0 -1 0 0 -1 0 0 -1 0 0 -1 0 0 -1 0 0 -1 0 0 -1 0 0 1 0 0 1 0 0 1 0 0 1 0 0 1 0 0 1 0 0.098782 0.99073 -0.093303 0 1 0 0 1 0 0.11568 0.98417 -0.13425 0 1 0 0.19566 0.95093 -0.23967 0.26646 0.93042 -0.25162 0 -1 0 0.11543 -0.98424 -0.13399 0 -1 0 0.26595 -0.9307 -0.25114 0.92312 0.086332 0.37471 0.79161 0.11399 0.6003 0.73979 0.34443 0.578 0.92311 -0.086282 0.37473 0.89113 0 0.45374 0.79153 -0.11398 0.6004 0.89113 0 0.45374 -0.31683 0.086932 -0.94449 -0.53182 0.34689 -0.77255 -0.5522 0.1148 -0.82577 -0.31685 -0.086884 -0.94449 -0.5523 -0.11479 -0.82571 -0.53204 -0.34686 -0.77241 0.14062 0.98418 -0.10782 0.25045 0.95094 -0.18162 0 1 0 0 1 0 0 1 0 0 1 0 0 1 0 0 1 0 0 1 0 0.09871 0.99074 -0.093237 0 -1 0 0 -1 0 0 -1 0 0.098542 -0.99077 -0.093076 0 -1 0 0.19521 -0.95115 -0.23918 0.72698 0 -0.68666 0.72698 0 -0.68666 0.72698 0 -0.68666 -0.39896 0 -0.91697 0 1 0 0 1 0 0 1 0 0 1 0 0 1 0 0.63113 0 -0.77568 0.63113 0 -0.77568 0 1 0 0 1 0 0 1 0 0 1 0 0 1 0 0 1 0 0 1 0 0 1 0 0.81039 0 -0.58589 0.81039 0 -0.58589 0 1 0 0.97291 0 -0.23117 0.97291 0 -0.23117 0 -1 0 0 -1 0 0 -1 0 0 -1 0 0 -1 0 0 -1 0 0.95816 0 0.28624 0.95816 0 0.28624 0 -1 0 0 -1 0 0 -1 0 0 -1 0 0.28624 0 -0.95816 0.28624 0 -0.95816 0 -1 0 0 -1 0 -0.23118 0 -0.97291 -0.23118 0 -0.97291 0 -1 0 0 -1 0 -0.5859 0 -0.81039 -0.5859 0 -0.81039 -0.5859 0 -0.81039 -0.5859 0 -0.81039 -0.23118 0 -0.97291 -0.23118 0 -0.97291 0.28624 0 -0.95816 0.28624 0 -0.95816 0.77568 0 0.63113 0.77568 0 0.63113 0.95816 0 0.28624 0.95816 0 0.28624 0.97291 0 -0.23118 0.97291 0 -0.23118 0.81039 0 -0.58589 0.81039 0 -0.58589 0.73964 -0.3444 0.57821 0.77568 0 0.63113 0.77568 0 0.63113 0.63113 0 -0.77568 0.63113 0 -0.77568 -0.39895 -1.6436e-07 -0.91697 -0.075665 -0.075665 0.99426 -0.12436 -0.0088669 0.9922 -0.056212 -0.056212 0.99684 -0.0088669 -0.12436 0.9922 -0.033379 -0.12986 0.99097 0.0088669 -0.12436 0.9922 0.033379 -0.12986 0.99097 0.075665 -0.075665 0.99426 0.056212 -0.056212 0.99684 0.12436 -0.0088669 0.9922 0.12986 -0.033379 0.99097 0.12986 0.033379 0.99097 0.12436 0.0088669 0.9922 0.056212 0.056212 0.99684 0.075665 0.075665 0.99426 0.0088669 0.12436 0.9922 0.033379 0.12986 0.99097 -0.0088669 0.12436 0.9922 -0.033379 0.12986 0.99097 -0.056212 0.056212 0.99684 -0.075665 0.075665 0.99426 -0.12436 0.0088669 0.9922 -0.12986 0.033379 0.99097 -0.12986 -0.033379 0.99097 -1.7553e-14 -6.5656e-14 -1 -3.6595e-14 -1.7512e-14 -1 -8.3209e-14 0 -1 1.9794e-15 0 -1 -3.2733e-14 2.0571e-14 -1 1.9794e-15 0 -1 -6.6518e-16 -2.4823e-14 -1 3.0725e-14 0 -1 3.0725e-14 0 -1 9.3732e-16 5.7597e-15 -1 -8.6236e-14 1.4858e-13 -1 6.2346e-14 0 -1 -0.83688 0 0.54739 -0.83688 2.0974e-09 0.54739 -1.0835e-15 -0.83688 0.54739 8.1777e-10 -0.83688 0.54739 -1.9506e-10 -0.83688 0.54739 2.0888e-09 -0.83688 0.54739 5.2014e-10 -0.83688 0.54739 3.0142e-10 -0.83688 0.54739 2.7649e-11 -0.83688 0.54739 -3.4128e-14 -0.83688 0.54739 0.83688 -2.2274e-10 0.54739 0.83688 -2.4252e-09 0.54739 0.83688 -2.0974e-09 0.54739 0.83688 0 0.54739 0.83688 4.1947e-09 0.54739 0.83688 4.8503e-09 0.54739 0.83688 4.4549e-10 0.54739 0.83688 0 0.54739 2.7666e-11 0.83688 0.54739 9.3133e-10 0.83688 0.54739 1.1013e-09 0.83688 0.54739 -1.6819e-14 0.83688 0.54739 3.1621e-10 0.83688 0.54739 3.0139e-10 0.83688 0.54739 2.7725e-11 0.83688 0.54739 4.5548e-14 0.83688 0.54739 -0.83688 0 0.54739 -0.83688 0 0.54739 -0.83688 0 0.54739 0 -1 0 -7.6098e-10 -0.99985 -0.017409 0 -1 0 0 -1 0 -7.6098e-10 -0.99985 -0.017409 0 -1 0 0 -1 0 0 -1 0 -1.4252e-09 -0.99947 -0.032605 -1.4252e-09 -0.99947 -0.032605 0.86602 0 0.5 0.99531 0 0.09671 0.99531 0 0.09671 0.86602 0 0.5 0.5 0 0.86602 0.5 0 0.86602 0.13053 0 0.99144 0.13053 -4.9439e-16 0.99144 -0.86602 -1.4952e-08 0.5 -0.5 -1.6563e-08 0.86602 -0.86602 -6.2921e-08 0.5 -0.5 0 0.86602 0 1 0 -7.6077e-10 0.99985 -0.017404 0 1 0 0 1 0 -7.6077e-10 0.99985 -0.017404 0 1 0 -1.4248e-09 0.99947 -0.032596 -1.4248e-09 0.99947 -0.032596 0 1 0 0 1 0 -0.99531 -2.7411e-08 0.09671 -0.99744 0 -0.071538 -0.99531 0 0.09671 -0.99744 0 -0.071538 -0.13053 1.1269e-09 0.99144 -0.13053 4.742e-09 0.99144 0.99744 0 -0.071538 0.99744 0 -0.071538 -0.96593 -0.25882 2.6572e-11 -0.70711 -0.70711 -1.2109e-08 -0.70711 -0.70711 -1.1471e-08 -0.96593 -0.25882 -4.4943e-11 -0.96593 0.25882 1.1517e-08 -0.96593 0.25882 1.166e-08 -0.25882 -0.96593 -2.0471e-08 0.25882 0.96593 1.8966e-08 0.70711 0.70711 1.1612e-08 0.70711 0.70711 1.1078e-08 0.25882 0.96593 2.0039e-08 -0.25882 0.96593 2.2987e-08 -0.25882 0.96593 2.3812e-08 0.96593 -0.25882 -1.0407e-08 0.96593 -0.25882 -1.0445e-08 0.96593 0.25882 1.117e-09 0.70711 -0.70711 -1.8783e-08 -0.25882 -0.96593 -1.9894e-08 0.25882 -0.96593 -2.306e-08 -0.70711 0.70711 2.0633e-08 -0.70711 0.70711 2.0171e-08 0.96593 0.25882 5.117e-10 0.25882 -0.96593 -2.1773e-08 0.70711 -0.70711 -1.8887e-08 -0.63094 -0.16906 0.75719 -0.63094 -0.16906 0.75719 -0.46188 -0.46188 0.75719 -0.63094 0.16906 0.75718 -0.63094 0.16906 0.75718 -0.46188 0.46188 0.75718 -0.46188 -0.46188 0.75719 -0.16906 -0.63094 0.75719 0.16906 0.63095 0.75718 0.46188 0.46188 0.75718 0.46188 0.46188 0.75718 0.16906 0.63095 0.75718 -0.16906 0.63095 0.75718 -0.16906 0.63095 0.75718 0.63094 -0.16906 0.75719 0.46188 -0.46188 0.75719 0.46188 -0.46188 0.75719 0.63094 -0.16906 0.75719 0.63094 0.16906 0.75719 0.63094 0.16906 0.75719 -0.16906 -0.63094 0.75719 0.16906 -0.63094 0.75719 -0.46188 0.46188 0.75718 0.16906 -0.63094 0.75719 0.99999 0 -0.0048338 0.99999 0 -0.0048338 0.99999 0 -0.0048338 0.99999 0 -0.0048338 0.99999 0 -0.0045228 0.99999 0 -0.0045228 0.99999 0 -0.0045228 0.99999 0 -0.0045228 -0.79439 -0.011916 0.6073 -0.79095 -0.0068465 0.61185 -0.7907 -0.0053827 0.61218 -0.79452 -0.011902 0.60713 -0.79095 0.0068464 0.61185 -0.7907 0.0053826 0.61218 0.0068465 0.79095 0.61184 0.011917 0.79439 0.60729 0.0053826 0.79071 0.61217 0.011902 0.79452 0.60713 -0.0068465 0.79095 0.61184 -0.011917 0.79439 0.60729 -0.011902 0.79452 0.60713 -0.0053827 0.79071 0.61217 0.79439 -0.011917 0.6073 0.79095 -0.0068466 0.61185 0.79452 -0.011902 0.60713 0.7907 -0.0053827 0.61217 0.79095 0.0068466 0.61185 0.7907 0.0053827 0.61217 0.79439 0.011917 0.6073 0.79452 0.011902 0.60713 -0.011916 -0.79439 0.6073 -0.0053826 -0.7907 0.61218 -0.0068465 -0.79095 0.61185 0.0053826 -0.7907 0.61218 0.0068465 -0.79095 0.61185 -0.011902 -0.79452 0.60713 0.011916 -0.79439 0.6073 0.011902 -0.79452 0.60713 0.67399 0.19123 0.71356 0.63491 0.38087 0.67218 0.63491 0.38087 0.67218 0.67399 0.19124 0.71356 0.63491 0.38087 0.67219 0.6349 0.38087 0.67219 0.67399 0.19123 0.71356 0.63491 0.38086 0.67218 0.63491 0.38086 0.67218 0.67399 0.19123 0.71356 0.63491 0.38087 0.67218 0.63491 0.38087 0.67218 0.67399 0.19123 0.71356 0.48554 0.70711 0.51405 0.48555 0.70711 0.51405 0.67399 0.19123 0.71356 0.48554 0.70711 0.51405 0.48554 0.7071 0.51405 0.67399 0.19123 0.71356 0.48554 0.70711 0.51405 0.48554 0.70711 0.51405 0.67399 0.19123 0.71356 0.48554 0.70711 0.51405 0.48554 0.70711 0.51405 0.26206 0.92431 0.27744 0.26206 0.92431 0.27744 0.26206 0.92431 0.27744 0.26206 0.92431 0.27745 0.26206 0.92431 0.27744 3.2913e-07 1 6.6855e-07 0.26206 0.92431 0.27744 1.5973e-08 1 -2.675e-07 0.26206 0.92431 0.27744 -8.1249e-08 1 -3.8827e-07 0.26206 0.92431 0.27744 -9.4618e-07 1 -7.3516e-07 0.67399 -0.19123 0.71356 0.63491 -0.38086 0.67218 0.67399 -0.19123 0.71356 0.67399 -0.19123 0.71356 0.63491 -0.38086 0.67218 0.67399 -0.19123 0.71356 0.67399 -0.19124 0.71356 0.63491 -0.38087 0.67219 0.67399 -0.19123 0.71356 0.67399 -0.19123 0.71356 0.63491 -0.38087 0.67218 0.67399 -0.19123 0.71356 0.63491 -0.38087 0.67218 0.48554 -0.70711 0.51405 0.63491 -0.38086 0.67218 0.48554 -0.70711 0.51405 0.6349 -0.38087 0.67219 0.48554 -0.70711 0.51405 0.63491 -0.38087 0.67218 0.48554 -0.70711 0.51405 0.48554 -0.70711 0.51405 0.26206 -0.92431 0.27745 0.48554 -0.70711 0.51405 0.26206 -0.92431 0.27744 0.48554 -0.7071 0.51405 0.26206 -0.92431 0.27744 0.26206 -0.92431 0.27744 0.48555 -0.70711 0.51405 0.26206 -0.92431 0.27744 0.26206 -0.92431 0.27744 0.26206 -0.92431 0.27744 -9.4618e-07 -1 -7.3516e-07 4.6584e-07 -1 4.9319e-07 0.26206 -0.92431 0.27744 -8.1249e-08 -1 -3.8827e-07 -4.0916e-07 -1 -4.3318e-07 5.2178e-08 -1 -2.6486e-07 -1.0596e-08 -1 -1.1218e-08 3.4724e-07 -1 6.6988e-07 5.5931e-07 -1 5.9215e-07 5.547e-07 1 5.8727e-07 -0.26206 0.92431 -0.27744 -1.9806e-08 1 -2.0969e-08 -0.26206 0.92431 -0.27744 -4.0916e-07 1 -4.3318e-07 -0.26206 0.92431 -0.27744 4.6584e-07 1 4.9319e-07 -0.26206 0.92431 -0.27744 -0.26206 0.92431 -0.27744 -0.48555 0.70711 -0.51405 -0.26206 0.92431 -0.27744 -0.48555 0.70711 -0.51405 -0.26206 0.92431 -0.27744 -0.48554 0.70711 -0.51405 -0.26206 0.92431 -0.27744 -0.48554 0.70711 -0.51405 -0.48555 0.70711 -0.51405 -0.63491 0.38087 -0.67218 -0.63491 0.38087 -0.67218 -0.48555 0.70711 -0.51405 -0.63491 0.38087 -0.67218 -0.63491 0.38087 -0.67218 -0.63491 0.38087 -0.67218 -0.63491 0.38087 -0.67218 -0.48554 0.70711 -0.51405 -0.48554 0.70711 -0.51405 -0.63491 0.38087 -0.67219 -0.63491 0.38087 -0.67219 -0.67399 0.19123 -0.71356 -0.67399 0.19123 -0.71356 -0.67399 0.19123 -0.71356 -0.67399 0.19123 -0.71356 -0.67399 0.19123 -0.71356 -0.67399 0.19123 -0.71356 -0.67399 0.19123 -0.71356 -0.67399 0.19123 -0.71356 -0.67399 -0.19123 -0.71356 -0.63491 -0.38087 -0.67218 -0.67399 -0.19123 -0.71356 -0.67399 -0.19123 -0.71356 -0.63491 -0.38087 -0.67218 -0.67399 -0.19123 -0.71356 -0.67399 -0.19123 -0.71356 -0.63491 -0.38087 -0.67218 -0.67399 -0.19123 -0.71356 -0.67399 -0.19123 -0.71356 -0.63491 -0.38087 -0.67219 -0.67399 -0.19123 -0.71356 -0.63491 -0.38087 -0.67218 -0.48555 -0.70711 -0.51405 -0.63491 -0.38087 -0.67218 -0.48555 -0.70711 -0.51405 -0.63491 -0.38087 -0.67218 -0.48554 -0.70711 -0.51405 -0.63491 -0.38087 -0.67219 -0.48554 -0.70711 -0.51405 -0.48555 -0.70711 -0.51405 -0.26206 -0.92431 -0.27744 -0.48555 -0.70711 -0.51405 -0.26206 -0.92431 -0.27744 -0.26206 -0.92431 -0.27744 -0.26206 -0.92431 -0.27744 -0.26206 -0.92431 -0.27744 -0.48554 -0.70711 -0.51405 -0.26206 -0.92431 -0.27744 -0.26206 -0.92431 -0.27744 -0.48554 -0.70711 -0.51405 -0.26206 -0.92431 -0.27744 0.12143 -0.89198 0.43547 0.10462 -0.90649 0.40906 0.33771 -0.69361 0.63629 0.33769 -0.6937 0.63619 -0.15837 -0.97598 0.14959 -0.14599 -0.97963 0.1379 0.45997 -0.39923 0.79312 0.47279 -0.36827 0.80053 0.50073 -0.20275 0.84152 0.51606 -0.18766 0.83574 -0.40243 -0.90649 -0.12776 -0.61601 -0.69361 -0.37342 -0.61591 -0.6937 -0.3734 -0.42784 -0.89198 -0.14605 -0.76562 -0.39923 -0.50442 -0.77228 -0.36827 -0.51764 -0.81162 -0.20275 -0.54788 -0.80498 -0.18766 -0.56284 0.11077 0.90786 0.40438 0.34344 0.69456 0.63216 0.34343 0.69465 0.63207 -0.15292 0.97762 0.14444 0.1271 0.89364 0.43041 0.46664 0.39941 0.78913 0.47931 0.36907 0.79627 0.50708 0.20338 0.83756 0.52217 0.18795 0.83187 -0.39741 0.90786 -0.13364 -0.61156 0.69456 -0.37891 -0.42247 0.89364 -0.15142 -0.14068 0.9811 0.13288 -0.61147 0.69465 -0.37889 -0.76125 0.39941 -0.51086 -0.76766 0.36907 -0.52391 -0.8073 0.20338 -0.55398 -0.80076 0.18795 -0.56873 -0.79451 0.011902 0.60713 -0.79439 0.011916 0.6073 0.0048468 0 0.99999 0.0048468 0 0.99999 0.0048468 0 0.99999 0.0048468 0 0.99999 2.2535e-05 -0.99999 0.0049768 2.2406e-05 -0.99999 0.0049768 2.2542e-05 -0.99999 0.0049768 2.2399e-05 -0.99999 0.0049768 2.5766e-05 0.99999 0.005316 2.5766e-05 0.99999 0.005316 2.5766e-05 0.99999 0.005316 2.5766e-05 0.99999 0.005316 -0.0045006 0 -0.99999 -0.0045006 0 -0.99999 -0.0045006 0 -0.99999 -0.0045006 0 -0.99999 2.578e-05 -0.99999 0.0053188 2.578e-05 -0.99999 0.0053188 2.578e-05 -0.99999 0.0053188 2.578e-05 -0.99999 0.0053188 -0.0048468 0 -0.99999 -0.0048468 0 -0.99999 -0.0048468 0 -0.99999 -0.0048468 0 -0.99999 0.99999 -2.14e-09 -0.0048338 0.99999 1.0261e-09 -0.0048338 0.99999 2.14e-09 -0.0048338 0.99999 -1.0261e-09 -0.0048338 0.99999 8.711e-10 -0.0048338 0.99999 1.2123e-08 -0.0046778 0.99999 -8.711e-10 -0.0048338 0.99999 -1.2123e-08 -0.0046778 0.99999 -9.9487e-09 -0.0045228 0.99999 9.9487e-09 -0.0045228 0.99999 8.7249e-08 -0.0045229 0.99999 9.8233e-08 -0.0045229 0.99999 -8.725e-08 -0.0045229 0.99999 -9.8233e-08 -0.0045229 0.54271 0.83989 -0.0068145 0.53924 0.84212 -0.007387 0.53894 0.84231 -0.0074687 2.2394e-05 0.99999 0.004974 2.2522e-05 0.99999 0.004974 2.253e-05 0.99999 0.004974 2.2386e-05 0.99999 0.004974 0.48299 -0.8756 -0.0064342 0.24864 -0.96857 -0.0063015 0.1759 -0.98439 -0.0056545 -4.3688e-06 -0.99999 -0.0051378 1.1432e-07 -0.99999 -0.0051393 4.3928e-07 -0.99999 -0.0051391 0.00028261 -0.99999 -0.0049973 8.5355e-09 -0.99999 -0.0051394 0.25008 -0.96821 -0.0061427 -2.2465e-10 -0.99999 -0.0051394 0.00038635 -0.99999 -0.0052891 -0.70545 2.6548e-09 -0.70876 -0.70545 1.7017e-08 -0.70876 -0.70545 0 -0.70876 -0.70545 1.9684e-08 -0.70876 4.3711e-08 -2.1017e-15 1 4.3711e-08 -1.2646e-15 1 4.3711e-08 -2.2145e-15 1 4.3711e-08 1.1868e-15 1 7.3225e-09 0.99999 -0.0051422 0.0012568 0.99998 -0.0059819 0.0026234 0.99998 -0.0061571 -2.2477e-10 0.99999 -0.0051422 0.005527 0.99997 -0.0059372 0.0073373 0.99995 -0.0071198 0.0063711 0.99996 -0.0064375 1.0299e-07 0.99999 -0.0051421 0.0035516 0.99997 -0.0063987 6.995e-07 0.99999 -0.0051418 0.70325 -0.002698 -0.71094 0.69852 0 -0.71559 0.70041 -0.0010718 -0.71374 0.70438 -0.003347 -0.70981 0.48114 -0.87661 -0.0070404 0.4835 -0.87532 -0.0065408 0.0045294 0 0.99999 0.0045294 0 0.99999 0.0045294 0 0.99999 0.0045294 0 0.99999 -0.99999 1.8381e-09 -0.0046731 -0.99999 8.1554e-09 -0.0046731 -0.99999 6.3053e-09 -0.0046731 -0.99999 0 -0.0046731 -1 6.301e-08 1.7866e-08 -1 6.0917e-08 1.6247e-08 -1 5.5464e-08 1.2028e-08 -1 6.8414e-08 2.2047e-08 -0.65942 1.0504e-08 0.75178 -0.65942 2.6115e-08 0.75178 -0.65942 0 0.75178 -0.65942 3.6574e-08 0.75178 -0.68814 9.0416e-07 -0.72558 -0.68814 4.1081e-07 -0.72558 -0.68814 1.2663e-06 -0.72558 -0.68814 4.7078e-08 -0.72558 4.3711e-08 3.1059e-16 1 4.3711e-08 -2.1501e-16 1 4.3711e-08 -3.2367e-16 1 4.3711e-08 2.037e-15 1 4.3711e-08 2.072e-16 1 4.3711e-08 2.0193e-15 1 -0.99999 0 -0.0046732 -0.99999 0 -0.0046732 -0.99999 0 -0.0046732 -0.99999 0 -0.0046732 -4.3711e-08 5.1203e-16 -1 -4.3711e-08 9.3601e-17 -1 -4.3711e-08 1.2196e-15 -1 -4.3711e-08 -6.205e-16 -1 0.54336 0.83948 -0.0066355 0.53926 0.84211 -0.0069834 0.5393 0.84208 -0.0069712</float_array><technique_common><accessor source="#g-n-a" count="1513" stride="3"><param name="X" type="float"/><param name="Y" type="float"/><param name="Z" type="float"/></accessor></technique_common></source>
<vertices id="g-v"><input semantic="POSITION" source="#g-p"/><input semantic="NORMAL" source="#g-n"/></vertices>
<triangles material="m0" count="1074"><input semantic="VERTEX" source="#g-v" offset="0"/><p>0 1 2 2 3 4 2 4 0 5 6 7 5 8 9 10 11 12 13 14 15 16 17 18 19 20 16 19 16 13 21 22 23 23 24 25 23 25 21 26 27 28 26 29 30 8 18 17 9 31 5 17 9 8 17 16 20 4 32 33 32 34 33 32 35 34 32 4 3 36 37 38 39 40 41 42 43 39 42 39 36 38 42 36 38 22 44 22 38 37 22 21 44 29 26 45 46 30 29 46 29 47 35 6 34 6 5 31 6 35 7 15 1 48 15 19 13 1 0 48 1 15 14 25 49 50 49 25 24 49 47 50 49 46 47 27 41 40 28 45 26 40 39 43 40 28 27 11 10 51 51 52 11 53 54 55 54 11 52 52 55 54 56 57 58 57 56 59 59 60 57 61 60 62 60 59 62 63 60 61 64 65 66 65 64 67 65 68 69 68 65 67 69 70 71 70 69 68 72 73 74 73 72 75 73 76 77 78 77 79 76 73 75 76 79 77 80 81 82 83 84 85 86 87 88 87 86 89 90 91 92 93 94 95 96 97 98 96 99 97 100 101 102 84 103 104 85 105 83 106 107 108 108 109 110 108 111 106 112 113 114 113 112 115 91 90 116 91 117 92 118 119 120 119 118 121 121 122 119 123 124 125 124 123 126 122 121 127 122 125 124 125 122 127 128 129 130 129 128 131 130 132 133 134 135 136 135 134 137 132 137 133 132 130 129 137 132 135 138 139 140 141 142 143 144 145 146 147 148 149 150 151 152 153 154 155 156 157 158 159 160 161 162 163 164 165 166 167 168 169 170 148 147 171 171 172 148 173 174 175 151 150 176 152 177 178 179 180 181 154 153 182 182 183 154 184 185 186 157 156 187 158 188 189 190 191 192 160 159 193 193 194 160 195 196 197 163 162 198 164 199 200 201 202 203 166 165 204 204 205 166 206 207 208 169 168 209 170 210 211 212 213 214 215 216 217 172 171 215 174 218 219 175 220 173 177 152 151 178 221 222 180 179 223 181 224 225 226 227 228 183 182 226 185 229 230 186 231 184 188 158 157 189 232 233 191 190 234 192 235 236 237 238 239 194 193 237 196 240 241 197 242 195 199 164 163 200 243 244 202 201 245 203 246 247 248 249 250 205 204 248 207 251 252 208 253 206 210 170 169 211 254 255 213 212 256 214 257 258 216 259 260 217 172 215 219 175 174 218 261 219 218 262 261 221 178 177 222 263 264 224 181 180 225 265 266 227 267 268 228 183 226 230 186 185 229 269 230 229 270 269 232 189 188 233 271 272 235 192 191 236 273 274 238 275 276 239 194 237 241 197 196 240 277 241 240 278 277 243 200 199 244 279 280 246 203 202 247 281 282 249 283 284 250 205 248 252 208 207 251 285 252 251 286 285 254 211 210 255 287 288 257 214 213 258 289 290 262 291 261 292 293 294 295 296 297 265 225 224 266 298 299 270 300 269 301 302 303 304 305 306 273 236 235 274 307 308 278 309 277 281 247 246 282 310 311 312 313 314 286 315 285 289 258 257 290 316 317 318 319 320 321 322 323 322 321 324 325 326 327 293 292 295 294 328 329 330 331 332 333 334 335 334 333 336 337 338 339 306 301 304 305 340 306 341 342 343 328 294 293 344 329 328 329 344 345 346 347 348 347 346 349 350 351 352 353 354 355 340 305 356 357 356 358 356 357 340 359 360 361 360 359 362 363 364 365 366 367 368 368 369 366 370 371 372 326 325 373 373 374 326 331 330 375 332 376 377 338 337 378 378 379 338 342 341 380 343 381 382 351 350 383 383 384 351 354 353 385 355 386 387 388 314 389 388 312 314 389 390 391 364 363 392 392 393 364 394 395 396 397 398 399 400 401 402 403 404 405 406 407 408 145 409 410 146 411 144 412 413 414 413 412 415 416 417 418 419 420 421 419 422 416 142 141 423 143 424 425 426 427 419 428 429 426 428 430 431 432 433 428 434 435 432 434 436 437 438 439 440 139 441 442 140 443 138 420 419 416 421 444 445 430 428 426 431 446 447 395 394 448 396 449 450 436 434 432 437 451 452 453 454 455 456 457 458 444 459 445 444 421 420 460 461 462 446 463 447 446 431 430 398 464 465 399 466 397 451 437 436 451 467 452 457 456 453 458 457 468 469 470 471 459 444 472 472 473 459 463 446 474 474 475 463 439 476 477 440 478 438 467 451 479 479 480 467 401 400 481 402 482 483 484 458 468 468 485 484 486 487 488 487 486 489 433 432 435 435 490 433 435 434 491 427 426 429 429 428 433 429 492 427 404 493 494 405 495 403 417 416 422 422 419 427 422 496 417 497 498 499 500 418 417 500 501 502 490 435 503 503 504 490 461 460 505 462 506 507 492 429 508 508 509 492 407 406 510 408 511 512 496 422 513 513 514 496 410 146 145 409 515 516 409 516 410 517 518 501 424 143 142 425 519 520 504 503 521 504 522 523 442 140 139 441 524 442 441 525 524 509 526 527 509 508 528 529 530 531 529 318 532 529 533 318 514 534 535 514 513 536 449 396 395 450 537 538 539 540 518 470 469 541 471 542 543 522 504 521 523 544 545 465 399 398 464 546 465 464 547 546 526 509 528 527 548 549 498 497 550 550 551 498 534 514 536 535 552 553 313 554 555 313 312 556 482 402 401 483 557 558 473 559 560 473 472 559 494 405 404 493 561 494 493 562 561 475 563 564 475 474 563 511 408 407 512 565 566 480 567 568 480 479 567 515 316 516 316 515 317 316 290 289 485 569 570 485 468 569 477 440 439 530 529 532 476 531 530 476 530 477 571 473 560 560 572 571 519 425 424 520 315 573 315 520 519 315 286 573 574 475 564 564 575 574 576 577 578 577 576 579 580 480 568 580 568 581 554 313 556 506 462 461 507 555 554 555 507 506 582 485 570 582 570 583 525 310 524 310 282 281 310 525 311 572 560 584 572 585 586 537 450 449 538 309 587 309 278 587 309 538 537 575 588 589 575 564 590 591 592 593 592 591 594 595 580 581 595 596 597 547 307 546 307 274 273 307 547 308 598 582 583 598 599 600 557 483 482 558 300 601 300 270 601 300 558 557 602 603 604 585 572 584 586 605 602 605 606 602 605 586 585 607 608 609 608 607 610 611 612 613 588 575 590 589 604 611 604 589 588 604 614 611 562 298 561 298 266 265 298 562 299 615 616 617 596 595 581 597 613 615 613 597 596 613 618 615 565 512 511 566 291 619 291 566 565 291 262 619 599 598 583 600 617 620 621 622 623 623 624 621 603 602 606 606 605 625 606 626 603 627 628 629 628 627 630 612 611 614 614 631 612 614 604 603 260 632 633 260 217 216 616 615 618 618 613 612 618 634 616 263 635 636 263 222 221 637 638 639 638 637 640 626 606 641 641 642 626 268 643 644 268 228 227 631 614 645 645 646 631 647 648 649 648 647 650 634 618 651 651 652 634 271 653 654 271 233 232 655 656 657 657 658 655 659 660 661 659 661 662 642 663 664 642 641 665 665 663 642 303 304 301 303 666 667 646 645 668 646 669 670 668 669 646 276 671 672 276 239 238 652 651 673 673 674 652 675 676 677 676 675 678 658 657 679 679 680 658 279 681 682 279 244 243 552 663 553 552 535 534 663 552 664 683 684 685 683 685 686 548 669 549 548 527 526 669 548 670 296 687 688 296 295 292 674 673 689 544 689 545 544 523 522 689 544 674 284 690 691 284 250 249 692 540 693 692 694 695 696 697 694 698 699 697 625 700 701 702 701 699 700 625 605 703 704 700 705 706 703 705 707 708 707 709 708 707 710 709 542 471 470 666 303 302 667 543 542 543 667 666 711 712 713 714 715 716 714 717 718 715 714 719 719 720 715 720 719 721 721 722 720 287 723 724 287 255 254 94 93 725 726 727 728 726 95 94 95 726 728 729 730 731 729 731 732 710 733 734 710 734 709 735 736 733 736 737 733 738 737 736 418 739 738 418 500 740 741 742 743 741 732 731 741 743 732 540 744 518 540 745 744 540 746 745 540 539 693 540 692 695 744 745 747 518 748 501 518 517 539 748 747 749 748 750 751 748 518 744 502 740 500 502 752 740 751 501 748 501 751 502 501 500 517 747 753 749 747 748 744 754 747 745 753 747 754 753 755 756 750 748 749 750 757 758 759 749 753 749 759 750 760 761 762 763 764 765 765 766 763 767 768 769 768 767 770 727 726 771 772 727 771 771 773 772 774 760 762 774 775 776 777 775 774 777 774 762 761 778 762 688 297 296 551 550 779 687 779 688 779 687 551 780 777 762 781 778 782 781 783 742 778 780 762 778 781 780 632 260 259 633 784 785 786 787 788 789 790 787 789 787 786 789 755 791 788 792 793 788 794 795 792 697 699 792 788 787 792 790 796 701 702 625 699 793 792 699 698 702 793 699 701 793 701 794 790 792 787 790 789 791 790 797 796 755 754 746 755 789 756 755 753 754 791 746 797 697 696 698 697 792 796 796 694 697 797 790 791 746 791 755 746 694 797 746 540 695 746 754 745 694 796 797 694 746 695 694 692 696 798 799 800 798 775 801 713 117 802 713 803 711 117 91 802 117 713 712 636 264 263 804 636 635 393 392 804 635 393 804 775 798 800 775 777 801 805 800 799 805 799 806 800 776 775 776 800 805 776 760 774 807 808 809 799 798 810 806 810 811 810 806 799 812 811 810 811 812 813 386 355 354 643 268 267 644 387 386 387 644 643 814 815 816 815 814 817 818 737 739 818 758 819 818 819 820 752 739 740 752 502 751 752 750 758 752 751 750 739 418 740 739 752 818 821 818 820 737 738 739 737 821 733 737 818 821 822 821 820 733 710 735 733 821 822 733 823 734 820 819 824 757 750 759 758 818 752 819 757 824 819 758 757 825 822 820 824 825 820 824 826 825 654 272 271 827 654 653 384 383 827 653 384 827 828 829 830 391 388 389 831 391 390 390 832 831 783 781 782 742 741 781 742 833 834 833 742 783 833 829 834 381 343 342 671 276 275 672 382 381 382 672 671 682 280 279 835 682 681 379 378 835 681 379 835 829 828 836 829 833 830 829 837 834 836 838 839 837 829 836 837 839 840 841 842 843 841 843 844 845 846 847 848 849 850 848 823 849 823 733 822 823 822 825 823 826 849 823 709 734 709 848 851 709 823 848 851 708 709 708 852 706 704 701 700 704 703 706 852 851 850 852 795 794 852 708 851 706 705 708 706 794 704 794 788 793 794 701 704 794 706 852 850 851 848 849 853 850 826 824 854 826 823 825 826 853 849 795 852 855 855 852 850 856 786 788 856 788 795 856 795 855 853 856 855 853 826 854 853 855 850 857 858 859 838 859 839 838 836 828 376 332 331 690 284 283 691 377 376 377 691 690 724 288 287 860 724 723 374 373 860 723 374 860 846 845 861 104 847 846 104 85 84 847 104 103 859 838 857 839 862 840 839 837 836 862 859 858 862 839 859 101 100 863 109 108 107 109 102 101 109 101 110 858 857 864 864 865 858 784 633 632 371 370 866 372 785 784 785 372 371 867 812 868 867 869 813 867 813 812 865 862 858 865 864 870 868 812 730 868 730 729 868 870 867 870 868 865 319 318 533 808 807 871 809 320 319 320 809 808 491 455 722 455 491 434 722 454 783 722 721 491 722 783 782 454 722 455 454 453 456 680 679 872 717 872 718 717 714 716 872 717 680 617 656 620 617 600 599 656 617 616 656 655 869 869 620 656 869 867 620 873 874 875 873 875 876 877 878 879 880 881 882 883 884 885 886 887 888 886 888 889 890 891 892 893 894 895 895 896 897 896 895 894 898 899 900 901 902 903 903 904 901 905 906 907 904 903 908 909 908 905 908 909 904 908 910 906 911 912 913 911 913 914 915 916 914 914 913 915 917 918 919 920 918 917 920 921 918 922 920 917 922 923 920 902 910 903 902 901 924 902 925 926 899 924 900 899 898 927 899 927 925 924 899 902 928 929 930 931 932 928 931 933 934 935 936 937 938 939 940 923 941 920 942 941 923 943 944 945 945 914 916 945 916 943 946 945 944 946 947 945 947 946 948 947 914 945 947 921 911 947 911 914 948 918 947 918 948 919 921 949 912 921 912 911 921 947 918 941 942 950 941 921 920 941 949 921 950 949 941 951 907 906 906 905 908 906 952 951 952 910 953 910 952 906 910 908 903 910 902 926 926 954 955 926 953 910 953 926 955 954 926 925 925 956 954 925 902 899 956 925 927 897 957 958 957 897 896 959 958 957 939 938 960 961 962 963 964 892 962 965 962 961 962 965 964 889 888 966 889 966 967 891 890 968 969 970 971 969 972 970 972 892 891 892 973 962 892 964 890 892 972 969 932 931 934 929 928 932 884 974 885 884 971 974 884 883 975 963 962 973 975 973 884 973 971 884 973 969 971 973 975 963 973 892 969 976 874 873 976 977 874 971 978 974 970 978 971 979 977 976 979 980 977 981 982 880 983 984 981 984 983 985 984 985 986 987 988 980 987 980 979 881 880 982 989 982 990 989 990 991 982 989 881 982 981 984 982 984 992 967 993 994 879 995 877 986 992 984 992 990 982 992 995 879 992 996 990 995 992 986 993 967 966 994 997 998 994 993 997 999 879 878 996 879 999 996 999 1000 996 992 879 991 996 1000 991 990 996 998 1001 1002 1003 939 960 1003 1004 939 1005 1004 1003 1005 1006 1004 1007 1006 1005 1007 1008 1006 1009 929 932 1009 1010 929 1010 1011 1012 1010 1009 1011 1012 1013 1014 1012 1011 1013 1015 1016 887 1015 887 886 1014 1013 1016 1014 1016 1015 933 931 1017 1018 988 987 1018 1019 988 1019 934 933 1019 1018 934 1020 1021 1008 1020 1008 1007 876 1021 1020 876 875 1021 937 1022 935 1022 960 938 1022 938 935 1001 998 997 1002 1022 937 1002 1001 1022 1023 1024 1025 1023 1026 1027 1026 1023 1025 1028 1029 1026 1029 1028 1030 1029 1027 1026 1031 1030 1028 1030 1032 1033 1032 1030 1031 1032 1034 1033 1032 1035 1034 1036 1037 1035 1037 1038 1039 1037 1034 1035 1038 1037 1036 1039 1040 1041 1040 1042 1043 1040 1043 1041 1040 1039 1038 1043 1044 1045 1024 1023 1046 1046 1044 1024 1044 1043 1042 1045 1044 1046 1047 1048 1049 1050 1051 1052 1048 1053 1051 1048 1051 1050 1054 1053 1055 1051 1056 1057 1056 1058 1057 1056 1053 1054 1053 1048 1047 1053 1056 1051 81 1059 1060 1060 82 81 1061 1062 1063 1064 1063 1062 1062 1065 1064 1065 1062 1066 1066 1067 1065 1067 1066 1068 1069 1070 1071 1070 1069 1072 1070 1073 1071 1073 1070 1074 1075 1074 1076 1074 1075 1073 1077 1078 1079 1080 1078 1077 1078 1081 1079 1081 1078 1082 1083 1082 1084 1082 1083 1081 1085 1060 1059 1059 1086 1085 1086 1059 1087</p></triangles>
<triangles material="m1" count="270"><input semantic="VERTEX" source="#g-v" offset="0"/><p>1088 1089 1090 1091 1089 1092 1093 1092 1094 1089 1088 1095 1089 1091 1090 1092 1093 1091 1092 1089 1096 1092 1096 1097 1098 1099 1100 1098 1101 1099 1101 1102 1103 1101 1098 1102 1103 1104 1105 1103 1102 1104 1106 1107 1108 1107 1106 1109 1110 1111 1112 1113 1114 1115 1116 1111 1117 1114 1113 1118 1111 1110 1119 1111 1116 1114 1112 1111 1114 1112 1114 1118 1120 1121 1122 1120 1122 1106 1120 1106 1108 1121 1120 1123 1124 1107 1109 1124 1125 1107 1105 1104 1125 1105 1125 1124 1100 1126 1127 1099 1126 1100 1128 1129 1130 1131 1132 1133 1129 1128 1131 1129 1134 1130 1135 1136 1137 1138 1139 1140 1141 1142 1143 1141 1144 1142 1134 1129 1145 1145 1146 1134 1139 1138 1135 1140 1147 1148 1136 1149 1137 1136 1135 1138 1143 1142 1149 1143 1149 1136 1146 1145 1150 1150 1151 1146 1151 1144 1141 1151 1150 1144 1152 1153 1154 1155 1153 1152 1156 1157 1155 1156 1155 1152 1158 1154 1153 1158 1159 1154 1160 1161 1162 1163 1164 1165 1166 1167 1168 1169 1170 1171 1172 1159 1158 1172 1173 1159 1157 1156 1174 1164 1163 1160 1164 1174 1165 1174 1164 1157 1161 1160 1163 1170 1169 1166 1171 1162 1161 1162 1171 1170 1132 1131 1128 1147 1140 1139 1148 1133 1132 1133 1148 1147 1167 1166 1169 1168 1173 1175 1173 1172 1175 1173 1168 1167 1176 1177 1178 1177 1176 1179 1180 1181 1182 1181 1180 1183 1184 1185 1186 1185 1184 1187 1185 1188 1189 1185 1189 1186 1190 1191 1192 1190 1193 1191 1192 1194 1190 1194 1195 1196 1194 1192 1197 1195 1194 1197 1198 1199 1200 1198 1201 1199 1201 1202 1199 1201 1203 1202 1202 1204 1205 1204 1202 1203 1206 1207 1208 1207 1209 1210 1208 1211 1206 1212 1210 1209 1210 1208 1207 1210 1212 1213 1214 1215 1216 1217 1218 1219 1220 1221 1222 1223 1224 1225 1215 1214 1226 1216 1227 1228 1218 1217 1229 1219 1230 1231 1221 1220 1232 1222 1233 1234 1224 1223 1235 1225 1236 1237 1227 1216 1215 1227 1238 1228 1230 1219 1218 1230 1239 1231 1233 1222 1221 1234 1233 1240 1236 1225 1224 1237 1236 1241 1238 1227 1242 1242 1243 1238 1239 1230 1244 1244 1245 1239 1246 1234 1240 1240 1247 1246 1248 1237 1241 1241 1249 1248 1250 1251 1252 1253 1254 1255 1256 1257 1258 1259 1260 1261 1251 1250 1262 1262 1263 1251 1254 1253 1264 1264 1265 1254 1257 1256 1266 1266 1267 1257 1260 1259 1268 1268 1269 1260 1263 1262 1270 1270 1271 1263 1265 1264 1272 1272 1273 1265 1267 1266 1274 1267 1275 1276 1269 1268 1277 1269 1278 1279 1271 1270 1280 1271 1281 1282 1273 1272 1283 1273 1284 1285 1275 1267 1274 1276 1286 1287 1278 1269 1277 1279 1288 1289 1243 1290 1291 1243 1242 1290 1245 1292 1293 1245 1244 1292 1247 1240 1294 1247 1294 1295 1249 1241 1296 1249 1296 1297 1298 1243 1291 1298 1291 1299 1300 1245 1293 1293 1301 1300 1302 1247 1295 1295 1303 1302 1304 1249 1297 1297 1305 1304 1306 1298 1299 1306 1307 1308 1301 1293 1309 1301 1310 1311 1303 1312 1313 1303 1295 1314 1305 1297 1315 1305 1316 1317 1307 1306 1299 1308 1318 1319 1318 1308 1307 1310 1301 1309 1311 1320 1321 1320 1311 1310 1312 1303 1314 1313 1322 1323 1322 1313 1312 1316 1305 1315 1317 1324 1325 1324 1317 1316 1326 1327 1328 1329 1330 1331 1332 1333 1334 1335 1336 1337 1327 1326 1338 1338 1339 1327 1330 1329 1340 1340 1341 1330 1333 1332 1342 1342 1343 1333 1336 1335 1344 1344 1345 1336 1339 1338 1346 1346 1347 1339 1341 1340 1348 1341 1349 1350 1348 1349 1341 1343 1351 1352 1343 1342 1353 1353 1351 1343 1345 1354 1355 1345 1344 1356 1356 1354 1345 1347 1346 1357 1288 1279 1278 1288 1357 1289 1357 1288 1347 1286 1349 1287 1286 1276 1275 1349 1286 1350 1284 1273 1283 1284 1351 1285 1351 1284 1352 1281 1271 1280 1281 1354 1282 1354 1281 1355 1358 1359 1360 1359 1361 1360 1359 1362 1363 1361 1364 1360 1364 1361 1365 1366 1365 1367 1365 1366 1364 1362 1359 1358 1362 1368 1363 1368 1369 1370 1368 1362 1371 1369 1368 1371 1370 1372 1373 1372 1370 1369 1374 1373 1372 1373 1374 1375 1376 1377 1378 1376 1379 1380 1377 1376 1380 1378 1381 1382 1381 1378 1377 1383 1382 1381 1382 1383 1384 1385 1386 1387 1385 1379 1388 1379 1376 1388 1379 1385 1387 1386 1385 1389 1389 1390 1386 1390 1389 1391 1392 1391 1393 1391 1392 1390 1188 1394 1395 1188 1395 1189</p></triangles>
<triangles material="m2" count="82"><input semantic="VERTEX" source="#g-v" offset="0"/><p>1396 1397 1398 1396 1398 1399 1400 1401 1402 1400 1403 1401 1404 1405 1406 1405 1404 1407 1408 1409 1410 1408 1411 1409 1412 1413 1414 1413 1412 1415 1416 1417 1418 1417 1416 1419 1420 1421 1422 1423 1424 1425 1424 1423 1420 1426 1425 1424 1421 1426 1422 1421 1427 1426 1421 1420 1423 1428 1427 1429 1425 1426 1427 1425 1430 1431 1430 1425 1428 1431 1432 1433 1432 1431 1430 1427 1432 1429 1427 1433 1432 1427 1428 1425 1434 1435 1436 1437 1438 1439 1438 1437 1440 1441 1442 1443 1444 1445 1446 1445 1444 1447 1448 1449 1450 1447 1442 1451 1447 1444 1443 1452 1453 1454 1452 1455 1453 1456 1457 1458 1456 1459 1457 1460 1461 1462 1461 1460 1463 1464 1462 1461 1464 1465 1466 1462 1464 1466 1467 1466 1468 1468 1469 1467 1466 1465 1468 1470 1471 1472 1470 1472 1473 1442 1441 1474 1442 1449 1451 1442 1447 1443 1449 1474 1475 1449 1448 1451 1474 1449 1442 1476 1477 1478 1476 1478 1479 1480 1481 1482 1480 1482 1483 1484 1485 1486 1485 1484 1487 1488 1489 1490 1488 1491 1489 1492 1493 1494 1493 1492 1495 1496 1497 1498 1499 1500 1496 1499 1496 1459 1459 1456 1501 1459 1501 1499 1502 1503 1504 1503 1502 1505 1497 1496 1500 1498 1458 1457 1458 1498 1497 1506 1507 1508 1506 1509 1507 1435 1434 1510 1436 1511 1512 1511 1436 1435</p></triangles>
</mesh></geometry></library_geometries><library_visual_scenes><visual_scene id="Scene"><node id="n" name="mic-stand"><instance_geometry url="#g"><bind_material><technique_common>
<instance_material symbol="m0" target="#m0"/>
<instance_material symbol="m1" target="#m1"/>
<instance_material symbol="m2" target="#m2"/>
</technique_common></bind_material></instance_geometry></node></visual_scene></library_visual_scenes><scene><instance_visual_scene url="#Scene"/></scene></COLLADA>
