<?xml version="1.0" encoding="utf-8"?>
<COLLADA xmlns="http://www.collada.org/2005/11/COLLADASchema" version="1.4.1">
<asset><contributor><authoring_tool>VATs starter props (see CREDITS.md)</authoring_tool></contributor><unit name="meter" meter="1"/><up_axis>Z_UP</up_axis></asset>
<library_effects>
<effect id="m0-fx"><profile_COMMON><technique sid="common"><lambert><diffuse><color>0.240 0.250 0.280 1</color></diffuse></lambert></technique></profile_COMMON></effect>
<effect id="m1-fx"><profile_COMMON><technique sid="common"><lambert><diffuse><color>0.620 0.660 0.710 1</color></diffuse></lambert></technique></profile_COMMON></effect>
<effect id="m2-fx"><profile_COMMON><technique sid="common"><lambert><diffuse><color>0.360 0.390 0.430 1</color></diffuse></lambert></technique></profile_COMMON></effect>
</library_effects><library_materials>
<material id="m0" name="m0"><instance_effect url="#m0-fx"/></material>
<material id="m1" name="m1"><instance_effect url="#m1-fx"/></material>
<material id="m2" name="m2"><instance_effect url="#m2-fx"/></material>
</library_materials><library_geometries><geometry id="g" name="microphone"><mesh>
<source id="g-p"><float_array id="g-p-a" count="1104">-0.0089119 0.0089119 -0.057 -0.012603 0 -0.057 -0.019723 0 0.076214 -0.013946 0.013946 0.076214 -0.012603 0 -0.057 -0.0089119 -0.0089119 -0.057 -0.013946 -0.013946 0.076214 -0.019723 0 0.076214 -0.0089119 -0.0089119 -0.057 0 -0.012603 -0.057 0 -0.019723 0.076214 -0.013946 -0.013946 0.076214 0 -0.012603 -0.057 0.0089119 -0.0089119 -0.057 0.013946 -0.013946 0.076214 0 -0.019723 0.076214 0.0089119 -0.0089119 -0.057 0.012603 0 -0.057 0.019723 0 0.076214 0.013946 -0.013946 0.076214 0.012603 0 -0.057 0.0089119 0.0089119 -0.057 0.013946 0.013946 0.076214 0.019723 0 0.076214 0.0089119 0.0089119 -0.057 0 0.012603 -0.057 0 0.019723 0.076214 0.013946 0.013946 0.076214 0 0.012603 -0.057 -0.0089119 0.0089119 -0.057 -0.013946 0.013946 0.076214 0 0.019723 0.076214 -0.0089119 -0.0089119 -0.057 0.012603 0 -0.057 0.0089119 -0.0089119 -0.057 0 -0.012603 -0.057 -0.013946 0.013946 0.076214 -0.019723 0 0.076214 -0.023647 0 0.079861 -0.016721 0.016721 0.079861 -0.019723 0 0.076214 -0.013946 -0.013946 0.076214 -0.016721 -0.016721 0.079861 -0.023647 0 0.079861 -0.013946 -0.013946 0.076214 0 -0.019723 0.076214 0 -0.023647 0.079861 -0.016721 -0.016721 0.079861 0 -0.019723 0.076214 0.013946 -0.013946 0.076214 0.016721 -0.016721 0.079861 0 -0.023647 0.079861 0.013946 -0.013946 0.076214 0.019723 0 0.076214 0.023647 0 0.079861 0.016721 -0.016721 0.079861 0.019723 0 0.076214 0.013946 0.013946 0.076214 0.016721 0.016721 0.079861 0.023647 0 0.079861 0.013946 0.013946 0.076214 0 0.019723 0.076214 0 0.023647 0.079861 0.016721 0.016721 0.079861 0 0.019723 0.076214 -0.013946 0.013946 0.076214 -0.016721 0.016721 0.079861 0 0.023647 0.079861 -0.016721 0.016721 0.079861 -0.023647 0 0.079861 -0.024207 0 0.082874 -0.017117 0.017117 0.082874 -0.023647 0 0.079861 -0.016721 -0.016721 0.079861 -0.017117 -0.017117 0.082874 -0.024207 0 0.082874 -0.016721 -0.016721 0.079861 0 -0.023647 0.079861 0 -0.024207 0.082874 -0.017117 -0.017117 0.082874 0 -0.023647 0.079861 0.016721 -0.016721 0.079861 0.017117 -0.017117 0.082874 0 -0.024207 0.082874 0.016721 -0.016721 0.079861 0.023647 0 0.079861 0.024207 0 0.082874 0.017117 -0.017117 0.082874 0.023647 0 0.079861 0.016721 0.016721 0.079861 0.017117 0.017117 0.082874 0.024207 0 0.082874 0.016721 0.016721 0.079861 0 0.023647 0.079861 0 0.024207 0.082874 0.017117 0.017117 0.082874 0 0.023647 0.079861 -0.016721 0.016721 0.079861 -0.017117 0.017117 0.082874 0 0.024207 0.082874 -0.017117 0.017117 0.082874 -0.024207 0 0.082874 -0.022927 0 0.083598 -0.016212 0.016212 0.083598 -0.024207 0 0.082874 -0.017117 -0.017117 0.082874 -0.016212 -0.016212 0.083598 -0.022927 0 0.083598 -0.017117 -0.017117 0.082874 0 -0.024207 0.082874 0 -0.022927 0.083598 -0.016212 -0.016212 0.083598 0 -0.024207 0.082874 0.017117 -0.017117 0.082874 0.016212 -0.016212 0.083598 0 -0.022927 0.083598 0.017117 -0.017117 0.082874 0.024207 0 0.082874 0.022927 0 0.083598 0.016212 -0.016212 0.083598 0.024207 0 0.082874 0.017117 0.017117 0.082874 0.016212 0.016212 0.083598 0.022927 0 0.083598 0.017117 0.017117 0.082874 0 0.024207 0.082874 0 0.022927 0.083598 0.016212 0.016212 0.083598 0 0.024207 0.082874 -0.017117 0.017117 0.082874 -0.016212 0.016212 0.083598 0 0.022927 0.083598 0.021112 0 0.12426 0 0 0.133 0 -0.021112 0.12426 0.017233 -0.017233 0.12038 0 -0.021112 0.12426 0 -0.029 0.10521 0.020647 -0.020647 0.10521 0.017233 -0.017233 0.12038 0 0.021112 0.12426 0 0 0.133 0.021112 0 0.12426 0.017233 0.017233 0.12038 0.021112 0 0.12426 0.029 0 0.10521 0.020647 0.020647 0.10521 0.017233 0.017233 0.12038 -0.021112 0 0.12426 -0.029 0 0.10521 -0.020647 -0.020647 0.10521 -0.017233 -0.017233 0.12038 0 -0.021112 0.12426 0 0 0.133 -0.021112 0 0.12426 -0.017233 -0.017233 0.12038 0 0.021112 0.12426 0 0.029 0.10521 -0.020647 0.020647 0.10521 -0.017233 0.017233 0.12038 -0.021112 0 0.12426 0 0 0.133 0 0.021112 0.12426 -0.017233 0.017233 0.12038 0 -0.030206 0.10472 0 -0.030206 0.10158 0.021505 -0.021505 0.10158 0.021505 -0.021505 0.10472 0.022927 0 0.083598 0.029 0 0.10109 0.020647 -0.020647 0.10109 0.016212 -0.016212 0.083598 0 0.022927 0.083598 0 0.029 0.10109 0.020647 0.020647 0.10109 0.016212 0.016212 0.083598 0.030206 0 0.10472 0.030206 0 0.10158 0.021505 0.021505 0.10158 0.021505 0.021505 0.10472 0 -0.022927 0.083598 0 -0.029 0.10109 -0.020647 -0.020647 0.10109 -0.016212 -0.016212 0.083598 -0.030206 0 0.10472 -0.030206 0 0.10158 -0.021505 -0.021505 0.10158 -0.021505 -0.021505 0.10472 0 0.030206 0.10472 0 0.030206 0.10158 -0.021505 0.021505 0.10158 -0.021505 0.021505 0.10472 -0.022927 0 0.083598 -0.029 0 0.10109 -0.020647 0.020647 0.10109 -0.016212 0.016212 0.083598 0.020647 -0.020647 0.10521 0.029 0 0.10521 0.021112 0 0.12426 0.017233 -0.017233 0.12038 0.020647 0.020647 0.10521 0 0.029 0.10521 0 0.021112 0.12426 0.017233 0.017233 0.12038 -0.020647 -0.020647 0.10521 0 -0.029 0.10521 0 -0.021112 0.12426 -0.017233 -0.017233 0.12038 -0.020647 0.020647 0.10521 -0.029 0 0.10521 -0.021112 0 0.12426 -0.017233 0.017233 0.12038 0.020647 -0.020647 0.10109 0 -0.029 0.10109 0 -0.022927 0.083598 0.016212 -0.016212 0.083598 0.021505 -0.021505 0.10472 0.021505 -0.021505 0.10158 0.030206 0 0.10158 0.030206 0 0.10472 0.021505 0.021505 0.10472 0.021505 0.021505 0.10158 0 0.030206 0.10158 0 0.030206 0.10472 0.020647 0.020647 0.10109 0.029 0 0.10109 0.022927 0 0.083598 0.016212 0.016212 0.083598 -0.021505 -0.021505 0.10472 -0.021505 -0.021505 0.10158 0 -0.030206 0.10158 0 -0.030206 0.10472 -0.020647 -0.020647 0.10109 -0.029 0 0.10109 -0.022927 0 0.083598 -0.016212 -0.016212 0.083598 -0.020647 0.020647 0.10109 0 0.029 0.10109 0 0.022927 0.083598 -0.016212 0.016212 0.083598 -0.021505 0.021505 0.10472 -0.021505 0.021505 0.10158 -0.030206 0 0.10158 -0.030206 0 0.10472 0.029 0 0.10521 0.020647 -0.020647 0.10521 0.021505 -0.021505 0.10472 0.030206 0 0.10472 0 0.029 0.10521 0.020647 0.020647 0.10521 0.021505 0.021505 0.10472 0 0.030206 0.10472 0 -0.029 0.10521 -0.020647 -0.020647 0.10521 -0.021505 -0.021505 0.10472 0 -0.030206 0.10472 -0.029 0 0.10521 -0.020647 0.020647 0.10521 -0.021505 0.021505 0.10472 -0.030206 0 0.10472 0 -0.029 0.10109 0.020647 -0.020647 0.10109 0.021505 -0.021505 0.10158 0 -0.030206 0.10158 0.029 0 0.10109 0.020647 0.020647 0.10109 0.021505 0.021505 0.10158 0.030206 0 0.10158 -0.029 0 0.10109 -0.020647 -0.020647 0.10109 -0.021505 -0.021505 0.10158 -0.030206 0 0.10158 0 0.029 0.10109 -0.020647 0.020647 0.10109 -0.021505 0.021505 0.10158 0 0.030206 0.10158 0.020647 -0.020647 0.10521 0 -0.029 0.10521 0 -0.030206 0.10472 0.021505 -0.021505 0.10472 0.020647 0.020647 0.10521 0.029 0 0.10521 0.030206 0 0.10472 0.021505 0.021505 0.10472 -0.020647 -0.020647 0.10521 -0.029 0 0.10521 -0.030206 0 0.10472 -0.021505 -0.021505 0.10472 -0.020647 0.020647 0.10521 0 0.029 0.10521 0 0.030206 0.10472 -0.021505 0.021505 0.10472 0.020647 -0.020647 0.10109 0.029 0 0.10109 0.030206 0 0.10158 0.021505 -0.021505 0.10158 0.020647 0.020647 0.10109 0 0.029 0.10109 0 0.030206 0.10158 0.021505 0.021505 0.10158 -0.020647 -0.020647 0.10109 0 -0.029 0.10109 0 -0.030206 0.10158 -0.021505 -0.021505 0.10158 -0.020647 0.020647 0.10109 -0.029 0 0.10109 -0.030206 0 0.10158 -0.021505 0.021505 0.10158 0.016874 -0.010866 0.027282 0.01962 -0.0042355 0.027282 0.020488 -0.0045949 0.046306 0.017741 -0.011225 0.046306 0.015197 -0.012355 0.04903 0.019488 -0.0019972 0.04903 0.016536 -0.00077475 0.049188 0.012246 -0.011132 0.049188 0.011139 -0.010674 0.024918 0.015429 -0.00031628 0.024918 0.018381 -0.0015387 0.02476 0.01409 -0.011896 0.02476 0.018381 -0.0015387 0.02476 0.015429 -0.00031628 0.024918 0.016536 -0.00077475 0.049188 0.019488 -0.0019972 0.04903 0.011139 -0.010674 0.024918 0.01409 -0.011896 0.02476 0.015197 -0.012355 0.04903 0.012246 -0.011132 0.049188 0.01409 -0.011896 0.02476 0.018381 -0.0015387 0.02476 0.018492 -0.0030074 0.026374 0.015207 -0.010936 0.026374 0.018381 -0.0015387 0.02476 0.019488 -0.0019972 0.04903 0.019449 -0.0034038 0.047359 0.018492 -0.0030074 0.026374 0.019488 -0.0019972 0.04903 0.015197 -0.012355 0.04903 0.016164 -0.011333 0.047359 0.019449 -0.0034038 0.047359 0.015197 -0.012355 0.04903 0.01409 -0.011896 0.02476 0.015207 -0.010936 0.026374 0.016164 -0.011333 0.047359 0.015207 -0.010936 0.026374 0.018492 -0.0030074 0.026374 0.01962 -0.0042355 0.027282 0.016874 -0.010866 0.027282 0.018492 -0.0030074 0.026374 0.019449 -0.0034038 0.047359 0.020488 -0.0045949 0.046306 0.01962 -0.0042355 0.027282 0.019449 -0.0034038 0.047359 0.016164 -0.011333 0.047359 0.017741 -0.011225 0.046306 0.020488 -0.0045949 0.046306 0.016164 -0.011333 0.047359 0.015207 -0.010936 0.026374 0.016874 -0.010866 0.027282 0.017741 -0.011225 0.046306 0 0.012603 -0.057 0.0089119 0.0089119 -0.057 0.012603 0 -0.057 -0.0089119 0.0089119 -0.057 -0.0089119 0.0089119 -0.057 0.012603 0 -0.057 -0.0089119 -0.0089119 -0.057 -0.012603 0 -0.057</float_array><technique_common><accessor source="#g-p-a" count="368" stride="3"><param name="X" type="float"/><param name="Y" type="float"/><param name="Z" type="float"/></accessor></technique_common></source>
<source id="g-n"><float_array id="g-n-a" count="1104">-0.92276 0.38222 -0.049314 -0.92276 0.38222 -0.049314 -0.92276 0.38222 -0.049314 -0.92276 0.38222 -0.049314 -0.92276 -0.38222 -0.049314 -0.92276 -0.38222 -0.049314 -0.92276 -0.38222 -0.049314 -0.92276 -0.38222 -0.049314 -0.38222 -0.92276 -0.049314 -0.38222 -0.92276 -0.049314 -0.38222 -0.92276 -0.049314 -0.38222 -0.92276 -0.049314 0.38222 -0.92276 -0.049314 0.38222 -0.92276 -0.049314 0.38222 -0.92276 -0.049314 0.38222 -0.92276 -0.049314 0.92276 -0.38222 -0.049314 0.92276 -0.38222 -0.049314 0.92276 -0.38222 -0.049314 0.92276 -0.38222 -0.049314 0.92276 0.38222 -0.049314 0.92276 0.38222 -0.049314 0.92276 0.38222 -0.049314 0.92276 0.38222 -0.049314 0.38222 0.92276 -0.049314 0.38222 0.92276 -0.049314 0.38222 0.92276 -0.049314 0.38222 0.92276 -0.049314 -0.38222 0.92276 -0.049314 -0.38222 0.92276 -0.049314 -0.38222 0.92276 -0.049314 -0.38222 0.92276 -0.049314 0 0 -1 0 0 -1 0 0 -1 0 0 -1 -0.6552 0.27139 -0.70502 -0.6552 0.27139 -0.70502 -0.6552 0.27139 -0.70502 -0.6552 0.27139 -0.70502 -0.6552 -0.27139 -0.70502 -0.6552 -0.27139 -0.70502 -0.6552 -0.27139 -0.70502 -0.6552 -0.27139 -0.70502 -0.27139 -0.6552 -0.70502 -0.27139 -0.6552 -0.70502 -0.27139 -0.6552 -0.70502 -0.27139 -0.6552 -0.70502 0.27139 -0.6552 -0.70502 0.27139 -0.6552 -0.70502 0.27139 -0.6552 -0.70502 0.27139 -0.6552 -0.70502 0.6552 -0.27139 -0.70502 0.6552 -0.27139 -0.70502 0.6552 -0.27139 -0.70502 0.6552 -0.27139 -0.70502 0.6552 0.27139 -0.70502 0.6552 0.27139 -0.70502 0.6552 0.27139 -0.70502 0.6552 0.27139 -0.70502 0.27139 0.6552 -0.70502 0.27139 0.6552 -0.70502 0.27139 0.6552 -0.70502 0.27139 0.6552 -0.70502 -0.27139 0.6552 -0.70502 -0.27139 0.6552 -0.70502 -0.27139 0.6552 -0.70502 -0.27139 0.6552 -0.70502 -0.91052 0.37715 -0.16943 -0.91052 0.37715 -0.16943 -0.91052 0.37715 -0.16943 -0.91052 0.37715 -0.16943 -0.91052 -0.37715 -0.16943 -0.91052 -0.37715 -0.16943 -0.91052 -0.37715 -0.16943 -0.91052 -0.37715 -0.16943 -0.37715 -0.91052 -0.16943 -0.37715 -0.91052 -0.16943 -0.37715 -0.91052 -0.16943 -0.37715 -0.91052 -0.16943 0.37715 -0.91052 -0.16943 0.37715 -0.91052 -0.16943 0.37715 -0.91052 -0.16943 0.37715 -0.91052 -0.16943 0.91052 -0.37715 -0.16943 0.91052 -0.37715 -0.16943 0.91052 -0.37715 -0.16943 0.91052 -0.37715 -0.16943 0.91052 0.37715 -0.16943 0.91052 0.37715 -0.16943 0.91052 0.37715 -0.16943 0.91052 0.37715 -0.16943 0.37715 0.91052 -0.16943 0.37715 0.91052 -0.16943 0.37715 0.91052 -0.16943 0.37715 0.91052 -0.16943 -0.37715 0.91052 -0.16943 -0.37715 0.91052 -0.16943 -0.37715 0.91052 -0.16943 -0.37715 0.91052 -0.16943 -0.48232 0.19978 0.85291 -0.48231 0.19978 0.85291 -0.48231 0.19978 0.85291 -0.48232 0.19978 0.85291 -0.48231 -0.19978 0.85291 -0.48232 -0.19978 0.85291 -0.48232 -0.19978 0.85291 -0.48231 -0.19978 0.85291 -0.19978 -0.48232 0.85291 -0.19978 -0.48231 0.85291 -0.19978 -0.48231 0.85291 -0.19978 -0.48232 0.85291 0.19978 -0.48231 0.85291 0.19978 -0.48232 0.85291 0.19978 -0.48232 0.85291 0.19978 -0.48231 0.85291 0.48232 -0.19978 0.85291 0.48231 -0.19978 0.85291 0.48231 -0.19978 0.85291 0.48232 -0.19978 0.85291 0.48231 0.19978 0.85291 0.48232 0.19978 0.85291 0.48232 0.19978 0.85291 0.48231 0.19978 0.85291 0.19978 0.48232 0.85291 0.19978 0.48231 0.85291 0.19978 0.48231 0.85291 0.19978 0.48232 0.85291 -0.19978 0.48231 0.85291 -0.19978 0.48232 0.85291 -0.19978 0.48232 0.85291 -0.19978 0.48231 0.85291 0.36709 -0.28219 0.88635 0.32522 -0.32522 0.88795 0.28219 -0.36709 0.88635 0.32522 -0.32522 0.88795 0.28219 -0.88636 0.36706 0.31856 -0.88933 0.32804 0.3599 -0.88959 0.28127 0.32384 -0.88955 0.32221 0.28219 0.36709 0.88635 0.32522 0.32522 0.88795 0.36709 0.28219 0.88635 0.32522 0.32522 0.88795 0.89005 0.31977 0.32489 0.86543 0.35012 0.35839 0.89375 0.31487 0.31949 0.92497 0.26874 0.26871 -0.88636 -0.28219 0.36706 -0.88933 -0.31856 0.32804 -0.88959 -0.3599 0.28127 -0.88955 -0.32384 0.32221 -0.28219 -0.36709 0.88635 -0.32522 -0.32522 0.88795 -0.36709 -0.28219 0.88635 -0.32522 -0.32522 0.88795 -0.31977 0.89005 0.32489 -0.35012 0.86543 0.35839 -0.31487 0.89375 0.31949 -0.26874 0.92497 0.26871 -0.36709 0.28219 0.88635 -0.32522 0.32522 0.88795 -0.28219 0.36709 0.88635 -0.32522 0.32522 0.88795 0.37504 -0.92701 0 0.37504 -0.92701 0 0.37504 -0.92701 0 0.37504 -0.92701 0 0.88009 -0.35977 -0.30986 0.88245 -0.35701 -0.30629 0.87985 -0.36005 -0.31021 0.87703 -0.36328 -0.31439 0.35977 0.88009 -0.30986 0.35701 0.88245 -0.30629 0.36005 0.87985 -0.31021 0.36328 0.87703 -0.31439 0.92701 0.37504 0 0.92701 0.37504 0 0.92701 0.37504 0 0.92701 0.37504 0 -0.36441 -0.87975 -0.30536 -0.36014 -0.88005 -0.30953 -0.35614 -0.8803 -0.31341 -0.35977 -0.88008 -0.30988 -0.92701 -0.37504 0 -0.92701 -0.37504 0 -0.92701 -0.37504 0 -0.92701 -0.37504 0 -0.37504 0.92701 0 -0.37504 0.92701 0 -0.37504 0.92701 0 -0.37504 0.92701 0 -0.87975 0.36441 -0.30536 -0.88005 0.36014 -0.30953 -0.8803 0.35614 -0.31341 -0.88008 0.35977 -0.30988 0.89375 -0.31487 0.31949 0.86543 -0.35012 0.35839 0.89005 -0.31977 0.32489 0.92497 -0.26874 0.26871 0.31487 0.89375 0.31949 0.35012 0.86543 0.35839 0.31977 0.89005 0.32489 0.26874 0.92497 0.26871 -0.3599 -0.88959 0.28127 -0.31856 -0.88933 0.32804 -0.28219 -0.88636 0.36706 -0.32384 -0.88955 0.32221 -0.88959 0.3599 0.28127 -0.88933 0.31856 0.32804 -0.88636 0.28219 0.36706 -0.88955 0.32384 0.32221 0.35614 -0.8803 -0.31341 0.36014 -0.88005 -0.30953 0.36441 -0.87975 -0.30536 0.35977 -0.88008 -0.30988 0.92701 -0.37504 0 0.92701 -0.37504 0 0.92701 -0.37504 0 0.92701 -0.37504 0 0.37504 0.92701 0 0.37504 0.92701 0 0.37504 0.92701 0 0.37504 0.92701 0 0.87985 0.36005 -0.31021 0.88245 0.35701 -0.30629 0.88009 0.35977 -0.30986 0.87703 0.36328 -0.31439 -0.37504 -0.92701 0 -0.37504 -0.92701 0 -0.37504 -0.92701 0 -0.37504 -0.92701 0 -0.8803 -0.35614 -0.31341 -0.88005 -0.36014 -0.30953 -0.87975 -0.36441 -0.30536 -0.88008 -0.35977 -0.30988 -0.36005 0.87985 -0.31021 -0.35701 0.88245 -0.30629 -0.35977 0.88009 -0.30986 -0.36328 0.87703 -0.31439 -0.92701 0.37504 0 -0.92701 0.37504 0 -0.92701 0.37504 0 -0.92701 0.37504 0 0.37084 -0.15003 0.9165 0.37083 -0.15003 0.9165 0.37083 -0.15003 0.9165 0.37084 -0.15003 0.9165 0.15003 0.37084 0.9165 0.15003 0.37083 0.9165 0.15003 0.37083 0.9165 0.15003 0.37084 0.9165 -0.15003 -0.37084 0.9165 -0.15003 -0.37083 0.9165 -0.15003 -0.37083 0.9165 -0.15003 -0.37084 0.9165 -0.37084 0.15003 0.9165 -0.37083 0.15003 0.9165 -0.37083 0.15003 0.9165 -0.37084 0.15003 0.9165 0.15002 -0.37083 -0.9165 0.15002 -0.37082 -0.91651 0.15002 -0.37082 -0.91651 0.15002 -0.37083 -0.9165 0.37083 0.15002 -0.9165 0.37082 0.15002 -0.91651 0.37082 0.15002 -0.91651 0.37083 0.15002 -0.9165 -0.37083 -0.15002 -0.9165 -0.37082 -0.15002 -0.91651 -0.37082 -0.15002 -0.91651 -0.37083 -0.15002 -0.9165 -0.15002 0.37083 -0.9165 -0.15002 0.37082 -0.91651 -0.15002 0.37082 -0.91651 -0.15002 0.37083 -0.9165 0.15003 -0.37083 0.9165 0.15003 -0.37084 0.9165 0.15003 -0.37084 0.9165 0.15003 -0.37083 0.9165 0.37083 0.15003 0.9165 0.37084 0.15003 0.9165 0.37084 0.15003 0.9165 0.37083 0.15003 0.9165 -0.37083 -0.15003 0.9165 -0.37084 -0.15003 0.9165 -0.37084 -0.15003 0.9165 -0.37083 -0.15003 0.9165 -0.15003 0.37083 0.9165 -0.15003 0.37084 0.9165 -0.15003 0.37084 0.9165 -0.15003 0.37083 0.9165 0.37082 -0.15002 -0.91651 0.37083 -0.15002 -0.9165 0.37083 -0.15002 -0.9165 0.37082 -0.15002 -0.91651 0.15002 0.37082 -0.91651 0.15002 0.37083 -0.9165 0.15002 0.37083 -0.9165 0.15002 0.37082 -0.91651 -0.15002 -0.37082 -0.91651 -0.15002 -0.37083 -0.9165 -0.15002 -0.37083 -0.9165 -0.15002 -0.37082 -0.91651 -0.37082 0.15002 -0.91651 -0.37083 0.15002 -0.9165 -0.37083 0.15002 -0.9165 -0.37082 0.15002 -0.91651 0.92276 -0.38222 -0.049301 0.92276 -0.38222 -0.049301 0.92276 -0.38222 -0.049302 0.92276 -0.38222 -0.049302 0.045545 -0.018865 0.99878 0.045545 -0.018865 0.99878 0.045545 -0.018865 0.99878 0.045545 -0.018865 0.99878 -0.045552 0.018868 -0.99878 -0.045552 0.018868 -0.99878 -0.045552 0.018868 -0.99878 -0.045552 0.018868 -0.99878 0.38268 0.92388 5.405e-09 0.38268 0.92388 5.3422e-09 0.38268 0.92388 6.0332e-09 0.38268 0.92388 6.096e-09 -0.38268 -0.92388 -8.997e-08 -0.38268 -0.92388 -1.0613e-07 -0.38268 -0.92388 -2.8395e-07 -0.38268 -0.92388 -2.6779e-07 0.85428 -0.35385 -0.38078 0.85428 -0.35385 -0.38078 0.85428 -0.35385 -0.38078 0.85428 -0.35386 -0.38078 0.99865 0.025949 -0.045052 0.99865 0.02594 -0.045053 0.99865 0.025941 -0.045053 0.99865 0.025949 -0.045052 0.88477 -0.36648 0.28787 0.88477 -0.36648 0.28787 0.88477 -0.36648 0.28787 0.88477 -0.36648 0.28787 0.6878 -0.7245 -0.045052 0.68781 -0.72449 -0.045053 0.68781 -0.72449 -0.045053 0.6878 -0.7245 -0.045052 0.4757 -0.19704 -0.85725 0.4757 -0.19704 -0.85725 0.4757 -0.19704 -0.85725 0.4757 -0.19704 -0.85725 0.74402 0.66782 -0.021315 0.74401 0.66782 -0.021315 0.74401 0.66782 -0.021315 0.74402 0.66782 -0.021315 0.55139 -0.22839 0.80237 0.55139 -0.22839 0.80237 0.55139 -0.22839 0.80237 0.55139 -0.22839 0.80237 0.053872 -0.99832 -0.021315 0.053879 -0.99832 -0.021316 0.05388 -0.99832 -0.021316 0.053872 -0.99832 -0.021315 0 0 -1 0 0 -1 0 0 -1 0 0 -1 0 0 -1 0 0 -1 0 0 -1 0 0 -1</float_array><technique_common><accessor source="#g-n-a" count="368" stride="3"><param name="X" type="float"/><param name="Y" type="float"/><param name="Z" type="float"/></accessor></technique_common></source>
<vertices id="g-v"><input semantic="POSITION" source="#g-p"/><input semantic="NORMAL" source="#g-n"/></vertices>
<triangles material="m0" count="32"><input semantic="VERTEX" source="#g-v" offset="0"/><p>1 3 0 3 1 2 5 7 4 7 5 6 9 11 8 11 9 10 13 15 12 15 13 14 18 19 16 16 17 18 22 23 20 20 21 22 26 27 24 24 25 26 30 31 28 28 29 30 34 35 32 32 33 34 310 311 308 308 309 310 346 347 344 344 345 346 350 351 348 348 349 350 353 355 352 355 353 354 357 359 356 359 357 358 362 363 360 360 361 362 366 367 364 364 365 366</p></triangles>
<triangles material="m1" count="136"><input semantic="VERTEX" source="#g-v" offset="0"/><p>37 39 36 39 37 38 41 43 40 43 41 42 45 47 44 47 45 46 49 51 48 51 49 50 54 55 52 52 53 54 58 59 56 56 57 58 62 63 60 60 61 62 66 67 64 64 65 66 69 71 68 71 69 70 73 75 72 75 73 74 77 79 76 79 77 78 81 83 80 83 81 82 86 87 84 84 85 86 90 91 88 88 89 90 94 95 92 92 93 94 98 99 96 96 97 98 101 103 100 105 107 104 107 105 106 109 111 108 133 135 132 135 133 134 137 139 136 139 137 138 141 143 140 143 141 142 146 147 144 144 145 146 149 151 148 151 149 150 153 155 152 155 153 154 158 159 156 156 157 158 161 163 160 163 161 162 165 167 164 167 165 166 170 171 168 174 175 172 172 173 174 178 179 176 176 177 178 181 183 180 183 181 182 185 187 184 187 185 186 190 191 188 188 189 190 195 193 194 198 199 196 196 197 198 202 203 200 200 201 202 205 207 204 207 205 206 209 211 208 211 209 210 213 215 212 215 213 214 218 219 216 216 217 218 222 223 220 220 221 222 226 227 224 229 231 228 231 229 230 233 235 232 235 233 234 238 239 236 236 237 238 241 243 240 243 241 242 245 247 244 247 245 246 249 251 248 251 249 250 253 255 252 255 253 254 257 259 256 259 257 258 262 263 260 260 261 262 266 267 264 264 265 266 270 271 268 268 269 270 274 275 272 272 273 274 277 279 276 279 277 278 281 283 280 283 281 282 285 287 284 287 285 286 289 291 288 291 289 290 294 295 292 292 293 294 298 299 296 296 297 298 302 303 300 300 301 302 306 307 304 304 305 306 313 315 312 315 313 314 318 319 316 316 317 318 322 323 320 320 321 322 325 327 324 327 325 326 330 331 328 328 329 330 334 335 332 332 333 334 338 339 336 336 337 338 343 341 342</p></triangles>
<triangles material="m2" count="16"><input semantic="VERTEX" source="#g-v" offset="0"/><p>103 101 102 111 109 110 113 115 112 115 113 114 117 119 116 119 117 118 121 123 120 123 121 122 125 127 124 127 125 126 129 131 128 131 129 130 168 169 170 193 195 192 224 225 226 341 343 340</p></triangles>
</mesh></geometry></library_geometries><library_visual_scenes><visual_scene id="Scene"><node id="n" name="microphone"><instance_geometry url="#g"><bind_material><technique_common>
<instance_material symbol="m0" target="#m0"/>
<instance_material symbol="m1" target="#m1"/>
<instance_material symbol="m2" target="#m2"/>
</technique_common></bind_material></instance_geometry></node></visual_scene></library_visual_scenes><scene><instance_visual_scene url="#Scene"/></scene></COLLADA>
