<?xml version="1.0" encoding="utf-8"?>
<COLLADA xmlns="http://www.collada.org/2005/11/COLLADASchema" version="1.4.1">
<asset><contributor><authoring_tool>VATs starter props (see CREDITS.md)</authoring_tool></contributor><unit name="meter" meter="1"/><up_axis>Z_UP</up_axis></asset>
<library_effects>
<effect id="m0-fx"><profile_COMMON><technique sid="common"><lambert><diffuse><color>0.330 0.520 0.520 1</color></diffuse></lambert></technique></profile_COMMON></effect>
</library_effects><library_materials>
<material id="m0" name="m0"><instance_effect url="#m0-fx"/></material>
</library_materials><library_geometries><geometry id="g" name="mug"><mesh>
<source id="g-p"><float_array id="g-p-a" count="372">-0.045 0.015529 0 -0.03182 -0.016291 0 -0.03182 0.047349 0 -7.1192e-16 0.060529 0 -7.319e-16 -0.029471 0 0.03182 0.047349 0 0.03182 -0.016291 0 0.045 0.015529 0 -0.036229 0.015529 0.015 -0.025618 0.041147 0.015 -0.025618 -0.010088 0.015 1.7243e-16 -0.0207 0.015 1.8852e-16 0.051758 0.015 0.025618 -0.010088 0.015 0.025618 0.041147 0.015 0.036229 0.015529 0.015 -0.03182 0.047349 0 -0.040659 0.056188 0.1 -0.045 0.015529 0 -7.1192e-16 0.060529 0 -0.0575 0.015529 0.1 1.9325e-16 0.073029 0.1 0.03182 0.047349 0 0.040659 0.056188 0.1 0.045 0.015529 0 0.0575 0.015529 0.1 0.03182 -0.016291 0 0.040659 -0.025129 0.1 -7.319e-16 -0.029471 0 1.6771e-16 -0.041971 0.1 -0.03182 -0.016291 0 -0.040659 -0.025129 0.1 -0.030138 0.045668 0.1 -0.025618 0.041147 0.015 -0.042622 0.015529 0.1 1.8994e-16 0.058151 0.1 -0.036229 0.015529 0.015 1.8852e-16 0.051758 0.015 -0.025618 -0.010088 0.015 0.030138 0.045668 0.1 -0.030138 -0.014609 0.1 0.025618 0.041147 0.015 1.7243e-16 -0.0207 0.015 1.7101e-16 -0.027093 0.1 0.042622 0.015529 0.1 0.036229 0.015529 0.015 0.025618 -0.010088 0.015 0.030138 -0.014609 0.1 1.8994e-16 0.058151 0.1 -0.030138 0.045668 0.1 1.9325e-16 0.073029 0.1 0.030138 0.045668 0.1 -0.040659 0.056188 0.1 0.040659 0.056188 0.1 -0.042622 0.015529 0.1 -0.0575 0.015529 0.1 -0.040659 -0.025129 0.1 -0.030138 -0.014609 0.1 1.6771e-16 -0.041971 0.1 1.7101e-16 -0.027093 0.1 0.042622 0.015529 0.1 0.0575 0.015529 0.1 0.040659 -0.025129 0.1 0.030138 -0.014609 0.1 0.010625 -0.073029 0.05318 0.010625 -0.061826 0.080227 0.010625 -0.061826 0.026133 0.010625 -0.059229 0.05318 0.010625 -0.052068 0.035892 0.010625 -0.052068 0.070469 0.010625 -0.034779 0.01493 0.010625 -0.034779 0.028731 0.010625 -0.022463 0.020032 0.010625 -0.022467 0.03383 0.010625 -0.034779 0.09143 0.010625 -0.034779 0.07763 0.010625 -0.02716 0.074474 0.010625 -0.02716 0.088274 0.010625 -0.022463 0.020032 -0.010625 -0.022463 0.020032 0.010625 -0.034779 0.01493 -0.010625 -0.024453 0.019208 -0.010625 -0.034779 0.01493 -0.010625 -0.061826 0.026133 0.010625 -0.061826 0.026133 0.010625 -0.073029 0.05318 -0.010625 -0.073029 0.05318 0.010625 -0.061826 0.080227 -0.010625 -0.061826 0.080227 -0.010625 -0.034779 0.09143 0.010625 -0.034779 0.09143 0.010625 -0.02716 0.088274 -0.010625 -0.02716 0.088274 -0.010625 -0.073029 0.05318 -0.010625 -0.061826 0.026133 -0.010625 -0.061826 0.080227 -0.010625 -0.059229 0.05318 -0.010625 -0.052068 0.070469 -0.010625 -0.052068 0.035892 -0.010625 -0.034779 0.09143 -0.010625 -0.034779 0.07763 -0.010625 -0.02716 0.088274 -0.010625 -0.02716 0.074474 -0.010625 -0.034779 0.01493 -0.010625 -0.034779 0.028731 -0.010625 -0.024453 0.033008 -0.010625 -0.024453 0.019208 -0.010625 -0.022467 0.03383 -0.010625 -0.022463 0.020032 -0.010625 -0.02716 0.074474 -0.010625 -0.034779 0.07763 0.010625 -0.02716 0.074474 0.010625 -0.034779 0.07763 0.010625 -0.052068 0.070469 -0.010625 -0.052068 0.070469 -0.010625 -0.059229 0.05318 0.010625 -0.059229 0.05318 -0.010625 -0.052068 0.035892 0.010625 -0.052068 0.035892 0.010625 -0.034779 0.028731 -0.010625 -0.034779 0.028731 -0.010625 -0.024453 0.033008 -0.010625 -0.022467 0.03383 0.010625 -0.022467 0.03383</float_array><technique_common><accessor source="#g-p-a" count="124" stride="3"><param name="X" type="float"/><param name="Y" type="float"/><param name="Z" type="float"/></accessor></technique_common></source>
<source id="g-n"><float_array id="g-n-a" count="372">0 0 -1 0 0 -1 0 0 -1 0 0 -1 0 0 -1 0 0 -1 0 0 -1 0 0 -1 0 0 1 0 0 1 0 0 1 0 0 1 0 0 1 0 0 1 0 0 1 0 0 1 -0.70165 0.70165 -0.12403 -0.70165 0.70165 -0.12403 -0.99228 5.0461e-09 -0.12403 -5.0461e-09 0.99228 -0.12403 -0.99228 3.6787e-09 -0.12403 -3.6787e-09 0.99228 -0.12403 0.70165 0.70165 -0.12403 0.70165 0.70165 -0.12403 0.99228 5.0461e-09 -0.12403 0.99228 3.6787e-09 -0.12403 0.70165 -0.70165 -0.12403 0.70165 -0.70165 -0.12403 5.0461e-09 -0.99228 -0.12403 3.6787e-09 -0.99228 -0.12403 -0.70165 -0.70165 -0.12403 -0.70165 -0.70165 -0.12403 0.70512 -0.70512 0.075004 0.70512 -0.70512 0.075004 0.99718 -4.603e-15 0.075004 -4.137e-10 -0.99718 0.075004 0.99718 1.3109e-14 0.075004 -5.0837e-10 -0.99718 0.075004 0.70512 0.70512 0.075004 -0.70512 -0.70512 0.075004 0.70512 0.70512 0.075004 -0.70512 -0.70512 0.075004 5.0836e-10 0.99718 0.075004 4.137e-10 0.99718 0.075004 -0.99718 1.0458e-16 0.075004 -0.99718 1.2462e-14 0.075004 -0.70512 0.70512 0.075004 -0.70512 0.70512 0.075004 0 0 1 0 0 1 0 0 1 0 0 1 0 0 1 0 0 1 0 0 1 0 0 1 0 0 1 0 0 1 0 0 1 0 0 1 0 0 1 0 0 1 0 0 1 0 0 1 1 -2.2204e-16 0 1 -2.2204e-16 0 1 -2.2204e-16 0 1 -2.2204e-16 0 1 -2.2204e-16 0 1 -2.2204e-16 0 1 -2.2204e-16 0 1 -2.2204e-16 0 1 -2.2204e-16 0 1 -2.2204e-16 0 1 -2.2204e-16 0 1 -2.2204e-16 0 1 -2.2204e-16 0 1 -2.2204e-16 0 8.4973e-17 0.38268 -0.92388 -2.0918e-07 0.38268 -0.92388 -8.5203e-09 7.3744e-09 -1 -2.127e-07 0.38268 -0.92388 1.2093e-23 5.4463e-08 -1 -1.5701e-16 -0.70711 -0.70711 -1.5701e-16 -0.70711 -0.70711 -2.2204e-16 -1 4.8697e-08 -2.2204e-16 -1 4.8697e-08 -1.5701e-16 -0.70711 0.70711 -1.5701e-16 -0.70711 0.70711 3.2077e-23 1.4446e-07 1 3.2077e-23 1.4446e-07 1 8.4973e-17 0.38268 0.92388 8.4973e-17 0.38268 0.92388 -1 2.2204e-16 0 -1 2.2204e-16 0 -1 2.2204e-16 0 -1 2.2204e-16 0 -1 2.2204e-16 0 -1 2.2204e-16 0 -1 2.2204e-16 0 -1 2.2204e-16 0 -1 2.2204e-16 0 -1 2.2204e-16 0 -1 2.2204e-16 0 -1 2.2204e-16 0 -1 2.2204e-16 0 -1 2.2204e-16 0 -1 2.2204e-16 0 -1 2.2204e-16 0 -8.4973e-17 -0.38268 -0.92388 6.4573e-23 2.9081e-07 -1 -8.4973e-17 -0.38268 -0.92388 6.4573e-23 2.9081e-07 -1 1.5701e-16 0.70711 -0.70711 1.5701e-16 0.70711 -0.70711 2.2204e-16 1 -7.6183e-08 2.2204e-16 1 -7.6183e-08 1.5701e-16 0.70711 0.70711 1.5701e-16 0.70711 0.70711 -2.2537e-08 -8.7901e-08 1 8.1461e-24 3.6687e-08 1 -5.6382e-07 -0.38268 0.92388 -5.5458e-07 -0.38268 0.92388 -8.4973e-17 -0.38268 0.92388</float_array><technique_common><accessor source="#g-n-a" count="124" stride="3"><param name="X" type="float"/><param name="Y" type="float"/><param name="Z" type="float"/></accessor></technique_common></source>
<vertices id="g-v"><input semantic="POSITION" source="#g-p"/><input semantic="NORMAL" source="#g-n"/></vertices>
<triangles material="m0" count="112"><input semantic="VERTEX" source="#g-v" offset="0"/><p>2 1 0 1 2 3 1 3 4 4 3 5 4 5 6 6 5 7 10 9 8 9 10 11 9 11 12 12 11 13 12 13 14 14 13 15 18 17 16 17 19 16 17 18 20 19 17 21 21 22 19 22 21 23 23 24 22 24 23 25 25 26 24 26 25 27 27 28 26 28 27 29 30 20 18 29 30 28 20 30 31 30 29 31 34 33 32 33 35 32 33 34 36 35 33 37 34 38 36 37 39 35 38 34 40 39 37 41 40 42 38 42 40 43 41 44 39 44 41 45 43 46 42 46 44 45 46 43 47 44 46 47 50 49 48 50 48 51 52 49 50 50 51 53 52 54 49 54 52 55 56 54 55 54 56 57 57 56 58 57 58 59 53 51 60 53 60 61 59 58 62 60 62 61 59 62 63 63 62 60 66 65 64 65 66 67 67 66 68 69 65 67 68 66 70 68 70 71 71 70 72 71 72 73 65 69 74 74 69 75 74 75 76 74 76 77 80 79 78 80 81 79 81 80 82 80 83 82 83 80 84 85 83 84 83 85 86 87 86 85 86 87 88 87 89 88 89 87 90 91 89 90 89 91 92 95 94 93 94 95 96 96 95 97 98 94 96 97 95 99 97 99 100 100 99 101 100 101 102 94 98 103 103 98 104 103 104 105 103 105 106 106 105 107 106 107 108 111 110 109 110 111 112 113 110 112 110 113 114 113 115 114 115 113 116 116 117 115 117 116 118 119 117 118 117 119 120 119 121 120 121 119 122 122 119 123</p></triangles>
</mesh></geometry></library_geometries><library_visual_scenes><visual_scene id="Scene"><node id="n" name="mug"><instance_geometry url="#g"><bind_material><technique_common>
<instance_material symbol="m0" target="#m0"/>
</technique_common></bind_material></instance_geometry></node></visual_scene></library_visual_scenes><scene><instance_visual_scene url="#Scene"/></scene></COLLADA>
