<?xml version="1.0" encoding="utf-8"?>
<COLLADA xmlns="http://www.collada.org/2005/11/COLLADASchema" version="1.4.1">
<asset><contributor><authoring_tool>VATs starter props (see CREDITS.md)</authoring_tool></contributor><unit name="meter" meter="1"/><up_axis>Z_UP</up_axis></asset>
<library_effects>
<effect id="m0-fx"><profile_COMMON><technique sid="common"><lambert><diffuse><color>0.420 0.490 0.580 1</color></diffuse></lambert></technique></profile_COMMON></effect>
<effect id="m1-fx"><profile_COMMON><technique sid="common"><lambert><diffuse><color>0.240 0.250 0.280 1</color></diffuse></lambert></technique></profile_COMMON></effect>
<effect id="m2-fx"><profile_COMMON><technique sid="common"><lambert><diffuse><color>0.620 0.660 0.710 1</color></diffuse></lambert></technique></profile_COMMON></effect>
</library_effects><library_materials>
<material id="m0" name="m0"><instance_effect url="#m0-fx"/></material>
<material id="m1" name="m1"><instance_effect url="#m1-fx"/></material>
<material id="m2" name="m2"><instance_effect url="#m2-fx"/></material>
</library_materials><library_geometries><geometry id="g" name="pen"><mesh>
<source id="g-p"><float_array id="g-p-a" count="1515">-0.0051881 0.00051737 -0.018383 -0.0051881 -0.00051737 -0.018383 -0.0051878 -0.00051977 -0.010983 -0.0051878 0.00051977 -0.010983 -0.0051863 -0.0004619 0.0015657 -0.0051863 0.0004619 0.0015657 -0.0049045 0.0011889 0.0015669 -0.0049107 0.0014693 -0.010982 -0.0049121 0.0014647 -0.018383 -0.0049107 -0.0014693 -0.010982 -0.0049121 -0.0014647 -0.018383 -0.0049045 -0.0011889 0.0015669 -0.0048997 -0.00091956 0.0085944 -0.0051795 -0.00037793 0.0085927 -0.0051795 0.00037793 0.0085927 -0.0048997 0.00091956 0.0085944 -0.0049121 0.0014647 -0.023313 -0.0051857 0.0005171 -0.024037 -0.0051857 -0.0005171 -0.024037 -0.0049121 -0.0014647 -0.023313 -0.004893 0.00054392 -0.01853 -0.004893 0.00054392 -0.011028 -0.004893 -0.00054392 -0.011028 -0.004893 -0.00054392 -0.01853 -0.004893 0.0004689 0.0016926 -0.004893 -0.0004689 0.0016926 -0.0046206 0.0015727 -0.011028 -0.0046206 0.0012382 0.0016926 -0.0046206 0.0015727 -0.01853 -0.0046206 -0.0015727 -0.011028 -0.0046206 -0.0015727 -0.01853 -0.0046206 -0.0012382 0.0016926 -0.0046206 -0.00092129 0.0088161 -0.004893 -0.00036847 0.0088161 -0.004893 0.00036847 0.0088161 -0.0046206 0.00092129 0.0088161 -0.0046206 0.0012382 0.0016926 -0.0046206 0.0015727 -0.011028 -0.0046206 0.0015727 -0.01853 -0.0046206 -0.0015727 -0.01853 -0.0046206 -0.0015727 -0.011028 -0.0046206 -0.0012382 0.0016926 -0.0046206 -0.00092129 0.0088161 -0.004893 -0.00036847 0.0088161 -0.004893 0.00036847 0.0088161 -0.0046206 0.00092129 0.0088161 -0.0046206 0.0015727 -0.023528 -0.004893 0.00054392 -0.024262 -0.004893 -0.00054392 -0.024262 -0.0046206 -0.0015727 -0.023528 -0.004893 0.00054392 -0.024262 -0.0046206 0.0015727 -0.023528 -0.0033886 0.0015727 -0.023528 -0.0036609 0.00054392 -0.024262 -0.0033886 0.0015727 -0.01853 -0.0036609 0.00054392 -0.01853 -0.0036609 -0.00054392 -0.01853 -0.004893 -0.00054392 -0.024262 -0.0036609 -0.00054392 -0.024262 -0.0046206 -0.0015727 -0.023528 -0.0033886 -0.0015727 -0.023528 -0.0033886 -0.0015727 -0.01853 -0.0028919 0 -0.042 -0.0020035 0.0021447 -0.042 0.00014123 0 -0.042 -0.0020035 -0.0021448 -0.042 0.00014123 -0.0030331 -0.042 0.002286 -0.0021447 -0.042 0.0031744 2.7478e-08 -0.042 0.002286 0.0021448 -0.042 0.00014123 0.0030331 -0.042 0.00014123 0.0043016 0.059206 -0.0029005 0.0030417 0.059206 -0.0029005 0.0030417 0.063375 0.00014123 0.0043016 0.063375 0.003183 0.0030417 0.059206 0.003183 0.0030417 0.063375 0.0044429 0 0.059206 0.0044429 0 0.063375 0.003183 -0.0030417 0.059206 0.003183 -0.0030417 0.063375 0.00014123 -0.0043016 0.059206 0.00014123 -0.0043016 0.063375 -0.0029005 -0.0030417 0.059206 -0.0029005 -0.0030417 0.063375 -0.0041604 0 0.059206 -0.0041604 0 0.063375 -0.0029005 0.0030417 0.059206 -0.0029005 0.0030417 0.063375 -0.0024339 0.0025751 0.081707 -0.0035005 0 0.081707 -0.0035005 0 0.083239 -0.0024339 0.0025751 0.083239 -0.0024339 -0.0025751 0.081707 -0.0024339 -0.0025751 0.083239 0.00014123 -0.0036418 0.081707 0.00014123 -0.0036418 0.083239 0.0027163 -0.0025751 0.081707 0.0027163 -0.0025751 0.083239 0.003783 0 0.081707 0.003783 0 0.083239 0.0027163 0.0025751 0.081707 0.0027163 0.0025751 0.083239 0.00014123 0.0036418 0.081707 0.00014123 0.0036418 0.083239 -0.0025329 0.0026741 0.083352 -0.0036406 0 0.083352 -0.0037132 0 0.083595 -0.0025843 0.0027255 0.083595 -0.0025329 -0.0026741 0.083352 -0.0025843 -0.0027255 0.083595 0.00014123 -0.0037818 0.083352 0.00014123 -0.0038544 0.083595 0.0028154 -0.0026741 0.083352 0.0028667 -0.0027255 0.083595 0.0039231 0 0.083352 0.0039957 0 0.083595 0.0028154 0.0026741 0.083352 0.0028667 0.0027255 0.083595 0.00014123 0.0037818 0.083352 0.00014123 0.0038544 0.083595 -0.0024339 0.0025751 0.083951 -0.0035005 0 0.083951 -0.0015252 0 0.095072 -0.0010371 0.0011784 0.095072 -0.0024339 -0.0025751 0.083951 -0.0010371 -0.0011784 0.095072 0.00014123 -0.0036418 0.083951 0.00014123 -0.0016665 0.095072 0.0027163 -0.0025751 0.083951 0.0013196 -0.0011783 0.095072 0.003783 0 0.083951 0.0018077 0 0.095072 0.0027163 0.0025751 0.083951 0.0013196 0.0011783 0.095072 0.00014123 0.0036418 0.083951 0.00014123 0.0016665 0.095072 -0.0010157 0 0.095072 -0.00067683 0.00081806 0.095072 -0.00067683 -0.00081806 0.095072 0.00014123 -0.0011569 0.095072 0.0009593 -0.00081806 0.095072 0.0012981 0 0.095072 0.0009593 0.00081806 0.095072 0.00014123 0.0011569 0.095072 -0.0010157 0 0.094666 -0.00067683 0.00081806 0.094666 -0.00067683 -0.00081806 0.094666 0.00014123 -0.0011569 0.094666 0.0009593 -0.00081806 0.094666 0.0012981 0 0.094666 0.0009593 0.00081806 0.094666 0.00014123 0.0011569 0.094666 -0.0024339 0.0025751 0.083239 -0.0035005 0 0.083239 -0.0036406 0 0.083352 -0.0025329 0.0026741 0.083352 -0.0035005 0 0.083951 -0.0024339 0.0025751 0.083951 -0.0025329 0.0026741 0.083838 -0.0036406 0 0.083838 -0.0024339 -0.0025751 0.083239 -0.0025329 -0.0026741 0.083352 -0.0024339 -0.0025751 0.083951 -0.0025329 -0.0026741 0.083838 0.00014123 -0.0036418 0.083239 0.00014123 -0.0037818 0.083352 0.00014123 -0.0036418 0.083951 0.00014123 -0.0037818 0.083838 0.0027163 -0.0025751 0.083239 0.0028154 -0.0026741 0.083352 0.0027163 -0.0025751 0.083951 0.0028154 -0.0026741 0.083838 0.003783 0 0.083239 0.0039231 0 0.083352 0.003783 0 0.083951 0.0039231 0 0.083838 0.0027163 0.0025751 0.083239 0.0028154 0.0026741 0.083352 0.0027163 0.0025751 0.083951 0.0028154 0.0026741 0.083838 0.00014123 0.0036418 0.083239 0.00014123 0.0037818 0.083352 0.00014123 0.0036418 0.083951 0.00014123 0.0037818 0.083838 -0.0025843 0.0027255 0.083595 -0.0037132 0 0.083595 0.00014123 0.0038544 0.083595 0.0028667 0.0027255 0.083595 0.0039957 0 0.083595 0.0028667 -0.0027255 0.083595 0.00014123 -0.0038544 0.083595 -0.0025843 -0.0027255 0.083595 -0.0047805 0 0.015721 -0.003339 0.0034802 0.015721 -0.003339 0.0034802 0.015259 -0.0047805 0 0.015259 -0.003339 -0.0034802 0.015721 -0.003339 -0.0034802 0.015259 0.00014123 -0.0049218 0.015721 0.00014123 -0.0049218 0.015259 0.0036215 -0.0034802 0.015721 0.0036215 -0.0034802 0.015259 0.005063 0 0.015721 0.005063 0 0.015259 0.0036215 0.0034802 0.015721 0.0036215 0.0034802 0.015259 0.00014123 0.0049218 0.015721 0.00014123 0.0049218 0.015259 -0.0044552 -2.7478e-08 -0.035023 -0.0031089 0.0032502 -0.035023 -0.0028882 0.0030294 -0.037789 -0.004143 -2.7478e-08 -0.037789 -0.0031089 -0.0032502 -0.035023 -0.0028882 -0.0030294 -0.037789 0.00014123 -0.0045964 -0.035023 0.00014123 -0.0042842 -0.037789 0.0033914 -0.0032502 -0.035023 0.0031706 -0.0030294 -0.037789 0.0047376 2.7478e-08 -0.035023 0.0044255 2.7478e-08 -0.037789 0.0033914 0.0032502 -0.035023 0.0031706 0.0030294 -0.037789 0.00014123 0.0045964 -0.035023 0.00014123 0.0042842 -0.037789 -0.0020035 0.0021447 -0.042 -0.0028919 0 -0.042 -0.0020035 -0.0021448 -0.042 0.00014123 -0.0030331 -0.042 0.002286 -0.0021447 -0.042 0.0031744 2.7478e-08 -0.042 0.002286 0.0021448 -0.042 0.00014123 0.0030331 -0.042 -0.0042747 0 0.015763 -0.0029813 0.0031225 0.015763 -0.003339 0.0034802 0.015721 -0.0047805 0 0.015721 -0.0029813 -0.0031225 0.015763 -0.003339 -0.0034802 0.015721 0.00014123 -0.0044159 0.015763 0.00014123 -0.0049218 0.015721 0.0032637 -0.0031225 0.015763 0.0036215 -0.0034802 0.015721 0.0045571 0 0.015763 0.005063 0 0.015721 0.0032637 0.0031225 0.015763 0.0036215 0.0034802 0.015721 0.00014123 0.0044159 0.015763 0.00014123 0.0049218 0.015721 -0.0031089 0.0032502 -0.035023 -0.0044552 -2.7478e-08 -0.035023 -0.0043102 -2.7478e-08 -0.035022 -0.0030064 0.0031476 -0.035022 -0.0044552 -2.7478e-08 -0.035023 -0.0031089 -0.0032502 -0.035023 -0.0030064 -0.0031477 -0.035022 -0.0043102 -2.7478e-08 -0.035022 -0.0031089 -0.0032502 -0.035023 0.00014123 -0.0045964 -0.035023 0.00014123 -0.0044514 -0.035022 -0.0030064 -0.0031477 -0.035022 0.00014123 -0.0045964 -0.035023 0.0033914 -0.0032502 -0.035023 0.0032889 -0.0031476 -0.035022 0.00014123 -0.0044514 -0.035022 0.0033914 -0.0032502 -0.035023 0.0047376 2.7478e-08 -0.035023 0.0045927 2.7478e-08 -0.035022 0.0032889 -0.0031476 -0.035022 0.0047376 2.7478e-08 -0.035023 0.0033914 0.0032502 -0.035023 0.0032889 0.0031477 -0.035022 0.0045927 2.7478e-08 -0.035022 0.0033914 0.0032502 -0.035023 0.00014123 0.0045964 -0.035023 0.00014123 0.0044514 -0.035022 0.0032889 0.0031477 -0.035022 0.00014123 0.0045964 -0.035023 -0.0031089 0.0032502 -0.035023 -0.0030064 0.0031476 -0.035022 0.00014123 0.0044514 -0.035022 -0.0049057 0 0.015259 -0.0034275 0.0035687 0.015259 -0.0034275 0.0035687 0.013836 -0.0049057 0 0.013836 -0.0034275 -0.0035687 0.015259 -0.0034275 -0.0035687 0.013836 0.00014123 -0.0050469 0.015259 0.00014123 -0.0050469 0.013836 0.0037099 -0.0035687 0.015259 0.0037099 -0.0035687 0.013836 0.0051881 0 0.015259 0.0051881 0 0.013836 0.0037099 0.0035687 0.015259 0.0037099 0.0035687 0.013836 0.00014123 0.0050469 0.015259 0.00014123 0.0050469 0.013836 -0.0047805 0 0.015259 -0.003339 0.0034802 0.015259 -0.004663 0 0.013794 -0.0032559 0.0033971 0.013794 -0.003339 -0.0034802 0.015259 -0.0032559 -0.0033971 0.013794 0.00014123 -0.0049218 0.015259 0.00014123 -0.0048043 0.013794 0.0036215 -0.0034802 0.015259 0.0035384 -0.0033971 0.013794 0.005063 0 0.015259 0.0049455 0 0.013794 0.0036215 0.0034802 0.015259 0.0035384 0.0033971 0.013794 0.00014123 0.0049218 0.015259 0.00014123 0.0048043 0.013794 -0.0029813 0.0031225 0.015763 -0.0042747 0 0.015763 -0.0042747 0 0.059206 -0.0029813 0.0031225 0.059206 -0.0029813 -0.0031225 0.015763 -0.0029813 -0.0031225 0.059206 0.00014123 -0.0044159 0.015763 0.00014123 -0.0044159 0.059206 0.0032637 -0.0031225 0.015763 0.0032637 -0.0031225 0.059206 0.0045571 0 0.015763 0.0045571 0 0.059206 0.0032637 0.0031225 0.015763 0.0032637 0.0031225 0.059206 0.00014123 0.0044159 0.015763 0.00014123 0.0044159 0.059206 -0.0029813 0.0031225 0.015763 -0.0029813 0.0031225 0.059206 0.00014123 0.0044159 0.063375 -0.0029813 0.0031225 0.063375 -0.0026255 0.0027667 0.081707 0.00014123 0.0039127 0.081707 0.0032637 0.0031225 0.063375 0.0029079 0.0027667 0.081707 0.0045571 0 0.063375 0.0040539 0 0.081707 0.0032637 -0.0031225 0.063375 0.0029079 -0.0027667 0.081707 0.00014123 -0.0044159 0.063375 0.00014123 -0.0039127 0.081707 -0.0029813 -0.0031225 0.063375 -0.0026255 -0.0027667 0.081707 -0.0042747 0 0.063375 -0.0037715 0 0.081707 -0.0029813 0.0031225 0.063375 -0.0026255 0.0027667 0.081707 -0.0026255 0.0027667 0.081707 -0.0037715 0 0.081707 -0.0035005 0 0.081707 -0.0024339 0.0025751 0.081707 -0.0026255 -0.0027667 0.081707 -0.0024339 -0.0025751 0.081707 0.00014123 -0.0039127 0.081707 0.00014123 -0.0036418 0.081707 0.0029079 -0.0027667 0.081707 0.0027163 -0.0025751 0.081707 0.0040539 0 0.081707 0.003783 0 0.081707 0.0029079 0.0027667 0.081707 0.0027163 0.0025751 0.081707 0.00014123 0.0039127 0.081707 0.00014123 0.0036418 0.081707 0.00014123 0.0044159 0.059206 -0.0029813 0.0031225 0.059206 -0.0029005 0.0030417 0.059206 0.00014123 0.0043016 0.059206 -0.0029813 0.0031225 0.063375 0.00014123 0.0044159 0.063375 0.00014123 0.0043016 0.063375 -0.0029005 0.0030417 0.063375 0.0032637 0.0031225 0.059206 0.003183 0.0030417 0.059206 0.0032637 0.0031225 0.063375 0.003183 0.0030417 0.063375 0.0045571 0 0.059206 0.0044429 0 0.059206 0.0045571 0 0.063375 0.0044429 0 0.063375 0.0032637 -0.0031225 0.059206 0.003183 -0.0030417 0.059206 0.0032637 -0.0031225 0.063375 0.003183 -0.0030417 0.063375 0.00014123 -0.0044159 0.059206 0.00014123 -0.0043016 0.059206 0.00014123 -0.0044159 0.063375 0.00014123 -0.0043016 0.063375 -0.0029813 -0.0031225 0.059206 -0.0029005 -0.0030417 0.059206 -0.0029813 -0.0031225 0.063375 -0.0029005 -0.0030417 0.063375 -0.0042747 0 0.059206 -0.0041604 0 0.059206 -0.0042747 0 0.063375 -0.0041604 0 0.063375 -0.0029813 0.0031225 0.059206 -0.0029005 0.0030417 0.059206 -0.0029813 0.0031225 0.063375 -0.0029005 0.0030417 0.063375 -0.004663 0 0.013794 -0.0032559 0.0033971 0.013794 -0.0031101 0.0032514 -0.034774 -0.0044569 -2.7478e-08 -0.034774 -0.0032559 -0.0033971 0.013794 -0.0031101 -0.0032514 -0.034774 0.00014123 -0.0048043 0.013794 0.00014123 -0.0045981 -0.034774 0.0035384 -0.0033971 0.013794 0.0033926 -0.0032514 -0.034774 0.0049455 0 0.013794 0.0047394 2.7478e-08 -0.034774 0.0035384 0.0033971 0.013794 0.0033926 0.0032514 -0.034774 0.00014123 0.0048043 0.013794 0.00014123 0.0045981 -0.034774 -0.0043119 -2.7478e-08 -0.034773 -0.0030076 0.0031489 -0.034773 -0.0030064 0.0031476 -0.035022 -0.0043102 -2.7478e-08 -0.035022 -0.0030076 -0.0031489 -0.034773 -0.0030064 -0.0031477 -0.035022 0.00014123 -0.0044532 -0.034773 0.00014123 -0.0044514 -0.035022 0.0032901 -0.0031489 -0.034773 0.0032889 -0.0031476 -0.035022 0.0045944 2.7478e-08 -0.034773 0.0045927 2.7478e-08 -0.035022 0.0032901 0.0031489 -0.034773 0.0032889 0.0031477 -0.035022 0.00014123 0.0044532 -0.034773 0.00014123 0.0044514 -0.035022 -0.0044569 -2.7478e-08 -0.034774 -0.0031101 0.0032514 -0.034774 -0.0031101 -0.0032514 -0.034774 -0.0044569 -2.7478e-08 -0.034774 -0.0043119 -2.7478e-08 -0.034773 -0.0030076 -0.0031489 -0.034773 0.00014123 -0.0045981 -0.034774 -0.0031101 -0.0032514 -0.034774 -0.0030076 -0.0031489 -0.034773 0.00014123 -0.0044532 -0.034773 0.0033926 -0.0032514 -0.034774 0.00014123 -0.0045981 -0.034774 0.00014123 -0.0044532 -0.034773 0.0032901 -0.0031489 -0.034773 0.0047394 2.7478e-08 -0.034774 0.0033926 -0.0032514 -0.034774 0.0032901 -0.0031489 -0.034773 0.0045944 2.7478e-08 -0.034773 0.0033926 0.0032514 -0.034774 0.0047394 2.7478e-08 -0.034774 0.0045944 2.7478e-08 -0.034773 0.0032901 0.0031489 -0.034773 0.00014123 0.0045981 -0.034774 0.0033926 0.0032514 -0.034774 0.0032901 0.0031489 -0.034773 0.00014123 0.0044532 -0.034773 -0.0031101 0.0032514 -0.034774 0.00014123 0.0045981 -0.034774 0.00014123 0.0044532 -0.034773 -0.0030076 0.0031489 -0.034773 9.1502e-06 0.00013208 0.098 -4.5558e-05 0 0.098 0.00014123 0 0.098 9.1502e-06 -0.00013208 0.098 0.00014123 -0.00018679 0.098 0.00027332 -0.00013208 0.098 0.00032803 0 0.098 0.00027332 0.00013208 0.098 0.00014123 0.00018679 0.098 -0.00063022 0.00077149 0.094666 0.00014123 0 0.094666 -0.00094979 0 0.094666 -0.00063022 -0.00077149 0.094666 0.00014123 -0.001091 0.094666 0.00091269 -0.00077149 0.094666 0.0012323 0 0.094666 0.00091272 0.00077149 0.094666 0.00014123 0.001091 0.094666 -0.00063022 0.00077149 0.094666 -0.00094979 0 0.094666 -0.00094979 0 0.095643 -0.00063022 0.00077146 0.095643 -0.00063022 -0.00077149 0.094666 -0.00063022 -0.00077149 0.095643 0.00014123 -0.001091 0.094666 0.00014123 -0.001091 0.095643 0.00091269 -0.00077149 0.094666 0.00091269 -0.00077146 0.095643 0.0012323 0 0.094666 0.0012323 0 0.095643 0.00091272 0.00077149 0.094666 0.00091272 0.00077149 0.095643 0.00014123 0.001091 0.094666 0.00014123 0.001091 0.095643 -0.00021163 0 0.097791 -0.00010829 0.00024952 0.097791 -0.00010829 -0.00024952 0.097791 0.00014123 -0.00035287 0.097791 0.00039076 -0.00024952 0.097791 0.0004941 0 0.097791 0.00039076 0.00024952 0.097791 0.00014123 0.00035287 0.097791</float_array><technique_common><accessor source="#g-p-a" count="505" stride="3"><param name="X" type="float"/><param name="Y" type="float"/><param name="Z" type="float"/></accessor></technique_common></source>
<source id="g-n"><float_array id="g-n-a" count="1515">-0.98997 0.14127 -0.00020303 -0.98998 -0.14119 -0.00012175 -0.98991 -0.1417 0.00040221 -0.98991 0.14171 0.00038883 -0.98307 -0.18318 0.0036872 -0.98279 0.18461 0.0059467 -0.63688 0.7706 0.023768 -0.72415 0.6896 0.0079831 -0.7318 0.68152 -0.00010674 -0.72414 -0.68961 0.0079979 -0.73175 -0.68157 -1.477e-05 -0.63579 -0.77157 0.021355 -0.56404 -0.75621 0.33167 -0.887 -0.20349 0.41451 -0.88689 0.20711 0.41295 -0.56701 0.75387 0.33193 -0.72164 0.67056 -0.17202 -0.85328 0.2536 -0.45564 -0.85694 -0.24347 -0.45429 -0.72171 -0.67282 -0.16261 0.72783 -0.094715 0.67918 0.9915 -0.13011 -0.0016541 0.9915 0.13011 -0.0016541 0.72783 0.094715 0.67918 0.98549 -0.16974 -0.0017012 0.98521 0.17133 -0.0041778 0.96669 -0.25593 -0.003337 0.94231 -0.33472 -0.0038467 0.57314 0.44115 0.69058 0.96669 0.25593 -0.003337 0.57314 -0.44115 0.69058 0.94336 0.33167 -0.0083969 0.90067 0.43445 -0.0068453 0.97436 0.22496 -0.0031715 0.97527 -0.22079 -0.0094455 0.89687 -0.44186 -0.019657 -0.18747 0.98162 0.035659 -0.33426 0.94242 0.010923 -0.34711 0.93782 7.7074e-17 -0.34711 -0.93782 7.7074e-17 -0.33426 -0.94242 0.010923 -0.18747 -0.98162 0.035659 -0.43188 -0.72173 0.54091 -0.60385 -0.15779 0.78132 -0.60566 0.16294 0.77887 -0.43667 0.71964 0.53985 -0.54619 0.75576 -0.36126 -0.60579 0.31088 -0.73238 -0.59848 -0.30016 -0.74278 -0.5304 -0.76885 -0.35714 -2.1299e-16 0.28261 -0.95923 -1.0807e-16 0.87358 -0.48669 -9.425e-17 0.90544 -0.42447 -2.1007e-16 0.32401 -0.94606 1.4234e-16 0.7675 0.64105 2.2204e-16 0 1 2.2204e-16 0 1 -2.1299e-16 -0.28261 -0.95923 -2.1007e-16 -0.32401 -0.94606 -1.0807e-16 -0.87358 -0.48669 -9.425e-17 -0.90544 -0.42447 1.4234e-16 -0.7675 0.64105 -2.2204e-16 0 -1 -2.2204e-16 0 -1 -2.2204e-16 0 -1 -2.2204e-16 0 -1 -2.2204e-16 0 -1 -2.2204e-16 0 -1 -2.2204e-16 0 -1 -2.2204e-16 0 -1 -2.2204e-16 0 -1 -3.8251e-17 1 8.4934e-33 -0.38268 0.92388 8.4971e-17 -0.38268 0.92388 8.4971e-17 1.9126e-17 1 -4.2467e-33 0.70711 0.70711 -1.5701e-16 0.70711 0.70711 -1.5701e-16 1 3.8251e-17 -2.2204e-16 1 -1.9126e-17 -2.2204e-16 0.70711 -0.70711 -1.5701e-16 0.70711 -0.70711 -1.5701e-16 9.5628e-17 -1 -2.1234e-32 -1.1475e-16 -1 2.548e-32 -0.70711 -0.70711 1.5701e-16 -0.70711 -0.70711 1.5701e-16 -1 -9.5628e-17 2.2204e-16 -1 1.1475e-16 2.2204e-16 -0.92388 0.38268 2.0514e-16 -0.92388 0.38268 2.0514e-16 -0.70711 0.70711 1.5701e-16 -1 1.1475e-16 2.2204e-16 -1 -1.3388e-16 2.2204e-16 -0.70711 0.70711 1.5701e-16 -0.70711 -0.70711 1.5701e-16 -0.70711 -0.70711 1.5701e-16 -1.1475e-16 -1 2.548e-32 1.3388e-16 -1 -2.9727e-32 0.70711 -0.70711 -1.5701e-16 0.70711 -0.70711 -1.5701e-16 1 0 -2.2204e-16 1 0 -2.2204e-16 0.70711 0.70711 -1.5701e-16 0.70711 0.70711 -1.5701e-16 0 1 0 0 1 0 -0.67749 0.67749 -0.28638 -0.95812 -6.6537e-07 -0.28636 -0.95812 -5.6916e-07 -0.28636 -0.67749 0.67749 -0.28638 -0.67749 -0.67749 -0.28638 -0.67749 -0.67749 -0.28638 6.6537e-07 -0.95812 -0.28636 5.6916e-07 -0.95812 -0.28636 0.67749 -0.67749 -0.28638 0.67749 -0.67749 -0.28638 0.95812 -6.6537e-07 -0.28636 0.95812 -5.6916e-07 -0.28636 0.67749 0.67749 -0.28638 0.67749 0.67749 -0.28638 6.6537e-07 0.95812 -0.28636 5.6916e-07 0.95812 -0.28636 -0.69621 0.69621 0.17488 -0.98459 2.5661e-07 0.17488 -0.719 4.5782e-07 0.69501 -0.50841 0.50841 0.69501 -0.69621 -0.69621 0.17488 -0.50841 -0.50841 0.69501 1.308e-07 -0.98459 0.17488 6.5498e-06 -0.719 0.69501 0.69621 -0.69621 0.17488 0.50841 -0.50841 0.69501 0.98459 5.3055e-07 0.17488 0.719 9.4659e-07 0.69501 0.69621 0.69621 0.17488 0.50841 0.50841 0.69501 1.308e-07 0.98459 0.17488 6.5498e-06 0.719 0.69501 0.59438 -5.6839e-18 0.80419 0.42029 -0.42029 0.80419 0.42029 0.42029 0.80419 1.8425e-16 0.59438 0.80419 -0.42029 0.42029 0.80419 -0.59438 2.2736e-17 0.80419 -0.42029 -0.42029 0.80419 1.5583e-16 -0.59438 0.80419 1 0 -2.2204e-16 0.70711 -0.70711 -1.5701e-16 0.70711 0.70711 -1.5701e-16 0 1 0 -0.70711 0.70711 1.5701e-16 -1 -4.7814e-17 2.2204e-16 -0.70711 -0.70711 1.5701e-16 4.7814e-17 -1 -1.0617e-32 -0.44386 0.44386 -0.77844 -0.62771 5.678e-07 -0.77845 -0.62771 3.7069e-07 -0.77845 -0.44386 0.44386 -0.77844 -0.62772 5.6781e-07 0.77844 -0.44387 0.44387 0.77843 -0.6013 0.6013 0.52618 -0.85037 5.6052e-07 0.52618 -0.44386 -0.44386 -0.77844 -0.44386 -0.44386 -0.77844 -0.44387 -0.44387 0.77843 -0.6013 -0.6013 0.52618 -5.678e-07 -0.62771 -0.77845 -3.7069e-07 -0.62771 -0.77845 -5.6781e-07 -0.62772 0.77844 -5.6052e-07 -0.85037 0.52618 0.44386 -0.44386 -0.77844 0.44386 -0.44386 -0.77844 0.44387 -0.44387 0.77843 0.6013 -0.6013 0.52618 0.62771 -5.678e-07 -0.77845 0.62771 -3.7069e-07 -0.77845 0.62772 -5.6781e-07 0.77844 0.85037 2.1917e-07 0.52618 0.44386 0.44386 -0.77844 0.44386 0.44386 -0.77844 0.44387 0.44387 0.77843 0.6013 0.6013 0.52618 5.678e-07 0.62771 -0.77845 3.7069e-07 0.62771 -0.77845 5.6781e-07 0.62772 0.77844 -2.1917e-07 0.85037 0.52618 -0.67749 0.67749 0.28638 -0.95812 5.6916e-07 0.28637 -5.6916e-07 0.95812 0.28637 0.67749 0.67749 0.28638 0.95812 5.6916e-07 0.28637 0.67749 -0.67749 0.28638 -5.6916e-07 -0.95812 0.28637 -0.67749 -0.67749 0.28638 -1 2.6776e-16 2.2204e-16 -0.70711 0.70711 1.5701e-16 -0.70711 0.70711 1.5701e-16 -1 -2.6776e-16 2.2204e-16 -0.70711 -0.70711 1.5701e-16 -0.70711 -0.70711 1.5701e-16 -2.6776e-16 -1 5.9454e-32 2.6776e-16 -1 -5.9454e-32 0.70711 -0.70711 -1.5701e-16 0.70711 -0.70711 -1.5701e-16 1 0 -2.2204e-16 1 0 -2.2204e-16 0.70711 0.70711 -1.5701e-16 0.70711 0.70711 -1.5701e-16 0 1 0 0 1 0 -0.99369 -4.4357e-06 -0.11215 -0.70265 0.70264 -0.11215 -0.69351 0.69351 -0.19517 -0.98077 -4.7912e-06 -0.19517 -0.70265 -0.70265 -0.11216 -0.69351 -0.69351 -0.19517 1.4863e-06 -0.99369 -0.11215 1.5856e-06 -0.98077 -0.19517 0.70265 -0.70264 -0.11216 0.69351 -0.69351 -0.19517 0.99369 1.4631e-06 -0.11215 0.98077 1.5652e-06 -0.19517 0.70264 0.70265 -0.11216 0.69351 0.69351 -0.19517 1.4863e-06 0.99369 -0.11215 1.8732e-07 0.98077 -0.19517 -0.67783 0.67783 -0.28478 -0.95859 -2.388e-06 -0.28478 -0.67782 -0.67783 -0.28478 5.6456e-06 -0.95859 -0.28478 0.67783 -0.67783 -0.28478 0.95859 6.389e-07 -0.28478 0.67782 0.67783 -0.28478 -4.2872e-06 0.95859 -0.28478 -0.083249 -2.569e-07 0.99653 -0.058864 0.058864 0.99653 -0.058864 0.058864 0.99653 -0.083249 -1.3929e-07 0.99653 -0.058864 -0.058864 0.99653 -0.058864 -0.058864 0.99653 2.569e-07 -0.083249 0.99653 1.3929e-07 -0.083249 0.99653 0.058864 -0.058864 0.99653 0.058864 -0.058864 0.99653 0.083249 2.569e-07 0.99653 0.083249 1.3929e-07 0.99653 0.058864 0.058864 0.99653 0.058864 0.058864 0.99653 -2.569e-07 0.083249 0.99653 -1.3929e-07 0.083249 0.99653 -0.0070036 0.0029009 0.99997 -0.0070041 0.0029011 0.99997 -0.0070041 0.0029011 0.99997 -0.0070036 0.0029009 0.99997 -0.0070041 -0.0029012 0.99997 -0.0070041 -0.0029012 0.99997 -0.0070041 -0.0029012 0.99997 -0.0070041 -0.0029012 0.99997 -0.0029014 -0.0070049 0.99997 -0.0029012 -0.0070041 0.99997 -0.0029012 -0.0070041 0.99997 -0.0029015 -0.007005 0.99997 0.0029012 -0.0070041 0.99997 0.0029009 -0.0070036 0.99997 0.0029009 -0.0070036 0.99997 0.0029012 -0.0070041 0.99997 0.0070036 -0.0029009 0.99997 0.0070041 -0.0029011 0.99997 0.0070041 -0.0029011 0.99997 0.0070036 -0.0029009 0.99997 0.0070041 0.0029012 0.99997 0.0070041 0.0029012 0.99997 0.0070041 0.0029012 0.99997 0.0070041 0.0029012 0.99997 0.0029014 0.0070049 0.99997 0.0029012 0.0070041 0.99997 0.0029012 0.0070041 0.99997 0.0029015 0.007005 0.99997 -0.0029012 0.0070041 0.99997 -0.0029009 0.0070036 0.99997 -0.0029009 0.0070036 0.99997 -0.0029012 0.0070041 0.99997 -0.77638 2.9698e-17 0.63026 -0.54898 0.54898 0.63026 -0.5783 0.5783 -0.57545 -0.81784 -1.6841e-07 -0.57545 -0.54898 -0.54898 0.63026 -0.5783 -0.5783 -0.57545 1.1025e-16 -0.77638 0.63026 1.6841e-07 -0.81784 -0.57545 0.54898 -0.54898 0.63026 0.5783 -0.5783 -0.57545 0.77638 -2.9698e-17 0.63026 0.81784 1.6841e-07 -0.57545 0.54898 0.54898 0.63026 0.5783 0.5783 -0.57545 1.6964e-16 0.77638 0.63026 -1.6841e-07 0.81784 -0.57545 2.2204e-16 0 1 2.2204e-16 0 1 -0.17158 -5.018e-07 -0.98517 -0.12133 0.12133 -0.98517 2.2204e-16 0 1 -0.12133 -0.12133 -0.98517 2.2204e-16 0 1 5.018e-07 -0.17158 -0.98517 2.2204e-16 0 1 0.12133 -0.12133 -0.98517 2.2204e-16 0 1 0.17158 5.018e-07 -0.98517 2.2204e-16 0 1 0.12133 0.12133 -0.98517 2.2204e-16 0 1 -5.018e-07 0.17158 -0.98517 -0.92388 0.38269 2.0514e-16 -1 3.8251e-17 2.2204e-16 -1 -3.8251e-17 2.2204e-16 -0.92388 0.38269 2.0514e-16 -0.70711 -0.70711 1.5701e-16 -0.70711 -0.70711 1.5701e-16 -3.8251e-17 -1 8.4935e-33 3.8251e-17 -1 -8.4935e-33 0.70711 -0.70711 -1.5701e-16 0.70711 -0.70711 -1.5701e-16 1 -3.8251e-17 -2.2204e-16 1 3.8251e-17 -2.2204e-16 0.70711 0.70711 -1.5701e-16 0.70711 0.70711 -1.5701e-16 3.8251e-17 1 -8.4935e-33 -3.8251e-17 1 8.4935e-33 -0.38269 0.92388 8.4974e-17 -0.38269 0.92388 8.4974e-17 1.1901e-07 0.99962 0.027439 -0.38256 0.92358 0.025352 -0.38256 0.92358 0.025352 1.3668e-07 0.99962 0.027439 0.70684 0.70684 0.027439 0.70684 0.70684 0.027439 0.99962 -1.1901e-07 0.027439 0.99962 -1.3668e-07 0.027439 0.70684 -0.70684 0.027439 0.70684 -0.70684 0.027439 1.1901e-07 -0.99962 0.027439 1.3668e-07 -0.99962 0.027439 -0.70684 -0.70684 0.027439 -0.70684 -0.70684 0.027439 -0.99962 -1.1901e-07 0.027439 -0.99962 -1.3668e-07 0.027439 -0.92358 0.38256 0.025352 -0.92358 0.38256 0.025352 2.2204e-16 0 1 2.2204e-16 0 1 2.2204e-16 0 1 2.2204e-16 0 1 2.2204e-16 0 1 2.2204e-16 0 1 2.2204e-16 0 1 2.2204e-16 0 1 2.2204e-16 0 1 2.2204e-16 0 1 2.2204e-16 0 1 2.2204e-16 0 1 2.2204e-16 0 1 2.2204e-16 0 1 2.2204e-16 0 1 2.2204e-16 0 1 2.2204e-16 0 1 2.2204e-16 0 1 2.2204e-16 0 1 2.2204e-16 0 1 -2.2204e-16 0 -1 -2.2204e-16 0 -1 -2.2204e-16 0 -1 -2.2204e-16 0 -1 2.2204e-16 0 1 2.2204e-16 0 1 -2.2204e-16 0 -1 -2.2204e-16 0 -1 2.2204e-16 0 1 2.2204e-16 0 1 -2.2204e-16 0 -1 -2.2204e-16 0 -1 2.2204e-16 0 1 2.2204e-16 0 1 -2.2204e-16 0 -1 -2.2204e-16 0 -1 2.2204e-16 0 1 2.2204e-16 0 1 -2.2204e-16 0 -1 -2.2204e-16 0 -1 2.2204e-16 0 1 2.2204e-16 0 1 -2.2204e-16 0 -1 -2.2204e-16 0 -1 2.2204e-16 0 1 2.2204e-16 0 1 -2.2204e-16 0 -1 -2.2204e-16 0 -1 2.2204e-16 0 1 2.2204e-16 0 1 -2.2204e-16 0 -1 -2.2204e-16 0 -1 -0.99999 -9.2039e-08 -0.004244 -0.7071 0.7071 -0.0042438 -0.7071 0.7071 -0.0042444 -0.99999 -2.7607e-06 -0.0042439 -0.7071 -0.7071 -0.0042439 -0.7071 -0.7071 -0.0042436 2.3073e-07 -0.99999 -0.004244 3.6985e-06 -0.99999 -0.0042437 0.7071 -0.7071 -0.0042444 0.7071 -0.7071 -0.0042438 0.99999 -2.9899e-07 -0.0042439 0.99999 1.3842e-06 -0.004244 0.7071 0.7071 -0.0042437 0.7071 0.7071 -0.0042439 6.3932e-08 0.99999 -0.0042437 -2.4229e-06 0.99999 -0.004244 -0.82384 -0.0016382 -0.56682 -0.5814 0.58371 -0.5668 -0.70709 0.70709 -0.0070405 -0.99997 -2.5914e-07 -0.0070793 -0.70709 -0.70709 -0.0070409 -0.70709 -0.70709 -0.0070408 2.4393e-06 -0.99997 -0.0070793 2.4487e-06 -0.99997 -0.0070792 0.70709 -0.70709 -0.0070405 0.70709 -0.70709 -0.0070423 0.99997 2.8152e-06 -0.0070793 0.99997 2.8248e-06 -0.0070793 0.70709 0.70709 -0.0070408 0.70709 0.70709 -0.0070408 -5.0117e-06 0.99997 -0.0070792 -5.0308e-06 0.99997 -0.0070793 0.0070493 -0.00292 -0.99997 0.0070506 -0.0029204 -0.99997 0.0072257 0.0030011 -0.99997 0.0070551 0.0029226 -0.99997 0.0070493 0.0029199 -0.99997 0.0072222 0.0029995 -0.99997 0.0029948 0.00723 -0.99997 0.0029953 0.0072314 -0.99997 0.0029953 0.0072314 -0.99997 0.0029948 0.0072301 -0.99997 -0.0029954 0.0072314 -0.99997 -0.0029948 0.0072301 -0.99997 -0.0029948 0.00723 -0.99997 -0.0029954 0.0072313 -0.99997 -0.0070493 0.002928 -0.99997 -0.0072255 0.0029931 -0.99997 -0.0072314 0.0029953 -0.99997 -0.0070529 0.0029293 -0.99997 -0.0072257 -0.0030011 -0.99997 -0.0070551 -0.0029226 -0.99997 -0.0070493 -0.0029199 -0.99997 -0.0072222 -0.0029995 -0.99997 -0.0029948 -0.00723 -0.99997 -0.0029953 -0.0072314 -0.99997 -0.0029953 -0.0072314 -0.99997 -0.0029948 -0.0072301 -0.99997 0.0029148 -0.0070563 -0.99997 0.0029922 -0.0072243 -0.99997 0.0029948 -0.00723 -0.99997 0.0029164 -0.0070597 -0.99997 -0.36395 0.36395 0.85737 -0.5147 3.8037e-06 0.85737 2.2204e-16 0 1 -0.36395 -0.36395 0.85737 -3.8037e-06 -0.5147 0.85737 0.36395 -0.36395 0.85737 0.5147 3.8037e-06 0.85737 0.36395 0.36395 0.85737 -3.8037e-06 0.5147 0.85737 -2.2204e-16 0 -1 -2.2204e-16 0 -1 -2.2204e-16 0 -1 -2.2204e-16 0 -1 -2.2204e-16 0 -1 -2.2204e-16 0 -1 -2.2204e-16 0 -1 -2.2204e-16 0 -1 -2.2204e-16 0 -1 -0.7071 0.70712 1.9902e-05 -1 2.8365e-06 3.2038e-06 -0.98735 5.0641e-06 0.15858 -0.69816 0.69816 0.15858 -0.7071 -0.70711 1.5701e-16 -0.69815 -0.69817 0.15858 7.6502e-17 -1 -1.6987e-32 1.1387e-05 -0.98735 0.15858 0.7071 -0.70711 8.9636e-06 0.69816 -0.69816 0.15859 1 -1.5204e-05 -2.2204e-16 0.98735 -1.9312e-05 0.15858 0.70711 0.70711 -1.5701e-16 0.69816 0.69816 0.15858 -1.3145e-05 1 7.7346e-06 -1.9578e-05 0.98735 0.15858 -0.88614 -2.2787e-06 0.46341 -0.62659 0.62659 0.46342 -0.6266 -0.62659 0.46342 3.1343e-06 -0.88614 0.46341 0.6266 -0.6266 0.46341 0.88614 -3.1343e-06 0.46341 0.62659 0.62659 0.46342 2.1298e-07 0.88614 0.46341</float_array><technique_common><accessor source="#g-n-a" count="505" stride="3"><param name="X" type="float"/><param name="Y" type="float"/><param name="Z" type="float"/></accessor></technique_common></source>
<vertices id="g-v"><input semantic="POSITION" source="#g-p"/><input semantic="NORMAL" source="#g-n"/></vertices>
<triangles material="m0" count="366"><input semantic="VERTEX" source="#g-v" offset="0"/><p>1 3 0 3 1 2 2 5 3 5 2 4 5 7 3 7 5 6 7 0 3 0 7 8 2 10 9 10 2 1 4 9 11 9 4 2 13 11 12 11 13 4 4 14 5 14 4 13 5 15 6 15 5 14 8 17 0 17 8 16 18 0 17 0 18 1 1 19 10 19 1 18 22 23 20 20 21 22 25 22 21 21 24 25 27 24 21 21 26 27 28 26 21 21 20 28 23 22 29 29 30 23 22 25 31 31 29 22 25 33 32 32 31 25 33 25 24 24 34 33 34 24 27 27 35 34 7 6 36 36 37 7 8 7 37 37 38 8 40 10 39 10 40 9 41 9 40 9 41 11 13 12 42 42 43 13 42 11 41 11 42 12 14 13 43 43 44 14 15 14 44 44 45 15 6 15 45 45 36 6 16 8 38 38 46 16 47 16 46 16 47 17 48 17 47 17 48 18 49 18 48 18 49 19 39 19 49 19 39 10 51 53 50 53 51 52 54 52 51 51 28 54 55 54 28 28 20 55 56 55 20 20 23 56 50 58 57 58 50 53 59 61 30 61 59 60 57 60 59 60 57 58 61 56 23 23 30 61 62 63 64 65 62 64 66 65 64 67 66 64 68 67 64 69 68 64 70 69 64 63 70 64 73 74 71 71 72 73 74 76 75 75 71 74 76 78 77 77 75 76 78 80 79 79 77 78 79 82 81 82 79 80 81 84 83 84 81 82 83 86 85 86 83 84 85 88 87 88 85 86 90 92 89 92 90 91 93 91 90 91 93 94 95 94 93 94 95 96 97 96 95 96 97 98 100 98 97 97 99 100 102 100 99 99 101 102 104 102 101 101 103 104 92 104 103 103 89 92 106 108 105 108 106 107 109 107 106 107 109 110 111 110 109 110 111 112 113 112 111 112 113 114 116 114 113 113 115 116 118 116 115 115 117 118 120 118 117 117 119 120 108 120 119 119 105 108 122 124 121 124 122 123 125 123 122 123 125 126 127 126 125 126 127 128 129 128 127 128 129 130 132 130 129 129 131 132 134 132 131 131 133 134 136 134 133 133 135 136 124 136 135 135 121 124 137 138 124 124 123 137 139 137 123 123 126 139 140 139 126 126 128 140 141 140 128 128 130 141 142 141 130 130 132 142 143 142 132 132 134 143 144 143 134 134 136 144 138 144 136 136 124 138 145 146 138 138 137 145 147 145 137 137 139 147 148 147 139 139 140 148 149 148 140 140 141 149 142 149 141 149 142 150 143 150 142 150 143 151 144 151 143 151 144 152 138 152 144 152 138 146 154 156 153 156 154 155 159 160 157 157 158 159 161 155 154 155 161 162 160 164 163 163 157 160 165 162 161 162 165 166 164 168 167 167 163 164 169 166 165 166 169 170 168 172 171 171 167 168 173 170 169 170 173 174 172 176 175 175 171 172 177 174 173 174 177 178 176 180 179 179 175 176 181 178 177 178 181 182 180 184 183 183 179 180 153 182 181 182 153 156 184 159 158 158 183 184 186 159 185 159 186 160 159 184 187 187 185 159 184 180 188 188 187 184 180 176 189 189 188 180 176 172 190 190 189 176 190 168 191 168 190 172 191 164 192 164 191 168 192 160 186 160 192 164 194 196 193 196 194 195 193 198 197 198 193 196 197 200 199 200 197 198 199 202 201 202 199 200 202 204 203 203 201 202 204 206 205 205 203 204 206 208 207 207 205 206 208 195 194 194 207 208 210 212 209 212 210 211 209 214 213 214 209 212 213 216 215 216 213 214 215 218 217 218 215 216 218 220 219 219 217 218 220 222 221 221 219 220 222 224 223 223 221 222 224 211 210 210 223 224 211 226 212 226 211 225 212 227 214 227 212 226 214 228 216 228 214 227 216 229 218 229 216 228 229 230 220 220 218 229 230 231 222 222 220 230 231 232 224 224 222 231 232 225 211 211 224 232 235 236 233 233 234 235 236 238 237 237 233 236 238 240 239 239 237 238 240 242 241 241 239 240 242 244 243 243 241 242 244 246 245 245 243 244 246 248 247 247 245 246 248 235 234 234 247 248 251 252 249 249 250 251 255 256 253 253 254 255 259 260 257 257 258 259 263 264 261 261 262 263 267 268 265 265 266 267 271 272 269 269 270 271 275 276 273 273 274 275 279 280 277 277 278 279 282 284 281 284 282 283 281 286 285 286 281 284 285 288 287 288 285 286 287 290 289 290 287 288 290 292 291 291 289 290 292 294 293 293 291 292 294 296 295 295 293 294 296 283 282 282 295 296 282 281 297 297 298 282 284 300 299 300 284 283 281 285 301 301 297 281 286 299 302 299 286 284 285 287 303 303 301 285 288 302 304 302 288 286 287 289 305 305 303 287 290 304 306 304 290 288 289 291 307 307 305 289 292 306 308 306 292 290 291 293 309 309 307 291 294 308 310 308 294 292 293 295 311 311 309 293 296 310 312 310 296 294 295 282 298 298 311 295 283 312 300 312 283 296</p></triangles>
<triangles material="m1" count="128"><input semantic="VERTEX" source="#g-v" offset="0"/><p>314 316 313 316 314 315 317 315 314 315 317 318 319 318 317 318 319 320 321 320 319 320 321 322 324 322 321 321 323 324 326 324 323 323 325 326 328 326 325 325 327 328 330 328 327 327 329 330 333 334 331 331 332 333 334 336 335 335 331 334 336 338 337 337 335 336 338 340 339 339 337 338 339 342 341 342 339 340 341 344 343 344 341 342 343 346 345 346 343 344 345 348 347 348 345 346 351 352 349 349 350 351 354 351 350 350 353 354 356 354 353 353 355 356 358 356 355 355 357 358 360 358 357 357 359 360 362 360 359 359 361 362 364 362 361 361 363 364 352 364 363 363 349 352 367 368 365 365 366 367 370 372 369 372 370 371 368 374 373 373 365 368 375 371 370 371 375 376 374 378 377 377 373 374 379 376 375 376 379 380 378 382 381 381 377 378 383 380 379 380 383 384 382 386 385 385 381 382 387 384 383 384 387 388 386 390 389 389 385 386 391 388 387 388 391 392 390 394 393 393 389 390 395 392 391 392 395 396 394 398 397 397 393 394 399 396 395 396 399 400 402 404 401 404 402 403 401 406 405 406 401 404 405 408 407 408 405 406 407 410 409 410 407 408 410 412 411 411 409 410 412 414 413 413 411 412 414 416 415 415 413 414 416 403 402 402 415 416 418 420 417 420 418 419 417 422 421 422 417 420 421 424 423 424 421 422 423 426 425 426 423 424 426 428 427 427 425 426 428 430 429 429 427 428 430 432 431 431 429 430 432 419 418 418 431 432 434 417 433 417 434 418 436 438 435 438 436 437 440 442 439 442 440 441 444 446 443 446 444 445 448 450 447 450 448 449 452 454 451 454 452 453 456 458 455 458 456 457 460 462 459 462 460 461</p></triangles>
<triangles material="m2" count="64"><input semantic="VERTEX" source="#g-v" offset="0"/><p>463 464 465 464 466 465 466 467 465 467 468 465 468 469 465 469 470 465 470 471 465 471 463 465 472 473 474 474 473 475 475 473 476 476 473 477 477 473 478 478 473 479 479 473 480 480 473 472 482 484 481 484 482 483 485 483 482 483 485 486 487 486 485 486 487 488 489 488 487 488 489 490 492 490 489 489 491 492 494 492 491 491 493 494 496 494 493 493 495 496 484 496 495 495 481 484 483 498 484 498 483 497 486 497 483 497 486 499 488 499 486 499 488 500 490 500 488 500 490 501 502 501 490 490 492 502 503 502 492 492 494 503 504 503 494 494 496 504 498 504 496 496 484 498 497 463 498 463 497 464 499 464 497 464 499 466 500 466 499 466 500 467 501 467 500 467 501 468 469 468 501 501 502 469 470 469 502 502 503 470 471 470 503 503 504 471 463 471 504 504 498 463</p></triangles>
</mesh></geometry></library_geometries><library_visual_scenes><visual_scene id="Scene"><node id="n" name="pen"><instance_geometry url="#g"><bind_material><technique_common>
<instance_material symbol="m0" target="#m0"/>
<instance_material symbol="m1" target="#m1"/>
<instance_material symbol="m2" target="#m2"/>
</technique_common></bind_material></instance_geometry></node></visual_scene></library_visual_scenes><scene><instance_visual_scene url="#Scene"/></scene></COLLADA>
