<?xml version="1.0" encoding="utf-8"?>
<COLLADA xmlns="http://www.collada.org/2005/11/COLLADASchema" version="1.4.1">
<asset><contributor><authoring_tool>VATs starter props (see CREDITS.md)</authoring_tool></contributor><unit name="meter" meter="1"/><up_axis>Z_UP</up_axis></asset>
<library_effects>
<effect id="m0-fx"><profile_COMMON><technique sid="common"><lambert><diffuse><color>0.620 0.660 0.710 1</color></diffuse></lambert></technique></profile_COMMON></effect>
<effect id="m1-fx"><profile_COMMON><technique sid="common"><lambert><diffuse><color>0.360 0.390 0.430 1</color></diffuse></lambert></technique></profile_COMMON></effect>
<effect id="m2-fx"><profile_COMMON><technique sid="common"><lambert><diffuse><color>0.200 0.230 0.270 1</color></diffuse></lambert></technique></profile_COMMON></effect>
</library_effects><library_materials>
<material id="m0" name="m0"><instance_effect url="#m0-fx"/></material>
<material id="m1" name="m1"><instance_effect url="#m1-fx"/></material>
<material id="m2" name="m2"><instance_effect url="#m2-fx"/></material>
</library_materials><library_geometries><geometry id="g" name="phone"><mesh>
<source id="g-p"><float_array id="g-p-a" count="1254">0.0045178 -0.035013 0.066949 0.0045178 -0.035013 -0.063317 0.0045178 -0.03225 0.057632 0.0045178 -0.034158 0.070645 0.0045178 -0.028628 0.075 0.0045178 -0.03182 0.073833 0.0045178 0.0332 0.070645 0.0045178 0.02767 0.075 0.0045178 0.034055 0.066949 0.0045178 -0.035013 0.066949 0.0045178 0.030862 0.073833 0.0045178 0.034055 -0.063317 0.0045178 0.034055 0.066949 0.0045178 0.031292 0.057632 0.0045178 0.031292 -0.058248 0.0045178 0.031292 0.057632 0.0045178 -0.035013 0.066949 0.0045178 -0.03225 0.057632 0.0045178 0.034055 0.066949 -0.0050052 0.0332 0.070645 -0.0050052 0.02767 0.075 -0.0050052 0.030862 0.073833 -0.0050052 -0.028628 0.075 -0.0050052 -0.034158 0.070645 -0.0050052 -0.03182 0.073833 -0.0050052 -0.035013 0.066949 -0.0050052 0.034055 0.066949 -0.0050052 -0.035013 -0.063317 -0.0050052 0.034055 0.066949 -0.0050052 0.034055 -0.063317 -0.0050052 -0.035013 0.066949 0.0045178 -0.035013 -0.063317 0.0045178 0.034055 -0.063317 0.0045178 0.031292 -0.058248 0.0045178 -0.03225 -0.058248 0.0045178 -0.03225 -0.058248 -0.0050052 0.0332 -0.070506 -0.0050052 0.02767 -0.074687 -0.0050052 0.034055 -0.066151 -0.0050052 0.034055 -0.063317 -0.0050052 -0.035013 -0.066151 -0.0050052 -0.028628 -0.074687 -0.0050052 -0.034158 -0.070506 -0.0050052 -0.03182 -0.073694 -0.0050052 0.030862 -0.073694 -0.0050052 -0.035013 -0.063317 0.0045178 -0.034158 -0.070506 0.0045178 -0.028628 -0.074687 0.0045178 -0.035013 -0.066151 0.0045178 -0.035013 -0.063317 0.0045178 -0.03182 -0.073694 0.0045178 0.034055 -0.066151 0.0045178 0.02767 -0.074687 0.0045178 0.0332 -0.070506 0.0045178 0.030862 -0.073694 0.0045178 0.034055 -0.063317 0.0020742 -0.0060951 -0.074687 0.0045178 -0.028628 -0.074687 -0.0025616 -0.0060951 -0.074687 -0.0050052 -0.028628 -0.074687 -0.0050052 0.02767 -0.074687 0.0020742 0.0051371 -0.074687 -0.0025616 0.0051371 -0.074687 0.0045178 0.02767 -0.074687 0.0045178 0.02767 -0.074687 0.0020742 -0.0060951 -0.074687 0.0020742 0.0051371 -0.074687 0.0045178 -0.028628 -0.074687 0.0050052 0.0081776 -0.066577 0.0036768 -0.011035 -0.065912 0.0050052 -0.0091356 -0.066577 0.0036768 0.010077 -0.065912 0.0050052 -0.0091356 -0.071212 0.0036768 0.010077 -0.071876 0.0050052 0.0081776 -0.071212 0.0036768 -0.011035 -0.071876 0.0050052 -0.0091356 -0.066577 0.0036768 -0.011035 -0.071876 0.0050052 -0.0091356 -0.071212 0.0036768 -0.011035 -0.065912 0.0036768 0.010077 -0.065912 0.0050052 0.0081776 -0.071212 0.0036768 0.010077 -0.071876 0.0050052 0.0081776 -0.066577 0.0050052 0.0081776 -0.066577 0.0050052 -0.0091356 -0.071212 0.0050052 0.0081776 -0.071212 0.0050052 -0.0091356 -0.066577 0.0045178 -0.034158 0.070645 -0.0050052 -0.035013 0.066949 0.0045178 -0.035013 0.066949 -0.0050052 -0.034158 0.070645 0.0045178 -0.035013 0.066949 -0.0050052 -0.035013 -0.063317 0.0045178 -0.035013 -0.063317 -0.0050052 -0.035013 0.066949 -0.0050052 0.034055 0.066949 0.0045178 0.034055 -0.063317 -0.0050052 0.034055 -0.063317 0.0045178 0.034055 0.066949 -0.0050052 -0.028628 -0.074687 -0.0025616 0.0051371 -0.074687 -0.0025616 -0.0060951 -0.074687 -0.0050052 0.02767 -0.074687 -0.0050052 0.030862 0.073833 0.0045178 0.0332 0.070645 -0.0050052 0.0332 0.070645 0.0045178 0.030862 0.073833 -0.0050052 0.02767 0.075 0.0045178 0.02767 0.075 0.0045178 0.030862 0.073833 -0.0050052 0.030862 0.073833 -0.0050052 0.034055 -0.066151 0.0045178 0.034055 -0.066151 0.0045178 0.0332 -0.070506 -0.0050052 0.0332 -0.070506 -0.0050052 0.0332 -0.070506 0.0045178 0.0332 -0.070506 0.0045178 0.030862 -0.073694 -0.0050052 0.030862 -0.073694 0.0045178 0.02767 -0.074687 -0.0050052 0.02767 -0.074687 -0.0050052 0.030862 -0.073694 0.0045178 0.030862 -0.073694 -0.0050052 0.0332 0.070645 0.0045178 0.0332 0.070645 0.0045178 0.034055 0.066949 -0.0050052 0.034055 0.066949 0.0045178 -0.03182 0.073833 -0.0050052 -0.034158 0.070645 0.0045178 -0.034158 0.070645 -0.0050052 -0.03182 0.073833 0.0045178 -0.028628 0.075 -0.0050052 -0.03182 0.073833 0.0045178 -0.03182 0.073833 -0.0050052 -0.028628 0.075 0.0045178 -0.035013 -0.066151 -0.0050052 -0.034158 -0.070506 0.0045178 -0.034158 -0.070506 -0.0050052 -0.035013 -0.066151 0.0045178 -0.034158 -0.070506 -0.0050052 -0.034158 -0.070506 -0.0050052 -0.03182 -0.073694 0.0045178 -0.03182 -0.073694 -0.0050052 -0.028628 -0.074687 0.0045178 -0.03182 -0.073694 -0.0050052 -0.03182 -0.073694 0.0045178 -0.028628 -0.074687 0.0045178 -0.035013 -0.066151 -0.0050052 -0.035013 -0.063317 -0.0050052 -0.035013 -0.066151 0.0045178 -0.035013 -0.063317 -0.0050052 0.02767 0.075 0.0045178 -0.028628 0.075 0.0045178 0.02767 0.075 -0.0050052 -0.028628 0.075 0.0045178 0.034055 -0.066151 -0.0050052 0.034055 -0.066151 0.0010615 -0.0082918 -0.07397 -0.0015489 -0.0082918 -0.075 0.0010615 -0.0082918 -0.075 -0.0015489 -0.0082918 -0.07397 -0.0015489 -0.0082918 -0.07397 -0.0015489 -0.027529 -0.075 -0.0015489 -0.0082918 -0.075 -0.0015489 -0.027529 -0.07397 0.0010615 -0.027529 -0.07397 0.0010615 -0.0082918 -0.07397 0.0010615 -0.0082918 -0.075 0.0010615 -0.027529 -0.075 -0.0015489 -0.027529 -0.07397 0.0010615 -0.027529 -0.07397 0.0010615 -0.027529 -0.075 -0.0015489 -0.027529 -0.075 -0.0015489 -0.0082918 -0.07397 0.0010615 -0.027529 -0.07397 -0.0015489 -0.027529 -0.07397 0.0010615 -0.0082918 -0.07397 -0.0015489 -0.0082918 -0.075 0.0010615 -0.027529 -0.075 0.0010615 -0.0082918 -0.075 -0.0015489 -0.027529 -0.075 0.0010615 0.026173 -0.07397 -0.0015489 0.026173 -0.07397 -0.0015489 0.026173 -0.075 0.0010615 0.026173 -0.075 -0.0015489 0.026173 -0.07397 -0.0015489 0.0069365 -0.07397 -0.0015489 0.0069365 -0.075 -0.0015489 0.026173 -0.075 0.0010615 0.0069365 -0.07397 0.0010615 0.026173 -0.07397 0.0010615 0.026173 -0.075 0.0010615 0.0069365 -0.075 -0.0015489 0.0069365 -0.07397 0.0010615 0.0069365 -0.075 -0.0015489 0.0069365 -0.075 0.0010615 0.0069365 -0.07397 -0.0015489 0.026173 -0.07397 0.0010615 0.0069365 -0.07397 -0.0015489 0.0069365 -0.07397 0.0010615 0.026173 -0.07397 -0.0015489 0.026173 -0.075 0.0010615 0.0069365 -0.075 0.0010615 0.026173 -0.075 -0.0015489 0.0069365 -0.075 -0.0025616 -0.0060951 -0.073032 0.0020742 -0.0060951 -0.073032 0.0020742 -0.0060951 -0.074687 -0.0025616 -0.0060951 -0.074687 -0.0025616 0.0051371 -0.073032 -0.0025616 -0.0060951 -0.074687 -0.0025616 0.0051371 -0.074687 -0.0025616 -0.0060951 -0.073032 0.0020742 0.0051371 -0.073032 -0.0025616 0.0051371 -0.073032 -0.0025616 0.0051371 -0.074687 0.0020742 0.0051371 -0.074687 0.0020742 0.0051371 -0.073032 0.0020742 -0.0060951 -0.073032 -0.0025616 -0.0060951 -0.073032 -0.0025616 0.0051371 -0.073032 0.0020742 -0.0060951 -0.073032 0.0020742 0.0051371 -0.074687 0.0020742 -0.0060951 -0.074687 0.0020742 0.0051371 -0.073032 -0.0015089 0.034763 0.03656 0.0011615 0.033221 0.037921 0.0010215 0.034763 0.03656 -0.0016489 0.033221 0.037921 0.0010215 0.034763 0.03656 0.0011615 0.033221 0.018568 0.0010215 0.034763 0.019929 0.0011615 0.033221 0.037921 0.0010215 0.034763 0.019929 -0.0016489 0.033221 0.018568 -0.0015089 0.034763 0.019929 0.0011615 0.033221 0.018568 -0.0015089 0.034763 0.03656 -0.0016489 0.033221 0.018568 -0.0016489 0.033221 0.037921 -0.0015089 0.034763 0.019929 0.0011615 0.033221 0.018568 -0.0016489 0.033221 0.037921 -0.0016489 0.033221 0.018568 0.0011615 0.033221 0.037921 -0.0015089 0.034763 0.03656 0.0010215 0.034763 0.019929 -0.0015089 0.034763 0.019929 0.0010215 0.034763 0.03656 0.0027139 0.034509 0.042538 0.0013314 0.035013 0.040963 0.0019839 0.035013 0.042538 0.0018476 0.034509 0.040447 -0.00024373 0.035013 0.044766 0.0018476 0.034509 0.04463 0.0013314 0.035013 0.044114 -0.00024373 0.034509 0.045496 -0.00024373 0.035013 0.040311 0.0018476 0.034509 0.040447 -0.00024373 0.034509 0.039581 0.0013314 0.035013 0.040963 -0.0023351 0.034509 0.040447 -0.0024713 0.035013 0.042538 -0.0018189 0.035013 0.040963 -0.0032013 0.034509 0.042538 -0.0032013 0.034509 0.042538 -0.0018189 0.035013 0.044114 -0.0024713 0.035013 0.042538 -0.0023351 0.034509 0.04463 0.0013314 0.035013 0.044114 0.0027139 0.034509 0.042538 0.0019839 0.035013 0.042538 0.0018476 0.034509 0.04463 -0.0023351 0.034509 0.040447 -0.00024373 0.035013 0.040311 -0.00024373 0.034509 0.039581 -0.0018189 0.035013 0.040963 -0.0018189 0.035013 0.040963 -0.0018189 0.035013 0.044114 0.0019839 0.035013 0.042538 -0.0024713 0.035013 0.042538 -0.00024373 0.035013 0.044766 0.0013314 0.035013 0.044114 -0.00024373 0.035013 0.040311 0.0013314 0.035013 0.040963 -0.0023351 0.03149 0.04463 -0.0032013 0.034509 0.042538 -0.0032013 0.03149 0.042538 -0.0023351 0.034509 0.04463 -0.00024373 0.034509 0.045496 -0.0023351 0.03149 0.04463 -0.00024373 0.03149 0.045496 -0.0023351 0.034509 0.04463 -0.0023351 0.034509 0.04463 -0.00024373 0.034509 0.045496 -0.00024373 0.035013 0.044766 -0.0018189 0.035013 0.044114 0.0018476 0.034509 0.04463 -0.00024373 0.03149 0.045496 0.0018476 0.03149 0.04463 -0.00024373 0.034509 0.045496 0.0018476 0.034509 0.04463 0.0027139 0.03149 0.042538 0.0027139 0.034509 0.042538 0.0018476 0.03149 0.04463 0.0027139 0.034509 0.042538 0.0018476 0.03149 0.040447 0.0018476 0.034509 0.040447 0.0027139 0.03149 0.042538 0.0018476 0.034509 0.040447 0.0018476 0.03149 0.040447 -0.00024373 0.03149 0.039581 -0.00024373 0.034509 0.039581 -0.0023351 0.034509 0.040447 -0.00024373 0.03149 0.039581 -0.0023351 0.03149 0.040447 -0.00024373 0.034509 0.039581 -0.0032013 0.03149 0.042538 -0.0023351 0.034509 0.040447 -0.0023351 0.03149 0.040447 -0.0032013 0.034509 0.042538 0.0027139 0.034509 0.049525 0.0013314 0.035013 0.04795 0.0019839 0.035013 0.049525 0.0018476 0.034509 0.047434 -0.00024373 0.035013 0.051753 0.0018476 0.034509 0.051616 0.0013314 0.035013 0.0511 -0.00024373 0.034509 0.052483 -0.00024373 0.035013 0.047297 0.0018476 0.034509 0.047434 -0.00024373 0.034509 0.046567 0.0013314 0.035013 0.04795 -0.0023351 0.034509 0.047434 -0.0024713 0.035013 0.049525 -0.0018189 0.035013 0.04795 -0.0032013 0.034509 0.049525 -0.0032013 0.034509 0.049525 -0.0018189 0.035013 0.0511 -0.0024713 0.035013 0.049525 -0.0023351 0.034509 0.051616 0.0013314 0.035013 0.0511 0.0027139 0.034509 0.049525 0.0019839 0.035013 0.049525 0.0018476 0.034509 0.051616 -0.0023351 0.034509 0.047434 -0.00024373 0.035013 0.047297 -0.00024373 0.034509 0.046567 -0.0018189 0.035013 0.04795 -0.0024713 0.035013 0.049525 0.0019839 0.035013 0.049525 -0.0018189 0.035013 0.04795 -0.0018189 0.035013 0.0511 -0.00024373 0.035013 0.051753 -0.00024373 0.035013 0.047297 0.0013314 0.035013 0.0511 0.0013314 0.035013 0.04795 -0.0023351 0.03149 0.051616 -0.0032013 0.034509 0.049525 -0.0032013 0.03149 0.049525 -0.0023351 0.034509 0.051616 -0.00024373 0.034509 0.052483 -0.0023351 0.03149 0.051616 -0.00024373 0.03149 0.052483 -0.0023351 0.034509 0.051616 -0.0023351 0.034509 0.051616 -0.00024373 0.034509 0.052483 -0.00024373 0.035013 0.051753 -0.0018189 0.035013 0.0511 0.0018476 0.034509 0.051616 -0.00024373 0.03149 0.052483 0.0018476 0.03149 0.051616 -0.00024373 0.034509 0.052483 0.0018476 0.034509 0.051616 0.0018476 0.03149 0.051616 0.0027139 0.03149 0.049525 0.0027139 0.034509 0.049525 0.0027139 0.034509 0.049525 0.0027139 0.03149 0.049525 0.0018476 0.03149 0.047434 0.0018476 0.034509 0.047434 0.0018476 0.034509 0.047434 -0.00024373 0.03149 0.046567 -0.00024373 0.034509 0.046567 0.0018476 0.03149 0.047434 -0.0023351 0.034509 0.047434 -0.00024373 0.03149 0.046567 -0.0023351 0.03149 0.047434 -0.00024373 0.034509 0.046567 -0.0032013 0.03149 0.049525 -0.0023351 0.034509 0.047434 -0.0023351 0.03149 0.047434 -0.0032013 0.034509 0.049525 0.0050052 0.0081776 0.064056 0.0036768 -0.011035 0.064207 0.0050052 -0.0091356 0.064056 0.0036768 0.010077 0.064207 0.0050052 -0.0091356 0.063 0.0036768 0.010077 0.062849 0.0050052 0.0081776 0.063 0.0036768 -0.011035 0.062849 0.0050052 -0.0091356 0.064056 0.0036768 -0.011035 0.062849 0.0050052 -0.0091356 0.063 0.0036768 -0.011035 0.064207 0.0036768 0.010077 0.064207 0.0050052 0.0081776 0.064056 0.0050052 0.0081776 0.063 0.0036768 0.010077 0.062849 0.0050052 0.0081776 0.064056 0.0050052 -0.0091356 0.064056 0.0050052 -0.0091356 0.063 0.0050052 0.0081776 0.063 0.0045178 0.031292 -0.058248 0.0045178 -0.03225 0.057632 0.0045178 -0.03225 -0.058248 0.0045178 0.031292 0.057632</float_array><technique_common><accessor source="#g-p-a" count="418" stride="3"><param name="X" type="float"/><param name="Y" type="float"/><param name="Z" type="float"/></accessor></technique_common></source>
<source id="g-n"><float_array id="g-n-a" count="1254">1 -1.5e-16 1.6859e-07 1 -4.1998e-17 1.6859e-07 1 -1.491e-16 1.6859e-07 1 1.3155e-16 1.6859e-07 1 3.8751e-17 1.6859e-07 1 2.5466e-16 1.6859e-07 1 -5.4832e-17 1.6859e-07 1 -3.522e-17 1.6859e-07 1 -1.401e-17 1.6859e-07 1 3.8478e-17 1.6859e-07 1 -2.5466e-16 1.6859e-07 1 -4.0878e-17 1.6859e-07 1 -1.8301e-17 1.6859e-07 1 -1.8491e-17 1.6859e-07 1 -4.1961e-17 1.6859e-07 1 -4.2071e-18 1.6859e-07 1 1.5049e-18 1.6859e-07 1 2.2668e-18 1.6859e-07 1 -4.7327e-18 1.6859e-07 -1 5.4832e-17 -1.6859e-07 -1 3.1636e-17 -1.6859e-07 -1 2.5466e-16 -1.6859e-07 -1 -3.1636e-17 -1.6859e-07 -1 -5.4832e-17 -1.6859e-07 -1 -2.5466e-16 -1.6859e-07 -1 -1.0838e-17 -1.6859e-07 -1 1.0838e-17 -1.6859e-07 -1 2.1016e-19 -1.6859e-07 -1 9.4583e-20 -1.6859e-07 -1 3.0475e-19 -1.6859e-07 -1 0 -1.6859e-07 1 -5.6124e-19 1.6859e-07 1 -3.5614e-18 1.6859e-07 1 -3.4423e-18 1.6859e-07 1 -3.3125e-19 1.6859e-07 1 -3.6817e-17 1.6859e-07 -1 -1.1146e-07 -1.3549e-07 -1 -3.7103e-08 -1.8013e-07 -1 -7.8912e-08 -1.6555e-07 -1 -2.4387e-08 -1.9693e-07 -1 7.8912e-08 -1.6555e-07 -1 3.7103e-08 -1.8013e-07 -1 1.1146e-07 -1.3549e-07 -1 1.9397e-07 -2.6367e-08 -1 -1.9397e-07 -2.6367e-08 -1 2.4387e-08 -1.9693e-07 1 1.1146e-07 2.0168e-07 1 3.7103e-08 1.5705e-07 1 7.8912e-08 1.7162e-07 1 2.4387e-08 1.4024e-07 1 1.9397e-07 3.1081e-07 1 -7.8912e-08 1.7162e-07 1 -3.7103e-08 1.5705e-07 1 -1.1146e-07 2.0168e-07 1 -1.9397e-07 3.1081e-07 1 -2.4387e-08 1.4024e-07 1.6859e-07 -3.8055e-17 -1 1.6859e-07 1.0929e-17 -1 1.6859e-07 -2.4154e-17 -1 1.6859e-07 1.8525e-17 -1 1.6859e-07 1.0929e-17 -1 1.6859e-07 -2.4154e-17 -1 1.6859e-07 -3.8055e-17 -1 1.6859e-07 1.8525e-17 -1 1.6859e-07 0 -1 1.6859e-07 0 -1 1.6859e-07 0 -1 1.6859e-07 0 -1 0.44741 9.5403e-07 0.89433 0.44742 4.6213e-07 0.89432 0.44742 3.9507e-07 0.89432 0.44741 9.7199e-07 0.89433 0.44741 -9.6633e-07 -0.89433 0.44742 -8.1128e-07 -0.89433 0.44742 -7.9014e-07 -0.89433 0.44741 -9.7199e-07 -0.89433 0.8194 -0.57322 1.3814e-07 0.8194 -0.57322 1.3814e-07 0.8194 -0.57322 1.3814e-07 0.8194 -0.57322 1.3814e-07 0.8194 0.57322 1.3814e-07 0.8194 0.57322 1.3814e-07 0.8194 0.57322 1.3814e-07 0.8194 0.57322 1.3814e-07 1 -1.8535e-17 1.6859e-07 1 -3.5865e-17 1.6859e-07 1 -1.4208e-17 1.6859e-07 1 -4.0192e-17 1.6859e-07 2.3676e-07 -0.97425 0.22549 4.9403e-08 -0.97424 0.22549 3.2418e-07 -0.97425 0.22549 -3.8015e-08 -0.97424 0.22549 0 -1 0 0 -1 0 0 -1 0 0 -1 0 0 1 0 0 1 0 0 1 0 0 1 0 1.6859e-07 0 -1 1.6859e-07 0 -1 1.6859e-07 0 -1 1.6859e-07 0 -1 -9.9685e-08 0.80646 0.5913 -9.9685e-08 0.80646 0.5913 -9.9685e-08 0.80646 0.5913 -9.9685e-08 0.80646 0.5913 -1.5835e-07 0.34324 0.93925 -1.5835e-07 0.34324 0.93925 -1.5835e-07 0.34324 0.93925 -1.5835e-07 0.34324 0.93925 3.25e-08 0.98124 -0.19278 3.25e-08 0.98124 -0.19278 3.25e-08 0.98124 -0.19278 3.25e-08 0.98124 -0.19278 9.9685e-08 0.80646 -0.5913 9.9685e-08 0.80646 -0.5913 9.9685e-08 0.80646 -0.5913 9.9685e-08 0.80646 -0.5913 1.6097e-07 0.29713 -0.95484 1.6097e-07 0.29713 -0.95484 1.6097e-07 0.29713 -0.95484 1.6097e-07 0.29713 -0.95484 -3.8015e-08 0.97424 0.22549 -3.8015e-08 0.97424 0.22549 -3.8015e-08 0.97424 0.22549 -3.8015e-08 0.97424 0.22549 -9.9685e-08 -0.80646 0.5913 -9.9685e-08 -0.80646 0.5913 -9.9685e-08 -0.80646 0.5913 -9.9685e-08 -0.80646 0.5913 -1.5835e-07 -0.34324 0.93925 -1.5835e-07 -0.34324 0.93925 -1.5835e-07 -0.34324 0.93925 -1.5835e-07 -0.34324 0.93925 3.25e-08 -0.98124 -0.19278 3.25e-08 -0.98124 -0.19278 3.25e-08 -0.98124 -0.19278 3.25e-08 -0.98124 -0.19278 9.9685e-08 -0.80646 -0.5913 9.9685e-08 -0.80646 -0.5913 9.9685e-08 -0.80646 -0.5913 9.9685e-08 -0.80646 -0.5913 1.6097e-07 -0.29713 -0.95484 1.6097e-07 -0.29713 -0.95484 1.6097e-07 -0.29713 -0.95484 1.6097e-07 -0.29713 -0.95484 0 -1 0 0 -1 0 0 -1 0 0 -1 0 -1.6859e-07 0 1 -1.6859e-07 0 1 -1.6859e-07 0 1 -1.6859e-07 0 1 0 1 0 0 1 0 0 -1 0 0 -1 0 0 -1 0 0 -1 0 1 -3.7273e-08 1.6859e-07 1 -3.7273e-08 1.6859e-07 1 -3.7273e-08 1.6859e-07 1 -3.7273e-08 1.6859e-07 -1 2.4849e-08 -1.6859e-07 -1 2.4849e-08 -1.6859e-07 -1 2.4849e-08 -1.6859e-07 -1 2.4849e-08 -1.6859e-07 0 1 0 0 1 0 0 1 0 0 1 0 1.6859e-07 -3.5272e-16 -1 1.6859e-07 -1.1438e-16 -1 1.6859e-07 -8.9669e-17 -1 1.6859e-07 -3.7743e-16 -1 -1.6859e-07 -8.284e-17 1 -1.6859e-07 7.3465e-17 1 -1.6859e-07 -9.9043e-17 1 -1.6859e-07 8.9669e-17 1 0 -1 0 0 -1 0 0 -1 0 0 -1 0 1 -3.7273e-08 1.6859e-07 1 -3.7273e-08 1.6859e-07 1 -3.7273e-08 1.6859e-07 1 -3.7273e-08 1.6859e-07 -1 2.4849e-08 -1.6859e-07 -1 2.4849e-08 -1.6859e-07 -1 2.4849e-08 -1.6859e-07 -1 2.4849e-08 -1.6859e-07 0 1 0 0 1 0 0 1 0 0 1 0 1.6859e-07 -3.5272e-16 -1 1.6859e-07 -1.1438e-16 -1 1.6859e-07 -8.9669e-17 -1 1.6859e-07 -3.7743e-16 -1 -1.6859e-07 -8.284e-17 1 -1.6859e-07 7.3465e-17 1 -1.6859e-07 -9.9043e-17 1 -1.6859e-07 8.9669e-17 1 0 1 0 0 1 0 0 1 0 0 1 0 1 0 3.1299e-07 1 0 3.1299e-07 1 0 3.1299e-07 1 0 3.1299e-07 0 -1 0 0 -1 0 0 -1 0 0 -1 0 1.6859e-07 0 -1 1.6859e-07 0 -1 1.6859e-07 0 -1 1.6859e-07 0 -1 -1 0 -2.4185e-08 -1 0 -2.4185e-08 -1 0 -2.4185e-08 -1 0 -2.4185e-08 -1.2642e-07 0.66155 0.7499 -1.2642e-07 0.66155 0.7499 -1.2642e-07 0.66155 0.7499 -1.2642e-07 0.66155 0.7499 0.9959 0.09042 1.679e-07 0.9959 0.09042 1.679e-07 0.9959 0.09042 1.679e-07 0.9959 0.09042 1.679e-07 1.2642e-07 0.66155 -0.7499 1.2642e-07 0.66155 -0.7499 1.2642e-07 0.66155 -0.7499 1.2642e-07 0.66155 -0.7499 -0.9959 0.09042 -1.679e-07 -0.9959 0.09042 -1.679e-07 -0.9959 0.09042 -1.679e-07 -0.9959 0.09042 -1.679e-07 0 -1 0 0 -1 0 0 -1 0 0 -1 0 0 1 0 0 1 0 0 1 0 0 1 0 0.55335 0.80079 -0.22921 0.55335 0.80079 -0.22921 0.55335 0.80079 -0.22921 0.55335 0.80079 -0.22921 0.2292 0.80079 0.55335 0.2292 0.80079 0.55335 0.2292 0.80079 0.55335 0.2292 0.80079 0.55335 0.22921 0.80079 -0.55335 0.22921 0.80079 -0.55335 0.22921 0.80079 -0.55335 0.22921 0.80079 -0.55335 -0.55335 0.80079 -0.22921 -0.55335 0.80079 -0.22921 -0.55335 0.80079 -0.22921 -0.55335 0.80079 -0.22921 -0.55335 0.80079 0.22921 -0.55335 0.80079 0.22921 -0.55335 0.80079 0.22921 -0.55335 0.80079 0.22921 0.55335 0.80079 0.22921 0.55335 0.80079 0.22921 0.55335 0.80079 0.22921 0.55335 0.80079 0.2292 -0.22921 0.80079 -0.55335 -0.22921 0.80079 -0.55335 -0.22921 0.80079 -0.55335 -0.22921 0.80079 -0.55335 0 1 0 0 1 0 0 1 0 0 1 0 0 1 0 0 1 0 0 1 0 0 1 0 -0.92388 -5.3849e-07 0.38268 -0.92388 -4.856e-07 0.38268 -0.92388 -6.5834e-07 0.38268 -0.92388 -3.6574e-07 0.38268 -0.38268 -1.3071e-07 0.92388 -0.38268 -1.2154e-07 0.92388 -0.38268 -1.0075e-07 0.92388 -0.38268 -1.515e-07 0.92388 -0.2292 0.80079 0.55335 -0.2292 0.80079 0.55335 -0.2292 0.80079 0.55335 -0.2292 0.80079 0.55335 0.38268 1.2154e-07 0.92388 0.38268 1.3071e-07 0.92388 0.38268 1.515e-07 0.92388 0.38268 1.0075e-07 0.92388 0.92388 5.3849e-07 0.38268 0.92388 4.856e-07 0.38268 0.92388 6.5834e-07 0.38268 0.92388 3.6574e-07 0.38268 0.92388 4.856e-07 -0.38268 0.92388 5.3849e-07 -0.38268 0.92388 3.6574e-07 -0.38268 0.92388 6.5834e-07 -0.38268 0.38269 1.2154e-07 -0.92388 0.38269 1.515e-07 -0.92388 0.38269 1.3071e-07 -0.92388 0.38269 1.0075e-07 -0.92388 -0.38268 -5.9483e-08 -0.92388 -0.38268 -4.1271e-08 -0.92388 -0.38268 0 -0.92388 -0.38268 -1.0075e-07 -0.92388 -0.92388 -2.6967e-07 -0.38268 -0.92388 -3.8867e-07 -0.38268 -0.92388 0 -0.38268 -0.92388 -6.5834e-07 -0.38268 0.55335 0.80079 -0.22921 0.55335 0.80079 -0.22921 0.55335 0.80079 -0.22921 0.55335 0.80079 -0.22921 0.2292 0.80079 0.55335 0.2292 0.80079 0.55335 0.2292 0.80079 0.55335 0.2292 0.80079 0.55335 0.22921 0.80079 -0.55335 0.22921 0.80079 -0.55335 0.22921 0.80079 -0.55335 0.22921 0.80079 -0.55335 -0.55335 0.80079 -0.22921 -0.55335 0.80079 -0.22921 -0.55335 0.80079 -0.22921 -0.55335 0.80079 -0.22921 -0.55335 0.80079 0.22921 -0.55335 0.80079 0.22921 -0.55335 0.80079 0.22921 -0.55335 0.80079 0.22921 0.55335 0.80079 0.22921 0.55335 0.80079 0.22921 0.55335 0.80079 0.22921 0.55335 0.80079 0.22921 -0.22921 0.80079 -0.55335 -0.22921 0.80079 -0.55335 -0.22921 0.80079 -0.55335 -0.22921 0.80079 -0.55335 0 1 0 0 1 0 0 1 0 0 1 0 0 1 0 0 1 0 0 1 0 0 1 0 -0.92388 -5.3849e-07 0.38268 -0.92388 -4.856e-07 0.38268 -0.92388 -6.5834e-07 0.38268 -0.92388 -3.6574e-07 0.38268 -0.38268 -1.3071e-07 0.92388 -0.38268 -1.2154e-07 0.92388 -0.38268 -1.0075e-07 0.92388 -0.38268 -1.515e-07 0.92388 -0.22921 0.80079 0.55335 -0.22921 0.80079 0.55335 -0.22921 0.80079 0.55335 -0.22921 0.80079 0.55335 0.38268 1.2154e-07 0.92388 0.38268 1.3071e-07 0.92388 0.38268 1.515e-07 0.92388 0.38268 1.0075e-07 0.92388 0.92388 5.3849e-07 0.38268 0.92388 3.6574e-07 0.38268 0.92388 4.856e-07 0.38268 0.92388 6.5834e-07 0.38268 0.92388 4.856e-07 -0.38268 0.92388 6.5834e-07 -0.38268 0.92388 5.3849e-07 -0.38268 0.92388 3.6574e-07 -0.38268 0.38269 1.2154e-07 -0.92388 0.38269 1.3071e-07 -0.92388 0.38269 1.0075e-07 -0.92388 0.38269 1.515e-07 -0.92388 -0.38268 -5.9483e-08 -0.92388 -0.38268 -4.1271e-08 -0.92388 -0.38268 0 -0.92388 -0.38268 -1.0075e-07 -0.92388 -0.92388 -2.6967e-07 -0.38268 -0.92388 -3.8867e-07 -0.38268 -0.92388 0 -0.38268 -0.92388 -6.5834e-07 -0.38268 0.11317 3.5006e-07 0.99358 0.11317 4.0769e-08 0.99358 0.11317 0 0.99358 0.11317 3.5995e-07 0.99358 0.11317 0 -0.99358 0.11317 0 -0.99358 0.11317 0 -0.99358 0.11317 0 -0.99358 0.8194 -0.57322 1.3814e-07 0.8194 -0.57322 1.3814e-07 0.8194 -0.57322 1.3814e-07 0.8194 -0.57322 1.3814e-07 0.8194 0.57322 1.3814e-07 0.8194 0.57322 1.3814e-07 0.8194 0.57322 1.3814e-07 0.8194 0.57322 1.3814e-07 1 0 1.6859e-07 1 0 1.6859e-07 1 0 1.6859e-07 1 0 1.6859e-07 1 4.9833e-19 1.6859e-07 1 1.4373e-18 1.6859e-07 1 -3.3126e-19 1.6859e-07 1 2.2669e-18 1.6859e-07</float_array><technique_common><accessor source="#g-n-a" count="418" stride="3"><param name="X" type="float"/><param name="Y" type="float"/><param name="Z" type="float"/></accessor></technique_common></source>
<vertices id="g-v"><input semantic="POSITION" source="#g-p"/><input semantic="NORMAL" source="#g-n"/></vertices>
<triangles material="m0" count="38"><input semantic="VERTEX" source="#g-v" offset="0"/><p>0 1 2 3 4 5 6 7 8 4 3 9 7 6 10 7 9 8 9 7 4 11 12 13 11 13 14 15 16 17 16 15 18 19 20 21 22 23 24 23 22 25 20 19 26 25 22 20 26 25 20 27 28 29 28 27 30 31 32 33 31 33 34 2 1 35 36 37 38 38 37 39 40 41 42 42 41 43 37 36 44 37 45 39 45 41 40 45 37 41 46 47 48 48 47 49 47 46 50 51 52 53 53 52 54 49 47 52 55 52 51 52 55 49</p></triangles>
<triangles material="m1" count="52"><input semantic="VERTEX" source="#g-v" offset="0"/><p>56 57 58 59 58 57 60 61 62 61 60 63 64 65 66 65 64 67 68 69 70 71 69 68 72 73 74 75 73 72 76 77 78 79 77 76 80 81 82 83 81 80 84 85 86 84 87 85 88 89 90 88 91 89 92 93 94 95 93 92 96 97 98 99 97 96 100 101 102 101 100 103 104 105 106 104 107 105 108 109 110 110 111 108 112 113 114 112 114 115 116 117 118 116 118 119 120 121 122 122 123 120 124 125 126 124 126 127 128 129 130 128 131 129 132 133 134 133 132 135 136 137 138 136 139 137 140 141 142 140 142 143 144 145 146 145 144 147 148 149 150 149 148 151 152 153 154 152 155 153 156 98 97 98 156 157</p></triangles>
<triangles material="m2" count="134"><input semantic="VERTEX" source="#g-v" offset="0"/><p>158 159 160 158 161 159 162 163 164 162 165 163 166 167 168 166 168 169 170 171 172 170 172 173 174 175 176 175 174 177 178 179 180 179 178 181 182 183 184 182 184 185 186 187 188 186 188 189 190 191 192 190 192 193 194 195 196 194 197 195 198 199 200 199 198 201 202 203 204 203 202 205 206 207 208 206 208 209 210 211 212 210 213 211 214 215 216 214 216 217 218 219 220 218 220 221 222 223 224 222 225 223 226 227 228 229 227 226 230 231 232 233 231 230 234 235 236 237 235 234 238 239 240 239 238 241 242 243 244 243 242 245 246 247 248 249 247 246 250 251 252 250 253 251 254 255 256 255 254 257 258 259 260 259 258 261 262 263 264 263 262 265 266 267 268 266 269 267 270 271 272 271 270 273 274 275 276 275 274 277 278 279 280 279 278 281 280 279 282 280 282 283 280 284 278 284 280 285 286 287 288 289 287 286 290 291 292 291 290 293 294 295 296 296 297 294 298 299 300 299 298 301 302 303 304 302 305 303 306 307 308 306 309 307 310 311 312 310 312 313 314 315 316 315 314 317 318 319 320 321 319 318 322 323 324 322 325 323 326 327 328 327 326 329 330 331 332 331 330 333 334 335 336 335 334 337 338 339 340 338 341 339 342 343 344 343 342 345 346 347 348 347 346 349 350 351 352 351 353 354 351 350 353 351 355 352 351 354 356 355 351 357 358 359 360 361 359 358 362 363 364 363 362 365 366 367 368 368 369 366 370 371 372 371 370 373 374 375 376 374 376 377 378 379 380 378 380 381 382 383 384 382 385 383 386 387 388 387 386 389 390 391 392 393 391 390 394 395 396 397 395 394 398 399 400 401 399 398 402 403 404 405 403 402 406 407 408 406 408 409 410 411 412 410 412 413 414 415 416 415 414 417</p></triangles>
</mesh></geometry></library_geometries><library_visual_scenes><visual_scene id="Scene"><node id="n" name="phone"><instance_geometry url="#g"><bind_material><technique_common>
<instance_material symbol="m0" target="#m0"/>
<instance_material symbol="m1" target="#m1"/>
<instance_material symbol="m2" target="#m2"/>
</technique_common></bind_material></instance_geometry></node></visual_scene></library_visual_scenes><scene><instance_visual_scene url="#Scene"/></scene></COLLADA>
