<?xml version="1.0" encoding="utf-8"?>
<COLLADA xmlns="http://www.collada.org/2005/11/COLLADASchema" version="1.4.1">
<asset><contributor><authoring_tool>VATs starter props (see CREDITS.md)</authoring_tool></contributor><unit name="meter" meter="1"/><up_axis>Z_UP</up_axis></asset>
<library_effects>
<effect id="m0-fx"><profile_COMMON><technique sid="common"><lambert><diffuse><color>0.620 0.380 0.300 1</color></diffuse></lambert></technique></profile_COMMON></effect>
<effect id="m1-fx"><profile_COMMON><technique sid="common"><lambert><diffuse><color>0.400 0.300 0.230 1</color></diffuse></lambert></technique></profile_COMMON></effect>
</library_effects><library_materials>
<material id="m0" name="m0"><instance_effect url="#m0-fx"/></material>
<material id="m1" name="m1"><instance_effect url="#m1-fx"/></material>
</library_materials><library_geometries><geometry id="g" name="rug"><mesh>
<source id="g-p"><float_array id="g-p-a" count="120">1.2 -0.70318 0 1.2 0.70318 0 -1.2 -0.70318 0 -1.2 0.70318 0 1.2 -0.70318 0 -1.2 -0.70318 0 1.2 -0.70318 0.015287 -1.2 -0.70318 0.015287 1.2 -0.70318 0.015287 1.0263 0.52946 0.015287 1.2 0.70318 0.015287 -1.2 0.70318 0.015287 -1.0263 0.52946 0.015287 -1.0263 -0.52946 0.015287 1.0263 -0.52946 0.015287 -1.2 -0.70318 0.015287 1.2 0.70318 0.015287 1.2 0.70318 0 1.2 -0.70318 0.015287 1.2 -0.70318 0 -1.2 0.70318 0 1.2 0.70318 0 -1.2 0.70318 0.015287 1.2 0.70318 0.015287 -1.2 0.70318 0 -1.2 0.70318 0.015287 -1.2 -0.70318 0 -1.2 -0.70318 0.015287 0.94959 0.45278 0.015287 0.94959 -0.45278 0.015287 -0.94959 0.45278 0.015287 -0.94959 -0.45278 0.015287 1.0263 0.52946 0.015287 -1.0263 0.52946 0.015287 -1.0263 -0.52946 0.015287 1.0263 -0.52946 0.015287 0.94959 0.45278 0.015287 0.94959 -0.45278 0.015287 -0.94959 0.45278 0.015287 -0.94959 -0.45278 0.015287</float_array><technique_common><accessor source="#g-p-a" count="40" stride="3"><param name="X" type="float"/><param name="Y" type="float"/><param name="Z" type="float"/></accessor></technique_common></source>
<source id="g-n"><float_array id="g-n-a" count="120">0 0 -1 0 0 -1 0 0 -1 0 0 -1 -2.2204e-16 -1 0 -2.2204e-16 -1 0 -2.2204e-16 -1 0 -2.2204e-16 -1 0 0 0 1 0 0 1 0 0 1 0 0 1 0 0 1 0 0 1 0 0 1 0 0 1 1 -2.2204e-16 0 1 -2.2204e-16 0 1 -2.2204e-16 0 1 -2.2204e-16 0 2.2204e-16 1 0 2.2204e-16 1 0 2.2204e-16 1 0 2.2204e-16 1 0 -1 2.2204e-16 0 -1 2.2204e-16 0 -1 2.2204e-16 0 -1 2.2204e-16 0 0 0 1 0 0 1 0 0 1 0 0 1 0 0 1 0 0 1 0 0 1 0 0 1 0 0 1 0 0 1 0 0 1 0 0 1</float_array><technique_common><accessor source="#g-n-a" count="40" stride="3"><param name="X" type="float"/><param name="Y" type="float"/><param name="Z" type="float"/></accessor></technique_common></source>
<vertices id="g-v"><input semantic="POSITION" source="#g-p"/><input semantic="NORMAL" source="#g-n"/></vertices>
<triangles material="m0" count="20"><input semantic="VERTEX" source="#g-v" offset="0"/><p>2 1 0 1 2 3 6 5 4 5 6 7 10 9 8 9 10 11 9 11 12 12 11 13 14 8 9 8 14 15 15 14 13 15 13 11 18 17 16 17 18 19 22 21 20 21 22 23 26 25 24 25 26 27 30 29 28 29 30 31</p></triangles>
<triangles material="m1" count="8"><input semantic="VERTEX" source="#g-v" offset="0"/><p>32 36 35 36 32 33 36 33 38 38 33 39 37 35 36 35 37 34 34 37 39 34 39 33</p></triangles>
</mesh></geometry></library_geometries><library_visual_scenes><visual_scene id="Scene"><node id="n" name="rug"><instance_geometry url="#g"><bind_material><technique_common>
<instance_material symbol="m0" target="#m0"/>
<instance_material symbol="m1" target="#m1"/>
</technique_common></bind_material></instance_geometry></node></visual_scene></library_visual_scenes><scene><instance_visual_scene url="#Scene"/></scene></COLLADA>
