<?xml version="1.0" encoding="utf-8"?>
<COLLADA xmlns="http://www.collada.org/2005/11/COLLADASchema" version="1.4.1">
<asset><contributor><authoring_tool>VATs starter props (see CREDITS.md)</authoring_tool></contributor><unit name="meter" meter="1"/><up_axis>Z_UP</up_axis></asset>
<library_effects>
<effect id="m0-fx"><profile_COMMON><technique sid="common"><lambert><diffuse><color>0.360 0.390 0.430 1</color></diffuse></lambert></technique></profile_COMMON></effect>
<effect id="m1-fx"><profile_COMMON><technique sid="common"><lambert><diffuse><color>0.620 0.660 0.710 1</color></diffuse></lambert></technique></profile_COMMON></effect>
<effect id="m2-fx"><profile_COMMON><technique sid="common"><lambert><diffuse><color>0.620 0.470 0.340 1</color></diffuse></lambert></technique></profile_COMMON></effect>
</library_effects><library_materials>
<material id="m0" name="m0"><instance_effect url="#m0-fx"/></material>
<material id="m1" name="m1"><instance_effect url="#m1-fx"/></material>
<material id="m2" name="m2"><instance_effect url="#m2-fx"/></material>
</library_materials><library_geometries><geometry id="g" name="shield"><mesh>
<source id="g-p"><float_array id="g-p-a" count="792">0.12366 0.17738 0 0.1683 0.20869 0 0.12366 0.15362 -0.088692 0.1683 0.18073 -0.10434 0.12366 0.15362 0.088692 0.1683 0.18073 0.10434 0.12366 0.17738 0 0.1683 0.20869 0 0.079014 0.25981 -0.15 0.079014 0.15 -0.25981 0.1683 0.24162 -0.1395 0.1683 0.1395 -0.24162 0.079014 -0.25981 0.15 0.1683 -0.24162 0.1395 0.079014 -0.3 0 0.1683 -0.279 0 0.079014 0.25981 0.15 0.079014 0.3 0 0.1683 0.24162 0.1395 0.1683 0.279 0 0.079014 0.15 0.25981 0.1683 0.1395 0.24162 0.079014 -1.7112e-15 0.3 0.1683 -2.2816e-15 0.279 0.079014 0.3 0 0.079014 0.25981 -0.15 0.1683 0.279 0 0.1683 0.24162 -0.1395 0.079014 0.15 -0.25981 0.079014 -1.7112e-15 -0.3 0.1683 0.1395 -0.24162 0.1683 -2.2816e-15 -0.279 0.1683 -0.1395 0.24162 0.1683 -0.24162 0.1395 0.079014 -0.15 0.25981 0.079014 -0.25981 0.15 0.079014 -1.7112e-15 -0.3 0.079014 -0.15 -0.25981 0.1683 -2.2816e-15 -0.279 0.1683 -0.1395 -0.24162 0.079014 -0.25981 -0.15 0.1683 -0.24162 -0.1395 0.079014 -0.15 -0.25981 0.1683 -0.1395 -0.24162 0.079014 0.25981 0.15 0.1683 0.24162 0.1395 0.079014 0.15 0.25981 0.1683 0.1395 0.24162 0.079014 -0.3 0 0.1683 -0.279 0 0.079014 -0.25981 -0.15 0.1683 -0.24162 -0.1395 0.12366 -0.15362 0.088692 0.12366 -0.17738 0 0.1683 -0.18073 0.10434 0.1683 -0.20869 0 0.12366 -0.088692 -0.15362 0.1683 -0.10434 -0.18073 0.12366 -0.15362 -0.088692 0.1683 -0.18073 -0.10434 0.12366 0.088692 0.15362 0.1683 0.10434 0.18073 0.12366 0.15362 0.088692 0.1683 0.18073 0.10434 0.1683 0.10434 0.18073 0.12366 0.088692 0.15362 0.1683 -2.2816e-15 0.20869 0.12366 -3.4225e-15 0.17738 0.079014 -1.7112e-15 0.3 0.1683 -2.2816e-15 0.279 0.079014 -0.15 0.25981 0.1683 -0.1395 0.24162 0.12366 -0.17738 0 0.12366 -0.15362 -0.088692 0.1683 -0.20869 0 0.1683 -0.18073 -0.10434 0.12366 -0.088692 0.15362 0.12366 -0.15362 0.088692 0.1683 -0.10434 0.18073 0.1683 -0.18073 0.10434 0.1683 0.10434 -0.18073 0.1683 -1.7112e-15 -0.20869 0.12366 0.088692 -0.15362 0.12366 -2.2816e-15 -0.17738 0.1683 0.18073 -0.10434 0.1683 0.10434 -0.18073 0.12366 0.15362 -0.088692 0.12366 0.088692 -0.15362 0.1683 -2.2816e-15 0.20869 0.12366 -3.4225e-15 0.17738 0.1683 -0.10434 0.18073 0.12366 -0.088692 0.15362 0.1683 -1.7112e-15 -0.20869 0.1683 -0.10434 -0.18073 0.12366 -2.2816e-15 -0.17738 0.12366 -0.088692 -0.15362 0.079014 -1.7112e-15 -0.3 0.079014 0.15 -0.25981 0.079014 -0.15 -0.25981 0.079014 -0.25981 -0.15 0.079014 0.25981 -0.15 0.079014 0.3 0 0.079014 -0.3 0 0.079014 -0.25981 0.15 0.079014 0.25981 0.15 0.079014 -0.15 0.25981 0.079014 0.15 0.25981 0.079014 -1.7112e-15 0.3 0.1683 -2.2816e-15 -0.279 0.1683 -0.1395 -0.24162 0.1683 0.1395 -0.24162 0.1683 -1.7112e-15 -0.20869 0.1683 0.10434 -0.18073 0.1683 -0.10434 -0.18073 0.1683 0.24162 -0.1395 0.1683 -0.24162 -0.1395 0.1683 0.18073 -0.10434 0.1683 -0.18073 -0.10434 0.1683 -0.279 0 0.1683 -0.20869 0 0.1683 0.279 0 0.1683 0.20869 0 0.1683 0.18073 0.10434 0.1683 0.24162 0.1395 0.1683 0.10434 0.18073 0.1683 -0.24162 0.1395 0.1683 -0.18073 0.10434 0.1683 -0.10434 0.18073 0.1683 0.1395 0.24162 0.1683 -0.1395 0.24162 0.1683 -2.2816e-15 0.20869 0.1683 -2.2816e-15 0.279 0.12366 -1.7112e-15 0.088308 0.12366 0.044154 0.076477 0.1683 -1.1408e-15 0.073296 0.1683 0.036648 0.063476 0.12366 -1.7112e-15 0.088308 0.1683 -1.1408e-15 0.073296 0.12366 -0.044154 0.076477 0.1683 -0.036648 0.063476 0.1683 0.073296 0 0.12366 0.088308 0 0.1683 0.063476 -0.036648 0.12366 0.076477 -0.044154 0.1683 0.073296 0 0.1683 0.063476 -0.036648 0.1683 0.063476 0.036648 0.1683 0.036648 0.063476 0.1683 0.036648 -0.063476 0.1683 -1.1408e-15 0.073296 0.1683 0 -0.073296 0.1683 -0.036648 -0.063476 0.1683 -0.036648 0.063476 0.1683 -0.063476 0.036648 0.1683 -0.063476 -0.036648 0.1683 -0.073296 0 0.1683 -0.063476 -0.036648 0.1683 -0.036648 -0.063476 0.12366 -0.076477 -0.044154 0.12366 -0.044154 -0.076477 0.1683 -0.073296 0 0.1683 -0.063476 -0.036648 0.12366 -0.088308 0 0.12366 -0.076477 -0.044154 0.1683 0.063476 -0.036648 0.12366 0.076477 -0.044154 0.1683 0.036648 -0.063476 0.12366 0.044154 -0.076477 0.12366 0.044154 -0.076477 0.12366 -5.7041e-16 -0.088308 0.1683 0.036648 -0.063476 0.1683 0 -0.073296 0.12366 -0.044154 -0.076477 0.1683 -0.036648 -0.063476 0.12366 -5.7041e-16 -0.088308 0.1683 0 -0.073296 0.12366 0.076477 0.044154 0.12366 0.088308 0 0.1683 0.063476 0.036648 0.1683 0.073296 0 0.12366 -0.044154 0.076477 0.1683 -0.036648 0.063476 0.12366 -0.076477 0.044154 0.1683 -0.063476 0.036648 0.12366 0.044154 0.076477 0.12366 0.076477 0.044154 0.1683 0.036648 0.063476 0.1683 0.063476 0.036648 0.12366 -0.076477 0.044154 0.1683 -0.063476 0.036648 0.12366 -0.088308 0 0.1683 -0.073296 0 0.12366 -2.2816e-15 -0.17738 0.12366 -0.088692 -0.15362 0.12366 0.088692 -0.15362 0.12366 -0.15362 -0.088692 0.12366 0.15362 -0.088692 0.12366 0.17738 0 0.12366 -0.17738 0 0.12366 0.15362 0.088692 0.12366 -0.15362 0.088692 0.12366 0.088692 0.15362 0.12366 -0.088692 0.15362 0.12366 -3.4225e-15 0.17738 0 0.1116 0.1933 0 0.1933 0.1116 0.079014 0.12 0.20785 0.079014 0.20785 0.12 0 0.1933 0.1116 0 0.2232 0 0.079014 0.20785 0.12 0.079014 0.24 0 0 -1.1408e-15 -0.2232 0 0.1116 -0.1933 0 -0.1116 -0.1933 0 -0.1933 -0.1116 0 0.1933 -0.1116 0 0.2232 0 0 -0.2232 0 0 -0.1933 0.1116 0 0.1933 0.1116 0 -0.1116 0.1933 0 0.1116 0.1933 0 -1.1408e-15 0.2232 0.079014 -1.1408e-15 -0.24 0 -1.1408e-15 -0.2232 0.079014 -0.12 -0.20785 0 -0.1116 -0.1933 0 0.2232 0 0 0.1933 -0.1116 0.079014 0.24 0 0.079014 0.20785 -0.12 0.079014 0.12 -0.20785 0 0.1116 -0.1933 0.079014 -1.1408e-15 -0.24 0 -1.1408e-15 -0.2232 0 -1.1408e-15 0.2232 0.079014 -1.1408e-15 0.24 0 -0.1116 0.1933 0.079014 -0.12 0.20785 0 -0.1933 0.1116 0.079014 -0.20785 0.12 0 -0.2232 0 0.079014 -0.24 0 0.079014 0.20785 -0.12 0 0.1933 -0.1116 0.079014 0.12 -0.20785 0 0.1116 -0.1933 0.079014 0.12 0.20785 0.079014 -1.1408e-15 0.24 0 0.1116 0.1933 0 -1.1408e-15 0.2232 0 -0.2232 0 0.079014 -0.24 0 0 -0.1933 -0.1116 0.079014 -0.20785 -0.12 0 -0.1116 0.1933 0.079014 -0.12 0.20785 0 -0.1933 0.1116 0.079014 -0.20785 0.12 0 -0.1116 -0.1933 0 -0.1933 -0.1116 0.079014 -0.12 -0.20785 0.079014 -0.20785 -0.12</float_array><technique_common><accessor source="#g-p-a" count="264" stride="3"><param name="X" type="float"/><param name="Y" type="float"/><param name="Z" type="float"/></accessor></technique_common></source>
<source id="g-n"><float_array id="g-n-a" count="792">0.56078 -0.79976 0.21429 0.56078 -0.79976 0.21429 0.56078 -0.79976 0.21429 0.56078 -0.79976 0.21429 0.56078 -0.79976 -0.21429 0.56078 -0.79976 -0.21429 0.56078 -0.79976 -0.21429 0.56078 -0.79976 -0.21429 0.22154 0.68954 -0.68954 0.22154 0.68954 -0.68954 0.22154 0.68954 -0.68954 0.22154 0.68954 -0.68954 0.22154 -0.94192 0.25239 0.22154 -0.94192 0.25239 0.22154 -0.94192 0.25239 0.22154 -0.94192 0.25239 0.22154 0.94192 0.25239 0.22154 0.94192 0.25239 0.22154 0.94192 0.25239 0.22154 0.94192 0.25239 0.22154 0.25239 0.94192 0.22154 0.25239 0.94192 0.22154 0.25239 0.94192 0.22154 0.25239 0.94192 0.22154 0.94192 -0.25239 0.22154 0.94192 -0.25239 0.22154 0.94192 -0.25239 0.22154 0.94192 -0.25239 0.22154 0.25239 -0.94192 0.22154 0.25239 -0.94192 0.22154 0.25239 -0.94192 0.22154 0.25239 -0.94192 0.22154 -0.68954 0.68954 0.22154 -0.68954 0.68954 0.22154 -0.68954 0.68954 0.22154 -0.68954 0.68954 0.22154 -0.25239 -0.94192 0.22154 -0.25239 -0.94192 0.22154 -0.25239 -0.94192 0.22154 -0.25239 -0.94192 0.22154 -0.68954 -0.68954 0.22154 -0.68954 -0.68954 0.22154 -0.68954 -0.68954 0.22154 -0.68954 -0.68954 0.22154 0.68954 0.68954 0.22154 0.68954 0.68954 0.22154 0.68954 0.68954 0.22154 0.68954 0.68954 0.22154 -0.94192 -0.25239 0.22154 -0.94192 -0.25239 0.22154 -0.94192 -0.25239 0.22154 -0.94192 -0.25239 0.56078 0.79976 -0.21429 0.56078 0.79976 -0.21429 0.56078 0.79976 -0.21429 0.56078 0.79976 -0.21429 0.56078 0.58546 0.58546 0.56078 0.58546 0.58546 0.56078 0.58546 0.58546 0.56078 0.58546 0.58546 0.56078 -0.58546 -0.58546 0.56078 -0.58546 -0.58546 0.56078 -0.58546 -0.58546 0.56078 -0.58546 -0.58546 0.56078 -0.21429 -0.79975 0.56078 -0.21429 -0.79975 0.56078 -0.21429 -0.79975 0.56078 -0.21429 -0.79975 0.22154 -0.25239 0.94192 0.22154 -0.25239 0.94192 0.22154 -0.25239 0.94192 0.22154 -0.25239 0.94192 0.56078 0.79976 0.21429 0.56078 0.79976 0.21429 0.56078 0.79976 0.21429 0.56078 0.79976 0.21429 0.56078 0.58546 -0.58546 0.56078 0.58546 -0.58546 0.56078 0.58546 -0.58546 0.56078 0.58546 -0.58546 0.56078 -0.21429 0.79976 0.56078 -0.21429 0.79976 0.56078 -0.21429 0.79976 0.56078 -0.21429 0.79976 0.56078 -0.58546 0.58546 0.56078 -0.58546 0.58546 0.56078 -0.58546 0.58546 0.56078 -0.58546 0.58546 0.56078 0.21429 -0.79975 0.56078 0.21429 -0.79975 0.56078 0.21429 -0.79975 0.56078 0.21429 -0.79975 0.56078 0.21429 0.79976 0.56078 0.21429 0.79976 0.56078 0.21429 0.79976 0.56078 0.21429 0.79976 -1 0 0 -1 0 0 -1 0 0 -1 0 0 -1 0 0 -1 0 0 -1 0 0 -1 0 0 -1 0 0 -1 0 0 -1 0 0 -1 0 0 1 0 0 1 0 0 1 0 0 1 0 0 1 0 0 1 0 0 1 0 0 1 0 0 1 0 0 1 0 0 1 0 0 1 0 0 1 0 0 1 0 0 1 0 0 1 0 0 1 0 0 1 0 0 1 0 0 1 0 0 1 0 0 1 0 0 1 0 0 1 0 0 0.30893 0.24616 0.91868 0.30893 0.24616 0.91868 0.30893 0.24616 0.91868 0.30893 0.24616 0.91868 0.30893 -0.24616 0.91868 0.30893 -0.24616 0.91868 0.30893 -0.24616 0.91868 0.30893 -0.24616 0.91868 0.30893 0.91868 -0.24616 0.30893 0.91868 -0.24616 0.30893 0.91868 -0.24616 0.30893 0.91868 -0.24616 1 0 -1.6064e-07 1 5.8131e-08 -1.0632e-07 1 -1.4457e-07 -1.6064e-07 1 -4.0248e-08 -1.0632e-07 1 3.8251e-08 -8.5289e-08 1 6.0411e-22 -9.0259e-08 1 8.5941e-23 -8.0318e-08 1 -3.3281e-08 -9.8867e-08 1 4.5219e-08 -9.2744e-08 1 5.8131e-08 -1.0632e-07 1 -1.4457e-07 -1.6064e-07 1 0 -1.6064e-07 0.30893 -0.67252 -0.67252 0.30893 -0.67252 -0.67252 0.30893 -0.67252 -0.67252 0.30893 -0.67252 -0.67252 0.30893 -0.91868 -0.24616 0.30893 -0.91868 -0.24616 0.30893 -0.91868 -0.24616 0.30893 -0.91868 -0.24616 0.30893 0.67252 -0.67252 0.30893 0.67252 -0.67252 0.30893 0.67252 -0.67252 0.30893 0.67252 -0.67252 0.30893 0.24616 -0.91868 0.30893 0.24616 -0.91868 0.30893 0.24616 -0.91868 0.30893 0.24616 -0.91868 0.30893 -0.24616 -0.91868 0.30893 -0.24616 -0.91868 0.30893 -0.24616 -0.91868 0.30893 -0.24616 -0.91868 0.30893 0.91868 0.24616 0.30893 0.91868 0.24616 0.30893 0.91868 0.24616 0.30893 0.91868 0.24616 0.30893 -0.67252 0.67252 0.30893 -0.67252 0.67252 0.30893 -0.67252 0.67252 0.30893 -0.67252 0.67252 0.30893 0.67252 0.67252 0.30893 0.67252 0.67252 0.30893 0.67252 0.67252 0.30893 0.67252 0.67252 0.30893 -0.91868 0.24616 0.30893 -0.91868 0.24616 0.30893 -0.91868 0.24616 0.30893 -0.91868 0.24616 1 0 0 1 0 0 1 0 0 1 0 0 1 0 0 1 0 0 1 0 0 1 0 0 1 0 0 1 0 0 1 0 0 1 0 0 -0.20118 0.69265 0.69265 -0.20118 0.69265 0.69265 -0.20118 0.69265 0.69265 -0.20118 0.69265 0.69265 -0.20118 0.94618 0.25353 -0.20118 0.94618 0.25353 -0.20118 0.94618 0.25353 -0.20118 0.94618 0.25353 -1 0 0 -1 0 0 -1 0 0 -1 0 0 -1 0 0 -1 0 0 -1 0 0 -1 0 0 -1 0 0 -1 0 0 -1 0 0 -1 0 0 -0.20118 -0.25353 -0.94618 -0.20118 -0.25353 -0.94618 -0.20118 -0.25353 -0.94618 -0.20118 -0.25353 -0.94618 -0.20118 0.94618 -0.25353 -0.20118 0.94618 -0.25353 -0.20118 0.94618 -0.25353 -0.20118 0.94618 -0.25353 -0.20118 0.25353 -0.94618 -0.20118 0.25353 -0.94618 -0.20118 0.25353 -0.94618 -0.20118 0.25353 -0.94618 -0.20118 -0.25353 0.94618 -0.20118 -0.25353 0.94618 -0.20118 -0.25353 0.94618 -0.20118 -0.25353 0.94618 -0.20118 -0.94618 0.25353 -0.20118 -0.94618 0.25353 -0.20118 -0.94618 0.25353 -0.20118 -0.94618 0.25353 -0.20118 0.69265 -0.69265 -0.20118 0.69265 -0.69265 -0.20118 0.69265 -0.69265 -0.20118 0.69265 -0.69265 -0.20118 0.25353 0.94618 -0.20118 0.25353 0.94618 -0.20118 0.25353 0.94618 -0.20118 0.25353 0.94618 -0.20118 -0.94618 -0.25353 -0.20118 -0.94618 -0.25353 -0.20118 -0.94618 -0.25353 -0.20118 -0.94618 -0.25353 -0.20118 -0.69265 0.69265 -0.20118 -0.69265 0.69265 -0.20118 -0.69265 0.69265 -0.20118 -0.69265 0.69265 -0.20118 -0.69265 -0.69265 -0.20118 -0.69265 -0.69265 -0.20118 -0.69265 -0.69265 -0.20118 -0.69265 -0.69265</float_array><technique_common><accessor source="#g-n-a" count="264" stride="3"><param name="X" type="float"/><param name="Y" type="float"/><param name="Z" type="float"/></accessor></technique_common></source>
<vertices id="g-v"><input semantic="POSITION" source="#g-p"/><input semantic="NORMAL" source="#g-n"/></vertices>
<triangles material="m0" count="60"><input semantic="VERTEX" source="#g-v" offset="0"/><p>2 1 0 1 2 3 6 5 4 5 6 7 10 9 8 9 10 11 14 13 12 13 14 15 18 17 16 17 18 19 22 21 20 21 22 23 26 25 24 25 26 27 30 29 28 29 30 31 34 33 32 33 34 35 38 37 36 37 38 39 42 41 40 41 42 43 46 45 44 45 46 47 50 49 48 49 50 51 54 53 52 53 54 55 58 57 56 57 58 59 62 61 60 61 62 63 66 65 64 65 66 67 70 69 68 69 70 71 74 73 72 73 74 75 78 77 76 77 78 79 82 81 80 81 82 83 86 85 84 85 86 87 90 89 88 89 90 91 94 93 92 93 94 95 98 97 96 97 98 99 97 99 100 100 99 101 101 99 102 101 102 103 101 103 104 104 103 105 104 105 106 106 105 107 110 109 108 109 110 111</p></triangles>
<triangles material="m1" count="56"><input semantic="VERTEX" source="#g-v" offset="0"/><p>111 110 112 113 109 111 112 110 114 109 113 115 112 114 116 115 113 117 115 117 118 118 117 119 116 114 120 116 120 121 121 120 122 122 120 123 122 123 124 118 119 125 125 119 126 125 126 127 124 123 128 125 127 129 124 128 130 129 127 130 129 130 128 129 128 131 134 133 132 133 134 135 138 137 136 137 138 139 142 141 140 141 142 143 146 145 144 145 146 147 145 147 148 148 147 149 148 149 150 150 149 151 151 149 152 151 152 153 151 153 154 154 153 155 158 157 156 157 158 159 162 161 160 161 162 163 166 165 164 165 166 167 170 169 168 169 170 171 174 173 172 173 174 175 178 177 176 177 178 179 182 181 180 181 182 183 186 185 184 185 186 187 190 189 188 189 190 191</p></triangles>
<triangles material="m2" count="44"><input semantic="VERTEX" source="#g-v" offset="0"/><p>194 193 192 193 194 195 195 194 196 195 196 197 195 197 198 198 197 199 198 199 200 200 199 201 200 201 202 202 201 203 206 205 204 205 206 207 210 209 208 209 210 211 214 213 212 213 214 215 213 215 216 216 215 217 217 215 218 217 218 219 217 219 220 220 219 221 220 221 222 222 221 223 226 225 224 225 226 227 230 229 228 229 230 231 234 233 232 233 234 235 238 237 236 237 238 239 242 241 240 241 242 243 246 245 244 245 246 247 250 249 248 249 250 251 254 253 252 253 254 255 258 257 256 257 258 259 262 261 260 261 262 263</p></triangles>
</mesh></geometry></library_geometries><library_visual_scenes><visual_scene id="Scene"><node id="n" name="shield"><instance_geometry url="#g"><bind_material><technique_common>
<instance_material symbol="m0" target="#m0"/>
<instance_material symbol="m1" target="#m1"/>
<instance_material symbol="m2" target="#m2"/>
</technique_common></bind_material></instance_geometry></node></visual_scene></library_visual_scenes><scene><instance_visual_scene url="#Scene"/></scene></COLLADA>
