<?xml version="1.0" encoding="utf-8"?>
<COLLADA xmlns="http://www.collada.org/2005/11/COLLADASchema" version="1.4.1">
<asset><contributor><authoring_tool>VATs starter props (see CREDITS.md)</authoring_tool></contributor><unit name="meter" meter="1"/><up_axis>Z_UP</up_axis></asset>
<library_effects>
<effect id="m0-fx"><profile_COMMON><technique sid="common"><lambert><diffuse><color>0.360 0.390 0.430 1</color></diffuse></lambert></technique></profile_COMMON></effect>
<effect id="m1-fx"><profile_COMMON><technique sid="common"><lambert><diffuse><color>0.240 0.250 0.280 1</color></diffuse></lambert></technique></profile_COMMON></effect>
<effect id="m2-fx"><profile_COMMON><technique sid="common"><lambert><diffuse><color>0.200 0.230 0.270 1</color></diffuse></lambert></technique></profile_COMMON></effect>
<effect id="m3-fx"><profile_COMMON><technique sid="common"><lambert><diffuse><color>0.620 0.470 0.340 1</color></diffuse></lambert></technique></profile_COMMON></effect>
</library_effects><library_materials>
<material id="m0" name="m0"><instance_effect url="#m0-fx"/></material>
<material id="m1" name="m1"><instance_effect url="#m1-fx"/></material>
<material id="m2" name="m2"><instance_effect url="#m2-fx"/></material>
<material id="m3" name="m3"><instance_effect url="#m3-fx"/></material>
</library_materials><library_geometries><geometry id="g" name="shotgun"><mesh>
<source id="g-p"><float_array id="g-p-a" count="5526">0.2949 -0.0152 -0.0099 0.2949 -0.0203 0.0029 0.2891 -0.0113 -0.0066 0.2871 -0.0152 0.0029 0.2891 -0.0113 -0.0066 0.2949 -0.0203 0.0029 0.2949 -0.0203 0.0029 0.2871 -0.0152 0.0172 0.2871 -0.0152 0.0029 0.2949 -0.0203 0.0172 0.2949 -0.0203 0.0029 0.2949 -0.0152 -0.0099 0.3163 -0.0152 -0.0099 0.3163 -0.0203 0.0029 0.2845 0 0.0029 0.2891 0.0113 -0.0066 0.2871 0 -0.0099 0.2871 0.0152 0.0029 0.2891 0.0113 -0.0066 0.2845 0 0.0029 0.2845 0 0.0029 0.2871 0.0152 0.0172 0.2871 0.0152 0.0029 0.2845 0 0.0172 0.2871 -0.0152 0.0172 0.2845 0 0.0172 0.2845 0 0.0029 0.2871 -0.0152 0.0029 0.2845 0 0.0029 0.2871 0 -0.0099 0.2891 -0.0113 -0.0066 0.2871 -0.0152 0.0029 0.2845 0 0.0029 0.2891 -0.0113 -0.0066 0.4307 0 0.0029 0.427 -0.0113 -0.0066 0.4286 0 -0.0099 0.4286 -0.0152 0.0029 0.427 -0.0113 -0.0066 0.4307 0 0.0029 0.4307 0 0.0029 0.4286 -0.0152 0.0172 0.4286 -0.0152 0.0029 0.4307 0 0.0172 0.4286 0.0152 0.0172 0.4307 0 0.0029 0.4286 0.0152 0.0029 0.4307 0 0.0172 0.4307 0 0.0029 0.4286 0 -0.0099 0.427 0.0113 -0.0066 0.4286 0.0152 0.0029 0.4307 0 0.0029 0.427 0.0113 -0.0066 0.4223 0.0152 -0.0099 0.4223 0.0203 0.0029 0.427 0.0113 -0.0066 0.427 0.0113 -0.0066 0.4223 0.0203 0.0029 0.4286 0.0152 0.0029 0.4223 0.0203 0.0029 0.4286 0.0152 0.0172 0.4286 0.0152 0.0029 0.4223 0.0203 0.0172 0.4223 0.0203 0.0029 0.4223 0.0152 -0.0099 0.4024 0.0152 -0.0099 0.4024 0.0203 0.0029 0.2949 0.0203 0.0029 0.3163 0.0152 -0.0099 0.2949 0.0152 -0.0099 0.3163 0.0203 0.0029 0.2949 0.0203 0.0029 0.3163 0.0203 0.0172 0.3163 0.0203 0.0029 0.2949 0.0203 0.0172 0.2871 0.0152 0.0172 0.2949 0.0203 0.0029 0.2871 0.0152 0.0029 0.2949 0.0203 0.0172 0.2949 0.0203 0.0029 0.2949 0.0152 -0.0099 0.2891 0.0113 -0.0066 0.2871 0.0152 0.0029 0.2949 0.0203 0.0029 0.2891 0.0113 -0.0066 0.3596 -0.0203 0.0029 0.3596 -0.0152 -0.0099 0.3596 -0.0203 0.0029 0.3163 -0.0203 0.0172 0.3163 -0.0203 0.0029 0.3596 -0.0203 0.0172 0.4024 -0.0203 0.0172 0.4024 -0.0203 0.0029 0.4024 -0.0203 0.0029 0.4024 -0.0152 -0.0099 0.4223 -0.0203 0.0029 0.4223 -0.0152 -0.0099 0.4223 -0.0203 0.0029 0.4223 -0.0203 0.0172 0.4286 -0.0152 0.0172 0.4223 -0.0203 0.0029 0.4286 -0.0152 0.0029 0.4223 -0.0203 0.0172 0.4223 -0.0203 0.0029 0.4223 -0.0152 -0.0099 0.427 -0.0113 -0.0066 0.427 -0.0113 -0.0066 0.4286 -0.0152 0.0029 0.4223 -0.0203 0.0029 0.3596 0.0203 0.0029 0.3596 0.0152 -0.0099 0.3596 0.0203 0.0029 0.4024 0.0203 0.0172 0.4024 0.0203 0.0029 0.3596 0.0203 0.0172 0.3596 0 -0.0142 0.3163 -0.0152 -0.0099 0.3163 0 -0.0142 0.3596 -0.0152 -0.0099 0.4024 0 -0.0142 0.4024 -0.0152 -0.0099 0.4024 0 -0.0142 0.3596 0 -0.0142 0.4024 0.0152 -0.0099 0.3596 0.0152 -0.0099 0.3163 0 -0.0142 0.3163 0.0152 -0.0099 0.4024 0.0152 0.0299 0.3596 0.0152 0.0299 0.3596 0 0.0313 0.4024 0 0.0313 0.4024 0 0.0313 0.3596 -0.0152 0.0299 0.4024 -0.0152 0.0299 0.3596 0 0.0313 0.3163 0 0.0313 0.3163 -0.0152 0.0299 0.3163 0 0.0313 0.3163 0.0152 0.0299 0.3596 0.0203 0.0257 0.4024 0.0203 0.0257 0.4024 0.0203 0.0257 0.3596 0.0152 0.0299 0.4024 0.0152 0.0299 0.3596 0.0203 0.0257 0.3163 0.0203 0.0257 0.3163 0.0152 0.0299 0.3163 0.0203 0.0257 0.4223 -0.0203 0.0257 0.4024 -0.0203 0.0257 0.4223 -0.0203 0.0257 0.4024 -0.0152 0.0299 0.4024 -0.0203 0.0257 0.4223 -0.0152 0.0299 0.4223 -0.0152 0.0299 0.4286 -0.0152 0.0257 0.427 -0.0113 0.0288 0.4286 -0.0152 0.0257 0.4223 -0.0152 0.0299 0.4223 -0.0203 0.0257 0.4223 -0.0203 0.0257 0.4286 -0.0152 0.0257 0.2949 0 -0.0142 0.2891 -0.0113 -0.0066 0.2871 0 -0.0099 0.2891 -0.0113 -0.0066 0.2949 0 -0.0142 0.2949 -0.0152 -0.0099 0.2949 -0.0152 -0.0099 0.2949 0 -0.0142 0.2949 0 -0.0142 0.2949 0.0152 -0.0099 0.2949 0.0152 -0.0099 0.2949 0 -0.0142 0.2891 0.0113 -0.0066 0.2891 0.0113 -0.0066 0.2949 0 -0.0142 0.2871 0 -0.0099 0.2949 0.0152 0.0299 0.2949 0 0.0313 0.2949 -0.0152 0.0299 0.2949 0 0.0313 0.2949 -0.0152 0.0299 0.2949 0 0.0313 0.2891 -0.0113 0.0288 0.2871 0 0.0299 0.2891 -0.0113 0.0288 0.2949 0 0.0313 0.2949 0 0.0313 0.2891 0.0113 0.0288 0.2871 0 0.0299 0.2891 0.0113 0.0288 0.2949 0 0.0313 0.2949 0.0152 0.0299 0.3596 -0.0203 0.0257 0.3163 -0.0203 0.0257 0.3163 -0.0203 0.0257 0.3596 -0.0152 0.0299 0.3163 -0.0152 0.0299 0.3596 -0.0203 0.0257 0.2949 0.0203 0.0257 0.2949 0.0152 0.0299 0.2949 0.0203 0.0257 0.2949 0.0152 0.0299 0.2871 0.0152 0.0257 0.2891 0.0113 0.0288 0.2871 0.0152 0.0257 0.2949 0.0152 0.0299 0.2949 0.0203 0.0257 0.2949 0.0203 0.0257 0.2871 0.0152 0.0257 0.4223 0.0203 0.0257 0.4286 0.0152 0.0257 0.4223 0.0152 0.0299 0.4286 0.0152 0.0257 0.4223 0.0203 0.0257 0.4286 0.0152 0.0257 0.4223 0.0152 0.0299 0.427 0.0113 0.0288 0.4223 0.0203 0.0257 0.4223 0.0152 0.0299 0.4223 0.0203 0.0257 0.4223 0.0203 0.0029 0.4223 0.0203 0.0172 0.4307 0 0.0257 0.4286 -0.0152 0.0257 0.4307 0 0.0257 0.427 -0.0113 0.0288 0.4286 -0.0152 0.0257 0.427 -0.0113 0.0288 0.4307 0 0.0257 0.4286 0 0.0299 0.4307 0 0.0257 0.4286 0.0152 0.0257 0.427 0.0113 0.0288 0.427 0.0113 0.0288 0.4286 0 0.0299 0.4307 0 0.0257 0.4286 0.0152 0.0257 0.4307 0 0.0257 0.2845 0 0.0257 0.2871 0.0152 0.0257 0.2845 0 0.0257 0.2891 0.0113 0.0288 0.2871 0.0152 0.0257 0.2891 0.0113 0.0288 0.2845 0 0.0257 0.2871 0 0.0299 0.2845 0 0.0257 0.2871 -0.0152 0.0257 0.2891 -0.0113 0.0288 0.2891 -0.0113 0.0288 0.2871 0 0.0299 0.2845 0 0.0257 0.2871 -0.0152 0.0257 0.2845 0 0.0257 0.2949 -0.0203 0.0257 0.2871 -0.0152 0.0257 0.2871 -0.0152 0.0257 0.2949 -0.0152 0.0299 0.2891 -0.0113 0.0288 0.2949 -0.0152 0.0299 0.2871 -0.0152 0.0257 0.2949 -0.0203 0.0257 0.2949 -0.0203 0.0257 0.2949 -0.0152 0.0299 0.2949 -0.0203 0.0257 0.2949 -0.0203 0.0172 0.2949 -0.0203 0.0029 0.4223 0 0.0313 0.4286 0 0.0299 0.427 0.0113 0.0288 0.4223 0.0152 0.0299 0.4223 0 0.0313 0.427 0.0113 0.0288 0.4223 0 0.0313 0.4223 -0.0152 0.0299 0.427 -0.0113 0.0288 0.427 -0.0113 0.0288 0.4286 0 0.0299 0.4223 0 0.0313 0.4223 0 0.0313 0.4223 -0.0152 0.0299 0.4223 0.0152 0.0299 0.4223 0 0.0313 0.4223 0 -0.0142 0.4223 -0.0152 -0.0099 0.4223 0 -0.0142 0.4286 0 -0.0099 0.427 -0.0113 -0.0066 0.4223 -0.0152 -0.0099 0.4223 0 -0.0142 0.427 -0.0113 -0.0066 0.4223 0 -0.0142 0.4223 0.0152 -0.0099 0.427 0.0113 -0.0066 0.427 0.0113 -0.0066 0.4286 0 -0.0099 0.4223 0 -0.0142 0.4223 0.0152 -0.0099 0.4223 0 -0.0142 -0.0316 0.0098 0.0263 -0.0316 -0.0098 0.0263 -0.0167 -0.0098 0.0262 -0.0167 0.0098 0.0262 -0.0316 0.0134 -0.0232 -0.0167 0.0134 -0.0084 -0.0208 0.0134 -0.0367 -0.0316 0.0134 -0.0106 -0.0316 0.0134 0.0205 -0.0167 0.0098 0.0262 -0.0167 0.0134 0.0204 -0.0316 0.0098 0.0263 -0.0018 -0.0098 0.0262 -0.0167 -0.0134 0.0204 -0.0018 -0.0134 0.0203 -0.0167 -0.0098 0.0262 -0.0524 0.0098 -0.0202 -0.0316 0.0134 -0.0232 -0.0316 0.0098 -0.0291 -0.0316 0.0134 -0.0232 -0.0524 0.0098 -0.0202 -0.0488 0.0134 -0.0132 -0.0189 -0.0098 -0.0423 -0.0316 0.0098 -0.0291 -0.0189 0.0098 -0.0423 -0.0316 -0.0098 -0.0291 0.0019 0.0098 -0.0116 -0.0018 0.0134 -0.0262 -0.0018 0.0134 -0.0061 0.0019 0.0098 -0.0316 -0.0316 -0.0098 -0.0291 -0.0189 -0.0098 -0.0423 -0.0208 -0.0134 -0.0367 -0.0208 -0.0134 -0.0367 -0.0316 -0.0134 -0.0232 -0.0316 -0.0098 -0.0291 -0.0316 0.0098 -0.0291 -0.0208 0.0134 -0.0367 -0.0189 0.0098 -0.0423 -0.0208 0.0134 -0.0367 -0.0316 0.0098 -0.0291 -0.0316 0.0134 -0.0232 -0.0316 -0.0098 -0.0291 -0.0524 0.0098 -0.0202 -0.0316 0.0098 -0.0291 -0.0524 -0.0098 -0.0202 0.0019 -0.0098 -0.0316 -0.0208 -0.0134 -0.0367 -0.0189 -0.0098 -0.0423 -0.0208 -0.0134 -0.0367 0.0019 -0.0098 -0.0316 -0.0018 -0.0134 -0.0262 -0.0018 -0.0134 -0.0262 -0.0167 -0.0134 -0.0084 -0.0208 -0.0134 -0.0367 -0.0189 -0.0098 -0.0423 -0.0189 0.0098 -0.0423 0.0019 0.0098 -0.0316 0.0019 -0.0098 -0.0316 0.0205 0.0134 -0.0041 -0.0018 0.0134 0.0203 0.0198 0.0134 0.0357 -0.0018 0.0134 -0.0061 -0.0018 -0.0134 0.0203 -0.0018 -0.0134 -0.0061 0.0205 -0.0134 -0.0041 0.0198 -0.0134 0.0357 0.0019 -0.0098 -0.0116 0.0019 0.0098 -0.0116 0.0206 0.0098 -0.0099 0.0206 -0.0098 -0.0099 -0.0018 0.0098 0.0262 -0.0018 -0.0098 0.0262 0.0197 -0.0098 0.0415 0.0197 0.0098 0.0415 0.0205 -0.0134 -0.0041 0.0019 -0.0098 -0.0116 0.0206 -0.0098 -0.0099 0.0205 -0.0134 -0.0041 -0.0018 -0.0134 -0.0061 0.0019 -0.0098 -0.0116 0.0413 -0.0134 0.0454 0.0197 -0.0098 0.0415 0.0198 -0.0134 0.0357 0.0197 -0.0098 0.0415 0.0413 -0.0134 0.0454 0.0412 -0.0098 0.0511 0.0019 0.0098 -0.0116 0.0205 0.0134 -0.0041 0.0206 0.0098 -0.0099 0.0205 0.0134 -0.0041 0.0019 0.0098 -0.0116 -0.0018 0.0134 -0.0061 0.0197 0.0098 0.0415 0.0413 0.0134 0.0454 0.0198 0.0134 0.0357 0.0197 0.0098 0.0415 0.0412 0.0098 0.0511 0.0413 0.0134 0.0454 -0.0316 -0.0134 -0.0106 -0.0488 -0.0134 -0.0132 -0.0316 -0.0134 -0.0232 -0.0316 -0.0134 0.0205 -0.0488 -0.0134 0.0406 -0.0316 0.0134 0.0205 -0.0488 0.0134 -0.0132 -0.0488 0.0134 0.0406 -0.0488 0.0098 0.0465 -0.0316 -0.0098 0.0263 -0.0316 0.0098 0.0263 -0.0488 -0.0098 0.0465 -0.0524 -0.0098 -0.0202 -0.0316 -0.0134 -0.0232 -0.0488 -0.0134 -0.0132 -0.0316 -0.0134 -0.0232 -0.0524 -0.0098 -0.0202 -0.0316 -0.0098 -0.0291 -0.0316 0.0098 0.0263 -0.0488 0.0134 0.0406 -0.0488 0.0098 0.0465 -0.0316 0.0134 0.0205 0.0019 0.0098 -0.0316 -0.0208 0.0134 -0.0367 -0.0018 0.0134 -0.0262 -0.0208 0.0134 -0.0367 0.0019 0.0098 -0.0316 -0.0189 0.0098 -0.0423 -0.0316 -0.0134 0.0205 -0.0316 -0.0098 0.0263 -0.2347 -0.0134 0.0375 -0.2173 -0.0134 -0.079 -0.0488 0.0098 0.0465 -0.2368 -0.0098 0.0433 -0.0488 -0.0098 0.0465 -0.2368 0.0098 0.0433 -0.0524 -0.0098 -0.0202 -0.2173 -0.0134 -0.079 -0.2183 -0.0098 -0.0852 -0.2173 -0.0134 -0.079 -0.0524 -0.0098 -0.0202 -0.0488 -0.0134 -0.0132 -0.0488 -0.0098 0.0465 -0.2347 -0.0134 0.0375 -0.0488 -0.0134 0.0406 -0.2347 -0.0134 0.0375 -0.0488 -0.0098 0.0465 -0.2368 -0.0098 0.0433 -0.2347 0.0134 0.0375 -0.0488 0.0098 0.0465 -0.0488 0.0134 0.0406 -0.0488 0.0098 0.0465 -0.2347 0.0134 0.0375 -0.2368 0.0098 0.0433 -0.0524 0.0098 -0.0202 -0.2183 -0.0098 -0.0852 -0.2183 0.0098 -0.0852 -0.0524 -0.0098 -0.0202 -0.2173 0.0134 -0.079 -0.0488 0.0134 -0.0132 -0.0524 0.0098 -0.0202 -0.0524 0.0098 -0.0202 -0.2183 0.0098 -0.0852 -0.2173 0.0134 -0.079 -0.0018 0.0098 0.0262 0.0197 0.0098 0.0415 0.0198 0.0134 0.0357 -0.0018 0.0098 0.0262 0.0198 0.0134 0.0357 -0.0018 0.0134 0.0203 0.0431 0.0098 -0.0078 0.0429 0.0134 -0.002 -0.0018 -0.0098 0.0262 0.0198 -0.0134 0.0357 0.0197 -0.0098 0.0415 0.0198 -0.0134 0.0357 -0.0018 -0.0098 0.0262 -0.0018 -0.0134 0.0203 0.0431 -0.0098 -0.0078 0.0429 -0.0134 -0.002 -0.0316 -0.0098 0.0263 -0.0488 -0.0098 0.0465 -0.0488 -0.0134 0.0406 -0.0316 -0.0134 0.0205 0.0019 -0.0098 -0.0316 0.0019 -0.0098 -0.0116 -0.0018 -0.0134 -0.0262 -0.0018 -0.0134 -0.0061 0.0019 0.0098 -0.0116 0.0019 -0.0098 -0.0316 0.0019 0.0098 -0.0316 0.0019 -0.0098 -0.0116 -0.0018 0.0098 0.0262 -0.0018 0.0134 0.0203 -0.0018 0.0134 -0.0262 0.0197 0.0098 0.0415 0.0197 -0.0098 0.0415 0.0412 -0.0098 0.0511 0.0412 0.0098 0.0511 0.0431 0.0098 -0.0078 0.0431 -0.0098 -0.0078 0.0429 -0.0134 -0.002 0.0413 -0.0134 0.0454 -0.0018 -0.0098 0.0262 -0.0018 0.0098 0.0262 -0.0167 0.0134 0.0204 -0.2347 0.0134 0.0375 -0.2173 0.0134 -0.079 0.0429 0.0134 -0.002 0.0413 0.0134 0.0454 -0.0167 -0.0134 0.0204 0.0988 -0.0076 -0.0084 0.1002 0.0072 -0.0144 0.1002 -0.0072 -0.0144 0.0988 0.0076 -0.0084 0.1002 0.0072 -0.0144 0.1197 0.0076 -0.0084 0.1183 0.0075 -0.0143 0.1197 0.0076 -0.0084 0.1002 0.0072 -0.0144 0.0988 0.0076 -0.0084 0.1197 0.0076 -0.0084 0.1183 -0.0075 -0.0143 0.1183 0.0075 -0.0143 0.1197 -0.0076 -0.0084 0.1197 -0.0076 -0.0084 0.0988 0.0076 -0.0084 0.0988 -0.0076 -0.0084 0.1197 0.0076 -0.0084 0.1183 0.0075 -0.0143 0.1148 -0.0071 -0.0204 0.1148 0.0071 -0.0204 0.1183 -0.0075 -0.0143 0.1148 -0.0071 -0.0204 0.1002 -0.0072 -0.0144 0.1038 -0.0063 -0.0205 0.1002 -0.0072 -0.0144 0.1148 -0.0071 -0.0204 0.1183 -0.0075 -0.0143 0.1038 -0.0063 -0.0205 0.1002 0.0072 -0.0144 0.1038 0.0063 -0.0205 0.1002 -0.0072 -0.0144 0.1197 -0.0076 -0.0084 0.1002 -0.0072 -0.0144 0.1183 -0.0075 -0.0143 0.1197 -0.0076 -0.0084 0.0988 -0.0076 -0.0084 0.1002 -0.0072 -0.0144 0.1047 -0.0044 -0.0296 0.1038 0.0063 -0.0205 0.1047 0.0044 -0.0296 0.1038 -0.0063 -0.0205 0.1038 0.0063 -0.0205 0.1089 0.0051 -0.0294 0.1047 0.0044 -0.0296 0.1038 0.0063 -0.0205 0.1148 0.0071 -0.0204 0.1089 0.0051 -0.0294 0.1148 0.0071 -0.0204 0.1089 -0.0051 -0.0294 0.1089 0.0051 -0.0294 0.1148 -0.0071 -0.0204 0.1002 0.0072 -0.0144 0.1148 0.0071 -0.0204 0.1038 0.0063 -0.0205 0.1002 0.0072 -0.0144 0.1183 0.0075 -0.0143 0.1148 0.0071 -0.0204 0.0993 -0.0033 -0.0371 0.1047 0.0044 -0.0296 0.0993 0.0033 -0.0371 0.1047 -0.0044 -0.0296 0.1089 0.0051 -0.0294 0.1015 0.0034 -0.0401 0.1047 0.0044 -0.0296 0.0993 0.0033 -0.0371 0.1047 0.0044 -0.0296 0.1015 0.0034 -0.0401 0.1089 0.0051 -0.0294 0.1015 -0.0034 -0.0401 0.1015 0.0034 -0.0401 0.1089 -0.0051 -0.0294 0.1089 -0.0051 -0.0294 0.1038 -0.0063 -0.0205 0.1047 -0.0044 -0.0296 0.1038 -0.0063 -0.0205 0.1089 -0.0051 -0.0294 0.1148 -0.0071 -0.0204 0.0922 -0.0034 -0.0434 0.0922 0.0034 -0.0434 0.1015 0.0034 -0.0401 0.1015 -0.0034 -0.0401 0.0927 -0.0033 -0.04 0.1015 -0.0034 -0.0401 0.0993 -0.0033 -0.0371 0.0922 -0.0034 -0.0434 0.1015 -0.0034 -0.0401 0.0927 -0.0033 -0.04 0.0927 -0.0033 -0.04 0.0993 0.0033 -0.0371 0.0927 0.0033 -0.04 0.0993 -0.0033 -0.0371 0.1047 -0.0044 -0.0296 0.1015 -0.0034 -0.0401 0.1089 -0.0051 -0.0294 0.1015 -0.0034 -0.0401 0.1047 -0.0044 -0.0296 0.0993 -0.0033 -0.0371 0.0927 0.0033 -0.04 0.0786 0.0034 -0.0401 0.0927 -0.0033 -0.04 0.0786 -0.0034 -0.0401 0.0922 0.0034 -0.0434 0.0786 0.0034 -0.0401 0.0927 0.0033 -0.04 0.0786 0.0034 -0.0401 0.0922 0.0034 -0.0434 0.0787 0.0034 -0.0445 0.0922 -0.0034 -0.0434 0.0787 0.0034 -0.0445 0.0922 0.0034 -0.0434 0.0787 -0.0034 -0.0445 0.1015 0.0034 -0.0401 0.0927 0.0033 -0.04 0.0993 0.0033 -0.0371 0.0927 0.0033 -0.04 0.1015 0.0034 -0.0401 0.0922 0.0034 -0.0434 0.0787 0.0034 -0.0445 0.0656 0.0033 -0.0393 0.0786 0.0034 -0.0401 0.0656 0.0033 -0.0393 0.0787 0.0034 -0.0445 0.0646 0.0034 -0.0443 0.0787 -0.0034 -0.0445 0.0646 0.0034 -0.0443 0.0787 0.0034 -0.0445 0.0646 -0.0034 -0.0443 0.0786 -0.0034 -0.0401 0.0656 -0.0033 -0.0393 0.0787 -0.0034 -0.0445 0.0646 -0.0034 -0.0443 0.0787 -0.0034 -0.0445 0.0656 -0.0033 -0.0393 0.0927 -0.0033 -0.04 0.0786 -0.0034 -0.0401 0.0922 -0.0034 -0.0434 0.0787 -0.0034 -0.0445 0.0922 -0.0034 -0.0434 0.0786 -0.0034 -0.0401 0.0533 0.0049 -0.0395 0.0646 -0.0034 -0.0443 0.0533 -0.0049 -0.0395 0.0646 0.0034 -0.0443 0.0565 -0.0042 -0.0358 0.0533 -0.0049 -0.0395 0.0646 -0.0034 -0.0443 0.0656 -0.0033 -0.0393 0.0565 -0.0042 -0.0358 0.0646 -0.0034 -0.0443 0.0565 -0.0042 -0.0358 0.0656 0.0033 -0.0393 0.0565 0.0042 -0.0358 0.0656 -0.0033 -0.0393 0.0786 0.0034 -0.0401 0.0656 -0.0033 -0.0393 0.0786 -0.0034 -0.0401 0.0656 0.0033 -0.0393 0.0523 0.0055 -0.0303 0.0565 -0.0042 -0.0358 0.0565 0.0042 -0.0358 0.0523 -0.0055 -0.0303 0.0533 0.0049 -0.0395 0.0523 0.0055 -0.0303 0.0565 0.0042 -0.0358 0.0523 0.0055 -0.0303 0.0533 0.0049 -0.0395 0.0459 0.0063 -0.0299 0.0533 -0.0049 -0.0395 0.0459 0.0063 -0.0299 0.0533 0.0049 -0.0395 0.0459 -0.0063 -0.0299 0.0565 0.0042 -0.0358 0.0646 0.0034 -0.0443 0.0533 0.0049 -0.0395 0.0646 0.0034 -0.0443 0.0565 0.0042 -0.0358 0.0656 0.0033 -0.0393 0.0459 -0.0063 -0.0299 0.0431 0.0072 -0.0242 0.0459 0.0063 -0.0299 0.0431 -0.0072 -0.0242 0.05 -0.0064 -0.0235 0.0459 -0.0063 -0.0299 0.0523 -0.0055 -0.0303 0.0459 -0.0063 -0.0299 0.05 -0.0064 -0.0235 0.0431 -0.0072 -0.0242 0.0523 0.0055 -0.0303 0.05 -0.0064 -0.0235 0.0523 -0.0055 -0.0303 0.05 0.0064 -0.0235 0.0523 -0.0055 -0.0303 0.0533 -0.0049 -0.0395 0.0565 -0.0042 -0.0358 0.0459 -0.0063 -0.0299 0.0533 -0.0049 -0.0395 0.0523 -0.0055 -0.0303 0.0422 -0.0076 -0.0073 0.0431 0.0072 -0.0242 0.0431 -0.0072 -0.0242 0.0422 0.0076 -0.0073 0.05 -0.0064 -0.0235 0.0422 -0.0076 -0.0073 0.0431 -0.0072 -0.0242 0.0422 -0.0076 -0.0073 0.05 -0.0064 -0.0235 0.0516 -0.0076 -0.0073 0.0516 0.0076 -0.0073 0.05 -0.0064 -0.0235 0.05 0.0064 -0.0235 0.0516 -0.0076 -0.0073 0.0422 0.0076 -0.0073 0.05 0.0064 -0.0235 0.0431 0.0072 -0.0242 0.0516 0.0076 -0.0073 0.05 0.0064 -0.0235 0.0422 0.0076 -0.0073 0.0459 0.0063 -0.0299 0.05 0.0064 -0.0235 0.0523 0.0055 -0.0303 0.05 0.0064 -0.0235 0.0459 0.0063 -0.0299 0.0431 0.0072 -0.0242 0.0516 0.0076 -0.0073 0.0422 -0.0076 -0.0073 0.0516 -0.0076 -0.0073 0.0422 0.0076 -0.0073 0.1806 -0.02 0.0432 0.1317 -0.0167 0.0432 0.1806 -0.0167 0.0432 0.1317 -0.02 0.0432 0.1264 -0.02 0.0379 0.1264 -0.0167 0.0379 0.1317 -0.0167 0.0432 0.1317 -0.02 0.0432 0.1264 -0.0167 0.0335 0.1264 -0.02 0.0335 0.1317 -0.02 0.0282 0.1317 -0.0167 0.0282 0.1806 -0.0167 0.0282 0.1806 -0.02 0.0282 0.1859 -0.02 0.0335 0.1859 -0.0167 0.0335 0.1806 -0.02 0.0432 0.1806 -0.0167 0.0432 0.1859 -0.0167 0.0379 0.1859 -0.02 0.0379 0.1317 -0.02 0.0282 0.1264 -0.02 0.0335 0.1217 -0.02 0.0258 0.1859 -0.02 0.0335 0.1806 -0.02 0.0282 0.1888 -0.02 0.0237 0.1806 -0.02 0.0432 0.1859 -0.02 0.0379 0.191 -0.02 0.0446 0.1264 -0.02 0.0379 0.1317 -0.02 0.0432 0.1211 -0.02 0.0437 0.0704 -0.02 0.049 0.0704 -0.02 -0.0052 0.2075 -0.02 0.049 0.2075 -0.02 -0.0052 0.1859 -0.02 0.0335 0.1859 -0.0167 0.0379 0.1859 -0.0167 0.0335 0.1859 -0.02 0.0379 0.1264 -0.02 0.0379 0.1264 -0.02 0.0335 0.1264 -0.0167 0.0335 0.1264 -0.0167 0.0379 0.1806 -0.0167 0.0282 0.1317 -0.0167 0.0282 0.1317 -0.02 0.0282 0.1806 -0.02 0.0282 0.0386 0.011 0.0528 0.0386 -0.011 0.0528 0.0704 -0.011 0.0631 0.0704 0.011 0.0631 0.0386 -0.02 0.0386 0.0386 -0.02 -0.0052 0.0704 0.02 -0.0052 0.0386 0.02 0.0386 0.0704 0.02 0.049 0.0386 0.02 -0.0052 0.0386 -0.0151 -0.0128 0.0386 0.0151 -0.0128 0.0704 0.0151 -0.0128 0.0704 -0.02 0.049 0.0386 -0.011 0.0528 0.0386 -0.02 0.0386 0.0704 -0.011 0.0631 0.0704 0.011 0.0631 0.2075 0.02 0.049 0.0704 0.02 0.049 0.2075 0.011 0.0631 0.0704 -0.02 -0.0052 0.0386 -0.0151 -0.0128 0.0704 -0.0151 -0.0128 0.0386 -0.02 -0.0052 0.0704 0.02 -0.0052 0.2075 0.0151 -0.0128 0.0704 0.0151 -0.0128 0.2075 0.02 -0.0052 -0.2173 0.0134 -0.079 -0.2372 0.0147 0.04 -0.2347 0.0134 0.0375 -0.2372 0.0147 0.04 -0.2173 0.0134 -0.079 -0.2198 0.0147 -0.0842 -0.2198 0.0147 -0.0842 -0.2173 0.0134 -0.079 -0.2183 0.0098 -0.0852 -0.221 0.0108 -0.088 -0.2198 0.0147 -0.0842 -0.2183 0.0098 -0.0852 -0.2183 0.0098 -0.0852 -0.221 -0.0108 -0.088 -0.221 0.0108 -0.088 -0.2183 -0.0098 -0.0852 -0.2372 0.0147 0.04 -0.2198 0.0147 -0.0842 -0.2389 0.0147 -0.0795 -0.2558 0.0147 0.0304 -0.2372 -0.0147 0.04 -0.2389 -0.0147 -0.0795 -0.2198 -0.0147 -0.0842 -0.2558 -0.0147 0.0304 0.0386 -0.0151 -0.0128 0.0386 0.02 -0.0052 0.0386 0.0151 -0.0128 0.0386 -0.02 -0.0052 0.0386 -0.02 0.0386 0.0386 0.02 0.0386 0.0386 0.011 0.0528 0.0386 -0.011 0.0528 0.0386 0.02 -0.0052 0.0386 0.0151 -0.0128 0.2075 -0.02 -0.0052 0.2075 -0.0151 -0.0128 0.0386 0.011 0.0528 0.0704 0.02 0.049 0.0386 0.02 0.0386 0.0704 0.011 0.0631 0.2075 -0.011 0.0631 0.0704 -0.02 0.049 0.2075 -0.02 0.049 0.0704 -0.011 0.0631 0.2075 -0.0151 -0.0128 0.0704 -0.0151 -0.0128 0.2075 0.0151 -0.0128 0.2075 0.0151 -0.0128 0.2075 -0.02 -0.0052 0.2075 -0.0151 -0.0128 0.2075 0.02 -0.0052 0.2075 -0.02 0.049 0.2075 0.02 0.049 0.2075 0.011 0.0631 0.2075 -0.011 0.0631 -0.2368 0.0098 0.0433 -0.2372 0.0147 0.04 -0.2396 0.0108 0.0435 -0.2372 0.0147 0.04 -0.2368 0.0098 0.0433 -0.2347 0.0134 0.0375 -0.2368 -0.0098 0.0433 -0.2372 -0.0147 0.04 -0.2347 -0.0134 0.0375 -0.2372 -0.0147 0.04 -0.2368 -0.0098 0.0433 -0.2396 -0.0108 0.0435 -0.245 0.0108 -0.0826 -0.2558 0.0147 0.0304 -0.2389 0.0147 -0.0795 -0.245 0.0108 -0.0826 -0.262 0.0108 0.0328 -0.2558 0.0147 0.0304 -0.2558 -0.0147 0.0304 -0.245 -0.0108 -0.0826 -0.2389 -0.0147 -0.0795 -0.245 -0.0108 -0.0826 -0.2558 -0.0147 0.0304 -0.262 -0.0108 0.0328 -0.2198 -0.0147 -0.0842 -0.2183 -0.0098 -0.0852 -0.2173 -0.0134 -0.079 -0.2183 -0.0098 -0.0852 -0.2198 -0.0147 -0.0842 -0.221 -0.0108 -0.088 -0.2396 0.0108 0.0435 -0.2558 0.0147 0.0304 -0.262 0.0108 0.0328 -0.2558 0.0147 0.0304 -0.2396 0.0108 0.0435 -0.2372 0.0147 0.04 -0.2558 -0.0147 0.0304 -0.2372 -0.0147 0.04 -0.2396 -0.0108 0.0435 -0.2396 -0.0108 0.0435 -0.262 -0.0108 0.0328 -0.2558 -0.0147 0.0304 -0.2389 -0.0147 -0.0795 -0.221 -0.0108 -0.088 -0.2198 -0.0147 -0.0842 -0.221 -0.0108 -0.088 -0.2389 -0.0147 -0.0795 -0.245 -0.0108 -0.0826 -0.221 0.0108 -0.088 -0.2389 0.0147 -0.0795 -0.2198 0.0147 -0.0842 -0.221 0.0108 -0.088 -0.245 0.0108 -0.0826 -0.2389 0.0147 -0.0795 -0.245 -0.0108 -0.0826 -0.262 0.0108 0.0328 -0.245 0.0108 -0.0826 -0.262 -0.0108 0.0328 0.2075 0.02 0.049 0.2075 0.02 -0.0052 0.2075 0.011 0.0631 0.0704 0.011 0.0631 0.2075 -0.011 0.0631 0.0704 -0.011 0.0631 -0.221 0.0108 -0.088 -0.245 -0.0108 -0.0826 -0.245 0.0108 -0.0826 -0.221 -0.0108 -0.088 -0.2368 0.0098 0.0433 -0.2396 -0.0108 0.0435 -0.2368 -0.0098 0.0433 -0.2396 0.0108 0.0435 -0.2372 -0.0147 0.04 -0.2173 -0.0134 -0.079 -0.2347 -0.0134 0.0375 -0.2372 -0.0147 0.04 -0.2198 -0.0147 -0.0842 -0.2173 -0.0134 -0.079 -0.2396 -0.0108 0.0435 -0.262 0.0108 0.0328 -0.262 -0.0108 0.0328 -0.2396 0.0108 0.0435 0.6685 0 -0.0066 0.6401 -0.0088 -0.0042 0.6401 0 -0.0066 0.6685 -0.0088 -0.0042 0.6685 0 0.0288 0.6401 -0.0088 0.0265 0.6685 -0.0088 0.0265 0.6401 0 0.0288 0.6401 0.0153 0.02 0.6685 0.0177 0.0111 0.6401 0.0177 0.0111 0.6685 0.0153 0.02 0.6685 0.0088 -0.0042 0.6401 0 -0.0066 0.6401 0.0088 -0.0042 0.6685 0 -0.0066 0.6685 -0.0153 0.02 0.6401 -0.0088 0.0265 0.6401 -0.0153 0.02 0.6685 -0.0088 0.0265 0.6685 -0.0153 0.0023 0.6401 -0.0177 0.0111 0.6401 -0.0153 0.0023 0.6685 -0.0177 0.0111 0.6685 0.0153 0.02 0.6401 0.0153 0.02 0.6401 0.0088 0.0265 0.6685 0.0088 0.0265 0.6685 0.0088 -0.0042 0.6401 0.0088 -0.0042 0.6401 0.0153 0.0023 0.6685 0.0153 0.0023 0.6685 -0.0177 0.0111 0.6401 -0.0153 0.02 0.6401 -0.0177 0.0111 0.6685 -0.0153 0.02 0.6685 -0.0088 -0.0042 0.6401 -0.0153 0.0023 0.6401 -0.0088 -0.0042 0.6685 -0.0153 0.0023 0.6685 0.0088 0.0265 0.6401 0.0088 0.0265 0.6401 0 0.0288 0.6685 0 0.0288 0.6685 0 0.0288 0.6685 -0.0153 0.0023 0.6685 0.0088 0.0265 0.6685 0.0177 0.0111 0.6685 0.0088 -0.0042 0.6685 0.0153 0.0023 0.6685 0.0153 0.02 0.6685 0 -0.0066 0.6685 -0.0153 0.02 0.6685 -0.0088 0.0265 0.6685 -0.0177 0.0111 0.6685 -0.0088 -0.0042 0.6401 0.0068 0.0229 0.6401 0.0088 0.0265 0.6401 0.0153 0.02 0.6401 0.0118 0.0179 0.6401 0.0177 0.0111 0.6401 0.0136 0.0111 0.6401 0.0153 0.0023 0.6401 0.0118 0.0043 0.6401 0.0088 -0.0042 0.6401 0.0068 -0.0006 0.6401 0 -0.0025 0.6401 0 -0.0066 0.6401 -0.0068 -0.0006 0.6401 -0.0088 -0.0042 0.6401 -0.0068 0.0229 0.6401 -0.0153 0.02 0.6401 -0.0088 0.0265 0.6401 -0.0118 0.0179 0.6401 -0.0153 0.0023 0.6401 -0.0118 0.0043 0.6401 0 0.0288 0.6401 0 0.0247 0.6401 -0.0177 0.0111 0.6401 -0.0136 0.0111 0.6401 0.0177 0.0111 0.6685 0.0153 0.0023 0.6401 0.0153 0.0023 0.6685 0.0177 0.0111 0.738 0.0048 0.0382 0.6545 0.0083 0.0418 0.6545 0.0048 0.0382 0.738 0.0083 0.0418 0.6545 -0.0083 0.0514 0.738 -0.0096 0.0466 0.6545 -0.0096 0.0466 0.738 -0.0083 0.0514 0.738 -0.0083 0.0418 0.6545 -0.0048 0.0382 0.6545 -0.0083 0.0418 0.738 -0.0048 0.0382 0.738 0 0.0562 0.6545 0.0048 0.0549 0.738 0.0048 0.0549 0.6545 0 0.0562 0.738 0.0083 0.0418 0.6545 0.0096 0.0466 0.6545 0.0083 0.0418 0.738 0.0096 0.0466 0.738 -0.0048 0.0382 0.6545 0 0.037 0.6545 -0.0048 0.0382 0.738 0 0.037 0.738 -0.0048 0.0549 0.6545 0 0.0562 0.738 0 0.0562 0.6545 -0.0048 0.0549 0.738 0.0096 0.0466 0.6545 0.0083 0.0514 0.6545 0.0096 0.0466 0.738 0.0083 0.0514 0.738 0 0.037 0.6545 0.0048 0.0382 0.6545 0 0.037 0.738 0.0048 0.0382 0.6545 -0.0048 0.0549 0.738 -0.0048 0.0549 0.738 -0.0083 0.0514 0.6545 -0.0083 0.0514 0.6545 -0.0096 0.0466 0.738 -0.0096 0.0466 0.738 -0.0083 0.0418 0.6545 -0.0083 0.0418 0.6545 0.0083 0.0418 0.6545 0.0048 0.0549 0.6545 0.0048 0.0382 0.6545 0.0083 0.0514 0.6545 0.0096 0.0466 0.6545 -0.0083 0.0514 0.6545 -0.0048 0.0382 0.6545 0 0.0562 0.6545 -0.0048 0.0549 0.6545 -0.0083 0.0418 0.6545 -0.0096 0.0466 0.6545 0 0.037 0.738 0.0119 0.0397 0.738 0.0083 0.0418 0.738 0.0048 0.0382 0.738 0.0069 0.0347 0.738 -0.0119 0.0534 0.738 -0.0096 0.0466 0.738 -0.0083 0.0514 0.738 -0.0119 0.0397 0.738 -0.0048 0.0382 0.738 -0.0083 0.0418 0.738 -0.0069 0.0347 0.738 0 0.0562 0.738 0.0069 0.0584 0.738 0 0.0603 0.738 0.0048 0.0549 0.738 0.0096 0.0466 0.738 0.0137 0.0466 0.738 0 0.037 0.738 0 0.0329 0.738 -0.0048 0.0549 0.738 -0.0069 0.0584 0.738 0.0119 0.0534 0.738 0.0083 0.0514 0.738 -0.0137 0.0466 0.738 0.0048 0.0549 0.6545 0.0048 0.0549 0.6545 0.0083 0.0514 0.738 0.0083 0.0514 0.738 0.0119 0.0534 0.7233 0.0069 0.0584 0.738 0.0069 0.0584 0.7233 0.0119 0.0534 0.7233 0.0119 0.0397 0.738 0.0069 0.0347 0.7233 0.0069 0.0347 0.738 0.0119 0.0397 0.738 -0.0119 0.0534 0.7233 -0.0119 0.0534 0.7233 -0.0137 0.0466 0.738 -0.0137 0.0466 0.738 -0.0119 0.0397 0.7233 -0.0119 0.0397 0.7233 -0.0069 0.0347 0.738 -0.0069 0.0347 0.738 0.0069 0.0584 0.7233 0.0069 0.0584 0.7233 0 0.0603 0.738 0 0.0603 0.7233 0.0137 0.0466 0.738 0.0119 0.0397 0.7233 0.0119 0.0397 0.738 0.0137 0.0466 0.738 0 0.0329 0.7233 -0.0069 0.0347 0.7233 0 0.0329 0.738 -0.0069 0.0347 0.738 0 0.0603 0.7233 -0.0069 0.0584 0.738 -0.0069 0.0584 0.7233 0 0.0603 0.7233 0.0119 0.0534 0.738 0.0137 0.0466 0.7233 0.0137 0.0466 0.738 0.0119 0.0534 0.738 0.0069 0.0347 0.7233 0 0.0329 0.7233 0.0069 0.0347 0.738 0 0.0329 0.738 -0.0069 0.0584 0.7233 -0.0069 0.0584 0.7233 -0.0119 0.0534 0.738 -0.0119 0.0534 0.723 -0.0153 0.0466 0.723 -0.0133 0.0389 0.7233 -0.0137 0.0466 0.7233 -0.0119 0.0397 0.7233 0.0119 0.0534 0.723 0.0077 0.0598 0.7233 0.0069 0.0584 0.723 0.0133 0.0542 0.723 0.0077 0.0333 0.7233 0.0119 0.0397 0.7233 0.0069 0.0347 0.723 0.0133 0.0389 0.7233 -0.0137 0.0466 0.723 -0.0133 0.0542 0.723 -0.0153 0.0466 0.7233 -0.0119 0.0534 0.723 -0.0133 0.0389 0.723 -0.0077 0.0333 0.7233 -0.0119 0.0397 0.7233 -0.0069 0.0347 0.723 0.0077 0.0598 0.7233 0 0.0603 0.7233 0.0069 0.0584 0.723 0 0.0619 0.723 0.0133 0.0389 0.7233 0.0137 0.0466 0.7233 0.0119 0.0397 0.723 0.0153 0.0466 0.723 -0.0077 0.0333 0.7233 0 0.0329 0.7233 -0.0069 0.0347 0.723 0 0.0312 0.723 0 0.0619 0.7233 -0.0069 0.0584 0.7233 0 0.0603 0.723 -0.0077 0.0598 0.723 0.0133 0.0542 0.7233 0.0137 0.0466 0.723 0.0153 0.0466 0.7233 0.0119 0.0534 0.7233 0 0.0329 0.723 0.0077 0.0333 0.7233 0.0069 0.0347 0.723 0 0.0312 0.738 -0.0137 0.0466 0.7233 -0.0119 0.0397 0.738 -0.0119 0.0397 0.7233 -0.0137 0.0466 0.723 -0.0077 0.0598 0.7066 -0.0133 0.0542 0.723 -0.0133 0.0542 0.7066 -0.0077 0.0598 0.723 -0.0153 0.0466 0.7066 -0.0153 0.0466 0.7066 -0.0133 0.0389 0.723 -0.0133 0.0389 0.7066 0.0077 0.0598 0.723 0.0077 0.0598 0.723 0.0133 0.0542 0.7066 0.0133 0.0542 0.7066 0.0133 0.0389 0.723 0.0077 0.0333 0.7066 0.0077 0.0333 0.723 0.0133 0.0389 0.723 -0.0133 0.0542 0.7066 -0.0133 0.0542 0.7066 -0.0153 0.0466 0.723 -0.0153 0.0466 0.723 -0.0133 0.0389 0.7066 -0.0077 0.0333 0.723 -0.0077 0.0333 0.7066 -0.0133 0.0389 0.723 0 0.0619 0.7066 0.0077 0.0598 0.7066 0 0.0619 0.723 0.0077 0.0598 0.7066 0.0153 0.0466 0.723 0.0133 0.0389 0.7066 0.0133 0.0389 0.723 0.0153 0.0466 0.723 -0.0077 0.0333 0.7066 0 0.0312 0.723 0 0.0312 0.7066 -0.0077 0.0333 0.723 -0.0077 0.0598 0.7066 0 0.0619 0.7066 -0.0077 0.0598 0.723 0 0.0619 0.7066 0.0133 0.0542 0.723 0.0153 0.0466 0.7066 0.0153 0.0466 0.723 0.0133 0.0542 0.723 -0.0077 0.0598 0.7233 -0.0119 0.0534 0.7233 -0.0069 0.0584 0.723 -0.0133 0.0542 0.7063 -0.0068 0.0583 0.7066 0 0.0619 0.7063 0 0.0602 0.7066 -0.0077 0.0598 0.7063 -0.0118 0.0534 0.7063 -0.0136 0.0466 0.7066 -0.0133 0.0542 0.7066 -0.0153 0.0466 0.7066 -0.0153 0.0466 0.7063 -0.0118 0.0398 0.7066 -0.0133 0.0389 0.7063 -0.0136 0.0466 0.7063 0.0068 0.0583 0.7063 0 0.0602 0.7066 0.0077 0.0598 0.7066 0 0.0619 0.7063 0.0118 0.0534 0.7066 0.0077 0.0598 0.7066 0.0133 0.0542 0.7063 0.0068 0.0583 0.7063 0.0136 0.0466 0.7066 0.0133 0.0542 0.7066 0.0153 0.0466 0.7063 0.0118 0.0534 0.7063 0.0136 0.0466 0.7066 0.0133 0.0389 0.7063 0.0118 0.0398 0.7066 0.0153 0.0466 0.7063 0.0068 0.0348 0.7066 0.0133 0.0389 0.7066 0.0077 0.0333 0.7063 0.0118 0.0398 0.7063 0 0.033 0.7066 0.0077 0.0333 0.7066 0 0.0312 0.7063 0.0068 0.0348 0.7063 -0.0068 0.0348 0.7066 0 0.0312 0.7066 -0.0077 0.0333 0.7063 0 0.033 0.7063 -0.0118 0.0534 0.7066 -0.0077 0.0598 0.7063 -0.0068 0.0583 0.7066 -0.0133 0.0542 0.723 0 0.0312 0.7066 0 0.0312 0.7066 0.0077 0.0333 0.723 0.0077 0.0333 0.2007 -0.0118 0.0043 0.6401 -0.0136 0.0111 0.2007 -0.0136 0.0111 0.6401 -0.0118 0.0043 0.2007 -0.0068 -0.0006 0.6401 -0.0118 0.0043 0.2007 -0.0118 0.0043 0.6401 -0.0068 -0.0006 0.2007 0 -0.0025 0.6401 -0.0068 -0.0006 0.2007 -0.0068 -0.0006 0.6401 0 -0.0025 0.6401 0.0068 -0.0006 0.2007 0 -0.0025 0.2007 0.0068 -0.0006 0.6401 0 -0.0025 0.2007 0.0118 0.0043 0.6401 0.0068 -0.0006 0.2007 0.0068 -0.0006 0.6401 0.0118 0.0043 0.2007 0.0136 0.0111 0.6401 0.0118 0.0043 0.2007 0.0118 0.0043 0.6401 0.0136 0.0111 0.2007 0.0118 0.0179 0.6401 0.0136 0.0111 0.2007 0.0136 0.0111 0.6401 0.0118 0.0179 0.2007 0.0068 0.0229 0.6401 0.0118 0.0179 0.2007 0.0118 0.0179 0.6401 0.0068 0.0229 0.6401 0 0.0247 0.2007 0.0068 0.0229 0.2007 0 0.0247 0.6401 0.0068 0.0229 0.6401 -0.0068 0.0229 0.2007 0 0.0247 0.2007 -0.0068 0.0229 0.6401 0 0.0247 0.6401 -0.0118 0.0179 0.2007 -0.0068 0.0229 0.2007 -0.0118 0.0179 0.6401 -0.0068 0.0229 0.6401 -0.0136 0.0111 0.2007 -0.0118 0.0179 0.2007 -0.0136 0.0111 0.6401 -0.0118 0.0179 0.7063 -0.0118 0.0398 0.7066 -0.0077 0.0333 0.7066 -0.0133 0.0389 0.7063 -0.0068 0.0348 0.7063 -0.0118 0.0398 0.2007 -0.0136 0.0466 0.2007 -0.0118 0.0398 0.7063 -0.0136 0.0466 0.2007 -0.0068 0.0348 0.7063 -0.0118 0.0398 0.2007 -0.0118 0.0398 0.7063 -0.0068 0.0348 0.2007 0 0.033 0.7063 -0.0068 0.0348 0.2007 -0.0068 0.0348 0.7063 0 0.033 0.2007 0.0068 0.0348 0.7063 0 0.033 0.2007 0 0.033 0.7063 0.0068 0.0348 0.2007 0.0118 0.0398 0.7063 0.0068 0.0348 0.2007 0.0068 0.0348 0.7063 0.0118 0.0398 0.2007 0.0136 0.0466 0.7063 0.0118 0.0398 0.2007 0.0118 0.0398 0.7063 0.0136 0.0466 0.2007 0.0118 0.0534 0.7063 0.0136 0.0466 0.2007 0.0136 0.0466 0.7063 0.0118 0.0534 0.7063 0.0068 0.0583 0.2007 0.0118 0.0534 0.2007 0.0068 0.0583 0.7063 0.0118 0.0534 0.7063 0 0.0602 0.2007 0.0068 0.0583 0.2007 0 0.0602 0.7063 0.0068 0.0583 0.7063 -0.0068 0.0583 0.2007 0 0.0602 0.2007 -0.0068 0.0583 0.7063 0 0.0602 0.7063 -0.0118 0.0534 0.2007 -0.0068 0.0583 0.2007 -0.0118 0.0534 0.7063 -0.0068 0.0583 0.7063 -0.0136 0.0466 0.2007 -0.0118 0.0534 0.2007 -0.0136 0.0466 0.7063 -0.0118 0.0534 0.0402 0.0043 0.0484 0.0198 0.0043 0.0559 0.0354 0.0043 0.0565 0.0182 0.0043 0.0351 0.0402 0.0043 0.0484 0.0354 -0.0043 0.0565 0.0402 -0.0043 0.0484 0.0354 0.0043 0.0565 0.0253 -0.0043 0.0616 0.0198 0.0043 0.0559 0.0198 -0.0043 0.0559 0.0253 0.0043 0.0616 0.0306 -0.0043 0.0645 0.0243 -0.0043 0.068 0.0253 -0.0043 0.0616 0.029 -0.0043 0.0695 0.0253 -0.0043 0.0616 0.0243 0.0043 0.068 0.0253 0.0043 0.0616 0.0243 -0.0043 0.068 0.0306 0.0043 0.0645 0.0243 0.0043 0.068 0.029 0.0043 0.0695 0.0253 0.0043 0.0616 0.029 0.0043 0.0695 0.0306 -0.0043 0.0645 0.0306 0.0043 0.0645 0.029 -0.0043 0.0695 0.0306 0.0043 0.075 0.029 -0.0043 0.0695 0.029 0.0043 0.0695 0.0306 -0.0043 0.075 0.0265 0.0043 0.0749 0.0306 0.0043 0.075 0.0265 -0.0043 0.0749 0.0265 0.0043 0.0749 0.0243 0.0043 0.068 0.0243 -0.0043 0.068 0.0402 -0.0043 0.0484 0.0198 -0.0043 0.0559 0.0182 -0.0043 0.0351 0.0354 -0.0043 0.0565 0.0182 -0.0043 0.0351 0.0198 0.0043 0.0559 0.0182 0.0043 0.0351 0.0198 -0.0043 0.0559 0.0265 -0.0043 0.0749 0.0306 -0.0043 0.075 0.0265 0.0043 0.0749 0.0265 -0.0043 0.0749 0.0306 -0.0043 0.075 0.0306 0.0043 0.075 0.0306 -0.0043 0.0645 0.0306 0.0043 0.0645 0.0402 -0.0043 0.0484 0.0182 0.0043 0.0351 0.0402 0.0043 0.0484 0.0182 -0.0043 0.0351 0.1317 -0.0167 0.0282 0.1264 -0.0167 0.0379 0.1264 -0.0167 0.0335 0.1317 -0.0167 0.0432 0.1859 -0.0167 0.0379 0.1806 -0.0167 0.0282 0.1859 -0.0167 0.0335 0.1806 -0.0167 0.0432 0.0746 0.0052 -0.0371 0.0761 0.0052 -0.0362 0.076 0.0052 -0.0365 0.0761 0.0052 -0.0362 0.074 0.0052 -0.0369 0.0739 0.0051 -0.031 0.074 0.0052 -0.0369 0.0761 0.0052 -0.0362 0.0746 0.0052 -0.0371 0.0739 0.0051 -0.031 0.074 0.0052 -0.0369 0.0704 0.0052 -0.0313 0.074 0.0052 -0.0369 0.0746 -0.0052 -0.0371 0.074 -0.0052 -0.0369 0.0746 0.0052 -0.0371 0.076 0.0052 -0.0365 0.0761 -0.0052 -0.0362 0.076 -0.0052 -0.0365 0.0761 0.0052 -0.0362 0.0704 -0.0052 -0.0313 0.068 0.0052 -0.0259 0.0704 0.0052 -0.0313 0.068 -0.0052 -0.0259 0.0704 0.0052 -0.0313 0.0732 0.0052 -0.0247 0.0739 0.0051 -0.031 0.0732 0.0052 -0.0247 0.0704 0.0052 -0.0313 0.068 0.0052 -0.0259 0.0732 -0.0052 -0.0247 0.0704 -0.0052 -0.0313 0.0739 -0.0051 -0.031 0.0704 -0.0052 -0.0313 0.0732 -0.0052 -0.0247 0.068 -0.0052 -0.0259 0.0739 0.0051 -0.031 0.0732 -0.0052 -0.0247 0.0739 -0.0051 -0.031 0.0732 0.0052 -0.0247 0.0584 0.0052 -0.0179 0.0655 -0.0051 -0.0191 0.0584 -0.0052 -0.0179 0.0655 0.0051 -0.0191 0.0584 -0.0052 -0.0179 0.055 0.0052 -0.0139 0.0584 0.0052 -0.0179 0.055 -0.0052 -0.0139 0.0662 -0.0052 -0.0064 0.0554 0.0052 -0.005 0.0554 -0.0052 -0.005 0.0662 0.0052 -0.0064 0.0554 0.0052 -0.005 0.055 0.0052 -0.0139 0.055 -0.0052 -0.0139 0.0554 -0.0052 -0.005 0.0554 0.0052 -0.005 0.0662 0.0052 -0.0064 0.055 0.0052 -0.0139 0.0662 0.0052 -0.0064 0.0655 0.0051 -0.0191 0.0584 0.0052 -0.0179 0.055 0.0052 -0.0139 0.0662 0.0052 -0.0064 0.0584 0.0052 -0.0179 0.0744 -0.0052 -0.0179 0.0788 0.0052 -0.0037 0.0788 -0.0052 -0.0037 0.0744 0.0052 -0.0179 0.0655 -0.0051 -0.0191 0.068 -0.0052 -0.0259 0.0732 -0.0052 -0.0247 0.0744 -0.0052 -0.0179 0.0655 -0.0051 -0.0191 0.0732 -0.0052 -0.0247 0.0746 0.0052 -0.0371 0.076 -0.0052 -0.0365 0.0746 -0.0052 -0.0371 0.076 0.0052 -0.0365 0.0739 0.0051 -0.031 0.0739 -0.0051 -0.031 0.0761 0.0052 -0.0362 0.0761 -0.0052 -0.0362 0.0746 -0.0052 -0.0371 0.0761 -0.0052 -0.0362 0.074 -0.0052 -0.0369 0.0761 -0.0052 -0.0362 0.0746 -0.0052 -0.0371 0.076 -0.0052 -0.0365 0.074 -0.0052 -0.0369 0.0739 -0.0051 -0.031 0.0704 -0.0052 -0.0313 0.074 -0.0052 -0.0369 0.0761 -0.0052 -0.0362 0.0739 -0.0051 -0.031 0.0655 0.0051 -0.0191 0.068 0.0052 -0.0259 0.068 -0.0052 -0.0259 0.0655 -0.0051 -0.0191 0.0732 -0.0052 -0.0247 0.0744 0.0052 -0.0179 0.0744 -0.0052 -0.0179 0.0732 0.0052 -0.0247 0.0704 -0.0052 -0.0313 0.074 0.0052 -0.0369 0.074 -0.0052 -0.0369 0.0704 0.0052 -0.0313 0.0662 -0.0052 -0.0064 0.0655 -0.0051 -0.0191 0.0744 -0.0052 -0.0179 0.0788 -0.0052 -0.0037 0.0662 -0.0052 -0.0064 0.0744 -0.0052 -0.0179 0.0744 0.0052 -0.0179 0.0662 0.0052 -0.0064 0.0788 0.0052 -0.0037 0.0662 0.0052 -0.0064 0.0744 0.0052 -0.0179 0.0655 0.0051 -0.0191 0.055 -0.0052 -0.0139 0.0662 -0.0052 -0.0064 0.0554 -0.0052 -0.005 0.0584 -0.0052 -0.0179 0.0662 -0.0052 -0.0064 0.055 -0.0052 -0.0139 0.0662 -0.0052 -0.0064 0.0584 -0.0052 -0.0179 0.0655 -0.0051 -0.0191 0.0732 0.0052 -0.0247 0.0655 0.0051 -0.0191 0.0744 0.0052 -0.0179 0.0655 0.0051 -0.0191 0.0732 0.0052 -0.0247 0.068 0.0052 -0.0259 0.0788 -0.0052 -0.0037 0.0662 0.0052 -0.0064 0.0662 -0.0052 -0.0064 0.0788 0.0052 -0.0037 0.6508 0.0018 0.071 0.6606 0.0018 0.057 0.6431 0.0018 0.057 0.6606 0.0018 0.071 0.6606 0.0018 0.057 0.6606 -0.0018 0.071 0.6606 -0.0018 0.057 0.6606 0.0018 0.071 0.6431 -0.0018 0.057 0.6508 0.0018 0.071 0.6431 0.0018 0.057 0.6508 -0.0018 0.071 0.6606 -0.0018 0.057 0.6431 -0.0018 0.057 0.6606 0.0018 0.057 0.6431 0.0018 0.057 0.6606 -0.0018 0.057 0.6508 -0.0018 0.071 0.6431 -0.0018 0.057 0.6606 -0.0018 0.071 0.6606 -0.0018 0.071 0.6508 0.0018 0.071 0.6508 -0.0018 0.071 0.6606 0.0018 0.071 0.6115 0 0.0626 0.6232 0.0079 0.0605 0.6115 0.0079 0.0605 0.6232 0 0.0626 0.6115 -0.0157 0.011 0.6231 -0.0135 0.019 0.6115 -0.0135 0.019 0.6232 -0.0157 0.011 0.6118 -0.0097 0.0321 0.6231 -0.0135 0.0389 0.6115 -0.0135 0.0389 0.6229 -0.0097 0.0321 0.6115 0.0136 0.0031 0.6232 0.0079 -0.0026 0.6115 0.0079 -0.0026 0.6232 0.0136 0.0031 0.6115 -0.0079 0.0605 0.6232 0 0.0626 0.6115 0 0.0626 0.6232 -0.0079 0.0605 0.6232 0.0157 0.011 0.6232 0.0136 0.0031 0.6115 0.0136 0.0031 0.6115 0.0157 0.011 0.6232 -0.0136 0.0548 0.6115 -0.0079 0.0605 0.6115 -0.0136 0.0548 0.6232 -0.0079 0.0605 0.6231 0.0135 0.019 0.6232 0.0157 0.011 0.6115 0.0157 0.011 0.6115 0.0135 0.019 0.6232 -0.0157 0.0469 0.6115 -0.0136 0.0548 0.6115 -0.0157 0.0469 0.6232 -0.0136 0.0548 0.6231 0.0135 0.0389 0.6229 0.0097 0.0321 0.6118 0.0097 0.0321 0.6115 0.0135 0.0389 0.6231 0.0135 0.019 0.6118 0.0097 0.0258 0.6229 0.0097 0.0258 0.6115 0.0135 0.019 0.6118 0.0097 0.0321 0.6229 0.0097 0.0321 0.6118 0.0097 0.0258 0.6229 0.0097 0.0258 0.6232 -0.0136 0.0031 0.6115 -0.0157 0.011 0.6115 -0.0136 0.0031 0.6232 -0.0157 0.011 0.6231 0.0135 0.0389 0.6115 0.0157 0.0469 0.6232 0.0157 0.0469 0.6115 0.0135 0.0389 0.6232 -0.0079 -0.0026 0.6115 -0.0136 0.0031 0.6115 -0.0079 -0.0026 0.6232 -0.0136 0.0031 0.6232 0.0136 0.0548 0.6232 0.0157 0.0469 0.6115 0.0157 0.0469 0.6115 0.0136 0.0548 0.6229 -0.0097 0.0258 0.6118 -0.0097 0.0321 0.6118 -0.0097 0.0258 0.6229 -0.0097 0.0321 0.6232 0 -0.0047 0.6115 -0.0079 -0.0026 0.6115 0 -0.0047 0.6232 -0.0079 -0.0026 0.6115 0.0079 0.0605 0.6232 0.0136 0.0548 0.6115 0.0136 0.0548 0.6232 0.0079 0.0605 0.6231 -0.0135 0.019 0.6118 -0.0097 0.0258 0.6115 -0.0135 0.019 0.6229 -0.0097 0.0258 0.6231 -0.0135 0.0389 0.6115 -0.0157 0.0469 0.6115 -0.0135 0.0389 0.6232 -0.0157 0.0469 0.6232 0.0079 -0.0026 0.6115 0 -0.0047 0.6115 0.0079 -0.0026 0.6232 0 -0.0047 0.6118 -0.0097 0.0321 0.6118 0.0097 0.0258 0.6118 -0.0097 0.0258 0.6118 0.0097 0.0321 0.6229 0.0097 0.0258 0.6229 -0.0097 0.0321 0.6229 -0.0097 0.0258 0.6229 0.0097 0.0321 0.6118 -0.0097 0.0321 0.6115 0.0135 0.0389 0.6118 0.0097 0.0321 0.6115 -0.0079 0.0605 0.6115 -0.0157 0.0469 0.6115 -0.0136 0.0548 0.6115 0.0079 0.0605 0.6115 0 0.0626 0.6115 0.0157 0.0469 0.6115 0.0136 0.0548 0.6115 -0.0135 0.0389 0.6115 0.0135 0.0389 0.6115 -0.0157 0.0469 0.6115 0.0157 0.0469 0.6115 -0.0135 0.0389 0.6115 0.0079 -0.0026 0.6115 0.0157 0.011 0.6115 0.0136 0.0031 0.6118 0.0097 0.0258 0.6115 -0.0135 0.019 0.6118 -0.0097 0.0258 0.6115 -0.0157 0.011 0.6115 0.0135 0.019 0.6115 0.0135 0.019 0.6115 -0.0157 0.011 0.6115 -0.0135 0.019 0.6115 -0.0079 -0.0026 0.6115 0 -0.0047 0.6115 -0.0136 0.0031 0.6115 0.0157 0.011 0.6232 -0.0136 0.0548 0.6232 0.0136 0.0548 0.6232 0.0079 0.0605 0.6232 0 0.0626 0.6232 -0.0079 0.0605 0.6232 -0.0157 0.0469 0.6232 0.0157 0.0469 0.6232 -0.0157 0.0469 0.6231 0.0135 0.0389 0.6232 0.0157 0.0469 0.6231 -0.0135 0.0389 0.6231 0.0135 0.0389 0.6231 -0.0135 0.0389 0.6229 0.0097 0.0321 0.6229 -0.0097 0.0321 0.6232 0.0157 0.011 0.6232 0.0079 -0.0026 0.6232 0.0136 0.0031 0.6231 -0.0135 0.019 0.6229 0.0097 0.0258 0.6229 -0.0097 0.0258 0.6231 0.0135 0.019 0.6231 0.0135 0.019 0.6232 -0.0157 0.011 0.6232 0.0157 0.011 0.6231 -0.0135 0.019 0.6232 -0.0136 0.0031 0.6232 -0.0157 0.011 0.6232 -0.0079 -0.0026 0.6232 0 -0.0047 0.2051 0.0213 -0.0062 0.2114 0.0213 0.0496 0.2114 0.0213 -0.0062 0.2051 0.0213 0.0496 0.2051 0.0122 0.0645 0.2114 0.0213 0.0496 0.2051 0.0213 0.0496 0.2114 0.0122 0.0645 0.2051 0.0213 -0.0062 0.2114 0.0158 -0.0147 0.2051 0.0158 -0.0147 0.2114 0.0213 -0.0062 0.2114 -0.0122 0.0645 0.2051 -0.0213 0.0496 0.2114 -0.0213 0.0496 0.2051 -0.0122 0.0645 0.2114 -0.0213 -0.0062 0.2051 -0.0158 -0.0147 0.2114 -0.0158 -0.0147 0.2051 -0.0213 -0.0062 0.2114 0.0158 -0.0147 0.2114 -0.0213 -0.0062 0.2114 -0.0158 -0.0147 0.2114 0.0213 -0.0062 0.2114 -0.0213 0.0496 0.2114 0.0213 0.0496 0.2114 0.0122 0.0645 0.2114 -0.0122 0.0645 0.2114 0.0158 -0.0147 0.2051 -0.0158 -0.0147 0.2051 0.0158 -0.0147 0.2114 -0.0158 -0.0147 0.2114 -0.0122 0.0645 0.2051 0.0122 0.0645 0.2051 -0.0122 0.0645 0.2114 0.0122 0.0645 0.2051 -0.0213 -0.0062 0.2051 0.0213 -0.0062 0.2051 -0.0158 -0.0147 0.2051 0.0213 0.0496 0.2051 0.0158 -0.0147 0.2051 -0.0213 0.0496 0.2051 0.0122 0.0645 0.2051 -0.0122 0.0645 0.2114 -0.0213 0.0496 0.2051 -0.0213 -0.0062 0.2114 -0.0213 -0.0062 0.2051 -0.0213 0.0496</float_array><technique_common><accessor source="#g-p-a" count="1842" stride="3"><param name="X" type="float"/><param name="Y" type="float"/><param name="Z" type="float"/></accessor></technique_common></source>
<source id="g-n"><float_array id="g-n-a" count="5526">-0.646 -0.711 -0.28 -0.646 -0.711 -0.28 -0.646 -0.711 -0.28 -0.494 -0.762 -0.419 -0.494 -0.762 -0.419 -0.494 -0.762 -0.419 -0.544 -0.839 0 -0.544 -0.839 0 -0.544 -0.839 0 -0.544 -0.839 0 0 -0.931 -0.366 0 -0.931 -0.366 0 -0.931 -0.366 0 -0.931 -0.366 -0.954 0.229 -0.193 -0.954 0.229 -0.193 -0.954 0.229 -0.193 -0.949 0.163 -0.269 -0.949 0.163 -0.269 -0.949 0.163 -0.269 -0.986 0.169 0 -0.986 0.169 0 -0.986 0.169 0 -0.986 0.169 0 -0.986 -0.169 0 -0.986 -0.169 0 -0.986 -0.169 0 -0.986 -0.169 0 -0.954 -0.229 -0.193 -0.954 -0.229 -0.193 -0.954 -0.229 -0.193 -0.949 -0.163 -0.269 -0.949 -0.163 -0.269 -0.949 -0.163 -0.269 0.969 -0.188 -0.159 0.969 -0.188 -0.159 0.969 -0.188 -0.159 0.966 -0.134 -0.221 0.966 -0.134 -0.221 0.966 -0.134 -0.221 0.991 -0.137 0 0.991 -0.137 0 0.991 -0.137 0 0.991 -0.137 0 0.991 0.137 0 0.991 0.137 0 0.991 0.137 0 0.991 0.137 0 0.969 0.188 -0.159 0.969 0.188 -0.159 0.969 0.188 -0.159 0.966 0.134 -0.221 0.966 0.134 -0.221 0.966 0.134 -0.221 0.722 0.644 -0.253 0.722 0.644 -0.253 0.722 0.644 -0.253 0.575 0.717 -0.395 0.575 0.717 -0.395 0.575 0.717 -0.395 0.626 0.78 0 0.626 0.78 0 0.626 0.78 0 0.626 0.78 0 0 0.931 -0.366 0 0.931 -0.366 0 0.931 -0.366 0 0.931 -0.366 0 0.931 -0.366 0 0.931 -0.366 0 0.931 -0.366 0 0.931 -0.366 0 1 0 0 1 0 0 1 0 0 1 0 -0.544 0.839 0 -0.544 0.839 0 -0.544 0.839 0 -0.544 0.839 0 -0.646 0.711 -0.28 -0.646 0.711 -0.28 -0.646 0.711 -0.28 -0.494 0.762 -0.419 -0.494 0.762 -0.419 -0.494 0.762 -0.419 0 -0.931 -0.366 0 -0.931 -0.366 0 -1 0 0 -1 0 0 -1 0 0 -1 0 0 -1 0 0 -1 0 0 -0.931 -0.366 0 -0.931 -0.366 0 -0.931 -0.366 0 -0.931 -0.366 0 -1 0 0 -1 0 0.626 -0.78 0 0.626 -0.78 0 0.626 -0.78 0 0.626 -0.78 0 0.722 -0.644 -0.253 0.722 -0.644 -0.253 0.722 -0.644 -0.253 0.575 -0.717 -0.395 0.575 -0.717 -0.395 0.575 -0.717 -0.395 0 0.931 -0.366 0 0.931 -0.366 0 1 0 0 1 0 0 1 0 0 1 0 0 -0.272 -0.962 0 -0.272 -0.962 0 -0.272 -0.962 0 -0.272 -0.962 0 -0.272 -0.962 0 -0.272 -0.962 0 0.272 -0.962 0 0.272 -0.962 0 0.272 -0.962 0 0.272 -0.962 0 0.272 -0.962 0 0.272 -0.962 0 0.092 0.996 0 0.092 0.996 0 0.092 0.996 0 0.092 0.996 0 -0.092 0.996 0 -0.092 0.996 0 -0.092 0.996 0 -0.092 0.996 0 -0.092 0.996 0 -0.092 0.996 0 0.092 0.996 0 0.092 0.996 0 1 0 0 1 0 0 0.638 0.77 0 0.638 0.77 0 0.638 0.77 0 0.638 0.77 0 0.638 0.77 0 0.638 0.77 0 1 0 0 -1 0 0 -1 0 0 -0.638 0.77 0 -0.638 0.77 0 -0.638 0.77 0 -0.638 0.77 0.509 -0.393 0.766 0.509 -0.393 0.766 0.509 -0.393 0.766 0.455 -0.568 0.686 0.455 -0.568 0.686 0.455 -0.568 0.686 0.626 -0.78 0 0.626 -0.78 0 -0.455 -0.327 -0.828 -0.455 -0.327 -0.828 -0.455 -0.327 -0.828 -0.595 -0.218 -0.773 -0.595 -0.218 -0.773 -0.595 -0.218 -0.773 0 -0.272 -0.962 0 -0.272 -0.962 0 0.272 -0.962 0 0.272 -0.962 -0.595 0.218 -0.773 -0.595 0.218 -0.773 -0.595 0.218 -0.773 -0.455 0.327 -0.828 -0.455 0.327 -0.828 -0.455 0.327 -0.828 0 0.092 0.996 0 0.092 0.996 0 -0.092 0.996 0 -0.092 0.996 -0.242 -0.089 0.966 -0.242 -0.089 0.966 -0.242 -0.089 0.966 -0.175 -0.126 0.977 -0.175 -0.126 0.977 -0.175 -0.126 0.977 -0.175 0.126 0.977 -0.175 0.126 0.977 -0.175 0.126 0.977 -0.242 0.089 0.966 -0.242 0.089 0.966 -0.242 0.089 0.966 0 -1 0 0 -1 0 0 -0.638 0.77 0 -0.638 0.77 0 -0.638 0.77 0 -0.638 0.77 0 1 0 0 0.638 0.77 0 0.638 0.77 -0.431 0.412 0.803 -0.431 0.412 0.803 -0.431 0.412 0.803 -0.382 0.589 0.712 -0.382 0.589 0.712 -0.382 0.589 0.712 -0.544 0.839 0 -0.544 0.839 0 0.626 0.78 0 0.626 0.78 0 0.455 0.568 0.686 0.455 0.568 0.686 0.455 0.568 0.686 0.509 0.393 0.766 0.509 0.393 0.766 0.509 0.393 0.766 0 0.638 0.77 0 0.638 0.77 0 1 0 0 1 0 0 1 0 0.991 -0.137 0 0.991 -0.137 0 0.813 -0.113 0.571 0.813 -0.113 0.571 0.813 -0.113 0.571 0.881 -0.171 0.442 0.881 -0.171 0.442 0.881 -0.171 0.442 0.813 0.113 0.571 0.813 0.113 0.571 0.813 0.113 0.571 0.881 0.171 0.442 0.881 0.171 0.442 0.881 0.171 0.442 0.991 0.137 0 0.991 0.137 0 -0.986 0.169 0 -0.986 0.169 0 -0.749 0.128 0.65 -0.749 0.128 0.65 -0.749 0.128 0.65 -0.833 0.2 0.517 -0.833 0.2 0.517 -0.833 0.2 0.517 -0.749 -0.128 0.65 -0.749 -0.128 0.65 -0.749 -0.128 0.65 -0.833 -0.2 0.517 -0.833 -0.2 0.517 -0.833 -0.2 0.517 -0.986 -0.169 0 -0.986 -0.169 0 -0.544 -0.839 0 -0.544 -0.839 0 -0.431 -0.412 0.803 -0.431 -0.412 0.803 -0.431 -0.412 0.803 -0.382 -0.589 0.712 -0.382 -0.589 0.712 -0.382 -0.589 0.712 0 -0.638 0.77 0 -0.638 0.77 0 -1 0 0 -1 0 0 -1 0 0.214 0.125 0.969 0.214 0.125 0.969 0.214 0.125 0.969 0.295 0.088 0.952 0.295 0.088 0.952 0.295 0.088 0.952 0.295 -0.088 0.952 0.295 -0.088 0.952 0.295 -0.088 0.952 0.214 -0.125 0.969 0.214 -0.125 0.969 0.214 -0.125 0.969 0 -0.092 0.996 0 -0.092 0.996 0 0.092 0.996 0 0.092 0.996 0 -0.272 -0.962 0 -0.272 -0.962 0.534 -0.311 -0.786 0.534 -0.311 -0.786 0.534 -0.311 -0.786 0.675 -0.2 -0.71 0.675 -0.2 -0.71 0.675 -0.2 -0.71 0.675 0.2 -0.71 0.675 0.2 -0.71 0.675 0.2 -0.71 0.534 0.311 -0.786 0.534 0.311 -0.786 0.534 0.311 -0.786 0 0.272 -0.962 0 0.272 -0.962 0.006 0 1 0.006 0 1 0.006 0 1 0.006 0 1 0 1 0 0 1 0 0 1 0 0 1 0 0.003 0.851 0.525 0.003 0.851 0.525 0.003 0.851 0.525 0.003 0.851 0.525 0.003 -0.851 0.525 0.003 -0.851 0.525 0.003 -0.851 0.525 0.003 -0.851 0.525 -0.219 0.829 -0.514 -0.219 0.829 -0.514 -0.219 0.829 -0.514 -0.21 0.91 -0.359 -0.21 0.91 -0.359 -0.21 0.91 -0.359 -0.721 0 -0.693 -0.721 0 -0.693 -0.721 0 -0.693 -0.721 0 -0.693 0.694 0.72 0 0.694 0.72 0 0.694 0.72 0 0.694 0.72 0 -0.589 -0.578 -0.565 -0.589 -0.578 -0.565 -0.589 -0.578 -0.565 -0.546 -0.712 -0.441 -0.546 -0.712 -0.441 -0.546 -0.712 -0.441 -0.589 0.578 -0.565 -0.589 0.578 -0.565 -0.589 0.578 -0.565 -0.546 0.712 -0.441 -0.546 0.712 -0.441 -0.546 0.712 -0.441 -0.392 0 -0.92 -0.392 0 -0.92 -0.392 0 -0.92 -0.392 0 -0.92 0.239 -0.852 -0.466 0.239 -0.852 -0.466 0.239 -0.852 -0.466 0.233 -0.877 -0.42 0.233 -0.877 -0.42 0.233 -0.877 -0.42 0 -1 0 0 -1 0 0 -1 0 0.457 0 -0.89 0.457 0 -0.89 0.457 0 -0.89 0.457 0 -0.89 0 1 0 0 1 0 0 1 0 0 1 0 0 -1 0 0 -1 0 0 -1 0 0 -1 0 0.093 0 -0.996 0.093 0 -0.996 0.093 0 -0.996 0.093 0 -0.996 -0.581 0 0.814 -0.581 0 0.814 -0.581 0 0.814 -0.581 0 0.814 0.049 -0.849 -0.526 0.049 -0.849 -0.526 0.049 -0.849 -0.526 0.049 -0.849 -0.527 0.049 -0.849 -0.527 0.049 -0.849 -0.527 -0.229 -0.827 0.513 -0.229 -0.827 0.513 -0.229 -0.827 0.513 -0.23 -0.826 0.515 -0.23 -0.826 0.515 -0.23 -0.826 0.515 0.049 0.849 -0.526 0.049 0.849 -0.526 0.049 0.849 -0.526 0.049 0.849 -0.527 0.049 0.849 -0.527 0.049 0.849 -0.527 -0.229 0.827 0.513 -0.229 0.827 0.513 -0.229 0.827 0.513 -0.23 0.826 0.515 -0.23 0.826 0.515 -0.23 0.826 0.515 0 -1 0 0 -1 0 0 -1 0 0 -1 0 0 -1 0 0 1 0 0 1 0 0 1 0 0.76 0 0.65 0.76 0 0.65 0.76 0 0.65 0.76 0 0.65 -0.21 -0.91 -0.359 -0.21 -0.91 -0.359 -0.21 -0.91 -0.359 -0.219 -0.829 -0.514 -0.219 -0.829 -0.514 -0.219 -0.829 -0.514 0.524 0.725 0.447 0.524 0.725 0.447 0.524 0.725 0.447 0.524 0.725 0.447 0.233 0.877 -0.42 0.233 0.877 -0.42 0.233 0.877 -0.42 0.239 0.852 -0.466 0.239 0.852 -0.466 0.239 0.852 -0.466 0.003 -0.851 0.525 0.003 -0.851 0.525 0 -1 0 0 -1 0 -0.017 0 1 -0.017 0 1 -0.017 0 1 -0.017 0 1 0.203 -0.831 -0.518 0.203 -0.831 -0.518 0.203 -0.831 -0.518 0.206 -0.825 -0.527 0.206 -0.825 -0.527 0.206 -0.825 -0.527 -0.009 -0.851 0.525 -0.009 -0.851 0.525 -0.009 -0.851 0.525 -0.009 -0.85 0.526 -0.009 -0.85 0.526 -0.009 -0.85 0.526 -0.009 0.851 0.525 -0.009 0.851 0.525 -0.009 0.851 0.525 -0.009 0.85 0.526 -0.009 0.85 0.526 -0.009 0.85 0.526 0.365 0 -0.931 0.365 0 -0.931 0.365 0 -0.931 0.365 0 -0.931 0.206 0.825 -0.527 0.206 0.825 -0.527 0.206 0.825 -0.527 0.203 0.831 -0.518 0.203 0.831 -0.518 0.203 0.831 -0.518 -0.352 0.796 0.492 -0.352 0.796 0.492 -0.352 0.796 0.492 -0.351 0.797 0.492 -0.351 0.797 0.492 -0.351 0.797 0.492 0.049 0.849 -0.526 0.049 0.849 -0.526 -0.352 -0.796 0.492 -0.352 -0.796 0.492 -0.352 -0.796 0.492 -0.351 -0.797 0.492 -0.351 -0.797 0.492 -0.351 -0.797 0.492 0.049 -0.849 -0.526 0.049 -0.849 -0.526 0.524 -0.725 0.447 0.524 -0.725 0.447 0.524 -0.725 0.447 0.524 -0.725 0.447 0.694 -0.72 0 0.694 -0.72 0 0.694 -0.72 0 0.694 -0.72 0 1 0 0 1 0 0 1 0 0 1 0 0 0.003 0.851 0.525 0.003 0.851 0.525 0 1 0 -0.407 0 0.913 -0.407 0 0.913 -0.407 0 0.913 -0.407 0 0.913 0.093 0 -0.996 0.093 0 -0.996 0 -1 0 0 -1 0 0.006 0 1 0.006 0 1 0 1 0 0 1 0 0 1 0 0 1 0 0 1 0 0 -1 0 -0.972 0 -0.236 -0.972 0 -0.236 -0.972 0 -0.236 -0.972 0 -0.236 -0.018 1 -0.01 -0.018 1 -0.01 -0.018 1 -0.01 0 0.998 -0.069 0 0.998 -0.069 0 0.998 -0.069 0.973 0 -0.23 0.973 0 -0.23 0.973 0 -0.23 0.973 0 -0.23 -0.001 0 1 -0.001 0 1 -0.001 0 1 -0.001 0 1 0.864 0 -0.503 0.864 0 -0.503 0.864 0 -0.503 0.864 0 -0.503 -0.072 -0.98 -0.186 -0.072 -0.98 -0.186 -0.072 -0.98 -0.186 -0.018 -0.998 -0.056 -0.018 -0.998 -0.056 -0.018 -0.998 -0.056 -0.864 0 -0.504 -0.864 0 -0.504 -0.864 0 -0.504 -0.864 0 -0.504 -0.018 -1 -0.01 -0.018 -1 -0.01 -0.018 -1 -0.01 0 -0.998 -0.069 0 -0.998 -0.069 0 -0.998 -0.069 -0.995 0 -0.099 -0.995 0 -0.099 -0.995 0 -0.099 -0.995 0 -0.099 -0.151 0.964 -0.217 -0.151 0.964 -0.217 -0.151 0.964 -0.217 -0.072 0.982 -0.174 -0.072 0.982 -0.174 -0.072 0.982 -0.174 0.835 0 -0.551 0.835 0 -0.551 0.835 0 -0.551 0.835 0 -0.551 -0.072 0.98 -0.186 -0.072 0.98 -0.186 -0.072 0.98 -0.186 -0.018 0.998 -0.056 -0.018 0.998 -0.056 -0.018 0.998 -0.056 -0.812 0 0.584 -0.812 0 0.584 -0.812 0 0.584 -0.812 0 0.584 -0.164 0.986 -0.041 -0.164 0.986 -0.041 -0.164 0.986 -0.041 -0.123 0.991 -0.054 -0.123 0.991 -0.054 -0.123 0.991 -0.054 0.824 0 -0.567 0.824 0 -0.567 0.824 0 -0.567 0.824 0 -0.567 -0.151 -0.964 -0.217 -0.151 -0.964 -0.217 -0.151 -0.964 -0.217 -0.072 -0.982 -0.174 -0.072 -0.982 -0.174 -0.072 -0.982 -0.174 0.337 0 -0.942 0.337 0 -0.942 0.337 0 -0.942 0.337 0 -0.942 -0.013 -1 0.025 -0.013 -1 0.025 -0.013 -1 0.025 -0.013 -1 0.021 -0.013 -1 0.021 -0.013 -1 0.021 -0.403 0 0.915 -0.403 0 0.915 -0.403 0 0.915 -0.403 0 0.915 -0.164 -0.986 -0.041 -0.164 -0.986 -0.041 -0.164 -0.986 -0.041 -0.123 -0.991 -0.054 -0.123 -0.991 -0.054 -0.123 -0.991 -0.054 -0.006 0 1 -0.006 0 1 -0.006 0 1 -0.006 0 1 0.002 1 0.019 0.002 1 0.019 0.002 1 0.019 -0.001 1 0.003 -0.001 1 0.003 -0.001 1 0.003 0.075 0 -0.997 0.075 0 -0.997 0.075 0 -0.997 0.075 0 -0.997 -0.013 1 0.025 -0.013 1 0.025 -0.013 1 0.025 -0.013 1 0.021 -0.013 1 0.021 -0.013 1 0.021 0 1 0.003 0 1 0.003 0 1 0.003 0.003 1 0.011 0.003 1 0.011 0.003 1 0.011 -0.013 0 -1 -0.013 0 -1 -0.013 0 -1 -0.013 0 -1 0 -1 0.003 0 -1 0.003 0 -1 0.003 0.003 -1 0.011 0.003 -1 0.011 0.003 -1 0.011 0.002 -1 0.019 0.002 -1 0.019 0.002 -1 0.019 -0.001 -1 0.003 -0.001 -1 0.003 -0.001 -1 0.003 -0.389 0 -0.921 -0.389 0 -0.921 -0.389 0 -0.921 -0.389 0 -0.921 0.151 -0.987 0.052 0.151 -0.987 0.052 0.151 -0.987 0.052 0.09 -0.996 -0.007 0.09 -0.996 -0.007 0.09 -0.996 -0.007 0.356 0 0.934 0.356 0 0.934 0.356 0 0.934 0.356 0 0.934 0.058 0 0.998 0.058 0 0.998 0.058 0 0.998 0.058 0 0.998 0.799 0 0.602 0.799 0 0.602 0.799 0 0.602 0.799 0 0.602 0.251 0.967 -0.037 0.251 0.967 -0.037 0.251 0.967 -0.037 0.116 0.992 -0.054 0.116 0.992 -0.054 0.116 0.992 -0.054 -0.79 0 -0.614 -0.79 0 -0.614 -0.79 0 -0.614 -0.79 0 -0.614 0.151 0.987 0.052 0.151 0.987 0.052 0.151 0.987 0.052 0.09 0.996 -0.007 0.09 0.996 -0.007 0.09 0.996 -0.007 -0.899 0 -0.438 -0.899 0 -0.438 -0.899 0 -0.438 -0.899 0 -0.438 0.113 -0.989 -0.099 0.113 -0.989 -0.099 0.113 -0.989 -0.099 0.126 -0.986 -0.107 0.126 -0.986 -0.107 0.126 -0.986 -0.107 0.947 0 0.321 0.947 0 0.321 0.947 0 0.321 0.947 0 0.321 0.251 -0.967 -0.037 0.251 -0.967 -0.037 0.251 -0.967 -0.037 0.116 -0.992 -0.054 0.116 -0.992 -0.054 0.116 -0.992 -0.054 -0.998 0 -0.055 -0.998 0 -0.055 -0.998 0 -0.055 -0.998 0 -0.055 0.117 -0.993 -0.014 0.117 -0.993 -0.014 0.117 -0.993 -0.014 -0.001 -0.997 -0.072 -0.001 -0.997 -0.072 -0.001 -0.997 -0.072 0.995 0 -0.096 0.995 0 -0.096 0.995 0 -0.096 0.995 0 -0.096 0.117 0.993 -0.014 0.117 0.993 -0.014 0.117 0.993 -0.014 -0.001 0.997 -0.072 -0.001 0.997 -0.072 -0.001 0.997 -0.072 0.113 0.989 -0.099 0.113 0.989 -0.099 0.113 0.989 -0.099 0.126 0.986 -0.107 0.126 0.986 -0.107 0.126 0.986 -0.107 -0.004 0 1 -0.004 0 1 -0.004 0 1 -0.004 0 1 0 0 -1 0 0 -1 0 0 -1 0 0 -1 0.707 0 -0.707 0.707 0 -0.707 0.707 0 -0.707 0.707 0 -0.707 0.707 0 0.707 0.707 0 0.707 0.707 0 0.707 0.707 0 0.707 -0.707 0 0.707 -0.707 0 0.707 -0.707 0 0.707 -0.707 0 0.707 -0.707 0 -0.707 -0.707 0 -0.707 -0.707 0 -0.707 -0.707 0 -0.707 0 -1 0 0 -1 0 0 -1 0 0 -1 0 0 -1 0 0 -1 0 0 -1 0 0 -1 0 0 -1 0 0 -1 0 0 -1 0 0 -1 0 0 -1 0 0 -1 0 0 -1 0 0 -1 0 -1 0 0 -1 0 0 -1 0 0 -1 0 0 1 0 0 1 0 0 1 0 0 1 0 0 0 0 1 0 0 1 0 0 1 0 0 1 -0.308 0 0.951 -0.308 0 0.951 -0.308 0 0.951 -0.308 0 0.951 0 -1 0 0 -1 0 0 1 0 0 1 0 0 1 0 0 1 0 0 0 -1 0 0 -1 0 0 -1 -0.171 -0.831 0.529 -0.171 -0.831 0.529 -0.171 -0.831 0.529 -0.171 -0.831 0.529 0 0.844 0.537 0 0.844 0.537 0 0.844 0.537 0 0.844 0.537 0 -0.841 -0.541 0 -0.841 -0.541 0 -0.841 -0.541 0 -0.841 -0.541 0 0.841 -0.541 0 0.841 -0.541 0 0.841 -0.541 0 0.841 -0.541 0.511 0.856 0.076 0.511 0.856 0.076 0.511 0.856 0.076 0.372 0.927 0.052 0.372 0.927 0.052 0.372 0.927 0.052 0.873 0.349 -0.34 0.873 0.349 -0.34 0.873 0.349 -0.34 0.731 0.352 -0.584 0.731 0.352 -0.584 0.731 0.352 -0.584 0.721 0 -0.693 0.721 0 -0.693 0.721 0 -0.693 0.721 0 -0.693 0 1 0 0 1 0 0 1 0 0 1 0 0 -1 0 0 -1 0 0 -1 0 0 -1 0 -1 0 0 -1 0 0 -1 0 0 -1 0 0 -1 0 0 -1 0 0 -1 0 0 -1 0 0 0 0.841 -0.541 0 0.841 -0.541 0 -0.841 -0.541 0 -0.841 -0.541 -0.171 0.831 0.529 -0.171 0.831 0.529 -0.171 0.831 0.529 -0.171 0.831 0.529 0 -0.844 0.537 0 -0.844 0.537 0 -0.844 0.537 0 -0.844 0.537 0 0 -1 0 0 -1 0 0 -1 1 0 0 1 0 0 1 0 0 1 0 0 1 0 0 1 0 0 1 0 0 1 0 0 0.247 0.551 0.797 0.247 0.551 0.797 0.247 0.551 0.797 0.735 0.419 0.533 0.735 0.419 0.533 0.735 0.419 0.533 0.735 -0.419 0.533 0.735 -0.419 0.533 0.735 -0.419 0.533 0.247 -0.551 0.797 0.247 -0.551 0.797 0.247 -0.551 0.797 -0.511 0.856 -0.079 -0.511 0.856 -0.079 -0.511 0.856 -0.079 -0.561 0.823 -0.083 -0.561 0.823 -0.083 -0.561 0.823 -0.083 -0.511 -0.856 -0.079 -0.511 -0.856 -0.079 -0.511 -0.856 -0.079 -0.561 -0.823 -0.083 -0.561 -0.823 -0.083 -0.561 -0.823 -0.083 0.873 -0.349 -0.34 0.873 -0.349 -0.34 0.873 -0.349 -0.34 0.731 -0.352 -0.584 0.731 -0.352 -0.584 0.731 -0.352 -0.584 -0.273 0.773 0.573 -0.273 0.773 0.573 -0.273 0.773 0.573 -0.317 0.724 0.612 -0.317 0.724 0.612 -0.317 0.724 0.612 -0.317 -0.724 0.612 -0.317 -0.724 0.612 -0.317 -0.724 0.612 -0.273 -0.773 0.573 -0.273 -0.773 0.573 -0.273 -0.773 0.573 -0.167 -0.708 -0.686 -0.167 -0.708 -0.686 -0.167 -0.708 -0.686 -0.147 -0.739 -0.658 -0.147 -0.739 -0.658 -0.147 -0.739 -0.658 -0.167 0.708 -0.686 -0.167 0.708 -0.686 -0.167 0.708 -0.686 -0.147 0.739 -0.658 -0.147 0.739 -0.658 -0.147 0.739 -0.658 -0.989 0 -0.146 -0.989 0 -0.146 -0.989 0 -0.146 -0.989 0 -0.146 0 1 0 0 1 0 0 0 1 0 0 1 0 0 1 0 0 1 -0.218 0 -0.976 -0.218 0 -0.976 -0.218 0 -0.976 -0.218 0 -0.976 0.071 0 0.997 0.071 0 0.997 0.071 0 0.997 0.071 0 0.997 0.511 -0.856 0.076 0.511 -0.856 0.076 0.511 -0.856 0.076 0.372 -0.927 0.052 0.372 -0.927 0.052 0.372 -0.927 0.052 -0.43 0 0.903 -0.43 0 0.903 -0.43 0 0.903 -0.43 0 0.903 0 -0.259 -0.966 0 -0.259 -0.966 0 -0.259 -0.966 0 -0.259 -0.966 0 -0.259 0.966 0 -0.259 0.966 0 -0.259 0.966 0 -0.259 0.966 0 0.966 0.259 0 0.966 0.259 0 0.966 0.259 0 0.966 0.259 0 0.259 -0.966 0 0.259 -0.966 0 0.259 -0.966 0 0.259 -0.966 0 -0.707 0.707 0 -0.707 0.707 0 -0.707 0.707 0 -0.707 0.707 0 -0.966 -0.259 0 -0.966 -0.259 0 -0.966 -0.259 0 -0.966 -0.259 0 0.707 0.707 0 0.707 0.707 0 0.707 0.707 0 0.707 0.707 0 0.707 -0.707 0 0.707 -0.707 0 0.707 -0.707 0 0.707 -0.707 0 -0.966 0.259 0 -0.966 0.259 0 -0.966 0.259 0 -0.966 0.259 0 -0.707 -0.707 0 -0.707 -0.707 0 -0.707 -0.707 0 -0.707 -0.707 0 0.259 0.966 0 0.259 0.966 0 0.259 0.966 0 0.259 0.966 1 0 0 1 0 0 1 0 0 1 0 0 1 0 0 1 0 0 1 0 0 1 0 0 1 0 0 1 0 0 1 0 0 1 0 0 -1 0 0 -1 0 0 -1 0 0 -1 0 0 -1 0 0 -1 0 0 -1 0 0 -1 0 0 -1 0 0 -1 0 0 -1 0 0 -1 0 0 -1 0 0 -1 0 0 -1 0 0 -1 0 0 -1 0 0 -1 0 0 -1 0 0 -1 0 0 -1 0 0 -1 0 0 -1 0 0 -1 0 0 0 0.966 -0.259 0 0.966 -0.259 0 0.966 -0.259 0 0.966 -0.259 0 -0.707 0.707 0 -0.707 0.707 0 -0.707 0.707 0 -0.707 0.707 0 0.966 -0.259 0 0.966 -0.259 0 0.966 -0.259 0 0.966 -0.259 0 0.707 0.707 0 0.707 0.707 0 0.707 0.707 0 0.707 0.707 0 -0.259 -0.966 0 -0.259 -0.966 0 -0.259 -0.966 0 -0.259 -0.966 0 -0.966 0.259 0 -0.966 0.259 0 -0.966 0.259 0 -0.966 0.259 0 0.259 0.966 0 0.259 0.966 0 0.259 0.966 0 0.259 0.966 0 0.259 -0.966 0 0.259 -0.966 0 0.259 -0.966 0 0.259 -0.966 0 -0.966 -0.259 0 -0.966 -0.259 0 -0.966 -0.259 0 -0.966 -0.259 0 -0.259 0.966 0 -0.259 0.966 0 -0.259 0.966 0 -0.259 0.966 0 0.707 -0.707 0 0.707 -0.707 0 0.707 -0.707 0 0.707 -0.707 0 0.966 0.259 0 0.966 0.259 0 0.966 0.259 0 0.966 0.259 1 0 0 1 0 0 1 0 0 1 0 0 1 0 0 1 0 0 1 0 0 1 0 0 1 0 0 1 0 0 1 0 0 1 0 0 1 0 0 1 0 0 1 0 0 1 0 0 1 0 0 1 0 0 1 0 0 1 0 0 1 0 0 1 0 0 1 0 0 1 0 0 1 0 0 1 0 0 1 0 0 1 0 0 1 0 0 1 0 0 1 0 0 1 0 0 1 0 0 1 0 0 1 0 0 1 0 0 0 -0.707 -0.707 0 -0.707 -0.707 0 -0.707 -0.707 0 -0.707 -0.707 0 0.707 0.707 0 0.707 0.707 0 0.707 0.707 0 0.707 0.707 0 0.707 -0.707 0 0.707 -0.707 0 0.707 -0.707 0 0.707 -0.707 0 -0.966 0.259 0 -0.966 0.259 0 -0.966 0.259 0 -0.966 0.259 0 -0.707 -0.707 0 -0.707 -0.707 0 -0.707 -0.707 0 -0.707 -0.707 0 0.259 0.966 0 0.259 0.966 0 0.259 0.966 0 0.259 0.966 0 0.966 -0.259 0 0.966 -0.259 0 0.966 -0.259 0 0.966 -0.259 0 -0.259 -0.966 0 -0.259 -0.966 0 -0.259 -0.966 0 -0.259 -0.966 0 -0.259 0.966 0 -0.259 0.966 0 -0.259 0.966 0 -0.259 0.966 0 0.966 0.259 0 0.966 0.259 0 0.966 0.259 0 0.966 0.259 0 0.259 -0.966 0 0.259 -0.966 0 0.259 -0.966 0 0.259 -0.966 0 -0.707 0.707 0 -0.707 0.707 0 -0.707 0.707 0 -0.707 0.707 0.978 -0.201 -0.054 0.978 -0.201 -0.054 0.978 -0.201 -0.054 0.978 -0.201 -0.054 0.978 0.147 0.147 0.978 0.147 0.147 0.978 0.147 0.147 0.978 0.147 0.147 0.978 0.147 -0.147 0.978 0.147 -0.147 0.978 0.147 -0.147 0.978 0.147 -0.147 0.978 -0.201 0.054 0.978 -0.201 0.054 0.978 -0.201 0.054 0.978 -0.201 0.054 0.978 -0.147 -0.147 0.978 -0.147 -0.147 0.978 -0.147 -0.147 0.978 -0.147 -0.147 0.978 0.054 0.201 0.978 0.054 0.201 0.978 0.054 0.201 0.978 0.054 0.201 0.978 0.201 -0.054 0.978 0.201 -0.054 0.978 0.201 -0.054 0.978 0.201 -0.054 0.978 -0.054 -0.201 0.978 -0.054 -0.201 0.978 -0.054 -0.201 0.978 -0.054 -0.201 0.978 -0.054 0.201 0.978 -0.054 0.201 0.978 -0.054 0.201 0.978 -0.054 0.201 0.978 0.201 0.054 0.978 0.201 0.054 0.978 0.201 0.054 0.978 0.201 0.054 0.978 0.054 -0.201 0.978 0.054 -0.201 0.978 0.054 -0.201 0.978 0.054 -0.201 0 -0.966 -0.259 0 -0.966 -0.259 0 -0.966 -0.259 0 -0.966 -0.259 0 -0.707 0.707 0 -0.707 0.707 0 -0.707 0.707 0 -0.707 0.707 0 -0.966 -0.259 0 -0.966 -0.259 0 -0.966 -0.259 0 -0.966 -0.259 0 0.707 0.707 0 0.707 0.707 0 0.707 0.707 0 0.707 0.707 0 0.707 -0.707 0 0.707 -0.707 0 0.707 -0.707 0 0.707 -0.707 0 -0.966 0.259 0 -0.966 0.259 0 -0.966 0.259 0 -0.966 0.259 0 -0.707 -0.707 0 -0.707 -0.707 0 -0.707 -0.707 0 -0.707 -0.707 0 0.259 0.966 0 0.259 0.966 0 0.259 0.966 0 0.259 0.966 0 0.966 -0.259 0 0.966 -0.259 0 0.966 -0.259 0 0.966 -0.259 0 -0.259 -0.966 0 -0.259 -0.966 0 -0.259 -0.966 0 -0.259 -0.966 0 -0.259 0.966 0 -0.259 0.966 0 -0.259 0.966 0 -0.259 0.966 0 0.966 0.259 0 0.966 0.259 0 0.966 0.259 0 0.966 0.259 0.978 -0.147 0.147 0.978 -0.147 0.147 0.978 -0.147 0.147 0.978 -0.147 0.147 -0.981 -0.05 0.187 -0.981 -0.05 0.187 -0.981 -0.05 0.187 -0.981 -0.05 0.187 -0.981 -0.187 0.05 -0.981 -0.187 0.05 -0.981 -0.187 0.05 -0.981 -0.187 0.05 -0.981 -0.187 -0.05 -0.981 -0.187 -0.05 -0.981 -0.187 -0.05 -0.981 -0.187 -0.05 -0.981 0.05 0.187 -0.981 0.05 0.187 -0.981 0.05 0.187 -0.981 0.05 0.187 -0.981 0.137 0.137 -0.981 0.137 0.137 -0.981 0.137 0.137 -0.981 0.137 0.137 -0.981 0.187 0.05 -0.981 0.187 0.05 -0.981 0.187 0.05 -0.981 0.187 0.05 -0.981 0.187 -0.05 -0.981 0.187 -0.05 -0.981 0.187 -0.05 -0.981 0.187 -0.05 -0.981 0.137 -0.137 -0.981 0.137 -0.137 -0.981 0.137 -0.137 -0.981 0.137 -0.137 -0.981 0.05 -0.187 -0.981 0.05 -0.187 -0.981 0.05 -0.187 -0.981 0.05 -0.187 -0.981 -0.05 -0.187 -0.981 -0.05 -0.187 -0.981 -0.05 -0.187 -0.981 -0.05 -0.187 -0.981 -0.137 0.137 -0.981 -0.137 0.137 -0.981 -0.137 0.137 -0.981 -0.137 0.137 0 0.259 -0.966 0 0.259 -0.966 0 0.259 -0.966 0 0.259 -0.966 0 -0.966 -0.259 0 -0.966 -0.259 0 -0.966 -0.259 0 -0.966 -0.259 0 -0.707 -0.707 0 -0.707 -0.707 0 -0.707 -0.707 0 -0.707 -0.707 0 -0.259 -0.966 0 -0.259 -0.966 0 -0.259 -0.966 0 -0.259 -0.966 0 0.259 -0.966 0 0.259 -0.966 0 0.259 -0.966 0 0.259 -0.966 0 0.707 -0.707 0 0.707 -0.707 0 0.707 -0.707 0 0.707 -0.707 0 0.966 -0.259 0 0.966 -0.259 0 0.966 -0.259 0 0.966 -0.259 0 0.966 0.259 0 0.966 0.259 0 0.966 0.259 0 0.966 0.259 0 0.707 0.707 0 0.707 0.707 0 0.707 0.707 0 0.707 0.707 0 0.259 0.966 0 0.259 0.966 0 0.259 0.966 0 0.259 0.966 0 -0.259 0.966 0 -0.259 0.966 0 -0.259 0.966 0 -0.259 0.966 0 -0.707 0.707 0 -0.707 0.707 0 -0.707 0.707 0 -0.707 0.707 0 -0.966 0.259 0 -0.966 0.259 0 -0.966 0.259 0 -0.966 0.259 -0.981 -0.137 -0.137 -0.981 -0.137 -0.137 -0.981 -0.137 -0.137 -0.981 -0.137 -0.137 0 -0.966 -0.259 0 -0.966 -0.259 0 -0.966 -0.259 0 -0.966 -0.259 0 -0.707 -0.707 0 -0.707 -0.707 0 -0.707 -0.707 0 -0.707 -0.707 0 -0.259 -0.966 0 -0.259 -0.966 0 -0.259 -0.966 0 -0.259 -0.966 0 0.259 -0.966 0 0.259 -0.966 0 0.259 -0.966 0 0.259 -0.966 0 0.707 -0.707 0 0.707 -0.707 0 0.707 -0.707 0 0.707 -0.707 0 0.966 -0.259 0 0.966 -0.259 0 0.966 -0.259 0 0.966 -0.259 0 0.966 0.259 0 0.966 0.259 0 0.966 0.259 0 0.966 0.259 0 0.707 0.707 0 0.707 0.707 0 0.707 0.707 0 0.707 0.707 0 0.259 0.966 0 0.259 0.966 0 0.259 0.966 0 0.259 0.966 0 -0.259 0.966 0 -0.259 0.966 0 -0.259 0.966 0 -0.259 0.966 0 -0.707 0.707 0 -0.707 0.707 0 -0.707 0.707 0 -0.707 0.707 0 -0.966 0.259 0 -0.966 0.259 0 -0.966 0.259 0 -0.966 0.259 0 1 0 0 1 0 0 1 0 0 1 0 0.858 0 0.514 0.858 0 0.514 0.858 0 0.514 0.858 0 0.514 -0.725 0 0.689 -0.725 0 0.689 -0.725 0 0.689 -0.725 0 0.689 0 -1 0 0 -1 0 0 -1 0 0 -1 0 -0.988 0 -0.157 -0.988 0 -0.157 -0.988 0 -0.157 -0.988 0 -0.157 0 1 0 0 1 0 0 1 0 0 1 0 0.952 0 0.305 0.952 0 0.305 0.952 0 0.305 0.952 0 0.305 0.957 0 -0.292 0.957 0 -0.292 0.957 0 -0.292 0.957 0 -0.292 0 1 0 0 1 0 -0.95 0 0.311 -0.95 0 0.311 -0.95 0 0.311 -0.95 0 0.311 0 -1 0 0 -1 0 0 -1 0 0 -1 0 -0.997 0 0.08 -0.997 0 0.08 -0.997 0 0.08 -0.997 0 0.08 0 -1 0 0 -1 0 -0.025 0 1 -0.025 0 1 -0.025 0 1 -0.025 0 1 0.858 0 0.514 0.858 0 0.514 0.518 0 -0.855 0.518 0 -0.855 0.518 0 -0.855 0.518 0 -0.855 0 -1 0 0 -1 0 0 -1 0 0 -1 0 0 -1 0 0 -1 0 0 -1 0 0 -1 0 0.007 1 -0.005 0.007 1 -0.005 0.007 1 -0.005 0.003 1 0.011 0.003 1 0.011 0.003 1 0.011 0.01 1 -0.009 0.01 1 -0.009 0.01 1 -0.009 0.012 1 0.011 0.012 1 0.011 0.012 1 0.011 -0.302 0 -0.953 -0.302 0 -0.953 -0.302 0 -0.953 -0.302 0 -0.953 0.931 0 -0.365 0.931 0 -0.365 0.931 0 -0.365 0.931 0 -0.365 -0.911 0 -0.413 -0.911 0 -0.413 -0.911 0 -0.413 -0.911 0 -0.413 0.013 1 -0.003 0.013 1 -0.003 0.013 1 -0.003 0.008 1 -0.001 0.008 1 -0.001 0.008 1 -0.001 0.013 -1 -0.003 0.013 -1 -0.003 0.013 -1 -0.003 0.008 -1 -0.001 0.008 -1 -0.001 0.008 -1 -0.001 0.994 0 0.106 0.994 0 0.106 0.994 0 0.106 0.994 0 0.106 -0.167 0 -0.986 -0.167 0 -0.986 -0.167 0 -0.986 -0.167 0 -0.986 -0.763 0 -0.646 -0.763 0 -0.646 -0.763 0 -0.646 -0.763 0 -0.646 0.127 0 0.992 0.127 0 0.992 0.127 0 0.992 0.127 0 0.992 -0.999 0 0.046 -0.999 0 0.046 -0.999 0 0.046 -0.999 0 0.046 0.006 1 -0.002 0.006 1 -0.002 0.006 1 -0.002 0.018 1 -0.008 0.018 1 -0.008 0.018 1 -0.008 0.002 1 0.003 0.002 1 0.003 0.002 1 0.003 0.956 0 -0.292 0.956 0 -0.292 0.956 0 -0.292 0.956 0 -0.292 0.003 -1 0.019 0.003 -1 0.019 0.003 -1 0.019 -0.011 -1 -0.001 -0.011 -1 -0.001 -0.011 -1 -0.001 0.375 0 -0.927 0.375 0 -0.927 0.375 0 -0.927 0.375 0 -0.927 0.919 0 0.395 0.919 0 0.395 0.919 0 0.395 0.919 0 0.395 0.01 -1 -0.009 0.01 -1 -0.009 0.01 -1 -0.009 0.007 -1 -0.005 0.007 -1 -0.005 0.007 -1 -0.005 0.012 -1 0.011 0.012 -1 0.011 0.012 -1 0.011 0.003 -1 0.011 0.003 -1 0.011 0.003 -1 0.011 -0.94 0 -0.341 -0.94 0 -0.341 -0.94 0 -0.341 -0.94 0 -0.341 0.984 0 -0.176 0.984 0 -0.176 0.984 0 -0.176 0.984 0 -0.176 -0.843 0 -0.539 -0.843 0 -0.539 -0.843 0 -0.539 -0.843 0 -0.539 -0.011 -1 -0.006 -0.011 -1 -0.006 -0.011 -1 -0.006 -0.005 -1 -0.002 -0.005 -1 -0.002 -0.005 -1 -0.002 -0.005 1 -0.002 -0.005 1 -0.002 -0.005 1 -0.002 -0.011 1 -0.006 -0.011 1 -0.006 -0.011 1 -0.006 0.006 -1 -0.002 0.006 -1 -0.002 0.006 -1 -0.002 0.002 -1 0.003 0.002 -1 0.003 0.002 -1 0.003 0.018 -1 -0.008 0.018 -1 -0.008 0.018 -1 -0.008 -0.011 1 -0.001 -0.011 1 -0.001 -0.011 1 -0.001 0.003 1 0.019 0.003 1 0.019 0.003 1 0.019 -0.213 0 0.977 -0.213 0 0.977 -0.213 0 0.977 -0.213 0 0.977 0 1 0 0 1 0 0 1 0 0 1 0 1 0 0 1 0 0 1 0 0 1 0 0 -0.874 0 0.485 -0.874 0 0.485 -0.874 0 0.485 -0.874 0 0.485 0 0 -1 0 0 -1 0 0 -1 0 0 -1 0 -1 0 0 -1 0 0 -1 0 0 -1 0 0 0 1 0 0 1 0 0 1 0 0 1 0 0.259 0.966 0 0.259 0.966 0 0.259 0.966 0 0.259 0.966 0 -0.966 0.258 0 -0.966 0.258 0 -0.966 0.258 0 -0.966 0.258 0 -0.869 -0.494 0 -0.869 -0.494 0 -0.869 -0.494 0 -0.869 -0.494 0 0.707 -0.707 0 0.707 -0.707 0 0.707 -0.707 0 0.707 -0.707 0 -0.259 0.966 0 -0.259 0.966 0 -0.259 0.966 0 -0.259 0.966 0 0.966 -0.259 0 0.966 -0.259 0 0.966 -0.259 0 0.966 -0.259 0 -0.707 0.707 0 -0.707 0.707 0 -0.707 0.707 0 -0.707 0.707 0 0.966 0.258 0 0.966 0.258 0 0.966 0.258 0 0.966 0.258 0 -0.966 0.259 0 -0.966 0.259 0 -0.966 0.259 0 -0.966 0.259 0 0.869 -0.494 0 0.869 -0.494 0 0.869 -0.494 0 0.869 -0.494 0 0.869 0.494 0 0.869 0.494 0 0.869 0.494 0 0.869 0.494 0 1 0 0 1 0 0 1 0 0 1 0 0 -0.966 -0.259 0 -0.966 -0.259 0 -0.966 -0.259 0 -0.966 -0.259 0 0.966 -0.258 0 0.966 -0.258 0 0.966 -0.258 0 0.966 -0.258 0 -0.707 -0.707 0 -0.707 -0.707 0 -0.707 -0.707 0 -0.707 -0.707 0 0.966 0.259 0 0.966 0.259 0 0.966 0.259 0 0.966 0.259 0 -1 0 0 -1 0 0 -1 0 0 -1 0 0 -0.259 -0.966 0 -0.259 -0.966 0 -0.259 -0.966 0 -0.259 -0.966 0 0.707 0.707 0 0.707 0.707 0 0.707 0.707 0 0.707 0.707 0 -0.869 0.494 0 -0.869 0.494 0 -0.869 0.494 0 -0.869 0.494 0 -0.966 -0.258 0 -0.966 -0.258 0 -0.966 -0.258 0 -0.966 -0.258 0 0.259 -0.966 0 0.259 -0.966 0 0.259 -0.966 0 0.259 -0.966 -1 0 0 -1 0 0 -1 0 0 -1 0 0 1 0 0 1 0 0 1 0 0 1 0 0 -0.999 0 -0.036 -0.999 0 -0.036 -0.999 0 -0.036 -1 0 0 -1 0 0 -1 0 0 -1 0 0 -1 0 0 -1 0 0 -1 0 0 -0.999 0 -0.036 -1 0 -0.007 -1 0 -0.007 -1 0 -0.007 -1 0 -0.007 -1 0 0 -1 0 0 -1 0 0 -0.999 0 0.036 -0.999 0 0.036 -0.999 0 0.036 -1 0 0 -0.999 0 0.036 -1 0 0.007 -1 0 0.007 -1 0 0.007 -1 0 0 -1 0 0 -1 0 0 -1 0 0.007 1 0 0 1 0 0 1 0 0 1 0 0 1 0 0 1 0 0 1 0 0 1 0 -0.007 1 0 -0.007 1 0 -0.007 1 0 -0.007 0.999 0 -0.036 0.999 0 -0.036 0.999 0 -0.036 0.999 0 -0.036 1 0 0 1 0 0 1 0 0 0.999 0 0.036 0.999 0 0.036 0.999 0 0.036 0.999 0 0.036 1 0 0.007 1 0 0.007 1 0 0.007 1 0 0.007 1 0 0 1 0 0 1 0 0 1 0 0 0 1 0 0 1 0 0 1 0 0 1 0 0 0.854 0.52 0 0.854 0.52 0 0.854 0.52 0 0.854 0.52 0 0.841 -0.541 0 0.841 -0.541 0 0.841 -0.541 0 0.841 -0.541 0 -0.854 0.52 0 -0.854 0.52 0 -0.854 0.52 0 -0.854 0.52 0 -0.841 -0.541 0 -0.841 -0.541 0 -0.841 -0.541 0 -0.841 -0.541 1 0 0 1 0 0 1 0 0 1 0 0 1 0 0 1 0 0 1 0 0 1 0 0 0 0 -1 0 0 -1 0 0 -1 0 0 -1 0 0 1 0 0 1 0 0 1 0 0 1 -1 0 0 -1 0 0 -1 0 0 -1 0 0 -1 0 0 -1 0 0 -1 0 0 -1 0 0 0 -1 0 0 -1 0 0 -1 0 0 -1 0</float_array><technique_common><accessor source="#g-n-a" count="1842" stride="3"><param name="X" type="float"/><param name="Y" type="float"/><param name="Z" type="float"/></accessor></technique_common></source>
<vertices id="g-v"><input semantic="POSITION" source="#g-p"/><input semantic="NORMAL" source="#g-n"/></vertices>
<triangles material="m0" count="208"><input semantic="VERTEX" source="#g-v" offset="0"/><p>512 513 514 512 515 513 516 517 518 519 520 521 522 523 524 522 525 523 526 527 528 527 526 529 530 531 532 530 533 531 534 535 536 537 538 539 540 541 542 541 540 543 544 545 546 547 548 549 550 551 552 551 550 553 554 555 556 557 558 559 560 561 562 560 563 561 564 565 566 567 568 569 570 571 572 571 570 573 574 575 576 577 578 579 580 581 582 580 583 581 584 585 586 587 588 589 590 591 592 593 590 592 594 595 596 597 598 599 600 601 602 601 600 603 604 605 606 607 608 609 610 611 612 613 612 611 614 615 616 617 618 619 620 621 622 621 620 623 624 625 626 627 628 629 630 631 632 633 634 635 636 637 638 637 636 639 640 641 642 643 644 645 646 647 648 649 650 651 652 653 654 653 652 655 656 657 658 659 660 661 662 663 664 663 662 665 666 667 668 667 666 669 670 671 672 673 671 670 674 675 676 677 678 679 680 681 682 681 680 683 684 685 686 687 688 689 690 691 692 691 690 693 694 695 696 697 698 699 700 701 702 701 700 703 704 705 706 707 708 709 710 711 712 713 711 710 714 715 716 717 718 719 720 721 722 723 721 720 724 725 726 727 728 729 730 731 732 733 734 735 736 737 738 736 739 737 740 741 742 741 740 743 744 745 746 747 744 746 748 749 750 751 748 750 752 753 754 755 752 754 756 757 758 759 756 758 760 761 762 763 764 765 766 767 768 769 770 771 771 761 769 771 762 761 762 772 773 772 762 771 770 774 771 771 774 772 774 766 768 774 770 766 764 775 765 760 775 764 775 760 762 773 775 762 776 777 778 777 776 779 780 781 782 783 780 782 763 768 767 768 763 765 765 774 768 775 774 765 784 785 786 784 786 787 788 789 790 791 788 790 792 793 773 772 792 773 794 795 796 795 794 797 798 799 800 801 802 803 802 801 804 805 806 807 805 808 806 809 810 811 809 812 810 813 814 815 813 816 814 817 818 819 820 821 822 823 824 825 826 827 828 829 830 831 830 829 832 833 834 835 835 836 833 837 838 839 838 837 840 841 842 843 844 842 841 842 845 846 842 844 845 847 845 848 846 845 847 849 815 850 849 813 815 851 811 852 851 809 811 853 854 855 853 856 854 857 858 859 857 860 858 861 862 863 862 798 800 800 863 862 864 865 866 865 867 868 867 865 864 869 868 867 868 870 871 868 869 870 872 873 874 875 876 877 878 879 880 881 882 883 884 885 886 887 888 889 890 891 892 893 894 895 896 897 898 899 900 901 902 903 904 905 906 907 908 909 910 911 912 913 914 915 916 917 918 919 920 921 922 923 924 925 926 927 928 927 926 929 794 930 931 930 794 796 932 933 934 935 934 933 936 937 938 937 936 939 940 941 942 943 941 940 944 945 946 947 948 949 950 951 952 951 950 953</p></triangles>
<triangles material="m1" count="302"><input semantic="VERTEX" source="#g-v" offset="0"/><p>954 955 956 955 954 957 958 959 960 958 961 959 962 963 964 962 965 963 966 967 968 967 966 969 970 971 972 971 970 973 974 975 976 975 974 977 978 979 980 978 980 981 982 983 984 982 984 985 986 987 988 987 986 989 990 991 992 991 990 993 994 995 996 994 996 997 998 999 1000 1001 1002 1003 1004 1002 1001 1000 1002 1004 1002 999 1005 1002 1000 999 1006 999 998 1006 998 1007 999 1006 1008 1005 999 1009 1010 1011 1012 1013 1010 1012 1013 1014 1015 1012 1014 1013 1015 1016 1017 1014 1016 1015 1017 1018 1019 1018 1017 1016 1018 1020 1019 1020 1018 1021 1022 1021 1023 1021 1022 1020 1024 1025 1026 1025 1024 1027 1022 1028 1029 1023 1028 1022 1024 1030 1031 1026 1030 1024 1032 1027 1033 1027 1032 1025 1033 1028 1032 1028 1033 1029 1034 1035 1036 1034 1037 1035 1038 1039 1040 1039 1038 1041 1042 1043 1044 1042 1045 1043 1046 1047 1048 1047 1046 1049 1050 1051 1052 1050 1053 1051 1054 1055 1056 1055 1054 1057 1058 1059 1060 1059 1058 1061 1062 1063 1064 1062 1065 1063 1066 1067 1068 1067 1066 1069 1070 1071 1072 1071 1070 1073 1074 1075 1076 1074 1076 1077 1078 1079 1080 1078 1080 1081 1082 1083 1084 1085 1082 1086 1087 1088 1083 1087 1083 1089 1087 1089 1090 1091 1087 1092 1088 1087 1091 1083 1082 1085 1084 1083 1088 1084 1088 1093 1094 1095 1096 1097 1094 1096 1098 1099 1100 1101 1102 1103 1102 1101 1104 1105 1106 1107 1106 1105 1108 1094 1109 1095 1109 1094 1110 1104 1111 1102 1111 1104 1112 1107 1113 1105 1113 1107 1114 1115 1109 1110 1109 1115 1116 1111 1097 1096 1097 1111 1112 1098 1113 1114 1113 1098 1100 1099 1098 1117 1101 1103 1099 1117 1101 1099 1118 1119 1120 1118 1120 1121 1122 1123 1124 1122 1125 1123 1126 1127 1128 1126 1129 1127 1130 1131 1132 1130 1132 1133 1134 1135 1136 1134 1136 1137 1138 1139 1140 1138 1140 1141 1142 1143 1144 1143 1142 1145 1146 1147 1148 1147 1146 1149 1150 1151 1152 1150 1153 1151 1154 1155 1156 1155 1154 1157 1158 1159 1160 1159 1158 1161 1162 1163 1164 1162 1164 1165 1116 1106 1108 1106 1116 1115 1166 1167 1168 1169 1168 1167 1170 1171 1172 1173 1171 1170 1174 1175 1176 1175 1174 1177 1178 1179 1180 1179 1178 1181 1182 1183 1184 1184 1183 1185 1186 1187 1188 1187 1186 1189 1190 1191 1192 1191 1190 1193 1194 1195 1196 1195 1194 1197 1198 1199 1200 1199 1198 1201 1202 1203 1204 1203 1202 1205 1206 1207 1208 1209 1207 1206 1210 1211 1212 1210 1213 1211 1214 1215 1216 1214 1217 1215 1218 1219 1220 1218 1220 1221 1222 1223 1224 1222 1224 1225 1226 1227 1228 1227 1226 1229 1230 1231 1232 1230 1232 1233 1234 1235 1236 1234 1237 1235 1238 1239 1240 1239 1238 1241 1242 1243 1244 1242 1245 1243 1246 1247 1248 1246 1249 1247 1250 1251 1252 1251 1250 1253 1254 1255 1256 1254 1257 1255 1258 1259 1260 1259 1258 1261 1262 1263 1264 1265 1263 1262 1266 1267 1268 1269 1268 1267 1270 1271 1272 1273 1271 1270 1274 1275 1276 1276 1275 1277 1278 1279 1280 1279 1278 1281 1282 1283 1284 1283 1282 1285 1286 1287 1288 1289 1287 1286 1290 1291 1292 1291 1290 1293 1294 1295 1296 1295 1294 1297 1298 1299 1300 1299 1298 1301 1302 1303 1304 1305 1303 1302 1306 1307 1308 1306 1308 1309 1031 1011 1010 1011 1031 1030 1310 1311 1312 1311 1310 1313 1314 1315 1316 1315 1314 1317 1318 1319 1320 1319 1318 1321 1322 1323 1324 1323 1322 1325 1326 1327 1328 1327 1326 1329 1330 1331 1332 1331 1330 1333 1334 1335 1336 1335 1334 1337 1338 1339 1340 1339 1338 1341 1342 1343 1344 1343 1342 1345 1346 1347 1348 1347 1346 1349 1350 1351 1352 1351 1350 1353 1354 1355 1356 1355 1354 1357 1358 1359 1360 1359 1358 1361 1362 1363 1364 1363 1362 1365 1366 1367 1368 1367 1366 1369 1370 1371 1372 1371 1370 1373 1374 1375 1376 1375 1374 1377 1378 1379 1380 1379 1378 1381 1382 1383 1384 1383 1382 1385 1386 1387 1388 1387 1386 1389 1390 1391 1392 1391 1390 1393 1394 1395 1396 1395 1394 1397 1398 1399 1400 1399 1398 1401 1402 1403 1404 1403 1402 1405 1406 1407 1408 1407 1406 1409 1410 1411 1412 1411 1410 1413 1414 1415 1416 1415 1414 1417 1418 1419 1420 1418 1421 1419 1422 1423 1424 1423 1422 1425 1426 1427 1428 1427 1426 1429 1430 1431 1432 1431 1430 1433 1434 1435 1436 1434 1437 1435 1438 1439 1440 1438 1441 1439 1432 1431 1442 1443 1432 1442 1444 1445 1446 1444 1446 1447 1448 1449 1450 1449 1448 1451 1452 1453 1454 1453 1452 1455 1424 1451 1422 1451 1424 1449 1425 1456 1423 1456 1425 1457 1458 1459 1460 1460 1461 1458 1417 1462 1415 1462 1417 1463 1412 1433 1430 1412 1411 1433 1464 1465 1466 1464 1467 1465 1468 1469 1470 1469 1468 1471 1472 1473 1474 1473 1475 1471 1473 1471 1468 1475 1473 1472</p></triangles>
<triangles material="m2" count="180"><input semantic="VERTEX" source="#g-v" offset="0"/><p>1476 1477 1478 1479 1480 1481 1482 1483 1484 1485 1486 1487 1488 1489 1490 1489 1488 1491 1492 1493 1494 1493 1492 1495 1496 1497 1498 1497 1496 1499 1500 1501 1502 1503 1504 1505 1506 1507 1508 1509 1510 1511 1512 1513 1514 1513 1512 1515 1516 1517 1518 1517 1516 1519 1520 1521 1522 1521 1520 1523 1524 1525 1526 1525 1524 1527 1528 1529 1530 1531 1528 1530 1532 1533 1534 1535 1536 1537 1538 1539 1540 1541 1542 1543 1542 1541 1544 1545 1546 1547 1548 1549 1550 1551 1552 1553 1552 1551 1554 1555 1556 1557 1558 1557 1556 1559 1560 1561 1562 1563 1564 1565 1566 1567 1568 1569 1570 1571 1572 1573 1574 1571 1573 1575 1576 1577 1576 1575 1578 1579 1580 1581 1580 1579 1582 1583 1584 1585 1586 1587 1588 1589 1590 1591 1592 1593 1594 1595 1596 1597 1598 1599 1600 1601 1602 1603 1604 1605 1606 1607 1608 1609 1610 1611 1612 1611 1610 1613 1614 1615 1616 1615 1614 1617 1618 1619 1620 1619 1618 1621 1622 1623 1624 1623 1622 1625 1626 1627 1628 1629 1628 1627 1630 1631 1632 1631 1630 1633 1634 1635 1636 1635 1634 1637 1638 1639 1640 1639 1638 1641 1642 1643 1644 1643 1642 1645 1646 1647 1648 1647 1646 1649 1650 1651 1652 1651 1650 1653 1654 1655 1656 1655 1654 1657 1658 1659 1660 1661 1658 1660 1662 1663 1664 1663 1662 1665 1666 1667 1668 1669 1666 1668 1670 1671 1672 1671 1670 1673 1674 1675 1676 1677 1674 1676 1678 1679 1680 1679 1678 1681 1682 1683 1684 1685 1684 1683 1686 1687 1688 1687 1686 1689 1690 1691 1692 1691 1690 1693 1694 1695 1696 1695 1694 1697 1698 1699 1700 1701 1698 1700 1702 1703 1704 1703 1702 1705 1706 1707 1708 1707 1706 1709 1710 1711 1712 1711 1710 1713 1714 1715 1716 1715 1714 1717 1718 1719 1720 1719 1718 1721 1722 1723 1724 1723 1722 1725 1726 1727 1728 1727 1726 1729 1730 1731 1732 1731 1730 1733 1734 1735 1736 1737 1738 1739 1740 1737 1741 1740 1738 1737 1742 1738 1743 1735 1734 1744 1745 1746 1747 1746 1745 1748 1738 1740 1743 1749 1750 1751 1752 1753 1754 1750 1749 1755 1756 1753 1752 1757 1758 1759 1760 1755 1749 1760 1749 1761 1755 1760 1762 1758 1757 1763 1764 1765 1766 1764 1766 1767 1764 1767 1768 1765 1769 1770 1769 1765 1764 1771 1772 1773 1772 1771 1774 1775 1776 1777 1777 1776 1778 1779 1780 1781 1782 1783 1784 1782 1785 1783 1786 1787 1788 1787 1786 1789 1790 1780 1791 1780 1792 1793 1780 1779 1791 1792 1780 1790 1794 1795 1796 1795 1794 1797 1798 1799 1800 1801 1799 1798 1802 1803 1804 1805 1803 1802 1806 1807 1808 1809 1807 1806 1810 1811 1812 1810 1813 1811 1814 1815 1816 1815 1817 1818 1817 1815 1814 1819 1818 1817 1818 1819 1820 1818 1820 1821 1822 1823 1824 1823 1822 1825 1826 1827 1828 1827 1826 1829 1830 1831 1832 1830 1833 1831 1832 1831 1834 1833 1830 1835 1833 1835 1836 1836 1835 1837 1838 1839 1840 1841 1839 1838</p></triangles>
<triangles material="m3" count="288"><input semantic="VERTEX" source="#g-v" offset="0"/><p>0 1 2 3 4 5 6 7 8 7 6 9 10 11 12 13 10 12 14 15 16 17 18 19 20 21 22 21 20 23 24 25 26 24 26 27 28 29 30 31 32 33 34 35 36 37 38 39 40 41 42 41 40 43 44 45 46 44 47 45 48 49 50 51 52 53 54 55 56 57 58 59 60 61 62 61 60 63 64 65 66 67 64 66 68 69 70 71 69 68 72 73 74 73 72 75 76 77 78 79 77 76 80 81 82 83 84 85 86 13 12 86 12 87 88 89 90 89 88 91 92 91 88 92 88 93 94 86 95 87 95 86 96 95 97 94 95 96 98 92 93 92 98 99 100 101 102 103 101 100 104 105 106 107 108 109 110 66 111 110 67 66 112 113 114 113 112 115 73 112 74 73 115 112 71 110 69 111 69 110 116 117 118 117 116 119 120 119 116 119 120 121 122 123 124 125 124 123 125 126 127 126 125 123 128 129 130 128 130 131 132 133 134 133 132 135 135 136 137 135 137 133 138 129 139 129 138 130 140 141 113 140 113 115 142 143 144 143 142 145 145 146 147 145 147 143 148 140 73 115 73 140 149 150 92 149 92 99 151 152 153 152 151 154 155 156 157 158 159 160 161 103 100 162 161 100 163 164 165 166 167 168 118 169 170 169 118 117 171 172 127 126 171 127 173 174 175 176 177 178 138 179 180 179 138 139 181 136 182 136 181 137 183 184 185 186 187 188 189 190 191 192 193 194 195 89 91 195 196 89 197 198 199 198 197 200 152 200 153 152 198 200 150 195 92 91 92 195 201 73 75 73 201 148 146 202 147 202 146 203 204 205 206 207 208 209 210 79 76 211 210 76 212 61 63 61 212 213 214 215 216 217 218 219 220 142 144 220 144 221 141 222 113 113 223 114 113 224 223 224 113 222 225 41 43 225 226 41 227 228 229 230 231 232 233 234 235 236 237 238 239 240 44 47 44 240 241 242 21 241 21 23 243 244 245 246 247 248 249 250 251 252 253 254 255 256 24 25 24 256 257 7 9 258 7 257 259 260 261 262 263 264 199 265 197 199 266 265 196 267 89 89 268 269 89 269 90 268 89 267 270 271 272 273 274 275 276 277 278 279 280 281 282 134 283 132 134 282 131 284 128 284 131 285 286 121 120 121 286 287 288 289 290 291 292 293 294 295 296 297 298 299 300 122 124 122 300 301 302 303 304 305 302 304 306 307 308 307 306 309 310 311 312 311 310 313 314 315 316 314 317 315 318 319 320 321 322 323 324 325 326 325 324 327 328 329 330 329 328 331 332 333 334 335 336 337 338 339 340 341 342 343 344 345 346 344 347 345 348 349 350 351 352 353 354 355 356 357 358 359 360 357 359 361 362 363 362 361 364 365 366 367 368 365 367 369 370 371 372 369 371 373 374 375 376 373 375 377 378 379 380 381 382 383 384 385 386 387 388 389 390 391 392 393 394 395 396 397 398 399 400 401 402 403 404 401 355 404 402 401 402 404 405 406 307 309 407 406 309 407 309 306 407 408 406 409 410 411 412 410 409 413 414 415 416 417 418 419 420 421 420 419 422 423 424 425 426 427 428 356 355 403 403 355 401 317 429 315 317 430 429 402 431 432 431 402 405 433 434 435 433 436 434 437 438 439 440 441 442 443 444 445 446 447 448 449 450 451 452 453 454 455 456 457 456 455 458 459 460 461 462 463 464 465 466 467 468 469 470 390 471 391 390 472 471 473 474 475 476 477 478 479 377 379 377 479 480 481 482 483 483 484 481 485 486 487 488 487 486 489 490 491 490 489 492 312 493 494 493 312 311 308 307 495 496 497 498 499 496 498 372 371 500 501 372 500 368 367 502 502 503 368 305 304 504 505 305 504 307 406 506 364 495 307 364 506 362 506 364 307 407 507 408 507 407 508 509 363 510 363 509 361 355 511 404 355 354 366 511 355 366 365 511 366</p></triangles>
</mesh></geometry></library_geometries><library_visual_scenes><visual_scene id="Scene"><node id="n" name="shotgun"><instance_geometry url="#g"><bind_material><technique_common>
<instance_material symbol="m0" target="#m0"/>
<instance_material symbol="m1" target="#m1"/>
<instance_material symbol="m2" target="#m2"/>
<instance_material symbol="m3" target="#m3"/>
</technique_common></bind_material></instance_geometry></node></visual_scene></library_visual_scenes><scene><instance_visual_scene url="#Scene"/></scene></COLLADA>
