<?xml version="1.0" encoding="utf-8"?>
<COLLADA xmlns="http://www.collada.org/2005/11/COLLADASchema" version="1.4.1">
<asset><contributor><authoring_tool>VATs starter props (see CREDITS.md)</authoring_tool></contributor><unit name="meter" meter="1"/><up_axis>Z_UP</up_axis></asset>
<library_effects>
<effect id="m0-fx"><profile_COMMON><technique sid="common"><lambert><diffuse><color>0.420 0.490 0.580 1</color></diffuse></lambert></technique></profile_COMMON></effect>
<effect id="m1-fx"><profile_COMMON><technique sid="common"><lambert><diffuse><color>0.400 0.300 0.230 1</color></diffuse></lambert></technique></profile_COMMON></effect>
</library_effects><library_materials>
<material id="m0" name="m0"><instance_effect url="#m0-fx"/></material>
<material id="m1" name="m1"><instance_effect url="#m1-fx"/></material>
</library_materials><library_geometries><geometry id="g" name="sofa"><mesh>
<source id="g-p"><float_array id="g-p-a" count="630">0.34587 0.74751 0.61696 0.34587 0.74751 0.43 0.27109 0.74751 0.69174 -0.21468 0.74751 0.43 -0.21468 0.74751 0.69174 -0.21468 -0.8131 0.78522 -0.21468 -0.8131 0.69174 -0.38326 -0.8131 0.78522 -0.38326 -0.8131 0.69174 -0.21468 0.8131 0.78522 -0.21468 0.73832 0.86 -0.38326 0.8131 0.78522 -0.38326 0.73832 0.86 0.27109 0.74751 0.69174 -0.21468 0.74751 0.69174 0.27109 0.91609 0.69174 -0.21468 0.8131 0.69174 -0.38326 0.8131 0.69174 -0.38326 0.91609 0.69174 0.34587 0.91609 0.61696 0.34587 0.74751 0.61696 0.27109 0.91609 0.69174 0.27109 0.74751 0.69174 -0.21468 -0.73832 0.86 -0.38326 -0.73832 0.86 -0.21468 0.73832 0.86 -0.38326 0.73832 0.86 0.34587 0.91609 0.093478 0.34587 0.91609 0.61696 0.27109 0.91609 0.093478 0.27109 0.91609 0.69174 -0.30848 0.91609 0.093478 -0.38326 0.91609 0.69174 -0.38326 0.91609 0.093478 0.34587 -0.91609 0.61696 0.34587 -0.91609 0.093478 0.27109 -0.91609 0.69174 0.27109 -0.91609 0.093478 -0.38326 -0.91609 0.69174 -0.30848 -0.91609 0.093478 -0.38326 -0.91609 0.093478 -0.38326 -0.91609 0.093478 -0.38326 -0.8413 0.093478 -0.38326 -0.91609 0.69174 -0.38326 0.8413 0.093478 -0.38326 -0.8131 0.69174 -0.38326 0.91609 0.69174 -0.38326 0.91609 0.093478 -0.38326 0.8131 0.69174 -0.38326 -0.8131 0.78522 -0.38326 0.8131 0.78522 -0.38326 -0.73832 0.86 -0.38326 0.73832 0.86 -0.38326 -0.8413 0.093478 -0.30848 -0.8413 0.093478 -0.38326 0.8413 0.093478 0.27109 0.8413 0.093478 -0.30848 0.8413 0.093478 0.27109 0.91609 0.093478 -0.30848 0.91609 0.093478 0.34587 0.8413 0.093478 0.34587 -0.8413 0.093478 0.27109 -0.8413 0.093478 -0.30848 -0.91609 0.093478 0.27109 -0.91609 0.093478 0.38326 -0.74751 0.43 0.34587 -0.74751 0.43 0.38326 0.74751 0.43 -0.21468 -0.74751 0.43 -0.21468 0.74751 0.43 0.38326 0.74751 0.27074 0.38326 -0.74751 0.27074 0.38326 0.74751 0.43 0.38326 -0.74751 0.43 0.34587 -0.74751 0.27074 0.38326 -0.74751 0.27074 0.34587 0.74751 0.27074 0.38326 0.74751 0.27074 0.38326 0.74751 0.27074 0.38326 0.74751 0.43 0.34587 0.74751 0.27074 0.34587 0.74751 0.43 0.38326 -0.74751 0.43 0.38326 -0.74751 0.27074 0.34587 -0.74751 0.43 0.34587 -0.74751 0.27074 0.34587 0.91609 0.093478 0.34587 0.8413 0.093478 0.34587 0.91609 0.61696 0.34587 0.74751 0.27074 0.34587 0.74751 0.43 0.34587 0.74751 0.61696 0.34587 -0.74751 0.27074 0.34587 -0.91609 0.093478 0.34587 -0.91609 0.61696 0.34587 -0.74751 0.43 0.34587 -0.74751 0.61696 0.27109 -0.91609 0.69174 -0.38326 -0.91609 0.69174 0.27109 -0.74751 0.69174 -0.21468 -0.8131 0.69174 -0.21468 -0.74751 0.69174 -0.38326 -0.8131 0.69174 0.34587 -0.74751 0.61696 0.34587 -0.91609 0.61696 0.27109 -0.74751 0.69174 0.27109 -0.91609 0.69174 0.34587 -0.74751 0.43 0.34587 -0.74751 0.61696 -0.21468 -0.74751 0.43 0.27109 -0.74751 0.69174 -0.21468 -0.74751 0.69174 -0.21468 -0.73832 0.86 -0.21468 -0.8131 0.78522 -0.38326 -0.73832 0.86 -0.38326 -0.8131 0.78522 -0.21468 0.8131 0.69174 -0.21468 0.74751 0.69174 -0.21468 0.8131 0.78522 -0.21468 -0.74751 0.69174 -0.21468 -0.8131 0.69174 -0.21468 -0.8131 0.78522 -0.21468 0.73832 0.86 -0.21468 -0.73832 0.86 -0.21468 -0.74751 0.43 -0.21468 0.74751 0.43 -0.21468 0.8131 0.69174 -0.21468 0.8131 0.78522 -0.38326 0.8131 0.69174 -0.38326 0.8131 0.78522 0.34587 0.91609 0.093478 0.27109 0.91609 0.093478 -0.30848 0.91609 0.093478 -0.38326 0.91609 0.093478 0.34587 -0.91609 0.093478 0.27109 -0.91609 0.093478 -0.30848 -0.91609 0.093478 -0.38326 -0.91609 0.093478 -0.38326 -0.91609 0.093478 -0.38326 -0.8413 0.093478 -0.38326 0.8413 0.093478 -0.38326 0.91609 0.093478 0.34587 0.91609 0.093478 0.34587 0.8413 0.093478 0.34587 -0.91609 0.093478 0.34587 -0.8413 0.093478 -0.38326 0.8413 1.6871e-16 -0.30848 0.8413 1.6871e-16 -0.38326 0.91609 1.6871e-16 -0.30848 0.91609 1.6871e-16 -0.38326 0.8413 1.6871e-16 -0.38326 0.91609 1.6871e-16 -0.30848 0.91609 1.6871e-16 -0.38326 0.91609 1.6871e-16 -0.30848 0.91609 1.6871e-16 -0.30848 0.8413 1.6871e-16 -0.30848 0.91609 0.093478 -0.30848 0.8413 0.093478 -0.30848 0.8413 0.093478 -0.30848 0.8413 1.6871e-16 -0.38326 0.8413 0.093478 -0.38326 0.8413 1.6871e-16 0.34587 0.91609 0 0.34587 0.8413 0 -0.30848 -0.8413 1.6871e-16 -0.30848 -0.91609 1.6871e-16 -0.30848 -0.8413 0.093478 -0.30848 -0.91609 0.093478 -0.30848 -0.91609 1.6871e-16 -0.38326 -0.91609 1.6871e-16 0.27109 -0.91609 0 0.34587 -0.91609 0 0.27109 -0.8413 0 0.34587 -0.8413 0 0.34587 0.8413 0.093478 0.34587 0.8413 0 0.27109 0.8413 0.093478 0.27109 0.8413 0 0.34587 -0.91609 0 0.27109 -0.91609 0 0.27109 0.8413 0 0.27109 0.91609 0 0.27109 0.8413 0.093478 0.27109 0.91609 0.093478 0.27109 -0.91609 0 0.27109 -0.8413 0 0.27109 -0.91609 0.093478 0.27109 -0.8413 0.093478 0.34587 -0.8413 0 0.34587 -0.8413 0.093478 0.27109 -0.8413 0 0.27109 -0.8413 0.093478 0.34587 0.91609 0 0.27109 0.91609 0 0.27109 0.8413 0 0.34587 0.8413 0 0.27109 0.91609 0 0.34587 0.91609 0 -0.38326 -0.91609 1.6871e-16 -0.38326 -0.8413 1.6871e-16 -0.30848 -0.8413 1.6871e-16 -0.30848 -0.8413 0.093478 -0.38326 -0.8413 1.6871e-16 -0.38326 -0.8413 0.093478 -0.38326 -0.91609 1.6871e-16 -0.30848 -0.91609 1.6871e-16 -0.38326 -0.8413 1.6871e-16 -0.30848 -0.8413 1.6871e-16 0.34587 -0.8413 0 0.34587 -0.91609 0</float_array><technique_common><accessor source="#g-p-a" count="210" stride="3"><param name="X" type="float"/><param name="Y" type="float"/><param name="Z" type="float"/></accessor></technique_common></source>
<source id="g-n"><float_array id="g-n-a" count="630">0 -1 0 0 -1 0 0 -1 0 0 -1 0 0 -1 0 0 -1 0 0 -1 0 0 -1 0 0 -1 0 0 0.70711 0.70711 0 0.70711 0.70711 0 0.70711 0.70711 0 0.70711 0.70711 0 0 1 0 0 1 0 0 1 0 0 1 0 0 1 0 0 1 0.70711 0 0.70711 0.70711 0 0.70711 0.70711 0 0.70711 0.70711 0 0.70711 0 0 1 0 0 1 0 0 1 0 0 1 0 1 0 0 1 0 0 1 0 0 1 0 0 1 0 0 1 0 0 1 0 0 -1 0 0 -1 0 0 -1 0 -6.8627e-16 -1 -7.5061e-16 -1.3079e-15 -1 -1.6538e-15 -1.5707e-15 -1 -3.0163e-15 0 -1 -2.82e-15 -1 0 0 -1 0 0 -1 0 0 -1 0 0 -1 0 0 -1 0 0 -1 0 0 -1 0 0 -1 0 0 -1 0 0 -1 0 0 -1 0 0 0 0 -1 0 0 -1 0 0 -1 0 0 -1 0 0 -1 0 0 -1 0 0 -1 0 0 -1 0 0 -1 0 0 -1 0 0 -1 0 0 -1 0 0 1 0 0 1 0 0 1 0 0 1 0 0 1 1 0 0 1 0 0 1 0 0 1 0 0 0 0 -1 0 0 -1 0 0 -1 0 0 -1 0 1 0 0 1 0 0 1 0 0 1 0 0 -1 0 0 -1 0 0 -1 0 0 -1 0 1 0 0 1 0 0 1 0 0 1 0 0 1 0 0 1 0 0 1 0 0 1 0 0 1 0 0 1 0 0 1 0 0 0 0 1 0 0 1 0 0 1 0 0 1 0 0 1 0 0 1 0.70711 0 0.70711 0.70711 0 0.70711 0.70711 0 0.70711 0.70711 0 0.70711 0 1 0 0 1 0 0 1 0 0 1 0 0 1 0 0 -0.70711 0.70711 0 -0.70711 0.70711 0 -0.70711 0.70711 0 -0.70711 0.70711 1 0 0 1 0 0 1 0 0 1 0 0 1 0 0 1 0 0 1 0 0 1 0 0 1 0 0 1 0 0 0 1 0 0 1 0 0 1 0 0 1 0 0 1 0 0 1 0 0 1 0 0 1 0 0 -1 0 0 -1 0 0 -1 0 0 -1 0 -1 0 0 -1 0 0 -1 0 0 -1 0 0 1 0 0 1 0 0 1 0 0 1 0 0 0 0 -1 0 0 -1 0 0 -1 0 0 -1 -1 0 0 -1 0 0 0 1 0 0 1 0 1 0 0 1 0 0 1 0 0 1 0 0 0 -1 0 0 -1 0 0 -1 0 0 -1 0 1 0 0 1 0 0 1 0 0 1 0 0 1 0 0 1 0 0 0 -1 0 0 -1 0 0 0 -1 0 0 -1 0 0 -1 0 0 -1 0 -1 0 0 -1 0 0 -1 0 0 -1 0 0 -1 0 0 -1 0 -1 0 0 -1 0 0 -1 0 0 -1 0 0 -1 0 0 -1 0 0 -1 0 0 -1 0 0 0 1 0 0 1 0 0 1 0 0 1 0 0 1 0 0 1 0 0 0 -1 0 0 -1 0 0 -1 0 0 -1 -1 0 0 -1 0 0 0 1 0 0 1 0 0 1 0 0 1 0 0 0 -1 0 0 -1 0 0 -1 0 0 -1 1 0 0 1 0 0</float_array><technique_common><accessor source="#g-n-a" count="210" stride="3"><param name="X" type="float"/><param name="Y" type="float"/><param name="Z" type="float"/></accessor></technique_common></source>
<vertices id="g-v"><input semantic="POSITION" source="#g-p"/><input semantic="NORMAL" source="#g-n"/></vertices>
<triangles material="m0" count="83"><input semantic="VERTEX" source="#g-v" offset="0"/><p>2 1 0 1 2 3 3 2 4 7 6 5 6 7 8 11 10 9 10 11 12 15 14 13 14 15 16 16 15 17 17 15 18 21 20 19 20 21 22 25 24 23 24 25 26 29 28 27 28 29 30 30 29 31 30 31 32 32 31 33 36 35 34 35 36 37 37 36 38 37 38 39 39 38 40 43 42 41 42 43 44 44 43 45 46 44 45 44 46 47 49 48 45 48 49 50 50 49 51 50 51 52 55 54 53 54 55 56 56 57 58 58 57 59 60 54 56 61 54 60 62 63 54 63 62 64 67 66 65 66 67 68 68 67 69 72 71 70 71 72 73 76 75 74 75 76 77 80 79 78 79 80 81 84 83 82 83 84 85 88 87 86 87 88 89 89 88 90 90 88 91 92 87 89 93 87 92 93 92 94 94 92 95 94 95 96 99 98 97 98 99 100 100 99 101 102 98 100 105 104 103 104 105 106 109 108 107 108 109 110 110 109 111 114 113 112 113 114 115 118 117 116 117 118 119 119 118 120 120 118 121 121 118 122 121 122 123 124 117 119 117 124 125 128 127 126 127 128 129</p></triangles>
<triangles material="m1" count="40"><input semantic="VERTEX" source="#g-v" offset="0"/><p>148 147 146 147 148 149 140 151 150 151 140 141 153 132 152 132 153 133 156 155 154 155 156 157 160 159 158 159 160 161 142 163 162 163 142 143 166 165 164 165 166 167 137 168 136 168 137 169 172 171 170 171 172 173 176 175 174 175 176 177 135 178 134 178 135 179 182 181 180 181 182 183 186 185 184 185 186 187 190 189 188 189 190 191 193 130 192 130 193 131 196 195 194 195 196 197 138 199 198 199 138 139 202 201 200 201 202 203 206 205 204 205 206 207 145 209 208 209 145 144</p></triangles>
</mesh></geometry></library_geometries><library_visual_scenes><visual_scene id="Scene"><node id="n" name="sofa"><instance_geometry url="#g"><bind_material><technique_common>
<instance_material symbol="m0" target="#m0"/>
<instance_material symbol="m1" target="#m1"/>
</technique_common></bind_material></instance_geometry></node></visual_scene></library_visual_scenes><scene><instance_visual_scene url="#Scene"/></scene></COLLADA>
