<?xml version="1.0" encoding="utf-8"?>
<COLLADA xmlns="http://www.collada.org/2005/11/COLLADASchema" version="1.4.1">
<asset><contributor><authoring_tool>VATs starter props (see CREDITS.md)</authoring_tool></contributor><unit name="meter" meter="1"/><up_axis>Z_UP</up_axis></asset>
<library_effects>
<effect id="m0-fx"><profile_COMMON><technique sid="common"><lambert><diffuse><color>0.620 0.660 0.710 1</color></diffuse></lambert></technique></profile_COMMON></effect>
<effect id="m1-fx"><profile_COMMON><technique sid="common"><lambert><diffuse><color>0.360 0.390 0.430 1</color></diffuse></lambert></technique></profile_COMMON></effect>
<effect id="m2-fx"><profile_COMMON><technique sid="common"><lambert><diffuse><color>0.620 0.470 0.340 1</color></diffuse></lambert></technique></profile_COMMON></effect>
</library_effects><library_materials>
<material id="m0" name="m0"><instance_effect url="#m0-fx"/></material>
<material id="m1" name="m1"><instance_effect url="#m1-fx"/></material>
<material id="m2" name="m2"><instance_effect url="#m2-fx"/></material>
</library_materials><library_geometries><geometry id="g" name="spear"><mesh>
<source id="g-p"><float_array id="g-p-a" count="723">0.0111 0.0046 -0.8 0.0046 0.0111 -0.8 0.0061 0.0148 -0.765 0.0148 0.0061 -0.765 0.0046 0.0111 -0.8 -0.0046 0.0111 -0.8 -0.0061 0.0148 -0.765 0.0061 0.0148 -0.765 -0.0046 0.0111 -0.8 -0.0111 0.0046 -0.8 -0.0148 0.0061 -0.765 -0.0061 0.0148 -0.765 -0.0111 0.0046 -0.8 -0.0111 -0.0046 -0.8 -0.0148 -0.0061 -0.765 -0.0148 0.0061 -0.765 -0.0111 -0.0046 -0.8 -0.0046 -0.0111 -0.8 -0.0061 -0.0148 -0.765 -0.0148 -0.0061 -0.765 -0.0046 -0.0111 -0.8 0.0046 -0.0111 -0.8 0.0061 -0.0148 -0.765 -0.0061 -0.0148 -0.765 0.0046 -0.0111 -0.8 0.0111 -0.0046 -0.8 0.0148 -0.0061 -0.765 0.0061 -0.0148 -0.765 0.0111 -0.0046 -0.8 0.0111 0.0046 -0.8 0.0148 0.0061 -0.765 0.0148 -0.0061 -0.765 0 0 -0.8 0.0046 0.0111 -0.8 0.0111 0.0046 -0.8 -0.0046 0.0111 -0.8 -0.0111 0.0046 -0.8 -0.0111 -0.0046 -0.8 -0.0046 -0.0111 -0.8 0.0046 -0.0111 -0.8 0.0111 -0.0046 -0.8 0 0 -0.765 0.0148 0.0061 -0.765 0.0061 0.0148 -0.765 -0.0061 0.0148 -0.765 -0.0148 0.0061 -0.765 -0.0148 -0.0061 -0.765 -0.0061 -0.0148 -0.765 0.0061 -0.0148 -0.765 0.0148 -0.0061 -0.765 0.0139 0.0057 -0.765 0.0057 0.0139 -0.765 0.0057 0.0139 0.9 0.0139 0.0057 0.9 0.0057 0.0139 -0.765 -0.0057 0.0139 -0.765 -0.0057 0.0139 0.9 0.0057 0.0139 0.9 -0.0057 0.0139 -0.765 -0.0139 0.0057 -0.765 -0.0139 0.0057 0.9 -0.0057 0.0139 0.9 -0.0139 0.0057 -0.765 -0.0139 -0.0057 -0.765 -0.0139 -0.0057 0.9 -0.0139 0.0057 0.9 -0.0139 -0.0057 -0.765 -0.0057 -0.0139 -0.765 -0.0057 -0.0139 0.9 -0.0139 -0.0057 0.9 -0.0057 -0.0139 -0.765 0.0057 -0.0139 -0.765 0.0057 -0.0139 0.9 -0.0057 -0.0139 0.9 0.0057 -0.0139 -0.765 0.0139 -0.0057 -0.765 0.0139 -0.0057 0.9 0.0057 -0.0139 0.9 0.0139 -0.0057 -0.765 0.0139 0.0057 -0.765 0.0139 0.0057 0.9 0.0139 -0.0057 0.9 0.0148 0.0061 0.9 0.0061 0.0148 0.9 0.0073 0.0176 0.92 0.0176 0.0073 0.92 0.0061 0.0148 0.9 -0.0061 0.0148 0.9 -0.0073 0.0176 0.92 0.0073 0.0176 0.92 -0.0061 0.0148 0.9 -0.0148 0.0061 0.9 -0.0176 0.0073 0.92 -0.0073 0.0176 0.92 -0.0148 0.0061 0.9 -0.0148 -0.0061 0.9 -0.0176 -0.0073 0.92 -0.0176 0.0073 0.92 -0.0148 -0.0061 0.9 -0.0061 -0.0148 0.9 -0.0073 -0.0176 0.92 -0.0176 -0.0073 0.92 -0.0061 -0.0148 0.9 0.0061 -0.0148 0.9 0.0073 -0.0176 0.92 -0.0073 -0.0176 0.92 0.0061 -0.0148 0.9 0.0148 -0.0061 0.9 0.0176 -0.0073 0.92 0.0073 -0.0176 0.92 0.0148 -0.0061 0.9 0.0148 0.0061 0.9 0.0176 0.0073 0.92 0.0176 -0.0073 0.92 0.0176 0.0073 0.92 0.0073 0.0176 0.92 0.0054 0.0129 1 0.0129 0.0054 1 0.0073 0.0176 0.92 -0.0073 0.0176 0.92 -0.0054 0.0129 1 0.0054 0.0129 1 -0.0073 0.0176 0.92 -0.0176 0.0073 0.92 -0.0129 0.0054 1 -0.0054 0.0129 1 -0.0176 0.0073 0.92 -0.0176 -0.0073 0.92 -0.0129 -0.0054 1 -0.0129 0.0054 1 -0.0176 -0.0073 0.92 -0.0073 -0.0176 0.92 -0.0054 -0.0129 1 -0.0129 -0.0054 1 -0.0073 -0.0176 0.92 0.0073 -0.0176 0.92 0.0054 -0.0129 1 -0.0054 -0.0129 1 0.0073 -0.0176 0.92 0.0176 -0.0073 0.92 0.0129 -0.0054 1 0.0054 -0.0129 1 0.0176 -0.0073 0.92 0.0176 0.0073 0.92 0.0129 0.0054 1 0.0129 -0.0054 1 0 0 0.9 0.0061 0.0148 0.9 0.0148 0.0061 0.9 -0.0061 0.0148 0.9 -0.0148 0.0061 0.9 -0.0148 -0.0061 0.9 -0.0061 -0.0148 0.9 0.0061 -0.0148 0.9 0.0148 -0.0061 0.9 0 0 1 0.0129 0.0054 1 0.0054 0.0129 1 -0.0054 0.0129 1 -0.0129 0.0054 1 -0.0129 -0.0054 1 -0.0054 -0.0129 1 0.0054 -0.0129 1 0.0129 -0.0054 1 0.008 0 1 0 0.01 1 0 0.04 1.06 0.008 0 1 0 0.04 1.06 0.009 0 1.06 0 0.01 1 -0.008 0 1 -0.009 0 1.06 0 0.01 1 -0.009 0 1.06 0 0.04 1.06 -0.008 0 1 0 -0.01 1 0 -0.04 1.06 -0.008 0 1 0 -0.04 1.06 -0.009 0 1.06 0 -0.01 1 0.008 0 1 0.009 0 1.06 0 -0.01 1 0.009 0 1.06 0 -0.04 1.06 0.009 0 1.06 0 0.04 1.06 0 0.034 1.13 0.009 0 1.06 0 0.034 1.13 0.008 0 1.13 0 0.04 1.06 -0.009 0 1.06 -0.008 0 1.13 0 0.04 1.06 -0.008 0 1.13 0 0.034 1.13 -0.009 0 1.06 0 -0.04 1.06 0 -0.034 1.13 -0.009 0 1.06 0 -0.034 1.13 -0.008 0 1.13 0 -0.04 1.06 0.009 0 1.06 0.008 0 1.13 0 -0.04 1.06 0.008 0 1.13 0 -0.034 1.13 0.008 0 1.13 0 0.034 1.13 0 0.0005 1.2 0.008 0 1.13 0 0.0005 1.2 0.0005 0 1.2 0 0.034 1.13 -0.008 0 1.13 -0.0005 0 1.2 0 0.034 1.13 -0.0005 0 1.2 0 0.0005 1.2 -0.008 0 1.13 0 -0.034 1.13 0 -0.0005 1.2 -0.008 0 1.13 0 -0.0005 1.2 -0.0005 0 1.2 0 -0.034 1.13 0.008 0 1.13 0.0005 0 1.2 0 -0.034 1.13 0.0005 0 1.2 0 -0.0005 1.2 0 0 1 0 0.01 1 0.008 0 1 -0.008 0 1 0 -0.01 1</float_array><technique_common><accessor source="#g-p-a" count="241" stride="3"><param name="X" type="float"/><param name="Y" type="float"/><param name="Z" type="float"/></accessor></technique_common></source>
<source id="g-n"><float_array id="g-n-a" count="723">0.703 0.703 -0.105 0.703 0.703 -0.105 0.703 0.703 -0.105 0.703 0.703 -0.105 0 0.994 -0.105 0 0.994 -0.105 0 0.994 -0.105 0 0.994 -0.105 -0.703 0.703 -0.105 -0.703 0.703 -0.105 -0.703 0.703 -0.105 -0.703 0.703 -0.105 -0.994 0 -0.105 -0.994 0 -0.105 -0.994 0 -0.105 -0.994 0 -0.105 -0.703 -0.703 -0.105 -0.703 -0.703 -0.105 -0.703 -0.703 -0.105 -0.703 -0.703 -0.105 0 -0.994 -0.105 0 -0.994 -0.105 0 -0.994 -0.105 0 -0.994 -0.105 0.703 -0.703 -0.105 0.703 -0.703 -0.105 0.703 -0.703 -0.105 0.703 -0.703 -0.105 0.994 0 -0.105 0.994 0 -0.105 0.994 0 -0.105 0.994 0 -0.105 0 0 -1 0 0 -1 0 0 -1 0 0 -1 0 0 -1 0 0 -1 0 0 -1 0 0 -1 0 0 -1 0 0 1 0 0 1 0 0 1 0 0 1 0 0 1 0 0 1 0 0 1 0 0 1 0 0 1 0.707 0.707 0 0.707 0.707 0 0.707 0.707 0 0.707 0.707 0 0 1 0 0 1 0 0 1 0 0 1 0 -0.707 0.707 0 -0.707 0.707 0 -0.707 0.707 0 -0.707 0.707 0 -1 0 0 -1 0 0 -1 0 0 -1 0 0 -0.707 -0.707 0 -0.707 -0.707 0 -0.707 -0.707 0 -0.707 -0.707 0 0 -1 0 0 -1 0 0 -1 0 0 -1 0 0.707 -0.707 0 0.707 -0.707 0 0.707 -0.707 0 0.707 -0.707 0 1 0 0 1 0 0 1 0 0 1 0 0 0.7 0.7 -0.137 0.7 0.7 -0.137 0.7 0.7 -0.137 0.7 0.7 -0.137 0 0.991 -0.137 0 0.991 -0.137 0 0.991 -0.137 0 0.991 -0.137 -0.7 0.7 -0.137 -0.7 0.7 -0.137 -0.7 0.7 -0.137 -0.7 0.7 -0.137 -0.991 0 -0.137 -0.991 0 -0.137 -0.991 0 -0.137 -0.991 0 -0.137 -0.7 -0.7 -0.137 -0.7 -0.7 -0.137 -0.7 -0.7 -0.137 -0.7 -0.7 -0.137 0 -0.991 -0.137 0 -0.991 -0.137 0 -0.991 -0.137 0 -0.991 -0.137 0.7 -0.7 -0.137 0.7 -0.7 -0.137 0.7 -0.7 -0.137 0.7 -0.7 -0.137 0.991 0 -0.137 0.991 0 -0.137 0.991 0 -0.137 0.991 0 -0.137 0.706 0.706 0.058 0.706 0.706 0.058 0.706 0.706 0.058 0.706 0.706 0.058 0 0.998 0.058 0 0.998 0.058 0 0.998 0.058 0 0.998 0.058 -0.706 0.706 0.058 -0.706 0.706 0.058 -0.706 0.706 0.058 -0.706 0.706 0.058 -0.998 0 0.058 -0.998 0 0.058 -0.998 0 0.058 -0.998 0 0.058 -0.706 -0.706 0.058 -0.706 -0.706 0.058 -0.706 -0.706 0.058 -0.706 -0.706 0.058 0 -0.998 0.058 0 -0.998 0.058 0 -0.998 0.058 0 -0.998 0.058 0.706 -0.706 0.058 0.706 -0.706 0.058 0.706 -0.706 0.058 0.706 -0.706 0.058 0.998 0 0.058 0.998 0 0.058 0.998 0 0.058 0.998 0 0.058 0 0 -1 0 0 -1 0 0 -1 0 0 -1 0 0 -1 0 0 -1 0 0 -1 0 0 -1 0 0 -1 0 0 1 0 0 1 0 0 1 0 0 1 0 0 1 0 0 1 0 0 1 0 0 1 0 0 1 0.745 0.596 -0.298 0.745 0.596 -0.298 0.745 0.596 -0.298 0.975 0.219 -0.016 0.975 0.219 -0.016 0.975 0.219 -0.016 -0.781 0.625 -0.013 -0.781 0.625 -0.013 -0.781 0.625 -0.013 -0.97 0.218 -0.109 -0.97 0.218 -0.109 -0.97 0.218 -0.109 -0.745 -0.596 -0.298 -0.745 -0.596 -0.298 -0.745 -0.596 -0.298 -0.975 -0.219 -0.016 -0.975 -0.219 -0.016 -0.975 -0.219 -0.016 0.781 -0.625 -0.013 0.781 -0.625 -0.013 0.781 -0.625 -0.013 0.97 -0.218 -0.109 0.97 -0.218 -0.109 0.97 -0.218 -0.109 0.975 0.219 0.019 0.975 0.219 0.019 0.975 0.219 0.019 0.973 0.229 0.014 0.973 0.229 0.014 0.973 0.229 0.014 -0.976 0.219 0.014 -0.976 0.219 0.014 -0.976 0.219 0.014 -0.973 0.229 0.02 -0.973 0.229 0.02 -0.973 0.229 0.02 -0.975 -0.219 0.019 -0.975 -0.219 0.019 -0.975 -0.219 0.019 -0.973 -0.229 0.014 -0.973 -0.229 0.014 -0.973 -0.229 0.014 0.976 -0.219 0.014 0.976 -0.219 0.014 0.976 -0.219 0.014 0.973 -0.229 0.02 0.973 -0.229 0.02 0.973 -0.229 0.02 0.968 0.228 0.109 0.968 0.228 0.109 0.968 0.228 0.109 0.705 0.705 0.076 0.705 0.705 0.076 0.705 0.705 0.076 -0.968 0.228 0.104 -0.968 0.228 0.104 -0.968 0.228 0.104 -0.67 0.67 0.321 -0.67 0.67 0.321 -0.67 0.67 0.321 -0.968 -0.228 0.109 -0.968 -0.228 0.109 -0.968 -0.228 0.109 -0.705 -0.705 0.076 -0.705 -0.705 0.076 -0.705 -0.705 0.076 0.968 -0.228 0.104 0.968 -0.228 0.104 0.968 -0.228 0.104 0.67 -0.67 0.321 0.67 -0.67 0.321 0.67 -0.67 0.321 0 0 -1 0 0 -1 0 0 -1 0 0 -1 0 0 -1</float_array><technique_common><accessor source="#g-n-a" count="241" stride="3"><param name="X" type="float"/><param name="Y" type="float"/><param name="Z" type="float"/></accessor></technique_common></source>
<vertices id="g-v"><input semantic="POSITION" source="#g-p"/><input semantic="NORMAL" source="#g-n"/></vertices>
<triangles material="m0" count="28"><input semantic="VERTEX" source="#g-v" offset="0"/><p>164 165 166 167 168 169 170 171 172 173 174 175 176 177 178 179 180 181 182 183 184 185 186 187 188 189 190 191 192 193 194 195 196 197 198 199 200 201 202 203 204 205 206 207 208 209 210 211 212 213 214 215 216 217 218 219 220 221 222 223 224 225 226 227 228 229 230 231 232 233 234 235 236 237 238 236 239 237 236 240 239 236 238 240</p></triangles>
<triangles material="m1" count="80"><input semantic="VERTEX" source="#g-v" offset="0"/><p>0 1 2 0 2 3 4 5 6 4 6 7 8 9 10 8 10 11 12 13 14 12 14 15 16 17 18 16 18 19 20 21 22 20 22 23 24 25 26 24 26 27 28 29 30 28 30 31 32 33 34 32 35 33 32 36 35 32 37 36 32 38 37 32 39 38 32 40 39 32 34 40 41 42 43 41 43 44 41 44 45 41 45 46 41 46 47 41 47 48 41 48 49 41 49 42 82 83 84 82 84 85 86 87 88 86 88 89 90 91 92 90 92 93 94 95 96 94 96 97 98 99 100 98 100 101 102 103 104 102 104 105 106 107 108 106 108 109 110 111 112 110 112 113 114 115 116 114 116 117 118 119 120 118 120 121 122 123 124 122 124 125 126 127 128 126 128 129 130 131 132 130 132 133 134 135 136 134 136 137 138 139 140 138 140 141 142 143 144 142 144 145 146 147 148 146 149 147 146 150 149 146 151 150 146 152 151 146 153 152 146 154 153 146 148 154 155 156 157 155 157 158 155 158 159 155 159 160 155 160 161 155 161 162 155 162 163 155 163 156</p></triangles>
<triangles material="m2" count="16"><input semantic="VERTEX" source="#g-v" offset="0"/><p>50 51 52 50 52 53 54 55 56 54 56 57 58 59 60 58 60 61 62 63 64 62 64 65 66 67 68 66 68 69 70 71 72 70 72 73 74 75 76 74 76 77 78 79 80 78 80 81</p></triangles>
</mesh></geometry></library_geometries><library_visual_scenes><visual_scene id="Scene"><node id="n" name="spear"><instance_geometry url="#g"><bind_material><technique_common>
<instance_material symbol="m0" target="#m0"/>
<instance_material symbol="m1" target="#m1"/>
<instance_material symbol="m2" target="#m2"/>
</technique_common></bind_material></instance_geometry></node></visual_scene></library_visual_scenes><scene><instance_visual_scene url="#Scene"/></scene></COLLADA>
