<?xml version="1.0" encoding="utf-8"?>
<COLLADA xmlns="http://www.collada.org/2005/11/COLLADASchema" version="1.4.1">
<asset><contributor><authoring_tool>VATs starter props (see CREDITS.md)</authoring_tool></contributor><unit name="meter" meter="1"/><up_axis>Z_UP</up_axis></asset>
<library_effects>
<effect id="m0-fx"><profile_COMMON><technique sid="common"><lambert><diffuse><color>0.620 0.470 0.340 1</color></diffuse></lambert></technique></profile_COMMON></effect>
</library_effects><library_materials>
<material id="m0" name="m0"><instance_effect url="#m0-fx"/></material>
</library_materials><library_geometries><geometry id="g" name="staff"><mesh>
<source id="g-p"><float_array id="g-p-a" count="1284">0.028821 0 -0.9712 0.012169 -0.016337 -0.99 0.019687 0.001814 -0.99 0.017032 -0.028462 -0.9712 -0.024132 0.019965 -0.99 -0.01143 0.040252 -0.9712 -0.0059816 0.027483 -0.99 -0.039892 0.028462 -0.9712 -0.01143 -0.040252 -0.9712 -0.039892 -0.028462 -0.9712 -0.024132 -0.016337 -0.99 -0.0059816 -0.023855 -0.99 0.012169 0.019965 -0.99 0.028821 0 -0.9712 0.019687 0.001814 -0.99 0.017032 0.028462 -0.9712 0.017032 -0.028462 -0.9712 -0.01143 -0.040252 -0.9712 -0.0059816 -0.023855 -0.99 0.012169 -0.016337 -0.99 -0.0059816 0.027483 -0.99 0.017032 0.028462 -0.9712 0.012169 0.019965 -0.99 -0.01143 0.040252 -0.9712 -0.039892 0.028462 -0.9712 -0.031651 0.001814 -0.99 -0.051682 0 -0.9712 -0.024132 0.019965 -0.99 -0.024132 -0.016337 -0.99 0.012169 -0.016337 -0.99 -0.0059816 -0.023855 -0.99 -0.024132 0.019965 -0.99 0.012169 0.019965 -0.99 0.019687 0.001814 -0.99 -0.031651 0.001814 -0.99 -0.0059816 0.027483 -0.99 0.010921 0.048203 0.37052 0.02268 0.034085 0.40571 0.045006 0.034085 0.37052 -0.010037 0.048203 0.39902 0.02268 -0.034085 0.40571 -0.010037 -0.048203 0.39902 0.010921 -0.048203 0.37052 0.045006 -0.034085 0.37052 0.02268 0.034085 0.40571 0.036232 0 0.40848 0.059124 0 0.37052 0.045006 0.034085 0.37052 -0.023164 -0.034085 0.37052 0.010921 -0.048203 0.37052 -0.010037 -0.048203 0.39902 -0.042755 -0.034085 0.39233 -0.023164 0.034085 0.37052 -0.010037 0.048203 0.39902 0.010921 0.048203 0.37052 -0.042755 0.034085 0.39233 0.059124 0 0.37052 0.02268 -0.034085 0.40571 0.045006 -0.034085 0.37052 0.036232 0 0.40848 -0.056307 0 0.38956 -0.023164 -0.034085 0.37052 -0.042755 -0.034085 0.39233 -0.037282 0 0.37052 -0.023164 0.034085 0.37052 -0.056307 0 0.38956 -0.042755 0.034085 0.39233 -0.037282 0 0.37052 0.15783 0 0.5227 0.043203 0.013027 0.5271 0.04463 0 0.53231 0.16657 0.027262 0.51555 0.16657 -0.027262 0.51555 0.039761 -0.018424 0.51454 0.18768 -0.038554 0.4983 0.043203 -0.013027 0.5271 0.034891 0 0.49677 0.20878 -0.027262 0.48104 0.036317 -0.013027 0.50197 0.21753 0 0.4739 0.20878 0.027262 0.48104 0.034891 0 0.49677 0.036317 0.013027 0.50197 0.21753 0 0.4739 0.16657 0.027262 0.51555 0.039761 0.018424 0.51454 0.043203 0.013027 0.5271 0.18768 0.038554 0.4983 0.043203 -0.013027 0.5271 0.15783 0 0.5227 0.04463 0 0.53231 0.16657 -0.027262 0.51555 0.18768 -0.038554 0.4983 0.036317 -0.013027 0.50197 0.20878 -0.027262 0.48104 0.039761 -0.018424 0.51454 0.036317 0.013027 0.50197 0.04463 0 0.53231 0.043203 0.013027 0.5271 0.039761 0.018424 0.51454 0.034891 0 0.49677 0.043203 -0.013027 0.5271 0.036317 -0.013027 0.50197 0.039761 -0.018424 0.51454 0.18263 0.04676 0.70343 0.20878 0.027262 0.48104 0.18768 0.038554 0.4983 0.20478 0.033064 0.72797 0.16657 0.027262 0.51555 0.15129 0 0.66872 0.16047 0.033064 0.67889 0.15783 0 0.5227 0.18768 -0.038554 0.4983 0.16047 -0.033064 0.67889 0.16657 -0.027262 0.51555 0.18263 -0.04676 0.70343 0.21753 0 0.4739 0.20478 -0.033064 0.72797 0.20878 -0.027262 0.48104 0.21396 0 0.73814 0.20478 0.033064 0.72797 0.21753 0 0.4739 0.20878 0.027262 0.48104 0.21396 0 0.73814 0.16047 0.033064 0.67889 0.18768 0.038554 0.4983 0.16657 0.027262 0.51555 0.18263 0.04676 0.70343 0.15129 0 0.66872 0.16657 -0.027262 0.51555 0.16047 -0.033064 0.67889 0.15783 0 0.5227 0.18768 0.038554 0.4983 0.036317 0.013027 0.50197 0.039761 0.018424 0.51454 0.20878 0.027262 0.48104 -0.035843 0.033064 0.73471 0.18263 0.04676 0.70343 0.16047 0.033064 0.67889 -0.046829 0.04676 0.7659 0.15129 0 0.66872 -0.035843 -0.033064 0.73471 -0.031293 0 0.72179 0.16047 -0.033064 0.67889 -0.046829 -0.04676 0.7659 0.20478 -0.033064 0.72797 -0.057814 -0.033064 0.79708 0.18263 -0.04676 0.70343 -0.046829 0.04676 0.7659 0.20478 0.033064 0.72797 0.18263 0.04676 0.70343 -0.057814 0.033064 0.79708 -0.035843 0.033064 0.73471 0.15129 0 0.66872 -0.031293 0 0.72179 0.16047 0.033064 0.67889 -0.035843 -0.033064 0.73471 0.18263 -0.04676 0.70343 -0.046829 -0.04676 0.7659 0.16047 -0.033064 0.67889 0.20478 -0.033064 0.72797 -0.062364 0 0.81 -0.057814 -0.033064 0.79708 0.21396 0 0.73814 0.20878 -0.027262 0.48104 0.18263 -0.04676 0.70343 0.18768 -0.038554 0.4983 0.20478 -0.033064 0.72797 -0.062364 0 0.81 -0.21753 0 0.59581 -0.057814 -0.033064 0.79708 -0.20393 -0.034084 0.592 -0.057814 0.033064 0.79708 -0.21753 0 0.59581 -0.062364 0 0.81 -0.20393 0.034085 0.592 -0.035843 0.033064 0.73471 -0.17111 0.048203 0.5828 -0.046829 0.04676 0.7659 -0.13829 0.034085 0.57361 -0.031293 0 0.72179 -0.13829 -0.034084 0.57361 -0.12469 0 0.5698 -0.035843 -0.033064 0.73471 -0.057814 -0.033064 0.79708 -0.20393 -0.034084 0.592 -0.046829 -0.04676 0.7659 -0.17111 -0.048203 0.5828 -0.046829 0.04676 0.7659 -0.20393 0.034085 0.592 -0.057814 0.033064 0.79708 -0.17111 0.048203 0.5828 -0.13829 0.034085 0.57361 -0.031293 0 0.72179 -0.12469 0 0.5698 -0.035843 0.033064 0.73471 -0.062364 0 0.81 0.20478 0.033064 0.72797 -0.057814 0.033064 0.79708 0.21396 0 0.73814 -0.17111 0.048203 0.5828 -0.10645 0.034084 0.40354 -0.20393 0.034085 0.592 -0.075099 0.048203 0.41691 -0.13829 0.034085 0.57361 -0.030763 0 0.43583 -0.043749 0.034084 0.43029 -0.12469 0 0.5698 -0.075099 -0.048203 0.41691 -0.043749 -0.034085 0.43029 -0.13829 -0.034084 0.57361 -0.17111 -0.048203 0.5828 -0.21753 0 0.59581 -0.10645 -0.034085 0.40354 -0.20393 -0.034084 0.592 -0.11944 0 0.398 -0.10645 0.034084 0.40354 -0.21753 0 0.59581 -0.20393 0.034085 0.592 -0.11944 0 0.398 -0.13829 0.034085 0.57361 -0.075099 0.048203 0.41691 -0.17111 0.048203 0.5828 -0.043749 0.034084 0.43029 -0.030763 0 0.43583 -0.13829 -0.034084 0.57361 -0.043749 -0.034085 0.43029 -0.12469 0 0.5698 -0.046829 -0.04676 0.7659 -0.17111 -0.048203 0.5828 -0.035843 -0.033064 0.73471 -0.13829 -0.034084 0.57361 -0.10645 0.034084 0.40354 -0.056307 0 0.38956 -0.11944 0 0.398 -0.042755 0.034085 0.39233 -0.11944 0 0.398 -0.056307 0 0.38956 -0.10645 -0.034085 0.40354 -0.042755 -0.034085 0.39233 -0.043749 -0.034085 0.43029 0.02268 -0.034085 0.40571 -0.030763 0 0.43583 0.036232 0 0.40848 -0.042755 0.034085 0.39233 -0.10645 0.034084 0.40354 -0.075099 0.048203 0.41691 -0.010037 0.048203 0.39902 -0.10645 -0.034085 0.40354 -0.042755 -0.034085 0.39233 -0.075099 -0.048203 0.41691 -0.010037 -0.048203 0.39902 -0.030763 0 0.43583 0.02268 0.034085 0.40571 -0.043749 0.034084 0.43029 0.036232 0 0.40848 -0.075099 -0.048203 0.41691 -0.010037 -0.048203 0.39902 -0.043749 -0.034085 0.43029 0.02268 -0.034085 0.40571 -0.17111 -0.048203 0.5828 -0.10645 -0.034085 0.40354 -0.075099 -0.048203 0.41691 -0.20393 -0.034084 0.592 -0.024237 0 0.050274 -0.025447 0.025968 -0.31661 -0.036204 0 -0.31661 -0.012447 0.028462 0.050274 -0.012447 0.028462 0.050274 0.00052112 0.036725 -0.31661 -0.025447 0.025968 -0.31661 0.016015 0.040252 0.050274 0.026489 0.025968 -0.31661 0.016015 0.040252 0.050274 0.044477 0.028462 0.050274 0.026489 0.025968 -0.31661 0.056266 0 0.050274 0.037246 0 -0.31661 0.044477 0.028462 0.050274 0.026489 -0.025968 -0.31661 0.056266 0 0.050274 0.044477 -0.028462 0.050274 0.037246 0 -0.31661 0.026489 -0.025968 -0.31661 0.016015 -0.040252 0.050274 0.00052112 -0.036725 -0.31661 0.044477 -0.028462 0.050274 -0.025447 -0.025968 -0.31661 -0.012447 -0.028462 0.050274 -0.024237 0 0.050274 -0.036204 0 -0.31661 0.00052112 -0.036725 -0.31661 -0.012447 -0.028462 0.050274 -0.025447 -0.025968 -0.31661 0.016015 -0.040252 0.050274 -0.019392 0 -0.60553 -0.036204 0 -0.31661 -0.025447 0.025968 -0.31661 -0.0076024 0.028462 -0.60553 0.00052112 0.036725 -0.31661 -0.0076024 0.028462 -0.60553 -0.025447 0.025968 -0.31661 0.02086 0.040252 -0.60553 0.026489 0.025968 -0.31661 0.02086 0.040252 -0.60553 0.00052112 0.036725 -0.31661 0.049322 0.028462 -0.60553 0.061111 0 -0.60553 0.026489 0.025968 -0.31661 0.037246 0 -0.31661 0.049322 0.028462 -0.60553 0.061111 0 -0.60553 0.026489 -0.025968 -0.31661 0.049322 -0.028462 -0.60553 0.037246 0 -0.31661 0.02086 -0.040252 -0.60553 0.026489 -0.025968 -0.31661 0.00052112 -0.036725 -0.31661 0.049322 -0.028462 -0.60553 -0.025447 -0.025968 -0.31661 -0.019392 0 -0.60553 -0.0076024 -0.028462 -0.60553 -0.036204 0 -0.31661 -0.0076024 -0.028462 -0.60553 0.00052112 -0.036725 -0.31661 -0.025447 -0.025968 -0.31661 0.02086 -0.040252 -0.60553 -0.029331 0 -0.84401 -0.019392 0 -0.60553 -0.0076024 0.028462 -0.60553 -0.017541 0.028462 -0.84401 -0.0076024 0.028462 -0.60553 0.010921 0.040252 -0.84401 -0.017541 0.028462 -0.84401 0.02086 0.040252 -0.60553 0.02086 0.040252 -0.60553 0.039383 0.028462 -0.84401 0.010921 0.040252 -0.84401 0.049322 0.028462 -0.60553 0.039383 0.028462 -0.84401 0.061111 0 -0.60553 0.051172 0 -0.84401 0.049322 0.028462 -0.60553 0.051172 0 -0.84401 0.049322 -0.028462 -0.60553 0.039383 -0.028462 -0.84401 0.061111 0 -0.60553 0.039383 -0.028462 -0.84401 0.02086 -0.040252 -0.60553 0.010921 -0.040252 -0.84401 0.049322 -0.028462 -0.60553 -0.017541 -0.028462 -0.84401 -0.0076024 -0.028462 -0.60553 -0.019392 0 -0.60553 -0.029331 0 -0.84401 0.010921 -0.040252 -0.84401 -0.0076024 -0.028462 -0.60553 -0.017541 -0.028462 -0.84401 0.02086 -0.040252 -0.60553 -0.051682 0 -0.9712 -0.029331 0 -0.84401 -0.017541 0.028462 -0.84401 -0.039892 0.028462 -0.9712 -0.017541 0.028462 -0.84401 -0.01143 0.040252 -0.9712 -0.039892 0.028462 -0.9712 0.010921 0.040252 -0.84401 0.010921 0.040252 -0.84401 0.017032 0.028462 -0.9712 -0.01143 0.040252 -0.9712 0.039383 0.028462 -0.84401 0.017032 0.028462 -0.9712 0.051172 0 -0.84401 0.028821 0 -0.9712 0.039383 0.028462 -0.84401 0.028821 0 -0.9712 0.039383 -0.028462 -0.84401 0.017032 -0.028462 -0.9712 0.051172 0 -0.84401 0.017032 -0.028462 -0.9712 0.010921 -0.040252 -0.84401 -0.01143 -0.040252 -0.9712 0.039383 -0.028462 -0.84401 -0.039892 -0.028462 -0.9712 -0.017541 -0.028462 -0.84401 -0.029331 0 -0.84401 -0.051682 0 -0.9712 -0.01143 -0.040252 -0.9712 -0.017541 -0.028462 -0.84401 -0.039892 -0.028462 -0.9712 0.010921 -0.040252 -0.84401 -0.031651 0.001814 -0.99 -0.039892 -0.028462 -0.9712 -0.051682 0 -0.9712 -0.024132 -0.016337 -0.99 -0.012447 -0.028462 0.050274 0.010921 -0.048203 0.37052 -0.023164 -0.034085 0.37052 0.016015 -0.040252 0.050274 -0.012447 -0.028462 0.050274 -0.023164 -0.034085 0.37052 -0.037282 0 0.37052 -0.024237 0 0.050274 -0.010037 0.048203 0.39902 -0.043749 0.034084 0.43029 0.02268 0.034085 0.40571 -0.075099 0.048203 0.41691 0.045006 -0.034085 0.37052 0.010921 -0.048203 0.37052 0.044477 -0.028462 0.050274 0.059124 0 0.37052 0.045006 -0.034085 0.37052 0.056266 0 0.050274 0.044477 0.028462 0.050274 0.059124 0 0.37052 0.056266 0 0.050274 0.045006 0.034085 0.37052 0.00052112 0.036725 -0.31661 0.045006 0.034085 0.37052 0.010921 0.048203 0.37052 0.010921 0.048203 0.37052 -0.012447 0.028462 0.050274 -0.023164 0.034085 0.37052 0.016015 0.040252 0.050274 -0.037282 0 0.37052 -0.012447 0.028462 0.050274 -0.024237 0 0.050274 -0.023164 0.034085 0.37052</float_array><technique_common><accessor source="#g-p-a" count="428" stride="3"><param name="X" type="float"/><param name="Y" type="float"/><param name="Z" type="float"/></accessor></technique_common></source>
<source id="g-n"><float_array id="g-n-a" count="1284">0.83099 -0.3442 -0.43702 0.83099 -0.3442 -0.43702 0.83099 -0.34421 -0.43701 0.83099 -0.3442 -0.43702 -0.30784 0.74318 -0.59407 -0.30784 0.74318 -0.59407 -0.30784 0.74318 -0.59407 -0.30785 0.74318 -0.59406 -0.28208 -0.68099 -0.67579 -0.28208 -0.68099 -0.67579 -0.28208 -0.68099 -0.67579 -0.28207 -0.68098 -0.67579 0.85422 0.35382 -0.38094 0.85422 0.35383 -0.38094 0.85422 0.35383 -0.38094 0.85422 0.35382 -0.38095 0.31425 -0.75866 -0.57069 0.31425 -0.75866 -0.57069 0.31425 -0.75866 -0.57069 0.31425 -0.75866 -0.57069 0.33999 0.8208 -0.45901 0.33999 0.8208 -0.45901 0.33999 0.8208 -0.45901 0.33999 0.8208 -0.45901 -0.67061 0.27778 -0.68784 -0.67061 0.27778 -0.68784 -0.67061 0.27778 -0.68784 -0.67061 0.27778 -0.68783 -1.6292e-07 7.7289e-16 -1 -1.6292e-07 7.7289e-16 -1 -1.6292e-07 4.6373e-15 -1 -1.6292e-07 -7.7289e-16 -1 -1.6292e-07 -7.7289e-16 -1 -1.6292e-07 0 -1 -1.6292e-07 0 -1 -1.6292e-07 -4.6373e-15 -1 0.35712 0.90202 0.24252 0.35582 0.90238 0.2431 0.37188 0.89781 0.2359 0.34008 0.90655 0.25003 0.35582 -0.90238 0.2431 0.34008 -0.90655 0.25003 0.35712 -0.90202 0.24252 0.37188 -0.89781 0.2359 0.79876 0.34536 0.49265 0.79986 0.35723 0.4823 0.79851 0.34285 0.49482 0.79708 0.33015 0.50563 -0.34648 -0.89424 -0.28334 -0.36838 -0.88935 -0.27084 -0.35069 -0.89335 -0.28096 -0.3274 -0.89799 -0.29398 -0.34648 0.89424 -0.28334 -0.35069 0.89335 -0.28096 -0.36838 0.88935 -0.27084 -0.3274 0.89799 -0.29398 0.79851 -0.34285 0.49482 0.79876 -0.34536 0.49265 0.79708 -0.33015 0.50563 0.79986 -0.35723 0.4823 -0.68962 -0.30299 -0.65774 -0.69329 -0.31077 -0.65021 -0.70226 -0.33046 -0.63057 -0.67898 -0.28124 -0.67815 -0.69329 0.31077 -0.65021 -0.68962 0.30299 -0.65774 -0.70226 0.33046 -0.63057 -0.67898 0.28124 -0.67815 0.064803 0.2433 0.96778 0.076307 0.35695 0.931 0.078298 0.37724 0.9228 0.063824 0.23388 0.97017 -0.064624 -0.87127 0.48653 -0.066529 -0.90666 0.41658 -0.064516 -0.86933 0.49001 -0.066704 -0.91003 0.40913 -0.14031 -0.36386 -0.92083 -0.12234 -0.22247 -0.96723 -0.14229 -0.38062 -0.91372 -0.12135 -0.21514 -0.96901 -0.12234 0.22247 -0.96723 -0.14031 0.36386 -0.92083 -0.14229 0.38062 -0.91372 -0.12135 0.21514 -0.96901 -0.064624 0.87127 0.48653 -0.066529 0.90666 0.41658 -0.066704 0.91003 0.40913 -0.064516 0.86933 0.49001 0.076307 -0.35695 0.931 0.064803 -0.2433 0.96778 0.078298 -0.37724 0.9228 0.063824 -0.23388 0.97017 -0.14206 -0.74925 -0.64687 -0.16275 -0.91023 -0.38079 -0.14085 -0.74063 -0.65699 -0.164 -0.9219 -0.35101 -0.96444 1.0008e-05 0.2643 -0.96444 0 0.2643 -0.96444 1.0557e-05 0.2643 -0.96444 5.9844e-05 0.2643 -0.96444 1.1234e-23 0.2643 -0.96444 -1.0557e-05 0.2643 -0.96444 -1.0008e-05 0.2643 -0.96444 -5.9844e-05 0.2643 0.53123 0.84714 -0.011791 0.46644 0.88426 -0.022666 0.45607 0.88961 -0.024355 0.5347 0.84497 -0.011193 -0.95528 0.29253 -0.043232 -0.95843 0.28169 -0.045475 -0.95884 0.28023 -0.045776 -0.95457 0.29492 -0.042736 -0.50001 -0.86463 -0.049046 -0.48798 -0.87159 -0.047021 -0.5023 -0.86328 -0.049432 -0.48712 -0.87208 -0.046877 0.95386 -0.30011 0.0087831 0.9619 -0.27311 0.012699 0.95284 -0.30337 0.0083078 0.96245 -0.27115 0.012982 0.9619 0.27311 0.012699 0.95386 0.30011 0.0087831 0.95284 0.30337 0.0083078 0.96245 0.27115 0.012982 -0.48798 0.87159 -0.047021 -0.50001 0.86463 -0.049046 -0.5023 0.86328 -0.049432 -0.48712 0.87208 -0.046877 -0.95843 -0.28169 -0.045475 -0.95528 -0.29253 -0.043232 -0.95884 -0.28023 -0.045776 -0.95457 -0.29492 -0.042736 -0.14206 0.74925 -0.64687 -0.16275 0.91023 -0.38079 -0.164 0.9219 -0.35101 -0.14085 0.74063 -0.65699 -0.11788 0.89426 -0.43175 -0.11507 0.90619 -0.40691 -0.11464 0.90792 -0.40317 -0.11811 0.8932 -0.43387 -0.2572 -0.34544 -0.90251 -0.26346 -0.32297 -0.909 -0.26451 -0.31913 -0.91005 -0.25638 -0.34835 -0.90162 0.11372 -0.89503 0.43126 0.11097 -0.9057 0.40915 0.11392 -0.89424 0.43285 0.11061 -0.90702 0.40631 0.11372 0.89503 0.43126 0.11097 0.9057 0.40915 0.11061 0.90702 0.40631 0.11392 0.89424 0.43285 -0.26346 0.32297 -0.909 -0.2572 0.34544 -0.90251 -0.26451 0.31913 -0.91005 -0.25638 0.34835 -0.90162 -0.11788 -0.89426 -0.43175 -0.11507 -0.90619 -0.40691 -0.11811 -0.8932 -0.43387 -0.11464 -0.90792 -0.40317 0.23657 -0.34341 0.9089 0.24035 -0.32618 0.91424 0.24076 -0.32427 0.91481 0.23625 -0.34488 0.90843 0.46644 -0.88426 -0.022666 0.53123 -0.84714 -0.011791 0.45607 -0.88961 -0.024355 0.5347 -0.84497 -0.011193 -0.76658 -0.32245 0.55531 -0.75891 -0.35914 0.5432 -0.76596 -0.32567 0.55429 -0.75805 -0.36292 0.54189 -0.76596 0.32567 0.55429 -0.75892 0.35914 0.5432 -0.76658 0.32245 0.55531 -0.75805 0.36291 0.5419 0.38095 0.89001 -0.25052 0.34234 0.91496 -0.21365 0.38474 0.88734 -0.25416 0.33667 0.9183 -0.20826 0.80221 -0.31608 -0.50652 0.79323 -0.3623 -0.48941 0.79151 -0.37007 -0.48638 0.80333 -0.30936 -0.50887 -0.36421 -0.89313 0.26394 -0.3329 -0.91343 0.23416 -0.3618 -0.89479 0.26163 -0.32924 -0.91563 0.2307 -0.36179 0.89479 0.26163 -0.33288 0.91343 0.23415 -0.36421 0.89313 0.26394 -0.32923 0.91563 0.23069 0.79324 0.36229 -0.48941 0.80221 0.31608 -0.50652 0.79151 0.37006 -0.48638 0.80333 0.30936 -0.50887 0.24035 0.32618 0.91424 0.23657 0.34341 0.9089 0.24076 0.32427 0.91481 0.23625 0.34488 0.90843 -0.42921 0.87506 -0.22373 -0.34311 0.9186 -0.19611 -0.43774 0.87012 -0.22642 -0.33331 0.92287 -0.19291 0.78984 0.27426 0.54858 0.77634 0.36128 0.51651 0.77301 0.37739 0.50993 0.79197 0.25381 0.5553 0.33563 -0.91644 0.21793 0.32389 -0.92165 0.21366 0.43109 -0.86643 0.25192 0.44159 -0.86005 0.25558 -0.84774 -0.30167 -0.43626 -0.83057 -0.37281 -0.41373 -0.85007 -0.28992 -0.43969 -0.8279 -0.38215 -0.41054 -0.83056 0.37281 -0.41373 -0.84774 0.30167 -0.43627 -0.85007 0.28992 -0.43969 -0.8279 0.38216 -0.41053 0.43108 0.86644 0.25191 0.33564 0.91643 0.21793 0.44158 0.86006 0.25557 0.32391 0.92165 0.21366 0.77634 -0.36127 0.51651 0.78984 -0.27426 0.54857 0.77301 -0.37739 0.50993 0.79197 -0.25382 0.5553 0.38474 -0.88734 -0.25416 0.34235 -0.91495 -0.21366 0.38095 -0.89001 -0.25052 0.33668 -0.9183 -0.20828 -0.14252 0.18863 -0.97165 -0.15858 0.16571 -0.97334 -0.12952 0.20698 -0.96973 -0.17133 0.14728 -0.97414 -0.12952 -0.20698 -0.96973 -0.15858 -0.16571 -0.97334 -0.14252 -0.18863 -0.97165 -0.17132 -0.14728 -0.97414 0.33375 -0.27376 0.90204 0.35907 -0.2351 0.90322 0.34376 -0.25868 0.90273 0.36867 -0.22 0.90315 -0.16434 0.74632 -0.64498 -0.10472 0.79658 -0.5954 -0.1209 0.78368 -0.60928 -0.18092 0.73097 -0.65799 -0.10471 -0.79659 -0.59539 -0.16434 -0.74632 -0.64498 -0.1209 -0.78369 -0.60928 -0.18092 -0.73097 -0.65799 0.34375 0.25868 0.90273 0.35907 0.2351 0.90322 0.33374 0.27377 0.90204 0.36867 0.22 0.90315 0.14691 -0.83244 0.53429 0.20172 -0.79261 0.5754 0.16187 -0.82215 0.54577 0.21694 -0.78048 0.58633 -0.42922 -0.87505 -0.22373 -0.3431 -0.9186 -0.1961 -0.3333 -0.92288 -0.1929 -0.43776 -0.87011 -0.22643 -0.92346 0.38252 0.030122 -0.92346 0.38251 0.030121 -0.92346 0.38251 0.030121 -0.92346 0.38252 0.030122 -0.38268 0.92385 0.0072802 -0.38268 0.92385 0.0072805 -0.38268 0.92385 0.0072805 -0.38268 0.92385 0.0072802 0.38257 0.92359 -0.025034 0.3826 0.92368 -0.020957 0.3826 0.92368 -0.020894 0.92282 0.38225 -0.047842 0.92282 0.38224 -0.047843 0.92282 0.38225 -0.047842 0.92282 0.38224 -0.047843 0.92282 -0.38225 -0.047842 0.92282 -0.38224 -0.047843 0.92282 -0.38224 -0.047843 0.92282 -0.38225 -0.047842 0.38257 -0.92359 -0.025034 0.3826 -0.92368 -0.020957 0.38257 -0.92359 -0.025034 0.3826 -0.92368 -0.020894 -0.92346 -0.38251 0.030121 -0.92346 -0.38252 0.030122 -0.92346 -0.38252 0.030122 -0.92346 -0.38251 0.030121 -0.38268 -0.92385 0.0072805 -0.38268 -0.92385 0.0072802 -0.38268 -0.92385 0.0072805 -0.38268 -0.92385 0.0072802 -0.92254 0.38214 -0.053681 -0.92255 0.38214 -0.05368 -0.92255 0.38214 -0.05368 -0.92254 0.38214 -0.053681 -0.38264 0.92376 -0.01566 -0.38265 0.92376 -0.01566 -0.38264 0.92376 -0.01566 -0.38265 0.92376 -0.01566 0.38241 0.9232 0.038188 0.38241 0.9232 0.038188 0.38241 0.9232 0.038188 0.38241 0.9232 0.038188 0.9212 0.38157 0.076092 0.9212 0.38158 0.076091 0.9212 0.38158 0.076091 0.9212 0.38157 0.076092 0.9212 -0.38157 0.076092 0.9212 -0.38158 0.076091 0.9212 -0.38157 0.076092 0.9212 -0.38158 0.076091 0.38241 -0.9232 0.038188 0.38241 -0.9232 0.038188 0.38241 -0.9232 0.038188 0.38241 -0.9232 0.038188 -0.92255 -0.38214 -0.05368 -0.92254 -0.38214 -0.053681 -0.92254 -0.38214 -0.053681 -0.92255 -0.38214 -0.05368 -0.38265 -0.92376 -0.01566 -0.38264 -0.92376 -0.01566 -0.38264 -0.92376 -0.01566 -0.38265 -0.92376 -0.01566 -0.92319 0.38241 0.038475 -0.92319 0.38241 0.038475 -0.92319 0.38241 0.038475 -0.92319 0.38241 0.038475 -0.38265 0.92376 0.015947 -0.38265 0.92376 0.015947 -0.38265 0.92376 0.015947 -0.38265 0.92376 0.015947 0.38264 0.92376 -0.015948 0.38264 0.92376 -0.015947 0.38265 0.92376 -0.015947 0.38264 0.92376 -0.015948 0.92319 0.38241 -0.038475 0.9232 0.38239 -0.038477 0.92319 0.38241 -0.038475 0.9232 0.38239 -0.038477 0.92319 -0.38241 -0.038477 0.9232 -0.38239 -0.038475 0.92319 -0.38241 -0.038477 0.9232 -0.38239 -0.038475 0.38264 -0.92376 -0.015947 0.38264 -0.92376 -0.015948 0.38265 -0.92376 -0.015947 0.38264 -0.92376 -0.015948 -0.92319 -0.38241 0.038475 -0.92319 -0.38241 0.038475 -0.92319 -0.38241 0.038475 -0.92319 -0.38241 0.038475 -0.38265 -0.92376 0.015947 -0.38265 -0.92376 0.015947 -0.38265 -0.92376 0.015947 -0.38265 -0.92376 0.015947 -0.91193 0.37775 0.16026 -0.91193 0.37775 0.16026 -0.91193 0.37775 0.16026 -0.91193 0.37775 0.16026 -0.38183 0.92179 0.0671 -0.38183 0.92179 0.0671 -0.38183 0.92179 0.0671 -0.38183 0.92179 0.0671 0.38183 0.92179 -0.067098 0.38182 0.9218 -0.067098 0.38182 0.9218 -0.067098 0.38183 0.92179 -0.067098 0.91194 0.37773 -0.16026 0.91194 0.37775 -0.16025 0.91194 0.37773 -0.16026 0.91194 0.37775 -0.16025 0.91194 -0.37773 -0.16025 0.91194 -0.37775 -0.16025 0.91194 -0.37773 -0.16025 0.91193 -0.37775 -0.16026 0.38182 -0.9218 -0.067098 0.38183 -0.92179 -0.067098 0.38182 -0.9218 -0.067098 0.38183 -0.92179 -0.067098 -0.91193 -0.37775 0.16026 -0.91193 -0.37775 0.16026 -0.91193 -0.37775 0.16026 -0.91193 -0.37775 0.16026 -0.38183 -0.92179 0.0671 -0.38183 -0.92179 0.0671 -0.38183 -0.92179 0.0671 -0.38183 -0.92179 0.0671 -0.6463 -0.26771 -0.71458 -0.6463 -0.26771 -0.71458 -0.6463 -0.26772 -0.71458 -0.64631 -0.26771 -0.71458 -0.38253 -0.92349 -0.029015 -0.38252 -0.92349 -0.029016 -0.38252 -0.92349 -0.029017 -0.38253 -0.92349 -0.029015 -0.92322 -0.38242 -0.037609 -0.92323 -0.38241 -0.037611 -0.92323 -0.38241 -0.03761 -0.92322 -0.38242 -0.037609 0.20171 0.7926 0.57541 0.16187 0.82214 0.54579 0.21693 0.78048 0.58634 0.14692 0.83242 0.53431 0.38262 -0.92375 -0.016851 0.38262 -0.92375 -0.016851 0.92385 -0.38266 -0.0082446 0.92385 -0.38266 -0.0082444 0.92385 -0.38266 -0.0082444 0.92385 -0.38266 -0.0082447 0.92385 0.38266 -0.0082446 0.92385 0.38266 -0.0082444 0.92385 0.38266 -0.0082447 0.92385 0.38266 -0.0082444 0.38257 0.92359 -0.025034 0.38262 0.92375 -0.016851 0.38262 0.92375 -0.016851 -0.38252 0.92349 -0.029016 -0.38253 0.92349 -0.029015 -0.38252 0.92349 -0.029017 -0.38253 0.92349 -0.029015 -0.92323 0.38241 -0.03761 -0.92322 0.38242 -0.037609 -0.92322 0.38242 -0.037609 -0.92323 0.38241 -0.037611</float_array><technique_common><accessor source="#g-n-a" count="428" stride="3"><param name="X" type="float"/><param name="Y" type="float"/><param name="Z" type="float"/></accessor></technique_common></source>
<vertices id="g-v"><input semantic="POSITION" source="#g-p"/><input semantic="NORMAL" source="#g-n"/></vertices>
<triangles material="m0" count="220"><input semantic="VERTEX" source="#g-v" offset="0"/><p>0 1 2 3 1 0 4 5 6 5 4 7 8 9 10 11 8 10 12 13 14 13 12 15 16 17 18 19 16 18 20 21 22 21 20 23 24 25 26 25 24 27 28 29 30 29 28 31 29 32 33 31 28 34 31 32 29 32 31 35 36 37 38 37 36 39 40 41 42 40 42 43 44 45 46 44 46 47 48 49 50 50 51 48 52 53 54 53 52 55 56 57 58 57 56 59 60 61 62 61 60 63 64 65 66 64 67 65 68 69 70 71 69 68 72 73 74 73 72 75 76 77 78 77 76 79 80 81 82 83 81 80 84 85 86 87 85 84 88 89 90 89 88 91 92 93 94 93 92 95 96 97 98 96 98 99 100 97 96 101 102 103 102 97 100 102 101 97 104 105 106 107 105 104 108 109 110 111 109 108 112 113 114 113 112 115 116 117 118 117 116 119 120 121 122 123 121 120 124 125 126 127 125 124 128 129 130 129 128 131 132 133 134 135 133 132 136 137 138 139 137 136 140 141 142 143 141 140 144 145 146 145 144 147 148 149 150 151 149 148 152 153 154 153 152 155 156 157 158 157 156 159 160 161 162 163 161 160 164 165 166 165 164 167 168 169 170 171 170 169 172 173 174 173 172 175 176 177 178 177 176 179 180 181 182 183 181 180 184 185 186 186 185 187 188 189 190 189 188 191 192 193 194 193 192 195 196 197 198 197 196 199 200 201 202 201 200 203 204 205 206 207 205 204 208 209 210 211 208 210 212 213 214 213 212 215 216 217 218 219 217 216 220 221 222 221 220 223 224 225 226 225 224 227 228 229 230 230 229 231 232 233 234 233 232 235 236 237 238 239 238 237 240 241 242 243 242 241 244 245 246 246 247 244 248 249 250 251 250 249 252 253 254 253 252 255 256 257 258 259 258 257 260 261 262 263 261 260 264 265 266 265 264 267 268 269 270 269 268 271 272 273 274 275 276 277 276 275 278 279 280 281 280 279 282 283 284 285 283 286 284 287 288 289 289 290 287 291 292 293 291 294 292 295 296 297 297 298 295 299 300 301 299 302 300 303 304 305 303 306 304 307 308 309 308 307 310 311 312 313 312 311 314 315 316 317 316 315 318 319 320 321 320 319 322 323 324 325 324 323 326 327 328 329 329 330 327 331 332 333 332 331 334 335 336 337 336 335 338 339 340 341 340 339 342 343 344 345 344 343 346 347 348 349 347 350 348 351 352 353 353 354 351 355 356 357 355 358 356 359 360 361 361 362 359 363 364 365 364 363 366 367 368 369 368 367 370 371 372 373 372 371 374 375 376 377 376 375 378 379 380 381 379 382 380 383 384 385 385 386 383 387 388 389 387 390 388 391 392 393 392 391 394 395 396 397 396 395 398 399 400 401 401 402 399 403 404 405 404 403 406 284 407 408 407 284 286 409 410 411 410 409 412 413 414 415 414 413 416 273 272 417 418 273 419 418 274 273 420 421 422 420 423 421 424 425 426 425 424 427</p></triangles>
</mesh></geometry></library_geometries><library_visual_scenes><visual_scene id="Scene"><node id="n" name="staff"><instance_geometry url="#g"><bind_material><technique_common>
<instance_material symbol="m0" target="#m0"/>
</technique_common></bind_material></instance_geometry></node></visual_scene></library_visual_scenes><scene><instance_visual_scene url="#Scene"/></scene></COLLADA>
