<?xml version="1.0" encoding="utf-8"?>
<COLLADA xmlns="http://www.collada.org/2005/11/COLLADASchema" version="1.4.1">
<asset><contributor><authoring_tool>VATs starter props (see CREDITS.md)</authoring_tool></contributor><unit name="meter" meter="1"/><up_axis>Z_UP</up_axis></asset>
<library_effects>
<effect id="m0-fx"><profile_COMMON><technique sid="common"><lambert><diffuse><color>0.620 0.470 0.340 1</color></diffuse></lambert></technique></profile_COMMON></effect>
<effect id="m1-fx"><profile_COMMON><technique sid="common"><lambert><diffuse><color>0.420 0.490 0.580 1</color></diffuse></lambert></technique></profile_COMMON></effect>
</library_effects><library_materials>
<material id="m0" name="m0"><instance_effect url="#m0-fx"/></material>
<material id="m1" name="m1"><instance_effect url="#m1-fx"/></material>
</library_materials><library_geometries><geometry id="g" name="stool"><mesh>
<source id="g-p"><float_array id="g-p-a" count="738">0.11002 0.080603 0.61207 0.11002 0.080603 0.25 0.075538 0.080603 0.61207 0.075538 0.080603 0.25 0.075538 0.080603 0.21552 -0.075538 0.080603 0.25 -0.075538 0.080603 0.21552 -0.075538 0.080603 0.61207 -0.11002 0.080603 0.61207 -0.11002 0.080603 0.25 -0.075538 0.080603 0 -0.11002 0.080603 0.21552 -0.11002 0.080603 0 0.11002 0.080603 0.21552 0.11002 0.080603 0 0.075538 0.080603 0 -0.075538 -0.11509 0.21552 0.075538 -0.11509 0.21552 -0.075538 -0.080603 0.21552 0.075538 -0.080603 0.21552 -0.11002 -0.080603 0.21552 -0.11002 0.080603 0.21552 -0.075538 0.080603 0.21552 0.11002 -0.080603 0.21552 0.075538 0.080603 0.21552 0.11002 0.080603 0.21552 -0.075538 0.11509 0.21552 0.075538 0.11509 0.21552 0.075538 -0.080603 0.21552 0.075538 -0.080603 0.25 -0.075538 -0.080603 0.21552 -0.075538 -0.080603 0.25 -0.075538 -0.080603 0 -0.11002 -0.080603 0 -0.11002 -0.080603 0.21552 0.11002 -0.080603 0.25 0.11002 -0.080603 0.61207 0.075538 -0.080603 0.61207 0.075538 -0.080603 0 0.11002 -0.080603 0.21552 0.11002 -0.080603 0 -0.075538 -0.080603 0.61207 -0.11002 -0.080603 0.25 -0.11002 -0.080603 0.61207 -0.11002 0.080603 0 -0.075538 0.080603 0 -0.11002 0.11509 0 -0.075538 0.11509 0 0.075538 0.080603 0.25 0.075538 0.11509 0.25 0.075538 0.080603 0.61207 0.075538 0.11509 0.61207 0.075538 -0.080603 0.25 0.075538 0.080603 0.21552 0.075538 -0.080603 0.21552 0.075538 0.080603 0 0.075538 0.11509 0 0.075538 0.11509 0.21552 0.075538 -0.11509 0.21552 0.075538 -0.080603 0 0.075538 -0.11509 0 0.075538 -0.080603 0.61207 0.075538 -0.11509 0.25 0.075538 -0.11509 0.61207 -0.075538 -0.080603 0.25 -0.11002 -0.080603 0.25 -0.075538 0.080603 0.25 -0.11002 0.080603 0.25 -0.075538 0.11509 0.25 0.075538 0.080603 0.25 0.075538 0.11509 0.25 0.075538 -0.080603 0.25 -0.075538 -0.11509 0.25 0.075538 -0.11509 0.25 0.11002 0.080603 0.25 0.11002 -0.080603 0.25 0 -0.22883 0.68103 -0.19817 -0.11441 0.68103 0.19817 -0.11441 0.68103 0.19817 0.11441 0.68103 -0.19817 0.11441 0.68103 0 0.22883 0.68103 -0.11002 -0.11509 0 -0.11002 -0.080603 0 -0.11002 -0.11509 0.61207 -0.11002 -0.080603 0.21552 -0.11002 -0.080603 0.25 -0.11002 0.080603 0.21552 -0.11002 -0.080603 0.61207 -0.11002 0.080603 0.25 -0.11002 0.11509 0.61207 -0.11002 0.11509 0 -0.11002 0.080603 0 -0.11002 0.080603 0.61207 -0.075538 -0.080603 0.25 -0.075538 -0.11509 0.25 -0.075538 -0.080603 0.61207 -0.075538 -0.11509 0.61207 -0.075538 0.080603 0.25 -0.075538 -0.080603 0.21552 -0.075538 0.080603 0.21552 -0.075538 0.11509 0.25 -0.075538 0.11509 0.61207 -0.075538 0.080603 0.61207 -0.075538 -0.080603 0 -0.075538 -0.11509 0 -0.075538 -0.11509 0.21552 -0.075538 0.11509 0.21552 -0.075538 0.080603 0 -0.075538 0.11509 0 -0.11002 -0.11509 0 -0.075538 -0.11509 0 -0.11002 -0.080603 0 -0.075538 -0.080603 0 0.075538 0.080603 0 0.11002 0.080603 0 0.075538 0.11509 0 0.11002 0.11509 0 0.11002 0.11509 0 0.11002 0.11509 0.61207 0.075538 0.11509 0 0.075538 0.11509 0.21552 0.075538 0.11509 0.25 -0.075538 0.11509 0.21552 -0.075538 0.11509 0.25 -0.11002 0.11509 0 -0.075538 0.11509 0 -0.075538 0.11509 0.61207 -0.11002 0.11509 0.61207 0.075538 0.11509 0.61207 0.075538 -0.11509 0 0.11002 -0.11509 0 0.075538 -0.080603 0 0.11002 -0.080603 0 -0.075538 -0.11509 0.61207 -0.075538 -0.11509 0.25 -0.11002 -0.11509 0.61207 -0.075538 -0.11509 0.21552 -0.075538 -0.11509 0 -0.11002 -0.11509 0 0.075538 -0.11509 0.21552 0.075538 -0.11509 0.25 0.075538 -0.11509 0 0.075538 -0.11509 0.61207 0.11002 -0.11509 0 0.11002 -0.11509 0.61207 0.11002 0.11509 0 0.11002 0.080603 0 0.11002 0.11509 0.61207 0.11002 0.080603 0.21552 0.11002 0.080603 0.25 0.11002 -0.080603 0.21552 0.11002 0.080603 0.61207 0.11002 -0.080603 0.25 0.11002 -0.11509 0.61207 0.11002 -0.11509 0 0.11002 -0.080603 0 0.11002 -0.080603 0.61207 0.17694 -0.10216 0.61207 0.11002 -0.11509 0.61207 0.088469 -0.15323 0.61207 -0.11002 -0.11509 0.61207 -0.075538 -0.11509 0.61207 0.075538 -0.11509 0.61207 0.11002 -0.080603 0.61207 0.17694 0 0.61207 -0.17694 0 0.61207 -0.11002 0.080603 0.61207 -0.17694 0.10216 0.61207 -0.11002 0.11509 0.61207 -0.088469 0.15323 0.61207 -0.075538 0.11509 0.61207 0.075538 0.11509 0.61207 0.11002 0.11509 0.61207 0.11002 0.080603 0.61207 0.17694 0.10216 0.61207 -0.075538 0.080603 0.61207 0.075538 0.080603 0.61207 0.088469 0.15323 0.61207 0 0.20431 0.61207 0.075538 -0.080603 0.61207 -0.075538 -0.080603 0.61207 -0.11002 -0.080603 0.61207 -0.17694 -0.10216 0.61207 -0.088469 -0.15323 0.61207 0 -0.20431 0.61207 0 0.20431 0.75 -0.17694 0.10216 0.75 0 0.22883 0.68103 -0.19817 0.11441 0.68103 0.19817 -0.11441 0.68103 0 -0.22883 0.68103 0.17694 -0.10216 0.75 0 -0.20431 0.75 0.19817 0.11441 0.68103 0.17694 0.10216 0.75 0 0.22883 0.68103 0 0.20431 0.75 -0.17694 -0.10216 0.61207 -0.17694 0 0.61207 -0.19817 -0.11441 0.68103 -0.17694 0.10216 0.61207 -0.19817 0.11441 0.68103 0 -0.20431 0.61207 -0.088469 -0.15323 0.61207 0 -0.22883 0.68103 -0.19817 -0.11441 0.68103 -0.17694 -0.10216 0.61207 -0.19817 -0.11441 0.68103 -0.19817 0.11441 0.68103 -0.17694 -0.10216 0.75 -0.17694 0.10216 0.75 0 -0.20431 0.75 0 -0.22883 0.68103 -0.17694 -0.10216 0.75 -0.19817 -0.11441 0.68103 0.17694 0.10216 0.61207 0.17694 0 0.61207 0.19817 0.11441 0.68103 0.17694 -0.10216 0.61207 0.19817 -0.11441 0.68103 0.19817 -0.11441 0.68103 0.17694 -0.10216 0.61207 0 -0.22883 0.68103 0.088469 -0.15323 0.61207 0 -0.20431 0.61207 0 0.20431 0.61207 0 0.22883 0.68103 -0.088469 0.15323 0.61207 -0.19817 0.11441 0.68103 -0.17694 0.10216 0.61207 0.19817 0.11441 0.68103 0.19817 -0.11441 0.68103 0.17694 0.10216 0.75 0.17694 -0.10216 0.75 0.19817 0.11441 0.68103 0 0.22883 0.68103 0.17694 0.10216 0.61207 0.088469 0.15323 0.61207 0 0.20431 0.61207 0 -0.20431 0.75 -0.17694 -0.10216 0.75 0.17694 -0.10216 0.75 0.17694 0.10216 0.75 -0.17694 0.10216 0.75 0 0.20431 0.75</float_array><technique_common><accessor source="#g-p-a" count="246" stride="3"><param name="X" type="float"/><param name="Y" type="float"/><param name="Z" type="float"/></accessor></technique_common></source>
<source id="g-n"><float_array id="g-n-a" count="738">0 -1 0 0 -1 0 0 -1 0 0 -1 0 0 -1 0 0 -1 0 0 -1 0 0 -1 0 0 -1 0 0 -1 0 0 -1 0 0 -1 0 0 -1 0 0 -1 0 0 -1 0 0 -1 0 0 0 -1 0 0 -1 0 0 -1 0 0 -1 0 0 -1 0 0 -1 0 0 -1 0 0 -1 0 0 -1 0 0 -1 0 0 -1 0 0 -1 0 1 0 0 1 0 0 1 0 0 1 0 0 1 0 0 1 0 0 1 0 0 1 0 0 1 0 0 1 0 0 1 0 0 1 0 0 1 0 0 1 0 0 1 0 0 1 0 0 0 -1 0 0 -1 0 0 -1 0 0 -1 -1 0 0 -1 0 0 -1 0 0 -1 0 0 -1 0 0 -1 0 0 -1 0 0 -1 0 0 -1 0 0 -1 0 0 -1 0 0 -1 0 0 -1 0 0 -1 0 0 -1 0 0 -1 0 0 0 0 1 0 0 1 0 0 1 0 0 1 0 0 1 0 0 1 0 0 1 0 0 1 0 0 1 0 0 1 0 0 1 0 0 1 0 0 1 0 0 1 0 0 1 0 0 1 0 0 1 0 0 1 -1 0 0 -1 0 0 -1 0 0 -1 0 0 -1 0 0 -1 0 0 -1 0 0 -1 0 0 -1 0 0 -1 0 0 -1 0 0 -1 0 0 1 0 0 1 0 0 1 0 0 1 0 0 1 0 0 1 0 0 1 0 0 1 0 0 1 0 0 1 0 0 1 0 0 1 0 0 1 0 0 1 0 0 1 0 0 1 0 0 0 0 -1 0 0 -1 0 0 -1 0 0 -1 0 0 -1 0 0 -1 0 0 -1 0 0 -1 0 1 0 0 1 0 0 1 0 0 1 0 0 1 0 0 1 0 0 1 0 0 1 0 0 1 0 0 1 0 0 1 0 0 1 0 0 0 -1 0 0 -1 0 0 -1 0 0 -1 0 -1 0 0 -1 0 0 -1 0 0 -1 0 0 -1 0 0 -1 0 0 -1 0 0 -1 0 0 -1 0 0 -1 0 0 -1 0 0 -1 0 1 0 0 1 0 0 1 0 0 1 0 0 1 0 0 1 0 0 1 0 0 1 0 0 1 0 0 1 0 0 1 0 0 1 0 0 0 0 -1 0 0 -1 0 0 -1 0 0 -1 0 0 -1 0 0 -1 0 0 -1 0 0 -1 0 0 -1 0 0 -1 0 0 -1 0 0 -1 0 0 -1 0 0 -1 0 0 -1 0 0 -1 0 0 -1 0 0 -1 0 0 -1 0 0 -1 0 0 -1 0 0 -1 0 0 -1 0 0 -1 0 0 -1 0 0 -1 0 0 -1 0 0 -1 -0.47787 0.82769 0.29424 -0.47787 0.82769 0.29424 -0.47787 0.82769 0.29424 -0.47787 0.82769 0.29424 0.47787 -0.82769 0.29424 0.47787 -0.82769 0.29424 0.47787 -0.82769 0.29424 0.47787 -0.82769 0.29424 0.47787 0.82769 0.29424 0.47787 0.82769 0.29424 0.47787 0.82769 0.29424 0.47787 0.82769 0.29424 -0.95573 0 -0.29424 -0.95573 0 -0.29424 -0.95573 0 -0.29424 -0.95573 0 -0.29424 -0.95573 0 -0.29424 -0.47787 -0.82769 -0.29424 -0.47787 -0.82769 -0.29424 -0.47787 -0.82769 -0.29424 -0.47787 -0.82769 -0.29424 -0.47787 -0.82769 -0.29424 -0.95573 0 0.29424 -0.95573 0 0.29424 -0.95573 0 0.29424 -0.95573 0 0.29424 -0.47787 -0.82769 0.29424 -0.47787 -0.82769 0.29424 -0.47787 -0.82769 0.29424 -0.47787 -0.82769 0.29424 0.95573 0 -0.29424 0.95573 0 -0.29424 0.95573 0 -0.29424 0.95573 0 -0.29424 0.95573 0 -0.29424 0.47787 -0.82769 -0.29424 0.47787 -0.82769 -0.29424 0.47787 -0.82769 -0.29424 0.47787 -0.82769 -0.29424 0.47787 -0.82769 -0.29424 -0.47787 0.82769 -0.29424 -0.47787 0.82769 -0.29424 -0.47787 0.82769 -0.29424 -0.47787 0.82769 -0.29424 -0.47787 0.82769 -0.29424 0.95573 0 0.29424 0.95573 0 0.29424 0.95573 0 0.29424 0.95573 0 0.29424 0.47787 0.82769 -0.29424 0.47787 0.82769 -0.29424 0.47787 0.82769 -0.29424 0.47787 0.82769 -0.29424 0.47787 0.82769 -0.29424 0 0 1 0 0 1 0 0 1 0 0 1 0 0 1 0 0 1</float_array><technique_common><accessor source="#g-n-a" count="246" stride="3"><param name="X" type="float"/><param name="Y" type="float"/><param name="Z" type="float"/></accessor></technique_common></source>
<vertices id="g-v"><input semantic="POSITION" source="#g-p"/><input semantic="NORMAL" source="#g-n"/></vertices>
<triangles material="m0" count="106"><input semantic="VERTEX" source="#g-v" offset="0"/><p>2 1 0 1 2 3 5 4 3 4 5 6 8 5 7 5 8 9 11 10 6 10 11 12 4 14 13 14 4 15 18 17 16 17 18 19 21 18 20 18 21 22 24 23 19 23 24 25 26 24 22 24 26 27 30 29 28 29 30 31 33 30 32 30 33 34 29 36 35 36 29 37 39 38 28 38 39 40 42 41 31 41 42 43 46 45 44 45 46 47 50 49 48 49 50 51 53 52 48 52 53 54 53 56 55 56 53 57 59 58 54 58 59 60 62 61 52 61 62 63 66 65 64 65 66 67 69 68 66 68 69 70 72 71 64 71 72 73 71 74 69 74 71 75 78 77 76 77 78 79 77 79 80 80 79 81 84 83 82 83 84 85 85 84 86 85 86 87 86 84 88 89 87 86 90 87 89 91 87 90 87 91 92 90 89 93 96 95 94 95 96 97 99 98 94 98 99 100 102 98 101 98 102 103 99 105 104 105 99 106 108 107 100 107 108 109 112 111 110 111 112 113 116 115 114 115 116 117 120 119 118 119 120 121 122 119 121 123 122 121 122 123 124 123 125 124 125 123 126 124 125 127 127 125 128 119 122 129 132 131 130 131 132 133 136 135 134 135 136 137 137 136 138 138 136 139 140 135 137 140 141 135 144 143 142 143 144 145 148 147 146 147 148 149 149 148 150 149 150 151 150 148 152 153 151 150 154 151 153 155 151 154 151 155 156 154 153 157</p></triangles>
<triangles material="m1" count="64"><input semantic="VERTEX" source="#g-v" offset="0"/><p>160 159 158 159 160 161 158 159 164 158 164 165 165 164 166 165 166 167 167 166 168 167 168 169 169 168 170 169 170 171 171 170 172 172 170 173 174 165 167 165 174 175 175 174 173 171 177 176 177 171 172 175 173 178 178 173 170 178 170 179 180 166 164 181 166 180 182 166 181 163 181 180 181 163 162 161 183 182 161 184 183 160 184 161 184 160 185 182 183 166 188 187 186 187 188 189 192 191 190 191 192 193 196 195 194 195 196 197 200 199 198 199 200 201 201 200 202 205 204 203 204 205 206 204 206 207 210 209 208 209 210 211 214 213 212 213 214 215 218 217 216 217 218 219 219 218 220 223 222 221 222 223 224 224 223 225 228 227 226 227 228 229 229 228 230 233 232 231 232 233 234 237 236 235 236 237 238 236 238 239 242 241 240 241 242 243 241 243 244 244 243 245</p></triangles>
</mesh></geometry></library_geometries><library_visual_scenes><visual_scene id="Scene"><node id="n" name="stool"><instance_geometry url="#g"><bind_material><technique_common>
<instance_material symbol="m0" target="#m0"/>
<instance_material symbol="m1" target="#m1"/>
</technique_common></bind_material></instance_geometry></node></visual_scene></library_visual_scenes><scene><instance_visual_scene url="#Scene"/></scene></COLLADA>
