<?xml version="1.0" encoding="utf-8"?>
<COLLADA xmlns="http://www.collada.org/2005/11/COLLADASchema" version="1.4.1">
<asset><contributor><authoring_tool>VATs starter props (see CREDITS.md)</authoring_tool></contributor><unit name="meter" meter="1"/><up_axis>Z_UP</up_axis></asset>
<library_effects>
<effect id="m0-fx"><profile_COMMON><technique sid="common"><lambert><diffuse><color>0.360 0.390 0.430 1</color></diffuse></lambert></technique></profile_COMMON></effect>
<effect id="m1-fx"><profile_COMMON><technique sid="common"><lambert><diffuse><color>0.400 0.300 0.230 1</color></diffuse></lambert></technique></profile_COMMON></effect>
<effect id="m2-fx"><profile_COMMON><technique sid="common"><lambert><diffuse><color>0.620 0.660 0.710 1</color></diffuse></lambert></technique></profile_COMMON></effect>
</library_effects><library_materials>
<material id="m0" name="m0"><instance_effect url="#m0-fx"/></material>
<material id="m1" name="m1"><instance_effect url="#m1-fx"/></material>
<material id="m2" name="m2"><instance_effect url="#m2-fx"/></material>
</library_materials><library_geometries><geometry id="g" name="sword"><mesh>
<source id="g-p"><float_array id="g-p-a" count="4512">1.0407e-06 0.006317 -0.17 0.0063165 0 -0.17 1.3424e-06 0 -0.17 0.006317 0.006317 -0.17 1.0407e-06 0.006317 -0.17 1.3424e-06 0 -0.17 -0.0063152 0 -0.17 -0.006317 0.006317 -0.17 -0.006317 0.006317 -0.17 -0.0063152 0 -0.17 -0.0089336 0 -0.17 2.4453e-09 0.0089336 -0.17 1.0407e-06 0.006317 -0.17 -0.006317 0.006317 -0.17 0.006317 0.006317 -0.17 1.0407e-06 0.006317 -0.17 2.4453e-09 0.0089336 -0.17 2.4453e-09 -0.0089336 -0.17 -1.0543e-06 -0.006317 -0.17 0.006317 -0.006317 -0.17 -0.006317 -0.006317 -0.17 -1.0543e-06 -0.006317 -0.17 2.4453e-09 -0.0089336 -0.17 -0.006317 -0.006317 -0.17 -0.0063152 0 -0.17 -1.0543e-06 -0.006317 -0.17 -0.006317 -0.006317 -0.17 1.3424e-06 0 -0.17 1.3424e-06 0 -0.17 0.006317 -0.006317 -0.17 -1.0543e-06 -0.006317 -0.17 0.0063165 0 -0.17 0.01876 0.028192 -0.15781 0.026045 0 -0.13095 0.026531 0 -0.15781 0.018417 0.030852 -0.13095 0.01319 0.071256 0.14365 -5.4731e-08 0.077289 0.18359 -4.979e-08 0.071256 0.14365 0.01319 0.077289 0.18359 -0.018417 0.030852 -0.13095 1.1597e-09 0.035963 -0.15781 -0.01876 0.028192 -0.15781 -3.3898e-09 0.038481 -0.13095 -0.026045 0 -0.13095 -0.026531 0 -0.15781 -0.01876 -0.028192 -0.15781 -0.018417 -0.030852 -0.13095 -0.018417 -0.030852 -0.13095 -0.01876 -0.028192 -0.15781 1.1597e-09 -0.035963 -0.15781 -3.3898e-09 -0.038481 -0.13095 0.01876 -0.028192 -0.15781 0.026045 0 -0.13095 0.018417 -0.030852 -0.13095 0.026531 0 -0.15781 1.1597e-09 0.035963 -0.15781 0.018417 0.030852 -0.13095 0.01876 0.028192 -0.15781 -3.3898e-09 0.038481 -0.13095 -0.026045 0 -0.13095 -0.01876 0.028192 -0.15781 -0.026531 0 -0.15781 -0.018417 0.030852 -0.13095 -5.4731e-08 -0.077289 0.18359 -0.013191 -0.10805 0.21043 -5.8818e-08 -0.10805 0.21043 -0.013191 -0.077289 0.18359 -0.013191 0.10805 0.21043 -5.4731e-08 0.077289 0.18359 -5.8818e-08 0.10805 0.21043 -0.013191 0.077289 0.18359 -0.013191 -0.013191 0.14326 -0.0054572 -0.03637 0.14326 -0.0054572 -0.015973 0.14326 -0.013191 -0.071256 0.14365 0.01319 -0.013191 0.14326 0.0054571 0 0.15446 0.0054571 -0.015973 0.14326 0.018654 0 0.15446 0.01319 -0.071256 0.14365 0.0054571 -0.03637 0.14326 -5.0332e-08 -0.047102 0.14326 -4.979e-08 -0.071256 0.14365 -4.251e-08 -0.018654 0.09918 -0.013191 -0.059597 0.11667 -0.013191 -0.013191 0.09918 -4.3109e-08 -0.059597 0.11667 0.01319 -0.013191 0.14326 0.01319 -0.059597 0.11667 0.01319 -0.013191 0.09918 0.01319 -0.071256 0.14365 -0.013191 -0.013191 0.14326 -0.0054572 -0.015973 0.14326 -0.0054572 0 0.15446 -0.018654 0 0.15446 -0.013191 -0.059597 0.11667 -0.013191 -0.013191 0.14326 -0.013191 -0.013191 0.09918 -0.013191 -0.071256 0.14365 0.01319 -0.071256 0.14365 0.01319 -0.10805 0.16308 0.01319 -0.10805 0.14638 0.01319 -0.059597 0.11667 0.01319 -0.071256 0.14365 -5.4731e-08 -0.077289 0.18359 0.01319 -0.077289 0.18359 -4.979e-08 -0.071256 0.14365 0.01319 -0.10805 0.16308 -4.434e-08 -0.10805 0.14638 0.01319 -0.10805 0.14638 -5.0332e-08 -0.047102 0.14326 -0.013191 -0.071256 0.14365 -4.979e-08 -0.071256 0.14365 -0.0054572 -0.03637 0.14326 0.018654 0 0.09918 0.01319 -0.013191 0.14326 0.01319 -0.013191 0.09918 0.018654 0 0.15446 0.0089336 0 -0.17 0.006317 -0.006317 -0.17 0.0063165 0 -0.17 0.01319 -0.059597 0.11667 -4.434e-08 -0.10805 0.14638 -4.3109e-08 -0.059597 0.11667 0.01319 -0.10805 0.14638 -0.018654 0 0.09918 -0.013191 -0.013191 0.14326 -0.018654 0 0.15446 -0.013191 -0.013191 0.09918 -4.251e-08 -0.018654 0.09918 0.01319 -0.059597 0.11667 -4.3109e-08 -0.059597 0.11667 0.01319 -0.013191 0.09918 0.01319 -0.071256 0.14365 0.01319 -0.013191 0.14326 0.0054571 -0.03637 0.14326 0.0054571 -0.015973 0.14326 -0.013191 -0.10805 0.14638 -0.013191 -0.071256 0.14365 -0.013191 -0.059597 0.11667 -0.013191 -0.10805 0.16308 0.01319 -0.10805 0.16308 -5.5168e-08 -0.11606 0.18878 -5.0835e-08 -0.10805 0.16308 0.01319 -0.11606 0.18878 -4.3109e-08 -0.059597 0.11667 -4.434e-08 -0.10805 0.14638 -0.013191 -0.10805 0.14638 -0.013191 -0.059597 0.11667 0.01319 -0.11606 0.18878 -5.8818e-08 -0.10805 0.21043 -5.5168e-08 -0.11606 0.18878 -4.979e-08 -0.071256 0.14365 -0.013191 -0.077289 0.18359 -5.4731e-08 -0.077289 0.18359 -0.013191 -0.071256 0.14365 -0.013191 -0.077289 0.18359 -0.013191 -0.071256 0.14365 -0.013191 -0.10805 0.16308 -0.013191 -0.11606 0.18878 -5.0835e-08 -0.10805 0.16308 -0.013191 -0.11606 0.18878 -0.013191 -0.10805 0.16308 -5.5168e-08 -0.11606 0.18878 0.01319 -0.077289 0.18359 0.01319 -0.10805 0.16308 0.01319 -0.071256 0.14365 0.01319 -0.11606 0.18878 0.01319 -0.077289 0.18359 0.01319 -0.10805 0.21043 0.01319 -0.11606 0.18878 0.01319 -0.077289 0.18359 -5.8818e-08 -0.10805 0.21043 0.01319 -0.10805 0.21043 -5.4731e-08 -0.077289 0.18359 -0.013191 -0.11606 0.18878 -0.013191 -0.10805 0.21043 -0.013191 -0.077289 0.18359 0.01319 -0.10805 0.21043 -0.013191 -0.10805 0.21043 -0.013191 -0.11606 0.18878 2.4453e-09 -0.0089336 -0.17 0.01876 -0.028192 -0.15781 1.1597e-09 -0.035963 -0.15781 0.006317 -0.006317 -0.17 -0.01876 -0.028192 -0.15781 -0.026531 0 -0.15781 -0.006317 -0.006317 -0.17 -0.0089336 0 -0.17 -0.01876 -0.028192 -0.15781 -0.006317 -0.006317 -0.17 2.4453e-09 -0.0089336 -0.17 1.1597e-09 -0.035963 -0.15781 0.026531 0 -0.15781 0.006317 -0.006317 -0.17 0.0089336 0 -0.17 0.01876 -0.028192 -0.15781 -5.0835e-08 -0.10805 0.16308 -0.013191 -0.10805 0.14638 -0.013191 -0.10805 0.16308 0.026045 0 -0.13095 0.01205 -0.01205 -0.11414 0.018417 -0.030852 -0.13095 0.017042 0 -0.11414 -6.6176e-09 -0.017042 -0.11414 0.018417 -0.030852 -0.13095 0.01205 -0.01205 -0.11414 -3.3898e-09 -0.038481 -0.13095 -0.018417 -0.030852 -0.13095 -3.3898e-09 -0.038481 -0.13095 -6.6176e-09 -0.017042 -0.11414 -0.01205 -0.01205 -0.11414 -0.026045 0 -0.13095 -0.018417 -0.030852 -0.13095 -0.01205 -0.01205 -0.11414 -0.017042 0 -0.11414 -0.0054572 0.03637 0.14326 -0.013191 0.013191 0.14326 -0.0054572 0.015973 0.14326 -0.013191 0.071256 0.14365 0.01319 0.013191 0.14326 0.0054571 0 0.15446 0.018654 0 0.15446 0.0054571 0.015973 0.14326 0.0054571 0.03637 0.14326 0.01319 0.071256 0.14365 -5.0332e-08 0.047102 0.14326 -4.979e-08 0.071256 0.14365 -4.3109e-08 0.059597 0.11667 -4.251e-08 0.018654 0.09918 -0.013191 0.059597 0.11667 -0.013191 0.013191 0.09918 0.01319 0.071256 0.14365 0.01319 0.013191 0.14326 0.01319 0.059597 0.11667 0.01319 0.013191 0.09918 -0.013191 0.013191 0.14326 -0.0054572 0 0.15446 -0.0054572 0.015973 0.14326 -0.018654 0 0.15446 -0.013191 0.059597 0.11667 -0.013191 0.013191 0.14326 -0.013191 0.071256 0.14365 -0.013191 0.013191 0.09918 0.01319 0.10805 0.16308 0.01319 0.071256 0.14365 0.01319 0.10946 0.14591 0.01319 0.059597 0.11667 -5.0835e-08 0.10805 0.16308 0.01319 0.11606 0.18878 0.01319 0.10805 0.16308 -5.5168e-08 0.11606 0.18878 -4.4324e-08 0.10946 0.14591 0.01319 0.10805 0.16308 0.01319 0.10946 0.14591 -5.0835e-08 0.10805 0.16308 -5.0332e-08 0.047102 0.14326 -0.013191 0.071256 0.14365 -0.0054572 0.03637 0.14326 -4.979e-08 0.071256 0.14365 0.01319 0.013191 0.14326 0.018654 0 0.09918 0.01319 0.013191 0.09918 0.018654 0 0.15446 0.0089336 0 -0.17 0.0063165 0 -0.17 0.006317 0.006317 -0.17 0.01319 0.10946 0.14591 0.01319 0.059597 0.11667 -4.4324e-08 0.10946 0.14591 -4.3109e-08 0.059597 0.11667 -0.013191 0.013191 0.14326 -0.018654 0 0.09918 -0.018654 0 0.15446 -0.013191 0.013191 0.09918 0.01319 0.059597 0.11667 -4.251e-08 0.018654 0.09918 -4.3109e-08 0.059597 0.11667 0.01319 0.013191 0.09918 0.01319 0.013191 0.14326 0.0054571 0.03637 0.14326 0.0054571 0.015973 0.14326 0.01319 0.071256 0.14365 -0.013191 0.071256 0.14365 -0.013191 0.10946 0.14591 -0.013191 0.059597 0.11667 -0.013191 0.10805 0.16308 -0.013191 0.077289 0.18359 -0.013191 0.071256 0.14365 -4.979e-08 0.071256 0.14365 -5.4731e-08 0.077289 0.18359 -4.4324e-08 0.10946 0.14591 -4.3109e-08 0.059597 0.11667 -0.013191 0.10946 0.14591 -0.013191 0.059597 0.11667 -0.013191 0.077289 0.18359 -0.013191 0.10805 0.16308 -0.013191 0.071256 0.14365 -0.013191 0.11606 0.18878 -0.013191 0.11606 0.18878 -5.0835e-08 0.10805 0.16308 -0.013191 0.10805 0.16308 -5.5168e-08 0.11606 0.18878 0.01319 0.10805 0.16308 0.01319 0.077289 0.18359 0.01319 0.071256 0.14365 0.01319 0.11606 0.18878 1.1597e-09 -0.035963 -0.15781 0.018417 -0.030852 -0.13095 -3.3898e-09 -0.038481 -0.13095 0.01876 -0.028192 -0.15781 0.01319 0.077289 0.18359 0.01319 0.11606 0.18878 0.01319 0.10805 0.21043 -5.8818e-08 0.10805 0.21043 0.01319 0.077289 0.18359 0.01319 0.10805 0.21043 -5.4731e-08 0.077289 0.18359 -0.013191 0.11606 0.18878 -0.013191 0.077289 0.18359 -0.013191 0.10805 0.21043 -5.8818e-08 0.10805 0.21043 0.01319 0.11606 0.18878 -5.5168e-08 0.11606 0.18878 0.01319 0.10805 0.21043 -0.013191 0.10805 0.21043 -0.013191 0.11606 0.18878 0.01876 0.028192 -0.15781 2.4453e-09 0.0089336 -0.17 1.1597e-09 0.035963 -0.15781 0.006317 0.006317 -0.17 -0.026531 0 -0.15781 -0.01876 0.028192 -0.15781 -0.006317 0.006317 -0.17 -0.0089336 0 -0.17 -0.01876 0.028192 -0.15781 2.4453e-09 0.0089336 -0.17 -0.006317 0.006317 -0.17 1.1597e-09 0.035963 -0.15781 0.026531 0 -0.15781 0.006317 0.006317 -0.17 0.01876 0.028192 -0.15781 0.0089336 0 -0.17 -0.013191 0.10946 0.14591 -5.0835e-08 0.10805 0.16308 -4.4324e-08 0.10946 0.14591 -0.013191 0.10805 0.16308 0.01205 0.01205 -0.11414 0.026045 0 -0.13095 0.018417 0.030852 -0.13095 0.017042 0 -0.11414 0.018417 0.030852 -0.13095 -6.6176e-09 0.017042 -0.11414 0.01205 0.01205 -0.11414 -3.3898e-09 0.038481 -0.13095 -0.018417 0.030852 -0.13095 -6.6176e-09 0.017042 -0.11414 -3.3898e-09 0.038481 -0.13095 -0.01205 0.01205 -0.11414 -0.026045 0 -0.13095 -0.01205 0.01205 -0.11414 -0.018417 0.030852 -0.13095 -0.017042 0 -0.11414 -0.01205 0.01205 -0.11414 -0.017109 -0.00056958 -0.10986 -0.012098 0.011647 -0.10524 -0.017042 0 -0.11414 0.01205 0.01205 -0.11414 0.017109 -0.00056958 -0.10986 0.017042 0 -0.11414 0.012098 0.011647 -0.10524 -0.01205 0.01205 -0.11414 -8.1716e-09 0.016592 -0.10577 -6.6176e-09 0.017042 -0.11414 -0.012098 0.011647 -0.10524 0.01205 0.01205 -0.11414 -8.1716e-09 0.016592 -0.10577 0.012098 0.011647 -0.10524 -6.6176e-09 0.017042 -0.11414 -0.01205 -0.01205 -0.11414 -0.017109 -0.00056958 -0.10986 -0.017042 0 -0.11414 -0.012098 -0.012544 -0.11074 0.017109 -0.00056958 -0.10986 0.01205 -0.01205 -0.11414 0.017042 0 -0.11414 0.012098 -0.012544 -0.11074 -7.9889e-09 -0.017504 -0.11111 -0.01205 -0.01205 -0.11414 -6.6176e-09 -0.017042 -0.11414 -0.012098 -0.012544 -0.11074 0.01205 -0.01205 -0.11414 -7.9889e-09 -0.017504 -0.11111 -6.6176e-09 -0.017042 -0.11414 0.012098 -0.012544 -0.11074 0.012905 -0.012905 0.048146 -3.4527e-08 -0.018453 0.051775 -3.3924e-08 -0.018251 0.048146 0.013048 -0.01344 0.052952 0.01262 -0.013446 0.010307 -2.8224e-08 -0.01805 0.014283 -2.6811e-08 -0.01855 0.010128 0.012763 -0.012763 0.014847 0.012478 -0.012194 -0.028177 -1.9704e-08 -0.017203 -0.038716 0.012335 -0.012165 -0.037869 -2.0732e-08 -0.01717 -0.02678 0.012145 -0.011783 -0.077737 -1.3408e-08 -0.016289 -0.075688 -1.1346e-08 -0.016777 -0.077695 0.012193 -0.011408 -0.074392 -3.4527e-08 -0.018453 0.051775 -0.012905 -0.012905 0.048146 -3.3924e-08 -0.018251 0.048146 -0.013048 -0.013048 0.052952 -2.8224e-08 -0.01805 0.014283 -0.01262 -0.013446 0.010307 -2.6811e-08 -0.01855 0.010128 -0.012763 -0.012763 0.014978 -1.9704e-08 -0.017203 -0.038716 -0.012478 -0.012194 -0.028177 -0.012335 -0.012165 -0.037869 -2.0732e-08 -0.01717 -0.02678 -1.3408e-08 -0.016289 -0.075688 -0.012145 -0.011783 -0.077737 -1.1346e-08 -0.016777 -0.077695 -0.012193 -0.011408 -0.074392 0.018251 0 0.0522 0.013048 -0.01344 0.052952 0.012905 -0.012905 0.048146 0.018453 0 0.057268 0.017848 -0.0011778 0.010411 0.012763 -0.012763 0.014847 0.01262 -0.013446 0.010307 0.018049 -0.0003424 0.015233 0.017445 9.5858e-10 -0.035824 0.012478 -0.012194 -0.028177 0.012335 -0.012165 -0.037869 0.017646 0.00040846 -0.031136 0.017176 0.00027111 -0.077837 0.012193 -0.011408 -0.074392 0.012145 -0.011783 -0.077737 0.017243 0.00037665 -0.071263 -0.018623 0 0.093143 -0.013168 -0.015216 0.09522 -0.013191 -0.013191 0.09918 -0.018654 0 0.09918 -0.013048 -0.013048 0.052952 -0.018251 0 0.0522 -0.012905 -0.012905 0.048146 -0.018453 0 0.057268 -0.012763 -0.012763 0.014978 -0.01805 -0.0003424 0.015233 -0.017848 -0.0011778 0.010411 -0.01262 -0.013446 0.010307 -0.012478 -0.012194 -0.028177 -0.017445 1.7357e-09 -0.035824 -0.012335 -0.012165 -0.037869 -0.017646 0.00040846 -0.031136 0.018623 0 0.093143 0.01319 -0.013191 0.09918 0.013168 -0.015216 0.095351 0.018654 0 0.09918 -4.251e-08 -0.018654 0.09918 -0.013191 -0.013191 0.09918 -0.013168 -0.015216 0.09522 -4.0274e-08 -0.02067 0.094358 -0.012193 -0.011408 -0.074392 -0.017243 0.00037665 -0.071263 -0.017176 0.00027111 -0.077837 -0.012145 -0.011783 -0.077737 0.013168 -0.015216 0.095351 -4.251e-08 -0.018654 0.09918 -4.0274e-08 -0.02067 0.094358 0.01319 -0.013191 0.09918 -3.5106e-08 0.018667 0.056415 0.013048 0.013048 0.059753 0.012905 0.013319 0.055064 -3.6004e-08 0.018453 0.060537 -2.7252e-08 0.017069 0.0067475 0.012763 0.010297 0.015083 0.01262 0.01196 0.0078546 -3.0233e-08 0.016049 0.016855 -1.9902e-08 0.017203 -0.032932 0.012478 0.0131 -0.029383 0.012335 0.012165 -0.033779 -2.1115e-08 0.018262 -0.029635 -1.1521e-08 0.017564 -0.072574 0.012193 0.012161 -0.068133 0.012145 0.012571 -0.072533 -1.3711e-08 0.017042 -0.066837 -3.5106e-08 0.018667 0.056415 -0.013048 0.013048 0.059753 -3.6004e-08 0.018453 0.060537 -0.012905 0.013319 0.055064 -2.7252e-08 0.017069 0.0067475 -0.012763 0.010271 0.014955 -3.0233e-08 0.016049 0.016855 -0.01262 0.01196 0.0078546 -1.9902e-08 0.017203 -0.032932 -0.012478 0.0131 -0.029383 -2.1115e-08 0.018262 -0.029635 -0.012335 0.012165 -0.033779 -1.1521e-08 0.017564 -0.072574 -0.012193 0.012161 -0.068133 -1.3711e-08 0.017042 -0.066837 -0.012145 0.012571 -0.072533 0.012905 0.013319 0.055064 0.018453 0 0.057268 0.018251 0 0.0522 0.013048 0.013048 0.059753 0.012763 0.010297 0.015083 0.017848 -0.0011778 0.010411 0.01262 0.01196 0.0078546 0.018049 -0.0003424 0.015233 0.012335 0.012165 -0.033779 0.017646 0.00040846 -0.031136 0.017445 9.5858e-10 -0.035824 0.012478 0.0131 -0.029383 0.012145 0.012571 -0.072533 0.017243 0.00037665 -0.071263 0.017176 0.00027111 -0.077837 0.012193 0.012161 -0.068133 -0.013168 0.013168 0.096726 -0.018654 0 0.09918 -0.013191 0.013191 0.09918 -0.018623 0 0.093143 -0.012905 0.013319 0.055064 -0.018453 0 0.057268 -0.013048 0.013048 0.059753 -0.018251 0 0.0522 -0.017848 -0.0011778 0.010411 -0.012763 0.010271 0.014955 -0.01262 0.01196 0.0078546 -0.01805 -0.0003424 0.015233 -0.012335 0.012165 -0.033779 -0.017646 0.00040846 -0.031136 -0.012478 0.0131 -0.029383 -0.017445 1.7357e-09 -0.035824 0.013168 0.013168 0.096726 0.018654 0 0.09918 0.018623 0 0.093143 0.01319 0.013191 0.09918 -0.013168 0.013168 0.096726 -4.251e-08 0.018654 0.09918 -4.1617e-08 0.018623 0.096726 -0.013191 0.013191 0.09918 -0.012145 0.012571 -0.072533 -0.017243 0.00037665 -0.071263 -0.012193 0.012161 -0.068133 -0.017176 0.00027111 -0.077837 0.013168 0.013168 0.096726 -4.251e-08 0.018654 0.09918 0.01319 0.013191 0.09918 -4.1617e-08 0.018623 0.096726 -0.017176 0.00027111 -0.077837 -0.014506 -0.014069 -0.081076 -0.012145 -0.011783 -0.077737 -0.020514 0.0023921 -0.079882 -0.020434 -0.00051221 -0.1055 -0.014449 0.014764 -0.10144 -0.012098 0.011647 -0.10524 -0.017109 -0.00056958 -0.10986 -0.012098 -0.012544 -0.11074 -0.020434 -0.00051221 -0.1055 -0.017109 -0.00056958 -0.10986 -0.014449 -0.014811 -0.10632 0.012145 0.012571 -0.072533 0.020514 0.0015079 -0.080766 0.014506 0.014804 -0.07682 0.017176 0.00027111 -0.077837 0.020514 0.0015079 -0.080766 0.012145 -0.011783 -0.077737 0.014506 -0.014069 -0.081076 0.017176 0.00027111 -0.077837 0.012098 0.011647 -0.10524 0.020434 -0.00051221 -0.1055 0.017109 -0.00056958 -0.10986 0.014449 0.014764 -0.10144 0.020434 -0.00051221 -0.1055 0.014449 -0.014811 -0.10632 0.012098 -0.012544 -0.11074 0.017109 -0.00056958 -0.10986 -0.012145 0.012571 -0.072533 -1.1521e-08 0.017564 -0.072574 -1.0805e-08 0.021364 -0.078377 -0.014506 0.014804 -0.07682 -0.020514 0.0023921 -0.079882 -0.014449 0.014764 -0.10144 -0.020434 -0.00051221 -0.1055 -0.014506 0.014804 -0.07682 0.014449 0.014764 -0.10144 0.020514 0.0015079 -0.080766 0.020434 -0.00051221 -0.1055 0.014506 0.014804 -0.07682 -0.014449 0.014764 -0.10144 -1.0805e-08 0.021364 -0.078377 -8.6734e-09 0.020651 -0.10217 -0.014506 0.014804 -0.07682 0.014449 0.014764 -0.10144 -1.0805e-08 0.021364 -0.078377 0.014506 0.014804 -0.07682 -8.6734e-09 0.020651 -0.10217 -0.014506 -0.014069 -0.081076 -0.020434 -0.00051221 -0.1055 -0.014449 -0.014811 -0.10632 -0.020514 0.0023921 -0.079882 0.020434 -0.00051221 -0.1055 0.014506 -0.014069 -0.081076 0.014449 -0.014811 -0.10632 0.020514 0.0015079 -0.080766 -1.0593e-08 -0.020755 -0.081975 -0.014449 -0.014811 -0.10632 -8.607e-09 -0.020733 -0.10667 -0.014506 -0.014069 -0.081076 0.014449 -0.014811 -0.10632 -1.0593e-08 -0.020755 -0.081975 -8.607e-09 -0.020733 -0.10667 0.014506 -0.014069 -0.081076 0.012098 -0.012544 -0.11074 -8.607e-09 -0.020733 -0.10667 -7.9889e-09 -0.017504 -0.11111 0.014449 -0.014811 -0.10632 -0.012145 0.012571 -0.072533 -0.020514 0.0023921 -0.079882 -0.017176 0.00027111 -0.077837 -0.014506 0.014804 -0.07682 0.014449 0.014764 -0.10144 -8.1716e-09 0.016592 -0.10577 -8.6734e-09 0.020651 -0.10217 0.012098 0.011647 -0.10524 0.012145 -0.011783 -0.077737 -1.1346e-08 -0.016777 -0.077695 -1.0593e-08 -0.020755 -0.081975 0.014506 -0.014069 -0.081076 -1.0805e-08 0.021364 -0.078377 0.012145 0.012571 -0.072533 0.014506 0.014804 -0.07682 -1.1521e-08 0.017564 -0.072574 -8.607e-09 -0.020733 -0.10667 -0.012098 -0.012544 -0.11074 -7.9889e-09 -0.017504 -0.11111 -0.014449 -0.014811 -0.10632 -0.014449 0.014764 -0.10144 -8.6734e-09 0.020651 -0.10217 -8.1716e-09 0.016592 -0.10577 -0.012098 0.011647 -0.10524 -1.0593e-08 -0.020755 -0.081975 -0.012145 -0.011783 -0.077737 -0.014506 -0.014069 -0.081076 -1.1346e-08 -0.016777 -0.077695 0.018623 0 0.093143 0.013168 -0.015216 0.095351 0.024209 0 0.087622 0.017119 -0.019166 0.087607 -0.018453 0 0.057268 -0.016962 -0.016962 0.059973 -0.023988 0 0.065466 -0.013048 -0.013048 0.052952 0.016962 -0.016962 0.059973 -3.8186e-08 -0.026257 0.083422 -3.5667e-08 -0.023988 0.059973 0.017119 -0.019166 0.087607 -3.8186e-08 -0.026257 0.083422 -0.017119 -0.019166 0.087607 -0.016962 -0.016962 0.059973 -3.5667e-08 -0.023988 0.059973 0.023988 0 0.065466 0.017119 -0.019166 0.087607 0.016962 -0.016962 0.059973 0.024209 0 0.087622 -0.017119 -0.019166 0.087607 -0.023988 0 0.065466 -0.016962 -0.016962 0.059973 -0.02421 0 0.087622 -0.013168 -0.015216 0.09522 -0.017119 -0.019166 0.087607 -3.8186e-08 -0.026257 0.083422 -4.0274e-08 -0.02067 0.094358 0.013048 -0.01344 0.052952 -3.5667e-08 -0.023988 0.059973 -3.4527e-08 -0.018453 0.051775 0.016962 -0.016962 0.059973 -0.013048 -0.013048 0.052952 -3.5667e-08 -0.023988 0.059973 -0.016962 -0.016962 0.059973 -3.4527e-08 -0.018453 0.051775 0.013168 -0.015216 0.095351 -3.8186e-08 -0.026257 0.083422 0.017119 -0.019166 0.087607 -4.0274e-08 -0.02067 0.094358 0.018453 0 0.057268 0.016962 -0.016962 0.059973 0.013048 -0.01344 0.052952 0.023988 0 0.065466 -0.013168 -0.015216 0.09522 -0.02421 0 0.087622 -0.017119 -0.019166 0.087607 -0.018623 0 0.093143 -2.8224e-08 -0.01805 0.014283 -0.016592 -0.016592 0.019453 -0.012763 -0.012763 0.014978 -2.8174e-08 -0.02425 0.019455 -2.8224e-08 -0.01805 0.014283 0.016592 -0.016592 0.019759 -2.8174e-08 -0.02425 0.019455 0.012763 -0.012763 0.014847 -0.012905 -0.012905 0.048146 -0.023726 0 0.04573 -0.016777 -0.016777 0.041675 -0.018251 0 0.0522 -0.016592 -0.016592 0.019453 -0.01805 -0.0003424 0.015233 -0.012763 -0.012763 0.014978 -0.023464 0.00020687 0.017949 0.016592 -0.016592 0.019759 -3.2197e-08 -0.023726 0.039321 -2.8174e-08 -0.02425 0.019455 0.016777 -0.016777 0.041675 -3.2197e-08 -0.023726 0.039321 -0.016592 -0.016592 0.019453 -2.8174e-08 -0.02425 0.019455 -0.016777 -0.016777 0.041675 0.023464 0.00020688 0.017949 0.016777 -0.016777 0.041675 0.016592 -0.016592 0.019759 0.023726 0 0.04573 -0.016777 -0.016777 0.041675 -0.023726 0 0.04573 -0.023464 0.00020687 0.017949 -0.016592 -0.016592 0.019453 -0.012478 -0.012194 -0.028177 -0.016221 -0.015895 -0.022049 -0.02294 0.00031105 -0.02602 -0.017646 0.00040846 -0.031136 0.016406 -0.01704 0.0057377 0.017848 -0.0011778 0.010411 0.01262 -0.013446 0.010307 0.023202 -0.0010752 0.005023 -2.6811e-08 -0.01855 0.010128 -0.01262 -0.013446 0.010307 -2.5801e-08 -0.023289 0.0034474 -0.016407 -0.01704 0.0057377 0.016406 -0.01704 0.0057377 -2.5801e-08 -0.023289 0.0034474 -2.1504e-08 -0.021159 -0.017541 0.016221 -0.015895 -0.022049 -2.1504e-08 -0.021159 -0.017541 -0.016407 -0.01704 0.0057377 -0.016221 -0.015895 -0.022049 -2.5801e-08 -0.023289 0.0034474 0.023202 -0.0010752 0.005023 0.016221 -0.015895 -0.022049 0.02294 0.00031105 -0.02602 0.016406 -0.01704 0.0057377 -0.016221 -0.015895 -0.022049 -0.023202 -0.0010752 0.005023 -0.02294 0.00031105 -0.02602 -0.016407 -0.01704 0.0057377 -0.012335 -0.012165 -0.037869 -0.017445 1.7357e-09 -0.035824 -0.016036 -0.015814 -0.043034 -0.022678 1.8523e-09 -0.040376 -0.015851 -0.014943 -0.068649 -0.017243 0.00037665 -0.071263 -0.012193 -0.011408 -0.074392 -0.022416 0.00037665 -0.067854 0.016036 -0.015814 -0.043034 0.017445 9.5858e-10 -0.035824 0.012335 -0.012165 -0.037869 0.022678 8.4201e-10 -0.040376 0.015851 -0.014943 -0.068649 -1.8582e-08 -0.021234 -0.04696 -1.3846e-08 -0.020347 -0.069653 0.016036 -0.015814 -0.043034 -1.8582e-08 -0.021234 -0.04696 -0.015851 -0.014943 -0.068649 -1.3846e-08 -0.020347 -0.069653 -0.016036 -0.015814 -0.043034 0.022416 0.00037665 -0.067854 0.016036 -0.015814 -0.043034 0.015851 -0.014943 -0.068649 0.022678 8.4201e-10 -0.040376 -0.016036 -0.015814 -0.043034 -0.022416 0.00037665 -0.067854 -0.015851 -0.014943 -0.068649 -0.022678 1.8523e-09 -0.040376 0.012905 -0.012905 0.048146 -3.2197e-08 -0.023726 0.039321 0.016777 -0.016777 0.041675 -3.3924e-08 -0.018251 0.048146 0.012193 -0.011408 -0.074392 -1.3846e-08 -0.020347 -0.069653 -1.3408e-08 -0.016289 -0.075688 0.015851 -0.014943 -0.068649 0.012763 -0.012763 0.014847 0.018049 -0.0003424 0.015233 0.016592 -0.016592 0.019759 0.023464 0.00020688 0.017949 -0.01262 -0.013446 0.010307 -0.017848 -0.0011778 0.010411 -0.016407 -0.01704 0.0057377 -0.023202 -0.0010752 0.005023 -0.012193 -0.011408 -0.074392 -1.3846e-08 -0.020347 -0.069653 -0.015851 -0.014943 -0.068649 -1.3408e-08 -0.016289 -0.075688 0.012478 -0.012194 -0.028177 -2.1504e-08 -0.021159 -0.017541 -2.0732e-08 -0.01717 -0.02678 0.016221 -0.015895 -0.022049 0.012335 -0.012165 -0.037869 -1.8582e-08 -0.021234 -0.04696 0.016036 -0.015814 -0.043034 -1.9704e-08 -0.017203 -0.038716 -0.012905 -0.012905 0.048146 -0.016777 -0.016777 0.041675 -3.2197e-08 -0.023726 0.039321 -3.3924e-08 -0.018251 0.048146 0.012193 -0.011408 -0.074392 0.017243 0.00037665 -0.071263 0.015851 -0.014943 -0.068649 0.022416 0.00037665 -0.067854 -0.012478 -0.012194 -0.028177 -2.1504e-08 -0.021159 -0.017541 -0.016221 -0.015895 -0.022049 -2.0732e-08 -0.01717 -0.02678 0.018251 0 0.0522 0.012905 -0.012905 0.048146 0.023726 0 0.04573 0.016777 -0.016777 0.041675 0.01262 -0.013446 0.010307 -2.5801e-08 -0.023289 0.0034474 0.016406 -0.01704 0.0057377 -2.6811e-08 -0.01855 0.010128 0.012478 -0.012194 -0.028177 0.02294 0.00031105 -0.02602 0.016221 -0.015895 -0.022049 0.017646 0.00040846 -0.031136 -0.012335 -0.012165 -0.037869 -0.016036 -0.015814 -0.043034 -1.8582e-08 -0.021234 -0.04696 -1.9704e-08 -0.017203 -0.038716 0.013168 0.013168 0.096726 0.024209 0 0.087622 0.017119 0.017119 0.091205 0.018623 0 0.093143 -0.023988 0 0.065466 -0.013048 0.013048 0.059753 -0.018453 0 0.057268 -0.016962 0.016962 0.067951 -3.7585e-08 0.023988 0.071351 0.017119 0.017119 0.091205 0.016962 0.016962 0.067951 -4.0441e-08 0.02421 0.091205 -3.7585e-08 0.023988 0.071351 -0.017119 0.017119 0.091205 -4.0441e-08 0.02421 0.091205 -0.016962 0.016962 0.067951 0.016962 0.016962 0.067951 0.024209 0 0.087622 0.023988 0 0.065466 0.017119 0.017119 0.091205 -0.016962 0.016962 0.067951 -0.02421 0 0.087622 -0.017119 0.017119 0.091205 -0.023988 0 0.065466 -0.017119 0.017119 0.091205 -4.1617e-08 0.018623 0.096726 -4.0441e-08 0.02421 0.091205 -0.013168 0.013168 0.096726 -3.7585e-08 0.023988 0.071351 0.013048 0.013048 0.059753 -3.6004e-08 0.018453 0.060537 0.016962 0.016962 0.067951 -0.013048 0.013048 0.059753 -3.7585e-08 0.023988 0.071351 -3.6004e-08 0.018453 0.060537 -0.016962 0.016962 0.067951 0.017119 0.017119 0.091205 -4.1617e-08 0.018623 0.096726 0.013168 0.013168 0.096726 -4.0441e-08 0.02421 0.091205 0.013048 0.013048 0.059753 0.023988 0 0.065466 0.018453 0 0.057268 0.016962 0.016962 0.067951 -0.02421 0 0.087622 -0.013168 0.013168 0.096726 -0.017119 0.017119 0.091205 -0.018623 0 0.093143 -0.012763 0.010271 0.014955 -3.1369e-08 0.020402 0.024009 -3.0233e-08 0.016049 0.016855 -0.016592 0.01389 0.020786 -3.1369e-08 0.020402 0.024009 0.012763 0.010297 0.015083 -3.0233e-08 0.016049 0.016855 0.016592 0.01389 0.020786 -0.018251 0 0.0522 -0.012905 0.013319 0.055064 -0.016777 0.015175 0.048107 -0.023726 0 0.04573 -0.016592 0.01389 0.020786 -0.01805 -0.0003424 0.015233 -0.023464 0.00020687 0.017949 -0.012763 0.010271 0.014955 -3.1369e-08 0.020402 0.024009 0.016777 0.015175 0.048107 0.016592 0.01389 0.020786 -3.3744e-08 0.022797 0.049013 -3.1369e-08 0.020402 0.024009 -0.016777 0.015175 0.048107 -3.3744e-08 0.022797 0.049013 -0.016592 0.01389 0.020786 0.016592 0.01389 0.020786 0.023726 0 0.04573 0.023464 0.00020688 0.017949 0.016777 0.015175 0.048107 -0.016592 0.01389 0.020786 -0.023726 0 0.04573 -0.016777 0.015175 0.048107 -0.023464 0.00020687 0.017949 -0.016221 0.015461 -0.024637 -0.017646 0.00040846 -0.031136 -0.02294 0.00031105 -0.02602 -0.012478 0.0131 -0.029383 0.01262 0.01196 0.0078546 0.023202 -0.0010752 0.005023 0.016406 0.015763 0.0016651 0.017848 -0.0011778 0.010411 -0.01262 0.01196 0.0078546 -2.599e-08 0.021351 -0.0021488 -0.016407 0.015763 0.0016651 -2.7252e-08 0.017069 0.0067475 0.016221 0.015461 -0.024637 -2.599e-08 0.021351 -0.0021488 0.016406 0.015763 0.0016651 -2.1731e-08 0.022172 -0.024964 -0.016221 0.015461 -0.024637 -2.599e-08 0.021351 -0.0021488 -2.1731e-08 0.022172 -0.024964 -0.016407 0.015763 0.0016651 0.02294 0.00031105 -0.02602 0.016406 0.015763 0.0016651 0.023202 -0.0010752 0.005023 0.016221 0.015461 -0.024637 -0.02294 0.00031105 -0.02602 -0.016407 0.015763 0.0016651 -0.016221 0.015461 -0.024637 -0.023202 -0.0010752 0.005023 -0.016036 0.015814 -0.037717 -0.022678 1.8523e-09 -0.040376 -0.017445 1.7357e-09 -0.035824 -0.012335 0.012165 -0.033779 -0.015851 0.015696 -0.063787 -0.017243 0.00037665 -0.071263 -0.022416 0.00037665 -0.067854 -0.012193 0.012161 -0.068133 0.016036 0.015814 -0.037717 0.017445 9.5858e-10 -0.035824 0.022678 8.4201e-10 -0.040376 0.012335 0.012165 -0.033779 -1.4162e-08 0.020724 -0.060407 0.016036 0.015814 -0.037717 0.015851 0.015696 -0.063786 -1.8871e-08 0.021799 -0.0385 -1.4162e-08 0.020724 -0.060407 -0.016036 0.015814 -0.037717 -1.8871e-08 0.021799 -0.0385 -0.015851 0.015696 -0.063787 0.015851 0.015696 -0.063786 0.022678 8.4201e-10 -0.040376 0.022416 0.00037665 -0.067854 0.016036 0.015814 -0.037717 -0.015851 0.015696 -0.063787 -0.022678 1.8523e-09 -0.040376 -0.016036 0.015814 -0.037717 -0.022416 0.00037665 -0.067854 -3.3744e-08 0.022797 0.049013 0.012905 0.013319 0.055064 0.016777 0.015175 0.048107 -3.5106e-08 0.018667 0.056415 -1.4162e-08 0.020724 -0.060407 0.012193 0.012161 -0.068133 -1.3711e-08 0.017042 -0.066837 0.015851 0.015696 -0.063786 0.016592 0.01389 0.020786 0.018049 -0.0003424 0.015233 0.012763 0.010297 0.015083 0.023464 0.00020688 0.017949 -0.023202 -0.0010752 0.005023 -0.01262 0.01196 0.0078546 -0.016407 0.015763 0.0016651 -0.017848 -0.0011778 0.010411 -0.012193 0.012161 -0.068133 -1.4162e-08 0.020724 -0.060407 -1.3711e-08 0.017042 -0.066837 -0.015851 0.015696 -0.063787 -2.1731e-08 0.022172 -0.024964 0.016221 0.015461 -0.024637 0.012478 0.0131 -0.029383 -2.1115e-08 0.018262 -0.029635 0.012335 0.012165 -0.033779 -1.8871e-08 0.021799 -0.0385 -1.9902e-08 0.017203 -0.032932 0.016036 0.015814 -0.037717 -0.012905 0.013319 0.055064 -3.3744e-08 0.022797 0.049013 -0.016777 0.015175 0.048107 -3.5106e-08 0.018667 0.056415 0.015851 0.015696 -0.063786 0.017243 0.00037665 -0.071263 0.012193 0.012161 -0.068133 0.022416 0.00037665 -0.067854 -0.012478 0.0131 -0.029383 -2.1731e-08 0.022172 -0.024964 -2.1115e-08 0.018262 -0.029635 -0.016221 0.015461 -0.024637 0.016777 0.015175 0.048107 0.018251 0 0.0522 0.023726 0 0.04573 0.012905 0.013319 0.055064 -2.599e-08 0.021351 -0.0021488 0.01262 0.01196 0.0078546 0.016406 0.015763 0.0016651 -2.7252e-08 0.017069 0.0067475 0.016221 0.015461 -0.024637 0.02294 0.00031105 -0.02602 0.017646 0.00040846 -0.031136 0.012478 0.0131 -0.029383 -0.012335 0.012165 -0.033779 -1.8871e-08 0.021799 -0.0385 -0.016036 0.015814 -0.037717 -1.9902e-08 0.017203 -0.032932 -8.4746e-08 0.042267 0.34739 0.0054571 0.03637 0.14326 -5.0332e-08 0.047102 0.14326 0.0054571 0.031534 0.34739 -0.0054572 0.03637 0.14326 -8.4746e-08 0.042267 0.34739 -5.0332e-08 0.047102 0.14326 -0.0054573 0.031534 0.34739 -5.0332e-08 -0.047102 0.14326 0.0054571 -0.03637 0.14326 0.0054571 -0.039392 0.34739 -8.4746e-08 -0.050124 0.34739 -5.0332e-08 -0.047102 0.14326 -0.0054573 -0.039392 0.34739 -0.0054572 -0.03637 0.14326 -8.4746e-08 -0.050124 0.34739 -1.397e-07 -0.039501 0.67335 -0.0054573 -0.03637 0.69336 -0.0054573 -0.032725 0.67335 -1.4307e-07 -0.047102 0.69336 -0.0054573 -0.032725 0.67335 -0.0054573 -0.042442 0.65335 -1.397e-07 -0.039501 0.67335 -1.3633e-07 -0.053175 0.65335 -1.3295e-07 -0.034296 0.63334 -0.0054573 -0.042442 0.65335 -0.0054573 -0.028484 0.63334 -1.3633e-07 -0.053175 0.65335 -0.0054573 -0.028484 0.63334 -0.0054573 -0.03637 0.61333 -1.3295e-07 -0.034296 0.63334 -1.2958e-07 -0.047102 0.61333 -1.2958e-07 -0.047102 0.61333 -0.0054573 -0.038608 0.54653 -1.1832e-07 -0.049341 0.54653 -0.0054573 -0.03637 0.61333 -1.1268e-07 -0.047102 0.51307 -0.0054573 -0.038608 0.54653 -0.0054573 -0.03637 0.51307 -1.1832e-07 -0.049341 0.54653 -1.397e-07 -0.039501 0.67335 0.0054571 -0.032725 0.67335 0.0054571 -0.03637 0.69336 -1.4307e-07 -0.047102 0.69336 0.0054571 -0.042442 0.65335 -1.397e-07 -0.039501 0.67335 -1.3633e-07 -0.053175 0.65335 0.0054571 -0.032725 0.67335 -1.3633e-07 -0.053175 0.65335 -1.3295e-07 -0.034296 0.63334 0.0054571 -0.042442 0.65335 0.0054571 -0.028484 0.63334 0.0054571 -0.03637 0.61333 -1.3295e-07 -0.034296 0.63334 -1.2958e-07 -0.047102 0.61333 0.0054571 -0.028484 0.63334 0.0054571 -0.038608 0.54653 -1.2958e-07 -0.047102 0.61333 -1.1832e-07 -0.049341 0.54653 0.0054571 -0.03637 0.61333 0.0054571 -0.038608 0.54653 -1.1268e-07 -0.047102 0.51307 0.0054571 -0.03637 0.51307 -1.1832e-07 -0.049341 0.54653 -1.5687e-07 -0.036369 0.77521 -1.5293e-07 -0.047102 0.75185 0.005457 -0.032083 0.76076 -0.0054573 -0.032083 0.76076 -1.5293e-07 -0.047102 0.75185 -1.5687e-07 -0.036369 0.77521 9.1078e-05 0 0.83 -1.6247e-07 -0.017495 0.80841 0.005457 0 0.80961 0.005457 -0.015973 0.79314 -1.5687e-07 -0.036369 0.77521 0.005457 -0.015973 0.79314 -1.6247e-07 -0.017495 0.80841 0.005457 -0.032083 0.76076 -0.0054574 -0.015973 0.79314 -0.0054573 -0.032083 0.76076 -1.5687e-07 -0.036369 0.77521 -1.6247e-07 -0.017495 0.80841 -1.1268e-07 -0.047102 0.51307 0.0054571 -0.03637 0.49695 0.0054571 -0.03637 0.51307 -0.0054573 -0.03637 0.51307 -1.0996e-07 -0.047102 0.49695 -1.1268e-07 -0.047102 0.51307 -1.0996e-07 -0.047102 0.49695 0.0054571 -0.03637 0.48083 -1.0724e-07 -0.047102 0.48083 -0.0054573 -0.03637 0.49695 -1.0724e-07 -0.047102 0.48083 -0.0054573 -0.03637 0.48083 -0.0054574 0 0.80961 -1.6247e-07 -0.017495 0.80841 9.1078e-05 0 0.83 -0.0054574 -0.015973 0.79314 0.0054571 -0.03637 0.69336 -1.5293e-07 -0.047102 0.75185 -1.4307e-07 -0.047102 0.69336 0.005457 -0.032083 0.76076 -1.5293e-07 -0.047102 0.75185 -0.0054573 -0.03637 0.69336 -1.4307e-07 -0.047102 0.69336 -0.0054573 -0.032083 0.76076 0.0054571 -0.03637 0.48083 -1.0532e-07 -0.042244 0.46942 0.0054571 -0.031512 0.46942 -1.0724e-07 -0.047102 0.48083 -1.0532e-07 -0.042244 0.46942 -0.0054573 -0.03637 0.48083 -0.0054573 -0.031512 0.46942 -1.0724e-07 -0.047102 0.48083 0.0054571 -0.03637 0.45491 -1.0532e-07 -0.042244 0.46942 -1.0287e-07 -0.047102 0.45491 0.0054571 -0.031512 0.46942 -1.0532e-07 -0.042244 0.46942 -0.0054573 -0.03637 0.45491 -1.0287e-07 -0.047102 0.45491 -0.0054573 -0.031512 0.46942 -8.4746e-08 -0.050124 0.34739 -0.0054573 -0.042414 0.43799 -0.0054573 -0.039392 0.34739 -1.0002e-07 -0.053146 0.43799 -8.4746e-08 -0.050124 0.34739 0.0054571 -0.039392 0.34739 0.0054571 -0.042414 0.43799 -1.0002e-07 -0.053146 0.43799 -1.0287e-07 -0.047102 0.45491 -0.0054573 -0.042414 0.43799 -1.0002e-07 -0.053146 0.43799 -0.0054573 -0.03637 0.45491 0.0054571 -0.042414 0.43799 -1.0287e-07 -0.047102 0.45491 -1.0002e-07 -0.053146 0.43799 0.0054571 -0.03637 0.45491 -0.0054573 0.03637 0.67335 -1.4307e-07 0.047102 0.69336 -1.397e-07 0.047102 0.67335 -0.0054573 0.03637 0.69336 -0.0054573 0.03637 0.67335 -1.3633e-07 0.032999 0.65335 -0.0054573 0.022266 0.65335 -1.397e-07 0.047102 0.67335 -0.0054573 0.03637 0.63334 -1.3633e-07 0.032999 0.65335 -1.3295e-07 0.047102 0.63334 -0.0054573 0.022266 0.65335 -0.0054573 0.03637 0.63334 -1.2958e-07 0.042401 0.61333 -0.0054573 0.031669 0.61333 -1.3295e-07 0.047102 0.63334 -0.0054573 0.03637 0.54653 -1.2958e-07 0.042401 0.61333 -1.1832e-07 0.047102 0.54653 -0.0054573 0.031669 0.61333 -0.0054573 0.03637 0.51307 -1.1832e-07 0.047102 0.54653 -1.1268e-07 0.047102 0.51307 -0.0054573 0.03637 0.54653 -1.397e-07 0.047102 0.67335 0.0054571 0.03637 0.69336 0.0054571 0.03637 0.67335 -1.4307e-07 0.047102 0.69336 -1.3633e-07 0.032999 0.65335 -1.397e-07 0.047102 0.67335 0.0054571 0.03637 0.67335 0.0054571 0.022266 0.65335 -1.3633e-07 0.032999 0.65335 0.0054571 0.03637 0.63334 -1.3295e-07 0.047102 0.63334 0.0054571 0.022266 0.65335 -1.2958e-07 0.042401 0.61333 0.0054571 0.03637 0.63334 0.0054571 0.031669 0.61333 -1.3295e-07 0.047102 0.63334 -1.2958e-07 0.042401 0.61333 0.0054571 0.03637 0.54653 -1.1832e-07 0.047102 0.54653 0.0054571 0.031669 0.61333 -1.1268e-07 0.047102 0.51307 0.0054571 0.03637 0.54653 0.0054571 0.03637 0.51307 -1.1832e-07 0.047102 0.54653 -1.5687e-07 0.036369 0.77521 0.005457 0.032083 0.76076 -1.5293e-07 0.047102 0.75185 -0.0054573 0.032083 0.76076 -1.5687e-07 0.036369 0.77521 -1.5293e-07 0.047102 0.75185 -1.6247e-07 0.017495 0.80841 9.1078e-05 0 0.83 0.005457 0 0.80961 0.005457 0.015973 0.79314 0.005457 0.015973 0.79314 -1.5687e-07 0.036369 0.77521 -1.6247e-07 0.017495 0.80841 0.005457 0.032083 0.76076 -0.0054573 0.032083 0.76076 -0.0054574 0.015973 0.79314 -1.5687e-07 0.036369 0.77521 -1.6247e-07 0.017495 0.80841 0.0054571 0.03637 0.51307 0.0054571 0.047728 0.50123 -1.1268e-07 0.047102 0.51307 -1.1014e-07 0.055199 0.50145 -0.0054573 0.047728 0.50123 -1.1268e-07 0.047102 0.51307 -1.1014e-07 0.055199 0.50145 -0.0054573 0.03637 0.51307 -1.0737e-07 0.035631 0.48578 0.0054571 0.047728 0.50123 0.0054571 0.025799 0.48466 -1.1014e-07 0.055199 0.50145 -1.1014e-07 0.055199 0.50145 -1.0737e-07 0.035631 0.48578 -0.0054573 0.047728 0.50123 -0.0054573 0.025799 0.48466 -1.6247e-07 0.017495 0.80841 -0.0054574 0 0.80961 9.1078e-05 0 0.83 -0.0054574 0.015973 0.79314 0.0054571 0.03637 0.69336 -1.5293e-07 0.047102 0.75185 0.005457 0.032083 0.76076 -1.4307e-07 0.047102 0.69336 -0.0054573 0.03637 0.69336 -1.5293e-07 0.047102 0.75185 -1.4307e-07 0.047102 0.69336 -0.0054573 0.032083 0.76076 0.0054571 0.025799 0.48466 0.0054571 0.042305 0.46831 -1.0737e-07 0.035631 0.48578 -1.0423e-07 0.050694 0.46686 -0.0054573 0.042305 0.46831 -1.0737e-07 0.035631 0.48578 -1.0423e-07 0.050694 0.46686 -0.0054573 0.025799 0.48466 -1.0274e-07 0.029234 0.45104 0.0054571 0.042305 0.46831 0.0054571 0.020751 0.45216 -1.0423e-07 0.050694 0.46686 -1.0423e-07 0.050694 0.46686 -1.0274e-07 0.029234 0.45104 -0.0054573 0.042305 0.46831 -0.0054573 0.020751 0.45216 -0.0054573 0.03637 0.4396 -8.4746e-08 0.042267 0.34739 -0.0054573 0.031534 0.34739 -1.0029e-07 0.047102 0.4396 -8.4746e-08 0.042267 0.34739 0.0054571 0.03637 0.4396 0.0054571 0.031534 0.34739 -1.0029e-07 0.047102 0.4396 -0.0054573 0.03637 0.4396 -1.0274e-07 0.029234 0.45104 -1.0029e-07 0.047102 0.4396 -0.0054573 0.020751 0.45216 0.0054571 0.020751 0.45216 0.0054571 0.03637 0.4396 -1.0274e-07 0.029234 0.45104 -1.0029e-07 0.047102 0.4396 0.0054571 0.015973 0.14326 0.0054571 0.031534 0.34739 0.0054571 0.015973 0.34739 -0.0054572 0.015973 0.14326 -0.0054573 0.031534 0.34739 -0.0054572 0.03637 0.14326 0.0054571 0 0.15446 0.0054571 0 0.34739 0.0054571 -0.015973 0.34739 0.0054571 -0.015973 0.14326 -0.0054572 -0.03637 0.14326 -0.0054573 -0.015973 0.34739 -0.0054572 -0.015973 0.14326 -0.0054573 -0.032725 0.67335 -0.0054573 -0.015973 0.69336 -0.0054573 -0.015973 0.67335 -0.0054573 -0.032725 0.67335 -0.0054573 -0.015973 0.65335 -0.0054573 -0.042442 0.65335 -0.0054573 -0.015973 0.67335 -0.0054573 -0.028484 0.63334 -0.0054573 -0.015973 0.65335 -0.0054573 -0.015973 0.63334 -0.0054573 -0.042442 0.65335 -0.0054573 -0.028484 0.63334 -0.0054573 -0.015973 0.61333 -0.0054573 -0.03637 0.61333 -0.0054573 -0.015973 0.54653 -0.0054573 -0.038608 0.54653 0.0054571 -0.015973 0.65335 0.0054571 -0.032725 0.67335 0.0054571 -0.042442 0.65335 0.0054571 -0.015973 0.67335 0.0054571 -0.015973 0.65335 0.0054571 -0.042442 0.65335 0.0054571 -0.028484 0.63334 0.0054571 -0.015973 0.63334 0.0054571 -0.028484 0.63334 0.0054571 -0.015973 0.61333 0.0054571 -0.015973 0.63334 0.0054571 -0.03637 0.61333 0.0054571 -0.015973 0.54653 0.0054571 0 0.61333 0.0054571 -0.015973 0.51307 0.0054571 0 0.54653 0.0054571 -0.03637 0.51307 0.0054571 -0.038608 0.54653 -0.0054573 0 0.65335 -0.0054573 -0.015973 0.65335 -0.0054573 0 0.67335 -0.0054573 0 0.63334 -0.0054573 -0.015973 0.63334 -0.0054573 0 0.61333 -0.0054573 0 0.54653 -0.0054573 -0.03637 0.51307 -0.0054573 0 0.51307 -0.0054573 -0.015973 0.51307 0.0054571 0 0.49695 0.0054571 0 0.51307 0.0054571 -0.015973 0.49695 -0.0054573 -0.03637 0.49695 -0.0054573 -0.015973 0.49695 0.0054571 -0.03637 0.49695 0.0054571 -0.015973 0.48083 -0.0054573 0 0.49695 -0.0054573 -0.03637 0.48083 0.0054571 0 0.48083 0.005457 -0.015973 0.79314 0.0054571 0 0.69336 0.005457 0 0.80961 0.005457 -0.032083 0.76076 0.0054571 -0.015973 0.69336 0.0054571 -0.03637 0.69336 0.0054571 -0.032725 0.67335 0.0054571 -0.015973 0.67335 -0.0054573 -0.03637 0.69336 -0.0054573 -0.032083 0.76076 -0.0054573 0 0.69336 -0.0054574 -0.015973 0.79314 0.0054571 0 0.46942 0.0054571 -0.03637 0.48083 -0.0054573 -0.015973 0.48083 0.0054571 -0.031512 0.46942 0.0054571 -0.015973 0.48083 0.0054571 -0.03637 0.48083 0.0054571 -0.015973 0.46942 -0.0054573 -0.031512 0.46942 -0.0054573 0 0.48083 0.0054571 -0.015973 0.46942 0.0054571 0 0.45491 -0.0054573 -0.015973 0.46942 -0.0054573 0 0.46942 -0.0054573 -0.015973 0.45491 -0.0054573 -0.03637 0.45491 0.0054571 -0.015973 0.45491 0.0054571 -0.031512 0.46942 0.0054571 -0.03637 0.45491 0.0054571 -0.015973 0.46942 -0.0054573 -0.039392 0.34739 -0.0054573 -0.015973 0.43799 0.0054571 -0.039392 0.34739 0.0054571 -0.03637 0.14326 0.0054571 -0.042414 0.43799 0.0054571 -0.015973 0.43799 -0.0054572 0 0.15446 0.0054571 0 0.43799 0.0054571 -0.015973 0.45491 -0.0054573 0 0.45491 -0.0054573 -0.042414 0.43799 -0.0054573 0 0.34739 -0.0054573 0 0.43799 0.0054571 -0.015973 0.43799 0.0054571 -0.03637 0.45491 0.0054571 -0.042414 0.43799 0.0054571 -0.015973 0.45491 -0.0054574 0 0.80961 -0.0054573 0.03637 0.67335 -0.0054573 0.022266 0.65335 -0.0054573 0.015973 0.67335 -0.0054573 0.015973 0.63334 -0.0054573 0.015973 0.65335 -0.0054573 0.031669 0.61333 -0.0054573 0.015973 0.54653 -0.0054573 0.015973 0.61333 0.0054571 0.03637 0.67335 0.0054571 0.015973 0.69336 0.0054571 0.015973 0.67335 0.0054571 0.022266 0.65335 0.0054571 0.015973 0.65335 0.0054571 0.015973 0.63334 0.0054571 0.03637 0.63334 0.0054571 0.031669 0.61333 0.0054571 0.015973 0.61333 0.0054571 0.015973 0.54653 0.0054571 0.03637 0.54653 0.0054571 0.03637 0.51307 0.0054571 0.015973 0.51307 0.0054571 0 0.67335 0.0054571 -0.015973 0.65335 0.0054571 0 0.65335 0.0054571 0 0.63334 -0.0054574 0.015973 0.79314 -0.0054573 0.015973 0.69336 -0.0054573 0.03637 0.63334 -0.0054573 0.03637 0.54653 -0.0054573 0.03637 0.51307 -0.0054573 0.015973 0.51307 0.005457 0.015973 0.79314 0.0054571 0.015973 0.49695 -0.0054573 0.015973 0.49695 -0.0054573 0.03637 0.51307 -0.0054573 0.047728 0.50123 -0.0054573 0.015973 0.51307 0.0054571 0.015973 0.49695 0.0054571 0.047728 0.50123 0.0054571 0.03637 0.51307 0.0054571 0.015973 0.51307 -0.0054573 0.015973 0.49695 -0.0054573 0.015973 0.49695 -0.0054573 0.025799 0.48466 -0.0054573 0.015973 0.48083 -0.0054573 0.047728 0.50123 0.0054571 0.047728 0.50123 0.0054571 0.015973 0.49695 0.0054571 0.025799 0.48466 0.0054571 0.015973 0.48083 -0.0054573 0.015973 0.48083 0.0054571 0.015973 0.48083 0.0054571 0.03637 0.69336 0.005457 0.032083 0.76076 -0.0054573 0.032083 0.76076 -0.0054573 0.03637 0.69336 0.0054571 0.015973 0.46942 -0.0054573 0.025799 0.48466 -0.0054573 0.015973 0.46942 0.0054571 0.015973 0.46942 0.0054571 0.042305 0.46831 0.0054571 0.025799 0.48466 0.0054571 0.015973 0.48083 -0.0054573 0.042305 0.46831 -0.0054573 0.015973 0.45491 0.0054571 0.015973 0.45491 -0.0054573 0.015973 0.46942 -0.0054573 0.020751 0.45216 -0.0054573 0.015973 0.45491 -0.0054573 0.042305 0.46831 0.0054571 0.015973 0.46942 0.0054571 0.020751 0.45216 0.0054571 0.042305 0.46831 0.0054571 0.015973 0.45491 -0.0054573 0.015973 0.34739 -0.0054573 0.03637 0.4396 -0.0054573 0.015973 0.43799 0.0054571 0.03637 0.14326 0.0054571 0.015973 0.43799 0.0054571 0.03637 0.4396 -0.0054573 0.015973 0.43799 -0.0054573 0.020751 0.45216 -0.0054573 0.03637 0.4396 -0.0054573 0.015973 0.45491 0.0054571 0.015973 0.43799 0.0054571 0.03637 0.4396 0.0054571 0.020751 0.45216 0.0054571 0.015973 0.45491</float_array><technique_common><accessor source="#g-p-a" count="1504" stride="3"><param name="X" type="float"/><param name="Y" type="float"/><param name="Z" type="float"/></accessor></technique_common></source>
<source id="g-n"><float_array id="g-n-a" count="4512">1.6859e-07 -9.5936e-16 -1 1.6859e-07 -9.6002e-16 -1 1.6859e-07 -3.1944e-15 -1 1.6859e-07 1.2749e-15 -1 1.6859e-07 -2.0014e-15 -1 1.6859e-07 -3.1942e-15 -1 1.6859e-07 -2.0013e-15 -1 1.6859e-07 -8.0858e-16 -1 1.6859e-07 -8.0734e-16 -1 1.6859e-07 0 -1 1.6859e-07 0 -1 1.6859e-07 5.6469e-15 -1 1.6859e-07 5.6469e-15 -1 1.6859e-07 5.6469e-15 -1 1.6859e-07 5.648e-15 -1 1.6859e-07 5.648e-15 -1 1.6859e-07 5.648e-15 -1 1.6859e-07 -5.9769e-15 -1 1.6859e-07 -5.9769e-15 -1 1.6859e-07 -5.9769e-15 -1 1.6859e-07 -5.9781e-15 -1 1.6859e-07 -5.9781e-15 -1 1.6859e-07 -5.9781e-15 -1 1.6859e-07 8.0734e-16 -1 1.6859e-07 2.0697e-15 -1 1.6859e-07 2.0695e-15 -1 1.6859e-07 8.0862e-16 -1 1.6859e-07 3.3306e-15 -1 1.6859e-07 1.0278e-15 -1 1.6859e-07 1.028e-15 -1 1.6859e-07 3.3304e-15 -1 1.6859e-07 -1.2752e-15 -1 0.96785 0.25152 0.0014793 0.9673 0.25359 0.0038042 0.9639 0.26568 0.017418 0.9707 0.24001 -0.011368 -2.5183e-08 -0.98878 0.14937 -2.5183e-08 -0.98878 0.14937 -2.5183e-08 -0.98878 0.14937 -2.5183e-08 -0.98878 0.14937 -0.38126 0.92043 -0.086291 -0.38126 0.92043 -0.086291 -0.38126 0.92043 -0.086291 -0.38126 0.92043 -0.086291 -0.9673 -0.25359 0.0038038 -0.9639 -0.26568 0.017418 -0.96785 -0.25152 0.0014789 -0.9707 -0.24001 -0.011369 -0.38126 -0.92043 -0.086291 -0.38126 -0.92043 -0.086291 -0.38126 -0.92043 -0.086291 -0.38126 -0.92043 -0.086291 0.96785 -0.25152 0.0014793 0.9673 -0.25359 0.0038042 0.9707 -0.24001 -0.011368 0.9639 -0.26568 0.017418 0.38126 0.92043 -0.086291 0.38126 0.92043 -0.086291 0.38126 0.92043 -0.086291 0.38126 0.92043 -0.086291 -0.9673 0.25359 0.0038038 -0.96785 0.25152 0.0014789 -0.9639 0.26568 0.017418 -0.9707 0.24001 -0.011369 -1.2703e-07 0.65746 0.75349 -1.2703e-07 0.65746 0.75349 -1.2703e-07 0.65746 0.75349 -1.2703e-07 0.65746 0.75349 -1.2703e-07 -0.65746 0.75349 -1.2703e-07 -0.65746 0.75349 -1.2703e-07 -0.65746 0.75349 -1.2703e-07 -0.65746 0.75349 0.0052717 0.0017589 0.99998 0.017849 0.005955 0.99982 -1.6859e-07 0 1 0.020058 0.006692 0.99978 0.13465 -0.59428 0.7929 0.05528 -0.62721 0.77688 0.20228 -0.56224 0.80186 -1.2851e-07 -0.64723 0.76229 -0.0031772 0.014354 0.99989 -0.015256 0.0077574 0.99985 -0.012402 0.0093165 0.99988 -1.6857e-07 0.016089 0.99987 -0.12319 -0.356 -0.92633 -0.026786 -0.38537 -0.92237 -0.14454 -0.34895 -0.92593 1.5504e-07 -0.39283 -0.91961 1 3.6492e-08 1.9999e-07 1 2.0909e-08 2.2718e-07 1 5.4486e-08 1.6859e-07 1 6.2907e-10 2.6257e-07 -0.13465 -0.59428 0.7929 -0.20228 -0.56224 0.80186 -0.05528 -0.62721 0.77688 -1.2851e-07 -0.64723 0.76229 -1 -2.0909e-08 -2.2718e-07 -1 -3.6492e-08 -1.9999e-07 -1 -5.4486e-08 -1.6859e-07 -1 -6.2907e-10 -2.6257e-07 1 2.2157e-07 3.7648e-07 1 2.2861e-07 4.7145e-07 1 2.2672e-07 4.4586e-07 1 2.2016e-07 3.5743e-07 -2.5183e-08 0.98878 0.14937 -2.5183e-08 0.98878 0.14937 -2.5183e-08 0.98878 0.14937 -2.5183e-08 0.98878 0.14937 0 -1 0 0 -1 0 0 -1 0 0.012401 0.0093165 0.99988 0.0031769 0.014354 0.99989 -1.6857e-07 0.016089 0.99987 0.015256 0.0077574 0.99985 0.92388 -0.38268 1.5575e-07 0.92388 -0.38268 1.5575e-07 0.92388 -0.38268 1.5575e-07 0.92388 -0.38268 1.5575e-07 1.6859e-07 -1.2746e-15 -1 1.6859e-07 -1.2746e-15 -1 1.6859e-07 -1.2746e-15 -1 1.4372e-07 -0.52272 -0.8525 1.4372e-07 -0.52272 -0.8525 1.4372e-07 -0.52272 -0.8525 1.4372e-07 -0.52272 -0.8525 -0.92388 -0.38268 -1.5575e-07 -0.92388 -0.38268 -1.5575e-07 -0.92388 -0.38268 -1.5575e-07 -0.92388 -0.38268 -1.5575e-07 0.12319 -0.356 -0.92633 0.026787 -0.38537 -0.92237 1.5504e-07 -0.39283 -0.91961 0.14454 -0.34895 -0.92593 -0.020058 0.006692 0.99978 -0.005272 0.0017589 0.99998 -0.017849 0.005955 0.99982 -1.6859e-07 0 1 -1 -1.8775e-07 -3.8369e-07 -1 -1.8533e-07 -3.5106e-07 -1 -1.8466e-07 -3.4209e-07 -1 -1.8864e-07 -3.9573e-07 5.0154e-08 -0.95472 -0.2975 5.0154e-08 -0.95472 -0.2975 5.0154e-08 -0.95472 -0.2975 5.0154e-08 -0.95472 -0.2975 1.4372e-07 -0.52272 -0.8525 1.4372e-07 -0.52272 -0.8525 1.4372e-07 -0.52272 -0.8525 1.4372e-07 -0.52272 -0.8525 -5.8511e-08 -0.93784 0.34707 -5.8511e-08 -0.93784 0.34707 -5.8511e-08 -0.93784 0.34707 -2.5183e-08 0.98878 0.14937 -2.5183e-08 0.98878 0.14937 -2.5183e-08 0.98878 0.14937 -2.5183e-08 0.98878 0.14937 -1 -2.3433e-08 -1.3345e-07 -1 -3.8356e-08 -1.1107e-07 -1 -1.7464e-08 -1.424e-07 -1 -1.8049e-17 -1.6859e-07 5.0154e-08 -0.95472 -0.2975 5.0154e-08 -0.95472 -0.2975 5.0154e-08 -0.95472 -0.2975 5.0154e-08 -0.95472 -0.2975 1 2.3433e-08 1.3345e-07 1 1.7464e-08 1.424e-07 1 3.8356e-08 1.1107e-07 1 1.8049e-17 1.6859e-07 1 1.3854e-17 1.6859e-07 1 1.3854e-17 1.6859e-07 1 1.3854e-17 1.6859e-07 -1.2703e-07 0.65746 0.75349 -1.2703e-07 0.65746 0.75349 -1.2703e-07 0.65746 0.75349 -1.2703e-07 0.65746 0.75349 -1 -1.3854e-17 -1.6859e-07 -1 -1.3854e-17 -1.6859e-07 -1 -1.3854e-17 -1.6859e-07 -5.8511e-08 -0.93784 0.34707 -5.8511e-08 -0.93784 0.34707 -5.8511e-08 -0.93784 0.34707 0.16785 -0.40523 -0.89867 0.16785 -0.40523 -0.89867 0.16785 -0.40523 -0.89867 0.16785 -0.40523 -0.89867 -0.54449 -0.15008 -0.82523 -0.54672 -0.16598 -0.8207 -0.54937 -0.18638 -0.81452 -0.55418 -0.22955 -0.80012 -0.16785 -0.40523 -0.89867 -0.16785 -0.40523 -0.89867 -0.16785 -0.40523 -0.89867 -0.16785 -0.40523 -0.89867 0.54672 -0.16598 -0.8207 0.54937 -0.18638 -0.81452 0.55418 -0.22955 -0.80012 0.54449 -0.15008 -0.82523 0 -1 0 0 -1 0 0 -1 0 0.82515 -0.25517 0.50399 0.82537 -0.25778 0.50231 0.81911 -0.20253 0.53669 0.82807 -0.343 0.44346 0.24764 -0.59785 0.7624 0.24764 -0.59785 0.7624 0.24764 -0.59785 0.7624 0.24764 -0.59785 0.7624 -0.24764 -0.59785 0.7624 -0.24764 -0.59785 0.7624 -0.24764 -0.59785 0.7624 -0.24764 -0.59785 0.7624 -0.82515 -0.25517 0.50399 -0.81911 -0.20253 0.53669 -0.82537 -0.25778 0.50231 -0.82807 -0.343 0.44346 0.017849 -0.005955 0.99982 0.0052717 -0.0017589 0.99998 -1.6859e-07 0 1 0.020058 -0.006692 0.99978 0.13465 0.59428 0.7929 0.05528 0.62721 0.77688 -1.2851e-07 0.64723 0.76229 0.20228 0.56224 0.80186 -0.015256 -0.0077574 0.99985 -0.0031772 -0.014354 0.99989 -0.012402 -0.0093165 0.99988 -1.6857e-07 -0.016089 0.99987 1.5504e-07 0.39283 -0.91961 -0.12319 0.356 -0.92633 -0.026786 0.38537 -0.92237 -0.14454 0.34895 -0.92593 1 -6.2907e-10 2.6257e-07 1 -3.6492e-08 1.9999e-07 1 -2.0909e-08 2.2718e-07 1 -5.4486e-08 1.6859e-07 -0.13465 0.59428 0.7929 -0.05528 0.62721 0.77688 -0.20228 0.56224 0.80186 -1.2851e-07 0.64723 0.76229 -1 2.0909e-08 -2.2718e-07 -1 3.6492e-08 -1.9999e-07 -1 6.2907e-10 -2.6257e-07 -1 5.4486e-08 -1.6859e-07 1 -2.1489e-07 4.4546e-07 1 -2.1037e-07 3.6884e-07 1 -2.1362e-07 4.2383e-07 1 -2.0942e-07 3.5279e-07 5.0154e-08 0.95472 -0.2975 5.0154e-08 0.95472 -0.2975 5.0154e-08 0.95472 -0.2975 5.0154e-08 0.95472 -0.2975 -1.3823e-08 0.99663 0.081993 -1.3823e-08 0.99663 0.081993 -1.3823e-08 0.99663 0.081993 -1.3823e-08 0.99663 0.081993 0.012401 -0.0093165 0.99988 0.0031769 -0.014354 0.99989 0.015256 -0.0077574 0.99985 -1.6857e-07 -0.016089 0.99987 0.92388 0.38268 1.5575e-07 0.92388 0.38268 1.5575e-07 0.92388 0.38268 1.5575e-07 0.92388 0.38268 1.5575e-07 1.6859e-07 1.2746e-15 -1 1.6859e-07 1.2746e-15 -1 1.6859e-07 1.2746e-15 -1 1.4543e-07 0.50581 -0.86264 1.4543e-07 0.50581 -0.86264 1.4543e-07 0.50581 -0.86264 1.4543e-07 0.50581 -0.86264 -0.92388 0.38268 -1.5575e-07 -0.92388 0.38268 -1.5575e-07 -0.92388 0.38268 -1.5575e-07 -0.92388 0.38268 -1.5575e-07 0.026787 0.38537 -0.92237 0.12319 0.356 -0.92633 1.5504e-07 0.39283 -0.91961 0.14454 0.34895 -0.92593 -0.005272 -0.0017589 0.99998 -0.017849 -0.005955 0.99982 -1.6859e-07 0 1 -0.020058 -0.006692 0.99978 -1 1.7584e-07 -3.4449e-07 -1 1.7713e-07 -3.6631e-07 -1 1.7546e-07 -3.3812e-07 -1 1.7764e-07 -3.7489e-07 -2.5183e-08 -0.98878 0.14937 -2.5183e-08 -0.98878 0.14937 -2.5183e-08 -0.98878 0.14937 -2.5183e-08 -0.98878 0.14937 1.4543e-07 0.50581 -0.86264 1.4543e-07 0.50581 -0.86264 1.4543e-07 0.50581 -0.86264 1.4543e-07 0.50581 -0.86264 -1 2.3433e-08 -1.3345e-07 -1 1.7464e-08 -1.424e-07 -1 3.8356e-08 -1.1107e-07 -1 1.8049e-17 -1.6859e-07 5.0154e-08 0.95472 -0.2975 5.0154e-08 0.95472 -0.2975 5.0154e-08 0.95472 -0.2975 5.0154e-08 0.95472 -0.2975 1 -1.7464e-08 1.424e-07 1 -2.3433e-08 1.3345e-07 1 -3.8356e-08 1.1107e-07 1 -1.8049e-17 1.6859e-07 0.38126 -0.92043 -0.086291 0.38126 -0.92043 -0.086291 0.38126 -0.92043 -0.086291 0.38126 -0.92043 -0.086291 1 -1.3854e-17 1.6859e-07 1 -1.3854e-17 1.6859e-07 1 -1.3854e-17 1.6859e-07 -1.2703e-07 -0.65746 0.75349 -1.2703e-07 -0.65746 0.75349 -1.2703e-07 -0.65746 0.75349 -1.2703e-07 -0.65746 0.75349 -1 1.3854e-17 -1.6859e-07 -1 1.3854e-17 -1.6859e-07 -1 1.3854e-17 -1.6859e-07 -5.8511e-08 0.93784 0.34707 -5.8511e-08 0.93784 0.34707 -5.8511e-08 0.93784 0.34707 -5.8511e-08 0.93784 0.34707 -5.8511e-08 0.93784 0.34707 -5.8511e-08 0.93784 0.34707 0.16785 0.40523 -0.89867 0.16785 0.40523 -0.89867 0.16785 0.40523 -0.89867 0.16785 0.40523 -0.89867 -0.54672 0.16598 -0.8207 -0.54449 0.15008 -0.82523 -0.54937 0.18638 -0.81452 -0.55418 0.22955 -0.80012 -0.16785 0.40523 -0.89867 -0.16785 0.40523 -0.89867 -0.16785 0.40523 -0.89867 -0.16785 0.40523 -0.89867 0.54672 0.16598 -0.8207 0.54937 0.18638 -0.81452 0.54449 0.15008 -0.82523 0.55418 0.22955 -0.80012 -1.3823e-08 0.99663 0.081993 -1.3823e-08 0.99663 0.081993 -1.3823e-08 0.99663 0.081993 -1.3823e-08 0.99663 0.081993 0.82537 0.25778 0.50231 0.82515 0.25517 0.50399 0.81911 0.20253 0.53669 0.82807 0.343 0.44346 0.24764 0.59785 0.7624 0.24764 0.59785 0.7624 0.24764 0.59785 0.7624 0.24764 0.59785 0.7624 -0.24764 0.59785 0.7624 -0.24764 0.59785 0.7624 -0.24764 0.59785 0.7624 -0.24764 0.59785 0.7624 -0.82515 0.25517 0.50399 -0.82537 0.25778 0.50231 -0.81911 0.20253 0.53669 -0.82807 0.343 0.44346 -0.92608 0.37696 0.016923 -0.92458 0.37998 0.027603 -0.92672 0.37556 0.01206 -0.92327 0.38243 0.036371 0.92608 0.37696 0.016924 0.92458 0.37998 0.027604 0.92327 0.38243 0.036372 0.92672 0.37556 0.012061 -0.37861 0.92454 0.043399 -0.38008 0.92381 0.045903 -0.38221 0.92274 0.049557 -0.37656 0.92553 0.0399 0.37861 0.92454 0.0434 0.38008 0.92381 0.045903 0.37656 0.92553 0.0399 0.38221 0.92274 0.049557 -0.92208 -0.38104 -0.067646 -0.92195 -0.3817 -0.065724 -0.92191 -0.38187 -0.065241 -0.92212 -0.38085 -0.068225 0.92195 -0.3817 -0.065722 0.92208 -0.38104 -0.067645 0.92191 -0.38187 -0.06524 0.92212 -0.38085 -0.068224 -0.379 -0.91485 -0.13929 -0.37924 -0.91489 -0.13842 -0.37894 -0.91485 -0.13951 -0.37929 -0.9149 -0.13823 0.37924 -0.91489 -0.13842 0.379 -0.91485 -0.13929 0.37894 -0.91485 -0.13951 0.37929 -0.9149 -0.13822 0.36806 -0.92402 -0.10354 0.37879 -0.92325 -0.064212 0.38218 -0.92267 -0.051251 0.36519 -0.92397 -0.11366 0.3742 -0.91908 0.12353 0.37197 -0.92121 0.11401 0.37125 -0.92188 0.11093 0.37484 -0.91844 0.12633 0.37496 -0.92704 -0.003274 0.37386 -0.92748 -0.0017569 0.37863 -0.92551 -0.0083418 0.37067 -0.92876 0.0026187 0.36204 -0.92556 0.11074 0.3704 -0.90669 0.20177 0.37164 -0.90215 0.21912 0.36075 -0.92739 0.099021 -0.38284 -0.92253 -0.048682 -0.38487 -0.92207 -0.040764 -0.38218 -0.92267 -0.051251 -0.38538 -0.92194 -0.038773 -0.37183 -0.92135 0.11339 -0.37355 -0.91972 0.12075 -0.37125 -0.92188 0.11093 -0.37406 -0.91922 0.12293 -0.37386 -0.92748 -0.001757 -0.37496 -0.92704 -0.0032741 -0.37863 -0.92551 -0.0083419 -0.37067 -0.92876 0.0026187 -0.3704 -0.90669 0.20177 -0.36204 -0.92556 0.11074 -0.37164 -0.90215 0.21912 -0.36075 -0.92739 0.099021 0.93091 -0.36276 -0.042602 0.92959 -0.36334 -0.062025 0.92911 -0.36349 -0.068009 0.93122 -0.36257 -0.03704 0.9194 -0.3922 0.029632 0.91944 -0.39209 0.029967 0.91945 -0.39205 0.030086 0.91939 -0.39224 0.029521 0.92395 -0.38239 -0.0096219 0.9232 -0.38411 -0.012854 0.92276 -0.38511 -0.014724 0.92465 -0.38077 -0.0065815 0.92002 -0.39188 0.0023163 0.92182 -0.38702 0.021383 0.92253 -0.38475 0.030104 0.91944 -0.39322 -0.0030832 -0.92846 -0.37055 0.025814 -0.93644 -0.31446 0.15555 -0.93622 -0.32882 0.12397 -0.92387 -0.38268 -0.0048198 -0.92743 -0.37203 -0.038227 -0.92749 -0.37199 -0.037189 -0.92742 -0.37204 -0.038539 -0.92751 -0.37198 -0.036893 -0.91948 -0.39204 0.02929 -0.9195 -0.39197 0.029469 -0.9195 -0.39199 0.029423 -0.91948 -0.39205 0.029243 -0.9232 -0.38411 -0.012854 -0.92395 -0.38239 -0.0096222 -0.92276 -0.38511 -0.014724 -0.92465 -0.38077 -0.0065818 0.92847 -0.37051 0.025904 0.9363 -0.32718 0.12762 0.93638 -0.31248 0.15982 0.92387 -0.38268 -0.0048195 -0.33812 -0.86326 0.37478 -0.34629 -0.83603 0.42561 -0.34436 -0.8431 0.41303 -0.33614 -0.86894 0.36326 -0.92182 -0.38702 0.021382 -0.91944 -0.39322 -0.0030838 -0.92002 -0.39188 0.0023157 -0.92253 -0.38475 0.030103 0.34205 -0.83926 0.42267 0.3351 -0.86347 0.37701 0.33293 -0.86999 0.3637 0.34413 -0.83081 0.4374 0.38501 0.92173 0.046759 0.38594 0.92153 0.042779 0.38621 0.92147 0.04161 0.38471 0.92179 0.048037 0.39937 0.90806 0.12622 0.38059 0.91123 0.15754 0.35203 0.91366 0.20324 0.41966 0.9031 0.091109 0.36907 0.88962 -0.26899 0.36029 0.907 -0.21802 0.35797 0.91086 -0.20539 0.37145 0.884 -0.28386 0.37817 0.92196 0.08348 0.37854 0.92191 0.0824 0.37872 0.92188 0.081873 0.37803 0.92198 0.083903 -0.38501 0.92173 0.046759 -0.38594 0.92153 0.042778 -0.38471 0.92179 0.048037 -0.38621 0.92147 0.041609 -0.401 0.90713 0.12774 -0.38098 0.91036 0.16156 -0.42192 0.90205 0.091004 -0.35099 0.91253 0.20999 -0.36907 0.88962 -0.26899 -0.36029 0.907 -0.21802 -0.37145 0.884 -0.28386 -0.35797 0.91086 -0.20539 -0.37817 0.92196 0.08348 -0.37854 0.92191 0.082399 -0.37803 0.92198 0.083903 -0.37872 0.92188 0.081872 0.92379 0.38271 -0.012193 0.92451 0.37991 -0.030958 0.92466 0.37901 -0.036779 0.92347 0.38363 -0.0058592 0.91852 0.39411 0.031704 0.9048 0.42252 -0.052984 0.92221 0.38043 0.069329 0.89039 0.4408 -0.11358 0.91493 0.38971 -0.10505 0.91503 0.39514 -0.081119 0.91496 0.39673 -0.073904 0.91479 0.38804 -0.11221 0.92194 0.38703 0.015532 0.92289 0.38499 -0.0079035 0.92309 0.38427 -0.015602 0.92133 0.38789 0.02622 -0.92373 0.38292 -0.010248 -0.92345 0.38367 -0.0055819 -0.92382 0.38266 -0.011857 -0.92341 0.3838 -0.0048174 -0.92379 0.38271 -0.012193 -0.92451 0.37991 -0.030959 -0.92347 0.38363 -0.0058597 -0.92466 0.37901 -0.03678 -0.90466 0.42283 -0.053014 -0.91833 0.39436 0.034019 -0.92184 0.38081 0.072069 -0.89051 0.44057 -0.11354 -0.91493 0.38971 -0.10505 -0.91503 0.39514 -0.08112 -0.91479 0.38804 -0.11221 -0.91496 0.39673 -0.073905 0.92373 0.38292 -0.010247 0.92345 0.38367 -0.0055816 0.92341 0.3838 -0.004817 0.92382 0.38266 -0.011857 -0.38266 0.92381 -0.011858 -0.38266 0.92381 -0.011858 -0.38266 0.92381 -0.011858 -0.38266 0.92381 -0.011858 -0.92194 0.38703 0.015531 -0.92289 0.38499 -0.0079044 -0.92133 0.38789 0.026219 -0.92309 0.38427 -0.015603 0.38266 0.92381 -0.011857 0.38266 0.92381 -0.011857 0.38266 0.92381 -0.011857 0.38266 0.92381 -0.011857 -0.63261 -0.28085 0.72175 -0.67317 -0.27998 0.68444 -0.68345 -0.27961 0.67433 -0.62483 -0.28092 0.72847 -0.67195 0.47289 -0.56996 -0.58217 0.41413 -0.69969 -0.60312 0.42792 -0.67315 -0.69185 0.48577 -0.53421 -0.77255 -0.28881 -0.56546 -0.76804 -0.28141 -0.57527 -0.76559 -0.27747 -0.58042 -0.77423 -0.29159 -0.56173 0.79032 0.15708 0.59221 0.7115 0.015367 0.70251 0.80958 0.20227 0.55107 0.66858 -0.04662 0.74218 0.68839 -0.28101 0.6687 0.68544 -0.27819 0.67289 0.68476 -0.27755 0.67385 0.68973 -0.28229 0.66677 0.60312 0.42792 -0.67315 0.67195 0.47289 -0.56996 0.69185 0.48577 -0.53421 0.58217 0.41413 -0.69969 0.76804 -0.28141 -0.57527 0.77423 -0.29159 -0.56173 0.77255 -0.28881 -0.56546 0.76559 -0.27747 -0.58042 -0.29793 0.7786 0.55229 -0.32365 0.79156 0.51834 -0.31469 0.78719 0.53038 -0.28973 0.77421 0.56272 -0.90974 0.41479 -0.017914 -0.91839 0.39438 -0.032065 -0.92597 0.37486 -0.045401 -0.89981 0.43627 -0.002792 0.9222 0.38602 -0.023047 0.91723 0.39812 -0.013825 0.92752 0.37228 -0.033418 0.91096 0.41248 -0.0027784 -0.39115 0.92015 -0.018305 -0.40029 0.91632 -0.011482 -0.3784 0.92522 -0.027745 -0.4123 0.91105 -0.0024494 0.39115 0.92015 -0.018305 0.40029 0.91632 -0.011482 0.4123 0.91105 -0.0024494 0.3784 0.92522 -0.027745 -0.93281 -0.35936 0.026952 -0.92842 -0.37104 0.019405 -0.92222 -0.38655 0.0092874 -0.93791 -0.34498 0.036174 0.92609 -0.37698 0.01554 0.92897 -0.36959 0.020344 0.92222 -0.38655 0.0092875 0.93249 -0.36022 0.026398 -0.40401 -0.9146 0.016449 -0.39318 -0.91942 0.0088451 -0.37929 -0.92528 -0.00082687 -0.41718 -0.90846 0.02576 0.39318 -0.91942 0.0088452 0.40401 -0.9146 0.016449 0.37929 -0.92528 -0.00082681 0.41718 -0.90846 0.02576 0.32585 -0.7607 -0.56139 0.32856 -0.76261 -0.5572 0.32987 -0.76353 -0.55516 0.32486 -0.75999 -0.56291 -0.76163 0.17585 0.62369 -0.63458 -0.03572 0.77203 -0.57164 -0.11647 0.8122 -0.79029 0.24387 0.56211 0.29386 0.64013 -0.70984 0.29439 0.63596 -0.71337 0.29458 0.63445 -0.71463 0.29361 0.64213 -0.70814 0.27959 -0.69262 0.66491 0.29038 -0.70088 0.65149 0.28717 -0.69845 0.65552 0.27691 -0.69054 0.66819 0.31469 0.78719 0.53038 0.29793 0.7786 0.55229 0.28973 0.77421 0.56272 0.32365 0.79156 0.51834 -0.32856 -0.76261 -0.5572 -0.32585 -0.7607 -0.56139 -0.32987 -0.76353 -0.55516 -0.32486 -0.75999 -0.56291 -0.29386 0.64013 -0.70984 -0.29458 0.63445 -0.71463 -0.29439 0.63596 -0.71337 -0.29361 0.64213 -0.70814 -0.28717 -0.69845 0.65552 -0.27959 -0.69262 0.66491 -0.27691 -0.69054 0.66819 -0.29038 -0.70088 0.65149 0.69528 -0.14716 0.70352 0.76835 -0.26062 0.58456 0.73129 -0.19931 0.6523 0.78422 -0.29058 0.54824 -0.81907 -0.15983 -0.55098 -0.8205 -0.15963 -0.5489 -0.81808 -0.15997 -0.55241 -0.82177 -0.15944 -0.54706 0.38805 -0.91788 -0.083121 0.39132 -0.91674 -0.080298 0.38116 -0.92021 -0.089022 0.39723 -0.91463 -0.075186 -0.39132 -0.91674 -0.080298 -0.39723 -0.91463 -0.075186 -0.38805 -0.91788 -0.083121 -0.38116 -0.92021 -0.089022 0.93166 -0.36249 -0.024722 0.93327 -0.35857 -0.020829 0.92727 -0.37276 -0.034972 0.93783 -0.34696 -0.0093585 -0.93327 -0.35857 -0.020829 -0.93166 -0.36249 -0.024723 -0.92727 -0.37276 -0.034973 -0.93783 -0.34696 -0.0093588 -0.24869 -0.83004 0.49919 -0.20899 -0.81949 0.53363 -0.27802 -0.83639 0.4724 -0.32113 -0.84337 0.43082 0.32565 -0.76899 -0.5501 0.33572 -0.7733 -0.53787 0.34605 -0.77754 -0.52505 0.31692 -0.76511 -0.56051 -0.32662 -0.75469 -0.569 -0.34606 -0.76305 -0.54589 -0.30932 -0.74676 -0.58879 -0.36638 -0.77112 -0.52071 0.24909 -0.83224 0.49531 0.2763 -0.83798 0.47058 0.21176 -0.82265 0.52764 0.31728 -0.84452 0.43141 0.82027 -0.15966 -0.54924 0.82357 -0.15918 -0.54441 0.82633 -0.15877 -0.54035 0.81808 -0.15997 -0.55241 -0.76472 -0.26064 0.58929 -0.72871 -0.20203 0.65434 -0.78016 -0.28908 0.55478 -0.69465 -0.15307 0.70288 -0.28414 -0.60979 -0.73988 -0.28553 -0.60043 -0.74697 -0.2866 -0.59292 -0.75253 -0.28346 -0.6143 -0.7364 0.29519 -0.61592 -0.73042 0.29386 -0.6237 -0.72433 0.29586 -0.6119 -0.73352 0.29276 -0.62995 -0.71934 -0.65359 -0.4316 0.62173 -0.66769 -0.4486 0.59409 -0.6448 -0.42121 0.63782 -0.67753 -0.46074 0.5733 -0.57624 -0.25348 -0.77698 -0.48907 -0.2601 -0.83256 -0.62044 -0.24882 -0.74374 -0.45374 -0.26192 -0.85178 0.40244 -0.91542 0.0074633 0.39943 -0.91675 0.0044226 0.41862 -0.90785 0.023947 0.38398 -0.92327 -0.011052 -0.39942 -0.91676 0.0043482 -0.40262 -0.91534 0.0075297 -0.41898 -0.90768 0.023942 -0.38397 -0.92328 -0.0109 0.92495 -0.37992 -0.011263 0.9249 -0.38004 -0.011364 0.92507 -0.37964 -0.01103 0.9248 -0.38027 -0.011555 -0.92493 -0.37998 -0.011308 -0.9248 -0.38027 -0.011555 -0.92499 -0.37982 -0.011176 -0.92514 -0.37946 -0.010878 -0.63556 -0.42001 -0.64781 -0.6375 -0.42222 -0.64446 -0.63175 -0.41572 -0.65427 -0.62905 -0.41267 -0.65879 0.64612 -0.26912 0.71421 0.6735 -0.26455 0.69023 0.62464 -0.27237 0.73187 0.68699 -0.2621 0.67775 -0.30617 -0.77641 0.55087 -0.2054 -0.72299 0.65962 -0.26469 -0.75628 0.59831 -0.17034 -0.70098 0.69254 0.33658 -0.93897 -0.071041 0.36582 -0.92593 -0.093952 0.32234 -0.94472 -0.059985 0.29803 -0.95366 -0.041269 -0.32234 -0.94472 -0.059985 -0.33658 -0.93897 -0.071041 -0.29803 -0.95366 -0.041269 -0.36582 -0.92593 -0.093952 0.92014 -0.3909 -0.023287 0.92072 -0.38948 -0.024218 0.92127 -0.38811 -0.025108 0.91952 -0.39242 -0.022296 -0.92072 -0.38948 -0.024218 -0.92014 -0.3909 -0.023287 -0.92127 -0.38811 -0.025109 -0.91952 -0.39242 -0.022296 -0.60881 -0.37338 0.69996 -0.60881 -0.37338 0.69996 -0.60881 -0.37338 0.69996 -0.60881 -0.37338 0.69996 -0.72082 -0.17975 -0.66941 -0.60541 -0.18704 -0.77363 -0.77872 -0.17365 -0.60286 -0.54025 -0.18903 -0.82 0.60881 -0.37338 0.69996 0.60881 -0.37338 0.69996 0.60881 -0.37338 0.69996 0.60881 -0.37338 0.69996 0.3258 -0.94475 -0.035949 0.32649 -0.94454 -0.035383 0.32457 -0.94514 -0.036959 0.32759 -0.94419 -0.034475 -0.32649 -0.94454 -0.035383 -0.3258 -0.94475 -0.035949 -0.32457 -0.94514 -0.036959 -0.32759 -0.94419 -0.034475 0.92062 -0.39006 -0.017792 0.92157 -0.38787 -0.016118 0.91934 -0.39296 -0.020012 0.92273 -0.3852 -0.014079 -0.92157 -0.38787 -0.016118 -0.92062 -0.39006 -0.017792 -0.91934 -0.39296 -0.020012 -0.92273 -0.3852 -0.014079 0.26457 -0.77907 0.56838 0.29703 -0.79076 0.53523 0.23353 -0.76647 0.59832 0.33201 -0.80153 0.49731 0.30623 -0.73708 -0.60245 0.33985 -0.7584 -0.55618 0.36459 -0.77274 -0.51957 0.28649 -0.72364 -0.62791 0.65496 -0.2567 -0.71073 0.49804 -0.27384 -0.82278 0.60237 -0.26386 -0.75335 0.45307 -0.27667 -0.84746 -0.62464 -0.27237 0.73187 -0.6735 -0.26455 0.69023 -0.64612 -0.26912 0.71421 -0.68699 -0.2621 0.67775 -0.30623 -0.73708 -0.60245 -0.33985 -0.7584 -0.55618 -0.28649 -0.72364 -0.62791 -0.36459 -0.77274 -0.51957 0.17218 -0.84339 -0.50896 0.23683 -0.86178 -0.44861 0.30626 -0.87394 -0.37742 0.10979 -0.81969 -0.56218 0.17083 -0.80369 0.57 0.25061 -0.83385 0.49183 0.10862 -0.77356 0.62434 0.31919 -0.85137 0.41627 -0.26457 -0.77907 0.56838 -0.23353 -0.76647 0.59832 -0.29704 -0.79076 0.53523 -0.33201 -0.80153 0.49731 0.77872 -0.17365 -0.60286 0.60541 -0.18704 -0.77363 0.72082 -0.17975 -0.66941 0.54025 -0.18903 -0.82 -0.17218 -0.84339 -0.50896 -0.23683 -0.86178 -0.44861 -0.10979 -0.81969 -0.56218 -0.30626 -0.87394 -0.37742 0.67753 -0.46074 0.5733 0.65359 -0.4316 0.62173 0.66769 -0.4486 0.59409 0.6448 -0.42121 0.63782 0.2054 -0.72299 0.65962 0.26469 -0.75628 0.59831 0.17034 -0.70098 0.69254 0.30617 -0.77641 0.55087 0.63556 -0.42001 -0.64781 0.63175 -0.41572 -0.65427 0.6375 -0.42222 -0.64446 0.62905 -0.41267 -0.65879 -0.17083 -0.80369 0.57 -0.10862 -0.77356 0.62434 -0.25061 -0.83385 0.49183 -0.31919 -0.85137 0.41627 0.73142 0.15398 0.66432 0.71468 0.12323 0.68851 0.73974 0.17016 0.65102 0.6996 0.09718 0.70789 -0.75218 0.40211 -0.52205 -0.74889 0.39491 -0.53218 -0.7558 0.41025 -0.51036 -0.74574 0.38821 -0.54144 0.38181 0.92419 -0.0094247 0.38195 0.92413 -0.0095703 0.38117 0.92446 -0.0087779 0.38266 0.92383 -0.010288 -0.38181 0.92419 -0.0094248 -0.38195 0.92413 -0.0095705 -0.38266 0.92383 -0.010288 -0.38117 0.92446 -0.008778 0.92329 0.384 -0.0090262 0.92327 0.38406 -0.0089707 0.92336 0.38382 -0.0092141 0.92319 0.38424 -0.0087898 -0.92329 0.384 -0.0090265 -0.92327 0.38406 -0.008971 -0.92319 0.38424 -0.0087901 -0.92336 0.38382 -0.0092144 -0.27955 0.6749 0.6829 -0.27955 0.6749 0.6829 -0.27955 0.6749 0.6829 -0.27955 0.6749 0.6829 0.2899 0.83726 -0.46363 0.2697 0.83328 -0.4826 0.32301 0.84243 -0.43126 0.24021 0.82639 -0.50928 -0.2697 0.83328 -0.4826 -0.2899 0.83726 -0.46363 -0.32301 0.84243 -0.43126 -0.24021 0.82639 -0.50928 0.27955 0.6749 0.6829 0.27955 0.6749 0.6829 0.27955 0.6749 0.6829 0.27955 0.6749 0.6829 0.74889 0.39491 -0.53218 0.75218 0.40211 -0.52205 0.7558 0.41025 -0.51036 0.74574 0.38821 -0.54144 -0.71468 0.12323 0.68851 -0.73142 0.15398 0.66432 -0.73974 0.17016 0.65102 -0.6996 0.09718 0.70789 -0.21499 0.78732 -0.57785 -0.25829 0.80404 -0.53554 -0.29556 0.81615 -0.49654 -0.18693 0.77502 -0.60365 0.25988 0.80258 -0.53696 0.21381 0.78439 -0.58225 0.29859 0.81534 -0.49605 0.18427 0.77111 -0.60945 -0.76569 0.23581 0.59843 -0.82624 0.22013 0.51853 -0.80152 0.22708 0.55318 -0.74087 0.24107 0.62689 -0.60009 0.34334 -0.7225 -0.47408 0.36174 -0.80274 -0.38639 0.36931 -0.84517 -0.68569 0.32444 -0.65158 0.37635 0.92443 -0.061503 0.38845 0.91872 -0.07117 0.35717 0.93289 -0.046315 0.40817 0.90874 -0.087062 -0.37635 0.92443 -0.061503 -0.38845 0.91872 -0.071171 -0.40817 0.90874 -0.087063 -0.35717 0.93289 -0.046315 0.89806 0.4397 -0.012027 0.90294 0.42934 -0.019189 0.89318 0.44968 -0.0050761 0.90735 0.41957 -0.025894 -0.89806 0.4397 -0.012027 -0.90294 0.42934 -0.01919 -0.90735 0.41957 -0.025895 -0.89318 0.44968 -0.0050763 -0.64456 0.35366 -0.67784 -0.6509 0.35201 -0.67262 -0.65399 0.35119 -0.67005 -0.64013 0.3548 -0.68143 0.65532 0.39168 0.64587 0.65256 0.3884 0.65062 0.65673 0.39336 0.6434 0.65061 0.3861 0.65394 -0.19246 0.82487 0.53155 -0.25009 0.84314 0.476 -0.13914 0.80352 0.57879 -0.31056 0.8565 0.41225 0.3585 0.93342 0.014098 0.34627 0.93813 0.0040438 0.32512 0.94558 -0.013157 0.38151 0.92377 0.03323 -0.3585 0.93342 0.014098 -0.34627 0.93813 0.0040437 -0.38151 0.92377 0.03323 -0.32512 0.94558 -0.013157 0.91885 0.3946 -0.0033888 0.92282 0.38521 0.002788 0.92667 0.37578 0.0089595 0.9137 0.40625 -0.011105 -0.91885 0.3946 -0.0033891 -0.92282 0.38521 0.0027878 -0.9137 0.40625 -0.011105 -0.92667 0.37578 0.0089592 -0.64912 0.14719 0.74631 -0.64912 0.14719 0.74631 -0.64912 0.14719 0.74631 -0.64912 0.14719 0.74631 -0.50029 0.41605 -0.75935 -0.50029 0.41605 -0.75935 -0.50029 0.41605 -0.75935 -0.50029 0.41605 -0.75935 0.64912 0.14719 0.74631 0.64912 0.14719 0.74631 0.64912 0.14719 0.74631 0.64912 0.14719 0.74631 0.31956 0.94733 -0.020863 0.33063 0.9433 -0.029556 0.30107 0.95358 -0.0064434 0.35128 0.93514 -0.045918 -0.31956 0.94734 -0.020863 -0.33063 0.9433 -0.029557 -0.35128 0.93514 -0.045918 -0.30107 0.95358 -0.0064435 0.91974 0.39249 -0.0050809 0.92051 0.39067 -0.0065201 0.91882 0.39467 -0.0033521 0.92144 0.38842 -0.0083021 -0.91974 0.39249 -0.0050813 -0.92051 0.39067 -0.0065205 -0.92144 0.38842 -0.0083025 -0.91882 0.39467 -0.0033524 0.385 0.80844 0.4452 0.38932 0.81003 0.4385 0.39192 0.81097 0.43442 0.38166 0.80717 0.45035 0.22345 0.80891 -0.54381 0.13673 0.76386 -0.63073 0.28261 0.83247 -0.47657 0.089519 0.73449 -0.67269 0.59309 0.34464 -0.72765 0.47009 0.36217 -0.80489 0.67645 0.32679 -0.66002 0.38639 0.36931 -0.84517 -0.65256 0.3884 0.65062 -0.65532 0.39168 0.64587 -0.65673 0.39336 0.6434 -0.65061 0.3861 0.65394 -0.13673 0.76386 -0.63073 -0.22345 0.80891 -0.54381 -0.28261 0.83247 -0.47657 -0.089518 0.73449 -0.67269 0.31353 0.72813 -0.60954 0.31353 0.72813 -0.60954 0.31353 0.72813 -0.60954 0.31353 0.72813 -0.60953 0.229 0.64876 0.72572 0.2973 0.69919 0.65019 0.33766 0.72589 0.59922 0.19491 0.62136 0.7589 -0.38932 0.81003 0.4385 -0.385 0.80844 0.4452 -0.39192 0.81097 0.43442 -0.38166 0.80717 0.45035 0.50029 0.41605 -0.75935 0.50029 0.41605 -0.75935 0.50029 0.41605 -0.75935 0.50029 0.41605 -0.75935 -0.31353 0.72813 -0.60954 -0.31353 0.72813 -0.60954 -0.31353 0.72813 -0.60954 -0.31353 0.72813 -0.60954 0.80152 0.22708 0.55318 0.76569 0.23581 0.59843 0.74087 0.24107 0.62689 0.82624 0.22013 0.51853 0.25009 0.84314 0.476 0.19246 0.82487 0.53155 0.13914 0.80352 0.57879 0.31056 0.8565 0.41225 0.64456 0.35366 -0.67784 0.65399 0.35119 -0.67005 0.6509 0.35201 -0.67262 0.64013 0.3548 -0.68143 -0.229 0.64876 0.72572 -0.2973 0.69919 0.65019 -0.19491 0.62136 0.7589 -0.33766 0.72589 0.59922 0.89133 0.45323 0.010736 0.89133 0.45323 0.010736 0.89133 0.45323 0.010736 0.89133 0.45323 0.010736 -0.89133 0.45323 0.010736 -0.89133 0.45323 0.010736 -0.89133 0.45323 0.010736 -0.89133 0.45323 0.010736 0.89136 -0.45324 -0.0067101 0.89136 -0.45324 -0.0067101 0.89136 -0.45324 -0.0067101 0.89136 -0.45324 -0.0067101 -0.89136 -0.45324 -0.0067104 -0.89136 -0.45324 -0.0067104 -0.89136 -0.45324 -0.0067104 -0.89136 -0.45324 -0.0067104 -0.81004 -0.57143 -0.13153 -0.85656 -0.49167 -0.15671 -0.77376 -0.62323 -0.11353 -0.87845 -0.44668 -0.16972 -0.74498 -0.60005 0.29145 -0.83252 -0.46832 0.29595 -0.77507 -0.55948 0.29369 -0.85146 -0.43295 0.29592 -0.69558 -0.57891 -0.42548 -0.79786 -0.45018 -0.40095 -0.65782 -0.61769 -0.43097 -0.81956 -0.41674 -0.39326 -0.70383 -0.66088 0.2605 -0.83101 -0.48254 0.27671 -0.74984 -0.60523 0.26728 -0.85608 -0.4353 0.27865 -0.89128 -0.4532 0.015186 -0.89128 -0.4532 0.015186 -0.89128 -0.4532 0.015186 -0.89128 -0.4532 0.015186 -0.89097 -0.45305 -0.030314 -0.89097 -0.45305 -0.030314 -0.89097 -0.45305 -0.030314 -0.89097 -0.45305 -0.030314 0.81004 -0.57143 -0.13153 0.77376 -0.62323 -0.11353 0.85656 -0.49167 -0.15671 0.87845 -0.44668 -0.16972 0.83252 -0.46832 0.29595 0.77507 -0.55948 0.29369 0.85146 -0.43295 0.29592 0.74498 -0.60005 0.29145 0.81956 -0.41674 -0.39326 0.69558 -0.57891 -0.42548 0.79786 -0.45018 -0.40095 0.65782 -0.61769 -0.43097 0.83101 -0.48254 0.27671 0.74984 -0.60523 0.26728 0.85608 -0.4353 0.27865 0.70383 -0.66088 0.2605 0.89128 -0.4532 0.015186 0.89128 -0.4532 0.015186 0.89128 -0.4532 0.015186 0.89128 -0.4532 0.015186 0.89097 -0.45305 -0.030313 0.89097 -0.45305 -0.030313 0.89097 -0.45305 -0.030313 0.89097 -0.45305 -0.030313 0.87636 -0.43768 0.20108 0.87636 -0.43768 0.20108 0.87636 -0.43768 0.20108 -0.87636 -0.43768 0.20108 -0.87636 -0.43768 0.20108 -0.87636 -0.43768 0.20108 0.92132 -0.30398 0.24242 0.91239 -0.30341 0.27473 0.91669 -0.30372 0.25968 0.90658 -0.30291 0.29388 0.87815 -0.42612 0.21744 0.85744 -0.44956 0.2504 0.85167 -0.45559 0.25902 0.88317 -0.41996 0.2089 -0.85744 -0.44956 0.2504 -0.88317 -0.41996 0.2089 -0.87815 -0.42612 0.21744 -0.85167 -0.45559 0.25902 0.89138 -0.45325 1.5028e-07 0.89138 -0.45325 1.5028e-07 0.89138 -0.45325 1.5028e-07 -0.89138 -0.45325 -1.5028e-07 -0.89138 -0.45325 -1.5028e-07 -0.89138 -0.45325 -1.5028e-07 0.89138 -0.45325 1.5028e-07 0.89138 -0.45325 1.5028e-07 0.89138 -0.45325 1.5028e-07 -0.89138 -0.45325 -1.5028e-07 -0.89138 -0.45325 -1.5028e-07 -0.89138 -0.45325 -1.5028e-07 -0.91526 -0.30362 0.2648 -0.91156 -0.30334 0.27755 -0.91929 -0.30388 0.25011 -0.90658 -0.30291 0.29388 0.89918 -0.43757 0.0036044 0.93152 -0.36313 0.02028 0.89138 -0.45325 1.5028e-07 0.93529 -0.35317 0.022461 -0.93152 -0.36313 0.02028 -0.89918 -0.43757 0.0036041 -0.89138 -0.45325 -1.5028e-07 -0.93529 -0.35317 0.02246 0.87525 -0.44505 -0.18937 0.87525 -0.44505 -0.18937 0.87525 -0.44505 -0.18937 0.87525 -0.44505 -0.18937 -0.87525 -0.44505 -0.18937 -0.87525 -0.44505 -0.18937 -0.87525 -0.44505 -0.18937 -0.87525 -0.44505 -0.18937 0.88129 -0.44812 0.15008 0.88129 -0.44812 0.15008 0.88129 -0.44812 0.15008 0.88129 -0.44812 0.15008 -0.88129 -0.44812 0.15007 -0.88129 -0.44812 0.15007 -0.88129 -0.44812 0.15007 -0.88129 -0.44812 0.15008 -0.89128 -0.4532 -0.015118 -0.89128 -0.4532 -0.015118 -0.89128 -0.4532 -0.015118 -0.89128 -0.4532 -0.015118 0.89128 -0.4532 -0.015118 0.89128 -0.4532 -0.015118 0.89128 -0.4532 -0.015118 0.89128 -0.4532 -0.015118 -0.87993 -0.44743 0.1598 -0.87993 -0.44743 0.1598 -0.87993 -0.44743 0.1598 -0.87993 -0.44743 0.1598 0.87993 -0.44743 0.1598 0.87993 -0.44743 0.1598 0.87993 -0.44743 0.1598 0.87993 -0.44743 0.1598 -0.89138 0.45325 -1.5028e-07 -0.89138 0.45325 -1.5028e-07 -0.89138 0.45325 -1.5028e-07 -0.89138 0.45325 -1.5028e-07 -0.84909 0.43175 -0.30436 -0.84909 0.43175 -0.30436 -0.84909 0.43175 -0.30436 -0.84909 0.43175 -0.30436 -0.84909 0.43175 0.30436 -0.84909 0.43175 0.30436 -0.84909 0.43175 0.30436 -0.84909 0.43175 0.30436 -0.88637 0.45071 -0.10591 -0.88637 0.45071 -0.10591 -0.88637 0.45071 -0.10591 -0.88637 0.45071 -0.10591 -0.89093 0.45302 0.031878 -0.89093 0.45302 0.031878 -0.89093 0.45302 0.031878 -0.89093 0.45302 0.031878 -0.89138 0.45325 -1.5028e-07 -0.89138 0.45325 -1.5028e-07 -0.89138 0.45325 -1.5028e-07 -0.89138 0.45325 -1.5028e-07 0.89138 0.45325 1.5028e-07 0.89138 0.45325 1.5028e-07 0.89138 0.45325 1.5028e-07 0.89138 0.45325 1.5028e-07 0.84909 0.43175 -0.30436 0.84909 0.43175 -0.30436 0.84909 0.43175 -0.30436 0.84909 0.43175 -0.30436 0.84909 0.43175 0.30437 0.84909 0.43175 0.30437 0.84909 0.43175 0.30437 0.84909 0.43175 0.30437 0.88637 0.45071 -0.10591 0.88637 0.45071 -0.10591 0.88637 0.45071 -0.10591 0.88637 0.45071 -0.10591 0.89093 0.45302 0.031878 0.89093 0.45302 0.031878 0.89093 0.45302 0.031878 0.89093 0.45302 0.031878 0.89138 0.45325 1.5028e-07 0.89138 0.45325 1.5028e-07 0.89138 0.45325 1.5028e-07 0.89138 0.45325 1.5028e-07 0.87636 0.43768 0.20108 0.87636 0.43768 0.20108 0.87636 0.43768 0.20108 -0.87636 0.43768 0.20108 -0.87636 0.43768 0.20108 -0.87636 0.43768 0.20108 0.91239 0.30341 0.27473 0.92132 0.30398 0.24242 0.91669 0.30372 0.25968 0.90658 0.30291 0.29388 0.85744 0.44956 0.2504 0.87815 0.42612 0.21744 0.85167 0.45559 0.25902 0.88317 0.41996 0.2089 -0.88317 0.41996 0.2089 -0.85744 0.44956 0.2504 -0.87815 0.42612 0.21744 -0.85167 0.45559 0.25902 0.8175 0.41569 0.39861 0.77961 0.49374 0.38527 0.79843 0.45699 0.392 0.7537 0.53922 0.37574 -0.77961 0.49374 0.38527 -0.79843 0.45699 0.392 -0.7537 0.53922 0.37574 -0.8175 0.41569 0.39861 0.6717 0.44913 -0.58915 0.64271 0.47622 -0.60012 0.67774 0.44325 -0.58668 0.6357 0.48249 -0.60256 -0.6357 0.48249 -0.60256 -0.6717 0.44913 -0.58915 -0.64271 0.47622 -0.60012 -0.67774 0.44325 -0.58668 -0.91156 0.30334 0.27755 -0.91526 0.30362 0.2648 -0.91929 0.30388 0.25011 -0.90658 0.30291 0.29388 0.89918 0.43757 0.0036044 0.93152 0.36313 0.02028 0.93529 0.35317 0.022461 0.89138 0.45325 1.5028e-07 -0.89918 0.43757 0.0036041 -0.93152 0.36313 0.02028 -0.89138 0.45325 -1.5028e-07 -0.93529 0.35317 0.02246 0.81655 0.40629 0.4101 0.74267 0.51468 0.42842 0.79891 0.43486 0.4155 0.71999 0.54301 0.43216 -0.74267 0.51468 0.42842 -0.79891 0.43486 0.4155 -0.71999 0.54301 0.43216 -0.81655 0.40629 0.4101 0.74045 0.40222 -0.53847 0.74621 0.39569 -0.53535 0.73896 0.40389 -0.53927 0.74768 0.394 -0.53454 -0.74768 0.394 -0.53454 -0.74045 0.40222 -0.53847 -0.74621 0.39569 -0.53535 -0.73896 0.40389 -0.53927 -0.89113 0.45313 -0.023762 -0.89113 0.45313 -0.023762 -0.89113 0.45313 -0.023762 -0.89113 0.45313 -0.023762 0.89113 0.45313 -0.023762 0.89113 0.45313 -0.023762 0.89113 0.45313 -0.023762 0.89113 0.45313 -0.023762 -0.70817 0.39572 0.58473 -0.65531 0.45966 0.5994 -0.72749 0.36992 0.57785 -0.63116 0.48614 0.6044 0.63116 0.48614 0.6044 0.70817 0.39572 0.58473 0.65531 0.45966 0.5994 0.72749 0.36992 0.57785 1 1.0228e-17 1.6859e-07 1 -1.1097e-18 1.6859e-07 1 3.5463e-19 1.6859e-07 -1 -1.0228e-17 -1.6859e-07 -1 1.1098e-18 -1.6859e-07 -1 0 -1.6859e-07 1 -1.3818e-22 1.6859e-07 1 0 1.6859e-07 1 -3.5463e-19 1.6859e-07 1 -1.0228e-17 1.6859e-07 -1 0 -1.6859e-07 -1 3.5463e-19 -1.6859e-07 -1 1.0228e-17 -1.6859e-07 -1 0 -1.6859e-07 -1 -5.8682e-19 -1.6859e-07 -1 0 -1.6859e-07 -1 0 -1.6859e-07 -1 0 -1.6859e-07 -1 0 -1.6859e-07 -1 0 -1.6859e-07 -1 0 -1.6859e-07 -1 0 -1.6859e-07 -1 0 -1.6859e-07 -1 0 -1.6859e-07 -1 0 -1.6859e-07 -1 0 -1.6859e-07 -1 0 -1.6859e-07 -1 0 -1.6859e-07 -1 0 -1.6859e-07 1 0 1.6859e-07 1 0 1.6859e-07 1 0 1.6859e-07 1 0 1.6859e-07 1 0 1.6859e-07 1 0 1.6859e-07 1 0 1.6859e-07 1 0 1.6859e-07 1 0 1.6859e-07 1 0 1.6859e-07 1 0 1.6859e-07 1 0 1.6859e-07 1 0 1.6859e-07 1 0 1.6859e-07 1 0 1.6859e-07 1 0 1.6859e-07 1 0 1.6859e-07 1 0 1.6859e-07 -1 0 -1.6859e-07 -1 0 -1.6859e-07 -1 0 -1.6859e-07 -1 0 -1.6859e-07 -1 0 -1.6859e-07 -1 0 -1.6859e-07 -1 0 -1.6859e-07 -1 0 -1.6859e-07 -1 0 -1.6859e-07 -1 0 -1.6859e-07 1 0 1.6859e-07 1 0 1.6859e-07 1 0 1.6859e-07 -1 0 -1.6859e-07 -1 0 -1.6859e-07 1 0 1.6859e-07 1 0 1.6859e-07 -1 0 -1.6859e-07 -1 0 -1.6859e-07 1 0 1.6859e-07 1 1.5299e-17 1.6859e-07 1 3.1853e-24 1.6859e-07 1 6.3046e-23 1.6859e-07 1 1.4006e-17 1.6859e-07 1 5.8682e-19 1.6859e-07 1 0 1.6859e-07 1 0 1.6859e-07 1 0 1.6859e-07 -1 0 -1.6859e-07 -1 -1.4006e-17 -1.6859e-07 -1 -2.1235e-24 -1.6859e-07 -1 -1.53e-17 -1.6859e-07 1 0 1.6859e-07 1 0 1.6859e-07 -1 0 -1.6859e-07 1 0 1.6859e-07 1 0 1.6859e-07 1 0 1.6859e-07 1 0 1.6859e-07 -1 0 -1.6859e-07 -1 0 -1.6859e-07 1 0 1.6859e-07 1 0 1.6859e-07 -1 0 -1.6859e-07 -1 0 -1.6859e-07 -1 0 -1.6859e-07 -1 0 -1.6859e-07 1 0 1.6859e-07 1 0 1.6859e-07 1 0 1.6859e-07 1 0 1.6859e-07 -1 0 -1.6859e-07 -1 0 -1.6859e-07 1 0 1.6859e-07 1 0 1.6859e-07 1 0 1.6859e-07 1 0 1.6859e-07 -1 2.8241e-33 -1.6859e-07 1 0 1.6859e-07 1 0 1.6859e-07 -1 0 -1.6859e-07 -1 0 -1.6859e-07 -1 0 -1.6859e-07 -1 0 -1.6859e-07 1 0 1.6859e-07 1 0 1.6859e-07 1 0 1.6859e-07 1 0 1.6859e-07 -1 -4.2031e-23 -1.6859e-07 -1 0 -1.6859e-07 -1 0 -1.6859e-07 -1 0 -1.6859e-07 -1 0 -1.6859e-07 -1 0 -1.6859e-07 -1 0 -1.6859e-07 -1 0 -1.6859e-07 -1 0 -1.6859e-07 1 0 1.6859e-07 1 -5.8682e-19 1.6859e-07 1 0 1.6859e-07 1 0 1.6859e-07 1 0 1.6859e-07 1 0 1.6859e-07 1 0 1.6859e-07 1 0 1.6859e-07 1 0 1.6859e-07 1 0 1.6859e-07 1 0 1.6859e-07 1 0 1.6859e-07 1 0 1.6859e-07 1 0 1.6859e-07 1 0 1.6859e-07 1 0 1.6859e-07 1 0 1.6859e-07 -1 1.53e-17 -1.6859e-07 -1 5.8682e-19 -1.6859e-07 -1 0 -1.6859e-07 -1 0 -1.6859e-07 -1 0 -1.6859e-07 -1 0 -1.6859e-07 1 -1.5299e-17 1.6859e-07 1 0 1.6859e-07 -1 3.8049e-18 -1.6859e-07 -1 7.2936e-18 -1.6859e-07 -1 1.022e-17 -1.6859e-07 -1 0 -1.6859e-07 1 -1.7864e-08 1.9119e-07 1 -4.7984e-08 2.2931e-07 1 -3.4243e-08 2.1192e-07 1 0 1.6859e-07 -1 0 -1.6859e-07 -1 -6.9487e-18 -1.6859e-07 -1 -8.9683e-18 -1.6859e-07 -1 -3.3043e-17 -1.6859e-07 -1 1.0128e-17 -1.6859e-07 1 -4.8441e-08 2.327e-07 1 -8.0174e-08 2.0734e-07 1 -8.3926e-08 2.0434e-07 1 -1.2866e-07 1.6859e-07 -1 -2.4621e-17 -1.6859e-07 1 0 1.6859e-07 1 0 1.6859e-07 1 -1.4006e-17 1.6859e-07 -1 1.4006e-17 -1.6859e-07 -1 0 -1.6859e-07 1 0 1.6859e-07 -1 -7.919e-18 -1.6859e-07 -1 -3.8039e-18 -1.6859e-07 1 -7.8024e-08 1.3594e-07 1 -5.0149e-08 1.1797e-07 1 -7.4891e-08 1.3392e-07 1 -1.2866e-07 1.6859e-07 -1 1.8094e-17 -1.6859e-07 -1 0 -1.6859e-07 1 0 1.6859e-07 -1 -4.4183e-08 -1.0755e-07 -1 -1.0232e-07 -1.2365e-07 -1 -2.6459e-07 -1.6859e-07 -1 3.1308e-09 -9.4452e-08 1 -3.9994e-08 1.5751e-07 1 -2.9445e-08 1.6043e-07 1 -4.858e-08 1.5514e-07 1 -1.0582e-16 1.6859e-07 -1 -3.5463e-19 -1.6859e-07 -1 1.6049e-17 -1.6859e-07 -1 4.9559e-18 -1.6859e-07 1 0 1.6859e-07 1 -4.9557e-18 1.6859e-07 1 -1.6048e-17 1.6859e-07 -1 -5.1997e-08 -2.4025e-07 -1 -1.5367e-07 -2.0598e-07 -1 7.2414e-09 -2.6022e-07 -1 -2.6459e-07 -1.6859e-07 1 -3.4552e-17 1.6859e-07 1 -1.2591e-17 1.6859e-07 1 -7.2246e-17 1.6859e-07 1 -1.1337e-16 1.6859e-07</float_array><technique_common><accessor source="#g-n-a" count="1504" stride="3"><param name="X" type="float"/><param name="Y" type="float"/><param name="Z" type="float"/></accessor></technique_common></source>
<vertices id="g-v"><input semantic="POSITION" source="#g-p"/><input semantic="NORMAL" source="#g-n"/></vertices>
<triangles material="m0" count="180"><input semantic="VERTEX" source="#g-v" offset="0"/><p>0 1 2 1 0 3 4 5 6 4 6 7 8 9 10 11 12 13 14 15 16 17 18 19 20 21 22 9 23 10 24 25 26 25 24 27 28 29 30 29 28 31 32 33 34 33 32 35 36 37 38 37 36 39 40 41 42 43 41 40 44 45 46 47 44 46 48 49 50 51 48 50 52 53 54 53 52 55 56 57 58 57 56 59 60 61 62 63 61 60 64 65 66 65 64 67 68 69 70 68 71 69 72 73 74 72 75 73 76 77 78 77 76 79 80 81 82 82 83 80 84 85 86 84 87 85 88 89 90 88 91 89 92 93 94 95 92 94 96 97 98 97 96 99 100 101 102 102 103 100 104 105 106 105 104 107 108 109 110 111 112 113 112 111 114 115 116 117 115 118 116 119 120 121 122 123 124 122 125 123 126 127 128 127 126 129 130 131 132 131 130 133 134 135 136 136 135 137 138 139 140 139 138 141 142 143 144 143 142 145 146 147 148 146 148 149 150 151 152 153 154 155 154 153 156 157 158 159 157 159 160 161 162 163 162 161 164 165 166 167 166 165 168 169 170 171 172 173 174 173 172 175 176 177 178 151 150 179 152 180 181 180 152 151 182 183 184 183 182 185 186 187 188 188 187 189 190 191 192 192 193 190 194 195 196 195 194 197 109 108 198 199 198 200 198 199 109 201 202 203 202 201 204 205 206 207 206 205 208 209 210 211 212 209 211 213 214 215 215 216 213 217 218 219 218 217 220 221 222 223 222 221 224 225 226 227 227 226 228 229 230 231 232 231 230 233 234 235 236 235 234 237 238 239 240 238 237 241 242 243 242 241 244 245 246 247 248 247 246 249 250 251 250 249 252 253 254 255 254 253 256 257 258 259 258 257 260 261 262 263 264 262 261 265 266 267 268 269 270 271 270 269 272 273 274 273 272 275 276 277 278 277 276 279 280 281 282 280 283 281 284 285 286 285 284 287 288 289 290 290 291 288 292 293 294 295 294 293 296 297 298 297 296 299 300 301 302 303 301 300 304 305 306 305 304 307 308 309 310 309 308 311 312 313 314 315 316 317 316 315 318 319 320 321 322 323 324 322 325 323 326 324 327 326 322 324 328 329 330 329 328 331 332 333 334 335 332 334 336 337 338 337 336 339 340 341 342 341 340 343 344 345 346 345 344 347 348 349 350 349 348 351 352 353 354 353 352 355 356 357 358 357 356 359 360 361 362 361 360 363</p></triangles>
<triangles material="m1" count="336"><input semantic="VERTEX" source="#g-v" offset="0"/><p>364 365 366 365 364 367 368 369 370 369 368 371 372 373 374 373 372 375 376 377 378 377 376 379 380 381 382 381 380 383 384 385 386 384 387 385 388 389 390 388 391 389 392 393 394 393 392 395 396 397 398 397 396 399 400 401 402 401 400 403 404 405 406 404 407 405 408 409 410 409 408 411 412 413 414 412 415 413 416 417 418 416 419 417 420 421 422 421 420 423 424 425 426 424 427 425 428 429 430 429 428 431 432 433 434 433 432 435 436 437 438 437 436 439 440 441 442 441 440 443 444 445 446 446 447 444 448 449 450 448 451 449 452 453 454 452 454 455 456 457 458 456 459 457 460 461 462 461 460 463 464 465 466 464 466 467 468 469 470 468 470 471 472 473 474 473 472 475 476 477 478 477 476 479 480 481 482 481 480 483 484 485 486 485 484 487 488 489 490 489 488 491 492 493 494 493 492 495 496 497 498 497 496 499 500 501 502 501 500 503 504 505 506 505 504 507 508 509 510 509 508 511 512 513 514 513 512 515 516 517 518 517 516 519 520 521 522 521 520 523 524 525 526 525 524 527 528 529 530 529 528 531 532 533 534 533 532 535 536 537 538 537 536 539 540 541 542 541 540 543 544 545 546 545 544 547 548 549 550 549 548 551 552 553 554 553 552 555 556 557 558 557 556 559 560 561 562 560 562 563 564 565 566 565 564 567 568 569 570 569 568 571 572 573 574 573 572 575 576 577 578 577 576 579 580 581 582 580 582 583 584 585 586 584 586 587 588 589 590 589 588 591 592 593 594 593 592 595 596 597 598 597 596 599 600 601 602 601 600 603 604 605 606 607 605 604 608 609 610 609 608 611 612 613 614 612 615 613 616 617 618 617 616 619 620 621 622 621 620 623 624 625 626 625 624 627 628 629 630 629 628 631 632 633 634 632 634 635 636 637 638 637 636 639 640 641 642 640 643 641 644 645 646 644 646 647 648 649 650 649 648 651 652 653 654 655 654 653 656 657 658 657 656 659 660 661 662 661 660 663 664 665 666 664 666 667 668 669 670 669 668 671 672 673 674 672 675 673 676 677 678 679 676 678 680 681 682 683 681 680 684 685 686 685 684 687 688 689 690 689 688 691 692 693 694 693 692 695 696 697 698 697 696 699 700 701 702 703 701 700 704 705 706 705 704 707 708 709 710 709 708 711 712 713 714 713 712 715 716 717 718 717 716 719 720 721 722 720 723 721 724 725 726 725 724 727 728 729 730 728 730 731 732 733 734 735 732 734 736 737 738 737 736 739 740 741 742 743 742 741 744 745 746 744 746 747 748 749 750 749 748 751 752 753 754 755 753 752 756 757 758 757 756 759 760 761 762 762 761 763 764 765 766 765 764 767 768 769 770 769 768 771 772 773 774 773 772 775 776 777 778 776 779 777 780 781 782 781 780 783 784 785 786 784 787 785 788 789 790 789 788 791 792 793 794 795 793 792 796 797 798 798 797 799 800 801 802 802 801 803 804 805 806 805 804 807 808 809 810 811 809 808 812 813 814 813 812 815 816 817 818 819 816 818 820 821 822 822 821 823 824 825 826 825 824 827 828 829 830 831 830 829 832 833 834 833 832 835 836 837 838 837 836 839 840 841 842 843 840 842 844 845 846 845 844 847 848 849 850 848 851 849 852 853 854 853 852 855 856 857 858 857 856 859 860 861 862 861 860 863 864 865 866 865 864 867 868 869 870 869 868 871 872 873 874 872 875 873 876 877 878 877 876 879 880 881 882 880 883 881 884 885 886 885 884 887 888 889 890 889 888 891 892 893 894 893 892 895 896 897 898 896 899 897 900 901 902 900 902 903 904 905 906 905 904 907 908 909 910 909 908 911 912 913 914 913 912 915 916 917 918 917 916 919 920 921 922 921 920 923 924 925 926 925 924 927 928 929 930 928 931 929 932 933 934 933 932 935 936 937 938 937 936 939 940 941 942 941 940 943 944 945 946 945 944 947 948 949 950 949 948 951 952 953 954 952 954 955 956 957 958 957 956 959 960 961 962 961 960 963 964 965 966 965 964 967 968 969 970 969 968 971 972 973 974 973 972 975 976 977 978 977 976 979 980 981 982 981 980 983 984 985 986 984 987 985 988 989 990 988 991 989 992 993 994 993 992 995 996 997 998 997 996 999 1000 1001 1002 1000 1002 1003 1004 1005 1006 1005 1004 1007 1008 1009 1010 1008 1011 1009 1012 1013 1014 1012 1015 1013 1016 1017 1018 1017 1016 1019 1020 1021 1022 1021 1020 1023 1024 1025 1026 1025 1024 1027 1028 1029 1030 1028 1030 1031 1032 1033 1034 1032 1035 1033</p></triangles>
<triangles material="m2" count="356"><input semantic="VERTEX" source="#g-v" offset="0"/><p>1036 1037 1038 1037 1036 1039 1040 1041 1042 1041 1040 1043 1044 1045 1046 1047 1044 1046 1048 1049 1050 1049 1048 1051 1052 1053 1054 1053 1052 1055 1056 1057 1058 1059 1058 1057 1060 1061 1062 1061 1060 1063 1064 1065 1066 1067 1066 1065 1068 1069 1070 1071 1069 1068 1072 1073 1074 1073 1072 1075 1076 1077 1078 1079 1076 1078 1080 1081 1082 1081 1080 1083 1084 1085 1086 1087 1086 1085 1088 1089 1090 1089 1088 1091 1092 1093 1094 1093 1092 1095 1096 1097 1098 1099 1097 1096 1100 1101 1102 1103 1104 1105 1106 1107 1108 1109 1108 1107 1110 1111 1112 1111 1110 1113 1114 1115 1116 1116 1117 1114 1118 1119 1120 1121 1122 1123 1119 1118 1124 1125 1124 1126 1124 1125 1119 1122 1121 1127 1128 1127 1129 1127 1128 1122 1130 1131 1132 1131 1130 1133 1134 1135 1136 1135 1134 1137 1138 1139 1140 1141 1139 1138 1142 1143 1144 1143 1142 1145 1146 1147 1148 1147 1146 1149 1150 1151 1152 1151 1150 1153 1154 1155 1156 1155 1154 1157 1158 1159 1160 1159 1158 1161 1162 1163 1164 1165 1162 1164 1166 1167 1168 1167 1166 1169 1170 1171 1172 1171 1170 1173 1174 1175 1176 1175 1174 1177 1178 1179 1180 1179 1178 1181 1182 1183 1184 1182 1185 1183 1186 1187 1188 1187 1186 1189 1190 1191 1192 1191 1190 1193 1194 1195 1196 1195 1194 1197 1198 1199 1200 1199 1198 1201 1202 1203 1204 1202 1204 1205 1206 1207 1208 1207 1206 1209 1210 1211 1212 1211 1210 1213 1214 1215 1216 1215 1214 1217 1218 1219 1220 1219 1218 1221 1222 1223 1224 1225 1226 1227 1228 1229 1230 1230 1231 1228 1232 1233 1234 1233 1232 1235 1236 1237 1238 1239 1238 1237 1240 1241 1242 1243 1242 1241 1244 1245 1246 1245 1244 1247 1248 1249 1250 1249 1248 1251 1252 1253 1254 1255 1254 1253 1256 1257 1258 1257 1256 1259 1260 1261 1262 1261 1260 1263 1264 1265 1266 1265 1264 1267 1268 1269 1270 1271 1270 1269 1272 1273 1274 1273 1272 1275 1276 1277 1278 1277 1276 1279 1280 1281 1282 1283 1282 1281 1284 1285 1286 1285 1284 1287 1288 1289 1290 1289 1288 1291 1292 1293 1294 1293 1292 1295 1296 1297 1298 1299 1298 1297 1300 1301 1302 1303 1304 1305 1306 1302 1307 1306 1308 1309 1310 1311 1312 1313 1314 1315 1316 1317 1318 1317 1316 1319 1320 1321 1322 1323 1321 1320 1324 1325 1326 1326 1327 1328 1329 1330 1331 1330 1329 1332 1333 1334 1335 1333 1335 1336 1337 1338 1339 1340 1341 1338 1338 1341 1342 1338 1337 1340 1341 1343 1344 1341 1345 1343 1341 1346 1345 1341 1340 1346 1315 1347 1348 1315 1349 1347 1348 1347 1350 1348 1350 1351 1351 1350 1352 1351 1352 1325 1325 1324 1351 1325 1353 1327 1327 1354 1328 1327 1326 1325 1327 1355 1356 1354 1327 1356 1343 1357 1358 1345 1359 1343 1356 1360 1354 1360 1356 1361 1362 1363 1359 1361 1355 1364 1361 1365 1360 1359 1345 1362 1359 1366 1357 1367 1368 1369 1370 1371 1367 1371 1370 1372 1371 1373 1374 1371 1372 1373 1375 1376 1314 1314 1377 1349 1314 1313 1375 1314 1349 1315 1378 1377 1314 1378 1314 1376 1363 1379 1366 1363 1362 1380 1365 1361 1381 1382 1383 1384 1383 1382 1385 1381 1386 1365 1381 1364 1387 1388 1389 1379 1390 1387 1391 1386 1381 1390 1386 1392 1393 1394 1395 1396 1395 1394 1397 1398 1399 1311 1400 1401 1308 1402 1400 1403 1308 1306 1307 1308 1401 1309 1311 1404 1312 1311 1310 1398 1403 1308 1405 1403 1400 1308 1406 1405 1389 1392 1391 1407 1392 1386 1390 1393 1399 1408 1399 1393 1392 1399 1409 1311 1399 1407 1410 1399 1398 1408 1411 1412 1413 1412 1411 1414 1415 1377 1378 1416 1417 1418 1417 1419 1420 1421 1422 1423 1424 1425 1426 1424 1426 1427 1427 1426 1428 1427 1429 1430 1431 1429 1432 1431 1433 1434 1435 1433 1436 1426 1368 1437 1437 1428 1426 1437 1438 1439 1437 1374 1438 1428 1437 1439 1439 1429 1428 1439 1339 1440 1439 1438 1339 1429 1431 1430 1429 1439 1440 1429 1427 1428 1440 1432 1429 1440 1338 1342 1440 1339 1338 1432 1440 1342 1342 1433 1432 1342 1341 1344 1433 1435 1434 1433 1431 1432 1433 1342 1344 1344 1436 1433 1344 1343 1358 1377 1441 1442 1377 1415 1441 1349 1442 1418 1418 1347 1349 1418 1417 1420 1347 1418 1420 1420 1350 1347 1350 1420 1419 1419 1443 1421 1419 1421 1423 1419 1417 1443 1419 1352 1350 1352 1419 1423 1352 1353 1325 1423 1353 1352 1353 1423 1422 1353 1355 1327 1422 1444 1445 1422 1445 1446 1422 1421 1444 1422 1355 1353 1368 1426 1425 1368 1367 1371 1368 1447 1369 1368 1374 1437 1368 1371 1374 1436 1357 1448 1436 1358 1357 1436 1344 1358 1449 1450 1451 1450 1449 1452 1453 1454 1455 1455 1456 1453 1355 1457 1364 1355 1446 1457 1355 1422 1446 1355 1361 1356 1458 1459 1460 1458 1461 1459 1462 1463 1464 1464 1463 1465 1364 1381 1361 1364 1466 1387 1364 1457 1466 1357 1343 1359 1448 1357 1366 1448 1366 1467 1468 1469 1425 1425 1424 1468 1447 1368 1425 1447 1425 1469 1470 1442 1441 1442 1471 1416 1442 1470 1471 1442 1416 1418 1442 1349 1377 1366 1359 1363 1467 1366 1379 1467 1379 1472 1473 1474 1466 1475 1476 1477 1478 1475 1477 1387 1474 1391 1387 1390 1381 1387 1466 1474 1474 1473 1479 1391 1480 1407 1391 1474 1480 1391 1392 1390 1379 1363 1388 1472 1379 1389 1472 1389 1481 1482 1483 1484 1485 1483 1482 1486 1487 1488 1487 1486 1489 1304 1303 1490 1491 1304 1492 1301 1300 1493 1301 1494 1302 1302 1405 1307 1302 1306 1300 1490 1404 1409 1490 1303 1404 1409 1404 1311 1409 1492 1490 1410 1409 1399 1492 1409 1410 1492 1304 1490 1407 1399 1392 1407 1492 1410 1407 1480 1492 1494 1301 1495 1405 1302 1494 1405 1308 1307 1405 1406 1403 1389 1388 1406 1481 1405 1494 1481 1389 1405 1496 1497 1498 1497 1496 1499 1500 1501 1502 1503 1500 1502</p></triangles>
</mesh></geometry></library_geometries><library_visual_scenes><visual_scene id="Scene"><node id="n" name="sword"><instance_geometry url="#g"><bind_material><technique_common>
<instance_material symbol="m0" target="#m0"/>
<instance_material symbol="m1" target="#m1"/>
<instance_material symbol="m2" target="#m2"/>
</technique_common></bind_material></instance_geometry></node></visual_scene></library_visual_scenes><scene><instance_visual_scene url="#Scene"/></scene></COLLADA>
