<?xml version="1.0" encoding="utf-8"?>
<COLLADA xmlns="http://www.collada.org/2005/11/COLLADASchema" version="1.4.1">
<asset><contributor><authoring_tool>VATs starter props (see CREDITS.md)</authoring_tool></contributor><unit name="meter" meter="1"/><up_axis>Z_UP</up_axis></asset>
<library_effects>
<effect id="m0-fx"><profile_COMMON><technique sid="common"><lambert><diffuse><color>0.620 0.470 0.340 1</color></diffuse></lambert></technique></profile_COMMON></effect>
</library_effects><library_materials>
<material id="m0" name="m0"><instance_effect url="#m0-fx"/></material>
</library_materials><library_geometries><geometry id="g" name="table"><mesh>
<source id="g-p"><float_array id="g-p-a" count="504">0.059192 -0.85446 0.11134 0.059192 -0.85446 0.22267 0.059192 0.85446 0.11134 0.059192 0.85446 0.22267 -0.059192 0.85446 0.11134 -0.059192 0.85446 0.22267 -0.059192 -0.85446 0.11134 -0.059192 -0.85446 0.22267 -0.51346 -0.85446 0.63866 -0.39508 -0.85446 0.63866 -0.51346 0.85446 0.63866 -0.39508 0.85446 0.63866 0.51346 0.85446 0.63866 0.51346 -0.85446 0.63866 0.39508 -0.85446 0.63866 -0.39508 -0.96579 0.63866 0.39508 -0.96579 0.63866 0.39508 0.85446 0.63866 -0.39508 0.96579 0.63866 0.39508 0.96579 0.63866 -0.39508 -0.91013 0.11134 0.39508 -0.91013 0.11134 -0.39508 -0.85446 0.11134 -0.059192 -0.85446 0.11134 0.059192 -0.85446 0.11134 0.39508 -0.85446 0.11134 0.059192 0.85446 0.11134 -0.059192 0.85446 0.11134 -0.39508 0.91013 0.11134 -0.39508 0.85446 0.11134 0.39508 0.91013 0.11134 0.39508 0.85446 0.11134 0.39508 -0.91013 0.22267 -0.39508 -0.91013 0.22267 0.39508 -0.85446 0.22267 -0.39508 -0.85446 0.22267 0.059192 -0.85446 0.22267 -0.059192 -0.85446 0.22267 0.059192 0.85446 0.22267 -0.059192 0.85446 0.22267 -0.39508 0.91013 0.22267 -0.39508 0.85446 0.22267 0.39508 0.91013 0.22267 0.39508 0.85446 0.22267 0.51346 0.85446 0.63866 0.51346 0.85446 1.2605e-14 0.39508 0.85446 0.63866 0.39508 0.85446 1.2605e-14 0.39508 0.85446 0.22267 0.39508 0.85446 0.11134 0.059192 0.85446 0.22267 0.059192 0.85446 0.11134 -0.39508 0.96579 1.2605e-14 -0.39508 0.96579 0.63866 -0.51346 0.96579 1.2605e-14 -0.51346 0.96579 0.75 0.39508 0.96579 0.63866 0.51346 0.96579 0.75 0.39508 0.96579 1.2605e-14 0.51346 0.96579 1.2605e-14 -0.39508 0.85446 0.63866 -0.39508 0.85446 0.22267 -0.51346 0.85446 0.63866 -0.39508 0.85446 0.11134 -0.51346 0.85446 1.2605e-14 -0.39508 0.85446 1.2605e-14 -0.059192 0.85446 0.11134 -0.059192 0.85446 0.22267 -0.51346 0.85446 1.2605e-14 -0.39508 0.85446 1.2605e-14 -0.51346 0.96579 1.2605e-14 -0.39508 0.96579 1.2605e-14 0.39508 0.91013 0.22267 -0.39508 0.91013 0.22267 0.39508 0.91013 0.11134 -0.39508 0.91013 0.11134 0.39508 -0.96579 1.4182e-13 0.51346 -0.96579 1.4182e-13 0.39508 -0.85446 0 0.51346 -0.85446 0 -0.39508 0.85446 1.2605e-14 -0.39508 0.91013 0.11134 -0.39508 0.96579 1.2605e-14 -0.39508 0.96579 0.63866 -0.39508 0.91013 0.22267 -0.39508 0.85446 0.22267 -0.39508 0.85446 0.63866 -0.39508 0.85446 0.11134 0.39508 -0.91013 0.22267 0.39508 -0.91013 0.11134 -0.39508 -0.91013 0.22267 -0.39508 -0.91013 0.11134 -0.51346 -0.96579 1.4182e-13 -0.39508 -0.96579 1.4182e-13 -0.51346 -0.85446 1.371e-13 -0.39508 -0.85446 1.371e-13 0.51346 -0.96579 0.75 0.39508 -0.96579 0.63866 -0.51346 -0.96579 0.75 -0.39508 -0.96579 0.63866 -0.39508 -0.96579 1.4182e-13 -0.51346 -0.96579 1.4182e-13 0.39508 -0.96579 1.4182e-13 0.51346 -0.96579 1.4182e-13 0.39508 -0.85446 0 0.39508 -0.85446 0.11134 0.39508 -0.96579 1.4182e-13 0.39508 -0.91013 0.11134 0.39508 -0.96579 0.63866 0.39508 -0.91013 0.22267 0.39508 -0.85446 0.63866 0.39508 -0.85446 0.22267 0.39508 0.85446 1.2605e-14 0.39508 0.96579 1.2605e-14 0.39508 0.85446 0.11134 0.39508 0.91013 0.11134 0.39508 0.96579 0.63866 0.39508 0.91013 0.22267 0.39508 0.85446 0.22267 0.39508 0.85446 0.63866 -0.39508 -0.85446 1.371e-13 -0.39508 -0.96579 1.4182e-13 -0.39508 -0.85446 0.11134 -0.39508 -0.91013 0.11134 -0.39508 -0.96579 0.63866 -0.39508 -0.91013 0.22267 -0.39508 -0.85446 0.22267 -0.39508 -0.85446 0.63866 0.39508 -0.85446 0.11134 0.39508 -0.85446 0.22267 0.059192 -0.85446 0.11134 0.059192 -0.85446 0.22267 0.39508 -0.85446 0.63866 0.39508 -0.85446 0 0.51346 -0.85446 0.63866 0.51346 -0.85446 0 0.39508 0.85446 1.2605e-14 0.51346 0.85446 1.2605e-14 0.39508 0.96579 1.2605e-14 0.51346 0.96579 1.2605e-14 -0.059192 -0.85446 0.22267 -0.39508 -0.85446 0.22267 -0.059192 -0.85446 0.11134 -0.39508 -0.85446 0.11134 -0.39508 -0.85446 0.63866 -0.39508 -0.85446 1.371e-13 -0.51346 -0.85446 1.371e-13 -0.51346 -0.85446 0.63866 -0.51346 -0.96579 0.75 -0.51346 0.96579 0.75 0.51346 -0.96579 0.75 0.51346 0.96579 0.75 0.51346 0.96579 1.2605e-14 0.51346 0.85446 1.2605e-14 0.51346 0.96579 0.75 0.51346 0.85446 0.63866 0.51346 -0.96579 0.75 0.51346 -0.85446 0.63866 0.51346 -0.96579 1.4182e-13 0.51346 -0.85446 0 -0.51346 -0.85446 1.371e-13 -0.51346 -0.85446 0.63866 -0.51346 -0.96579 1.4182e-13 -0.51346 -0.96579 0.75 -0.51346 0.96579 0.75 -0.51346 0.85446 0.63866 -0.51346 0.96579 1.2605e-14 -0.51346 0.85446 1.2605e-14</float_array><technique_common><accessor source="#g-p-a" count="168" stride="3"><param name="X" type="float"/><param name="Y" type="float"/><param name="Z" type="float"/></accessor></technique_common></source>
<source id="g-n"><float_array id="g-n-a" count="504">1 0 0 1 0 0 1 0 0 1 0 0 -1 0 0 -1 0 0 -1 0 0 -1 0 0 0 0 -1 0 0 -1 0 0 -1 0 0 -1 0 0 -1 0 0 -1 0 0 -1 0 0 -1 0 0 -1 0 0 -1 0 0 -1 0 0 -1 0 0 -1 0 0 -1 0 0 -1 0 0 -1 0 0 -1 0 0 -1 0 0 -1 0 0 -1 0 0 -1 0 0 -1 0 0 -1 0 0 -1 0 0 1 0 0 1 0 0 1 0 0 1 0 0 1 0 0 1 0 0 1 0 0 1 0 0 1 0 0 1 0 0 1 0 0 1 0 -1 0 0 -1 0 0 -1 0 0 -1 0 0 -1 0 0 -1 0 0 -1 0 0 -1 0 0 1 0 0 1 0 0 1 0 0 1 0 0 1 0 0 1 0 0 1 0 0 1 0 0 -1 0 0 -1 0 0 -1 0 0 -1 0 0 -1 0 0 -1 0 0 -1 0 0 -1 0 0 0 -1 0 0 -1 0 0 -1 0 0 -1 0 1 0 0 1 0 0 1 0 0 1 0 3.5661e-26 -1.2738e-12 -1 1.7134e-26 -1.2738e-12 -1 1.8527e-26 -1.2738e-12 -1 0 -1.2738e-12 -1 1 0 0 1 0 0 1 0 0 1 0 0 1 0 0 1 0 0 1 0 0 1 0 0 0 -1 0 0 -1 0 0 -1 0 0 -1 0 1.1875e-27 -4.2417e-14 -1 5.7055e-28 -4.2417e-14 -1 6.1692e-28 -4.2417e-14 -1 0 -4.2417e-14 -1 1.5583e-14 -1 -1.4043e-14 2.8662e-15 -1 -1.01e-13 1.0227e-12 -1 -1.4063e-12 1.1837e-12 -1 -1.7107e-12 3.0353e-13 -1 -3.9288e-13 2.7995e-14 -1 -4.3637e-13 2.5205e-14 -1 -3.9785e-15 2.7996e-14 -1 -4.419e-15 -1 0 0 -1 0 0 -1 0 0 -1 0 0 -1 0 0 -1 0 0 -1 0 0 -1 0 0 -1 0 0 -1 0 0 -1 0 0 -1 0 0 -1 0 0 -1 0 0 -1 0 0 -1 0 0 1 0 0 1 0 0 1 0 0 1 0 0 1 0 0 1 0 0 1 0 0 1 0 0 0 1 0 0 1 0 0 1 0 0 1 0 0 1 0 0 1 0 0 1 0 0 1 0 0 0 -1 0 0 -1 0 0 -1 0 0 -1 0 1 0 0 1 0 0 1 0 0 1 0 0 1 0 0 1 0 0 1 0 0 1 0 0 0 1 0 0 1 0 0 1 0 0 1 1 3.6977e-14 1.8643e-15 1 3.8155e-14 1.6894e-15 1 9.7087e-14 -4.8555e-14 1 9.8113e-14 -5.1225e-14 1 2.8244e-13 -1.3565e-13 1 2.8274e-13 -1.4327e-13 1 4.4725e-13 3.983e-16 1 4.4953e-13 0 -1 0 0 -1 0 0 -1 0 0 -1 0 0 -1 0 0 -1 0 0 -1 0 0 -1 0 0</float_array><technique_common><accessor source="#g-n-a" count="168" stride="3"><param name="X" type="float"/><param name="Y" type="float"/><param name="Z" type="float"/></accessor></technique_common></source>
<vertices id="g-v"><input semantic="POSITION" source="#g-p"/><input semantic="NORMAL" source="#g-n"/></vertices>
<triangles material="m0" count="110"><input semantic="VERTEX" source="#g-v" offset="0"/><p>2 1 0 1 2 3 6 5 4 5 6 7 10 9 8 11 9 10 12 9 11 13 9 12 14 15 9 15 14 16 18 17 11 17 18 19 22 21 20 21 22 23 21 23 24 21 24 25 23 26 24 26 23 27 27 28 26 28 27 29 26 28 30 30 31 26 34 33 32 33 34 35 37 36 38 37 38 39 40 39 38 39 40 41 40 38 42 42 38 43 46 45 44 45 46 47 49 48 50 49 50 51 54 53 52 55 53 54 55 56 53 57 56 55 57 58 56 58 57 59 62 61 60 61 62 63 64 63 62 63 64 65 66 61 63 61 66 67 70 69 68 69 70 71 74 73 72 73 74 75 78 77 76 77 78 79 82 81 80 81 82 83 81 83 84 84 83 85 85 83 86 87 80 81 90 89 88 89 90 91 94 93 92 93 94 95 98 97 96 97 98 99 99 98 100 100 98 101 102 96 97 96 102 103 106 105 104 105 106 107 107 106 108 107 108 109 109 108 110 110 111 109 114 113 112 113 114 115 115 116 113 116 115 117 116 117 118 116 118 119 122 121 120 121 122 123 123 124 121 124 123 125 124 125 126 124 126 127 130 129 128 129 130 131 134 133 132 133 134 135 138 137 136 137 138 139 142 141 140 141 142 143 144 145 146 144 146 147 150 149 148 149 150 151 154 153 152 153 154 155 156 155 154 156 157 155 158 157 156 157 158 159 162 161 160 161 162 163 161 163 164 164 165 161 166 165 164 165 166 167</p></triangles>
</mesh></geometry></library_geometries><library_visual_scenes><visual_scene id="Scene"><node id="n" name="table"><instance_geometry url="#g"><bind_material><technique_common>
<instance_material symbol="m0" target="#m0"/>
</technique_common></bind_material></instance_geometry></node></visual_scene></library_visual_scenes><scene><instance_visual_scene url="#Scene"/></scene></COLLADA>
