<?xml version="1.0" encoding="utf-8"?>
<COLLADA xmlns="http://www.collada.org/2005/11/COLLADASchema" version="1.4.1">
<asset><contributor><authoring_tool>VATs starter props (see CREDITS.md)</authoring_tool></contributor><unit name="meter" meter="1"/><up_axis>Z_UP</up_axis></asset>
<library_effects>
<effect id="m0-fx"><profile_COMMON><technique sid="common"><lambert><diffuse><color>0.620 0.470 0.340 1</color></diffuse></lambert></technique></profile_COMMON></effect>
<effect id="m1-fx"><profile_COMMON><technique sid="common"><lambert><diffuse><color>0.360 0.390 0.430 1</color></diffuse></lambert></technique></profile_COMMON></effect>
</library_effects><library_materials>
<material id="m0" name="m0"><instance_effect url="#m0-fx"/></material>
<material id="m1" name="m1"><instance_effect url="#m1-fx"/></material>
</library_materials><library_geometries><geometry id="g" name="tankard"><mesh>
<source id="g-p"><float_array id="g-p-a" count="1062">0.0085516 -0.074776 0.071708 0.0085516 -0.05491 0.10612 -0.0085516 -0.074776 0.071708 -0.0085516 -0.05491 0.10612 -0.035558 -0.035043 0.11708 -0.071115 0.026544 0.11708 -0.035558 -0.035043 0.13683 -0.071115 0.026544 0.14342 -0.035558 -0.035043 0.14342 -0.035558 -0.035043 0.14342 -0.071115 0.026544 0.14342 -0.027483 -0.021058 0.14342 -0.054966 0.026544 0.14342 0.035558 -0.035043 0.13683 0.027483 -0.021058 0.13683 0.035558 -0.035043 0.15 0.027483 -0.021058 0.15 -0.0085516 -0.05491 0.10612 0.0085516 -0.05491 0.10612 -0.0085516 -0.051943 0.10612 0.0085516 -0.051943 0.10612 -0.0085516 -0.041202 0.10612 0.0085516 -0.041202 0.10612 -0.0085516 -0.064667 0.12302 -0.0085516 -0.035043 0.12302 0.0085516 -0.064667 0.12302 0.0085516 -0.035043 0.12302 0.0085516 -0.09429 0.071708 -0.0085516 -0.09429 0.071708 0.0085516 -0.064667 0.12302 -0.0085516 -0.064667 0.12302 -0.054966 0.026544 0.02489 -0.027483 -0.021058 0.02489 -0.054966 0.026544 0.14342 -0.027483 -0.021058 0.13683 -0.027483 -0.021058 0.14342 -0.071115 0.026544 0.046093 -0.035558 0.088132 0.046093 -0.071115 0.026544 0.097322 -0.035558 0.088132 0.097322 -0.0085516 -0.064667 0.020398 0.0085516 -0.064667 0.020398 -0.0085516 -0.035043 0.020398 0.0085516 -0.035043 0.020398 -0.054966 0.026544 0.15 -0.054966 0.026544 0.14342 -0.071115 0.026544 0.15 -0.071115 0.026544 0.14342 -0.0085516 -0.035043 0.026339 -0.0085516 -0.041202 0.026339 -0.0085516 -0.035043 0.020398 -0.0085516 -0.05491 0.037298 -0.0085516 -0.041202 0.037298 -0.0085516 -0.064667 0.020398 -0.0085516 -0.09429 0.071708 -0.0085516 -0.074776 0.071708 -0.0085516 -0.064667 0.12302 -0.0085516 -0.05491 0.10612 -0.0085516 -0.051943 0.10612 -0.0085516 -0.041202 0.10612 -0.0085516 -0.041202 0.11708 -0.0085516 -0.035043 0.11708 -0.0085516 -0.035043 0.12302 -0.0085516 -0.05491 0.037298 -0.0085516 -0.051943 0.037298 0.0085516 -0.05491 0.037298 0.0085516 -0.051943 0.037298 -0.0085516 -0.041202 0.037298 0.0085516 -0.041202 0.037298 0.0085516 -0.09429 0.071708 0.0085516 -0.064667 0.020398 -0.0085516 -0.09429 0.071708 -0.0085516 -0.064667 0.020398 0.035558 0.088132 0.046093 0.035558 0.088132 0.097322 -0.035558 0.088132 0.046093 -0.035558 0.088132 0.097322 0.071115 0.026544 0 0.035558 -0.035043 0 0.071115 0.026544 0.026339 0.035558 -0.035043 0.026339 -0.071115 0.026544 0.15 -0.035558 0.088132 0.15 -0.054966 0.026544 0.15 -0.027483 0.074146 0.15 0.035558 0.088132 0 0.071115 0.026544 0 0.035558 0.088132 0.026339 0.071115 0.026544 0.026339 -0.071115 0.026544 0.11708 -0.035558 0.088132 0.11708 -0.071115 0.026544 0.14342 -0.035558 0.088132 0.13683 -0.035558 0.088132 0.15 -0.071115 0.026544 0.15 0.035558 0.088132 0.046093 0.071115 0.026544 0.046093 0.035558 0.088132 0.097322 0.071115 0.026544 0.097322 0.071115 0.026544 0.14342 0.071115 0.026544 0.15 0.054966 0.026544 0.14342 0.054966 0.026544 0.15 -0.027483 -0.021058 0.02489 -0.054966 0.026544 0.02489 0.027483 -0.021058 0.02489 0.054966 0.026544 0.02489 -0.027483 0.074146 0.02489 0.027483 0.074146 0.02489 -0.027483 -0.021058 0.13683 -0.035558 -0.035043 0.13683 -0.027483 -0.021058 0.14342 -0.035558 -0.035043 0.14342 0.027483 -0.021058 0.02489 0.027483 -0.021058 0.13683 -0.027483 -0.021058 0.02489 -0.027483 -0.021058 0.13683 -0.035558 -0.035043 0 -0.071115 0.026544 0 -0.035558 -0.035043 0.026339 -0.071115 0.026544 0.026339 0.027483 0.074146 0.13683 0.035558 0.088132 0.13683 0.027483 0.074146 0.14342 0.035558 0.088132 0.14342 0.054966 0.026544 0.02489 0.027483 0.074146 0.02489 0.054966 0.026544 0.14342 0.027483 0.074146 0.13683 0.027483 0.074146 0.14342 0.071115 0.026544 0.11708 0.035558 -0.035043 0.11708 0.071115 0.026544 0.14342 0.035558 -0.035043 0.13683 0.035558 -0.035043 0.15 0.071115 0.026544 0.15 0.035558 -0.035043 0.15 0.027483 -0.021058 0.15 0.071115 0.026544 0.15 0.054966 0.026544 0.15 0.071115 0.026544 0.046093 0.035558 -0.035043 0.046093 0.071115 0.026544 0.097322 0.035558 -0.035043 0.097322 -0.035558 -0.035043 0.046093 -0.071115 0.026544 0.046093 -0.035558 -0.035043 0.097322 -0.071115 0.026544 0.097322 0.054966 0.026544 0.14342 0.027483 0.074146 0.14342 0.071115 0.026544 0.14342 0.035558 0.088132 0.14342 -0.027483 0.074146 0.13683 -0.035558 0.088132 0.13683 0.027483 0.074146 0.13683 0.035558 0.088132 0.13683 -0.071115 0.026544 0 -0.035558 0.088132 0 -0.071115 0.026544 0.026339 -0.035558 0.088132 0.026339 -0.027483 0.074146 0.02489 -0.054966 0.026544 0.02489 -0.027483 0.074146 0.13683 -0.054966 0.026544 0.14342 -0.027483 0.074146 0.15 -0.054966 0.026544 0.15 0.035558 -0.035043 0.097322 0.035558 -0.035043 0.046093 -0.035558 -0.035043 0.097322 -0.035558 -0.035043 0.046093 0.035558 0.088132 0.11708 0.035558 0.088132 0.13683 -0.035558 0.088132 0.11708 -0.035558 0.088132 0.13683 0.027483 0.074146 0.13683 0.027483 0.074146 0.02489 -0.027483 0.074146 0.13683 -0.027483 0.074146 0.02489 0.027483 -0.021058 0.02489 0.054966 0.026544 0.02489 0.027483 -0.021058 0.13683 0.054966 0.026544 0.14342 0.027483 -0.021058 0.15 0.054966 0.026544 0.15 0.035558 -0.035043 0.13683 0.035558 -0.035043 0.11708 -0.035558 -0.035043 0.13683 0.0085516 -0.035043 0.12302 0.0085516 -0.035043 0.11708 -0.0085516 -0.035043 0.12302 -0.0085516 -0.035043 0.11708 -0.035558 -0.035043 0.11708 -0.0085516 -0.035043 0.026339 -0.0085516 -0.035043 0.020398 -0.035558 -0.035043 0.026339 -0.035558 -0.035043 0 0.0085516 -0.035043 0.020398 0.035558 -0.035043 0 0.0085516 -0.035043 0.026339 0.035558 -0.035043 0.026339 -0.035558 -0.035043 0 0.035558 -0.035043 0 -0.071115 0.026544 0 0.071115 0.026544 0 -0.035558 0.088132 0 0.035558 0.088132 0 0.035558 0.088132 0 0.035558 0.088132 0.026339 -0.035558 0.088132 0 -0.035558 0.088132 0.026339 0.035558 0.088132 0.11708 0.071115 0.026544 0.11708 0.035558 0.088132 0.13683 0.071115 0.026544 0.14342 0.035558 0.088132 0.14342 -0.035558 -0.035043 0.13683 -0.027483 -0.021058 0.13683 0.035558 -0.035043 0.13683 0.027483 -0.021058 0.13683 -0.035558 0.088132 0.13683 -0.027483 0.074146 0.13683 -0.035558 0.088132 0.15 -0.027483 0.074146 0.15 0.0085516 -0.074776 0.071708 -0.0085516 -0.074776 0.071708 0.0085516 -0.05491 0.037298 -0.0085516 -0.05491 0.037298 0.0085516 -0.041202 0.10612 0.0085516 -0.051943 0.10612 0.0085516 -0.041202 0.11708 0.0085516 -0.05491 0.10612 0.0085516 -0.064667 0.12302 0.0085516 -0.035043 0.12302 0.0085516 -0.035043 0.11708 0.0085516 -0.09429 0.071708 0.0085516 -0.074776 0.071708 0.0085516 -0.05491 0.037298 0.0085516 -0.064667 0.020398 0.0085516 -0.041202 0.026339 0.0085516 -0.041202 0.037298 0.0085516 -0.035043 0.026339 0.0085516 -0.035043 0.020398 -0.039113 -0.041202 0.097322 -0.078227 0.026544 0.097322 -0.039113 -0.041202 0.11708 -0.078227 0.026544 0.11708 -0.0085516 -0.041202 0.11708 -0.0085516 -0.041202 0.10612 -0.039113 -0.041202 0.11708 -0.039113 -0.041202 0.097322 0.0085516 -0.041202 0.10612 0.039113 -0.041202 0.097322 0.0085516 -0.041202 0.11708 0.039113 -0.041202 0.11708 -0.039113 -0.041202 0.026339 -0.039113 -0.041202 0.046093 -0.0085516 -0.041202 0.026339 -0.0085516 -0.041202 0.037298 0.0085516 -0.041202 0.037298 0.039113 -0.041202 0.046093 0.039113 -0.041202 0.026339 0.0085516 -0.041202 0.026339 0.039113 0.09429 0.097322 0.039113 0.09429 0.11708 -0.039113 0.09429 0.097322 -0.039113 0.09429 0.11708 0.078227 0.026544 0.097322 0.039113 -0.041202 0.097322 0.078227 0.026544 0.11708 0.039113 -0.041202 0.11708 -0.078227 0.026544 0.097322 -0.039113 0.09429 0.097322 -0.078227 0.026544 0.11708 -0.039113 0.09429 0.11708 0.039113 0.09429 0.097322 0.078227 0.026544 0.097322 0.039113 0.09429 0.11708 0.078227 0.026544 0.11708 0.039113 0.09429 0.026339 0.078227 0.026544 0.026339 0.039113 0.09429 0.046093 0.078227 0.026544 0.046093 0.078227 0.026544 0.026339 0.039113 -0.041202 0.026339 0.078227 0.026544 0.046093 0.039113 -0.041202 0.046093 -0.0085516 -0.041202 0.11708 -0.035558 -0.035043 0.11708 -0.0085516 -0.035043 0.11708 -0.039113 -0.041202 0.11708 -0.078227 0.026544 0.11708 -0.071115 0.026544 0.11708 -0.039113 0.09429 0.11708 -0.035558 0.088132 0.11708 0.035558 0.088132 0.11708 0.039113 0.09429 0.11708 0.078227 0.026544 0.11708 0.071115 0.026544 0.11708 0.035558 -0.035043 0.11708 0.039113 -0.041202 0.11708 0.0085516 -0.035043 0.11708 0.0085516 -0.041202 0.11708 -0.039113 -0.041202 0.026339 -0.078227 0.026544 0.026339 -0.039113 -0.041202 0.046093 -0.078227 0.026544 0.046093 -0.078227 0.026544 0.026339 -0.039113 0.09429 0.026339 -0.078227 0.026544 0.046093 -0.039113 0.09429 0.046093 0.039113 0.09429 0.026339 0.039113 0.09429 0.046093 -0.039113 0.09429 0.026339 -0.039113 0.09429 0.046093 0.0085516 -0.041202 0.026339 0.039113 -0.041202 0.026339 0.0085516 -0.035043 0.026339 0.035558 -0.035043 0.026339 0.078227 0.026544 0.026339 0.071115 0.026544 0.026339 0.035558 0.088132 0.026339 0.039113 0.09429 0.026339 -0.039113 0.09429 0.026339 -0.035558 0.088132 0.026339 -0.071115 0.026544 0.026339 -0.078227 0.026544 0.026339 -0.035558 -0.035043 0.026339 -0.039113 -0.041202 0.026339 -0.0085516 -0.041202 0.026339 -0.0085516 -0.035043 0.026339 -0.035558 0.088132 0.046093 -0.071115 0.026544 0.046093 -0.039113 0.09429 0.046093 0.035558 0.088132 0.046093 -0.078227 0.026544 0.046093 0.039113 0.09429 0.046093 -0.035558 -0.035043 0.046093 -0.039113 -0.041202 0.046093 0.039113 -0.041202 0.046093 0.035558 -0.035043 0.046093 0.078227 0.026544 0.046093 0.071115 0.026544 0.046093 0.039113 0.09429 0.097322 0.035558 0.088132 0.097322 0.078227 0.026544 0.097322 -0.039113 0.09429 0.097322 0.071115 0.026544 0.097322 -0.035558 0.088132 0.097322 0.035558 -0.035043 0.097322 -0.071115 0.026544 0.097322 0.039113 -0.041202 0.097322 -0.078227 0.026544 0.097322 -0.035558 -0.035043 0.097322 -0.039113 -0.041202 0.097322</float_array><technique_common><accessor source="#g-p-a" count="354" stride="3"><param name="X" type="float"/><param name="Y" type="float"/><param name="Z" type="float"/></accessor></technique_common></source>
<source id="g-n"><float_array id="g-n-a" count="1062">1.0606e-16 0.86603 -0.5 1.0606e-16 0.86603 -0.5 1.0606e-16 0.86603 -0.5 1.0606e-16 0.86603 -0.5 -0.86603 -0.5 0 -0.86603 -0.5 0 -0.86603 -0.5 0 -0.86603 -0.5 0 -0.86603 -0.5 0 0 0 1 0 0 1 0 0 1 0 0 1 -0.86603 -0.5 0 -0.86603 -0.5 0 -0.86603 -0.5 0 -0.86603 -0.5 0 0 0 -1 0 0 -1 0 0 -1 0 0 -1 0 0 -1 0 0 -1 0 0 1 0 0 1 0 0 1 0 0 1 -1.0606e-16 -0.86603 0.5 -1.0606e-16 -0.86603 0.5 -1.0606e-16 -0.86603 0.5 -1.0606e-16 -0.86603 0.5 0.86603 0.5 0 0.86603 0.5 0 0.86603 0.5 0 0.86603 0.5 0 0.86603 0.5 0 -0.86603 0.5 0 -0.86603 0.5 0 -0.86603 0.5 0 -0.86603 0.5 0 0 0 -1 0 0 -1 0 0 -1 0 0 -1 8.2666e-14 -1 0 8.2666e-14 -1 0 8.2666e-14 -1 0 8.2666e-14 -1 0 -1 1.2246e-16 0 -1 1.2246e-16 0 -1 1.2246e-16 0 -1 1.2246e-16 0 -1 1.2246e-16 0 -1 1.2246e-16 0 -1 1.2246e-16 0 -1 1.2246e-16 0 -1 1.2246e-16 0 -1 1.2246e-16 0 -1 1.2246e-16 0 -1 1.2246e-16 0 -1 1.2246e-16 0 -1 1.2246e-16 0 -1 1.2246e-16 0 0 0 1 0 0 1 0 0 1 0 0 1 0 0 1 0 0 1 -1.0606e-16 -0.86603 -0.5 -1.0606e-16 -0.86603 -0.5 -1.0606e-16 -0.86603 -0.5 -1.0606e-16 -0.86603 -0.5 1.2246e-16 1 0 1.2246e-16 1 0 1.2246e-16 1 0 1.2246e-16 1 0 0.86603 -0.5 0 0.86603 -0.5 0 0.86603 -0.5 0 0.86603 -0.5 0 0 0 1 0 0 1 0 0 1 0 0 1 0.86603 0.5 0 0.86603 0.5 0 0.86603 0.5 0 0.86603 0.5 0 -0.86603 0.5 0 -0.86603 0.5 0 -0.86603 0.5 0 -0.86603 0.5 0 -0.86603 0.5 0 -0.86603 0.5 0 0.86603 0.5 0 0.86603 0.5 0 0.86603 0.5 0 0.86603 0.5 0 -7.96e-14 1 0 -7.96e-14 1 0 -7.96e-14 1 0 -7.96e-14 1 0 0 0 1 0 0 1 0 0 1 0 0 1 0 0 1 0 0 1 0.86603 -0.5 0 0.86603 -0.5 0 0.86603 -0.5 0 0.86603 -0.5 0 1.2246e-16 1 0 1.2246e-16 1 0 1.2246e-16 1 0 1.2246e-16 1 0 -0.86603 -0.5 0 -0.86603 -0.5 0 -0.86603 -0.5 0 -0.86603 -0.5 0 -0.86603 0.5 0 -0.86603 0.5 0 -0.86603 0.5 0 -0.86603 0.5 0 -0.86603 -0.5 0 -0.86603 -0.5 0 -0.86603 -0.5 0 -0.86603 -0.5 0 -0.86603 -0.5 0 0.86603 -0.5 0 0.86603 -0.5 0 0.86603 -0.5 0 0.86603 -0.5 0 0.86603 -0.5 0 0.86603 -0.5 0 0 0 1 0 0 1 0 0 1 0 0 1 0.86603 -0.5 0 0.86603 -0.5 0 0.86603 -0.5 0 0.86603 -0.5 0 -0.86603 -0.5 0 -0.86603 -0.5 0 -0.86603 -0.5 0 -0.86603 -0.5 0 0 0 1 0 0 1 0 0 1 0 0 1 0 0 1 0 0 1 0 0 1 0 0 1 -0.86603 0.5 0 -0.86603 0.5 0 -0.86603 0.5 0 -0.86603 0.5 0 0.86603 -0.5 0 0.86603 -0.5 0 0.86603 -0.5 0 0.86603 -0.5 0 0.86603 -0.5 0 0.86603 -0.5 0 -1.2246e-16 -1 0 -1.2246e-16 -1 0 -1.2246e-16 -1 0 -1.2246e-16 -1 0 1.2246e-16 1 0 1.2246e-16 1 0 1.2246e-16 1 0 1.2246e-16 1 0 -1.2246e-16 -1 0 -1.2246e-16 -1 0 -1.2246e-16 -1 0 -1.2246e-16 -1 0 -0.86603 0.5 0 -0.86603 0.5 0 -0.86603 0.5 0 -0.86603 0.5 0 -0.86603 0.5 0 -0.86603 0.5 0 -1.2246e-16 -1 0 -1.2246e-16 -1 0 -1.2246e-16 -1 0 -1.2246e-16 -1 0 -1.2246e-16 -1 0 -1.2246e-16 -1 0 -1.2246e-16 -1 0 -1.2246e-16 -1 0 -1.2246e-16 -1 0 -1.2246e-16 -1 0 -1.2246e-16 -1 0 -1.2246e-16 -1 0 -1.2246e-16 -1 0 -1.2246e-16 -1 0 -1.2246e-16 -1 0 -1.2246e-16 -1 0 0 0 -1 0 0 -1 0 0 -1 0 0 -1 0 0 -1 0 0 -1 1.2246e-16 1 0 1.2246e-16 1 0 1.2246e-16 1 0 1.2246e-16 1 0 0.86603 0.5 0 0.86603 0.5 0 0.86603 0.5 0 0.86603 0.5 0 0.86603 0.5 0 0 0 1 0 0 1 0 0 1 0 0 1 0.86603 0.5 0 0.86603 0.5 0 0.86603 0.5 0 0.86603 0.5 0 1.0606e-16 0.86603 0.5 1.0606e-16 0.86603 0.5 1.0606e-16 0.86603 0.5 1.0606e-16 0.86603 0.5 1 -1.2246e-16 0 1 -1.2246e-16 0 1 -1.2246e-16 0 1 -1.2246e-16 0 1 -1.2246e-16 0 1 -1.2246e-16 0 1 -1.2246e-16 0 1 -1.2246e-16 0 1 -1.2246e-16 0 1 -1.2246e-16 0 1 -1.2246e-16 0 1 -1.2246e-16 0 1 -1.2246e-16 0 1 -1.2246e-16 0 1 -1.2246e-16 0 -0.86603 -0.5 0 -0.86603 -0.5 0 -0.86603 -0.5 0 -0.86603 -0.5 0 -1.2246e-16 -1 0 -1.2246e-16 -1 0 -1.2246e-16 -1 0 -1.2246e-16 -1 0 -1.2246e-16 -1 0 -1.2246e-16 -1 0 -1.2246e-16 -1 0 -1.2246e-16 -1 0 -1.2246e-16 -1 0 -1.2246e-16 -1 0 -1.2246e-16 -1 0 -1.2246e-16 -1 0 -1.2246e-16 -1 0 -1.2246e-16 -1 0 -1.2246e-16 -1 0 -1.2246e-16 -1 0 1.2246e-16 1 0 1.2246e-16 1 0 1.2246e-16 1 0 1.2246e-16 1 0 0.86603 -0.5 0 0.86603 -0.5 0 0.86603 -0.5 0 0.86603 -0.5 0 -0.86603 0.5 0 -0.86603 0.5 0 -0.86603 0.5 0 -0.86603 0.5 0 0.86603 0.5 0 0.86603 0.5 0 0.86603 0.5 0 0.86603 0.5 0 0.86603 0.5 0 0.86603 0.5 0 0.86603 0.5 0 0.86603 0.5 0 0.86603 -0.5 0 0.86603 -0.5 0 0.86603 -0.5 0 0.86603 -0.5 0 0 0 1 0 0 1 0 0 1 0 0 1 0 0 1 0 0 1 0 0 1 0 0 1 0 0 1 0 0 1 0 0 1 0 0 1 0 0 1 0 0 1 0 0 1 0 0 1 -0.86603 -0.5 0 -0.86603 -0.5 0 -0.86603 -0.5 0 -0.86603 -0.5 0 -0.86603 0.5 0 -0.86603 0.5 0 -0.86603 0.5 0 -0.86603 0.5 0 1.2246e-16 1 0 1.2246e-16 1 0 1.2246e-16 1 0 1.2246e-16 1 0 0 0 -1 0 0 -1 0 0 -1 0 0 -1 0 0 -1 0 0 -1 0 0 -1 0 0 -1 0 0 -1 0 0 -1 0 0 -1 0 0 -1 0 0 -1 0 0 -1 0 0 -1 0 0 -1 0 0 1 0 0 1 0 0 1 0 0 1 0 0 1 0 0 1 0 0 1 0 0 1 0 0 1 0 0 1 0 0 1 0 0 1 0 0 -1 0 0 -1 0 0 -1 0 0 -1 0 0 -1 0 0 -1 0 0 -1 0 0 -1 0 0 -1 0 0 -1 0 0 -1 0 0 -1</float_array><technique_common><accessor source="#g-n-a" count="354" stride="3"><param name="X" type="float"/><param name="Y" type="float"/><param name="Z" type="float"/></accessor></technique_common></source>
<vertices id="g-v"><input semantic="POSITION" source="#g-p"/><input semantic="NORMAL" source="#g-n"/></vertices>
<triangles material="m0" count="146"><input semantic="VERTEX" source="#g-v" offset="0"/><p>2 1 0 1 2 3 6 5 4 5 6 7 7 6 8 11 10 9 10 11 12 15 14 13 14 15 16 19 18 17 18 19 20 20 19 21 20 21 22 25 24 23 24 25 26 29 28 27 28 29 30 33 32 31 32 33 34 34 33 35 38 37 36 37 38 39 42 41 40 41 42 43 46 45 44 45 46 47 50 49 48 50 51 49 49 51 52 53 51 50 51 53 54 51 54 55 55 54 56 55 56 57 57 56 58 58 56 59 59 56 60 60 56 61 61 56 62 65 64 63 64 65 66 64 66 67 67 66 68 71 70 69 70 71 72 75 74 73 74 75 76 79 78 77 78 79 80 83 82 81 82 83 84 87 86 85 86 87 88 91 90 89 90 91 92 92 91 93 93 91 94 97 96 95 96 97 98 101 100 99 100 101 102 105 104 103 104 105 106 104 106 107 107 106 108 111 110 109 110 111 112 115 114 113 114 115 116 119 118 117 118 119 120 123 122 121 122 123 124 127 126 125 126 127 128 128 127 129 132 131 130 131 132 133 133 132 134 134 132 135 138 137 136 137 138 139 142 141 140 141 142 143 146 145 144 145 146 147 150 149 148 149 150 151 154 153 152 153 154 155 158 157 156 157 158 159 162 161 160 161 162 163 163 162 164 163 164 165 168 167 166 167 168 169 172 171 170 171 172 173 176 175 174 175 176 177 180 179 178 179 180 181 181 180 182 181 182 183 186 185 184 185 186 187 188 185 187 187 186 189 189 186 190 190 186 191 194 193 192 193 194 195 195 196 193 197 196 195 197 198 196 198 197 199 202 201 200 201 202 203 203 202 204 203 204 205 208 207 206 207 208 209 212 211 210 211 212 213 213 212 214 217 216 215 216 217 218 221 220 219 220 221 222 225 224 223 224 225 226 229 228 227 228 229 230 231 230 229 229 232 231 232 229 233 234 230 231 234 235 230 234 236 235 237 236 234 237 238 236 236 238 239 237 240 238 240 237 241</p></triangles>
<triangles material="m1" count="84"><input semantic="VERTEX" source="#g-v" offset="0"/><p>244 243 242 243 244 245 248 247 246 249 247 248 249 250 247 251 250 249 251 252 250 252 251 253 256 255 254 257 255 256 258 255 257 258 259 255 259 258 260 261 260 258 264 263 262 263 264 265 268 267 266 267 268 269 272 271 270 271 272 273 276 275 274 275 276 277 280 279 278 279 280 281 284 283 282 283 284 285 288 287 286 287 289 286 289 287 290 290 287 291 290 291 292 292 291 293 292 293 294 294 295 292 294 296 295 297 296 294 298 296 297 298 299 296 300 299 298 299 300 301 304 303 302 303 304 305 308 307 306 307 308 309 312 311 310 311 312 313 316 315 314 315 316 317 315 317 318 318 317 319 318 319 320 318 320 321 321 320 322 323 322 320 324 322 323 324 325 322 326 325 324 326 327 325 327 326 328 329 328 326 332 331 330 332 330 333 334 331 332 333 335 332 334 336 331 337 336 334 336 337 338 338 339 336 333 340 335 339 338 340 341 340 333 339 340 341 344 343 342 342 343 345 344 346 343 347 345 343 344 348 346 349 345 347 350 348 344 349 351 345 348 350 352 352 351 349 353 352 350 352 353 351</p></triangles>
</mesh></geometry></library_geometries><library_visual_scenes><visual_scene id="Scene"><node id="n" name="tankard"><instance_geometry url="#g"><bind_material><technique_common>
<instance_material symbol="m0" target="#m0"/>
<instance_material symbol="m1" target="#m1"/>
</technique_common></bind_material></instance_geometry></node></visual_scene></library_visual_scenes><scene><instance_visual_scene url="#Scene"/></scene></COLLADA>
