<?xml version="1.0" encoding="utf-8"?>
<COLLADA xmlns="http://www.collada.org/2005/11/COLLADASchema" version="1.4.1">
<asset><contributor><authoring_tool>VATs starter props (see CREDITS.md)</authoring_tool></contributor><unit name="meter" meter="1"/><up_axis>Z_UP</up_axis></asset>
<library_effects>
<effect id="m0-fx"><profile_COMMON><technique sid="common"><lambert><diffuse><color>0.420 0.490 0.580 1</color></diffuse></lambert></technique></profile_COMMON></effect>
<effect id="m1-fx"><profile_COMMON><technique sid="common"><lambert><diffuse><color>0.360 0.390 0.430 1</color></diffuse></lambert></technique></profile_COMMON></effect>
</library_effects><library_materials>
<material id="m0" name="m0"><instance_effect url="#m0-fx"/></material>
<material id="m1" name="m1"><instance_effect url="#m1-fx"/></material>
</library_materials><library_geometries><geometry id="g" name="umbrella"><mesh>
<source id="g-p"><float_array id="g-p-a" count="2580">0.057625 0.20077 -0.17598 0.0032389 0.011825 -0.7249 0.01604 0.19308 -0.17018 0.0041157 0.011501 -0.7249 0.0041157 -0.010488 -0.7249 0.1257 -0.14574 -0.17016 0.10242 -0.18107 -0.17574 0.0049642 -0.010096 -0.7249 0.023159 -0.027216 -0.096019 0.0072474 -0.008582 -0.7249 0.0086504 -0.007179 -0.7249 0.027609 -0.022766 -0.096019 0.00055367 -0.011355 -0.7249 -0.0033556 -0.035782 -0.096019 -0.0014306 -0.011355 -0.7249 0.0029371 -0.035782 -0.096019 0.031333 -0.15545 -0.15131 0.0023396 -0.011065 -0.7249 0.060688 -0.18438 -0.16767 -0.19238 0.014271 -0.1717 -0.011756 0.0041843 -0.7249 -0.15705 -0.0067942 -0.15535 0.01088 0.0041843 -0.7249 0.185 0.059557 -0.16781 0.15595 0.03025 -0.15136 0.0049642 0.01111 -0.7249 0.057625 0.20077 -0.17598 0.089195 0.17319 -0.16787 0.0041157 0.011501 -0.7249 -0.024035 0.02823 -0.096019 -0.0081243 0.0095957 -0.7249 -0.028485 0.02378 -0.096019 -0.0095273 0.0081927 -0.7249 -0.054723 -0.20077 -0.17667 -0.0041158 -0.010811 -0.7249 -0.013396 -0.19207 -0.17066 -0.0049926 -0.010488 -0.7249 -0.20037 0.055706 -0.1781 -0.011756 0.0041843 -0.7249 -0.19238 0.014271 -0.1717 -0.011433 0.005061 -0.7249 0.010556 0.005061 -0.7249 0.14722 0.12518 -0.1703 0.18215 0.10136 -0.17599 0.010165 0.0059096 -0.7249 -0.086694 -0.17373 -0.16876 -0.0058411 -0.010096 -0.7249 -0.054723 -0.20077 -0.17667 -0.0049926 -0.010488 -0.7249 -0.13195 0.088543 -0.15363 -0.011042 0.0059096 -0.7249 -0.17308 0.087649 -0.17033 -0.010585 0.0067248 -0.7249 -0.10552 -0.1163 -0.1544 -0.011042 -0.0048958 -0.7249 -0.010585 -0.005711 -0.7249 -0.14564 -0.12659 -0.17024 -0.10128 0.18307 -0.17556 -0.0049926 0.011501 -0.7249 -0.1253 0.14829 -0.16946 -0.0058411 0.01111 -0.7249 0.0097082 0.0067248 -0.7249 0.10708 0.11531 -0.15456 0.010165 0.0059096 -0.7249 0.14722 0.12518 -0.1703 0.060688 -0.18438 -0.16767 0.0041157 -0.010488 -0.7249 0.10242 -0.18107 -0.17574 0.0032389 -0.010811 -0.7249 -0.011756 -0.0031705 -0.7249 -0.18454 -0.061495 -0.16849 -0.1561 -0.031624 -0.15201 -0.0032165 -0.011065 -0.7249 0.0074657 -0.15626 -0.15493 -0.013396 -0.19207 -0.17066 -0.059394 0.18593 -0.16771 -0.0041158 0.011825 -0.7249 -0.0049926 0.011501 -0.7249 -0.10128 0.18307 -0.17556 0.089376 0.13193 -0.15139 0.0049642 0.01111 -0.7249 0.089195 0.17319 -0.16787 0.0057794 0.010654 -0.7249 -0.023712 -0.02754 -0.096019 -0.0095273 -0.007179 -0.7249 -0.0081243 -0.008582 -0.7249 -0.028161 -0.02309 -0.096019 0.185 0.059557 -0.16781 0.010556 0.005061 -0.7249 0.18215 0.10136 -0.17599 0.01088 0.0041843 -0.7249 -0.18091 -0.10331 -0.17632 -0.011433 -0.0040472 -0.7249 -0.14564 -0.12659 -0.17024 -0.011042 -0.0048958 -0.7249 -0.18454 -0.061495 -0.16849 -0.011756 -0.0031705 -0.7249 -0.011433 -0.0040472 -0.7249 -0.18091 -0.10331 -0.17632 0.011133 -0.0022711 -0.7249 0.15684 0.0059142 -0.15441 0.19232 -0.015326 -0.1702 0.17287 -0.088362 -0.16779 0.010165 -0.0048958 -0.7249 0.20037 -0.056799 -0.17596 0.010556 -0.0040472 -0.7249 -0.0058411 -0.010096 -0.7249 -0.087166 -0.13259 -0.15223 -0.0066564 -0.0096398 -0.7249 -0.086694 -0.17373 -0.16876 0.027284 0.024105 -0.096019 0.0072474 0.0095957 -0.7249 0.022834 0.028554 -0.096019 0.0086504 0.0081927 -0.7249 0.13164 -0.088434 -0.15131 0.0097082 -0.005711 -0.7249 0.010165 -0.0048958 -0.7249 0.17287 -0.088362 -0.16779 0.20037 -0.056799 -0.17596 0.01088 -0.0031705 -0.7249 0.19232 -0.015326 -0.1702 0.010556 -0.0040472 -0.7249 0.0049642 -0.010096 -0.7249 0.11537 -0.10555 -0.15477 0.1257 -0.14574 -0.17016 0.0057794 -0.0096398 -0.7249 -0.1253 0.14829 -0.16946 -0.0058411 0.01111 -0.7249 -0.11578 0.10803 -0.15361 -0.0066564 0.010654 -0.7249 0.0023396 0.012078 -0.7249 -0.005597 0.15784 -0.15436 0.01604 0.19308 -0.17018 -0.0041158 0.011825 -0.7249 -0.059394 0.18593 -0.16771 -0.030061 0.15692 -0.15134 -0.011042 0.0059096 -0.7249 -0.20037 0.055706 -0.1781 -0.17308 0.087649 -0.17033 -0.011433 0.005061 -0.7249 -0.0069973 0.0083949 0.072127 -0.00043834 -0.0087938 0.034932 -0.00043834 0.0064623 0.074023 -0.0070149 -0.0060697 0.034932 -0.00043834 0.019742 0.060998 -0.00043834 0.0098076 0.034932 -0.0070149 0.0070834 0.034932 -0.0070338 0.017783 0.062919 0.0088614 0.013076 0.067536 0.0061382 -0.0060697 0.034932 0.0088624 0.00050688 0.034932 0.0061206 0.0083949 0.072127 -0.0097391 0.00050688 0.034932 -0.0097381 0.013076 0.067536 -0.0070338 0.017783 0.062919 -0.0070149 0.0070834 0.034932 -0.0097381 0.013076 0.067536 -0.0070149 -0.0060697 0.034932 -0.0069973 0.0083949 0.072127 -0.0097391 0.00050688 0.034932 -0.00043834 0.0064623 0.074023 -0.00043834 -0.0087938 0.034932 0.0061206 0.0083949 0.072127 0.0061382 -0.0060697 0.034932 0.0061382 0.0070834 0.034932 -0.00043834 0.019742 0.060998 0.0061571 0.017783 0.062919 -0.00043834 0.0098076 0.034932 0.0061206 0.0083949 0.072127 0.0061206 0.043554 0.087293 -0.00043833 0.043502 0.09 -0.00043834 0.0064623 0.074023 -0.0097381 0.013076 0.067536 -0.0069973 0.043554 0.087293 -0.0097381 0.043681 0.080738 -0.0069973 0.0083949 0.072127 0.0088614 0.013076 0.067536 0.0061571 0.043809 0.074145 0.0088614 0.043681 0.080738 0.0061571 0.017783 0.062919 0.0061571 0.043809 0.074145 0.0061571 0.017783 0.062919 -0.00043834 0.019742 0.060998 -0.00043834 0.043862 0.071402 -0.0069973 0.043554 0.087293 -0.0069973 0.0083949 0.072127 -0.00043833 0.043502 0.09 -0.00043834 0.0064623 0.074023 0.0061206 0.043554 0.087293 0.0061206 0.0083949 0.072127 0.0088614 0.013076 0.067536 0.0088614 0.043681 0.080738 -0.00043834 0.019742 0.060998 -0.0070338 0.043809 0.074145 -0.00043834 0.043862 0.071402 -0.0070338 0.017783 0.062919 -0.0069973 0.079275 0.073502 -0.00043833 0.043502 0.09 -0.00043834 0.081133 0.075471 -0.0069973 0.043554 0.087293 -0.00043834 0.068368 0.061941 -0.00043834 0.043862 0.071402 -0.0070338 0.043809 0.074145 -0.0070338 0.070251 0.063936 0.0088614 0.074775 0.068732 0.0088614 0.043681 0.080738 0.0061571 0.070251 0.063936 0.0061571 0.043809 0.074145 -0.0097381 0.043681 0.080738 -0.0069973 0.079275 0.073502 -0.0097381 0.074775 0.068732 -0.0069973 0.043554 0.087293 0.0061571 0.043809 0.074145 -0.00043834 0.068368 0.061941 0.0061571 0.070251 0.063936 -0.00043834 0.043862 0.071402 -0.0097381 0.043681 0.080738 -0.0070338 0.070251 0.063936 -0.0070338 0.043809 0.074145 -0.0097381 0.074775 0.068732 0.0061206 0.079275 0.073502 -0.00043833 0.043502 0.09 0.0061206 0.043554 0.087293 -0.00043834 0.081133 0.075471 -0.0070338 0.070251 0.063936 -0.0097381 0.088568 0.038389 -0.0070338 0.08198 0.038133 -0.0097381 0.074775 0.068732 0.0088614 0.088568 0.038389 0.0061571 0.070251 0.063936 0.0061571 0.08198 0.038133 0.0088614 0.074775 0.068732 -0.00043834 0.068368 0.061941 -0.0070338 0.08198 0.038133 -0.00043834 0.079238 0.038027 -0.0070338 0.070251 0.063936 0.0061206 0.079275 0.073502 0.0061206 0.09512 0.038643 -0.00043834 0.097825 0.038748 -0.00043834 0.081133 0.075471 -0.00043834 0.097825 0.038748 -0.0069973 0.079275 0.073502 -0.00043834 0.081133 0.075471 -0.0069973 0.09512 0.038643 0.0061571 0.08198 0.038133 -0.00043834 0.068368 0.061941 -0.00043834 0.079238 0.038027 0.0061571 0.070251 0.063936 0.0088614 0.074775 0.068732 0.0088614 0.088568 0.038389 0.0061206 0.09512 0.038643 0.0061206 0.079275 0.073502 -0.007835 0.085879 0.021482 -0.0097381 0.088568 0.038389 -0.0056656 0.090804 0.019732 -0.0069973 0.09512 0.038643 -0.00043834 0.097825 0.038748 -0.0056656 0.090804 0.019732 -0.0069973 0.09512 0.038643 -0.00043835 0.092841 0.019007 0.0047889 0.090804 0.019732 -0.00043834 0.097825 0.038748 0.0061206 0.09512 0.038643 -0.00043835 0.092841 0.019007 0.0088614 0.088568 0.038389 0.0047889 0.090804 0.019732 0.0061206 0.09512 0.038643 0.0069583 0.085879 0.021482 -0.0056699 0.080949 0.02323 -0.0097381 0.088568 0.038389 -0.007835 0.085879 0.021482 -0.0070338 0.08198 0.038133 -0.0070338 0.08198 0.038133 -0.00043834 0.078906 0.023954 -0.00043834 0.079238 0.038027 -0.0056699 0.080949 0.02323 -0.00043834 0.079238 0.038027 -0.00043834 0.078906 0.023954 0.0061571 0.08198 0.038133 0.0047932 0.080949 0.02323 0.0047932 0.080949 0.02323 0.0088614 0.088568 0.038389 0.0061571 0.08198 0.038133 0.0069583 0.085879 0.021482 -0.0056656 0.090804 0.019732 -0.0056699 0.080949 0.02323 -0.007835 0.085879 0.021482 -0.00043835 0.092841 0.019007 -0.00043834 0.078906 0.023954 0.0047932 0.080949 0.02323 0.0047889 0.090804 0.019732 0.0069583 0.085879 0.021482 -0.00043836 0.0098076 -0.060428 -0.0070149 0.0070834 0.034932 -0.00043834 0.0098076 0.034932 -0.0070149 0.0070834 -0.060428 0.0061382 0.0070834 -0.060428 -0.00043834 0.0098076 0.034932 0.0061382 0.0070834 0.034932 -0.00043836 0.0098076 -0.060428 0.0088624 0.00050688 0.034932 0.0061382 0.0070834 -0.060428 0.0061382 0.0070834 0.034932 0.0088624 0.00050688 -0.060428 0.0061382 -0.0060697 0.034932 0.0088624 0.00050688 -0.060428 0.0088624 0.00050688 0.034932 0.0061382 -0.0060697 -0.060428 0.0061382 -0.0060697 -0.060428 0.0061382 -0.0060697 0.034932 -0.00043834 -0.0087938 0.034932 -0.00043836 -0.0087938 -0.060428 -0.0097391 0.00050688 0.034932 -0.0097391 0.00050688 -0.060428 -0.0070149 -0.0060697 -0.060428 -0.0070149 -0.0060697 0.034932 -0.00043836 -0.0087938 -0.060428 -0.00043834 -0.0087938 0.034932 -0.0070149 -0.0060697 0.034932 -0.0070149 -0.0060697 -0.060428 -0.0070149 0.0070834 0.034932 -0.0070149 0.0070834 -0.060428 -0.0097391 0.00050688 -0.060428 -0.0097391 0.00050688 0.034932 0.010803 0.00050688 -0.060428 0.010803 0.00050688 -0.086108 0.0075103 0.0084555 -0.060428 0.0075103 0.0084555 -0.086108 0.0075103 0.0084555 -0.060428 -0.00043836 0.0098076 -0.060428 0.0061382 0.0070834 -0.060428 0.0088624 0.00050688 -0.060428 0.010803 0.00050688 -0.060428 -0.00043836 0.011748 -0.060428 -0.008387 0.0084555 -0.060428 -0.0070149 0.0070834 -0.060428 -0.008387 -0.0074418 -0.060428 -0.00043836 -0.0087938 -0.060428 -0.0070149 -0.0060697 -0.060428 -0.0097391 0.00050688 -0.060428 -0.01168 0.00050688 -0.060428 -0.00043836 -0.010734 -0.060428 0.0075103 -0.0074418 -0.060428 0.0061382 -0.0060697 -0.060428 -0.0056042 0.0056727 -0.066988 -0.0056043 0.0056727 -0.7352 -0.007744 0.00050688 -0.7352 -0.0077439 0.00050688 -0.066988 -0.00043847 0.0078124 -0.7352 -0.0056042 0.0056727 -0.066988 -0.00043836 0.0078124 -0.066988 -0.0056043 0.0056727 -0.7352 0.0047274 0.0056727 -0.7352 -0.00043836 0.0078124 -0.066988 0.0047275 0.0056727 -0.066988 -0.00043847 0.0078124 -0.7352 0.0068672 0.00050688 -0.066988 0.0047274 0.0056727 -0.7352 0.0047275 0.0056727 -0.066988 0.0068671 0.00050688 -0.7352 0.0047275 -0.0046589 -0.066988 0.0068671 0.00050688 -0.7352 0.0068672 0.00050688 -0.066988 0.0047274 -0.0046589 -0.7352 0.0047274 -0.0046589 -0.7352 0.0047275 -0.0046589 -0.066988 -0.00043836 -0.0067987 -0.066988 -0.00043847 -0.0067987 -0.7352 -0.0077439 0.00050688 -0.066988 -0.007744 0.00050688 -0.7352 -0.0056043 -0.0046589 -0.7352 -0.0056042 -0.0046589 -0.066988 -0.00043847 -0.0067987 -0.7352 -0.0056042 -0.0046589 -0.066988 -0.0056043 -0.0046589 -0.7352 -0.00043836 -0.0067987 -0.066988 0.010373 0.011319 -0.72525 0.010373 -0.010305 -0.72525 0.014852 0.00050688 -0.72525 -0.01125 -0.010305 -0.72525 -0.00043847 -0.014784 -0.72525 -0.01125 0.011319 -0.72525 -0.00043847 0.015797 -0.72525 -0.015729 0.00050688 -0.72525 -0.015729 0.00050688 -0.72525 -0.0088753 0.0089437 -0.73066 -0.01237 0.00050688 -0.73066 -0.01125 0.011319 -0.72525 0.0050325 -0.0049641 -0.81 0.0050325 0.0059778 -0.81 0.0072986 0.00050688 -0.81 -0.0059094 0.0059778 -0.81 -0.00043848 0.008244 -0.81 -0.0059094 -0.0049641 -0.81 -0.0081756 0.00050688 -0.81 -0.00043848 -0.0072302 -0.81 -0.0059094 -0.0049641 -0.81 -0.01237 0.00050688 -0.73066 -0.0081756 0.00050688 -0.81 -0.0088753 -0.0079299 -0.73066 -0.0088753 -0.0079299 -0.73066 -0.0059094 -0.0049641 -0.81 -0.00043847 -0.011425 -0.73066 -0.00043848 -0.0072302 -0.81 -0.00043847 -0.011425 -0.73066 0.0050325 -0.0049641 -0.81 0.0079983 -0.0079299 -0.73066 -0.00043848 -0.0072302 -0.81 0.0079983 -0.0079299 -0.73066 0.0050325 -0.0049641 -0.81 0.011493 0.00050688 -0.73066 0.0072986 0.00050688 -0.81 0.011493 0.00050688 -0.73066 0.0050325 0.0059778 -0.81 0.0079983 0.0089437 -0.73066 0.0072986 0.00050688 -0.81 0.0050325 0.0059778 -0.81 -0.00043847 0.012438 -0.73066 0.0079983 0.0089437 -0.73066 -0.00043848 0.008244 -0.81 -0.00043847 0.012438 -0.73066 -0.0059094 0.0059778 -0.81 -0.0088753 0.0089437 -0.73066 -0.00043848 0.008244 -0.81 -0.00043847 0.015797 -0.72525 -0.0088753 0.0089437 -0.73066 -0.01125 0.011319 -0.72525 -0.00043847 0.012438 -0.73066 0.0079983 0.0089437 -0.73066 -0.00043847 0.015797 -0.72525 0.010373 0.011319 -0.72525 -0.00043847 0.012438 -0.73066 0.014852 0.00050688 -0.72525 0.0079983 0.0089437 -0.73066 0.010373 0.011319 -0.72525 0.011493 0.00050688 -0.73066 0.014852 0.00050688 -0.72525 0.0079983 -0.0079299 -0.73066 0.011493 0.00050688 -0.73066 0.010373 -0.010305 -0.72525 0.010373 -0.010305 -0.72525 -0.00043847 -0.014784 -0.72525 0.0079983 -0.0079299 -0.73066 -0.00043847 -0.011425 -0.73066 -0.01237 0.00050688 -0.73066 -0.0088753 -0.0079299 -0.73066 -0.015729 0.00050688 -0.72525 -0.01125 -0.010305 -0.72525 -0.00043847 -0.014784 -0.72525 -0.0088753 -0.0079299 -0.73066 -0.00043847 -0.011425 -0.73066 -0.01125 -0.010305 -0.72525 -0.0081756 0.00050688 -0.81 -0.01237 0.00050688 -0.73066 -0.0059094 0.0059778 -0.81 -0.0088753 0.0089437 -0.73066 -0.032629 0.0023976 -0.098991 -0.036548 0.0019473 -0.082294 -0.033715 0.0019473 -0.082186 -0.036362 0.0023976 -0.099133 0.025527 0.022705 -0.099062 0.025527 0.023605 -0.08224 0.022693 0.023606 -0.082164 0.021793 0.022706 -0.098962 -0.026403 -0.025425 -0.099162 -0.026403 -0.025425 -0.082316 -0.026404 -0.021691 -0.099062 -0.026404 -0.022591 -0.08224 0.025495 -0.021723 -0.099062 0.022661 -0.022625 -0.082164 0.025495 -0.022624 -0.08224 0.021761 -0.021725 -0.098962 0.025495 -0.022624 -0.08224 0.022661 -0.022625 -0.082164 0.025494 -0.025458 -0.082316 0.02266 -0.025459 -0.08224 0.00033006 0.035336 -0.098359 -0.0011611 0.011496 -0.72354 -0.001161 0.035336 -0.098359 0.00033012 0.011496 -0.72354 0.024733 0.024592 -0.098359 0.0068211 0.0087882 -0.72354 0.023679 0.025646 -0.098359 0.0078754 0.0077339 -0.72354 -0.0012068 -0.034323 -0.098359 0.00028412 -0.010482 -0.72354 0.00028422 -0.034323 -0.098359 -0.001207 -0.010482 -0.72354 -0.033778 -0.00021571 -0.098303 -0.0099376 -0.00021571 -0.72349 -0.033778 0.0012753 -0.098303 -0.0099376 0.0012755 -0.72349 0.025526 0.026439 -0.082316 0.025526 0.026439 -0.099162 0.021792 0.02644 -0.099062 0.022692 0.02644 -0.08224 0.025494 -0.025458 -0.082316 0.02176 -0.025459 -0.099062 0.025494 -0.025458 -0.099162 0.02266 -0.025459 -0.08224 0.025527 0.023605 -0.08224 0.025527 0.022705 -0.099062 0.025526 0.026439 -0.082316 0.025526 0.026439 -0.099162 0.035671 -0.00093349 -0.082294 0.035671 0.0019014 -0.082294 0.032838 -0.00093349 -0.082186 0.032838 0.0019014 -0.082186 -0.032629 -0.001338 -0.098991 -0.033715 -0.00088766 -0.082186 -0.036548 -0.00088766 -0.082294 -0.036362 -0.001338 -0.099133 0.010551 0.0012295 -0.72354 0.032901 0.0012295 -0.098303 0.034391 0.0012295 -0.098359 0.0090606 0.0012295 -0.72349 -0.007698 -0.0077746 -0.72354 -0.02561 -0.023578 -0.098359 -0.0087523 -0.0067201 -0.72354 -0.024556 -0.024632 -0.098359 -0.011428 0.0012755 -0.72354 -0.035268 0.0012753 -0.098359 -0.033778 0.0012753 -0.098303 -0.0099376 0.0012755 -0.72349 0.02368 0.023538 -0.098303 0.0068219 0.0066804 -0.72349 0.024733 0.024592 -0.098359 0.0078754 0.0077339 -0.72354 0.035671 0.0019014 -0.082294 0.035485 -0.0013838 -0.099133 0.035485 0.0023517 -0.099133 0.035671 -0.00093349 -0.082294 -0.0023291 -0.035416 -0.099133 -0.0018787 -0.035603 -0.082294 -0.0023291 -0.031684 -0.098991 -0.0018787 -0.03277 -0.082186 -0.0022832 0.032697 -0.098991 -0.0018329 0.036616 -0.082294 -0.0022832 0.03643 -0.099133 -0.0018329 0.033784 -0.082186 0.025527 0.023605 -0.08224 0.025526 0.026439 -0.082316 0.022693 0.023606 -0.082164 0.022692 0.02644 -0.08224 -0.02357 -0.022592 -0.082164 -0.02267 -0.021692 -0.098962 -0.026404 -0.021691 -0.099062 -0.026404 -0.022591 -0.08224 0.00033006 0.033846 -0.098303 0.00033012 0.011496 -0.72354 0.00033006 0.035336 -0.098359 0.00033012 0.010006 -0.72349 -0.023502 -0.023579 -0.098303 -0.0076988 -0.0056666 -0.72349 -0.024556 -0.022524 -0.098303 -0.0066443 -0.0067209 -0.72349 -0.008411 0.0085118 -0.72356 -0.025269 0.025369 -0.098371 -0.023778 0.02537 -0.098331 -0.0069203 0.0085124 -0.72352 0.022901 -0.024356 -0.098331 0.0075339 -0.007498 -0.72356 0.024392 -0.024356 -0.098371 0.0060434 -0.0074987 -0.72352 -0.024955 0.023051 -0.082186 -0.024953 0.027059 -0.082294 -0.026958 0.025054 -0.082294 -0.02295 0.025056 -0.082186 -0.001161 0.035336 -0.098359 -0.0011611 0.011496 -0.72354 -0.001161 0.033846 -0.098303 -0.0011611 0.010006 -0.72349 -0.0066443 -0.0067209 -0.72349 -0.023502 -0.023579 -0.098303 -0.024556 -0.024632 -0.098359 -0.007698 -0.0077746 -0.72354 -0.02561 -0.023578 -0.098359 -0.0076988 -0.0056666 -0.72349 -0.0087523 -0.0067201 -0.72354 -0.024556 -0.022524 -0.098303 0.010551 -0.0002617 -0.72354 0.032901 -0.00026154 -0.098303 0.0090606 -0.0002617 -0.72349 0.034391 -0.00026154 -0.098359 0.0014065 -0.035416 -0.099133 -0.0018787 -0.035603 -0.082294 -0.0023291 -0.035416 -0.099133 0.00095618 -0.035603 -0.082294 0.0014065 -0.031684 -0.098991 -0.0018787 -0.03277 -0.082186 0.00095618 -0.03277 -0.082186 -0.0023291 -0.031684 -0.098991 0.0014065 -0.031684 -0.098991 0.00095618 -0.03277 -0.082186 0.00095618 -0.035603 -0.082294 0.0014065 -0.035416 -0.099133 -0.033715 0.0019473 -0.082186 -0.036548 -0.00088766 -0.082294 -0.033715 -0.00088766 -0.082186 -0.036548 0.0019473 -0.082294 0.034391 -0.00026154 -0.098359 0.010551 0.0012295 -0.72354 0.034391 0.0012295 -0.098359 0.010551 -0.0002617 -0.72354 -0.025269 0.025369 -0.098371 -0.008411 0.0085118 -0.72356 -0.025269 0.023879 -0.098331 -0.0084115 0.0070212 -0.72352 0.00028412 -0.0089922 -0.72349 -0.0012068 -0.032833 -0.098303 0.00028422 -0.032833 -0.098303 -0.001207 -0.0089922 -0.72349 -0.001207 -0.010482 -0.72354 -0.0012068 -0.032833 -0.098303 -0.001207 -0.0089922 -0.72349 -0.0012068 -0.034323 -0.098359 0.032838 0.0019014 -0.082186 0.031752 0.0023517 -0.098991 0.031752 -0.0013838 -0.098991 0.032838 -0.00093349 -0.082186 -0.022669 -0.025427 -0.099062 -0.023569 -0.025426 -0.08224 -0.026403 -0.025425 -0.082316 -0.026403 -0.025425 -0.099162 0.022661 -0.022625 -0.082164 0.021761 -0.021725 -0.098962 0.02176 -0.025459 -0.099062 0.02266 -0.025459 -0.08224 -0.02357 -0.022592 -0.082164 -0.026403 -0.025425 -0.082316 -0.023569 -0.025426 -0.08224 -0.026404 -0.022591 -0.08224 0.022693 0.023606 -0.082164 0.021792 0.02644 -0.099062 0.021793 0.022706 -0.098962 0.022692 0.02644 -0.08224 0.024392 -0.022865 -0.098331 0.0075339 -0.007498 -0.72356 0.0075345 -0.0060075 -0.72352 0.024392 -0.024356 -0.098371 -0.001161 0.033846 -0.098303 -0.0011611 0.010006 -0.72349 0.00033006 0.033846 -0.098303 0.00033012 0.010006 -0.72349 0.0075345 -0.0060075 -0.72352 0.022902 -0.022866 -0.098291 0.024392 -0.022865 -0.098331 0.006044 -0.006008 -0.72348 -0.011428 -0.00021571 -0.72354 -0.035268 0.0012753 -0.098359 -0.011428 0.0012755 -0.72354 -0.035268 -0.00021571 -0.098359 -0.033715 -0.00088766 -0.082186 -0.032629 0.0023976 -0.098991 -0.033715 0.0019473 -0.082186 -0.032629 -0.001338 -0.098991 0.001002 0.036616 -0.082294 0.0014523 0.032697 -0.098991 0.0014523 0.03643 -0.099133 0.001002 0.033784 -0.082186 -0.023569 -0.025426 -0.08224 -0.022669 -0.025427 -0.099062 -0.02357 -0.022592 -0.082164 -0.02267 -0.021692 -0.098962 -0.0022832 0.03643 -0.099133 -0.0018329 0.036616 -0.082294 0.0014523 0.03643 -0.099133 0.001002 0.036616 -0.082294 -0.0018787 -0.03277 -0.082186 0.00095618 -0.035603 -0.082294 0.00095618 -0.03277 -0.082186 -0.0018787 -0.035603 -0.082294 0.0068219 0.0066804 -0.72349 0.02368 0.023538 -0.098303 0.022625 0.024592 -0.098303 0.0057674 0.0077347 -0.72349 -0.0069203 0.0085124 -0.72352 -0.023778 0.02537 -0.098331 -0.023779 0.023879 -0.098291 -0.0069209 0.0070217 -0.72348 -0.023779 0.023879 -0.098291 -0.0084115 0.0070212 -0.72352 -0.0069209 0.0070217 -0.72348 -0.025269 0.023879 -0.098331 0.0090606 0.0012295 -0.72349 0.032901 -0.00026154 -0.098303 0.032901 0.0012295 -0.098303 0.0090606 -0.0002617 -0.72349 0.031752 0.0023517 -0.098991 0.035671 0.0019014 -0.082294 0.035485 0.0023517 -0.099133 0.032838 0.0019014 -0.082186 0.0014523 0.032697 -0.098991 -0.0018329 0.033784 -0.082186 -0.0022832 0.032697 -0.098991 0.001002 0.033784 -0.082186 -0.036362 -0.001338 -0.099133 -0.036548 -0.00088766 -0.082294 -0.036362 0.0023976 -0.099133 -0.036548 0.0019473 -0.082294 0.025495 -0.021723 -0.099062 0.025495 -0.022624 -0.08224 0.025494 -0.025458 -0.082316 0.025494 -0.025458 -0.099162 0.001002 0.033784 -0.082186 0.001002 0.036616 -0.082294 -0.0018329 0.036616 -0.082294 -0.0018329 0.033784 -0.082186 -0.027145 0.024604 -0.099133 -0.026958 0.025054 -0.082294 -0.024503 0.027245 -0.099133 -0.024953 0.027059 -0.082294 0.00028412 -0.010482 -0.72354 0.00028422 -0.032833 -0.098303 0.00028422 -0.034323 -0.098359 0.00028412 -0.0089922 -0.72349 -0.033778 -0.00021571 -0.098303 -0.011428 -0.00021571 -0.72354 -0.0099376 -0.00021571 -0.72349 -0.035268 -0.00021571 -0.098359 0.023679 0.025646 -0.098359 0.0057674 0.0077347 -0.72349 0.022625 0.024592 -0.098303 0.0068211 0.0087882 -0.72354 -0.026958 0.025054 -0.082294 -0.027145 0.024604 -0.099133 -0.024505 0.021964 -0.098991 -0.024955 0.023051 -0.082186 -0.02295 0.025056 -0.082186 -0.024505 0.021964 -0.098991 -0.021863 0.024606 -0.098991 -0.024955 0.023051 -0.082186 -0.024503 0.027245 -0.099133 -0.024953 0.027059 -0.082294 -0.021863 0.024606 -0.098991 -0.02295 0.025056 -0.082186 0.035671 -0.00093349 -0.082294 0.031752 -0.0013838 -0.098991 0.035485 -0.0013838 -0.099133 0.032838 -0.00093349 -0.082186 0.0024799 0.036795 -0.096019 0.00055367 0.012368 -0.7249 -0.0014306 0.012368 -0.7249 -0.0038129 0.036795 -0.096019 0.03585 -0.0024101 -0.096019 0.011423 0.001499 -0.7249 0.03585 0.0038827 -0.096019 0.011423 -0.00048526 -0.7249 0.0060434 -0.0074987 -0.72352 0.022902 -0.022866 -0.098291 0.006044 -0.006008 -0.72348 0.022901 -0.024356 -0.098331 -0.0097381 0.074775 0.068732 -0.0069973 0.09512 0.038643 -0.0097381 0.088568 0.038389 -0.0069973 0.079275 0.073502 0.0061206 0.079275 0.073502 0.0088614 0.043681 0.080738 0.0088614 0.074775 0.068732 0.0061206 0.043554 0.087293 -0.0070338 0.043809 0.074145 -0.0097381 0.013076 0.067536 -0.0097381 0.043681 0.080738 -0.0070338 0.017783 0.062919 0.0061571 0.017783 0.062919 0.0088624 0.00050688 0.034932 0.0061382 0.0070834 0.034932 0.0088614 0.013076 0.067536 0.0075103 0.0084555 -0.086108 -0.008387 0.0084555 -0.086108 -0.00043836 0.011748 -0.086108 0.0075103 -0.0074418 -0.086108 -0.008387 -0.0074418 -0.086108 -0.01168 0.00050688 -0.086108 0.010803 0.00050688 -0.086108 -0.00043836 -0.010734 -0.086108 0.0075103 -0.0074418 -0.060428 0.0075103 -0.0074418 -0.086108 0.010803 0.00050688 -0.060428 0.010803 0.00050688 -0.086108 -0.00043836 0.011748 -0.060428 -0.008387 0.0084555 -0.086108 -0.008387 0.0084555 -0.060428 -0.00043836 0.011748 -0.086108 -0.00043836 -0.010734 -0.060428 -0.00043836 -0.010734 -0.086108 0.0075103 -0.0074418 -0.060428 0.0075103 -0.0074418 -0.086108 -0.01168 0.00050688 -0.086108 -0.01168 0.00050688 -0.060428 -0.008387 0.0084555 -0.086108 -0.008387 0.0084555 -0.060428 -0.008387 -0.0074418 -0.060428 -0.008387 -0.0074418 -0.086108 -0.00043836 -0.010734 -0.060428 -0.00043836 -0.010734 -0.086108 0.0075103 0.0084555 -0.060428 -0.00043836 0.011748 -0.086108 -0.00043836 0.011748 -0.060428 0.0075103 0.0084555 -0.086108 -0.008387 -0.0074418 -0.086108 -0.008387 -0.0074418 -0.060428 -0.01168 0.00050688 -0.086108 -0.01168 0.00050688 -0.060428 -0.0123 -0.00048526 -0.7249 -0.036727 0.0034245 -0.096019 -0.0123 0.001499 -0.7249 -0.036727 -0.0028683 -0.096019 -0.0032166 0.012078 -0.7249 -0.030061 0.15692 -0.15134 -0.0038129 0.036795 -0.096019 0.022834 0.028554 -0.096019 0.0072474 0.0095957 -0.7249 0.089376 0.13193 -0.15139 0.0057794 0.010654 -0.7249 0.03585 0.0038827 -0.096019 0.011423 0.001499 -0.7249 0.15595 0.03025 -0.15136 0.027609 -0.022766 -0.096019 0.0086504 -0.007179 -0.7249 0.13164 -0.088434 -0.15131 0.0097082 -0.005711 -0.7249 0.0023396 -0.011065 -0.7249 0.031333 -0.15545 -0.15131 0.0029371 -0.035782 -0.096019 -0.087166 -0.13259 -0.15223 -0.0081243 -0.008582 -0.7249 -0.0066564 -0.0096398 -0.7249 -0.023712 -0.02754 -0.096019 -0.036727 -0.0028683 -0.096019 -0.0123 -0.00048526 -0.7249 -0.1561 -0.031624 -0.15201 -0.13195 0.088543 -0.15363 -0.0095273 0.0081927 -0.7249 -0.010585 0.0067248 -0.7249 -0.028485 0.02378 -0.096019 -0.0123 0.001499 -0.7249 -0.036727 0.0034245 -0.096019 -0.15705 -0.0067942 -0.15535 -0.0095273 -0.007179 -0.7249 -0.028161 -0.02309 -0.096019 -0.10552 -0.1163 -0.1544 -0.0014306 -0.011355 -0.7249 -0.0033556 -0.035782 -0.096019 0.0074657 -0.15626 -0.15493 0.0072474 -0.008582 -0.7249 0.023159 -0.027216 -0.096019 0.11537 -0.10555 -0.15477 0.011423 -0.00048526 -0.7249 0.03585 -0.0024101 -0.096019 0.15684 0.0059142 -0.15441 0.0086504 0.0081927 -0.7249 0.027284 0.024105 -0.096019 0.10708 0.11531 -0.15456 0.00055367 0.012368 -0.7249 0.0024799 0.036795 -0.096019 -0.005597 0.15784 -0.15436 -0.0081243 0.0095957 -0.7249 -0.024035 0.02823 -0.096019 -0.11578 0.10803 -0.15361</float_array><technique_common><accessor source="#g-p-a" count="860" stride="3"><param name="X" type="float"/><param name="Y" type="float"/><param name="Z" type="float"/></accessor></technique_common></source>
<source id="g-n"><float_array id="g-n-a" count="2580">-0.21312 0.93014 -0.29904 0.30426 0.89104 -0.33685 -0.21365 0.93004 -0.29896 0.32604 0.88348 -0.3364 0.42224 -0.85504 -0.30101 0.81758 -0.49202 -0.29915 0.81788 -0.49154 -0.2991 0.39952 -0.86664 -0.29886 0.70657 -0.70657 -0.038813 0.70657 -0.70657 -0.038813 0.70657 -0.70657 -0.038813 0.70657 -0.70657 -0.038813 -1.6966e-09 -0.99925 -0.038814 -1.6966e-09 -0.99925 -0.038814 -1.6966e-09 -0.99925 -0.038814 -1.6966e-09 -0.99925 -0.038814 -0.73198 -0.66855 -0.13129 -0.73198 -0.66855 -0.13129 -0.73198 -0.66855 -0.13129 -0.46084 -0.87724 -0.13447 -0.46084 -0.87724 -0.13447 -0.46084 -0.87724 -0.13447 0.66491 -0.73466 -0.1348 0.66491 -0.73466 -0.1348 0.66491 -0.73466 -0.1348 0.40826 0.85002 -0.33286 0.67 0.67947 -0.29904 0.67024 0.67925 -0.29899 0.39466 0.8561 -0.33365 -0.70657 0.70657 -0.038813 -0.70657 0.70657 -0.038813 -0.70657 0.70657 -0.038813 -0.70657 0.70657 -0.038813 0.2373 -0.92447 -0.29841 -0.30346 -0.89132 -0.33684 0.23785 -0.92436 -0.29832 -0.32606 -0.88353 -0.33623 -0.92755 -0.22444 -0.2988 -0.89148 0.30379 -0.33613 -0.92745 -0.22497 -0.29871 -0.88381 0.326 -0.33557 0.85504 0.42154 -0.30201 0.5043 0.80986 -0.29968 0.50384 0.81016 -0.29964 0.86632 0.39937 -0.29999 -0.65824 -0.69089 -0.29898 -0.40776 -0.85053 -0.33216 -0.65801 -0.69109 -0.29903 -0.39476 -0.85631 -0.33302 0.032753 0.99013 -0.13629 -0.8241 0.50923 -0.24808 0.033733 0.99012 -0.13608 -0.84536 0.47345 -0.24741 0.29521 -0.94573 -0.13578 -0.82287 -0.51639 -0.23711 -0.84841 -0.47516 -0.23329 0.29624 -0.94545 -0.13555 -0.80872 0.50606 -0.2998 -0.42146 0.85513 -0.30188 -0.80842 0.50651 -0.29984 -0.39939 0.86635 -0.29987 0.84801 0.47493 -0.2352 -0.28466 0.94926 -0.13371 0.82272 0.51587 -0.23876 -0.28569 0.94898 -0.13349 0.018016 -0.95392 -0.29952 0.31578 -0.89616 -0.31172 0.017676 -0.95394 -0.29949 0.32898 -0.89145 -0.31159 -0.6793 0.72127 -0.13534 -0.6793 0.72127 -0.13534 -0.6793 0.72127 -0.13534 0.88068 -0.45485 -0.13237 0.88068 -0.45485 -0.13237 0.88068 -0.45485 -0.13237 -0.0094203 0.95402 -0.29958 -0.32902 0.89156 -0.31123 -0.31542 0.8964 -0.31142 -0.0090725 0.95404 -0.29955 0.98959 -0.048674 -0.1354 0.50946 0.82382 -0.24854 0.98957 -0.049652 -0.13519 0.47341 0.84528 -0.24775 -0.70657 -0.70657 -0.038813 -0.70657 -0.70657 -0.038813 -0.70657 -0.70657 -0.038813 -0.70657 -0.70657 -0.038813 0.9541 0.0067268 -0.29942 0.8964 0.3153 -0.31154 0.95411 0.0063745 -0.29939 0.89152 0.32901 -0.31135 -0.48923 -0.81917 -0.29936 -0.85518 -0.42249 -0.30027 -0.48971 -0.81886 -0.29941 -0.86687 -0.39963 -0.29804 -0.95371 -0.027014 -0.2995 -0.89153 -0.32901 -0.31134 -0.89613 -0.31615 -0.31144 -0.95373 -0.026684 -0.29947 0.46546 0.87526 -0.13144 0.46546 0.87526 -0.13144 0.46546 0.87526 -0.13144 0.67988 -0.66965 -0.29889 0.84996 -0.40819 -0.3331 0.68009 -0.66941 -0.29894 0.85602 -0.39462 -0.33392 -0.50917 -0.82399 -0.24856 -0.99042 0.040618 -0.13196 -0.47337 -0.84523 -0.24801 -0.99041 0.041594 -0.13175 0.70657 0.70657 -0.038813 0.70657 0.70657 -0.038813 0.70657 0.70657 -0.038813 0.70657 0.70657 -0.038813 -0.050515 -0.98977 -0.13346 0.84524 -0.47338 -0.24795 0.8238 -0.50943 -0.24866 -0.051493 -0.98974 -0.13324 0.92835 0.22102 -0.29887 0.89099 -0.30397 -0.33726 0.92825 0.22155 -0.29878 0.88335 -0.32599 -0.33677 0.51623 -0.8228 -0.23772 0.94652 0.29344 -0.13416 0.94623 0.29446 -0.13393 0.47507 -0.84826 -0.23402 -0.95081 -0.27847 -0.13572 -0.51576 0.82277 -0.23884 -0.95108 -0.27744 -0.13595 -0.47492 0.848 -0.23526 -0.87015 0.47442 -0.13331 -0.87015 0.47442 -0.13331 -0.87015 0.47442 -0.13331 0.73382 0.66575 -0.13523 0.73382 0.66575 -0.13523 0.73382 0.66575 -0.13523 -0.85053 0.40816 -0.33166 -0.68877 0.66062 -0.29864 -0.68856 0.66085 -0.29859 -0.85641 0.39497 -0.3325 -0.35538 -0.87079 0.33975 -0.35951 -0.8696 0.33846 -0.35486 -0.87094 0.33991 -0.36013 -0.86941 0.33827 -0.35705 0.87247 -0.33363 -0.36097 0.87143 -0.33214 -0.36021 0.87163 -0.33243 -0.35642 0.87264 -0.33387 0.91069 -0.3849 0.14996 0.91347 -0.37959 0.14661 0.91398 -0.37859 0.14598 0.91036 -0.38554 0.15036 -0.91389 0.37896 -0.14559 -0.91302 0.38063 -0.14671 -0.91313 0.38042 -0.14657 -0.91406 0.37863 -0.14538 -0.91069 -0.3849 0.14996 -0.91347 -0.37959 0.14661 -0.91036 -0.38554 0.15036 -0.91398 -0.37859 0.14598 0.35486 -0.87094 0.33991 0.35951 -0.8696 0.33846 0.35538 -0.87079 0.33975 0.36013 -0.86941 0.33827 0.36021 0.87163 -0.33243 0.35705 0.87247 -0.33363 0.35642 0.87264 -0.33387 0.36097 0.87143 -0.33214 0.35688 -0.37 0.85775 0.35691 -0.36999 0.85774 0.3569 -0.36999 0.85775 0.35688 -0.37 0.85775 -0.9114 -0.16299 0.37787 -0.9114 -0.163 0.37788 -0.91139 -0.163 0.37788 -0.9114 -0.16299 0.37787 0.91428 0.16044 -0.37195 0.91428 0.16044 -0.37194 0.91429 0.16044 -0.37194 0.91428 0.16044 -0.37195 0.35938 0.36961 -0.85687 0.35937 0.36961 -0.85688 0.35937 0.36961 -0.85688 0.35938 0.36961 -0.85687 -0.35691 -0.36999 0.85774 -0.35688 -0.37 0.85775 -0.3569 -0.36999 0.85775 -0.35688 -0.37 0.85775 0.9114 -0.163 0.37788 0.9114 -0.16299 0.37787 0.9114 -0.16299 0.37787 0.91139 -0.163 0.37788 -0.35937 0.36961 -0.85688 -0.35938 0.36961 -0.85687 -0.35938 0.36961 -0.85687 -0.35937 0.36961 -0.85688 -0.35691 0.33646 0.87144 -0.35692 0.33645 0.87144 -0.35691 0.33646 0.87144 -0.35692 0.33645 0.87144 -0.35936 -0.33612 -0.87056 -0.35938 -0.33611 -0.87056 -0.35938 -0.33611 -0.87056 -0.35936 -0.33612 -0.87056 0.91429 -0.1459 -0.37788 0.91429 -0.1459 -0.37788 0.91429 -0.1459 -0.37788 0.91429 -0.1459 -0.37788 -0.91139 0.14823 0.38392 -0.9114 0.14823 0.38391 -0.9114 0.14822 0.38391 -0.91139 0.14823 0.38392 0.35938 -0.33611 -0.87056 0.35936 -0.33612 -0.87056 0.35936 -0.33612 -0.87056 0.35938 -0.33611 -0.87056 -0.91429 -0.1459 -0.37788 -0.91429 -0.1459 -0.37788 -0.91429 -0.1459 -0.37788 -0.91429 -0.1459 -0.37788 0.35692 0.33646 0.87144 0.35692 0.33645 0.87144 0.35692 0.33645 0.87144 0.35691 0.33646 0.87144 -0.91428 -0.36876 -0.16762 -0.91428 -0.36877 -0.16762 -0.91428 -0.36877 -0.16763 -0.91428 -0.36876 -0.16762 0.91428 -0.36877 -0.16762 0.91428 -0.36876 -0.16762 0.91428 -0.36877 -0.16763 0.91428 -0.36876 -0.16762 -0.35937 -0.84955 -0.38617 -0.35937 -0.84955 -0.38616 -0.35938 -0.84955 -0.38616 -0.35937 -0.84955 -0.38617 0.35691 0.85041 0.38655 0.3569 0.85041 0.38656 0.3569 0.85041 0.38655 0.35691 0.85041 0.38655 -0.3569 0.85041 0.38655 -0.35691 0.85041 0.38655 -0.35691 0.85041 0.38655 -0.3569 0.85041 0.38656 0.35937 -0.84955 -0.38616 0.35937 -0.84955 -0.38617 0.35938 -0.84955 -0.38616 0.35937 -0.84955 -0.38617 0.9114 0.37464 0.17029 0.9114 0.37464 0.17029 0.9114 0.37464 0.17029 0.9114 0.37464 0.17029 -0.92309 0.34992 -0.15957 -0.91206 0.38023 -0.15353 -0.91977 0.35936 -0.15771 -0.90966 0.38643 -0.15226 -0.37019 0.8999 -0.23053 -0.37814 0.89738 -0.22741 -0.36774 0.90066 -0.23148 -0.38082 0.89651 -0.22635 0.37814 0.89738 -0.22741 0.37019 0.8999 -0.23053 0.36774 0.90066 -0.23148 0.38082 0.89651 -0.22635 0.91206 0.38023 -0.15353 0.91977 0.35936 -0.15771 0.90966 0.38643 -0.15226 0.92309 0.34992 -0.15957 -0.91359 -0.40448 -0.041874 -0.92103 -0.38585 -0.053234 -0.91012 -0.41272 -0.036799 -0.92432 -0.37712 -0.058503 -0.37938 -0.92493 0.024012 -0.37167 -0.92794 0.02825 -0.38345 -0.9233 0.021765 -0.36718 -0.92964 0.030707 0.38345 -0.9233 0.021764 0.37167 -0.92794 0.02825 0.37938 -0.92493 0.024012 0.36718 -0.92964 0.030707 0.91359 -0.40448 -0.041874 0.92103 -0.38585 -0.053234 0.92432 -0.37712 -0.058503 0.91012 -0.41272 -0.036799 -0.00046881 -0.33452 -0.94239 -0.00040816 -0.33455 -0.94238 -0.00087268 -0.33452 -0.94239 -4.1198e-08 -0.33453 -0.94238 -4.1187e-08 -0.33456 -0.94238 0.00040808 -0.33455 -0.94238 0.00046872 -0.33452 -0.94239 0.0008726 -0.33452 -0.94239 -0.38269 0.92388 6.3536e-08 -0.38269 0.92388 6.2415e-08 -0.38269 0.92388 6.2356e-08 -0.38269 0.92388 6.3595e-08 0.38269 0.92388 -6.2329e-08 0.38269 0.92388 -6.1819e-08 0.38269 0.92388 -6.1793e-08 0.38269 0.92388 -6.2356e-08 0.92388 0.38269 -1.4938e-07 0.92388 0.38269 -1.5332e-07 0.92388 0.38269 -1.4918e-07 0.92388 0.38269 -1.5353e-07 0.92388 -0.38269 -1.5332e-07 0.92388 -0.38269 -1.4938e-07 0.92388 -0.38269 -1.5353e-07 0.92388 -0.38269 -1.4918e-07 0.38269 -0.92388 -6.2329e-08 0.38269 -0.92388 -6.1793e-08 0.38269 -0.92388 -6.1819e-08 0.38269 -0.92388 -6.2356e-08 -0.92388 -0.38269 1.5311e-07 -0.92388 -0.38269 1.4482e-07 -0.92388 -0.38269 1.4524e-07 -0.92388 -0.38269 1.5353e-07 -0.38269 -0.92388 6.3536e-08 -0.38269 -0.92388 6.2356e-08 -0.38269 -0.92388 6.2415e-08 -0.38269 -0.92388 6.3595e-08 -0.92388 0.38269 1.4524e-07 -0.92388 0.38269 1.5353e-07 -0.92388 0.38269 1.5311e-07 -0.92388 0.38269 1.4482e-07 0.92388 0.38269 5.6572e-08 0.92388 0.38269 3.0905e-08 0.92388 0.38269 4.9921e-08 0.92388 0.38269 2.4254e-08 4.3711e-08 -9.7839e-15 1 4.3711e-08 -1.8462e-15 1 4.3711e-08 -1.1897e-14 1 4.3711e-08 -7.2142e-23 1 4.3711e-08 -5.0473e-23 1 4.3711e-08 -3.1619e-16 1 4.3711e-08 -3.0385e-15 1 4.3711e-08 -2.8579e-15 1 4.3711e-08 3.0385e-15 1 4.3711e-08 1.8462e-15 1 4.3711e-08 2.8579e-15 1 4.3711e-08 -4.0132e-22 1 4.3711e-08 -2.8861e-22 1 4.3711e-08 3.1619e-16 1 4.3711e-08 9.7839e-15 1 4.3711e-08 1.1897e-14 1 -0.92388 0.38268 1.5155e-07 -0.92388 0.38268 1.5155e-07 -0.92388 0.38268 1.5155e-07 -0.92388 0.38268 1.5155e-07 -0.38268 0.92388 6.277e-08 -0.38268 0.92388 6.2345e-08 -0.38268 0.92388 6.2343e-08 -0.38268 0.92388 6.2773e-08 0.38268 0.92388 -6.2345e-08 0.38268 0.92388 -6.277e-08 0.38268 0.92388 -6.2773e-08 0.38268 0.92388 -6.2343e-08 0.92388 0.38268 -1.5155e-07 0.92388 0.38268 -1.5155e-07 0.92388 0.38268 -1.5155e-07 0.92388 0.38268 -1.5155e-07 0.92388 -0.38268 -1.5155e-07 0.92388 -0.38268 -1.5155e-07 0.92388 -0.38268 -1.5155e-07 0.92388 -0.38268 -1.5155e-07 0.38268 -0.92388 -6.2345e-08 0.38268 -0.92388 -6.2773e-08 0.38268 -0.92388 -6.277e-08 0.38268 -0.92388 -6.2343e-08 -0.92388 -0.38268 1.5155e-07 -0.92388 -0.38268 1.5155e-07 -0.92388 -0.38268 1.5155e-07 -0.92388 -0.38268 1.5155e-07 -0.38268 -0.92388 6.277e-08 -0.38268 -0.92388 6.2345e-08 -0.38268 -0.92388 6.2773e-08 -0.38268 -0.92388 6.2343e-08 4.3711e-08 5.3724e-17 1 4.3711e-08 -5.3724e-17 1 4.3711e-08 0 1 4.3711e-08 -5.3724e-17 1 4.3711e-08 -3.2234e-16 1 4.3711e-08 5.3724e-17 1 4.3711e-08 3.2234e-16 1 4.3711e-08 0 1 -0.80132 0.33192 -0.49771 -0.80132 0.33192 -0.49771 -0.80132 0.33192 -0.49771 -0.80132 0.33192 -0.49771 -1.6292e-07 -1.2669e-13 -1 -1.6292e-07 1.2669e-13 -1 -1.6292e-07 0 -1 -1.6292e-07 1.2669e-13 -1 -1.6292e-07 7.6016e-13 -1 -1.6292e-07 -1.2669e-13 -1 -1.6292e-07 0 -1 -1.6292e-07 -7.6016e-13 -1 -0.92278 -0.38223 -0.04878 -0.92278 -0.38223 -0.04878 -0.92278 -0.38223 -0.04878 -0.92278 -0.38223 -0.04878 -0.38223 -0.92278 -0.04878 -0.38223 -0.92278 -0.04878 -0.38223 -0.92278 -0.04878 -0.38223 -0.92278 -0.04878 0.38223 -0.92278 -0.04878 0.38223 -0.92278 -0.04878 0.38223 -0.92278 -0.04878 0.38223 -0.92278 -0.04878 0.92278 -0.38223 -0.04878 0.92278 -0.38223 -0.04878 0.92278 -0.38223 -0.04878 0.92278 -0.38223 -0.04878 0.92278 0.38223 -0.04878 0.92278 0.38223 -0.04878 0.92278 0.38223 -0.04878 0.92278 0.38223 -0.04878 0.38223 0.92278 -0.04878 0.38223 0.92278 -0.04878 0.38223 0.92278 -0.04878 0.38223 0.92278 -0.04878 -0.38223 0.92278 -0.04878 -0.38223 0.92278 -0.04878 -0.38223 0.92278 -0.04878 -0.38223 0.92278 -0.04878 -0.33192 0.80132 -0.49771 -0.33192 0.80132 -0.49771 -0.33192 0.80132 -0.49771 -0.33192 0.80132 -0.49771 0.33192 0.80132 -0.49771 0.33192 0.80132 -0.49771 0.33192 0.80132 -0.49771 0.33192 0.80132 -0.49771 0.80132 0.33192 -0.49771 0.80132 0.33192 -0.49771 0.80132 0.33192 -0.49771 0.80132 0.33192 -0.49771 0.80132 -0.33192 -0.49771 0.80132 -0.33192 -0.49771 0.80132 -0.33192 -0.49771 0.80132 -0.33192 -0.49771 0.33192 -0.80132 -0.49771 0.33192 -0.80132 -0.49771 0.33192 -0.80132 -0.49771 0.33192 -0.80132 -0.49771 -0.80132 -0.33192 -0.49771 -0.80132 -0.33192 -0.49771 -0.80132 -0.33192 -0.49771 -0.80132 -0.33192 -0.49771 -0.33192 -0.80132 -0.49771 -0.33192 -0.80132 -0.49771 -0.33192 -0.80132 -0.49771 -0.33192 -0.80132 -0.49771 -0.92278 0.38223 -0.04878 -0.92278 0.38223 -0.04878 -0.92278 0.38223 -0.04878 -0.92278 0.38223 -0.04878 -0.0010113 0.99964 0.026722 -0.0010114 0.99964 0.026722 -0.0010114 0.99964 0.026722 -0.0010112 0.99964 0.026722 0.0010857 -0.99857 0.053444 0.0010908 -0.99857 0.053445 0.00109 -0.99857 0.053445 0.0010851 -0.99857 0.053444 -1 -0.00034307 3.6368e-07 -1 -0.00033976 1.1022e-06 -1 -0.00034266 4.5568e-07 -1 -0.00033923 1.2198e-06 0.0010853 0.99857 0.053444 0.00109 0.99857 0.053445 0.0010908 0.99857 0.053445 0.0010846 0.99857 0.053444 0.026749 -0.02673 0.99928 0.02674 -0.02674 0.99928 0.02674 -0.02674 0.99928 0.02673 -0.026749 0.99928 -1.6656e-09 0.99927 -0.038106 -1.6656e-09 0.99927 -0.038106 -1.6656e-09 0.99927 -0.038106 -1.6656e-09 0.99927 -0.038106 0.70665 0.70654 -0.038106 0.70659 0.70659 -0.038106 0.70665 0.70654 -0.038106 0.70659 0.70659 -0.038106 -1.6656e-09 -0.99927 -0.038106 -1.6656e-09 -0.99927 -0.038106 -1.6656e-09 -0.99927 -0.038106 -1.6656e-09 -0.99927 -0.038106 0.99927 0 0.038105 0.99927 0 0.038105 0.99927 0 0.038105 0.99927 0 0.038105 0.000389 1 -5.883e-07 0.00034378 1 9.4954e-06 0.00034942 1 8.2393e-06 0.0003962 1 -2.1937e-06 0.00034036 -1 7.0962e-07 0.00034313 -1 9.1144e-08 0.00034353 -1 3.1359e-09 0.00033986 -1 8.221e-07 1 0.00039556 -2.4166e-06 1 0.00034977 7.7957e-06 1 0.00038852 -8.4519e-07 1 0.00034425 9.0252e-06 0.037824 0 0.99928 0.037824 0 0.99928 0.037824 0 0.99928 0.037824 0 0.99928 -0.0010113 -0.99964 0.026722 -0.0010114 -0.99964 0.026722 -0.0010114 -0.99964 0.026722 -0.0010112 -0.99964 0.026722 0 1 0 0 1 0 0 1 0 0 1 0 -0.70665 -0.70654 -0.038106 -0.70665 -0.70654 -0.038106 -0.70665 -0.70654 -0.038106 -0.70665 -0.70654 -0.038106 -9.7192e-09 1 2.5684e-07 -9.7118e-09 1 2.5684e-07 -9.7118e-09 1 2.5684e-07 -9.7192e-09 1 2.5684e-07 0.70705 -0.70716 2.9562e-06 0.70711 -0.70711 -1.1571e-07 0.70705 -0.70716 2.9516e-06 0.70711 -0.70711 -1.2038e-07 0.99994 0 -0.011068 0.99994 0 -0.011068 0.99994 0 -0.011068 0.99994 0 -0.011068 -0.99964 -0.0010112 0.026722 -0.99964 -0.0010114 0.026722 -0.99964 -0.0010113 0.026722 -0.99964 -0.0010115 0.026722 -0.99964 0.0010113 0.026722 -0.99964 0.0010114 0.026722 -0.99964 0.0010112 0.026722 -0.99964 0.0010115 0.026722 0.026749 0.026732 0.99928 0.02674 0.02674 0.99928 0.02674 0.02674 0.99928 0.026732 0.026749 0.99928 -0.00109 0.99857 0.053445 -0.0010846 0.99857 0.053444 -0.0010852 0.99857 0.053444 -0.0010908 0.99857 0.053445 1 5.1849e-09 9.3406e-08 1 5.1888e-09 9.3406e-08 1 5.1848e-09 9.3406e-08 1 5.1888e-09 9.3406e-08 0.70659 0.70659 0.038105 0.70654 0.70665 0.038106 0.70659 0.70659 0.038105 0.70654 0.70665 0.038106 0.00029192 0.99964 -0.026946 0.0003995 0.99964 -0.026944 0.00039934 0.99964 -0.026944 0.00029175 0.99964 -0.026946 -0.00039814 -0.99964 -0.026944 -0.00029172 -0.99964 -0.026946 -0.0003983 -0.99964 -0.026944 -0.00029156 -0.99964 -0.026946 -0.026745 0.026746 0.99928 -0.026745 0.026746 0.99928 -0.026746 0.026746 0.99928 -0.026743 0.026746 0.99928 -1 4.4999e-09 1.6271e-07 -1 4.5033e-09 1.6271e-07 -1 4.4999e-09 1.6271e-07 -1 4.5033e-09 1.6271e-07 0.70711 -0.70711 -1.3036e-07 0.70711 -0.70711 -1.4758e-07 0.70711 -0.70711 -1.4756e-07 0.70711 -0.70711 -1.3034e-07 -0.70705 0.70716 3.1781e-06 -0.70711 0.70711 1.4308e-07 -0.70711 0.70711 1.3846e-07 -0.70705 0.70716 3.1827e-06 9.6649e-09 -1 2.554e-07 9.6576e-09 -1 2.554e-07 9.665e-09 -1 2.554e-07 9.6576e-09 -1 2.554e-07 -4.8378e-10 -0.99994 -0.011067 -4.8377e-10 -0.99994 -0.011067 -4.8378e-10 -0.99994 -0.011067 -4.8377e-10 -0.99994 -0.011067 2.8199e-09 0.99792 0.064511 2.8199e-09 0.99792 0.064511 2.8199e-09 0.99792 0.064511 2.8199e-09 0.99792 0.064511 0.99964 -0.0010113 0.026722 0.99964 -0.0010114 0.026722 0.99964 -0.0010114 0.026722 0.99964 -0.0010112 0.026722 -0.037824 0 0.99928 -0.037824 0 0.99928 -0.037824 0 0.99928 -0.037824 0 0.99928 0.99927 0 -0.038106 0.99927 0 -0.038106 0.99927 0 -0.038106 0.99927 0 -0.038106 -0.99964 -0.00039834 -0.026944 -0.99964 -0.00039993 -0.026944 -0.99964 -0.00039834 -0.026944 -0.99964 -0.00039993 -0.026944 1.6656e-09 0.99927 0.038106 1.6656e-09 0.99927 0.038106 1.6656e-09 0.99927 0.038106 1.6656e-09 0.99927 0.038106 -1 -1.4195e-08 4.1883e-07 -1 -1.4185e-08 4.1883e-07 -1 -1.4195e-08 4.1883e-07 -1 -1.4185e-08 4.1883e-07 -0.99792 0 0.064512 -0.99792 0 0.064512 -0.99792 0 0.064512 -0.99792 0 0.064512 -0.00038691 -1 -2.3183e-07 -0.00039555 -1 -2.1584e-06 -0.00039422 -1 -1.8619e-06 -0.00038587 -1 1.4033e-10 -0.99857 -0.0010905 0.053445 -0.99857 -0.0010846 0.053444 -0.99857 -0.0010853 0.053444 -0.99857 -0.0010915 0.053445 -0.02674 -0.02674 0.99928 -0.02674 -0.02674 0.99928 -0.02673 -0.026749 0.99928 -0.026749 -0.02673 0.99928 -0.99857 0.0010906 0.053445 -0.99857 0.0010858 0.053444 -0.99857 0.0010851 0.053444 -0.99857 0.0010915 0.053445 0.99964 0.00040059 -0.026944 0.99964 0.00029173 -0.026947 0.99964 0.00029157 -0.026947 0.99964 0.00040076 -0.026944 1.6656e-09 -0.99927 0.038106 1.6656e-09 -0.99927 0.038106 1.6656e-09 -0.99927 0.038106 1.6656e-09 -0.99927 0.038106 0.00039748 0.99964 0.026944 0.00039523 0.99964 0.026944 0.00039523 0.99964 0.026944 0.00039748 0.99964 0.026944 -0.99927 0 -0.038105 -0.99927 0 -0.038105 -0.99927 0 -0.038105 -0.99927 0 -0.038105 0.99792 0 0.064511 0.99792 0 0.064511 0.99792 0 0.064511 0.99792 0 0.064511 0.99964 0.0010114 0.026722 0.99964 0.0010113 0.026722 0.99964 0.0010112 0.026722 0.99964 0.0010114 0.026722 0.99857 -0.0010914 0.053445 0.99857 -0.0010857 0.053444 0.99857 -0.0010906 0.053445 0.99857 -0.0010851 0.053444 -4.8378e-10 0.99994 -0.011068 -4.8378e-10 0.99994 -0.011068 -4.8378e-10 0.99994 -0.011068 -4.8378e-10 0.99994 -0.011068 4.368e-08 -0.037824 0.99928 4.368e-08 -0.037824 0.99928 4.368e-08 -0.037824 0.99928 4.368e-08 -0.037824 0.99928 -0.70654 -0.70665 0.038106 -0.70659 -0.70659 0.038106 -0.70659 -0.70659 0.038106 -0.70654 -0.70665 0.038106 0.99964 0.00029088 0.026947 0.99964 0.00028926 0.026947 0.99964 0.00028926 0.026947 0.99964 0.00029088 0.026947 -0.00039643 -0.99964 0.026944 -0.0003983 -0.99964 0.026944 -0.0003983 -0.99964 0.026944 -0.00039643 -0.99964 0.026944 -0.99927 0 0.038106 -0.99927 0 0.038106 -0.99927 0 0.038106 -0.99927 0 0.038106 0.0010113 0.99964 0.026722 0.0010114 0.99964 0.026722 0.0010112 0.99964 0.026722 0.0010114 0.99964 0.026722 2.8199e-09 -0.99792 0.064511 2.8199e-09 -0.99792 0.064511 2.8199e-09 -0.99792 0.064511 2.8199e-09 -0.99792 0.064511 -0.99994 0 -0.011067 -0.99994 0 -0.011067 -0.99994 0 -0.011067 -0.99994 0 -0.011067 1 -0.0003494 7.8729e-06 1 -0.00039617 -2.556e-06 1 -0.00038897 -9.5123e-07 1 -0.00034377 9.1286e-06 4.368e-08 0.037824 0.99928 4.368e-08 0.037824 0.99928 4.368e-08 0.037824 0.99928 4.368e-08 0.037824 0.99928 -0.70706 0.70706 -0.011062 -0.70706 0.70706 -0.011062 -0.70706 0.70706 -0.011062 -0.70706 0.70706 -0.011062 1 4.5033e-09 -1.6271e-07 1 4.4999e-09 -1.6271e-07 1 4.4999e-09 -1.6271e-07 1 4.5033e-09 -1.6271e-07 0 -1 0 0 -1 0 0 -1 0 0 -1 0 -0.70711 0.70711 4.0109e-08 -0.70705 0.70716 -2.9375e-06 -0.70711 0.70711 4.4641e-08 -0.70705 0.70716 -2.942e-06 -0.70754 -0.70616 0.026731 -0.70757 -0.70614 0.026722 -0.70757 -0.70614 0.026723 -0.70754 -0.70617 0.026732 0.70561 -0.70566 0.064511 0.70563 -0.70564 0.064506 0.70563 -0.70563 0.064505 0.70561 -0.70566 0.064512 0.70614 0.70757 0.026722 0.70614 0.70757 0.026722 0.70614 0.70757 0.026722 0.70614 0.70757 0.026722 0.0010114 -0.99964 0.026722 0.0010113 -0.99964 0.026722 0.0010112 -0.99964 0.026722 0.0010114 -0.99964 0.026722 -1.6966e-09 0.99925 -0.038813 -1.6966e-09 0.99925 -0.038813 -1.6966e-09 0.99925 -0.038813 -1.6966e-09 0.99925 -0.038813 0.99925 0 -0.038814 0.99925 0 -0.038814 0.99925 0 -0.038814 0.99925 0 -0.038814 -0.99964 -0.00029119 0.026947 -0.99964 -0.00028927 0.026947 -0.99964 -0.00029119 0.026947 -0.99964 -0.00028927 0.026947 -0.9114 0.37464 0.17029 -0.9114 0.37464 0.17029 -0.9114 0.37464 0.17029 -0.9114 0.37464 0.17029 0.9114 0.14823 0.38391 0.91139 0.14823 0.38392 0.9114 0.14822 0.38391 0.91139 0.14823 0.38392 -0.91428 0.16044 -0.37194 -0.91428 0.16044 -0.37195 -0.91429 0.16044 -0.37194 -0.91428 0.16044 -0.37195 0.91313 0.38042 -0.14657 0.91389 0.37896 -0.1456 0.91406 0.37863 -0.14538 0.91302 0.38063 -0.14671 -4.3711e-08 -3.5717e-16 -1 -4.3711e-08 -3.5717e-16 -1 -4.3711e-08 -2.143e-15 -1 -4.3711e-08 3.5717e-16 -1 -4.3711e-08 3.5717e-16 -1 -4.3711e-08 0 -1 -4.3711e-08 0 -1 -4.3711e-08 2.143e-15 -1 0.92388 -0.38269 2.4254e-08 0.92388 -0.38269 4.9921e-08 0.92388 -0.38269 3.0905e-08 0.92388 -0.38269 5.6572e-08 -0.38269 0.92388 2.652e-09 -0.38269 0.92388 6.8276e-10 -0.38269 0.92388 3.3408e-09 -0.38269 0.92388 -6.0265e-12 0.38269 -0.92388 6.0265e-12 0.38269 -0.92388 7.9801e-09 0.38269 -0.92388 2.0724e-09 0.38269 -0.92388 1.0046e-08 -0.92388 0.38269 8.0651e-09 -0.92388 0.38269 8.0651e-09 -0.92388 0.38269 8.0651e-09 -0.92388 0.38269 8.0651e-09 -0.38269 -0.92388 3.3408e-09 -0.38269 -0.92388 6.8276e-10 -0.38269 -0.92388 2.652e-09 -0.38269 -0.92388 -6.0265e-12 0.38269 0.92388 2.0724e-09 0.38269 0.92388 7.9801e-09 0.38269 0.92388 6.0265e-12 0.38269 0.92388 1.0046e-08 -0.92388 -0.38269 8.0651e-09 -0.92388 -0.38269 8.0651e-09 -0.92388 -0.38269 8.0651e-09 -0.92388 -0.38269 8.0651e-09 -0.99925 0 -0.038813 -0.99925 0 -0.038813 -0.99925 0 -0.038813 -0.99925 0 -0.038813 0.97762 0.21023 -0.007336 0.97762 0.21023 -0.007336 0.97762 0.21023 -0.007336 0.83976 -0.54293 -0.0044463 0.6699 0.70072 -0.2454 0.84068 -0.54151 -0.004882 0.56627 0.7858 -0.24871 0.21243 -0.97717 -0.0045477 0.21243 -0.97717 -0.0045477 0.21243 -0.97717 -0.0045477 -0.5356 -0.84446 -0.0047841 0.70077 -0.66994 -0.24516 -0.53417 -0.84536 -0.0052198 0.7858 -0.56627 -0.24871 -0.97378 -0.22736 -0.0080108 -0.97378 -0.22736 -0.0080108 -0.97378 -0.22736 -0.0080108 -0.85551 0.51776 -0.005965 -0.6699 -0.70112 -0.24428 -0.56633 -0.78588 -0.24834 -0.85463 0.5192 -0.0055313 -0.23182 0.97274 -0.0053185 -0.23182 0.97274 -0.0053185 -0.23182 0.97274 -0.0053185 0.5311 0.84729 -0.0053578 -0.70119 0.66975 -0.24447 -0.78593 0.56637 -0.24809 0.53253 0.8464 -0.0049261 0.081575 -0.99665 0.0062201 0.081575 -0.99665 0.0062201 0.081575 -0.99665 0.0062201 0.76745 -0.64108 0.00652 0.76745 -0.64108 0.00652 0.76745 -0.64108 0.00652 0.99624 0.086354 0.0064038 0.99624 0.086354 0.0064038 0.99624 0.086354 0.0064038 0.64968 0.76018 0.0060862 0.64968 0.76018 0.0060862 0.64968 0.76018 0.0060862 -0.06594 0.99781 0.0056153 -0.06594 0.99781 0.0056153 -0.06594 0.99781 0.0056153 -0.75084 0.66046 0.0055361 -0.75084 0.66046 0.0055361 -0.75084 0.66046 0.0055361 -0.99794 -0.063921 0.0055395 -0.99794 -0.063921 0.0055395 -0.99794 -0.063921 0.0055395 -0.65833 -0.75271 0.0056476 -0.65833 -0.75271 0.0056476 -0.65833 -0.75271 0.0056476</float_array><technique_common><accessor source="#g-n-a" count="860" stride="3"><param name="X" type="float"/><param name="Y" type="float"/><param name="Z" type="float"/></accessor></technique_common></source>
<vertices id="g-v"><input semantic="POSITION" source="#g-p"/><input semantic="NORMAL" source="#g-n"/></vertices>
<triangles material="m0" count="194"><input semantic="VERTEX" source="#g-v" offset="0"/><p>0 1 2 0 3 1 4 5 6 5 4 7 8 9 10 10 11 8 12 13 14 13 12 15 16 17 18 19 20 21 22 23 24 25 26 27 28 26 25 29 30 31 32 31 30 33 34 35 34 33 36 37 38 39 38 37 40 41 42 43 42 41 44 45 46 47 48 47 46 49 50 51 50 49 52 53 54 55 54 53 56 57 58 59 60 59 58 61 62 63 63 62 64 65 66 67 66 65 68 69 70 71 72 73 74 75 76 77 75 77 78 79 80 81 80 79 82 83 84 85 84 83 86 87 88 89 88 87 90 91 92 93 94 93 92 95 96 97 97 98 95 99 100 101 102 103 104 104 103 105 106 107 108 107 106 109 110 111 112 111 110 113 114 115 116 116 117 114 118 119 120 119 118 121 122 123 124 123 122 125 126 127 128 129 128 127 130 131 132 133 134 135 136 137 138 137 136 139 140 141 142 141 140 143 144 145 146 146 147 144 148 149 150 149 148 151 152 153 154 152 154 155 156 157 158 157 156 159 160 161 162 163 162 161 164 165 166 165 164 167 168 169 170 168 170 171 172 173 174 173 172 175 176 177 178 179 177 176 180 181 182 180 182 183 184 185 186 187 186 185 188 189 190 188 190 191 192 193 194 193 192 195 196 197 198 197 196 199 200 201 202 202 203 200 204 205 206 206 205 207 208 209 210 209 208 211 212 213 214 213 212 215 216 217 218 217 216 219 220 221 222 221 220 223 224 225 226 227 225 224 228 229 230 229 228 231 232 233 234 233 232 235 236 237 238 236 238 239 240 241 242 241 240 243 244 245 246 245 244 247 248 249 250 248 250 251 252 253 254 253 255 254 256 257 258 257 256 259 260 261 262 261 260 263 264 265 266 265 264 267 268 269 270 269 268 271 272 273 274 273 272 275 276 277 278 279 278 277 280 281 282 283 281 280 284 285 286 285 287 288 287 289 288 287 285 284 289 287 290 289 290 291 292 293 294 293 292 295 296 297 298 297 296 299 300 301 302 301 300 303 304 305 306 305 304 307 308 309 310 308 310 311 312 313 314 314 315 312 316 317 318 316 318 319 320 321 322 322 323 320 740 741 742 740 742 743 744 745 746 745 744 747 752 753 754 755 753 752 756 757 758 757 756 759 760 761 762 761 760 763 764 765 766 765 764 767 804 805 806 805 804 807 808 809 810 811 812 813 813 812 814 815 816 817 818 819 820 821 820 819 822 823 824 825 826 827 828 826 825 829 830 831 832 833 834 833 832 835 836 837 838 839 840 841 842 843 844 845 846 847 848 849 850 851 852 853 854 855 856 857 858 859</p></triangles>
<triangles material="m1" count="242"><input semantic="VERTEX" source="#g-v" offset="0"/><p>324 325 326 326 325 327 328 329 330 328 331 332 329 328 333 329 334 335 336 337 338 336 339 340 336 341 337 337 342 343 339 335 334 339 336 338 342 332 331 342 331 343 342 337 341 334 329 333 334 340 339 331 328 330 344 345 346 346 347 344 348 349 350 349 348 351 352 353 354 353 352 355 356 357 358 357 356 359 360 361 362 361 360 363 364 365 366 364 366 367 368 369 370 370 371 368 372 373 374 372 375 373 376 377 378 377 379 380 377 376 381 381 379 377 381 376 382 379 381 383 384 385 386 385 384 387 388 389 390 389 391 392 389 388 393 391 393 394 391 389 393 393 388 395 396 397 398 397 396 399 400 401 402 403 402 401 404 405 406 405 404 407 408 409 410 410 409 411 412 413 414 413 412 415 416 417 418 417 416 419 420 421 422 421 420 423 424 425 426 424 427 425 428 429 430 429 428 431 432 433 434 433 432 435 436 437 438 437 436 439 440 441 442 442 441 443 444 445 446 445 447 446 448 449 450 449 448 451 452 453 454 453 455 454 456 457 458 457 456 459 460 461 462 460 462 463 464 465 466 466 465 467 468 469 470 469 468 471 472 473 474 474 473 475 476 477 478 477 476 479 480 481 482 481 480 483 484 485 486 485 484 487 488 489 490 490 489 491 492 493 494 492 494 495 496 497 498 497 496 499 500 501 502 502 501 503 504 505 506 505 507 506 508 509 510 508 510 511 512 513 514 515 513 512 516 517 518 517 516 519 520 521 522 522 523 520 524 525 526 527 526 525 528 529 530 529 528 531 532 533 534 534 533 535 536 537 538 537 536 539 540 541 542 541 543 542 544 545 546 544 546 547 548 549 550 549 548 551 552 553 554 553 552 555 556 557 558 558 559 556 560 561 562 561 560 563 564 565 566 565 564 567 568 569 570 571 570 569 572 573 574 572 574 575 576 577 578 577 576 579 580 581 582 580 583 581 584 585 586 585 584 587 588 589 590 589 588 591 592 593 594 594 595 592 596 597 598 597 596 599 600 601 602 601 600 603 604 605 606 607 606 605 608 609 610 609 608 611 612 613 614 613 612 615 616 617 618 618 619 616 620 621 622 620 622 623 624 625 626 626 627 624 628 629 630 629 628 631 632 633 634 633 632 635 636 637 638 637 636 639 640 641 642 643 642 641 644 645 646 647 645 644 648 649 650 649 648 651 652 653 654 653 652 655 656 657 658 657 656 659 660 661 662 661 663 662 664 665 666 667 666 665 668 669 670 669 668 671 672 673 674 672 674 675 676 677 678 678 679 676 680 681 682 681 680 683 684 685 686 685 684 687 688 689 690 689 688 691 692 693 694 693 692 695 696 697 698 698 697 699 700 701 702 702 703 700 704 705 706 704 706 707 708 709 710 710 709 711 712 713 714 713 712 715 716 717 718 717 716 719 720 721 722 721 720 723 724 725 726 726 727 724 728 729 730 729 728 731 732 733 734 735 734 733 736 737 738 737 736 739 748 749 750 749 748 751 768 769 770 769 768 771 769 772 773 771 768 774 771 772 769 772 771 775 776 777 778 778 777 779 780 781 782 781 780 783 784 785 786 787 786 785 788 789 790 790 789 791 792 793 794 795 794 793 796 797 798 797 796 799 800 801 802 802 801 803</p></triangles>
</mesh></geometry></library_geometries><library_visual_scenes><visual_scene id="Scene"><node id="n" name="umbrella"><instance_geometry url="#g"><bind_material><technique_common>
<instance_material symbol="m0" target="#m0"/>
<instance_material symbol="m1" target="#m1"/>
</technique_common></bind_material></instance_geometry></node></visual_scene></library_visual_scenes><scene><instance_visual_scene url="#Scene"/></scene></COLLADA>
