<?xml version="1.0" encoding="utf-8"?>
<COLLADA xmlns="http://www.collada.org/2005/11/COLLADASchema" version="1.4.1">
<asset><contributor><authoring_tool>VATs starter props (see CREDITS.md)</authoring_tool></contributor><unit name="meter" meter="1"/><up_axis>Z_UP</up_axis></asset>
<library_effects>
<effect id="m0-fx"><profile_COMMON><technique sid="common"><lambert><diffuse><color>0.700 0.760 0.800 1</color></diffuse></lambert></technique></profile_COMMON></effect>
<effect id="m1-fx"><profile_COMMON><technique sid="common"><lambert><diffuse><color>0.460 0.200 0.250 1</color></diffuse></lambert></technique></profile_COMMON></effect>
</library_effects><library_materials>
<material id="m0" name="m0"><instance_effect url="#m0-fx"/></material>
<material id="m1" name="m1"><instance_effect url="#m1-fx"/></material>
</library_materials><library_geometries><geometry id="g" name="wine-glass"><mesh>
<source id="g-p"><float_array id="g-p-a" count="1296">-0.039397 0.022494 0.13068 -0.00021808 0.045366 0.13068 -0.030729 0.017545 0.2 -0.0001701 0.035385 0.2 -0.00017442 0.036283 0 -0.031509 0.01799 0 0.031335 0.018293 0 0.031509 -0.01799 0 -0.031335 -0.018293 0 0.00017442 -0.036283 0 -0.031335 -0.018293 0 -0.031335 -0.018293 0.0070483 0.00017442 -0.036283 0 0.00017442 -0.036283 0.0070483 -0.039179 -0.022872 0.13068 -0.030559 -0.01784 0.2 0.00021808 -0.045366 0.13068 0.0001701 -0.035385 0.2 -0.031335 -0.018293 0 -0.031509 0.01799 0 -0.031335 -0.018293 0.0070483 -0.031509 0.01799 0.0070483 0.0001701 -0.035385 0.2 0.030729 -0.017545 0.2 0.00021808 -0.045366 0.13068 0.039397 -0.022494 0.13068 0.00017442 -0.036283 0 0.00017442 -0.036283 0.0070483 0.031509 -0.01799 0 0.031509 -0.01799 0.0070483 -0.00021808 0.045366 0.13068 0.039179 0.022872 0.13068 -0.0001701 0.035385 0.2 0.030559 0.01784 0.2 0.039179 0.022872 0.13068 0.039397 -0.022494 0.13068 0.030559 0.01784 0.2 0.030729 -0.017545 0.2 -0.00017442 0.036283 0.0070483 -0.00017442 0.036283 0 0.031335 0.018293 0.0070483 0.031335 0.018293 0 -0.031509 0.01799 0.0070483 -0.031509 0.01799 0 -0.00017442 0.036283 0.0070483 -0.00017442 0.036283 0 0.031335 0.018293 0 0.031509 -0.01799 0 0.031335 0.018293 0.0070483 0.031509 -0.01799 0.0070483 -0.039179 -0.022872 0.13068 -0.039397 0.022494 0.13068 -0.030559 -0.01784 0.2 -0.030729 0.017545 0.2 0.00014255 -0.029653 0.2 0.00015475 -0.032191 0.13068 0.025752 -0.014703 0.2 0.027955 -0.015961 0.13068 0.027955 -0.015961 0.13068 0.027801 0.016229 0.13068 0.025752 -0.014703 0.2 0.025609 0.01495 0.2 -0.00015475 0.032191 0.13068 0.027801 0.016229 0.13068 -0.027955 0.015961 0.13068 0.027955 -0.015961 0.13068 -0.027801 -0.016229 0.13068 0.00015475 -0.032191 0.13068 -0.027955 0.015961 0.13068 -0.027801 -0.016229 0.13068 -0.025752 0.014703 0.2 -0.025609 -0.01495 0.2 -0.00015475 0.032191 0.13068 -0.00014255 0.029653 0.2 0.027801 0.016229 0.13068 0.025609 0.01495 0.2 -0.027801 -0.016229 0.13068 0.00015475 -0.032191 0.13068 -0.025609 -0.01495 0.2 0.00014255 -0.029653 0.2 -0.027955 0.015961 0.13068 -0.025752 0.014703 0.2 -0.00015475 0.032191 0.13068 -0.00014255 0.029653 0.2 -0.00017442 0.036283 0.0070483 0.031335 0.018293 0.0070483 -2.2448e-05 0.0046696 0.020002 0.0040328 0.0023542 0.020002 -2.2448e-05 0.0046696 0.020002 -0.0040552 0.0023154 0.020002 0.0040328 0.0023542 0.020002 0.0040552 -0.0023154 0.020002 -0.0040328 -0.0023542 0.020002 2.2448e-05 -0.0046696 0.020002 0.031335 0.018293 0.0070483 0.031509 -0.01799 0.0070483 0.0040328 0.0023542 0.020002 0.0040552 -0.0023154 0.020002 0.017251 0.010071 0.10744 0.0040328 0.0023542 0.10132 0.017347 -0.0099044 0.10744 0.0040552 -0.0023154 0.10132 0.00017898 -0.037233 0.11734 0.00021808 -0.045366 0.13068 0.032334 -0.018461 0.11734 0.039397 -0.022494 0.13068 -2.2448e-05 0.0046696 0.10132 -2.2448e-05 0.0046696 0.020002 0.0040328 0.0023542 0.10132 0.0040328 0.0023542 0.020002 0.0040328 0.0023542 0.020002 0.0040552 -0.0023154 0.020002 0.0040328 0.0023542 0.10132 0.0040552 -0.0023154 0.10132 -0.0040328 -0.0023542 0.10132 -0.017251 -0.010071 0.10744 2.2448e-05 -0.0046696 0.10132 9.6023e-05 -0.019975 0.10744 0.0040552 -0.0023154 0.020002 0.031509 -0.01799 0.0070483 2.2448e-05 -0.0046696 0.020002 0.00017442 -0.036283 0.0070483 -0.0040552 0.0023154 0.10132 -0.0040552 0.0023154 0.020002 -2.2448e-05 0.0046696 0.10132 -2.2448e-05 0.0046696 0.020002 0.0040552 -0.0023154 0.10132 2.2448e-05 -0.0046696 0.10132 0.017347 -0.0099044 0.10744 9.6023e-05 -0.019975 0.10744 -0.0040328 -0.0023542 0.020002 -0.0040328 -0.0023542 0.10132 2.2448e-05 -0.0046696 0.020002 2.2448e-05 -0.0046696 0.10132 2.2448e-05 -0.0046696 0.020002 2.2448e-05 -0.0046696 0.10132 0.0040552 -0.0023154 0.020002 0.0040552 -0.0023154 0.10132 -0.031509 0.01799 0.0070483 -0.0040552 0.0023154 0.020002 -0.031335 -0.018293 0.0070483 -0.0040328 -0.0023542 0.020002 -9.6023e-05 0.019975 0.10744 -0.017347 0.0099044 0.10744 -2.2448e-05 0.0046696 0.10132 -0.0040552 0.0023154 0.10132 -0.017347 0.0099044 0.10744 -0.017251 -0.010071 0.10744 -0.0040552 0.0023154 0.10132 -0.0040328 -0.0023542 0.10132 -0.0040328 -0.0023542 0.020002 -0.0040552 0.0023154 0.020002 -0.0040328 -0.0023542 0.10132 -0.0040552 0.0023154 0.10132 -0.0040328 -0.0023542 0.020002 2.2448e-05 -0.0046696 0.020002 -0.031335 -0.018293 0.0070483 0.00017442 -0.036283 0.0070483 -9.6023e-05 0.019975 0.10744 -2.2448e-05 0.0046696 0.10132 0.017251 0.010071 0.10744 0.0040328 0.0023542 0.10132 -0.00017442 0.036283 0.0070483 -2.2448e-05 0.0046696 0.020002 -0.031509 0.01799 0.0070483 -0.0040552 0.0023154 0.020002 -0.00021808 0.045366 0.13068 -0.00017898 0.037233 0.11734 0.039179 0.022872 0.13068 0.032155 0.018771 0.11734 -0.032155 -0.018771 0.11734 -0.032334 0.018461 0.11734 -0.039179 -0.022872 0.13068 -0.039397 0.022494 0.13068 0.032155 0.018771 0.11734 0.032334 -0.018461 0.11734 0.039179 0.022872 0.13068 0.039397 -0.022494 0.13068 -0.00017898 0.037233 0.11734 -0.032334 0.018461 0.11734 -9.6023e-05 0.019975 0.10744 -0.017347 0.0099044 0.10744 -0.039397 0.022494 0.13068 -0.032334 0.018461 0.11734 -0.00021808 0.045366 0.13068 -0.00017898 0.037233 0.11734 -0.032334 0.018461 0.11734 -0.032155 -0.018771 0.11734 -0.017347 0.0099044 0.10744 -0.017251 -0.010071 0.10744 0.032155 0.018771 0.11734 0.017251 0.010071 0.10744 0.032334 -0.018461 0.11734 0.017347 -0.0099044 0.10744 -0.039179 -0.022872 0.13068 0.00021808 -0.045366 0.13068 -0.032155 -0.018771 0.11734 0.00017898 -0.037233 0.11734 -0.00017898 0.037233 0.11734 -9.6023e-05 0.019975 0.10744 0.032155 0.018771 0.11734 0.017251 0.010071 0.10744 0.017347 -0.0099044 0.10744 9.6023e-05 -0.019975 0.10744 0.032334 -0.018461 0.11734 0.00017898 -0.037233 0.11734 -0.017251 -0.010071 0.10744 -0.032155 -0.018771 0.11734 9.6023e-05 -0.019975 0.10744 0.00017898 -0.037233 0.11734 0.025752 -0.014703 0.2 0.025609 0.01495 0.2 0.030729 -0.017545 0.2 0.00014255 -0.029653 0.2 0.030559 0.01784 0.2 0.0001701 -0.035385 0.2 -0.00014255 0.029653 0.2 -0.0001701 0.035385 0.2 -0.030729 0.017545 0.2 -0.025752 0.014703 0.2 -0.030559 -0.01784 0.2 -0.025609 -0.01495 0.2 -0.030729 0.017545 0.2 -0.00021808 0.045366 0.13068 -0.039397 0.022494 0.13068 -0.0001701 0.035385 0.2 0.031335 0.018293 0 -0.031509 0.01799 0 -0.00017442 0.036283 0 0.031509 -0.01799 0 -0.031335 -0.018293 0 0.00017442 -0.036283 0 0.00017442 -0.036283 0 -0.031335 -0.018293 0.0070483 -0.031335 -0.018293 0 0.00017442 -0.036283 0.0070483 0.00021808 -0.045366 0.13068 -0.030559 -0.01784 0.2 -0.039179 -0.022872 0.13068 0.0001701 -0.035385 0.2 -0.031335 -0.018293 0.0070483 -0.031509 0.01799 0 -0.031335 -0.018293 0 -0.031509 0.01799 0.0070483 0.00021808 -0.045366 0.13068 0.030729 -0.017545 0.2 0.0001701 -0.035385 0.2 0.039397 -0.022494 0.13068 0.031509 -0.01799 0 0.00017442 -0.036283 0.0070483 0.00017442 -0.036283 0 0.031509 -0.01799 0.0070483 -0.0001701 0.035385 0.2 0.039179 0.022872 0.13068 -0.00021808 0.045366 0.13068 0.030559 0.01784 0.2 0.030559 0.01784 0.2 0.039397 -0.022494 0.13068 0.039179 0.022872 0.13068 0.030729 -0.017545 0.2 0.031335 0.018293 0.0070483 -0.00017442 0.036283 0 -0.00017442 0.036283 0.0070483 0.031335 0.018293 0 -0.00017442 0.036283 0.0070483 -0.031509 0.01799 0 -0.031509 0.01799 0.0070483 -0.00017442 0.036283 0 0.031335 0.018293 0.0070483 0.031509 -0.01799 0 0.031335 0.018293 0 0.031509 -0.01799 0.0070483 -0.030559 -0.01784 0.2 -0.039397 0.022494 0.13068 -0.039179 -0.022872 0.13068 -0.030729 0.017545 0.2 0.025752 -0.014703 0.2 0.00015475 -0.032191 0.13068 0.00014255 -0.029653 0.2 0.027955 -0.015961 0.13068 0.025752 -0.014703 0.2 0.027801 0.016229 0.13068 0.027955 -0.015961 0.13068 0.025609 0.01495 0.2 -0.025752 0.014703 0.2 -0.027801 -0.016229 0.13068 -0.027955 0.015961 0.13068 -0.025609 -0.01495 0.2 0.027801 0.016229 0.13068 -0.00014255 0.029653 0.2 -0.00015475 0.032191 0.13068 0.025609 0.01495 0.2 -0.025609 -0.01495 0.2 0.00015475 -0.032191 0.13068 -0.027801 -0.016229 0.13068 0.00014255 -0.029653 0.2 -0.00015475 0.032191 0.13068 -0.025752 0.014703 0.2 -0.027955 0.015961 0.13068 -0.00014255 0.029653 0.2 -2.2448e-05 0.0046696 0.020002 0.031335 0.018293 0.0070483 -0.00017442 0.036283 0.0070483 0.0040328 0.0023542 0.020002 0.0040328 0.0023542 0.020002 0.031509 -0.01799 0.0070483 0.031335 0.018293 0.0070483 0.0040552 -0.0023154 0.020002 0.017347 -0.0099044 0.10744 0.0040328 0.0023542 0.10132 0.017251 0.010071 0.10744 0.0040552 -0.0023154 0.10132 0.032334 -0.018461 0.11734 0.00021808 -0.045366 0.13068 0.00017898 -0.037233 0.11734 0.039397 -0.022494 0.13068 0.0040328 0.0023542 0.10132 -2.2448e-05 0.0046696 0.020002 -2.2448e-05 0.0046696 0.10132 0.0040328 0.0023542 0.020002 0.0040328 0.0023542 0.10132 0.0040552 -0.0023154 0.020002 0.0040328 0.0023542 0.020002 0.0040552 -0.0023154 0.10132 2.2448e-05 -0.0046696 0.10132 -0.017251 -0.010071 0.10744 -0.0040328 -0.0023542 0.10132 9.6023e-05 -0.019975 0.10744 2.2448e-05 -0.0046696 0.020002 0.031509 -0.01799 0.0070483 0.0040552 -0.0023154 0.020002 0.00017442 -0.036283 0.0070483 -2.2448e-05 0.0046696 0.10132 -0.0040552 0.0023154 0.020002 -0.0040552 0.0023154 0.10132 -2.2448e-05 0.0046696 0.020002 0.017347 -0.0099044 0.10744 2.2448e-05 -0.0046696 0.10132 0.0040552 -0.0023154 0.10132 9.6023e-05 -0.019975 0.10744 2.2448e-05 -0.0046696 0.020002 -0.0040328 -0.0023542 0.10132 -0.0040328 -0.0023542 0.020002 2.2448e-05 -0.0046696 0.10132 0.0040552 -0.0023154 0.020002 2.2448e-05 -0.0046696 0.10132 2.2448e-05 -0.0046696 0.020002 0.0040552 -0.0023154 0.10132 -0.031335 -0.018293 0.0070483 -0.0040552 0.0023154 0.020002 -0.031509 0.01799 0.0070483 -0.0040328 -0.0023542 0.020002 -2.2448e-05 0.0046696 0.10132 -0.017347 0.0099044 0.10744 -9.6023e-05 0.019975 0.10744 -0.0040552 0.0023154 0.10132 -0.0040552 0.0023154 0.10132 -0.017251 -0.010071 0.10744 -0.017347 0.0099044 0.10744 -0.0040328 -0.0023542 0.10132 -0.0040328 -0.0023542 0.10132 -0.0040552 0.0023154 0.020002 -0.0040328 -0.0023542 0.020002 -0.0040552 0.0023154 0.10132 -0.031335 -0.018293 0.0070483 2.2448e-05 -0.0046696 0.020002 -0.0040328 -0.0023542 0.020002 0.00017442 -0.036283 0.0070483 0.017251 0.010071 0.10744 -2.2448e-05 0.0046696 0.10132 -9.6023e-05 0.019975 0.10744 0.0040328 0.0023542 0.10132 -0.031509 0.01799 0.0070483 -2.2448e-05 0.0046696 0.020002 -0.00017442 0.036283 0.0070483 -0.0040552 0.0023154 0.020002 0.039179 0.022872 0.13068 -0.00017898 0.037233 0.11734 -0.00021808 0.045366 0.13068 0.032155 0.018771 0.11734 -0.039179 -0.022872 0.13068 -0.032334 0.018461 0.11734 -0.032155 -0.018771 0.11734 -0.039397 0.022494 0.13068 0.039179 0.022872 0.13068 0.032334 -0.018461 0.11734 0.032155 0.018771 0.11734 0.039397 -0.022494 0.13068 -9.6023e-05 0.019975 0.10744 -0.032334 0.018461 0.11734 -0.00017898 0.037233 0.11734 -0.017347 0.0099044 0.10744 -0.00021808 0.045366 0.13068 -0.032334 0.018461 0.11734 -0.039397 0.022494 0.13068 -0.00017898 0.037233 0.11734 -0.017347 0.0099044 0.10744 -0.032155 -0.018771 0.11734 -0.032334 0.018461 0.11734 -0.017251 -0.010071 0.10744 0.032334 -0.018461 0.11734 0.017251 0.010071 0.10744 0.032155 0.018771 0.11734 0.017347 -0.0099044 0.10744 -0.032155 -0.018771 0.11734 0.00021808 -0.045366 0.13068 -0.039179 -0.022872 0.13068 0.00017898 -0.037233 0.11734 0.032155 0.018771 0.11734 -9.6023e-05 0.019975 0.10744 -0.00017898 0.037233 0.11734 0.017251 0.010071 0.10744 0.032334 -0.018461 0.11734 9.6023e-05 -0.019975 0.10744 0.017347 -0.0099044 0.10744 0.00017898 -0.037233 0.11734 9.6023e-05 -0.019975 0.10744 -0.032155 -0.018771 0.11734 -0.017251 -0.010071 0.10744 0.00017898 -0.037233 0.11734 0.030729 -0.017545 0.2 0.025609 0.01495 0.2 0.025752 -0.014703 0.2 0.00014255 -0.029653 0.2 0.030559 0.01784 0.2 0.0001701 -0.035385 0.2 -0.00014255 0.029653 0.2 -0.0001701 0.035385 0.2 -0.030729 0.017545 0.2 -0.025752 0.014703 0.2 -0.030559 -0.01784 0.2 -0.025609 -0.01495 0.2</float_array><technique_common><accessor source="#g-p-a" count="432" stride="3"><param name="X" type="float"/><param name="Y" type="float"/><param name="Z" type="float"/></accessor></technique_common></source>
<source id="g-n"><float_array id="g-n-a" count="1296">-0.50028 0.85698 0.12372 -0.50028 0.85698 0.12372 -0.50028 0.85698 0.12372 -0.50028 0.85698 0.12372 0 0 -1 0 0 -1 0 0 -1 0 0 -1 0 0 -1 0 0 -1 -0.49583 -0.86842 0 -0.49583 -0.86842 0 -0.49583 -0.86842 0 -0.49583 -0.86842 0 -0.49202 -0.86175 0.12372 -0.49202 -0.86175 0.12372 -0.49202 -0.86175 0.12372 -0.49202 -0.86175 0.12372 -0.99999 -0.004807 0 -0.99999 -0.004807 0 -0.99999 -0.004807 0 -0.99999 -0.004807 0 0.50028 -0.85698 0.12372 0.50028 -0.85698 0.12372 0.50028 -0.85698 0.12372 0.50028 -0.85698 0.12372 0.50416 -0.86361 0 0.50416 -0.86361 0 0.50416 -0.86361 0 0.50416 -0.86361 0 0.49202 0.86175 0.12372 0.49202 0.86175 0.12372 0.49202 0.86175 0.12372 0.49202 0.86175 0.12372 0.99231 0.0047701 0.12372 0.99231 0.0047701 0.12372 0.99231 0.0047701 0.12372 0.99231 0.0047702 0.12372 0.49583 0.86842 0 0.49583 0.86842 0 0.49583 0.86842 0 0.49583 0.86842 0 -0.50416 0.86361 0 -0.50416 0.86361 0 -0.50416 0.86361 0 -0.50416 0.86361 0 0.99999 0.004807 0 0.99999 0.004807 0 0.99999 0.004807 0 0.99999 0.004807 0 -0.99231 -0.0047701 0.12372 -0.99231 -0.0047701 0.12372 -0.99231 -0.0047701 0.12372 -0.99231 -0.0047702 0.12372 -0.5039 0.86318 -0.031681 -0.5039 0.86318 -0.031681 -0.5039 0.86318 -0.031681 -0.5039 0.86318 -0.031681 -0.99949 -0.0048046 -0.031681 -0.99949 -0.0048046 -0.031681 -0.99949 -0.0048047 -0.031681 -0.99949 -0.0048047 -0.031681 0 0 1 0 0 1 0 0 1 0 0 1 0 0 1 0 0 1 0.99949 0.0048046 -0.031681 0.99949 0.0048046 -0.031681 0.99949 0.0048047 -0.031681 0.99949 0.0048047 -0.031681 -0.49558 -0.86798 -0.031681 -0.49558 -0.86798 -0.031681 -0.49558 -0.86798 -0.031681 -0.49558 -0.86798 -0.031681 0.49558 0.86798 -0.031681 0.49558 0.86798 -0.031681 0.49558 0.86798 -0.031681 0.49558 0.86798 -0.031681 0.5039 -0.86318 -0.031681 0.5039 -0.86318 -0.031681 0.5039 -0.86318 -0.031681 0.5039 -0.86318 -0.031681 0.21206 0.37141 0.90393 0.21206 0.37141 0.90393 0.21206 0.37141 0.90393 0.21206 0.37141 0.90393 0 0 -1 0 0 -1 0 0 -1 0 0 -1 0 0 -1 0 0 -1 0.42768 0.0020559 0.90393 0.42768 0.0020559 0.90393 0.42768 0.0020559 0.90393 0.42768 0.0020559 0.90393 0.41926 0.0020154 -0.90787 0.41926 0.0020154 -0.90787 0.41926 0.0020154 -0.90787 0.41926 0.0020154 -0.90787 0.44577 -0.76359 -0.46714 0.44577 -0.76359 -0.46714 0.44577 -0.76359 -0.46714 0.44577 -0.76359 -0.46714 0.49583 0.86842 0 0.49583 0.86842 0 0.49583 0.86842 0 0.49583 0.86842 0 0.99999 0.004807 0 0.99999 0.004807 0 0.99999 0.004807 0 0.99999 0.004807 0 -0.20788 -0.36409 -0.90787 -0.20788 -0.36409 -0.90787 -0.20788 -0.36409 -0.90787 -0.20788 -0.36409 -0.90787 0.21562 -0.36936 0.90393 0.21562 -0.36936 0.90393 0.21562 -0.36936 0.90393 0.21562 -0.36936 0.90393 -0.50416 0.86361 0 -0.50416 0.86361 0 -0.50416 0.86361 0 -0.50416 0.86361 0 0.21137 -0.36208 -0.90787 0.21137 -0.36208 -0.90787 0.21137 -0.36208 -0.90787 0.21137 -0.36208 -0.90787 -0.49583 -0.86842 0 -0.49583 -0.86842 0 -0.49583 -0.86842 0 -0.49583 -0.86842 0 0.50416 -0.86361 0 0.50416 -0.86361 0 0.50416 -0.86361 0 0.50416 -0.86361 0 -0.42768 -0.0020559 0.90393 -0.42768 -0.0020559 0.90393 -0.42768 -0.0020559 0.90393 -0.42768 -0.0020559 0.90393 -0.21137 0.36208 -0.90787 -0.21137 0.36208 -0.90787 -0.21137 0.36208 -0.90787 -0.21137 0.36208 -0.90787 -0.41926 -0.0020154 -0.90787 -0.41926 -0.0020154 -0.90787 -0.41926 -0.0020154 -0.90787 -0.41926 -0.0020154 -0.90787 -0.99999 -0.004807 0 -0.99999 -0.004807 0 -0.99999 -0.004807 0 -0.99999 -0.004807 0 -0.21206 -0.37141 0.90393 -0.21206 -0.37141 0.90393 -0.21206 -0.37141 0.90393 -0.21206 -0.37141 0.90393 0.20788 0.36409 -0.90787 0.20788 0.36409 -0.90787 0.20788 0.36409 -0.90787 0.20788 0.36409 -0.90787 -0.21562 0.36936 0.90393 -0.21562 0.36936 0.90393 -0.21562 0.36936 0.90393 -0.21562 0.36936 0.90393 0.43841 0.76784 -0.46714 0.43841 0.76784 -0.46714 0.43841 0.76784 -0.46714 0.43841 0.76784 -0.46714 -0.88417 -0.0042504 -0.46714 -0.88417 -0.0042503 -0.46714 -0.88417 -0.0042504 -0.46714 -0.88417 -0.0042503 -0.46714 0.88417 0.0042504 -0.46714 0.88417 0.0042503 -0.46714 0.88417 0.0042504 -0.46714 0.88417 0.0042503 -0.46714 -0.27848 0.47703 -0.8336 -0.27848 0.47703 -0.8336 -0.27848 0.47703 -0.8336 -0.27848 0.47703 -0.8336 -0.44577 0.76359 -0.46714 -0.44577 0.76359 -0.46714 -0.44577 0.76359 -0.46714 -0.44577 0.76359 -0.46714 -0.55236 -0.0026553 -0.8336 -0.55236 -0.0026553 -0.8336 -0.55236 -0.0026553 -0.8336 -0.55236 -0.0026553 -0.8336 0.55236 0.0026553 -0.8336 0.55236 0.0026553 -0.8336 0.55236 0.0026553 -0.8336 0.55236 0.0026553 -0.8336 -0.43841 -0.76784 -0.46714 -0.43841 -0.76784 -0.46714 -0.43841 -0.76784 -0.46714 -0.43841 -0.76784 -0.46714 0.27388 0.47969 -0.8336 0.27388 0.47969 -0.8336 0.27388 0.47969 -0.8336 0.27388 0.47969 -0.8336 0.27848 -0.47703 -0.8336 0.27848 -0.47703 -0.8336 0.27848 -0.47703 -0.8336 0.27848 -0.47703 -0.8336 -0.27388 -0.47969 -0.8336 -0.27388 -0.47969 -0.8336 -0.27388 -0.47969 -0.8336 -0.27388 -0.47969 -0.8336 0 0 1 0 0 1 0 0 1 0 0 1 0 0 1 0 0 1 0 0 1 0 0 1 0 0 1 0 0 1 0 0 1 0 0 1 0.50028 -0.85698 -0.12372 0.50028 -0.85698 -0.12372 0.50028 -0.85698 -0.12372 0.50028 -0.85698 -0.12372 0 0 1 0 0 1 0 0 1 0 0 1 0 0 1 0 0 1 0.49583 0.86842 0 0.49583 0.86842 0 0.49583 0.86842 0 0.49583 0.86842 0 0.49202 0.86175 -0.12372 0.49202 0.86175 -0.12372 0.49202 0.86175 -0.12372 0.49202 0.86175 -0.12372 0.99999 0.004807 0 0.99999 0.004807 0 0.99999 0.004807 0 0.99999 0.004807 0 -0.50028 0.85698 -0.12372 -0.50028 0.85698 -0.12372 -0.50028 0.85698 -0.12372 -0.50028 0.85698 -0.12372 -0.50416 0.86361 0 -0.50416 0.86361 0 -0.50416 0.86361 0 -0.50416 0.86361 0 -0.49202 -0.86175 -0.12372 -0.49202 -0.86175 -0.12372 -0.49202 -0.86175 -0.12372 -0.49202 -0.86175 -0.12372 -0.99231 -0.0047701 -0.12372 -0.99231 -0.0047701 -0.12372 -0.99231 -0.0047701 -0.12372 -0.99231 -0.0047702 -0.12372 -0.49583 -0.86842 0 -0.49583 -0.86842 0 -0.49583 -0.86842 0 -0.49583 -0.86842 0 0.50416 -0.86361 0 0.50416 -0.86361 0 0.50416 -0.86361 0 0.50416 -0.86361 0 -0.99999 -0.004807 0 -0.99999 -0.004807 0 -0.99999 -0.004807 0 -0.99999 -0.004807 0 0.99231 0.0047701 -0.12372 0.99231 0.0047701 -0.12372 0.99231 0.0047701 -0.12372 0.99231 0.0047702 -0.12372 0.5039 -0.86318 0.031681 0.5039 -0.86318 0.031681 0.5039 -0.86318 0.031681 0.5039 -0.86318 0.031681 0.99949 0.0048047 0.031681 0.99949 0.0048046 0.031681 0.99949 0.0048046 0.031681 0.99949 0.0048047 0.031681 -0.99949 -0.0048047 0.031681 -0.99949 -0.0048046 0.031681 -0.99949 -0.0048046 0.031681 -0.99949 -0.0048047 0.031681 0.49558 0.86798 0.031681 0.49558 0.86798 0.031681 0.49558 0.86798 0.031681 0.49558 0.86798 0.031681 -0.49558 -0.86798 0.031681 -0.49558 -0.86798 0.031681 -0.49558 -0.86798 0.031681 -0.49558 -0.86798 0.031681 -0.5039 0.86318 0.031681 -0.5039 0.86318 0.031681 -0.5039 0.86318 0.031681 -0.5039 0.86318 0.031681 -0.21206 -0.37141 -0.90393 -0.21206 -0.37141 -0.90393 -0.21206 -0.37141 -0.90393 -0.21206 -0.37141 -0.90393 -0.42768 -0.0020559 -0.90393 -0.42768 -0.0020559 -0.90393 -0.42768 -0.0020559 -0.90393 -0.42768 -0.0020559 -0.90393 -0.41926 -0.0020154 0.90787 -0.41926 -0.0020154 0.90787 -0.41926 -0.0020154 0.90787 -0.41926 -0.0020154 0.90787 -0.44577 0.76359 0.46714 -0.44577 0.76359 0.46714 -0.44577 0.76359 0.46714 -0.44577 0.76359 0.46714 -0.49583 -0.86842 0 -0.49583 -0.86842 0 -0.49583 -0.86842 0 -0.49583 -0.86842 0 -0.99999 -0.004807 0 -0.99999 -0.004807 0 -0.99999 -0.004807 0 -0.99999 -0.004807 0 0.20788 0.36409 0.90787 0.20788 0.36409 0.90787 0.20788 0.36409 0.90787 0.20788 0.36409 0.90787 -0.21562 0.36936 -0.90393 -0.21562 0.36936 -0.90393 -0.21562 0.36936 -0.90393 -0.21562 0.36936 -0.90393 0.50416 -0.86361 0 0.50416 -0.86361 0 0.50416 -0.86361 0 0.50416 -0.86361 0 -0.21137 0.36208 0.90787 -0.21137 0.36208 0.90787 -0.21137 0.36208 0.90787 -0.21137 0.36208 0.90787 0.49583 0.86842 0 0.49583 0.86842 0 0.49583 0.86842 0 0.49583 0.86842 0 -0.50416 0.86361 0 -0.50416 0.86361 0 -0.50416 0.86361 0 -0.50416 0.86361 0 0.42768 0.0020559 -0.90393 0.42768 0.0020559 -0.90393 0.42768 0.0020559 -0.90393 0.42768 0.0020559 -0.90393 0.21137 -0.36208 0.90787 0.21137 -0.36208 0.90787 0.21137 -0.36208 0.90787 0.21137 -0.36208 0.90787 0.41926 0.0020154 0.90787 0.41926 0.0020154 0.90787 0.41926 0.0020154 0.90787 0.41926 0.0020154 0.90787 0.99999 0.004807 0 0.99999 0.004807 0 0.99999 0.004807 0 0.99999 0.004807 0 0.21206 0.37141 -0.90393 0.21206 0.37141 -0.90393 0.21206 0.37141 -0.90393 0.21206 0.37141 -0.90393 -0.20788 -0.36409 0.90787 -0.20788 -0.36409 0.90787 -0.20788 -0.36409 0.90787 -0.20788 -0.36409 0.90787 0.21562 -0.36936 -0.90393 0.21562 -0.36936 -0.90393 0.21562 -0.36936 -0.90393 0.21562 -0.36936 -0.90393 -0.43841 -0.76784 0.46714 -0.43841 -0.76784 0.46714 -0.43841 -0.76784 0.46714 -0.43841 -0.76784 0.46714 0.88417 0.0042504 0.46714 0.88417 0.0042503 0.46714 0.88417 0.0042504 0.46714 0.88417 0.0042503 0.46714 -0.88417 -0.0042504 0.46714 -0.88417 -0.0042503 0.46714 -0.88417 -0.0042504 0.46714 -0.88417 -0.0042503 0.46714 0.27848 -0.47703 0.8336 0.27848 -0.47703 0.8336 0.27848 -0.47703 0.8336 0.27848 -0.47703 0.8336 0.44577 -0.76359 0.46714 0.44577 -0.76359 0.46714 0.44577 -0.76359 0.46714 0.44577 -0.76359 0.46714 0.55236 0.0026553 0.8336 0.55236 0.0026553 0.8336 0.55236 0.0026553 0.8336 0.55236 0.0026553 0.8336 -0.55236 -0.0026553 0.8336 -0.55236 -0.0026553 0.8336 -0.55236 -0.0026553 0.8336 -0.55236 -0.0026553 0.8336 0.43841 0.76784 0.46714 0.43841 0.76784 0.46714 0.43841 0.76784 0.46714 0.43841 0.76784 0.46714 -0.27388 -0.47969 0.8336 -0.27388 -0.47969 0.8336 -0.27388 -0.47969 0.8336 -0.27388 -0.47969 0.8336 -0.27848 0.47703 0.8336 -0.27848 0.47703 0.8336 -0.27848 0.47703 0.8336 -0.27848 0.47703 0.8336 0.27388 0.47969 0.8336 0.27388 0.47969 0.8336 0.27388 0.47969 0.8336 0.27388 0.47969 0.8336 0 0 -1 0 0 -1 0 0 -1 0 0 -1 0 0 -1 0 0 -1 0 0 -1 0 0 -1 0 0 -1 0 0 -1 0 0 -1 0 0 -1</float_array><technique_common><accessor source="#g-n-a" count="432" stride="3"><param name="X" type="float"/><param name="Y" type="float"/><param name="Z" type="float"/></accessor></technique_common></source>
<vertices id="g-v"><input semantic="POSITION" source="#g-p"/><input semantic="NORMAL" source="#g-n"/></vertices>
<triangles material="m0" count="120"><input semantic="VERTEX" source="#g-v" offset="0"/><p>2 1 0 1 2 3 6 5 4 5 6 7 5 7 8 8 7 9 12 11 10 11 12 13 16 15 14 15 16 17 20 19 18 19 20 21 24 23 22 23 24 25 28 27 26 27 28 29 32 31 30 31 32 33 36 35 34 35 36 37 40 39 38 39 40 41 44 43 42 43 44 45 48 47 46 47 48 49 52 51 50 51 52 53 56 55 54 55 56 57 60 59 58 59 60 61 64 63 62 63 64 65 65 64 66 65 66 67 70 69 68 69 70 71 74 73 72 73 74 75 78 77 76 77 78 79 82 81 80 81 82 83 86 85 84 85 86 87 90 89 88 89 90 91 89 91 92 92 91 93 96 95 94 95 96 97 100 99 98 99 100 101 104 103 102 103 104 105 108 107 106 107 108 109 112 111 110 111 112 113 116 115 114 115 116 117 120 119 118 119 120 121 124 123 122 123 124 125 128 127 126 127 128 129 132 131 130 131 132 133 136 135 134 135 136 137 140 139 138 139 140 141 144 143 142 143 144 145 148 147 146 147 148 149 152 151 150 151 152 153 156 155 154 155 156 157 160 159 158 159 160 161 164 163 162 163 164 165 168 167 166 167 168 169 172 171 170 171 172 173 176 175 174 175 176 177 180 179 178 179 180 181 184 183 182 183 184 185 188 187 186 187 188 189 192 191 190 191 192 193 196 195 194 195 196 197 200 199 198 199 200 201 204 203 202 203 204 205 208 207 206 207 208 209 212 211 210 212 210 213 214 211 212 212 213 215 214 216 211 216 214 217 218 216 217 216 218 219 213 220 215 219 218 220 221 220 213 219 220 221</p></triangles>
<triangles material="m1" count="112"><input semantic="VERTEX" source="#g-v" offset="0"/><p>224 223 222 225 222 223 228 227 226 229 226 227 230 229 227 231 229 230 234 233 232 235 232 233 238 237 236 239 236 237 242 241 240 243 240 241 246 245 244 247 244 245 250 249 248 251 248 249 254 253 252 255 252 253 258 257 256 259 256 257 262 261 260 263 260 261 266 265 264 267 264 265 270 269 268 271 268 269 274 273 272 275 272 273 278 277 276 279 276 277 282 281 280 283 280 281 286 285 284 287 284 285 290 289 288 291 288 289 294 293 292 295 292 293 298 297 296 299 296 297 302 301 300 303 300 301 306 305 304 307 304 305 310 309 308 311 308 309 314 313 312 315 312 313 318 317 316 319 316 317 322 321 320 323 320 321 326 325 324 327 324 325 330 329 328 331 328 329 334 333 332 335 332 333 338 337 336 339 336 337 342 341 340 343 340 341 346 345 344 347 344 345 350 349 348 351 348 349 354 353 352 355 352 353 358 357 356 359 356 357 362 361 360 363 360 361 366 365 364 367 364 365 370 369 368 371 368 369 374 373 372 375 372 373 378 377 376 379 376 377 382 381 380 383 380 381 386 385 384 387 384 385 390 389 388 391 388 389 394 393 392 395 392 393 398 397 396 399 396 397 402 401 400 403 400 401 406 405 404 407 404 405 410 409 408 411 408 409 414 413 412 415 412 413 418 417 416 419 416 417 422 421 420 423 422 420 420 421 424 425 423 420 421 426 424 427 424 426 427 426 428 429 428 426 425 430 423 430 428 429 423 430 431 431 430 429</p></triangles>
</mesh></geometry></library_geometries><library_visual_scenes><visual_scene id="Scene"><node id="n" name="wine-glass"><instance_geometry url="#g"><bind_material><technique_common>
<instance_material symbol="m0" target="#m0"/>
<instance_material symbol="m1" target="#m1"/>
</technique_common></bind_material></instance_geometry></node></visual_scene></library_visual_scenes><scene><instance_visual_scene url="#Scene"/></scene></COLLADA>
